<?xml version="1.0" encoding="UTF-8"?>
<!-- Generator: Adobe Illustrator 16.0.4, SVG Export Plug-In . SVG Version: 6.00 Build 0)  -->
<!DOCTYPE svg PUBLIC "-//W3C//DTD SVG 1.1//EN" "http://www.w3.org/Graphics/SVG/1.1/DTD/svg11.dtd">
<svg version="1.1" id="svg2" xmlns:dc="http://purl.org/dc/elements/1.1/" xmlns:cc="http://web.resource.org/cc/" xmlns:rdf="http://www.w3.org/1999/02/22-rdf-syntax-ns#" xmlns:svg="http://www.w3.org/2000/svg" xmlns:sodipodi="http://sodipodi.sourceforge.net/DTD/sodipodi-0.dtd" xmlns:inkscape="http://www.inkscape.org/namespaces/inkscape" sodipodi:docbase="/home/federico/Desktop/Flags" inkscape:version="0.45.1" sodipodi:docname="Nuvola_Australian_flag.svg" sodipodi:version="0.32" inkscape:output_extension="org.inkscape.output.svg.inkscape" xmlns="http://www.w3.org/2000/svg" xmlns:xlink="http://www.w3.org/1999/xlink" x="0px" y="0px" width="48px" height="48px" viewBox="0 0 48 48" enable-background="new 0 0 48 48" xml:space="preserve">
<g id="g3131">
	<path id="path15" fill="#4D4D4D" d="M46.567,6.088C31.363-1.956,16.159,16.097,0.956,7.501C0.428,7.203,0,7.353,0,7.88   c0,10.747,0,21.493,0,32.239c0,0.527,0.428,1.234,0.956,1.531c15.363,8.686,30.726-9.837,46.089-1.151   C47.572,40.797,48,40.647,48,40.119c0-10.746,0-21.492,0-32.239c0-0.527-0.428-1.233-0.955-1.531   C46.886,6.26,46.727,6.173,46.567,6.088z"/>
	<path id="path30" fill="#92D4F7" d="M46.567,7.044c0,0.348-2.792-1.914-6.995-2.073c-4.203-0.441-9.816,1.22-15.46,2.893   c-5.643,1.668-11.315,3.354-15.635,2.917c-4.32-0.16-7.288-2.443-7.521-2.325c0,0.915,0,31.325,0,32.239   c0.231-0.15,3.17,2.152,7.462,2.324c4.292,0.449,9.938-1.232,15.583-2.908c5.646-1.674,11.291-3.348,15.582-2.895   c4.293,0.176,7.231,2.478,7.463,2.327c0-0.915,0-31.325,0-32.239C46.806,7.169,46.567,7.044,46.567,7.044z"/>
	<polyline id="polyline3117" fill="none" points="0,48 0,0 48,0 48,48  "/>
	<g id="g3123">
		<g id="Commonwealth_Star" transform="matrix(2.8825259,-0.3029645,0,2.8825259,72.469948,187.66344)">
			<polygon id="Star7" fill="#FFFFFF" points="13.588,30.322 14.526,33.141 17.391,31.754 15.696,34.484 18.331,35.771      15.278,36.357 15.699,39.348 13.588,37.349 11.478,39.791 11.898,36.713 8.846,36.768 11.48,34.928 9.785,32.554 12.65,33.338         "/>
		</g>
		<g id="use2421" transform="matrix(1.3726314,-7.1936286e-2,0,1.3726314,195.37067,172.29788)">
			<polygon id="Star7_1_" fill="#FFFFFF" points="36.632,29.989 37.078,31.355 38.443,30.767 37.636,32.024 38.891,32.703      37.438,32.905 37.637,34.34 36.632,33.336 35.627,34.445 35.827,32.99 34.373,32.939 35.629,32.129 34.82,30.957 36.186,31.402         "/>
		</g>
		<g id="use2423" transform="matrix(1.3726314,-0.3168957,0,1.3726314,163.69189,103.75384)">
			<polygon id="Star7_2_" fill="#FFFFFF" points="30.692,17.138 31.139,18.423 32.504,17.592 31.695,18.993 32.951,19.448      31.497,19.91 31.697,21.309 30.692,20.483 29.688,21.773 29.887,20.282 28.434,20.491 29.688,19.457 28.881,18.428      30.246,18.629    "/>
		</g>
		<g id="use2425" transform="matrix(1.3726314,-7.1936286e-2,0,1.3726314,195.37067,56.996838)">
			<polygon id="Star7_3_" fill="#FFFFFF" points="36.632,8.371 37.078,9.736 38.443,9.148 37.636,10.405 38.891,11.084      37.438,11.287 37.637,12.721 36.632,11.716 35.627,12.827 35.827,11.371 34.373,11.321 35.629,10.51 34.82,9.337 36.186,9.783         "/>
		</g>
		<g id="use2427" transform="matrix(1.3726314,0.3422341,0,1.3726314,228.36477,92.43732)">
			<polygon id="Star7_4_" fill="#FFFFFF" points="42.818,15.016 43.266,16.516 44.629,16.339 43.822,17.353 45.076,18.411      43.623,18.174 43.823,19.669 42.818,18.361 41.813,19.168 42.014,17.773 40.561,17.284 41.814,16.853 41.008,15.436      42.371,16.293    "/>
		</g>
		<g id="use2429" transform="matrix(0.8007016,0,0,0.8007016,209.94604,121.8829)">
			<polygon id="Star5" fill="#FFFFFF" points="39.365,21.502 39.718,22.367 40.65,22.436 39.936,23.039 40.159,23.946      39.365,23.454 38.57,23.946 38.794,23.039 38.08,22.436 39.012,22.367    "/>
		</g>
	</g>
	<g id="g2492" transform="translate(0,-3.9407885e-6)">
		<path id="path2349" sodipodi:nodetypes="ccccc" fill="#000066" d="M1.44,9.125c0,1.108,0,15.334,0,16.384    c6.744,3.787,15.488,1.516,23.097-0.885c0-1.066,0.02-15.333,0.02-16.458C16.62,10.768,8.736,13.195,1.44,9.125z"/>
		<path id="path2351" sodipodi:nodetypes="ccccccc" fill="#FFFFFF" d="M1.44,24.039c0,1.109,0,0.421,0,1.471    c0.389,0.402,1.305,0.652,2.225,1.029c11.746-5.203,15.419-8.857,20.894-16.69c0-1.067-0.002-0.556-0.002-1.682    c-0.625,0.195-2.344,0.777-2.928,0.937C16.082,16.309,13.449,19.78,1.44,24.039z"/>
		<path id="path2353" sodipodi:nodetypes="ccccccc" fill="#FFFFFF" d="M1.44,11.523c0-0.964,0-1.472,0-2.424    c0.389,0.402,1.823,0.892,2.744,1.269c8.066,7.543,10.345,8.685,20.354,12.548c0,0.719,0.003,1.052,0.003,1.708    c-0.626,0.195-2.291,0.72-2.875,0.879C12.036,21.154,10.29,20.95,1.44,11.523z"/>
		<path id="path2355" sodipodi:nodetypes="ccccc" fill="#FFFFFF" d="M10.217,11.293c0,1.109,0.181,15.176,0.181,16.227    c1.729-0.002,3.57-0.166,5.089-0.506c0-1.066,0-15.195,0-16.321C14.22,11.053,11.578,11.376,10.217,11.293z"/>
		<path id="path2357" sodipodi:nodetypes="ccccc" fill="#CC0000" d="M1.44,10.727c0-0.964,0-0.675,0-1.628    c4.859,5.583,7.253,7.83,11.333,10.265c-0.24,0.452-0.551,0.556-0.827,0.844C8.06,17.621,5.671,15.422,1.44,10.727z"/>
		<path id="path2359" sodipodi:nodetypes="ccccc" fill="#CC0000" d="M13.54,19.579c0.053-0.098,0.643-0.586,0.678-0.743    c2.394,1.461,6.249,3.327,10.32,4.641c0,0.262,0.005,0.802,0.005,1.148C19.873,23.002,16.119,21.212,13.54,19.579z"/>
		<path id="path2361" sodipodi:nodetypes="ccccc" fill="#CC0000" d="M13.632,19.646c0.053-0.098-1.093-0.498-1.058-0.655    c5.855-3.951,6.604-5.803,10.034-10.188c0.606-0.197,1.25-0.412,1.962-0.635C19.904,14.122,18.982,15.636,13.632,19.646z"/>
		<path id="path2363" sodipodi:nodetypes="ccccc" fill="#CC0000" d="M14.304,20.175c0.053-0.098-1.171-0.648-1.135-0.805    C9.933,21.618,7,23.62,1.433,25.502c0.321,0.312,0.737,0.49,1.5,0.74C6.803,24.436,10.325,22.561,14.304,20.175z"/>
		<path id="path2365" sodipodi:nodetypes="ccccc" fill="#FFFFFF" d="M1.44,14.844c0,1.109,0,4.753,0,5.803    c6.744,3.787,15.488,1.442,23.097-0.957c0-1.067,0.02-4.679,0.02-5.805C16.62,16.486,8.736,18.914,1.44,14.844z"/>
		<path id="path2367" sodipodi:nodetypes="ccccc" fill="#CC0000" d="M1.44,16.214c0,1.108,0,2.143,0,3.193    c6.744,3.787,15.488,1.442,23.097-0.958c0-1.067,0.02-2.137,0.02-3.263C16.62,17.788,8.736,20.284,1.44,16.214z"/>
		<path id="path2369" sodipodi:nodetypes="ccccc" fill="#CC0000" d="M11.34,11.285c0,1.109,0.004,15.154,0.004,16.205    c0.936-0.001,2.398-0.166,3.043-0.267c0-1.067,0.002-15.173,0.002-16.299C13.668,11.058,12.065,11.244,11.34,11.285z"/>
	</g>
</g>
<g id="layer1">
	
		<linearGradient id="path3186_1_" gradientUnits="userSpaceOnUse" x1="752.7764" y1="-340.9683" x2="934.7127" y2="-340.9684" gradientTransform="matrix(0.2939 0 0 -0.2939 -219.8387 -76.2236)">
		<stop offset="0" style="stop-color:#FFFFFF;stop-opacity:0.6667"/>
		<stop offset="0.2407" style="stop-color:#D7D7D7;stop-opacity:0.2188"/>
		<stop offset="0.4586" style="stop-color:#4D4D4D;stop-opacity:0"/>
		<stop offset="0.7189" style="stop-color:#FFFFFF;stop-opacity:0.5104"/>
		<stop offset="0.8735" style="stop-color:#F2F2F2;stop-opacity:0.4"/>
		<stop offset="1" style="stop-color:#FFFFFF;stop-opacity:0.6235"/>
	</linearGradient>
	<path id="path3186" fill="url(#path3186_1_)" d="M46.567,38.805c-15.045-7.959-30.09,9.634-45.135,1.674   c0-10.428,0-20.855,0-31.284c15.045,7.959,30.09-9.633,45.135-1.673C46.567,17.949,46.567,28.377,46.567,38.805z"/>
</g>
</svg>