<?xml version="1.0" encoding="UTF-8" standalone="no"?>
<!-- Created with Sodipodi ("http://www.sodipodi.com/") -->
<svg xmlns:inkscape="http://www.inkscape.org/namespaces/inkscape" xmlns:rdf="http://www.w3.org/1999/02/22-rdf-syntax-ns#" xmlns="http://www.w3.org/2000/svg" xmlns:cc="http://creativecommons.org/ns#" xmlns:dc="http://purl.org/dc/elements/1.1/" xmlns:sodipodi="http://sodipodi.sourceforge.net/DTD/sodipodi-0.dtd" xmlns:svg="http://www.w3.org/2000/svg" xmlns:ns1="http://sozi.baierouge.fr" id="svg548" inkscape:version="0.48.3.1 r9886" viewBox="0 0 992.13 496.07" sodipodi:version="0.32" version="1.1" sodipodi:docname="_svgclean2.svg" xmlns:xlink="http://www.w3.org/1999/xlink">
  <sodipodi:namedview id="base" inkscape:window-x="0" inkscape:window-y="0" snaptogrid="false" inkscape:window-maximized="0" inkscape:zoom="0.22425739" inkscape:window-height="645" showgrid="false" inkscape:current-layer="svg548" inkscape:cx="372.04724" inkscape:cy="-30.115543" inkscape:window-width="674"/>
  <g id="g577" transform="translate(.000037551 .000030741)">
    <rect id="rect576" style="fill-rule:evenodd;fill:#ffffff" height="496.06" width="992.13" y="-.000008" x="0"/>
    <path id="path570" style="fill-rule:evenodd;fill:#000063" d="m992.13 330.3c-11.12 7.2-20.67 24.03-50.21 24.03-59.04 0-73.81-35.43-118.1-35.43-29.53 0-44.29 35.43-73.82 35.43-59.06 0-73.82-35.43-118.11-35.43-29.53 0-44.29 35.43-73.82 35.43-59.05 0-73.82-35.43-118.11-35.43-29.53 0-44.29 35.43-73.82 35.43-59.05 0-73.82-35.43-118.11-35.43-29.53 0-44.29 35.43-73.82 35.43-59.05 0-73.82-35.43-118.11-35.43-29.525 0-38.384 25.25-56.1 25.25v45.61c17.716 0 26.575-25.24 56.102-25.24 44.288 0 59.058 35.43 118.11 35.43 29.53 0 44.29-35.43 73.82-35.43 44.29 0 59.06 35.43 118.11 35.43 29.53 0 44.29-35.43 73.82-35.43 44.29 0 59.06 35.43 118.11 35.43 29.53 0 44.29-35.43 73.82-35.43 44.29 0 59.05 35.43 118.11 35.43 29.53 0 44.29-35.43 73.82-35.43 44.29 0 59.06 35.43 118.1 35.43 29.54 0 39.09-10.04 50.21-17.24v-52.41z" sodipodi:nodetypes="ccccccccccccccccccccccccc" inkscape:connector-curvature="0" transform="matrix(1 0 0 .92873 0 124.62)"/>
    <path id="path571" style="fill-rule:evenodd;fill:#000063" d="m992.13 330.3c-11.12 7.2-20.67 24.03-50.21 24.03-59.04 0-73.81-35.43-118.1-35.43-29.53 0-44.29 35.43-73.82 35.43-59.06 0-73.82-35.43-118.11-35.43-29.53 0-44.29 35.43-73.82 35.43-59.05 0-73.82-35.43-118.11-35.43-29.53 0-44.29 35.43-73.82 35.43-59.05 0-73.82-35.43-118.11-35.43-29.53 0-44.29 35.43-73.82 35.43-59.05 0-73.82-35.43-118.11-35.43-29.525 0-38.384 25.25-56.1 25.25v45.61c17.716 0 26.575-25.24 56.102-25.24 44.288 0 59.058 35.43 118.11 35.43 29.53 0 44.29-35.43 73.82-35.43 44.29 0 59.06 35.43 118.11 35.43 29.53 0 44.29-35.43 73.82-35.43 44.29 0 59.06 35.43 118.11 35.43 29.53 0 44.29-35.43 73.82-35.43 44.29 0 59.05 35.43 118.11 35.43 29.53 0 44.29-35.43 73.82-35.43 44.29 0 59.06 35.43 118.1 35.43 29.54 0 39.09-10.04 50.21-17.24v-52.41z" sodipodi:nodetypes="ccccccccccccccccccccccccc" inkscape:connector-curvature="0" transform="matrix(1 0 0 .92873 0 42.349)"/>
    <path id="path572" style="fill-rule:evenodd;fill:#000063" d="m992.13 330.3c-11.12 7.2-20.67 24.03-50.21 24.03-59.04 0-73.81-35.43-118.1-35.43-29.53 0-44.29 35.43-73.82 35.43-59.06 0-73.82-35.43-118.11-35.43-29.53 0-44.29 35.43-73.82 35.43-59.05 0-73.82-35.43-118.11-35.43-29.53 0-44.29 35.43-73.82 35.43-59.05 0-73.82-35.43-118.11-35.43-29.53 0-44.29 35.43-73.82 35.43-59.05 0-73.82-35.43-118.11-35.43-29.525 0-38.384 25.25-56.1 25.25v45.61c17.716 0 26.575-25.24 56.102-25.24 44.288 0 59.058 35.43 118.11 35.43 29.53 0 44.29-35.43 73.82-35.43 44.29 0 59.06 35.43 118.11 35.43 29.53 0 44.29-35.43 73.82-35.43 44.29 0 59.06 35.43 118.11 35.43 29.53 0 44.29-35.43 73.82-35.43 44.29 0 59.05 35.43 118.11 35.43 29.53 0 44.29-35.43 73.82-35.43 44.29 0 59.06 35.43 118.1 35.43 29.54 0 39.09-10.04 50.21-17.24v-52.41z" sodipodi:nodetypes="ccccccccccccccccccccccccc" inkscape:connector-curvature="0" transform="matrix(1 0 0 .92873 0 -39.921)"/>
    <path id="path573" style="fill-rule:evenodd;fill:#000063" d="m992.13 330.3c-11.12 7.2-20.67 24.03-50.21 24.03-59.04 0-73.81-35.43-118.1-35.43-29.53 0-44.29 35.43-73.82 35.43-59.06 0-73.82-35.43-118.11-35.43-29.53 0-44.29 35.43-73.82 35.43-59.05 0-73.82-35.43-118.11-35.43-29.53 0-44.29 35.43-73.82 35.43-59.05 0-73.82-35.43-118.11-35.43-29.53 0-44.29 35.43-73.82 35.43-59.05 0-73.82-35.43-118.11-35.43-29.525 0-38.384 25.25-56.1 25.25v45.61c17.716 0 26.575-25.24 56.102-25.24 44.288 0 59.058 35.43 118.11 35.43 29.53 0 44.29-35.43 73.82-35.43 44.29 0 59.06 35.43 118.11 35.43 29.53 0 44.29-35.43 73.82-35.43 44.29 0 59.06 35.43 118.11 35.43 29.53 0 44.29-35.43 73.82-35.43 44.29 0 59.05 35.43 118.11 35.43 29.53 0 44.29-35.43 73.82-35.43 44.29 0 59.06 35.43 118.1 35.43 29.54 0 39.09-10.04 50.21-17.24v-52.41z" sodipodi:nodetypes="ccccccccccccccccccccccccc" inkscape:connector-curvature="0" transform="matrix(1 0 0 .92873 0 -122.19)"/>
    <path id="path574" style="fill-rule:evenodd;fill:#000063" d="m992.13 330.3c-11.12 7.2-20.67 24.03-50.21 24.03-59.04 0-73.81-35.43-118.1-35.43-29.53 0-44.29 35.43-73.82 35.43-59.06 0-73.82-35.43-118.11-35.43-29.53 0-44.29 35.43-73.82 35.43-59.05 0-73.82-35.43-118.11-35.43-29.53 0-44.29 35.43-73.82 35.43-59.05 0-73.82-35.43-118.11-35.43-29.53 0-44.29 35.43-73.82 35.43-59.05 0-73.82-35.43-118.11-35.43-29.525 0-38.384 25.25-56.1 25.25v45.61c17.716 0 26.575-25.24 56.102-25.24 44.288 0 59.058 35.43 118.11 35.43 29.53 0 44.29-35.43 73.82-35.43 44.29 0 59.06 35.43 118.11 35.43 29.53 0 44.29-35.43 73.82-35.43 44.29 0 59.06 35.43 118.11 35.43 29.53 0 44.29-35.43 73.82-35.43 44.29 0 59.05 35.43 118.11 35.43 29.53 0 44.29-35.43 73.82-35.43 44.29 0 59.06 35.43 118.1 35.43 29.54 0 39.09-10.04 50.21-17.24v-52.41z" sodipodi:nodetypes="ccccccccccccccccccccccccc" inkscape:connector-curvature="0" transform="matrix(1,0,0,0.92873,-3.7551e-5,-204.46)"/>
    <path id="path575" style="fill-rule:evenodd;fill:#000063" d="m992.13 330.3c-11.12 7.2-20.67 24.03-50.21 24.03-59.04 0-73.81-35.43-118.1-35.43-29.53 0-44.29 35.43-73.82 35.43-59.06 0-73.82-35.43-118.11-35.43-29.53 0-44.29 35.43-73.82 35.43-59.05 0-73.82-35.43-118.11-35.43-29.53 0-44.29 35.43-73.82 35.43-59.05 0-73.82-35.43-118.11-35.43-29.53 0-44.29 35.43-73.82 35.43-59.05 0-73.82-35.43-118.11-35.43-29.525 0-38.384 25.25-56.1 25.25v45.61c17.716 0 26.575-25.24 56.102-25.24 44.288 0 59.058 35.43 118.11 35.43 29.53 0 44.29-35.43 73.82-35.43 44.29 0 59.06 35.43 118.11 35.43 29.53 0 44.29-35.43 73.82-35.43 44.29 0 59.06 35.43 118.11 35.43 29.53 0 44.29-35.43 73.82-35.43 44.29 0 59.05 35.43 118.11 35.43 29.53 0 44.29-35.43 73.82-35.43 44.29 0 59.06 35.43 118.1 35.43 29.54 0 39.09-10.04 50.21-17.24v-52.41z" sodipodi:nodetypes="ccccccccccccccccccccccccc" inkscape:connector-curvature="0" transform="matrix(1,0,0,0.92873,-3.7551e-5,-286.73)"/>
  </g>
  <g id="g684" transform="translate(0 0.000046)">
    <rect id="rect683" style="fill-rule:evenodd;stroke-width:1pt;fill:#000063" height="248.03" width="496.06" y="-0.000046" x="0"/>
    <g id="g584" transform="matrix(8.2677,0,0,8.2677,0,2.2888e-5)">
      <path id="path146" style="stroke-width:1pt;fill:#ffffff" inkscape:connector-curvature="0" d="m0 0v3.3541l53.292 26.646h6.708v-3.354l-53.292-26.646h-6.708zm60 0v3.354l-53.292 26.646h-6.708v-3.354l53.292-26.646h6.708z"/>
      <path id="path136" style="stroke-width:1pt;fill:#ffffff" inkscape:connector-curvature="0" d="m25 0v30h10v-30h-10zm-25 10v10h60v-10h-60z"/>
      <path id="path141" style="stroke-width:1pt;fill:#cc0000" inkscape:connector-curvature="0" d="m0 12v6h60v-6h-60zm27-12v30h6v-30h-6z"/>
      <path id="path150" style="stroke-width:1pt;fill:#cc0000" inkscape:connector-curvature="0" d="m0 30 20-10h4.472l-20 10h-4.472zm0-30 20 10h-4.472l-15.528-7.7639v-2.2361zm35.528 10 20-10h4.472l-20 10h-4.472zm24.472 20-20-10h4.472l15.528 7.764v2.236z"/>
    </g>
  </g>
  <g id="g1127" transform="translate(0 0.000046)">
    <path id="path861" style="fill-rule:evenodd;stroke:#ffffff;stroke-width:6.9349;fill:#a24300" d="m814.96-301.18-17.72 708.66c0 37.3 80.1 37.3 88.59 0l-17.72-708.66h-53.15z" sodipodi:nodetypes="ccccc" inkscape:connector-curvature="0" transform="matrix(.2 0 0 .475 575.17 274.56)"/>
    <g id="g862" transform="matrix(.7252 0 0 .6231 202.06 41.434)">
      <g id="g852" transform="matrix(-.31451 .10485 -.13829 -.30324 1046.5 373.32)">
        <path id="path853" style="fill-rule:evenodd;stroke:#ffffff;stroke-width:8.25;fill:#006d00" d="m496.06 549.21 17.72 70.87 35.43-53.15-17.71 88.58 35.43-35.43-35.43 88.58 35.43-35.43-35.43 88.58 35.43-35.43-35.43 106.3 35.43-35.44-35.43 106.3 35.43-35.43-35.43 106.3-17.72 53.19-17.72 17.7-17.71-17.7-17.72-53.19-35.43-106.3 35.43 35.43-35.43-106.3 35.43 35.44-35.43-106.3 35.43 35.43-35.43-88.58 35.43 35.43-35.43-88.58 35.43 35.43-17.72-88.58 35.44 53.15 17.71-70.87z" sodipodi:nodetypes="ccccccccccccccccccccccccccccccc" inkscape:connector-curvature="0" transform="translate(177.17,-224.05)"/>
        <path id="path854" style="stroke:#000000;stroke-width:1pt;fill:none" d="m496.06 549.21v496.09" sodipodi:nodetypes="cc" inkscape:connector-curvature="0" transform="translate(177.17,-224.05)"/>
        <path id="path855" style="stroke:#000000;stroke-width:1pt;fill:none" d="m425.2 868.11 70.86 106.3 70.87-106.3" sodipodi:nodetypes="ccc" inkscape:connector-curvature="0" transform="translate(177.17,-224.05)"/>
        <path id="path856" style="stroke:#000000;stroke-width:1pt;fill:none" d="m425.2 797.24 70.86 106.3 70.87-106.3" sodipodi:nodetypes="ccc" inkscape:connector-curvature="0" transform="translate(177.17,-224.05)"/>
        <path id="path857" style="stroke:#000000;stroke-width:1pt;fill:none" d="m425.2 726.38 70.86 106.3 70.87-106.3" sodipodi:nodetypes="ccc" inkscape:connector-curvature="0" transform="translate(177.17,-224.05)"/>
        <path id="path858" style="stroke:#000000;stroke-width:1pt;fill:none" d="m425.2 673.23 70.86 88.58 70.87-88.58" sodipodi:nodetypes="ccc" inkscape:connector-curvature="0" transform="translate(177.17,-224.05)"/>
        <path id="path859" style="stroke:#000000;stroke-width:1pt;fill:none" d="m425.2 620.08 70.86 88.58 70.87-88.58" sodipodi:nodetypes="ccc" inkscape:connector-curvature="0" transform="translate(177.17,-224.05)"/>
        <path id="path860" style="stroke:#000000;stroke-width:1pt;fill:none" d="m442.91 566.93 53.15 106.3 53.15-106.3" sodipodi:nodetypes="ccc" inkscape:connector-curvature="0" transform="translate(177.17,-224.05)"/>
      </g>
      <g id="g738" transform="matrix(.23652 -.28186 .29496 .22762 354.57 204.65)">
        <path id="path739" style="fill-rule:evenodd;stroke:#ffffff;stroke-width:8.25;fill:#006d00" d="m496.06 549.21 17.72 70.87 35.43-53.15-17.71 88.58 35.43-35.43-35.43 88.58 35.43-35.43-35.43 88.58 35.43-35.43-35.43 106.3 35.43-35.44-35.43 106.3 35.43-35.43-35.43 106.3-17.72 53.19-17.72 17.7-17.71-17.7-17.72-53.19-35.43-106.3 35.43 35.43-35.43-106.3 35.43 35.44-35.43-106.3 35.43 35.43-35.43-88.58 35.43 35.43-35.43-88.58 35.43 35.43-17.72-88.58 35.44 53.15 17.71-70.87z" sodipodi:nodetypes="ccccccccccccccccccccccccccccccc" inkscape:connector-curvature="0" transform="translate(177.17,-224.05)"/>
        <path id="path740" style="stroke:#000000;stroke-width:1pt;fill:none" d="m496.06 549.21v496.09" sodipodi:nodetypes="cc" inkscape:connector-curvature="0" transform="translate(177.17,-224.05)"/>
        <path id="path741" style="stroke:#000000;stroke-width:1pt;fill:none" d="m425.2 868.11 70.86 106.3 70.87-106.3" sodipodi:nodetypes="ccc" inkscape:connector-curvature="0" transform="translate(177.17,-224.05)"/>
        <path id="path742" style="stroke:#000000;stroke-width:1pt;fill:none" d="m425.2 797.24 70.86 106.3 70.87-106.3" sodipodi:nodetypes="ccc" inkscape:connector-curvature="0" transform="translate(177.17,-224.05)"/>
        <path id="path743" style="stroke:#000000;stroke-width:1pt;fill:none" d="m425.2 726.38 70.86 106.3 70.87-106.3" sodipodi:nodetypes="ccc" inkscape:connector-curvature="0" transform="translate(177.17,-224.05)"/>
        <path id="path744" style="stroke:#000000;stroke-width:1pt;fill:none" d="m425.2 673.23 70.86 88.58 70.87-88.58" sodipodi:nodetypes="ccc" inkscape:connector-curvature="0" transform="translate(177.17,-224.05)"/>
        <path id="path745" style="stroke:#000000;stroke-width:1pt;fill:none" d="m425.2 620.08 70.86 88.58 70.87-88.58" sodipodi:nodetypes="ccc" inkscape:connector-curvature="0" transform="translate(177.17,-224.05)"/>
        <path id="path746" style="stroke:#000000;stroke-width:1pt;fill:none" d="m442.91 566.93 53.15 106.3 53.15-106.3" sodipodi:nodetypes="ccc" inkscape:connector-curvature="0" transform="translate(177.17,-224.05)"/>
      </g>
      <g id="g747" transform="matrix(.15164 .33524 -.3329 .16731 907.54 -153.47)">
        <path id="path748" style="fill-rule:evenodd;stroke:#ffffff;stroke-width:8.25;fill:#006d00" d="m496.06 549.21 17.72 70.87 35.43-53.15-17.71 88.58 35.43-35.43-35.43 88.58 35.43-35.43-35.43 88.58 35.43-35.43-35.43 106.3 35.43-35.44-35.43 106.3 35.43-35.43-35.43 106.3-17.72 53.19-17.72 17.7-17.71-17.7-17.72-53.19-35.43-106.3 35.43 35.43-35.43-106.3 35.43 35.44-35.43-106.3 35.43 35.43-35.43-88.58 35.43 35.43-35.43-88.58 35.43 35.43-17.72-88.58 35.44 53.15 17.71-70.87z" sodipodi:nodetypes="ccccccccccccccccccccccccccccccc" inkscape:connector-curvature="0" transform="translate(177.17,-224.05)"/>
        <path id="path749" style="stroke:#000000;stroke-width:1pt;fill:none" d="m496.06 549.21v496.09" sodipodi:nodetypes="cc" inkscape:connector-curvature="0" transform="translate(177.17,-224.05)"/>
        <path id="path750" style="stroke:#000000;stroke-width:1pt;fill:none" d="m425.2 868.11 70.86 106.3 70.87-106.3" sodipodi:nodetypes="ccc" inkscape:connector-curvature="0" transform="translate(177.17,-224.05)"/>
        <path id="path751" style="stroke:#000000;stroke-width:1pt;fill:none" d="m425.2 797.24 70.86 106.3 70.87-106.3" sodipodi:nodetypes="ccc" inkscape:connector-curvature="0" transform="translate(177.17,-224.05)"/>
        <path id="path752" style="stroke:#000000;stroke-width:1pt;fill:none" d="m425.2 726.38 70.86 106.3 70.87-106.3" sodipodi:nodetypes="ccc" inkscape:connector-curvature="0" transform="translate(177.17,-224.05)"/>
        <path id="path753" style="stroke:#000000;stroke-width:1pt;fill:none" d="m425.2 673.23 70.86 88.58 70.87-88.58" sodipodi:nodetypes="ccc" inkscape:connector-curvature="0" transform="translate(177.17,-224.05)"/>
        <path id="path754" style="stroke:#000000;stroke-width:1pt;fill:none" d="m425.2 620.08 70.86 88.58 70.87-88.58" sodipodi:nodetypes="ccc" inkscape:connector-curvature="0" transform="translate(177.17,-224.05)"/>
        <path id="path755" style="stroke:#000000;stroke-width:1pt;fill:none" d="m442.91 566.93 53.15 106.3 53.15-106.3" sodipodi:nodetypes="ccc" inkscape:connector-curvature="0" transform="translate(177.17,-224.05)"/>
      </g>
      <g id="g756" transform="matrix(-.20952 .30246 -.3147 -.19945 1141.4 167.58)">
        <path id="path757" style="fill-rule:evenodd;stroke:#ffffff;stroke-width:8.25;fill:#006d00" d="m496.06 549.21 17.72 70.87 35.43-53.15-17.71 88.58 35.43-35.43-35.43 88.58 35.43-35.43-35.43 88.58 35.43-35.43-35.43 106.3 35.43-35.44-35.43 106.3 35.43-35.43-35.43 106.3-17.72 53.19-17.72 17.7-17.71-17.7-17.72-53.19-35.43-106.3 35.43 35.43-35.43-106.3 35.43 35.44-35.43-106.3 35.43 35.43-35.43-88.58 35.43 35.43-35.43-88.58 35.43 35.43-17.72-88.58 35.44 53.15 17.71-70.87z" sodipodi:nodetypes="ccccccccccccccccccccccccccccccc" inkscape:connector-curvature="0" transform="translate(177.17,-224.05)"/>
        <path id="path758" style="stroke:#000000;stroke-width:1pt;fill:none" d="m496.06 549.21v496.09" sodipodi:nodetypes="cc" inkscape:connector-curvature="0" transform="translate(177.17,-224.05)"/>
        <path id="path759" style="stroke:#000000;stroke-width:1pt;fill:none" d="m425.2 868.11 70.86 106.3 70.87-106.3" sodipodi:nodetypes="ccc" inkscape:connector-curvature="0" transform="translate(177.17,-224.05)"/>
        <path id="path760" style="stroke:#000000;stroke-width:1pt;fill:none" d="m425.2 797.24 70.86 106.3 70.87-106.3" sodipodi:nodetypes="ccc" inkscape:connector-curvature="0" transform="translate(177.17,-224.05)"/>
        <path id="path761" style="stroke:#000000;stroke-width:1pt;fill:none" d="m425.2 726.38 70.86 106.3 70.87-106.3" sodipodi:nodetypes="ccc" inkscape:connector-curvature="0" transform="translate(177.17,-224.05)"/>
        <path id="path762" style="stroke:#000000;stroke-width:1pt;fill:none" d="m425.2 673.23 70.86 88.58 70.87-88.58" sodipodi:nodetypes="ccc" inkscape:connector-curvature="0" transform="translate(177.17,-224.05)"/>
        <path id="path763" style="stroke:#000000;stroke-width:1pt;fill:none" d="m425.2 620.08 70.86 88.58 70.87-88.58" sodipodi:nodetypes="ccc" inkscape:connector-curvature="0" transform="translate(177.17,-224.05)"/>
        <path id="path764" style="stroke:#000000;stroke-width:1pt;fill:none" d="m442.91 566.93 53.15 106.3 53.15-106.3" sodipodi:nodetypes="ccc" inkscape:connector-curvature="0" transform="translate(177.17,-224.05)"/>
      </g>
      <g id="g765" transform="matrix(-.20772 -.25838 .23618 -.23515 689.99 567.28)">
        <path id="path766" style="fill-rule:evenodd;stroke:#ffffff;stroke-width:8.25;fill:#006d00" d="m496.06 549.21 17.72 70.87 35.43-53.15-17.71 88.58 35.43-35.43-35.43 88.58 35.43-35.43-35.43 88.58 35.43-35.43-35.43 106.3 35.43-35.44-35.43 106.3 35.43-35.43-35.43 106.3-17.72 53.19-17.72 17.7-17.71-17.7-17.72-53.19-35.43-106.3 35.43 35.43-35.43-106.3 35.43 35.44-35.43-106.3 35.43 35.43-35.43-88.58 35.43 35.43-35.43-88.58 35.43 35.43-17.72-88.58 35.44 53.15 17.71-70.87z" sodipodi:nodetypes="ccccccccccccccccccccccccccccccc" inkscape:connector-curvature="0" transform="translate(177.17,-224.05)"/>
        <path id="path767" style="stroke:#000000;stroke-width:1pt;fill:none" d="m496.06 549.21v496.09" sodipodi:nodetypes="cc" inkscape:connector-curvature="0" transform="translate(177.17,-224.05)"/>
        <path id="path768" style="stroke:#000000;stroke-width:1pt;fill:none" d="m425.2 868.11 70.86 106.3 70.87-106.3" sodipodi:nodetypes="ccc" inkscape:connector-curvature="0" transform="translate(177.17,-224.05)"/>
        <path id="path769" style="stroke:#000000;stroke-width:1pt;fill:none" d="m425.2 797.24 70.86 106.3 70.87-106.3" sodipodi:nodetypes="ccc" inkscape:connector-curvature="0" transform="translate(177.17,-224.05)"/>
        <path id="path770" style="stroke:#000000;stroke-width:1pt;fill:none" d="m425.2 726.38 70.86 106.3 70.87-106.3" sodipodi:nodetypes="ccc" inkscape:connector-curvature="0" transform="translate(177.17,-224.05)"/>
        <path id="path771" style="stroke:#000000;stroke-width:1pt;fill:none" d="m425.2 673.23 70.86 88.58 70.87-88.58" sodipodi:nodetypes="ccc" inkscape:connector-curvature="0" transform="translate(177.17,-224.05)"/>
        <path id="path772" style="stroke:#000000;stroke-width:1pt;fill:none" d="m425.2 620.08 70.86 88.58 70.87-88.58" sodipodi:nodetypes="ccc" inkscape:connector-curvature="0" transform="translate(177.17,-224.05)"/>
        <path id="path773" style="stroke:#000000;stroke-width:1pt;fill:none" d="m442.91 566.93 53.15 106.3 53.15-106.3" sodipodi:nodetypes="ccc" inkscape:connector-curvature="0" transform="translate(177.17,-224.05)"/>
      </g>
      <g id="g791" transform="matrix(-.36218 -.099472 -.20981 .31773 1222.4 -24.229)">
        <path id="path775" style="fill-rule:evenodd;stroke:#ffffff;stroke-width:8.25;fill:#006d00" d="m460.63 549.21 28.64 70.87 42.23-53.15-10.19 88.58 27.9-35.43-17.71 88.58 25.24-35.43-25.24 88.58 35.43-35.43-35.43 106.3 35.43-35.44-35.43 106.3 35.43-35.43-35.43 106.3-17.72 53.19-17.72 17.7-17.71-17.7-17.72-53.19-35.43-106.3 35.43 35.43-35.43-106.3 35.43 35.44-35.43-106.3 35.43 35.43-45.62-88.58 45.62 35.43-53.15-88.58 42.97 35.43-25.25-88.58 35.43 53.15v-70.87z" sodipodi:nodetypes="ccccccccccccccccccccccccccccccc" inkscape:connector-curvature="0" transform="translate(283.46,-124.02)"/>
        <path id="path776" style="stroke:#000000;stroke-width:1pt;fill:none" d="m467.21 584.65 28.85 124.01v336.64" sodipodi:nodetypes="ccc" inkscape:connector-curvature="0" transform="translate(283.46,-124.02)"/>
        <path id="path777" style="stroke:#000000;stroke-width:1pt;fill:none" d="m436.23 885.83 59.83 88.58 60.68-88.58" sodipodi:nodetypes="ccc" inkscape:connector-curvature="0" transform="translate(283.46,-124.02)"/>
        <path id="path778" style="stroke:#000000;stroke-width:1pt;fill:none" d="m434.53 814.96 61.53 88.58 60.68-88.58" sodipodi:nodetypes="ccc" inkscape:connector-curvature="0" transform="translate(283.46,-124.02)"/>
        <path id="path779" style="stroke:#000000;stroke-width:1pt;fill:none" d="m435.38 744.1 60.68 88.58 59.84-88.58" sodipodi:nodetypes="ccc" inkscape:connector-curvature="0" transform="translate(283.46,-124.02)"/>
        <path id="path780" style="stroke:#000000;stroke-width:1pt;fill:none" d="m432.84 690.94 63.22 70.87 53.15-70.87" sodipodi:nodetypes="ccc" inkscape:connector-curvature="0" transform="translate(283.46,-124.02)"/>
        <path id="path781" style="stroke:#000000;stroke-width:1pt;fill:none" d="m425.2 637.8 70.86 70.86 45.41-70.86" sodipodi:nodetypes="ccc" inkscape:connector-curvature="0" transform="translate(283.46,-124.02)"/>
        <path id="path782" style="stroke:#000000;stroke-width:1pt;fill:none" d="m436.12 593.24 53.15 86.88 35.33-95.47" sodipodi:nodetypes="ccc" inkscape:connector-curvature="0" transform="translate(283.46,-124.02)"/>
      </g>
      <g id="g800" transform="matrix(.36088 .10411 .013211 .38052 452.76 -239.27)">
        <path id="path801" style="fill-rule:evenodd;stroke:#ffffff;stroke-width:8.25;fill:#006d00" d="m460.63 549.21 28.64 70.87 42.23-53.15-10.19 88.58 27.9-35.43-17.71 88.58 25.24-35.43-25.24 88.58 35.43-35.43-35.43 106.3 35.43-35.44-35.43 106.3 35.43-35.43-35.43 106.3-17.72 53.19-17.72 17.7-17.71-17.7-17.72-53.19-35.43-106.3 35.43 35.43-35.43-106.3 35.43 35.44-35.43-106.3 35.43 35.43-45.62-88.58 45.62 35.43-53.15-88.58 42.97 35.43-25.25-88.58 35.43 53.15v-70.87z" sodipodi:nodetypes="ccccccccccccccccccccccccccccccc" inkscape:connector-curvature="0" transform="translate(283.46,-124.02)"/>
        <path id="path802" style="stroke:#000000;stroke-width:1pt;fill:none" d="m467.21 584.65 28.85 124.01v336.64" sodipodi:nodetypes="ccc" inkscape:connector-curvature="0" transform="translate(283.46,-124.02)"/>
        <path id="path803" style="stroke:#000000;stroke-width:1pt;fill:none" d="m436.23 885.83 59.83 88.58 60.68-88.58" sodipodi:nodetypes="ccc" inkscape:connector-curvature="0" transform="translate(283.46,-124.02)"/>
        <path id="path804" style="stroke:#000000;stroke-width:1pt;fill:none" d="m434.53 814.96 61.53 88.58 60.68-88.58" sodipodi:nodetypes="ccc" inkscape:connector-curvature="0" transform="translate(283.46,-124.02)"/>
        <path id="path805" style="stroke:#000000;stroke-width:1pt;fill:none" d="m435.38 744.1 60.68 88.58 59.84-88.58" sodipodi:nodetypes="ccc" inkscape:connector-curvature="0" transform="translate(283.46,-124.02)"/>
        <path id="path806" style="stroke:#000000;stroke-width:1pt;fill:none" d="m432.84 690.94 63.22 70.87 53.15-70.87" sodipodi:nodetypes="ccc" inkscape:connector-curvature="0" transform="translate(283.46,-124.02)"/>
        <path id="path807" style="stroke:#000000;stroke-width:1pt;fill:none" d="m425.2 637.8 70.86 70.86 45.41-70.86" sodipodi:nodetypes="ccc" inkscape:connector-curvature="0" transform="translate(283.46,-124.02)"/>
        <path id="path808" style="stroke:#000000;stroke-width:1pt;fill:none" d="m436.12 593.24 53.15 86.88 35.33-95.47" sodipodi:nodetypes="ccc" inkscape:connector-curvature="0" transform="translate(283.46,-124.02)"/>
      </g>
      <g id="g843" transform="matrix(.046132 -.36474 .32602 .064796 379.58 479.54)">
        <path id="path810" style="fill-rule:evenodd;stroke:#ffffff;stroke-width:8.25;fill:#006d00" d="m354.33 531.5 88.58 88.58 17.72-53.15v88.58l35.43-35.43-17.71 88.58 35.43-35.43-17.72 88.58 35.44-35.43-17.72 106.3 35.43-35.44-35.43 106.3 35.43-35.43-17.71 106.3-17.72 53.19-17.72 17.7-17.71-17.7-17.72-53.19-53.15-82.29 35.43 11.42-35.43-106.3 35.43 35.44-53.15-106.3 35.44 35.43-53.15-88.58 53.15 35.43-70.87-88.58 53.15 35.43-70.87-70.86 70.87 35.43-53.15-88.58z" sodipodi:nodetypes="ccccccccccccccccccccccccccccccc" inkscape:connector-curvature="0" transform="translate(442.91,-42.966)"/>
        <path id="path811" style="stroke:#000000;stroke-width:1pt;fill:none" d="m378.96 560.02 63.95 95.49 17.72 53.15 8.86 45.21 8.86 78.81 9.31 70.86 8.4 141.76" sodipodi:nodetypes="ccccccc" inkscape:connector-curvature="0" transform="translate(442.91,-42.966)"/>
        <path id="path812" style="stroke:#000000;stroke-width:1pt;fill:none" d="m425.2 903.54 63.66 70.87 50.75-88.58" sodipodi:nodetypes="ccc" inkscape:connector-curvature="0" transform="translate(442.91,-42.966)"/>
        <path id="path813" style="stroke:#000000;stroke-width:1pt;fill:none" d="m417.08 814.96 70.58 88.58 50.75-88.58" sodipodi:nodetypes="ccc" inkscape:connector-curvature="0" transform="translate(442.91,-42.966)"/>
        <path id="path814" style="stroke:#000000;stroke-width:1pt;fill:none" d="m407.48 752.44 70.87 80.24 45.95-88.58" sodipodi:nodetypes="ccc" inkscape:connector-curvature="0" transform="translate(442.91,-42.966)"/>
        <path id="path815" style="stroke:#000000;stroke-width:1pt;fill:none" d="m372.05 637.8 88.58 70.86 25.83-70.86" sodipodi:nodetypes="ccc" inkscape:connector-curvature="0" transform="translate(442.91,-42.966)"/>
        <path id="path816" style="stroke:#000000;stroke-width:1pt;fill:none" d="m360.62 602.36 82.29 53.15 10.52-53.15" sodipodi:nodetypes="ccc" inkscape:connector-curvature="0" transform="translate(442.91,-42.966)"/>
        <path id="path817" style="stroke:#000000;stroke-width:1pt;fill:none" d="m389.76 690.94 81.1 70.87 33.94-70.87" sodipodi:nodetypes="ccc" inkscape:connector-curvature="0" transform="translate(442.91,-42.966)"/>
      </g>
    </g>
  </g>
  <g id="g1060" transform="matrix(.13234 0 0 .12181 628.17 217.15)">
    <path id="path1054" inkscape:connector-curvature="0" sodipodi:nodetypes="ccccccccccccccc" style="fill-rule:evenodd;stroke:#000000;stroke-width:1pt;fill:#cc0000" d="m541.46 1173.3-1.7-229.13-61.1-106.94c-15.28-52.61-7.76-78.08 16.97-79.77 24.73-1.7 49.22 13.58 84.87 15.27 35.64 1.7 28.85-59.41 81.47-57.71s144.28 32.25 222.36 37.34c78.07 5.1 118.77-27.15 208.77-30.55 90-3.39 113.7 42.44 118.8 42.44s30.6-18.67 56-22.07c25.5-3.39 34 10.18 34 10.18s-1.7 57.72-13.6 91.66c-11.9 33.95-54.3 89.96-56 89.96s-15.3 249.52-15.3 251.22-675.54-6.8-675.54-11.9z"/>
    <g id="g1016" transform="matrix(-1,0,0,1,1771.7,354.33)">
      <path id="path1017" inkscape:connector-curvature="0" sodipodi:nodetypes="cssccsscccc" style="fill-rule:evenodd;stroke:#000000;stroke-width:1pt;fill:#fff100" d="m531.5 584.65s-67.99-52.1-69.82-177.17c-1.05-71.93 34.38-124.02 122.97-124.02 124.01 0 301.18 53.15 301.18 53.15v17.72s-141.73-53.15-301.18-53.15c-70.87 0-106.3 52.09-106.3 105.24 0 88.58 70.86 178.23 70.86 178.23v141.73h-17.71v-141.73z"/>
      <path id="path1018" sodipodi:rx="17.716522" sodipodi:ry="17.716553" style="fill-rule:evenodd;stroke:#000000;stroke-width:1pt;fill:#ffffff" sodipodi:type="arc" d="m478.35 549.21c0 9.7846-7.932 17.717-17.717 17.717-9.7846 0-17.717-7.932-17.717-17.717 0-9.7846 7.932-17.717 17.717-17.717 9.7846 0 17.717 7.932 17.717 17.717z" transform="translate(16.019,-1.6974)" sodipodi:cy="549.21259" sodipodi:cx="460.62991"/>
      <path id="path1019" sodipodi:rx="17.716522" sodipodi:ry="17.716553" style="fill-rule:evenodd;stroke:#000000;stroke-width:1pt;fill:#ffffff" sodipodi:type="arc" d="m478.35 549.21c0 9.7846-7.932 17.717-17.717 17.717-9.7846 0-17.717-7.932-17.717-17.717 0-9.7846 7.932-17.717 17.717-17.717 9.7846 0 17.717 7.932 17.717 17.717z" transform="translate(-1.6974,-42.223)" sodipodi:cy="549.21259" sodipodi:cx="460.62991"/>
      <path id="path1020" sodipodi:rx="17.716522" sodipodi:ry="17.716553" style="fill-rule:evenodd;stroke:#000000;stroke-width:1pt;fill:#ffffff" sodipodi:type="arc" d="m478.35 549.21c0 9.7846-7.932 17.717-17.717 17.717-9.7846 0-17.717-7.932-17.717-17.717 0-9.7846 7.932-17.717 17.717-17.717 9.7846 0 17.717 7.932 17.717 17.717z" transform="translate(-10.927,-83.491)" sodipodi:cy="549.21259" sodipodi:cx="460.62991"/>
      <path id="path1021" sodipodi:rx="17.716522" sodipodi:ry="17.716553" style="fill-rule:evenodd;stroke:#000000;stroke-width:1pt;fill:#ffffff" sodipodi:type="arc" d="m478.35 549.21c0 9.7846-7.932 17.717-17.717 17.717-9.7846 0-17.717-7.932-17.717-17.717 0-9.7846 7.932-17.717 17.717-17.717 9.7846 0 17.717 7.932 17.717 17.717z" transform="translate(-17.717,-127.62)" sodipodi:cy="549.21259" sodipodi:cx="460.62991"/>
      <path id="path1022" sodipodi:rx="17.716522" sodipodi:ry="17.716553" style="fill-rule:evenodd;stroke:#000000;stroke-width:1pt;fill:#ffffff" sodipodi:type="arc" d="m478.35 549.21c0 9.7846-7.932 17.717-17.717 17.717-9.7846 0-17.717-7.932-17.717-17.717 0-9.7846 7.932-17.717 17.717-17.717 9.7846 0 17.717 7.932 17.717 17.717z" transform="translate(-16.019,-175.47)" sodipodi:cy="549.21259" sodipodi:cx="460.62991"/>
      <path id="path1023" sodipodi:rx="17.716522" sodipodi:ry="17.716553" style="fill-rule:evenodd;stroke:#000000;stroke-width:1pt;fill:#ffffff" sodipodi:type="arc" d="m478.35 549.21c0 9.7846-7.932 17.717-17.717 17.717-9.7846 0-17.717-7.932-17.717-17.717 0-9.7846 7.932-17.717 17.717-17.717 9.7846 0 17.717 7.932 17.717 17.717z" transform="translate(41.48,33.947)" sodipodi:cy="549.21259" sodipodi:cx="460.62991"/>
      <path id="path1024" sodipodi:rx="17.716522" sodipodi:ry="17.716553" style="fill-rule:evenodd;stroke:#000000;stroke-width:1pt;fill:#ffffff" sodipodi:type="arc" d="m478.35 549.21c0 9.7846-7.932 17.717-17.717 17.717-9.7846 0-17.717-7.932-17.717-17.717 0-9.7846 7.932-17.717 17.717-17.717 9.7846 0 17.717 7.932 17.717 17.717z" transform="translate(-.9544 -220.66)" sodipodi:cy="549.21259" sodipodi:cx="460.62991"/>
      <path id="path1025" sodipodi:rx="17.716522" sodipodi:ry="17.716553" style="fill-rule:evenodd;stroke:#000000;stroke-width:1pt;fill:#ffffff" sodipodi:type="arc" d="m478.35 549.21c0 9.7846-7.932 17.717-17.717 17.717-9.7846 0-17.717-7.932-17.717-17.717 0-9.7846 7.932-17.717 17.717-17.717 9.7846 0 17.717 7.932 17.717 17.717z" transform="translate(31.295,-256.3)" sodipodi:cy="549.21259" sodipodi:cx="460.62991"/>
      <path id="path1026" sodipodi:rx="17.716522" sodipodi:ry="17.716553" style="fill-rule:evenodd;stroke:#000000;stroke-width:1pt;fill:#ffffff" sodipodi:type="arc" d="m478.35 549.21c0 9.7846-7.932 17.717-17.717 17.717-9.7846 0-17.717-7.932-17.717-17.717 0-9.7846 7.932-17.717 17.717-17.717 9.7846 0 17.717 7.932 17.717 17.717z" transform="translate(75.427,-280.06)" sodipodi:cy="549.21259" sodipodi:cx="460.62991"/>
      <path id="path1027" sodipodi:rx="17.716522" sodipodi:ry="17.716553" style="fill-rule:evenodd;stroke:#000000;stroke-width:1pt;fill:#ffffff" sodipodi:type="arc" d="m478.35 549.21c0 9.7846-7.932 17.717-17.717 17.717-9.7846 0-17.717-7.932-17.717-17.717 0-9.7846 7.932-17.717 17.717-17.717 9.7846 0 17.717 7.932 17.717 17.717z" transform="translate(119.56,-283.46)" sodipodi:cy="549.21259" sodipodi:cx="460.62991"/>
      <path id="path1028" sodipodi:rx="17.716522" sodipodi:ry="17.716553" style="fill-rule:evenodd;stroke:#000000;stroke-width:1pt;fill:#ffffff" sodipodi:type="arc" d="m478.35 549.21c0 9.7846-7.932 17.717-17.717 17.717-9.7846 0-17.717-7.932-17.717-17.717 0-9.7846 7.932-17.717 17.717-17.717 9.7846 0 17.717 7.932 17.717 17.717z" transform="translate(167.08,-281.76)" sodipodi:cy="549.21259" sodipodi:cx="460.62991"/>
      <path id="path1029" sodipodi:rx="17.716522" sodipodi:ry="17.716553" style="fill-rule:evenodd;stroke:#000000;stroke-width:1pt;fill:#ffffff" sodipodi:type="arc" d="m478.35 549.21c0 9.7846-7.932 17.717-17.717 17.717-9.7846 0-17.717-7.932-17.717-17.717 0-9.7846 7.932-17.717 17.717-17.717 9.7846 0 17.717 7.932 17.717 17.717z" transform="translate(214.61,-274.97)" sodipodi:cy="549.21259" sodipodi:cx="460.62991"/>
      <path id="path1030" sodipodi:rx="17.716522" sodipodi:ry="17.716553" style="fill-rule:evenodd;stroke:#000000;stroke-width:1pt;fill:#ffffff" sodipodi:type="arc" d="m478.35 549.21c0 9.7846-7.932 17.717-17.717 17.717-9.7846 0-17.717-7.932-17.717-17.717 0-9.7846 7.932-17.717 17.717-17.717 9.7846 0 17.717 7.932 17.717 17.717z" transform="translate(262.14,-268.18)" sodipodi:cy="549.21259" sodipodi:cx="460.62991"/>
      <path id="path1031" sodipodi:rx="17.716522" sodipodi:ry="17.716553" style="fill-rule:evenodd;stroke:#000000;stroke-width:1pt;fill:#ffffff" sodipodi:type="arc" d="m478.35 549.21c0 9.7846-7.932 17.717-17.717 17.717-9.7846 0-17.717-7.932-17.717-17.717 0-9.7846 7.932-17.717 17.717-17.717 9.7846 0 17.717 7.932 17.717 17.717z" transform="translate(313.06,-259.7)" sodipodi:cy="549.21259" sodipodi:cx="460.62991"/>
      <path id="path1032" sodipodi:rx="17.716522" sodipodi:ry="17.716553" style="fill-rule:evenodd;stroke:#000000;stroke-width:1pt;fill:#ffffff" sodipodi:type="arc" d="m478.35 549.21c0 9.7846-7.932 17.717-17.717 17.717-9.7846 0-17.717-7.932-17.717-17.717 0-9.7846 7.932-17.717 17.717-17.717 9.7846 0 17.717 7.932 17.717 17.717z" transform="translate(357.19,-247.81)" sodipodi:cy="549.21259" sodipodi:cx="460.62991"/>
    </g>
    <path id="path981" sodipodi:rx="17.716522" sodipodi:ry="17.716553" style="fill-rule:evenodd;stroke:#000000;stroke-width:1pt;fill:#ffffff" sodipodi:type="arc" d="m478.35 549.21c0 9.7846-7.932 17.717-17.717 17.717-9.7846 0-17.717-7.932-17.717-17.717 0-9.7846 7.932-17.717 17.717-17.717 9.7846 0 17.717 7.932 17.717 17.717z" transform="translate(16.019,352.63)" sodipodi:cy="549.21259" sodipodi:cx="460.62991"/>
    <path id="path982" sodipodi:rx="17.716522" sodipodi:ry="17.716553" style="fill-rule:evenodd;stroke:#000000;stroke-width:1pt;fill:#ffffff" sodipodi:type="arc" d="m478.35 549.21c0 9.7846-7.932 17.717-17.717 17.717-9.7846 0-17.717-7.932-17.717-17.717 0-9.7846 7.932-17.717 17.717-17.717 9.7846 0 17.717 7.932 17.717 17.717z" transform="translate(-1.6978,312.11)" sodipodi:cy="549.21259" sodipodi:cx="460.62991"/>
    <path id="path983" sodipodi:rx="17.716522" sodipodi:ry="17.716553" style="fill-rule:evenodd;stroke:#000000;stroke-width:1pt;fill:#ffffff" sodipodi:type="arc" d="m478.35 549.21c0 9.7846-7.932 17.717-17.717 17.717-9.7846 0-17.717-7.932-17.717-17.717 0-9.7846 7.932-17.717 17.717-17.717 9.7846 0 17.717 7.932 17.717 17.717z" transform="translate(-10.928,270.84)" sodipodi:cy="549.21259" sodipodi:cx="460.62991"/>
    <path id="path984" sodipodi:rx="17.716522" sodipodi:ry="17.716553" style="fill-rule:evenodd;stroke:#000000;stroke-width:1pt;fill:#ffffff" sodipodi:type="arc" d="m478.35 549.21c0 9.7846-7.932 17.717-17.717 17.717-9.7846 0-17.717-7.932-17.717-17.717 0-9.7846 7.932-17.717 17.717-17.717 9.7846 0 17.717 7.932 17.717 17.717z" transform="translate(-17.717,226.71)" sodipodi:cy="549.21259" sodipodi:cx="460.62991"/>
    <path id="path985" sodipodi:rx="17.716522" sodipodi:ry="17.716553" style="fill-rule:evenodd;stroke:#000000;stroke-width:1pt;fill:#ffffff" sodipodi:type="arc" d="m478.35 549.21c0 9.7846-7.932 17.717-17.717 17.717-9.7846 0-17.717-7.932-17.717-17.717 0-9.7846 7.932-17.717 17.717-17.717 9.7846 0 17.717 7.932 17.717 17.717z" transform="translate(-16.02,178.86)" sodipodi:cy="549.21259" sodipodi:cx="460.62991"/>
    <path id="path987" sodipodi:rx="17.716522" sodipodi:ry="17.716553" style="fill-rule:evenodd;stroke:#000000;stroke-width:1pt;fill:#ffffff" sodipodi:type="arc" d="m478.35 549.21c0 9.7846-7.932 17.717-17.717 17.717-9.7846 0-17.717-7.932-17.717-17.717 0-9.7846 7.932-17.717 17.717-17.717 9.7846 0 17.717 7.932 17.717 17.717z" transform="translate(-.95486 133.67)" sodipodi:cy="549.21259" sodipodi:cx="460.62991"/>
    <path id="path988" sodipodi:rx="17.716522" sodipodi:ry="17.716553" style="fill-rule:evenodd;stroke:#000000;stroke-width:1pt;fill:#ffffff" sodipodi:type="arc" d="m478.35 549.21c0 9.7846-7.932 17.717-17.717 17.717-9.7846 0-17.717-7.932-17.717-17.717 0-9.7846 7.932-17.717 17.717-17.717 9.7846 0 17.717 7.932 17.717 17.717z" transform="translate(31.295,98.029)" sodipodi:cy="549.21259" sodipodi:cx="460.62991"/>
    <path id="path989" sodipodi:rx="17.716522" sodipodi:ry="17.716553" style="fill-rule:evenodd;stroke:#000000;stroke-width:1pt;fill:#ffffff" sodipodi:type="arc" d="m478.35 549.21c0 9.7846-7.932 17.717-17.717 17.717-9.7846 0-17.717-7.932-17.717-17.717 0-9.7846 7.932-17.717 17.717-17.717 9.7846 0 17.717 7.932 17.717 17.717z" transform="translate(75.426,74.266)" sodipodi:cy="549.21259" sodipodi:cx="460.62991"/>
    <path id="path990" sodipodi:rx="17.716522" sodipodi:ry="17.716553" style="fill-rule:evenodd;stroke:#000000;stroke-width:1pt;fill:#ffffff" sodipodi:type="arc" d="m478.35 549.21c0 9.7846-7.932 17.717-17.717 17.717-9.7846 0-17.717-7.932-17.717-17.717 0-9.7846 7.932-17.717 17.717-17.717 9.7846 0 17.717 7.932 17.717 17.717z" transform="translate(119.56,70.871)" sodipodi:cy="549.21259" sodipodi:cx="460.62991"/>
    <path id="path991" sodipodi:rx="17.716522" sodipodi:ry="17.716553" style="fill-rule:evenodd;stroke:#000000;stroke-width:1pt;fill:#ffffff" sodipodi:type="arc" d="m478.35 549.21c0 9.7846-7.932 17.717-17.717 17.717-9.7846 0-17.717-7.932-17.717-17.717 0-9.7846 7.932-17.717 17.717-17.717 9.7846 0 17.717 7.932 17.717 17.717z" transform="translate(167.08,72.568)" sodipodi:cy="549.21259" sodipodi:cx="460.62991"/>
    <path id="path992" sodipodi:rx="17.716522" sodipodi:ry="17.716553" style="fill-rule:evenodd;stroke:#000000;stroke-width:1pt;fill:#ffffff" sodipodi:type="arc" d="m478.35 549.21c0 9.7846-7.932 17.717-17.717 17.717-9.7846 0-17.717-7.932-17.717-17.717 0-9.7846 7.932-17.717 17.717-17.717 9.7846 0 17.717 7.932 17.717 17.717z" transform="translate(214.61,79.358)" sodipodi:cy="549.21259" sodipodi:cx="460.62991"/>
    <path id="path993" sodipodi:rx="17.716522" sodipodi:ry="17.716553" style="fill-rule:evenodd;stroke:#000000;stroke-width:1pt;fill:#ffffff" sodipodi:type="arc" d="m478.35 549.21c0 9.7846-7.932 17.717-17.717 17.717-9.7846 0-17.717-7.932-17.717-17.717 0-9.7846 7.932-17.717 17.717-17.717 9.7846 0 17.717 7.932 17.717 17.717z" transform="translate(262.14,86.147)" sodipodi:cy="549.21259" sodipodi:cx="460.62991"/>
    <path id="path994" sodipodi:rx="17.716522" sodipodi:ry="17.716553" style="fill-rule:evenodd;stroke:#000000;stroke-width:1pt;fill:#ffffff" sodipodi:type="arc" d="m478.35 549.21c0 9.7846-7.932 17.717-17.717 17.717-9.7846 0-17.717-7.932-17.717-17.717 0-9.7846 7.932-17.717 17.717-17.717 9.7846 0 17.717 7.932 17.717 17.717z" transform="translate(313.06,94.634)" sodipodi:cy="549.21259" sodipodi:cx="460.62991"/>
    <path id="path995" sodipodi:rx="17.716522" sodipodi:ry="17.716553" style="fill-rule:evenodd;stroke:#000000;stroke-width:1pt;fill:#ffffff" sodipodi:type="arc" d="m478.35 549.21c0 9.7846-7.932 17.717-17.717 17.717-9.7846 0-17.717-7.932-17.717-17.717 0-9.7846 7.932-17.717 17.717-17.717 9.7846 0 17.717 7.932 17.717 17.717z" transform="translate(357.19,106.52)" sodipodi:cy="549.21259" sodipodi:cx="460.62991"/>
    <path id="path986" sodipodi:rx="17.716522" sodipodi:ry="17.716553" style="fill-rule:evenodd;stroke:#000000;stroke-width:1pt;fill:#ffffff" sodipodi:type="arc" d="m478.35 549.21c0 9.7846-7.932 17.717-17.717 17.717-9.7846 0-17.717-7.932-17.717-17.717 0-9.7846 7.932-17.717 17.717-17.717 9.7846 0 17.717 7.932 17.717 17.717z" transform="translate(41.479,388.28)" sodipodi:cy="549.21259" sodipodi:cx="460.62991"/>
    <path id="path979" style="fill-rule:evenodd;stroke:#000000;stroke-width:1pt;fill:#fff100" d="m531.5 584.65s-67.99-52.1-69.82-177.17c-1.05-71.93 34.38-124.02 122.97-124.02 124.01 0 301.18 53.15 301.18 53.15v17.72s-141.73-53.15-301.18-53.15c-70.87 0-106.3 52.09-106.3 105.24 0 88.58 70.86 178.23 70.86 178.23v141.73h-17.71v-141.73z" sodipodi:nodetypes="cssccsscccc" inkscape:connector-curvature="0" transform="translate(-4.5776e-4,354.33)"/>
    <path id="path960" style="fill-rule:evenodd;stroke:#000000;stroke-width:2.9915;fill:#fff100" d="m1240.2 531.5s15.3-35.44 70.8-35.44c37.8 0 70.9 35.44 70.9 70.87v70.87h35.4v-70.87c0-35.47 35.5-70.87 70.9-70.87 53.1 0 70.9 35.44 70.9 35.44s0-106.3-70.9-106.3c-53.2 0-70.9 35.43-70.9 35.43s17.7-53.15 17.7-106.3-35.4-88.58-35.4-88.58c0 6.79-35.4 35.43-35.4 88.58s17.7 106.3 17.7 106.3-17.7-35.43-70.9-35.43c-70.8 0-70.8 106.3-70.8 106.3z" sodipodi:nodetypes="ccsccsccscscscsc" inkscape:connector-curvature="0" transform="matrix(.33333 0 0 .38095 242.13 802.31)"/>
    <path id="path959" style="fill-rule:evenodd;stroke:#000000;stroke-width:2.9915;fill:#fff100" d="m1240.2 531.5s15.3-35.44 70.8-35.44c37.8 0 70.9 35.44 70.9 70.87v70.87h35.4v-70.87c0-35.47 35.5-70.87 70.9-70.87 53.1 0 70.9 35.44 70.9 35.44s0-106.3-70.9-106.3c-53.2 0-70.9 35.43-70.9 35.43s17.7-53.15 17.7-106.3-35.4-88.58-35.4-88.58c0 6.79-35.4 35.43-35.4 88.58s17.7 106.3 17.7 106.3-17.7-35.43-70.9-35.43c-70.8 0-70.8 106.3-70.8 106.3z" sodipodi:nodetypes="ccsccsccscscscsc" inkscape:connector-curvature="0" transform="matrix(.33333 0 0 .38095 596.46 802.31)"/>
    <path id="path945" style="fill-rule:evenodd;stroke:#000000;stroke-width:1pt;fill:#fff100" d="m531.5 832.68v-159.45s35.43 53.15 88.58 53.15c43.49 0 88.58-70.87 88.58-70.87s41.52 53.15 88.58 53.15c42.02 0 88.52-68.57 88.52-68.57s43.21 68.57 88.65 68.57c45.39 0 88.59-53.15 88.59-53.15s46.3 70.87 106.3 70.87c53.1 0 70.9-53.15 70.9-53.15v159.45h-708.7z" sodipodi:nodetypes="ccscscscsccc" inkscape:connector-curvature="0" transform="translate(-4.5776e-4,354.33)"/>
    <path id="path952" style="fill-rule:evenodd;stroke:#000000;stroke-width:1pt;fill:#fff100" d="m708.66 832.68v-124.02s106.3 35.43 106.3 124.02h-106.3z" sodipodi:nodetypes="cccc" inkscape:connector-curvature="0" transform="translate(-177.17,354.33)"/>
    <path id="path953" style="fill-rule:evenodd;stroke:#000000;stroke-width:1pt;fill:#fff100" d="m708.66 832.68v-124.02s106.3 35.43 106.3 124.02h-106.3z" sodipodi:nodetypes="cccc" inkscape:connector-curvature="0" transform="matrix(-1,0,0,1,1948.8,354.33)"/>
    <path id="path949" style="fill-rule:evenodd;stroke:#000000;stroke-width:1pt;fill:#fff100" d="m602.36 832.68c0-88.59 106.37-144.6 106.37-144.6s106.23 56.01 106.23 144.6h-212.6z" sodipodi:nodetypes="ccss" inkscape:connector-curvature="0" transform="translate(-4.5776e-4,354.33)"/>
    <path id="path950" style="fill-rule:evenodd;stroke:#000000;stroke-width:1pt;fill:#fff100" d="m602.36 832.68c0-88.59 106.37-144.6 106.37-144.6s106.23 56.01 106.23 144.6h-212.6z" sodipodi:nodetypes="ccss" inkscape:connector-curvature="0" transform="translate(354.33,354.33)"/>
    <path id="path951" style="fill-rule:evenodd;stroke:#000000;stroke-width:1pt;fill:#fff100" d="m584.65 847.53c0-88.59 124.08-159.45 124.08-159.45s123.95 70.86 123.95 159.45h-248.03z" sodipodi:nodetypes="ccss" inkscape:connector-curvature="0" transform="translate(177.16,339.48)"/>
    <path id="path939" style="fill-rule:evenodd;stroke:#000000;stroke-width:1pt;fill:#ffffff" d="m1275.6 655.51c-35.4-17.71-166-35.43-376.28-35.43-210.26 0-350.11 17.72-385.54 35.43-35.43 17.72-35.43 53.15 0 70.87 35.43 17.71 175.28 35.43 385.54 35.43 210.28 0 340.88-17.71 376.28-35.43s35.4-53.15 0-70.87z" sodipodi:nodetypes="ccsscss" inkscape:connector-curvature="0" transform="matrix(.98876 0 0 1 -3.3852 531.5)"/>
    <path id="path941" style="fill-rule:evenodd;stroke-width:1pt;fill:#808080" d="m1294.7 703.35c0 58.46-317.42 58.46-381.62 58.46-69.36 0-381.58 15.84-381.58-58.46 0-58.46 314.8-58.46 381.58-58.46s381.62 11.88 381.62 58.46z" sodipodi:nodetypes="ccccc" inkscape:connector-curvature="0" transform="matrix(.92857 0 0 .6061 37.964 831.57)"/>
    <path id="path954" sodipodi:rx="17.716553" sodipodi:ry="20.967163" style="fill-rule:evenodd;fill:#cc0000" sodipodi:type="arc" d="m566.93 776.28c0 11.58-7.932 20.967-17.717 20.967-9.7846 0-17.717-9.3873-17.717-20.967s7.932-20.967 17.717-20.967c9.7846 0 17.717 9.3873 17.717 20.967z" transform="translate(-4.5776e-4,354.33)" sodipodi:cy="776.27692" sodipodi:cx="549.21259"/>
    <path id="path955" sodipodi:rx="17.716553" sodipodi:ry="20.967163" style="fill-rule:evenodd;fill:#cc0000" sodipodi:type="arc" d="m566.93 776.28c0 11.58-7.932 20.967-17.717 20.967-9.7846 0-17.717-9.3873-17.717-20.967s7.932-20.967 17.717-20.967c9.7846 0 17.717 9.3873 17.717 20.967z" transform="translate(673.23,354.33)" sodipodi:cy="776.27692" sodipodi:cx="549.21259"/>
    <path id="path956" sodipodi:rx="17.716553" sodipodi:ry="20.967163" style="fill-rule:evenodd;fill:#000000" sodipodi:type="arc" d="m566.93 776.28c0 11.58-7.932 20.967-17.717 20.967-9.7846 0-17.717-9.3873-17.717-20.967s7.932-20.967 17.717-20.967c9.7846 0 17.717 9.3873 17.717 20.967z" transform="matrix(2,0,0,1,-212.6,343.12)" sodipodi:cy="776.27692" sodipodi:cx="549.21259"/>
    <path id="path957" sodipodi:rx="17.716553" sodipodi:ry="20.967163" style="fill-rule:evenodd;fill:#006300" sodipodi:type="arc" d="m566.93 776.28c0 11.58-7.932 20.967-17.717 20.967-9.7846 0-17.717-9.3873-17.717-20.967s7.932-20.967 17.717-20.967c9.7846 0 17.717 9.3873 17.717 20.967z" transform="matrix(1.5,0,0,1,240.83,343.12)" sodipodi:cy="776.27692" sodipodi:cx="549.21259"/>
    <path id="path958" sodipodi:rx="17.716553" sodipodi:ry="20.967163" style="fill-rule:evenodd;fill:#006300" sodipodi:type="arc" d="m566.93 776.28c0 11.58-7.932 20.967-17.717 20.967-9.7846 0-17.717-9.3873-17.717-20.967s7.932-20.967 17.717-20.967c9.7846 0 17.717 9.3873 17.717 20.967z" transform="matrix(1.5,0,0,1,-124.02,343.12)" sodipodi:cy="776.27692" sodipodi:cx="549.21259"/>
    <path id="path973" style="fill-rule:evenodd;stroke:#000000;stroke-width:2.1875;fill:#fff100" d="m1257.9 496.06s35.4-53.15 70.8-53.15h35.5v35.44c0 53.15-53.2 70.86-53.2 70.86h141.8s-53.2-17.71-53.2-70.86v-35.44h35.4c35.5 0 70.9 53.15 70.9 53.15v-141.73s-35.4 53.15-70.9 53.15h-35.4v-35.43c0-53.15 53.2-70.87 53.2-70.87h-141.8s53.2 17.72 53.2 70.87v35.43h-35.5c-35.4 0-70.8-53.15-70.8-53.15v141.73z" sodipodi:nodetypes="ccccccccccccccccccccc" inkscape:connector-curvature="0" transform="matrix(.57141 0 0 .57143 96.199 713.72)"/>
    <path id="path974" style="fill-rule:evenodd;stroke:#000000;stroke-width:3.3072;fill:#fff100" d="m1381.9 549.21h70.9s-53.2-17.71-53.2-70.86v-35.44h35.4c35.5 0 70.9 53.15 70.9 53.15v-141.73s-35.4 53.15-70.9 53.15h-35.4v-35.43c0-53.15 53.2-70.87 53.2-70.87h-70.9v248.03z" sodipodi:nodetypes="ccccccccccccc" inkscape:connector-curvature="0" transform="matrix(.28571 0 0 .5 136.68 788.39)"/>
    <path id="path975" style="fill-rule:evenodd;stroke:#000000;stroke-width:3.3072;fill:#fff100" d="m1381.9 549.21h70.9s-53.2-17.71-53.2-70.86v-35.44h35.4c35.5 0 70.9 53.15 70.9 53.15v-141.73s-35.4 53.15-70.9 53.15h-35.4v-35.43c0-53.15 53.2-70.87 53.2-70.87h-70.9v248.03z" sodipodi:nodetypes="ccccccccccccc" inkscape:connector-curvature="0" transform="matrix(-.28571 0 0 .5 1635 788.39)"/>
    <path id="path976" sodipodi:rx="17.716553" sodipodi:ry="17.716522" style="fill-rule:evenodd;stroke:#000000;stroke-width:1pt;fill:#ffffff" sodipodi:type="arc" d="m903.54 602.36c0 9.7846-7.932 17.717-17.717 17.717-9.7846 0-17.717-7.932-17.717-17.717 0-9.7846 7.932-17.717 17.717-17.717 9.7846 0 17.717 7.932 17.717 17.717z" transform="translate(-4.5776e-4,354.33)" sodipodi:cy="602.36218" sodipodi:cx="885.82678"/>
    <path id="path977" style="fill-rule:evenodd;stroke:#000000;stroke-width:2.1875;fill:#fff100" d="m1257.9 496.06s35.4-53.15 70.8-53.15h35.5v35.44c0 53.15-53.2 70.86-53.2 70.86h141.8s-53.2-17.71-53.2-70.86v-35.44h35.4c35.5 0 70.9 53.15 70.9 53.15v-141.73s-35.4 53.15-70.9 53.15h-35.4v-35.43c0-53.15 53.2-70.87 53.2-70.87h-141.8s53.2 17.72 53.2 70.87v35.43h-35.5c-35.4 0-70.8-53.15-70.8-53.15v141.73z" sodipodi:nodetypes="ccccccccccccccccccccc" inkscape:connector-curvature="0" transform="matrix(.57141 0 0 .57143 96.202 341.68)"/>
    <path id="path978" sodipodi:rx="17.716553" sodipodi:ry="17.716522" style="fill-rule:evenodd;stroke:#000000;stroke-width:1pt;fill:#ffffff" sodipodi:type="arc" d="m903.54 602.36c0 9.7846-7.932 17.717-17.717 17.717-9.7846 0-17.717-7.932-17.717-17.717 0-9.7846 7.932-17.717 17.717-17.717 9.7846 0 17.717 7.932 17.717 17.717z" transform="translate(1.6969,-14.745)" sodipodi:cy="602.36218" sodipodi:cx="885.82678"/>
    <rect id="rect996" style="fill-rule:evenodd;stroke:#000000;stroke-width:1pt;fill:#fff100" height="53.15" width="70.866" y="655.51" x="850.39"/>
    <rect id="rect1033" style="fill-rule:evenodd;stroke:#000000;stroke-width:1pt;fill:#fff100" height="202.53" width="70.866" y="683.3" x="850.39"/>
    <path id="path1050" sodipodi:rx="17.716522" sodipodi:ry="17.716553" style="fill-rule:evenodd;stroke:#000000;stroke-width:1pt;fill:#ffffff" sodipodi:type="arc" d="m478.35 549.21c0 9.7846-7.932 17.717-17.717 17.717-9.7846 0-17.717-7.932-17.717-17.717 0-9.7846 7.932-17.717 17.717-17.717 9.7846 0 17.717 7.932 17.717 17.717z" transform="translate(425.2,301.18)" sodipodi:cy="549.21259" sodipodi:cx="460.62991"/>
    <path id="path1051" sodipodi:rx="17.716522" sodipodi:ry="17.716553" style="fill-rule:evenodd;stroke:#000000;stroke-width:1pt;fill:#ffffff" sodipodi:type="arc" d="m478.35 549.21c0 9.7846-7.932 17.717-17.717 17.717-9.7846 0-17.717-7.932-17.717-17.717 0-9.7846 7.932-17.717 17.717-17.717 9.7846 0 17.717 7.932 17.717 17.717z" transform="translate(425.2,255.35)" sodipodi:cy="549.21259" sodipodi:cx="460.62991"/>
    <path id="path1052" sodipodi:rx="17.716522" sodipodi:ry="17.716553" style="fill-rule:evenodd;stroke:#000000;stroke-width:1pt;fill:#ffffff" sodipodi:type="arc" d="m478.35 549.21c0 9.7846-7.932 17.717-17.717 17.717-9.7846 0-17.717-7.932-17.717-17.717 0-9.7846 7.932-17.717 17.717-17.717 9.7846 0 17.717 7.932 17.717 17.717z" transform="translate(425.2,212.6)" sodipodi:cy="549.21259" sodipodi:cx="460.62991"/>
    <path id="path1053" sodipodi:rx="17.716522" sodipodi:ry="17.716553" style="fill-rule:evenodd;stroke:#000000;stroke-width:1pt;fill:#ffffff" sodipodi:type="arc" d="m478.35 549.21c0 9.7846-7.932 17.717-17.717 17.717-9.7846 0-17.717-7.932-17.717-17.717 0-9.7846 7.932-17.717 17.717-17.717 9.7846 0 17.717 7.932 17.717 17.717z" transform="translate(425.2,168.47)" sodipodi:cy="549.21259" sodipodi:cx="460.62991"/>
    <path id="path1055" sodipodi:rx="36.0065" sodipodi:ry="14.402588" style="fill-rule:evenodd;fill:#000000" sodipodi:type="arc" d="m614.51 1201.8c0 7.9544-16.121 14.403-36.006 14.403-19.886 0-36.006-6.4482-36.006-14.403 0-7.9543 16.121-14.403 36.006-14.403 19.886 0 36.006 6.4483 36.006 14.403z" transform="translate(308.95,-14.402)" sodipodi:cy="1201.7905" sodipodi:cx="578.50452"/>
    <path id="path1056" sodipodi:rx="36.0065" sodipodi:ry="14.402588" style="fill-rule:evenodd;fill:#000000" sodipodi:type="arc" d="m614.51 1201.8c0 7.9544-16.121 14.403-36.006 14.403-19.886 0-36.006-6.4482-36.006-14.403 0-7.9543 16.121-14.403 36.006-14.403 19.886 0 36.006 6.4483 36.006 14.403z" transform="matrix(.98773 .24606 -.25044 .68556 943.77 247.45)" sodipodi:cy="1201.7905" sodipodi:cx="578.50452"/>
    <path id="path1057" sodipodi:rx="36.0065" sodipodi:ry="14.402588" style="fill-rule:evenodd;fill:#000000" sodipodi:type="arc" d="m614.51 1201.8c0 7.9544-16.121 14.403-36.006 14.403-19.886 0-36.006-6.4482-36.006-14.403 0-7.9543 16.121-14.403 36.006-14.403 19.886 0 36.006 6.4483 36.006 14.403z" transform="matrix(1.019 .077339 -.099095 .88195 606.29 91.217)" sodipodi:cy="1201.7905" sodipodi:cx="578.50452"/>
    <path id="path1058" sodipodi:rx="36.0065" sodipodi:ry="14.402588" style="fill-rule:evenodd;fill:#000000" sodipodi:type="arc" d="m614.51 1201.8c0 7.9544-16.121 14.403-36.006 14.403-19.886 0-36.006-6.4482-36.006-14.403 0-7.9543 16.121-14.403 36.006-14.403 19.886 0 36.006 6.4483 36.006 14.403z" transform="matrix(-.98773 .24606 .25044 .68556 819.99 247.45)" sodipodi:cy="1201.7905" sodipodi:cx="578.50452"/>
    <path id="path1059" sodipodi:rx="36.0065" sodipodi:ry="14.402588" style="fill-rule:evenodd;fill:#000000" sodipodi:type="arc" d="m614.51 1201.8c0 7.9544-16.121 14.403-36.006 14.403-19.886 0-36.006-6.4482-36.006-14.403 0-7.9543 16.121-14.403 36.006-14.403 19.886 0 36.006 6.4483 36.006 14.403z" transform="matrix(-1.019 .077339 .099095 .88195 1164.3 87.822)" sodipodi:cy="1201.7905" sodipodi:cx="578.50452"/>
  </g>
  <metadata id="metadata161">
    <rdf:RDF>
      <cc:Work>
        <dc:format>image/svg+xml</dc:format>
        <dc:type rdf:resource="http://purl.org/dc/dcmitype/StillImage"/>
        <cc:license rdf:resource="http://creativecommons.org/licenses/publicdomain/"/>
        <dc:publisher>
          <cc:Agent rdf:about="http://openclipart.org/">
            <dc:title>Openclipart</dc:title>
          </cc:Agent>
        </dc:publisher>
      </cc:Work>
      <cc:License rdf:about="http://creativecommons.org/licenses/publicdomain/">
        <cc:permits rdf:resource="http://creativecommons.org/ns#Reproduction"/>
        <cc:permits rdf:resource="http://creativecommons.org/ns#Distribution"/>
        <cc:permits rdf:resource="http://creativecommons.org/ns#DerivativeWorks"/>
      </cc:License>
    </rdf:RDF>
  </metadata>
</svg>
