<?xml version="1.0" encoding="UTF-8" standalone="no"?>
<!-- Created with Sodipodi ("http://www.sodipodi.com/") -->
<svg xmlns:inkscape="http://www.inkscape.org/namespaces/inkscape" xmlns:rdf="http://www.w3.org/1999/02/22-rdf-syntax-ns#" xmlns="http://www.w3.org/2000/svg" xmlns:cc="http://creativecommons.org/ns#" xmlns:dc="http://purl.org/dc/elements/1.1/" xmlns:sodipodi="http://sodipodi.sourceforge.net/DTD/sodipodi-0.dtd" xmlns:svg="http://www.w3.org/2000/svg" xmlns:ns1="http://sozi.baierouge.fr" id="svg153" inkscape:version="0.48.3.1 r9886" viewBox="0 0 828.33 497.16" sodipodi:version="0.32" version="1.1" sodipodi:docname="_svgclean2.svg" xmlns:xlink="http://www.w3.org/1999/xlink">
  <desc id="desc549">The United States of America flag, produced by Daniel McRae</desc>
  <sodipodi:namedview id="base" inkscape:window-x="0" inkscape:window-y="0" snaptogrid="false" inkscape:window-maximized="0" inkscape:zoom="0.22425739" inkscape:window-height="645" showgrid="true" inkscape:current-layer="svg153" inkscape:cx="371.47664" inkscape:cy="-25.955559" inkscape:window-width="674">
    <inkscape:grid id="GridFromPre046Settings" opacity=".15" color="#3f3fff" originy="-153.82523mm" originx="-1.161036mm" empspacing="5" spacingy="10mm" spacingx="10mm" empopacity="0.38" type="xygrid" empcolor="#3f3fff"/>
  </sodipodi:namedview>
  <rect id="rect808" style="fill-rule:evenodd;stroke-width:1pt;fill:#ffffff" height="200" width="822" y="226.29" x="0"/>
  <rect id="rect200" style="fill-rule:evenodd;stroke-width:1pt;fill:#081873" height="249.21" width="821.43" y="0" x=".65210"/>
  <rect id="rect648" style="fill-rule:evenodd;stroke-width:1pt;fill:#081873" height="122.48" width="827.44" y="374.68" x=".88275"/>
  <rect id="rect728" style="fill-rule:evenodd;stroke-width:1pt;fill:#de3929" height="38.5" width="821.43" y="293.78" x=".88280"/>
  <polygon id="polygon723" style="fill-rule:evenodd;stroke-width:.125;fill:#ffce08" sodipodi:type="star" sodipodi:sides="5" sodipodi:r1="4.0040002" sodipodi:r2="1.5293919" sodipodi:arg1="-1.570796" sodipodi:arg2="-0.9424778" transform="matrix(7.1836 0 0 7.1837 246.98 416.36)" inkscape:randomized="0" d="M 1.3084868e-6,-4.0040002 0.89895399,-1.237304 3.8080309,-1.2373029 1.4545381,0.47260808 2.3534912,3.239305 0,1.5293919 l -2.3534933,1.7099115 0.8989552,-2.76669531 -2.353492,-1.70991339 2.9090761,1.3e-6 z" sodipodi:cy="0" sodipodi:cx="0" inkscape:rounded="0" inkscape:flatsided="false" points="0 -4.004 0.89895 -1.2373 3.808 -1.2373 1.4545 0.47261 2.3535 3.2393 0 1.5294 -2.3535 3.2393 -1.4545 0.47261 -3.808 -1.2373 -0.89895 -1.2373"/>
  <polygon id="polygon730" style="fill-rule:evenodd;stroke-width:.125;fill:#ffce08" sodipodi:type="star" sodipodi:sides="5" sodipodi:r1="4.0040002" sodipodi:r2="1.5293919" sodipodi:arg1="-1.570796" sodipodi:arg2="-0.9424778" transform="matrix(7.1836 0 0 7.1837 427.58 272)" inkscape:randomized="0" d="M 1.3084868e-6,-4.0040002 0.89895399,-1.237304 3.8080309,-1.2373029 1.4545381,0.47260808 2.3534912,3.239305 0,1.5293919 l -2.3534933,1.7099115 0.8989552,-2.76669531 -2.353492,-1.70991339 2.9090761,1.3e-6 z" sodipodi:cy="0" sodipodi:cx="0" inkscape:rounded="0" inkscape:flatsided="false" points="0 -4.004 0.89895 -1.2373 3.808 -1.2373 1.4545 0.47261 2.3535 3.2393 0 1.5294 -2.3535 3.2393 -1.4545 0.47261 -3.808 -1.2373 -0.89895 -1.2373"/>
  <polygon id="polygon731" style="fill-rule:evenodd;stroke-width:.125;fill:#ffce08" sodipodi:type="star" sodipodi:sides="5" sodipodi:r1="4.0040002" sodipodi:r2="1.5293919" sodipodi:arg1="-1.570796" sodipodi:arg2="-0.9424778" transform="matrix(7.1836 0 0 7.1837 205.57 354.49)" inkscape:randomized="0" d="M 1.3084868e-6,-4.0040002 0.89895399,-1.237304 3.8080309,-1.2373029 1.4545381,0.47260808 2.3534912,3.239305 0,1.5293919 l -2.3534933,1.7099115 0.8989552,-2.76669531 -2.353492,-1.70991339 2.9090761,1.3e-6 z" sodipodi:cy="0" sodipodi:cx="0" inkscape:rounded="0" inkscape:flatsided="false" points="0 -4.004 0.89895 -1.2373 3.808 -1.2373 1.4545 0.47261 2.3535 3.2393 0 1.5294 -2.3535 3.2393 -1.4545 0.47261 -3.808 -1.2373 -0.89895 -1.2373"/>
  <polygon id="polygon732" style="fill-rule:evenodd;stroke-width:.125;fill:#ffce08" sodipodi:type="star" sodipodi:sides="5" sodipodi:r1="4.0040002" sodipodi:r2="1.5293919" sodipodi:arg1="-1.570796" sodipodi:arg2="-0.9424778" transform="matrix(7.1836 0 0 7.1837 427.58 348.67)" inkscape:randomized="0" d="M 1.3084868e-6,-4.0040002 0.89895399,-1.237304 3.8080309,-1.2373029 1.4545381,0.47260808 2.3534912,3.239305 0,1.5293919 l -2.3534933,1.7099115 0.8989552,-2.76669531 -2.353492,-1.70991339 2.9090761,1.3e-6 z" sodipodi:cy="0" sodipodi:cx="0" inkscape:rounded="0" inkscape:flatsided="false" points="0 -4.004 0.89895 -1.2373 3.808 -1.2373 1.4545 0.47261 2.3535 3.2393 0 1.5294 -2.3535 3.2393 -1.4545 0.47261 -3.808 -1.2373 -0.89895 -1.2373"/>
  <polygon id="polygon733" style="fill-rule:evenodd;stroke-width:.125;fill:#ffce08" sodipodi:type="star" sodipodi:sides="5" sodipodi:r1="4.0040002" sodipodi:r2="1.5293919" sodipodi:arg1="-1.570796" sodipodi:arg2="-0.9424778" transform="matrix(7.1836 0 0 7.1837 381.85 211.49)" inkscape:randomized="0" d="M 1.3084868e-6,-4.0040002 0.89895399,-1.237304 3.8080309,-1.2373029 1.4545381,0.47260808 2.3534912,3.239305 0,1.5293919 l -2.3534933,1.7099115 0.8989552,-2.76669531 -2.353492,-1.70991339 2.9090761,1.3e-6 z" sodipodi:cy="0" sodipodi:cx="0" inkscape:rounded="0" inkscape:flatsided="false" points="0 -4.004 0.89895 -1.2373 3.808 -1.2373 1.4545 0.47261 2.3535 3.2393 0 1.5294 -2.3535 3.2393 -1.4545 0.47261 -3.808 -1.2373 -0.89895 -1.2373"/>
  <polygon id="polygon734" style="fill-rule:evenodd;stroke-width:.125;fill:#ffce08" sodipodi:type="star" sodipodi:sides="5" sodipodi:r1="4.0040002" sodipodi:r2="1.5293919" sodipodi:arg1="-1.570796" sodipodi:arg2="-0.9424778" transform="matrix(7.1836 0 0 7.1837 312.83 187.45)" inkscape:randomized="0" d="M 1.3084868e-6,-4.0040002 0.89895399,-1.237304 3.8080309,-1.2373029 1.4545381,0.47260808 2.3534912,3.239305 0,1.5293919 l -2.3534933,1.7099115 0.8989552,-2.76669531 -2.353492,-1.70991339 2.9090761,1.3e-6 z" sodipodi:cy="0" sodipodi:cx="0" inkscape:rounded="0" inkscape:flatsided="false" points="0 -4.004 0.89895 -1.2373 3.808 -1.2373 1.4545 0.47261 2.3535 3.2393 0 1.5294 -2.3535 3.2393 -1.4545 0.47261 -3.808 -1.2373 -0.89895 -1.2373"/>
  <polygon id="polygon735" style="fill-rule:evenodd;stroke-width:.125;fill:#ffce08" sodipodi:type="star" sodipodi:sides="5" sodipodi:r1="4.0040002" sodipodi:r2="1.5293919" sodipodi:arg1="-1.570796" sodipodi:arg2="-0.9424778" transform="matrix(7.1836 0 0 7.1837 243.81 210.13)" inkscape:randomized="0" d="M 1.3084868e-6,-4.0040002 0.89895399,-1.237304 3.8080309,-1.2373029 1.4545381,0.47260808 2.3534912,3.239305 0,1.5293919 l -2.3534933,1.7099115 0.8989552,-2.76669531 -2.353492,-1.70991339 2.9090761,1.3e-6 z" sodipodi:cy="0" sodipodi:cx="0" inkscape:rounded="0" inkscape:flatsided="false" points="0 -4.004 0.89895 -1.2373 3.808 -1.2373 1.4545 0.47261 2.3535 3.2393 0 1.5294 -2.3535 3.2393 -1.4545 0.47261 -3.808 -1.2373 -0.89895 -1.2373"/>
  <polygon id="polygon736" style="fill-rule:evenodd;stroke-width:.125;fill:#ffce08" sodipodi:type="star" sodipodi:sides="5" sodipodi:r1="4.0040002" sodipodi:r2="1.5293919" sodipodi:arg1="-1.570796" sodipodi:arg2="-0.9424778" transform="matrix(7.1836 0 0 7.1837 203.54 272)" inkscape:randomized="0" d="M 1.3084868e-6,-4.0040002 0.89895399,-1.237304 3.8080309,-1.2373029 1.4545381,0.47260808 2.3534912,3.239305 0,1.5293919 l -2.3534933,1.7099115 0.8989552,-2.76669531 -2.353492,-1.70991339 2.9090761,1.3e-6 z" sodipodi:cy="0" sodipodi:cx="0" inkscape:rounded="0" inkscape:flatsided="false" points="0 -4.004 0.89895 -1.2373 3.808 -1.2373 1.4545 0.47261 2.3535 3.2393 0 1.5294 -2.3535 3.2393 -1.4545 0.47261 -3.808 -1.2373 -0.89895 -1.2373"/>
  <polygon id="polygon737" style="fill-rule:evenodd;stroke-width:.125;fill:#ffce08" sodipodi:type="star" sodipodi:sides="5" sodipodi:r1="4.0040002" sodipodi:r2="1.5293919" sodipodi:arg1="-1.570796" sodipodi:arg2="-0.9424778" transform="matrix(7.1836 0 0 7.1837 312.83 436.98)" inkscape:randomized="0" d="M 1.3084868e-6,-4.0040002 0.89895399,-1.237304 3.8080309,-1.2373029 1.4545381,0.47260808 2.3534912,3.239305 0,1.5293919 l -2.3534933,1.7099115 0.8989552,-2.76669531 -2.353492,-1.70991339 2.9090761,1.3e-6 z" sodipodi:cy="0" sodipodi:cx="0" inkscape:rounded="0" inkscape:flatsided="false" points="0 -4.004 0.89895 -1.2373 3.808 -1.2373 1.4545 0.47261 2.3535 3.2393 0 1.5294 -2.3535 3.2393 -1.4545 0.47261 -3.808 -1.2373 -0.89895 -1.2373"/>
  <polygon id="polygon738" style="fill-rule:evenodd;stroke-width:.125;fill:#ffce08" sodipodi:type="star" sodipodi:sides="5" sodipodi:r1="4.0040002" sodipodi:r2="1.5293919" sodipodi:arg1="-1.570796" sodipodi:arg2="-0.9424778" transform="matrix(7.1836 0 0 7.1837 386.17 416.36)" inkscape:randomized="0" d="M 1.3084868e-6,-4.0040002 0.89895399,-1.237304 3.8080309,-1.2373029 1.4545381,0.47260808 2.3534912,3.239305 0,1.5293919 l -2.3534933,1.7099115 0.8989552,-2.76669531 -2.353492,-1.70991339 2.9090761,1.3e-6 z" sodipodi:cy="0" sodipodi:cx="0" inkscape:rounded="0" inkscape:flatsided="false" points="0 -4.004 0.89895 -1.2373 3.808 -1.2373 1.4545 0.47261 2.3535 3.2393 0 1.5294 -2.3535 3.2393 -1.4545 0.47261 -3.808 -1.2373 -0.89895 -1.2373"/>
  <metadata id="metadata19">
    <rdf:RDF>
      <cc:Work>
        <dc:format>image/svg+xml</dc:format>
        <dc:type rdf:resource="http://purl.org/dc/dcmitype/StillImage"/>
        <cc:license rdf:resource="http://creativecommons.org/licenses/publicdomain/"/>
        <dc:publisher>
          <cc:Agent rdf:about="http://openclipart.org/">
            <dc:title>Openclipart</dc:title>
          </cc:Agent>
        </dc:publisher>
      </cc:Work>
      <cc:License rdf:about="http://creativecommons.org/licenses/publicdomain/">
        <cc:permits rdf:resource="http://creativecommons.org/ns#Reproduction"/>
        <cc:permits rdf:resource="http://creativecommons.org/ns#Distribution"/>
        <cc:permits rdf:resource="http://creativecommons.org/ns#DerivativeWorks"/>
      </cc:License>
    </rdf:RDF>
  </metadata>
</svg>
