<?xml version="1.0" encoding="UTF-8" standalone="no"?>
<svg id="svg4137" xmlns:rdf="http://www.w3.org/1999/02/22-rdf-syntax-ns#" xmlns="http://www.w3.org/2000/svg" height="1888.6" viewBox="0 0 3346.565 1888.5843" width="3346.6" version="1.1" xmlns:cc="http://creativecommons.org/ns#" xmlns:xlink="http://www.w3.org/1999/xlink" xmlns:dc="http://purl.org/dc/elements/1.1/">
<defs id="defs4141">
<filter id="filter6669" style="color-interpolation-filters:sRGB" height="1.0336" width="1.0187" y="-.016787" x="-.0093372">
<feGaussianBlur id="feGaussianBlur6671" stdDeviation="12.781126"/>
</filter>
<clipPath id="c-4">
<path id="path5-2" d="m0 0v150h700v150h-100zm600 0h-300v350h-300v-50z"/>
</clipPath>
<clipPath id="clipPath6730" clipPathUnits="userSpaceOnUse">
<path id="path6732" fill="#00247d" d="m574.85 590.3v200 200h800v-200-200h-400-400z"/>
</clipPath>
</defs>
<g id="g6734">
<path id="path6667" d="m168.39 30.675-33.106 0.26367-33.106 0.26172-0.625 7.5c-2.7451 32.939-31.559 62.331-66.195 67.525l-4.6797 0.70313v47.271 47.27l5.3047 0.66406c87.639 10.95 86.353 135.92-1.5547 151.01l-3.75 0.64453v40.26 40.26l7.25 1.2246c32.588 5.5036 52.666 26.888 60.043 51.945h1.6211c7.5354 37.886-12.641 81.409-60.779 91.064l-8.1348 1.6309v36.154 36.154l7.125 1.2226c84.85 14.55 84.231 135.48-0.7695 150.28l-6.3555 1.1074v36.396 36.396h2.3106c14.445 0 39.573 13.657 51.363 27.916 37.423 45.258 11.534 112.93-47.107 123.15l-6.5664 1.1445v40.172 40.172l8.75 1.791c64.937 13.295 84.777 94.403 32.811 134.14-10.728 8.2025-30.73 16.522-39.721 16.522-1.7487 0-1.8399 1.6026-1.8399 32.275v32.275l8.3516 1.7187c73.667 15.164 86.001 111.24 18.393 143.27-6.8649 3.2523-20.917 7.4629-24.904 7.4629-1.7563 0-1.8399 1.8372-1.8399 40.387v40.387l4.6797 0.7032c87.501 13.122 87.501 137.93 0 151.05l-4.6797 0.7031v32.137 32.135l10.25 0.1777c41.71 0.7219 77.649 34.737 77.734 73.572l0.0156 6.75h33.031c25.576 0 33.108-0.2821 33.373-1.25 0.1881-0.6875 0.8826-4.175 1.543-7.75 14.816-80.196 140.34-79.771 155.91 0.5274l1.6426 8.4667h37.205 37.203l0.6446-3.75c9.1379-53.208 65.77-81.661 114.95-57.75 23.808 11.576 36.816 29.364 42.963 58.75l0.5742 2.75h32.936 32.936l0.5957-3.75c13.59-85.611 141.56-87.912 157.7-2.8359l1.2481 6.5859h37.17 37.17l1.1485-6.6015c14.518-83.37 147.04-82.65 156.65 0.8515l0.6621 5.75h41.768 41.77l1.1719-6.75c14.481-83.357 144.77-82.633 156.79 0.8711l0.7735 5.3789 37.514 0.2618 37.512 0.2617 1.0761-6.8281c8.3364-52.942 76.344-80.993 122.17-50.393 19.714 13.163 35.197 37.11 35.197 54.438v2.7812l41.693-0.2597 41.695-0.2618 1.3672-7.5c9.4559-51.829 73.815-78.703 120.53-50.328 19.182 11.652 36.719 38.186 36.719 55.559v2.7695h37.455 37.455l0.6152-3.75c14.565-88.653 141.13-87.852 157.99 1l0.5215 2.75h41.438 41.434l0.6172-3.75c14.652-89.183 140.61-87.988 158.07 1.5l0.4375 2.25h41.463 41.463l0.5195-2.75c7.753-40.865 38.755-67.25 79.018-67.25 40.3 0 71.257 26.347 79.016 67.25l0.5215 2.75h41.463 41.463l0.5195-2.75c16.866-88.901 143.42-89.702 157.99-1l0.6153 3.75h37.205 37.205l1.6426-8.4667c15.548-80.17 141.31-80.595 155.92-0.5274 0.652 3.575 1.3413 7.0625 1.5293 7.75 0.265 0.9678 7.7881 1.25 33.328 1.25h32.984l0.6172-3.75c14.221-86.557 140.47-88.16 157.48-2l1.1367 5.75h36.785 36.785l0.6836-8.25c3.006-36.224 27.718-62.938 65.854-71.191l2.75-0.5957v-32.463-32.461l-2.75-0.5957c-40.097-8.6786-65.588-38-65.588-75.443 0-37.472 25.461-66.756 65.588-75.441l2.75-0.5957v-40.512c0-31.573-0.276-40.583-1.25-40.832-0.688-0.1758-4.4-1.0713-8.25-1.9882-77.675-18.498-77.295-130.95 0.5-147.62 3.025-0.6483 6.287-1.3962 7.25-1.6602 2.265-0.6214 2.756-65.15 0.5-65.727-0.688-0.1758-4.4-1.0713-8.25-1.9882-81.91-19.507-76.863-130.98 6.75-149.07l2.75-0.5957v-40.512c0-31.547-0.277-40.595-1.25-40.881-0.688-0.202-4.4-1.082-8.25-1.957-72.239-16.419-79.512-116.12-10.5-143.92 5.883-2.3703 8.377-3.1091 17.25-5.1075l2.75-0.6191v-36.512c0-28.347-0.28-36.596-1.25-36.881-0.688-0.202-4.4-1.0941-8.25-1.9824-79.578-18.36-76.705-132.17 3.75-148.56l5.75-1.1719v-36.461c0-28.306-0.28-36.543-1.25-36.828-0.688-0.202-4.3743-1.0912-8.1933-1.9765-44.63-10.345-63.242-52.943-56.359-90.004h1.3242c7.5004-24.307 27.131-45.231 58.728-51.738l5.75-1.1836v-40.701-40.701l-6.5039-1.2344c-81.999-15.555-81.409-132.26 0.7539-149.18l5.75-1.1836-0.01-47.18-0.01-47.18-8.7363-0.2168h-0.01c-39.588-0.9945-76.234-35.338-76.234-71.443v-4.8398h-41.5-41.5v3.543c0 92.315-150.89 95.886-158.68 3.7559l-0.6153-7.2988h-32.674-32.674l-1.1758 8.832c-11.773 88.423-143.65 89.722-157.99 1.5566l-1.6895-10.385h-36.75-36.75v3.543c0 92.358-150.89 95.929-158.68 3.7558l-0.6153-7.2988h-41.354-41.354v3.543c0 32.139-28.277 63.994-63.5 71.533-45.882 9.8209-95.5-27.203-95.5-71.26v-3.8164h-41.363-41.361l-0.6836 6.75c-9.2343 91.163-150.57 91.653-158.27 0.54882l-0.6153-7.2988h-41.207-41.207l-0.625 7.3848c-7.6273 90.231-150.71 90.223-158.34-0.01l-0.6231-7.375h-36.728-36.728l-0.625 3.125c-0.3437 1.7188-0.625 4.3355-0.625 5.8164 0 15.126-14.074 39.423-29.463 50.863-49.549 36.836-120.77 8.7422-128.69-50.766l-1.2051-9.0391h-40.703-40.703l-0.6015 2.25c-0.3317 1.2375-0.6097 3.7957-0.6172 5.6855-0.064 16.181-13.528 39.8-29.508 51.768-50.063 37.492-122.91 7.6125-129.09-52.953l-0.6894-6.75h-36.682-36.682l-1.1758 8.8301c-11.916 89.495-150.57 88.547-157.85-1.0801l-0.6289-7.75h-41.213-41.215l-0.6484 6.3301c-9.4334 92.073-158.63 90.764-158.63-1.3945v-4.9394h-37.5-37.5v5.3398c0 91.384-150.07 92.718-158.65 1.4102l-0.6348-6.75h-32.711-32.709l-0.6172 7.25c-8.17 91.024-159.08 88.464-159.08-2.953v-4.5527h-32.791-32.789l-1.6328 10.299c-14.023 88.403-151.44 86.17-157.54-2.5606l-0.5351-7.7637z" filter="url(#filter6669)"/>
<path id="path4687" d="m162.39 24.675-33.106 0.26367-33.105 0.26172-0.625 7.5c-2.7451 32.939-31.56 62.331-66.195 67.525l-4.6797 0.70313v47.271 47.27l5.3047 0.66406c87.639 10.95 86.353 135.92-1.5547 151.01l-3.75 0.64453v40.26 40.26l7.25 1.2246c32.588 5.5036 52.666 26.888 60.043 51.945h1.6211c7.5354 37.886-12.641 81.409-60.779 91.064l-8.1348 1.6309v36.154 36.154l7.125 1.2226c84.85 14.55 84.231 135.48-0.7695 150.28l-6.3555 1.1074v36.396 36.396h2.3106c14.445 0 39.573 13.657 51.363 27.916 37.423 45.258 11.534 112.93-47.107 123.15l-6.5664 1.1445v40.172 40.172l8.75 1.791c64.937 13.295 84.777 94.403 32.811 134.14-10.728 8.2025-30.73 16.522-39.721 16.522-1.7487 0-1.8399 1.6026-1.8399 32.275v32.275l8.3516 1.7187c73.667 15.164 86.001 111.24 18.393 143.27-6.8649 3.2523-20.917 7.4629-24.904 7.4629-1.7563 0-1.8399 1.8372-1.8399 40.387v40.387l4.6797 0.7032c87.501 13.122 87.501 137.93 0 151.05l-4.6797 0.7031v32.137 32.135l10.25 0.1777c41.71 0.7219 77.649 34.737 77.734 73.572l0.0156 6.75h33.031c25.576 0 33.108-0.2821 33.373-1.25 0.1881-0.6875 0.8826-4.175 1.543-7.75 14.816-80.196 140.34-79.771 155.91 0.5274l1.6426 8.4667h37.205 37.203l0.6446-3.75c9.1379-53.208 65.77-81.661 114.95-57.75 23.808 11.576 36.816 29.364 42.963 58.75l0.5742 2.75h32.936 32.936l0.5957-3.75c13.59-85.611 141.56-87.912 157.7-2.8359l1.2481 6.5859h37.17 37.17l1.1485-6.6015c14.518-83.37 147.04-82.65 156.65 0.8515l0.6621 5.75h41.768 41.77l1.1719-6.75c14.481-83.357 144.77-82.633 156.79 0.8711l0.7735 5.3789 37.514 0.2618 37.512 0.2617 1.0761-6.8281c8.3364-52.942 76.344-80.993 122.17-50.393 19.714 13.163 35.197 37.11 35.197 54.438v2.7812l41.693-0.2597 41.695-0.2618 1.3672-7.5c9.4559-51.829 73.815-78.703 120.53-50.328 19.182 11.652 36.719 38.186 36.719 55.559v2.7695h37.455 37.455l0.6152-3.75c14.565-88.653 141.13-87.852 157.99 1l0.5215 2.75h41.438 41.434l0.6172-3.75c14.652-89.183 140.61-87.988 158.07 1.5l0.4375 2.25h41.463 41.463l0.5195-2.75c7.753-40.865 38.755-67.25 79.018-67.25 40.3 0 71.257 26.347 79.016 67.25l0.5215 2.75h41.463 41.463l0.5195-2.75c16.866-88.901 143.42-89.702 157.99-1l0.6153 3.75h37.205 37.205l1.6426-8.4667c15.548-80.17 141.31-80.595 155.92-0.5274 0.652 3.575 1.3413 7.0625 1.5293 7.75 0.265 0.9678 7.7881 1.25 33.328 1.25h32.984l0.6172-3.75c14.221-86.557 140.47-88.16 157.48-2l1.1367 5.75h36.785 36.785l0.6836-8.25c3.006-36.224 27.718-62.938 65.854-71.191l2.75-0.5957v-32.463-32.461l-2.75-0.5957c-40.097-8.6786-65.588-38-65.588-75.443 0-37.472 25.461-66.756 65.588-75.441l2.75-0.5957v-40.512c0-31.573-0.276-40.583-1.25-40.832-0.688-0.1758-4.4-1.0713-8.25-1.9882-77.675-18.498-77.295-130.95 0.5-147.62 3.025-0.6483 6.287-1.3962 7.25-1.6602 2.265-0.6214 2.756-65.15 0.5-65.727-0.688-0.1758-4.4-1.0713-8.25-1.9882-81.91-19.507-76.863-130.98 6.75-149.07l2.75-0.5957v-40.512c0-31.547-0.277-40.595-1.25-40.881-0.688-0.202-4.4-1.082-8.25-1.957-72.239-16.419-79.512-116.12-10.5-143.92 5.883-2.3703 8.377-3.1091 17.25-5.1075l2.75-0.6191v-36.512c0-28.347-0.28-36.596-1.25-36.881-0.688-0.202-4.4-1.0941-8.25-1.9824-79.578-18.36-76.705-132.17 3.75-148.56l5.75-1.1719v-36.461c0-28.306-0.28-36.543-1.25-36.828-0.688-0.202-4.3743-1.0912-8.1933-1.9765-44.63-10.345-63.242-52.943-56.359-90.004h1.3242c7.5004-24.307 27.131-45.231 58.728-51.738l5.75-1.1836v-40.701-40.701l-6.5039-1.2344c-81.999-15.555-81.409-132.26 0.7539-149.18l5.75-1.1836-0.01-47.18-0.01-47.18-8.7363-0.2168h-0.01c-39.9-1.251-76.5-35.594-76.5-71.7v-4.8398h-41.5-41.5v3.543c0 92.315-150.89 95.886-158.68 3.7559l-0.6153-7.2988h-32.674-32.674l-1.1758 8.832c-11.773 88.423-143.65 89.722-157.99 1.5566l-1.6895-10.385h-36.75-36.75v3.543c0 92.358-150.89 95.929-158.68 3.7558l-0.6153-7.2988h-41.354-41.354v3.543c0 32.139-28.277 63.994-63.5 71.533-45.882 9.8209-95.5-27.203-95.5-71.26v-3.8164h-41.363-41.361l-0.6836 6.75c-9.2343 91.163-150.57 91.653-158.27 0.54882l-0.6153-7.2988h-41.207-41.207l-0.625 7.3848c-7.6273 90.231-150.71 90.223-158.34-0.01l-0.6231-7.375h-36.728-36.728l-0.625 3.125c-0.3437 1.7188-0.625 4.3355-0.625 5.8164 0 15.126-14.074 39.423-29.463 50.863-49.549 36.836-120.77 8.7422-128.69-50.766l-1.2051-9.0391h-40.703-40.703l-0.6015 2.25c-0.3317 1.2375-0.6097 3.7957-0.6172 5.6855-0.064 16.181-13.528 39.8-29.508 51.768-50.063 37.492-122.91 7.6125-129.09-52.953l-0.6894-6.75h-36.682-36.682l-1.1758 8.8301c-11.916 89.495-150.57 88.547-157.85-1.0801l-0.6289-7.75h-41.213-41.215l-0.6484 6.3301c-9.4334 92.073-158.63 90.764-158.63-1.3945v-4.9394h-37.5-37.5v5.3398c0 91.384-150.07 92.718-158.65 1.4102l-0.6348-6.75h-32.711-32.709l-0.6172 7.25c-7.77 91.28-158.68 88.72-158.68-2.697v-4.5527h-32.791-32.789l-1.6328 10.299c-14.023 88.403-151.44 86.17-157.54-2.5606l-0.5351-7.7637z" fill="#f2f2f2"/>
<g id="g6523" transform="matrix(3.7311 0 0 3.8173 -1967.2 -2078.4)" clip-path="url(#clipPath6730)">
<rect id="rect7" height="400" width="800" y="590.3" x="574.85" fill="#00247d"/>
<path id="path9" stroke-width="40" stroke="#fff" d="m574.85 590.3 400 200m0-200-400 200"/>
<path id="path11" d="m0 0 600 300m0-300-600 300" clip-path="url(#c-4)" transform="matrix(.66667 0 0 .66667 574.85 590.3)" stroke="#cf142b" stroke-width="40"/>
<path id="path13" stroke-width="66.667" stroke="#fff" d="m774.85 590.3v233.33m-200-133.33h466.67"/>
<path id="path15" stroke-width="40" stroke="#cf142b" d="m774.85 590.3v233.33m-200-133.33h466.67"/>
<path id="path17" fill="#00247d" d="m574.85 790.3h400v-200h400v400h-800z"/>
<g id="g19" stroke-width="1.4377" stroke="#000" transform="matrix(.66667 0 0 .66667 574.85 590.3)">
<g id="border" stroke-linejoin="round" stroke-width="9.6" stroke="#fff">
<use id="use22" xlink:href="#shield" height="100%" width="100%" y="0" x="0"/>
<use id="use24" xlink:href="#motto1" height="100%" width="100%" y="0" x="0"/>
<use id="use26" xlink:href="#motto2" height="100%" width="100%" y="0" x="0"/>
<use id="use28" xlink:href="#rope" height="100%" width="100%" y="0" x="0"/>
<use id="use30" xlink:href="#turtle" height="100%" width="100%" y="0" x="0"/>
<use id="use32" xlink:href="#pineapple1" height="100%" width="100%" y="0" x="0"/>
<use id="use34" xlink:href="#pineapple2" height="100%" width="100%" y="0" x="0"/>
</g>
<g id="motto">
<g id="motto1" fill="#fcea83">
<path id="path38" d="m754.42 449.56c2.8754 7.6678 23.482 17.732 47.444 4.7924 16.294-9.1055 26.837-22.045 36.901-45.048 2.8753-5.7508 4.313-12.939-2.3962-17.252-5.2716-3.8339-13.898-8.147-17.732-11.981-1.9169-1.9169-3.8339-3.3546-5.2716-4.7924 0.95845 0.95848 1.9169 1.917 2.8754 3.3546 9.5847 11.502-0.47923 28.275-11.022 38.339-7.6677 7.1885-21.566 24.92-41.693 8.147-4.3131-3.8339-14.377 11.981-9.1055 24.441z"/>
<path id="path40" d="m1045.8 449.56c-3.3547 7.6678-23.962 17.732-47.444 4.7924-16.294-9.1055-26.837-22.045-37.38-45.048-2.3962-5.7508-3.8339-12.939 2.8753-17.252 5.2716-3.8339 13.898-8.147 17.732-11.981 1.917-1.9169 3.3547-3.3546 5.2716-4.7924-0.95845 0.95848-1.9169 1.917-2.8754 3.3546-9.5847 11.502 0.47923 28.275 10.543 38.339 7.6677 7.1885 22.045 24.92 42.173 8.147 4.3132-3.8339 13.898 11.981 9.1055 24.441z"/>
<path id="path42" d="m900.1 490.78c38.339 0 97.285-17.252 128.91-77.636 5.2716-10.064 0-15.336-6.23-18.69-6.7093-2.8754-14.856-9.5847-19.169-13.898 7.6677 7.6678 6.2301 12.939 0.9585 21.566-24.441 40.735-57.988 61.342-104.47 61.342-46.486 0-80.032-20.607-104.47-61.342-5.2716-8.6262-6.7094-13.898 0.47922-21.566-3.8339 4.3131-12.46 11.022-19.17 13.898-6.23 3.3546-11.502 8.6262-6.23 18.69 31.63 60.384 91.055 77.636 129.39 77.636z"/>
</g>
<g id="motto2" fill="#db161c">
<path id="path45" d="m811.45 409.79c-0.95847-4.7924-7.1885-2.8754-9.1055 2.8754-2.3962-3.3546-4.7924-6.7093-6.7093-10.543-5.7508-8.6262-6.7093-14.377 1.4377-22.524 3.8339-3.8339 11.502-8.147 16.773-3.3546 11.022 9.1055 5.2716 23.962-2.3962 33.546z"/>
<path id="path47" d="m988.28 409.79c0.95847-4.7924 7.6678-2.8754 9.5847 2.8754 2.3962-3.3546 4.7924-6.7093 6.7093-10.543 5.7509-8.6262 6.7093-14.377-1.9169-22.524-3.3547-3.8339-11.022-8.147-16.773-3.3546-10.543 9.1055-5.2716 23.962 2.3962 33.546z"/>
<path id="path49" d="m754.42 449.56c-4.7924-7.1885-8.6262-25.879-9.5847-30.671-1.4377-4.3131-1.9169-8.147 3.3546-10.064 5.2716-1.9169 10.064 4.7924 12.46 10.543 2.3962 5.7508 6.2301 14.377 10.543 24.92-10.543-6.2301-19.169-1.917-16.773 5.2716z"/>
<path id="path51" d="m1045.8 449.56c4.3131-7.1885 8.147-25.879 9.5847-30.671 0.9585-4.3131 1.9169-8.147-3.3547-10.064-5.2715-1.9169-10.064 4.7924-12.46 10.543-2.3962 5.7508-6.23 14.377-10.543 24.92 10.543-6.2301 18.69-1.917 16.773 5.2716z"/>
</g>
<g id="g53" fill="#00493d">
<path id="path55" d="m782.21 406.43-3.8339 1.9169c-0.95847 0.47924-0.95847 1.4377-0.95847 1.917h-0.47923l-1.9169-4.3131h0.47923c0 0.47923 0.47924 0.95847 1.4377 0.47923l8.147-4.3131c0.95847-0.47923 0.95847-0.95847 0.47923-1.4377l0.47924-0.47924 2.3962 4.7924h-0.47924c-0.47923-0.47924-0.95847-0.95847-1.9169-0.47924l-3.3546 1.9169 1.4377 2.8754 3.8339-1.4377c0.95847-0.47924 0.47924-1.4377 0.47924-1.9169h0.47923l1.9169 4.3131c-0.47923-0.47924-0.95847-0.95847-1.9169-0.47924l-8.147 4.3131c-0.95847 0.47923-0.95847 0.95847-0.47923 1.4377l-0.47924 0.47924-2.3962-4.3131 0.47924-0.47923c0.47923 0.47923 0.95847 0.95847 1.9169 0.47923l3.8339-1.9169-1.4377-3.3546z"/>
<path id="path57" d="m790.36 412.66c0.95847-0.47923 0.95847-0.95847 0.47923-1.9169h0.47924l4.7924 7.1885-3.3546 2.3962v-0.47924c1.917-1.4377 1.917-3.3546 1.4377-3.8339-0.47923-0.47924-0.95847-0.95847-0.95847-1.4377-0.47924 0-0.47924-0.47923-1.4377 0.47924-0.47923 0.47923-3.3546 2.3962-3.3546 2.3962 0.47923 0.47923 0.95847 1.9169 3.3546 0.47923h0.47924l-5.2716 3.8339v-0.47923c2.3962-1.9169 1.4377-3.3546 0.95847-3.8339l-3.3546 2.3962c-0.95847 0.47924-0.95847 0.95847-0.95847 1.4377 0.47924 0 0.47924 0.47923 0.95847 0.95847 0.47924 0.95847 1.917 1.9169 4.3131 0.95847l0.47924 0.47924-3.8339 1.4377-4.7924-7.6678h0.47924c0.47923 0.47923 0.95847 0.95847 1.9169 0.47923l7.18-5.27z"/>
<path id="path59" d="m798.03 430.87-3.3546 2.8754c-0.47924 0.47923-0.47924 1.4377 0 1.9169h-0.47924l-3.3546-3.3546 0.47924-0.47923c0.47923 0.47923 0.95847 0.95847 1.9169 0l6.2301-6.2301c0.95847-0.47924 0.95847-0.95847 0.47924-1.9169l3.3546 3.8339c-0.47923-0.47924-1.4377-0.47924-1.9169 0l-2.8754 2.8754 2.3962 2.3962 2.8754-2.3962c0.95847-0.95847 0.47923-1.4377 0-1.9169l0.47923-0.47924 3.3546 3.8339h-0.47923c-0.47924 0-0.95848-0.47924-1.917 0.47923l-6.2301 5.7508c-0.95847 0.95847-0.95847 1.4377-0.47923 1.9169v0.47923l-3.3546-3.8339c0.47924 0 1.4377 0.47924 1.9169 0l3.3546-3.3546-2.3962-2.3962z"/>
<path id="path61" d="m805.22 440.94 1.4377 1.4377c1.9169-4.3131 1.9169-4.3131 1.9169-4.3131s-1.4377 0.47923-3.8339 1.9169l0.47923 0.95847-0.47923 0.47923-0.95847-0.95847c-0.47924 0.47924-0.95847 0.47924-1.4377 0.95847-1.4377 0.95847-0.95847 1.4377-0.47923 1.9169v0.47924l-2.3962-2.3962h0.47924l1.9169-0.47923 9.5847-5.2716 0.47924 0.47923s-0.47924 0.47924-4.7924 10.064c0 0.95847-0.47924 1.4377 0 2.3962l-3.8339-3.3546 0.47924-0.47924c0.47923 0.95847 1.4377 0.95847 1.9169 0 0-0.47923 0.47923-1.4377 0.47923-1.9169l-1.4377-1.4377 0.47923-0.47923z"/>
<path id="path63" d="m809.05 450.52 0.47923-0.47924c0.47924 0.47924 0.95847 0.47924 1.9169 0l6.2301-8.147-0.47923-0.47924c-0.95847-0.47923-2.3962-0.47923-3.8339 0.95847v-0.47923l1.9169-2.3962 7.1885 5.2716-2.3962 2.8754h-0.47924c1.4377-1.4377 0.95848-3.3546 0-3.8339v-0.47924l-6.23 8.147c-0.95848 0.47923-0.47924 1.4377 0 1.9169h-0.47924l-3.84-2.88z"/>
<path id="path65" d="m821.51 452.44-2.3962 3.3546c-0.47924 0.95847 0 1.4377 0.47923 1.917l-0.47923 0.47923-3.8339-2.8754v-0.47924c0.95847 0.47924 1.4377 0.47924 1.9169-0.47923l5.2716-7.1885c0.47923-0.95847 0-1.4377-0.47924-1.9169l0.47924-0.47924 3.8339 2.8754v0.47924c-0.95847-0.47924-1.4377-0.47924-1.9169 0.47923l-2.3962 3.3546 2.8754 1.9169 2.3962-3.3546c0.47924-0.95848 0-1.4377-0.47924-1.917l0.47924-0.47923 3.8339 2.8754v0.47924c-0.47923-0.47924-1.4377-0.47924-1.9169 0.47923l-4.7924 7.6678c-0.95847 0.47923-0.47924 0.95847 0 1.4377v0.47924l-4.3131-2.8754h0.47924c0.47923 0 0.95847 0 1.4377-0.47924l2.3962-3.8339-2.88-1.92z"/>
<path id="path67" d="m831.1 465.86 0.47924-0.47924c0.47923 0.47924 1.4377 0.47924 1.9169-0.47923l3.8339-8.147c0.47924-0.95847 0-1.4377-0.47923-1.9169l8.147 3.8339-1.9169 3.8339-0.47924-0.47924c1.4377-1.9169 0-3.8339-0.47923-4.3131-0.47924 0-0.95847-0.47924-1.4377-0.47924-0.47924 0-0.47924 0-0.95847 0.95847-0.47924 0.47924-1.9169 3.3546-1.9169 3.3546 0.47923 0.47923 1.4377 1.4377 3.3546-0.95847h0.47923l-2.8754 5.7508-0.47924-0.47923c1.4377-2.8754-0.47923-3.3546-0.95847-3.3546l-1.9169 3.8339c-0.47923 0.95847 0 1.4377 0.47924 1.4377v0.47923l-4.7924-2.3962z"/>
<path id="path69" d="m844.99 472.57c-1.4377-0.95847-1.4377-3.8339 0-6.7093 0.95847-2.8754 2.8754-5.2716 4.7924-4.3131 1.4377 0.47923 0.95847 3.3546 0 6.2301-1.4377 3.3546-3.3546 5.2716-4.7924 4.7924h-0.47924c3.3546 1.4377 5.7508-0.47923 7.1885-3.8339 1.4377-2.8754 0.95847-6.2301-1.9169-7.6678s-5.7508 0.47924-7.1885 3.8339c-1.4377 3.3546-0.95847 6.7093 1.9169 7.6678h0.47924z"/>
<path id="path71" d="m859.85 473.52 1.917-5.7508c0.47923-0.95847 0-1.4377-0.47924-1.9169l2.3962 0.47923v0.47924c-0.47924 0-0.95847 0-1.4377 0.95847l-1.9169 5.7508c-0.95847 2.3962-2.3962 4.3131-5.2716 3.3546-1.9169-0.47924-3.3546-2.8754-2.3962-5.2716l2.3962-6.2301c0.47924-0.95847 0-1.4377-0.47923-1.9169v-0.47924l4.3131 1.917v0.47923c-0.47923-0.47923-1.4377-0.47923-1.4377 0.47924l-2.3962 6.2301c-0.47923 1.9169-0.47923 3.8339 0.95847 4.3131 1.4377 0.47924 2.8754-0.47923 3.8339-2.8754z"/>
<path id="path73" d="m864.16 467.3c0-0.47923 0-0.47923-0.47923-0.47923l3.3546 0.47923 2.8754 9.1055 1.4377-5.7508c0.47924-0.95847 0-1.4377-0.47923-1.9169l2.8754 0.47923-0.47924 0.47924c-0.47923 0-0.95847 0-1.4377 0.95847l-2.3962 10.543h-0.47923l-3.8339-11.502-2.3962 7.6678c0 1.4377 0.47923 1.4377 0.95847 1.917v0.47923l-2.8754-0.95847v-0.47923c0.47924 0.47923 1.4377 0 1.4377-0.95848l2.3962-8.6262-0.47924-1.4377z"/>
<path id="path75" d="m880.46 476.88c-0.95847 4.3131-2.8754 5.2716-3.8339 5.2716h-0.95847s-0.47923-0.47924 0-0.95847l1.4377-9.5847c0.47923-0.47923 0.47923-0.95847 0.95847-0.47923h0.95847c0.95847 0 1.9169 1.9169 1.4377 5.7508l1.4377 0.47923c0.95847-4.7924-0.95847-6.7093-3.3546-7.1885-1.9169-0.47923-4.7924-0.95847-4.7924-0.95847v0.47924c0.47923 0.47923 1.4377 0.47923 0.95847 1.9169l-1.4377 8.6262c-0.47923 0.95847-0.95847 1.4377-1.4377 1.4377h-0.47924l4.7924 0.95847c2.3962 0.47924 4.7924 0 5.7508-5.2716l-1.44-0.49z"/>
<path id="path77" d="m884.77 473.05c0-0.95847-0.95847-1.4377-1.4377-1.4377v-0.47923l8.6262 0.95847-0.47923 3.8339c0-2.3962-1.4377-3.3546-2.3962-3.3546-0.47923-0.47923-0.95847-0.47923-1.4377-0.47923s-0.47923 0-0.47923 1.4377c0 0.47924-0.47924 3.8339-0.47924 3.8339 0.47924 0 1.917 0.47924 2.8754-2.3962l-0.47924 6.2301h-0.47923c0-2.8754-1.4377-2.8754-1.917-2.8754l-0.47923 4.3131c0 0.95847 0 0.95847 0.47923 0.95847l0.95847 0.47924c1.4377 0 2.8754-0.47924 3.8339-3.3546h0.47923l-0.95847 3.8339-9.1055-0.95848c0.95847 0 1.4377-0.47923 1.9169-1.4377l0.96-9.1z"/>
<path id="path79" d="m900.58 478.8c0 4.3131-1.4377 5.7508-2.8754 5.7508-0.47924-0.47924-0.47924-0.47924-0.95847-0.47924l-0.47924-0.47924 0.47924-10.064c0-0.47923 0-0.47923 0.47923-0.47923h0.95847c0.95847 0 2.3962 1.4377 2.3962 5.7508h1.9169c0-4.7924-2.3962-6.2301-4.7924-6.2301-1.9169-0.47923-4.7924-0.47923-4.7924-0.47923v0.47923c0.47924 0 1.4377 0.47924 1.4377 1.4377l-0.47924 9.1055c0 0.95847-0.47923 1.4377-0.95847 1.4377v0.47923h4.3131c2.3962 0 4.7924-0.95847 5.2716-6.2301h-1.9169z"/>
<path id="path81" d="m914.48 482.63c0 0.95847 0.47924 0.95847 1.4377 0.95847v0.47924l-5.2716 0.47924c0.47924-0.47924 1.4377-0.95848 1.4377-1.917l-0.95847-9.1055c-0.47924-0.95847-0.95847-0.95847-1.9169-0.95847v-0.47923l5.2716-0.47924c-0.47923 0.47924-1.4377 0.95847-0.95847 1.9169l0.95847 9.1055z"/>
<path id="path83" d="m919.27 483.59v-0.47923c0.47923 0 0.95847-0.47924 0.95847-1.4377l-1.9169-10.064h-0.47924c-0.95847 0.47924-1.9169 1.4377-1.4377 3.3546h-0.47924l-0.47924-3.3546 8.6262-1.4377 0.47924 3.3546h-0.47924c0-1.9169-1.4377-2.3962-2.8754-2.3962h-0.47924l1.9169 10.064c0 0.95847 0.47924 1.4377 1.4377 1.4377v0.47924l-4.7924 0.47923z"/>
<path id="path85" d="m939.88 474-1.9169-5.7508c0-0.95847-0.95847-0.95847-1.4377-0.95847v-0.47923l2.3962-0.95847v0.47923c-0.47924 0.47924-0.47924 0.47924-0.47924 1.4377l1.9169 6.2301c0.47924 1.9169 0.47924 4.7924-2.3962 5.7508-1.917 0.47924-4.3131-0.47923-4.7924-3.3546l-1.9169-6.2301c-0.47923-0.95847-0.95847-0.95847-1.4377-0.95847l-0.47924-0.47923 4.7924-1.4377v0.47924c-0.47923 0.47923-0.95847 0.95847-0.47923 1.9169l1.4377 6.2301c0.47924 1.9169 1.917 2.8754 3.3546 2.8754 1.4377-0.47923 1.9169-2.3962 1.4377-4.7924z"/>
<path id="path87" d="m945.15 470.65c2.3962-0.95847 1.9169-2.3962 1.4377-3.8339-0.47923-1.4377-1.4377-2.3962-2.3962-1.9169-0.47924 0-0.95848 0.47923-0.47924 0.95847l1.4377 4.7924 0.47923 0.47924 0.95847 3.8339c0.47924 0.95847 1.4377 0.95847 1.9169 0.47923v0.47924l-4.3131 1.9169-0.47924-0.47924c0.95847-0.47923 0.95847-0.95847 0.95847-1.9169l-3.3546-8.147c-0.47923-1.4377-0.95847-0.95847-1.9169-0.95847v-0.47923l4.7924-1.9169c1.9169-0.47924 3.8339 0 4.7924 1.9169 0.47923 2.3962-0.47924 3.8339-2.3962 4.7924-0.47923 0-0.95847 0.47924-0.95847 0.47924l-0.49-0.48z"/>
<path id="path89" d="m957.13 472.09c-1.4377 0.47923-3.3546-1.4377-4.7924-4.7924-1.4377-2.8754-1.4377-5.7508 0-6.2301 1.4377-0.47923 3.3546 1.4377 4.7924 4.3131 1.4377 2.8754 1.4377 5.7508 0 6.7093 2.8754-0.95847 3.8339-4.3131 2.3962-7.6678-1.4377-2.8754-4.3131-4.7924-7.1885-3.8339-2.8754 1.4377-3.8339 4.7924-2.3962 7.6678 1.4377 3.3546 4.3131 5.2716 7.1885 3.8339z"/>
<path id="path91" d="m957.61 458.67h-0.47924-0.47924l2.8754-1.917 8.6262 4.7924-2.8754-5.2716c-0.47923-0.95847-1.4377-0.95847-1.9169-0.95847v-0.47924l2.3962-0.95847c-0.47924 0.47924-0.95847 0.95847 0 1.9169l4.7924 9.5847-0.47924 0.47924-10.543-5.7508 3.8339 7.1885c0.47923 0.95847 1.4377 0.95847 1.9169 0.47924v0.47923l-2.3962 1.4377v-0.47924c0.47924-0.47923 0.47924-0.95847 0-1.9169l-3.8339-7.6678-1.4377-0.95847z"/>
<path id="path93" d="m979.18 460.11v-0.47923c0-0.47924 0.47923-0.95847 0-1.9169l-5.7508-8.147h-0.47923c-0.95847 0.47924-1.4377 2.3962 0 3.8339l-0.47924 0.47923-1.9169-3.3546 7.1885-4.7924 1.9169 2.8754c-1.4377-1.4377-2.8754-1.4377-3.8339-0.95847l-0.47924 0.47924 5.7508 8.147c0.47923 0.95847 1.4377 0.95847 1.9169 0.47923v0.47924l-3.8339 2.8754z"/>
<path id="path95" d="m984.45 448.6 2.8754 3.3546c0.47923 0.47924 1.4377 0.47924 1.9169 0v0.47924l-3.8339 3.3546v-0.47923c0.47923-0.47924 0.47923-0.95847 0-1.9169l-5.7508-7.1885c-0.47923-0.95847-0.95847-0.47924-1.9169-0.47924l3.8339-3.3546v0.47924c0 0.47923-0.47923 0.95847 0 1.9169l2.3962 2.8754 2.8754-1.9169-2.3962-3.3546c-0.47924-0.95847-1.4377-0.47923-1.917-0.47923l3.8339-3.3546v0.47924c-0.47924 0.47923-0.47924 0.95847 0 1.9169l5.7508 7.1885c0.47924 0.47923 0.95847 0.47923 1.4377 0l0.47923 0.47923-3.8339 3.3546-0.47924-0.47923c0.47924-0.47924 0.95847-0.95847 0.47924-1.917l-2.8754-3.3546-2.8754 2.3962z"/>
<path id="path97" d="m988.76 438.54c-0.47923-0.47923-1.4377-0.47923-1.9169 0v-0.47923l6.2301-5.7508 2.8754 2.8754h-0.47923c-1.4377-1.9169-3.3546-0.95847-4.3131-0.47923 0 0.47923-0.47924 0.47923-0.95847 0.95847 0 0 0 0.47923 0.47923 1.4377 0.47924 0.47923 2.8754 2.8754 2.8754 2.8754 0.47923-0.47924 1.9169-1.4377 0-3.8339h0.47923l3.8339 4.3131v0.47924c-2.3962-2.3962-3.3546-0.95847-3.8339-0.47924l2.8754 2.8754c0.47924 0.95848 0.95847 0.95848 0.95847 0.95848l1.4377-1.4377c0.47924-0.47924 0.95842-1.9169 0-4.7924h0.47924l1.9169 3.3546-6.23 6.2301-0.47924-0.47923c0.47924-0.47924 0.95847-0.95847 0-1.9169l-6.24-6.72z"/>
<path id="path99" d="m1000.3 425.12c-0.47921 0.47924-0.47921 1.4377 0.4793 1.9169 0.9584 0.95847 1.9169 0.95847 3.8338 0 0.9585-0.47923 2.8755-0.95847 4.3132 0.47924 2.3961 2.3962 1.4377 4.3131 0.9584 5.2716-0.4792 0.47923-1.4377 0.95847-1.9169 1.4377-0.4792 0-0.4792 0-0.4792 0.47924v0.47923l-3.3547-2.8754h0.4792c1.917 0.95847 3.8339 1.4377 4.7924 0 0.9585-0.95847 0-1.9169-0.4792-2.3962-0.9585-0.95848-1.917-0.95848-3.3547 0-1.4377 0.47923-3.3546 0.47923-4.7923-0.47924-1.917-1.9169-1.917-3.3546-0.95851-4.7924 0.47921-0.47924 1.4377-0.95847 1.9169-1.4377 0.4793 0 0.4793 0 0-0.95847l3.3547 2.3962h-0.4793c-2.3961-0.95847-3.8338-0.47924-4.3131 0.47923z"/>
<path id="path101" d="m1004.6 421.29c-0.9584-0.47924-1.4377 0-1.9169 0.47923h-0.4792l5.2716-7.6678 3.3546 2.3962-0.4792 0.47923c-1.917-1.4377-3.8339-0.47923-4.3132 0 0 0.47924-0.4792 0.95847-0.4792 1.4377-0.4792 0-0.4792 0.47923 0.4792 0.95847 0.4793 0.47923 3.3547 2.3962 3.3547 2.3962 0.4792-0.47923 1.4377-1.4377-0.4792-3.3546v-0.47924l4.7923 3.8339c-2.8754-1.4377-3.3546 0-3.8339 0.47924l3.3547 2.3962c0.9584 0.47923 1.4377 0.47923 1.4377 0.47923 0-0.47923 0.4792-0.95847 0.9585-1.4377 0.4792-0.95848 0.9584-2.3962-0.9585-4.3131l0.4792-0.47924 2.3962 2.8754-4.7924 7.1885h-0.4792c0.4792-0.95847 0.4792-1.4377-0.4792-2.3962l-7.3-5.27z"/>
<path id="path103" d="m1017.5 412.66-1.4377 2.3962c-1.917-1.9169-2.8754-3.3546-2.8754-3.3546l4.3131 0.95847h0.9585c0.4792 0 1.4377 0.47924 1.9169 0.47924 1.4377 0.47923 0.9585 0.95847 0.4792 1.9169h0.4793l2.3962-4.3131c-0.9585 0.95847-1.4378 0.47924-2.3962 0.47924-10.064-1.9169-11.022-2.3962-11.022-2.3962v0.47924l7.6677 8.6262c0.4793 0.47924 0.4793 1.4377 0.4793 1.9169h0.4792l1.4377-2.3962-0.4792-0.47924c-0.4793 0.95847-0.9585 1.4377-1.917 0-0.4792-0.47923-0.9584-0.95847-0.9584-0.95847l1.4377-3.3546h-0.9585z"/>
<path id="path105" d="m1014.6 402.12c-0.4793 0.47924-0.4793 1.4377 0.9585 1.917 1.4377 0.47923 1.9169 0 3.3546-0.95847 1.4377-0.95848 2.8754-1.917 4.7924-0.95848 2.8754 1.4377 2.3961 3.8339 1.9169 4.7924-0.4792 0.47923-0.9585 1.4377-1.4377 1.9169v0.47924 0.47923l-3.8339-1.9169c2.3962 0.47923 4.3131 0 4.7924-1.4377 0.4792-0.95847-0.4793-1.9169-0.9585-2.3962-0.9585-0.47924-1.917 0-3.3547 0.95847-1.4377 1.4377-2.8754 1.9169-4.7923 0.95847-1.917-0.95847-2.8754-2.3962-1.917-3.8339 0-0.95847 0.9585-1.4377 1.4378-1.9169 0-0.47923 0-0.47923-0.4793-0.95847v-0.47923l3.8339 1.9169h-0.4792c-2.3962-0.47924-3.8339 0.47923-3.8339 1.4377z"/>
</g>
</g>
<g id="crest">
<g id="rope" fill="#073163">
<path id="path109" fill="#fff" d="m863.2 232.47c-6.2301 1.4377-10.543 1.9169-16.294-3.3546-3.8339-3.8339-2.8754-10.543 0.95847-12.939 4.3131-2.8754 8.147-4.7924 13.419-3.3546 5.2716 1.4377 19.169 14.377 15.815 14.856-3.3546 0-8.6262 3.3546-13.898 4.7924z"/>
<path id="path111" fill="#fff" d="m878.06 209.47c1.9169-1.4377 4.3131-2.3962 10.543-2.8754 5.7508-0.47923 10.064-0.47923 11.502 3.8339 1.9169 5.2716 3.3546 11.502 7.1885 14.377-2.3962 1.4377-14.377 2.8754-18.69 0.47923-5.7508-2.8754-7.1885-13.898-10.543-15.815z"/>
<path id="path113" fill="#fff" d="m919.27 209.95c1.9169-1.4377 4.3131-1.4377 10.543-0.95847 6.23 0.47923 8.6262 0.95847 10.064 5.2716 1.4377 4.7924 0 11.022 2.8754 15.336-2.8754 0.95847-12.46 0.95847-15.815-2.3962-5.2716-3.8339-4.7924-14.856-7.6678-17.252z"/>
<path id="path115" d="m948.03 212.82c-4.3131-0.95847-7.1885-1.4377-9.1055 0 2.3962 2.8754 0.47923 14.377 5.2716 18.211 3.3546 2.3962 11.981 2.8754 13.898-2.3962 2.3962-4.7924 2.3962-11.981-10.064-15.815z"/>
<path id="path117" d="m898.67 208.03c1.4377-1.4377 4.3131-1.9169 10.064-1.9169 6.2301 0 10.064 0.95847 11.981 4.7924 1.9169 4.7924 1.4377 11.022 4.7924 14.856-1.4377 1.9169-14.377 1.9169-18.211-0.95847-5.2716-3.3546-5.7508-14.377-8.6262-16.773z"/>
<path id="path119" d="m857.93 212.34c0-2.3962 3.3546-2.8754 11.981-3.3546 8.6262-0.95847 9.1055-0.47924 11.981 5.7508 1.4377 3.3546 3.3546 9.1055 7.1885 11.022-10.543 2.3962-13.898 3.8339-19.649 0.47923-4.3131-2.3962-9.1055-8.147-10.064-10.543-0.47924-1.4377-0.47924-2.8754-1.4377-3.3546z"/>
</g>
<g id="g121" stroke-width=".6469" fill="#f9d050">
<g id="pineapple1">
<path id="path124" d="m880.94 163.46c-10.064-7.6678-22.045-14.856-33.067-16.294 7.1885 4.3131 27.316 20.128 32.588 25.4"/>
<path id="path126" d="m886.69 156.27c-11.981-8.147-25.879-17.252-39.297-18.211 10.064 5.2716 24.92 17.732 33.067 27.796"/>
<path id="path128" d="m902.02 142.85c6.7093-14.856 13.898-23.003 23.482-32.109-4.7924 10.064-10.064 30.671-12.46 38.818"/>
<path id="path130" d="m912.56 140.46c4.7924-10.543 11.981-19.649 24.441-25.4-6.2301 6.2301-15.815 24.92-18.211 34.984"/>
<path id="path132" d="m916.88 150.04c5.7508-8.147 17.252-23.482 37.86-31.63-11.981 11.981-29.713 34.026-34.026 42.652"/>
<path id="path134" d="m923.59 160.58c8.6262-4.7924 25.879-12.46 38.339-10.064-7.6678 2.8754-30.671 13.419-40.735 23.003"/>
<path id="path136" d="m921.67 157.23c8.147-8.6262 23.003-21.566 38.818-26.837-11.502 11.022-35.943 35.943-39.297 39.776"/>
<path id="path138" d="m898.67 151.96c-5.7508-17.732-14.377-34.505-27.316-39.776 7.1885 10.543 16.294 25.879 21.086 48.882"/>
<path id="path140" d="m887.64 151.48c-9.5847-11.502-22.524-23.003-37.38-25.4 10.064 5.7508 26.837 22.524 33.067 38.818"/>
<path id="path142" d="m892.92 151c-11.981-21.566-21.086-25.4-26.358-29.713 4.3131 8.147 14.856 29.713 21.086 38.818"/>
<path id="path144" fill="none" d="m868.95 149.56c5.7508 3.3546 14.377 11.502 17.252 16.773"/>
<path id="path146" d="m868.95 159.63c2.8754 2.3962 8.147 5.2716 12.939 9.5847"/>
<path id="path148" d="m925.98 166.81c4.7924-3.8339 15.336-10.064 20.607-11.981"/>
<path id="path150" d="m922.63 163.46c4.7924-6.2301 14.377-14.856 17.732-17.732"/>
<path id="path152" d="m936.05 133.75c-4.3131 4.7924-14.377 16.773-18.211 22.524"/>
<path id="path154" d="m923.59 129.43c-3.3546 4.3131-10.064 16.773-11.981 21.086"/>
<path id="path156" d="m885.73 130.39c2.8754 7.6678 8.147 20.607 10.064 25.879"/>
<path id="path158" d="m881.41 138.54c1.917 2.8754 5.7508 9.5847 7.1885 14.377"/>
</g>
<g id="pineapple2">
<path id="path161" d="m897.71 136.14c0-4.3131 2.8754-9.1055 5.7508-9.1055 3.3546 0 5.7508 5.7508 5.7508 9.1055 0 3.8339-2.8754 7.1885-5.7508 7.1885s-5.7508-2.8754-5.7508-7.1885z"/>
<path id="path163" d="m891.48 139.98c0.47923-4.7924 3.8339-8.6262 6.7093-8.147 2.8754 0.47923 4.3131 6.2301 3.8339 9.5847-0.47923 3.8339-3.8339 6.7093-6.23 6.2301-2.3962 0-4.7924-3.3546-4.3131-7.6678z"/>
<path id="path165" d="m904.42 141.42c-0.95847-4.3131 0.95847-9.1055 3.8339-9.5847 2.8754-0.47924 5.7508 4.3131 6.2301 8.147 0.95847 3.8339-1.4377 7.6678-3.8339 7.6678-2.3962 0.47924-5.7508-1.9169-6.2301-6.2301z"/>
<path id="path167" d="m897.23 145.25c0-4.7924 2.8754-9.1055 5.7508-9.1055 3.3546 0 5.7508 5.2716 5.7508 9.1055s-2.8754 7.1885-5.7508 7.1885-5.7508-2.8754-5.7508-7.1885z"/>
<path id="path169" d="m888.6 147.64c0-4.3131 3.3546-9.1055 6.23-9.1055s5.7508 5.7508 5.7508 9.1055c0 3.8339-3.3546 7.1885-5.7508 7.1885-2.8754 0-6.23-2.8754-6.23-7.1885z"/>
<path id="path171" d="m906.34 145.73c0-4.3131 2.8754-9.1055 5.7508-9.1055 3.3546 0 5.7508 5.7508 5.7508 9.1055 0 3.8339-2.8754 7.1885-5.7508 7.1885s-5.7508-2.8754-5.7508-7.1885z"/>
<path id="path173" d="m904.42 149.56c0-4.7924 3.3546-9.1055 6.2301-9.1055 2.8754 0 5.7508 5.2716 5.7508 9.1055s-2.8754 7.1885-5.7508 7.1885-6.2301-2.8754-6.2301-7.1885z"/>
<path id="path175" d="m896.75 153.88c0-4.7924 2.8754-9.1055 5.7508-9.1055 3.3546 0 5.7508 5.7508 5.7508 9.1055 0 3.8339-2.8754 7.1885-5.7508 7.1885s-5.7508-2.8754-5.7508-7.1885z"/>
<path id="path177" d="m884.77 153.88c0-4.7924 2.3962-9.1055 4.7924-9.1055s4.3131 5.7508 4.3131 9.1055c0 3.8339-2.3962 7.1885-4.3131 7.1885-2.3962 0-4.7924-2.8754-4.7924-7.1885z"/>
<path id="path179" d="m911.61 152.92c0-4.3131 2.3962-8.6262 4.7924-8.6262s4.7924 5.2716 4.7924 8.6262c0 4.3131-2.8754 7.1885-4.7924 7.1885-2.3962 0-4.7924-2.8754-4.7924-7.1885z"/>
<path id="path181" d="m914.48 161.06c0.95847-4.7924 3.8339-8.6262 5.7508-8.147 1.9169 0.47924 2.3962 6.2301 1.4377 9.5847-0.47923 4.3131-3.3546 6.7093-5.2716 6.2301-1.917-0.47924-2.8754-3.8339-1.917-7.6678z"/>
<path id="path183" d="m905.38 159.63c0.47924-4.3131 3.3546-8.6262 5.7508-8.147 2.8754 0 4.3131 5.7508 3.8339 9.1055-0.47924 4.3131-2.8754 7.1885-5.2716 6.7093-2.3962 0-4.7924-3.3546-4.3131-7.6678z"/>
<path id="path185" d="m891.96 161.06c-1.4377-4.7924-4.3131-8.147-6.2301-7.6678-1.9169 0.47923-2.3962 6.2301-1.4377 9.5847 0.95847 3.8339 3.8339 6.23 5.7508 5.7508 1.4377-0.47924 2.8754-3.8339 1.9169-7.6678z"/>
<path id="path187" d="m888.6 160.1c0-4.3131 2.3962-8.6262 4.7924-8.6262 2.8754 0 4.7924 5.2716 4.7924 8.6262 0 4.3131-2.3962 7.1885-4.7924 7.1885-1.9169 0-4.7924-2.8754-4.7924-7.1885z"/>
<path id="path189" d="m895.79 162.02c0-4.7924 2.8754-9.1055 5.7508-9.1055 3.3546 0 5.7508 5.2716 5.7508 9.1055s-2.8754 7.1885-5.7508 7.1885-5.7508-2.8754-5.7508-7.1885z"/>
<path id="path191" d="m898.19 109.31c-0.95847 3.8339-4.3131 7.1885-1.9169 12.46-4.3131-1.4377-8.147-1.917-11.502 1.9169 4.3131-0.47924 8.147 0.95847 10.064 3.8339-3.8339-0.47924-5.7508 1.4377-6.7093 3.8339 3.3546-0.95847 6.7093-1.9169 8.147-1.4377-1.4377 1.4377-3.8339 3.8339-4.3131 5.7508 2.8754-2.3962 6.2301-1.9169 8.147-3.3546-1.4377 3.3546 1.4377 6.7093 3.8339 10.064-0.47924-4.7924 2.3962-8.147 0.95847-10.543 4.3131 0.95847 4.7924 4.7924 11.022 4.7924-2.3962-1.4377-3.8339-6.2301-6.7093-6.2301 1.4377-0.47923 7.1885-0.95847 8.147 0-0.95847-1.9169-4.3131-3.8339-6.2301-3.8339 1.9169-1.9169 5.2716-5.7508 7.6678-6.7093-3.3546 0.47924-8.6262 0.95847-10.543 3.8339 4.7924-3.8339 3.8339-11.022 9.1055-11.981-2.8754-0.47923-7.1885 1.4377-10.543 4.7924 1.4377-2.8754 1.4377-6.7093 3.3546-7.6678-3.8339 0.95847-8.147 5.7508-9.5847 8.147 0-2.3962-1.4377-6.2301-2.3962-7.6678z"/>
<path id="path193" d="m900.58 116.97c0 1.4377 0 4.3131-0.47924 5.2716"/>
<path id="path195" d="m906.81 116.5c-0.95847 0.95847-2.8754 4.3131-2.8754 7.1885"/>
<path id="path197" fill="none" d="m909.69 122.25c-1.4377 0.95847-2.8754 2.3962-3.3546 4.3131"/>
</g>
</g>
<g id="turtle" fill="#059334">
<path id="path200" d="m858.89 169.69c-3.3546 0-6.2301-1.4377-8.147-3.8339-3.3546-4.3131-12.46-6.2301-16.294-2.3962-1.4377 0.95847-3.3546 0.95847-4.7924 1.4377-2.3962 0-5.2716 2.3962-4.3131 7.1885 1.9169-1.4377 2.3962 0 3.8339 0 0.95847-0.47924 0.47924 0.47923 0.47924 1.4377 0 2.3962 5.2716 7.1885 10.064 6.7093 5.2716 0 7.6678 1.9169 8.6262 2.8754 1.4377 1.4377 0.47923 0.95847 1.4377 3.3546 1.4377 1.4377 1.9169 1.9169-0.47923 3.8339-3.3546 2.8754-5.7508 9.5847 0 14.856 6.2301 4.7924 22.045 11.981 39.776-1.917 17.252-13.419 44.09-5.7508 46.007-0.95847 2.3962 4.7924 3.3546 7.6678 3.8339 10.064 0.47923 1.9169 2.8754 3.8339 6.2301 3.3546 3.3546 0 7.1885 1.4377 9.1055 2.8754 2.3962 1.4377 5.7508 0.95847 4.7924-3.3546-1.9169-13.419-10.064-15.336-11.022-21.566 4.7924 0.47923 8.147 0.47923 10.064-1.4377 1.4377-1.9169 3.3546-5.2716 5.2716-6.2301 1.4377-0.95847 1.4377-1.9169-0.47924-1.4377-2.3962 0.47923-3.8339 1.4377-8.147 0.95847-22.045-2.3962-83.866-19.169-95.847-15.815z"/>
<path id="path202" fill="#000" d="m956.65 185.98c-2.3962 1.4377-4.7924 3.8339-9.1055 9.5847-4.7924 6.2301-19.169 12.46-36.901 12.46-17.252 0-27.796-2.8754-35.463-9.1055-4.3131-3.3546-7.6678-5.2716-10.543-6.7093-5.2716-2.3962-6.2301-7.6678-4.7924-11.981-1.4377 2.3962-2.3962 4.7924-5.2716 4.3131-1.917 0-5.7508 0-4.7924 1.9169-0.47923-0.95847-0.47923-2.3962-0.95847-2.8754-0.47923-0.47924-0.95847-0.95848-0.95847-0.95848 1.4377 0.95848 4.7924-1.9169 7.1885-1.9169 1.9169 0.47924 4.3131-1.9169 3.8339-4.7924-0.47923-2.3962-0.95847-4.3131-1.4377-6.2301 3.8339-1.9169 54.154 7.1885 64.218 8.147 10.064 0.47924 38.818 4.7924 34.984 8.147z"/>
<path id="path204" d="m865.6 167.77c4.7924-4.7924 10.543-7.1885 16.294-5.7508h1.4377c2.8754-2.3962 9.5847-2.8754 13.419-0.95847h1.9169c5.7508-1.9169 16.773 0 20.607 3.8339l1.4377 0.95847c12.939-0.95847 20.607 4.7924 29.713 13.898 0.95847 0.95847 2.3962 2.8754 4.7924 3.3546 2.8754 0.47924 3.3546 1.9169 0.95847 3.3546-2.8754 1.4377-5.2716 3.8339-10.064 9.1055-4.3131 5.7508-18.211 11.502-35.463 11.502-16.773 0-26.837-2.8754-34.505-8.6262-4.3131-3.3546-7.6678-5.2716-10.064-6.7093-2.8754-0.95847-6.7093-4.7924-5.2716-8.6262 0.95848-3.8339-1.4377-8.6262-3.3546-13.419 1.4377-0.95847 5.2716-2.3962 7.1885-1.4377l0.95847-0.47923z"/>
<g id="g206" fill="#00493d">
<path id="path208" d="m950.42 179.75c-9.1055-9.1055-16.773-14.856-29.713-13.898 0 0.47923 0 1.9169-0.47923 2.8754 7.6678 2.8754 18.69 11.502 23.482 17.732 1.9169-1.9169 5.2716-4.3131 6.7093-6.7093z"/>
<path id="path210" d="m919.27 164.9c-3.8339-3.8339-14.856-5.7508-20.607-3.8339 0 1.917 0 4.7924-0.95847 6.7093 3.3546 1.4377 6.2301 4.7924 9.1055 8.147 1.9169-0.47924 6.7093-1.9169 9.1055-2.3962 0.95847-1.9169 2.8754-6.2301 3.3546-8.6262z"/>
<path id="path212" d="m896.75 161.06c-3.8339-1.9169-10.543-1.4377-13.419 0.95847-0.95847 1.917-1.4377 5.7508-1.4377 7.6678 1.9169 0 4.7924 1.4377 5.7508 2.3962 2.8754-0.95847 6.7093-2.8754 8.147-4.3131 0.47923-1.9169 1.4377-4.7924 0.95847-6.7093z"/>
<path id="path214" d="m865.6 167.77c4.7924-4.7924 10.543-7.1885 16.294-5.7508-0.95847 1.4377-1.4377 4.3131-1.4377 7.1885-5.2716-0.47923-11.981 0.95848-14.856 2.8754v-4.3131z"/>
<path id="path216" d="m941.8 187.42c-4.3131-6.2301-14.856-13.419-22.045-16.773 0 0.47924-0.95847 2.3962-1.4377 3.8339 2.8754 4.3131 8.6262 13.898 11.022 19.169 2.3962-0.95847 9.1055-3.8339 12.46-6.2301z"/>
<path id="path218" d="m905.38 197.96c0.95847-6.7093 1.4377-16.294 1.4377-19.649 2.3962-0.47924 7.1885-1.9169 9.1055-2.3962 2.3962 3.8339 8.147 13.898 10.543 18.69-5.7508 1.4377-15.336 3.8339-21.086 3.3546z"/>
<path id="path220" d="m888.6 174.96c2.3962-0.95847 5.7508-2.8754 8.147-4.7924 1.9169 1.4377 5.7508 4.7924 7.1885 6.7093 0 4.3131-1.4377 16.773-1.917 21.086-3.8339 0-10.064-0.95847-13.419-2.8754 0.47923-7.1885 0.95847-15.336 0-20.128z"/>
<path id="path222" d="m864.64 180.71c0.47923-0.95847 0.95847-4.3131 0.95847-5.7508 3.8339-2.3962 13.419-4.7924 20.607-0.95847 0.47923 4.7924 0 16.773-0.47924 19.649-6.2301-4.7924-16.294-11.502-21.086-12.939z"/>
</g>
<g id="g224" fill="none">
<path id="path226" fill="#000" d="m840.68 172.09c-0.95847 0-1.4377-2.8754-3.3546-2.8754-0.47923 0-1.9169 0.47924-2.3962 0 0 0.95848 0.47923 1.917 0.95847 2.3962 0.47923 1.4377 2.8754 0.47924 4.7924 0.47924z"/>
<path id="path228" d="m840.68 180.23c5.7508 0 6.7093-7.1885 9.5847-7.6678"/>
<path id="path230" d="m844.03 180.71c4.3131 1.9169 7.6678-8.147 11.022-7.6678"/>
<path id="path232" d="m835.41 168.25c1.4377 0 2.3962-1.9169 4.7924 0.47924 0.95848 0.95847 2.3962 1.4377 3.3546 1.4377"/>
<path id="path234" d="m842.6 175.44c-1.9169 2.8754-5.2716 4.7924-7.1885 3.8339"/>
<path id="path236" d="m834.45 163.46c-1.4377 0.95847-2.3962 2.8754-3.3546 4.3131"/>
<path id="path238" d="m829.66 170.65v2.3962"/>
</g>
</g>
</g>
<g id="g240">
<path id="shield" d="m989.72 232.95v93.451c0 80.991-38.339 108.79-89.617 130.83-51.278-22.045-90.096-49.84-90.096-130.83v-93.451h179.71z" fill="#fff"/>
<path id="path243" fill="#cf142b" d="m900.1 312.02c4.3132 0 11.022-3.8339 16.773-9.5847 6.23-6.7093 16.773-9.1055 27.796 0 11.022 9.1055 17.732 5.2716 23.482 0 5.7508-5.2716 10.543-7.1885 21.566-7.1885v-62.301h-179.71v62.301c11.022 0 15.815 1.917 21.566 7.1885 5.7508 5.2716 12.46 9.1055 23.483 0 11.502-9.1055 21.566-6.7093 28.275 0 5.2716 5.7508 11.981 9.5847 16.773 9.5847z"/>
<g id="g245" fill="#0b50a0">
<path id="path247" d="m900.1 359.95c5.7508 0 17.252-6.2301 20.128-7.6678 10.543-6.2301 18.211-0.47924 24.441 2.3962 6.7093 2.8754 19.169 6.23 26.837 0 7.6678-6.2301 11.981-5.7508 17.252-5.7508 0.95847-7.1885 0.95847-14.377 0.95847-22.524v-5.7508c-6.7093-1.4377-10.064 0.47923-17.252 6.7093-7.1885 6.2301-15.336 4.7924-25.879 0.95847-10.064-4.3131-20.128-11.981-30.192 0-2.8754 3.3546-9.5847 8.147-16.294 8.147-7.1885 0-13.419-4.7924-16.294-8.147-10.543-11.981-20.128-4.3131-30.192 0-10.543 3.8339-19.169 5.2716-26.358-0.95847-6.7093-6.2301-10.064-8.147-17.252-6.7093v5.7508c0 8.147 0.47923 15.336 1.4377 22.524 5.2716 0 9.1055-0.47923 16.773 5.7508 7.6678 6.23 20.607 2.8754 26.837 0 6.7093-2.8754 14.377-8.6262 24.92-2.3962 2.8754 1.4377 13.898 7.6678 20.128 7.6678z"/>
<path id="path249" d="m900.1 380.55c7.1885 0 15.815-2.8754 23.482-7.1885 9.5847-5.2716 16.294-2.8754 25.879 1.917 10.064 4.7924 18.211 3.3546 23.962 0 2.8754-1.917 5.2716-5.7508 11.502-4.3131-2.8754 11.981-7.1885 22.524-12.46 31.15-9.5847 2.3962-14.856 2.3962-24.92-1.9169-10.064-4.7924-22.524-7.6678-29.233-3.3546-6.2301 3.8339-12.939 5.7508-18.211 5.7508-5.2716 0-11.981-1.9169-18.211-5.7508-6.7093-4.3131-19.169-1.4377-29.233 3.3546-10.064 4.3131-15.336 4.3131-24.92 1.9169-5.2716-8.6262-9.5847-19.169-12.46-31.15 6.2301-1.4377 8.6262 2.3962 11.502 4.3131 5.2716 3.3546 13.898 4.7924 23.482 0 10.064-4.7924 16.773-7.1885 26.358-1.917 7.6678 4.3131 16.294 7.1885 23.482 7.1885z"/>
<path id="path251" d="m900.1 457.23c19.169-8.147 36.901-17.252 51.278-29.713-3.8339-1.4377-6.2301-0.47924-9.5847-2.8754s-13.419-3.3546-22.045 1.4377c-9.1055 4.3131-12.939 5.2716-19.649 5.2716-6.7093 0-10.543-0.95847-19.649-5.2716-8.6262-4.7924-18.69-3.8339-22.045-1.4377-3.3546 2.3962-5.7508 1.4377-9.5847 2.8754 14.377 12.46 31.63 21.566 51.278 29.713z"/>
</g>
<g id="lion" stroke-width="1.4377" stroke="#000">
<path id="path254" fill="#f9d050" d="m887.64 256.43c0.47924 0.95847-0.47923 3.3546 0 4.3131 0.95848 1.9169 0.95848 2.8754 2.3962 3.8339h3.3546c10.543 0 23.003-4.3131 33.546-4.3131 10.064 0 16.294 3.3546 22.045 3.3546 3.3546 0 6.2301-2.3962 6.2301-4.7924s-3.8339-3.8339-11.981-3.8339c-11.502 0-17.732 2.8754-27.316 2.8754-14.377 0-16.773-5.2716-16.773-7.6678s2.3962-5.7508 10.064-5.7508c2.3962 0 4.3131-0.47923 5.2716-1.4377 0.47924-0.95847 1.917-2.8754 4.7924-4.3131 3.3546-1.9169 10.064 0 13.419-2.3962 0 1.917-2.8754 4.7924-5.2716 5.7508 4.7924-1.4377 10.064-1.4377 11.022 2.3962-2.3962-1.4377-6.2301-0.47923-7.6678 0-1.917 0.47924-2.8754 0.95848-4.7924 1.4377 1.9169-0.47923 2.8754 3.3546 5.7508 3.3546-2.8754 2.3962-7.6678 2.3962-12.46 0.47923-1.4377-0.47923-5.2716-1.9169-7.6678-1.9169-4.7924 0-7.6678 0.95847-7.6678 2.8754 0 2.3962 2.8754 3.8339 11.502 3.8339 8.6262 0 13.419-2.3962 26.358-2.3962-0.95847-1.4377 0.47923-2.8754-1.4377-4.3131 4.7924 0 10.064 1.4377 11.981 4.7924-0.47924-3.3546 2.3962-6.2301 1.4377-9.1055 2.8754 0.47924 5.2716 3.3546 5.7508 5.7508 0-1.4377 1.9169-1.4377 1.9169-2.8754 2.8754 1.4377 4.3131 4.7924 3.8339 7.6678 1.4377-2.3962 2.8754-1.4377 3.8339-4.3131 0.95847 1.9169 0.47924 7.6678-2.8754 9.5847 2.8754-1.9169 7.1885-1.9169 10.064 1.4377-2.8754-0.47924-4.3131 0.95847-5.7508 1.4377-5.7508 3.3546-15.336 5.2716-22.524 4.7924-7.6678-0.47924-8.6262-1.917-13.419-1.917 2.8754 0.47924 8.6262 6.2301 13.898 6.2301 3.3546 0 5.7508 0 7.1885-0.47923 1.4377-0.47924 3.8339 0 5.7508 0.95847 1.4377 1.4377 4.3131 2.8754 6.2301 2.3962-0.47924 1.9169-1.4377 2.8754-2.8754 3.3546 2.3962 1.4377 0.95847 2.3962 3.3546 4.3131-0.95847 0-1.9169 0.95847-3.3546 0.47924 1.4377 1.4377 1.4377 3.3546 2.8754 4.3131-0.47924 0-1.9169 0.47923-2.8754 0 1.4377 1.9169 0 4.3131 1.4377 5.2716 1.4377 1.917-1.4377 4.3131-3.8339 2.3962 0.47923 1.4377-0.95847 2.8754-2.3962 2.3962-1.4377-0.47924-2.3962-1.9169-1.9169-2.3962 0-0.47923 0-0.47923 0.47924-0.95847-0.95847 1.4377-2.8754 1.4377-3.8339 0.95847-0.47923-0.47923-0.95847-0.95847-0.95847-1.4377-3.3546 0.95847-4.7924-1.917-4.3131-3.3546 0.47924-1.4377 3.3546-1.9169 4.3131-1.4377 0.95847 0.47924 1.9169 0.95847 2.8754 0 0.95848-0.47923 1.4377-1.4377 1.4377-2.3962 0-1.4377-1.4377-5.7508-7.6678-5.2716-7.1885 0.47923-18.69-1.4377-24.441-3.3546-0.47923-0.47924-0.95847-0.47924-1.4377-0.95847 0 1.9169-1.917 2.8754-1.917 4.7924 0 2.3962 0.95848 4.3131 3.8339 5.2716-1.4377 2.3962-3.8339 1.9169-4.7924 0.47924 0 1.4377-1.9169 2.3962-1.9169 4.3131-0.47923-0.95847-0.95847-1.4377-1.4377-2.3962-1.4377 3.3546-5.2716 5.2716-7.1885 4.3131-2.3962 1.9169-5.2716 1.4377-6.2301-0.47924-1.4377 0.95847-3.3546 0.95847-4.3131 0 0 1.4377-0.95847 0.95847-1.4377 2.8754 0 0.95847-1.9169 1.4377-2.8754 0.95847-0.95847-0.47923-1.4377-2.3962-0.47923-3.3546-1.4377 0.95847-2.8754 0.95847-3.8339 0 0-0.95848 0-2.3962 0.95847-2.8754h0.95847c-0.95847-0.47923-2.3962 0-3.3546-0.47923-0.95847-0.95847-0.95847-1.9169-0.47924-2.8754 0.47924-0.47924 1.9169-1.4377 2.8754-0.47924l0.47924 0.47924c0-0.95848 0.47923-1.917 0.95847-1.917 0.95847-0.47923 2.3962-0.47923 3.8339 0.95847 0.95847 1.4377 1.9169 1.4377 4.7924 0.95848 2.3962 0 6.2301-2.3962 9.1055-4.7924-8.147-1.4377-3.3546-6.7093-0.95847-8.6262-1.9169-0.47924-4.7924-0.47924-6.7093 0.47923-10.064 5.2716-20.607 11.502-27.316 9.5847 0 0.95847 0.47923 1.9169 0.95847 2.8754-1.4377 0-4.3131 0-5.2716-1.4377-0.47924 0.95847-1.4377 3.3546-0.47924 5.2716-0.95847-0.95847-3.8339-1.9169-5.2716-2.3962 0.95847 0.95847 0 2.8754 0.47924 4.3131-1.4377-1.4377-3.8339-2.3962-4.7924-1.4377-0.95847 0.95847-2.8754 1.4377-4.3131 0.95847-0.95847 1.4377-2.3962 2.3962-3.8339 2.8754 0-0.95847 0-2.3962-0.47924-2.8754-0.47924 1.4377-1.9169 3.3546-3.8339 4.3131 0-0.95847 0-2.3962-0.47924-3.3546 0 1.9169-3.8339 2.8754-4.3131 4.3131 0.47924-1.4377 0.47924-2.8754 0.47924-3.8339-0.95847 1.4377-2.3962 2.8754-4.7924 3.3546 0.47923-0.95847 0.95847-1.9169 0.47923-2.8754-0.47923 1.9169-3.3546 2.8754-5.7508 2.3962 0 0.95847-1.9169 2.3962-4.3131 0.95847-1.4377-0.47924-2.3962-1.9169-1.4377-2.8754-1.9169 0-3.8339-1.917-2.8754-3.3546 0-0.47924 0.47924-0.95847 0.47924-1.4377-1.4377-0.95847-1.917-2.8754-0.47924-4.3131 0.47924-0.47923 1.9169-0.47923 2.8754-0.47923 0-3.8339 3.3546-3.8339 4.7924-0.95847 0.95847 1.4377 3.8339 3.8339 6.2301 3.3546 0.95847 0 1.4377-0.47924 2.3962-0.47924 2.8754-0.95847 8.6262-3.3546 11.981-6.2301 0.47923-1.4377 0.47923-2.3962 0.47923-3.3546-1.9169 0.95847-3.8339 1.9169-4.7924 3.3546v-1.4377c-1.4377 0-3.8339-0.47923-4.7924-0.47923 0.47924-0.47924 0.95847-2.8754 1.917-3.3546-2.3962 0.47924-4.7924 0-6.7093-0.47923 0.95847-0.95847 0.95847-2.3962 1.4377-3.8339-0.95847 0.47924-3.3546-0.47923-5.2716 0 0.47923-1.4377 0.95847-3.3546 2.3962-3.8339-1.9169 0.47924-4.3131 0-6.7093-0.95847 1.9169 0 2.8754-2.3962 4.3131-2.3962-3.8339 0-4.7924-1.9169-6.7093-2.8754 1.4377 0.47924 2.3962-0.95847 3.8339-0.95847-1.4377-0.47923-3.8339-2.8754-2.8754-4.3131-0.47923 0.47924-0.95847 1.4377-1.9169 1.9169-0.95847 0.47924-2.8754 0-4.3131-1.4377-0.95847-1.9169-0.47923-4.3131 1.4377-4.7924-2.3962-0.47923-2.3962-2.8754-1.4377-3.8339 0.47924-0.95847 2.3962-2.3962 3.3546-0.95847 0.47924 0.47924 0.95847 1.4377 1.4377 1.9169-0.47924-0.95847-0.47924-2.8754-0.47924-4.3131 0.47924-1.4377 1.4377-1.4377 2.8754-1.9169 1.4377 0 2.3962 1.4377 2.3962 2.8754s0.47924 2.3962 0.95847 4.3131c0-0.47923 0.47924-1.4377 0.47924-1.9169 0-1.9169 2.3962-1.4377 3.8339-0.95847 1.4377 0.47924 1.9169 3.3546 0 4.7924-0.95847 0.95847-0.47924 2.3962 0.47924 3.3546 3.3546 5.2716 9.1055 9.5847 13.898 10.064 0-1.9169 0.95847-3.8339 2.3962-5.2716 0-0.95848 0.47923-2.3962 0.95847-3.3546 0.47923-2.8754 1.9169-4.3131 3.8339-3.3546-0.47923-0.47924-0.95847-0.95847-0.95847-1.4377-1.4377-1.4377-2.8754-3.8339-1.9169-5.7508 0.95847-1.9169 3.8339-1.4377 4.7924-0.47924-0.47923-2.8754 2.8754-5.2716 2.8754-6.7093 0.47924 1.4377 1.4377 3.3546 0.95847 4.7924 0.47924-1.9169 3.8339-4.3131 6.2301-5.2716-0.95847 1.4377 1.917 3.8339 1.4377 5.2716 0.95847-2.3962 4.7924-3.8339 7.6678-3.8339-0.95847 0.95847-0.95847 2.8754-0.95847 3.8339 1.4377 0 3.8339-0.47923 4.7924-1.9169 0 1.9169-0.95847 3.8339-1.9169 4.7924 0.47923-0.47924 2.3962-0.47924 3.8339-0.47924-1.4377 1.4377-0.95847 2.8754-2.3962 3.8339 1.917-0.95847 4.3131-0.95847 4.7924 0.95847 0.95847 1.4377-0.47924 3.8339-1.4377 5.2716-0.95847 0.47924-1.9169 1.4377-2.3962 1.4377z"/>
<g id="g256" fill="none">
<path id="path258" d="m857.93 262.18c-3.3546 1.4377-4.3131 4.7924-4.7924 6.7093"/>
<path id="path260" d="m857.45 265.54c-4.7924 2.8754-6.7093 5.2716-5.7508 10.543"/>
<path id="path262" d="m859.85 279.91c2.8754-0.95847 4.7924-1.9169 7.1885-6.2301"/>
<path id="path264" d="m865.6 275.6c-0.95847 1.9169 0 5.2716-1.4377 6.7093 2.3962-1.4377 4.3131-3.3546 4.7924-6.7093"/>
<path id="path266" d="m866.56 280.87c1.9169-0.95847 4.7924-3.8339 6.2301-7.1885-0.47924 1.4377 0 3.8339-0.95847 5.2716 2.3962-2.3962 3.3546-3.8339 3.8339-6.2301 0 0.47924 0.47924 1.4377 0.47924 1.9169 0.95847-0.95847 1.9169-1.9169 1.9169-3.8339"/>
<path id="path268" d="m878.06 272.25v2.3962c1.9169-1.4377 2.3962-3.3546 2.3962-5.7508"/>
<path id="path270" d="m879.98 271.77c2.8754-1.9169 3.3546-4.7924 3.3546-9.1055"/>
<path id="path272" d="m883.33 267.45c1.9169-1.4377 2.3962-2.3962 2.3962-6.7093"/>
<path id="path274" d="m879.5 247.8c-0.95847 0-1.9169 0.47924-1.9169 1.9169 0 0.95847-1.4377 2.3962-1.4377 3.8339-0.47924 1.9169-1.4377 2.3962-2.8754 1.9169-1.4377-0.95847-1.4377-0.95847-1.4377-2.3962 0-1.9169 2.3962-2.3962 2.3962-4.3131 0.47924-0.95847 0.95848-2.3962 1.4377-2.3962-2.3962 1.4377-5.7508 0.47923-6.2301-2.3962"/>
<path id="path276" d="m883.81 249.24c-0.95847 0.47923-1.9169-0.95847-3.3546-0.47924-0.47923 0-1.9169 0.47924-2.3962 0"/>
<path id="path278" d="m877.1 251.64c0.47923 0.47924 2.8754 1.4377 5.2716 0.47924-1.917 0.47924-3.3546-1.9169-1.4377-3.3546"/>
<path id="path280" d="m872.79 246.85c-1.9169 0-3.3546 1.4377-2.8754 2.8754 0.47923 1.4377 2.3962 1.4377 3.8339 0.47924"/>
<path id="path282" d="m869.43 270.81c0.47924-0.47924 0.95847-1.4377 0.95847-1.9169 0.95847 0 1.9169-0.47924 2.3962-0.95847 1.9169 0 3.3546-1.4377 3.8339-2.8754 0.95847 0 1.4377-2.3962 1.9169-3.3546 0.47924 0.47923 1.4377 0 1.9169-1.9169 0.95847 0.47923 2.3962 0 2.8754-1.4377"/>
<path id="path284" d="m863.68 254.99c0 0.47924-0.95847 1.4377-1.9169 1.9169 0.47923 0.95847 0 3.3546-0.95848 3.8339 0.47924 0.95847 0 2.3962-0.47923 3.3546 0 0.47924 0.47923 1.917 0.47923 2.3962"/>
<path id="path286" d="m865.6 245.41c-0.95847 2.3962-0.47924 5.2716 1.4377 5.7508"/>
<path id="path288" d="m866.56 253.08c-0.47924 2.3962-0.47924 5.7508-0.95847 7.1885-0.47924 0.95847-1.4377 4.3131 2.3962 5.2716 4.3131 0.95847 6.7093 0.47924 9.1055-6.7093"/>
<path id="path290" d="m884.29 277.52c0 0.47924-0.47924 1.4377-1.4377 1.4377"/>
<path id="path292" d="m887.64 276.56c0 0.95847-0.95847 2.3962-1.4377 2.8754"/>
<path id="path294" d="m891 275.6c0 0.95847 0 2.3962-0.95847 2.8754"/>
<path id="path296" d="m861.77 245.89c0.47923 0 0.95847 0.95847 1.4377 1.9169-1.4377-0.95847-2.8754 1.4377-1.9169 2.8754"/>
<path id="path298" d="m860.33 254.04c-0.47924 0.47924-1.4377 0.95847-1.9169 1.4377"/>
<path id="path300" d="m858.89 258.35c-0.47923 0-0.95847 0.47924-1.4377 0.47924"/>
<path id="path302" d="m835.89 249.72c0-0.47923 0-0.47923 0.47923-0.95847"/>
<path id="path304" d="m831.57 248.28c-0.47924 0-0.47924 0-0.95847-0.47924"/>
<path id="path306" d="m832.05 254.99h0.95847"/>
<path id="path308" d="m830.14 252.12c-0.95847-0.95847-2.3962-1.4377-2.8754-1.4377"/>
<path id="path310" d="m856.49 269.85c-3.3546 2.8754-4.7924 5.2716-5.2716 8.6262"/>
<path id="path312" d="m859.85 272.25c-0.95847 1.9169-2.3962 3.3546-3.8339 4.3131"/>
<path id="path314" d="m841.16 286.62c-3.8339 0.95847-6.7093 0.47923-9.5847-1.4377-0.47924-0.47924-0.95847-0.47924-1.4377-0.95847"/>
<path id="path316" d="m855.54 279.91c-0.47924 1.9169-0.95847 4.3131-1.917 4.7924 3.8339-1.9169 7.1885-4.7924 7.6678-9.1055"/>
<path id="path318" d="m827.74 289.02c1.4377-0.47923 2.8754 0.47924 3.8339-0.47923"/>
<path id="path320" d="m911.13 273.2c0.95847 0.47923 2.3962 0.95847 2.8754 1.4377 0.47923-0.95847 2.3962-2.3962 3.8339-2.8754"/>
<path id="path322" d="m877.1 283.27c-0.47924-1.9169 0.47923-4.3131 3.3546-5.2716"/>
<path id="path324" d="m858.41 291.42c0.47923-0.95847 0.47923-2.3962 0.95847-3.3546"/>
<path id="path326" d="m837.32 292.85c-0.47923 0.95847-1.4377 1.9169-1.4377 2.8754"/>
<path id="path328" d="m830.14 293.81s0-0.47924 0.47924-0.47924c0.95847-0.47923 2.3962-1.4377 2.8754-2.3962"/>
<path id="path330" d="m895.31 287.1c-0.95847 0.47924-1.4377 0-1.9169-0.47923"/>
<path id="path332" d="m894.83 289.5s-0.47923 0.47923-0.95847 0.47923"/>
<path id="path334" d="m897.23 291.9c-0.47923 0.47924-0.95847 0.95848-1.4377 0.95848"/>
<path id="path336" d="m911.13 292.85c0.95847-0.47924 1.4377-1.4377 1.9169-3.3546"/>
<path id="path338" d="m904.9 292.37c1.4377-0.47924 2.3962-1.4377 3.8339-2.8754"/>
<path id="path340" d="m918.32 288.54c0-0.95847 0-1.9169 0.47923-2.8754"/>
<path id="path342" d="m953.78 292.85c-0.95847-0.95848-0.95847-2.3962 0.47924-3.3546 0.95847-0.47924 1.4377-0.95847 2.3962-1.4377"/>
<path id="path344" d="m924.55 276.08c-7.6678-3.3546-7.1885-7.6678-13.419-7.1885"/>
<path id="path346" d="m958.57 290.94c0.47923 0.47924 0 1.917 0 2.3962"/>
<path id="path348" d="m962.88 290.94c-0.47923 1.4377-0.47923 1.917-0.47923 3.3546"/>
<path id="path350" d="m925.98 245.89h-3.8339"/>
<path id="path352" d="m885.73 262.18c0 0.95847 1.4377 2.8754 5.2716 2.8754-0.47923 0-0.95847-0.47923-0.95847-0.47923"/>
<path id="path354" d="m887.64 256.43c-0.47923 0.47923-0.95847 0-0.95847 0-0.95847-0.95847 0.47924-2.8754 1.917-3.8339-1.4377 0.47923-2.3962 0.47923-3.3546 0.47923-0.95847 2.8754-3.8339 4.3131-5.7508 2.3962-0.47923 1.9169-2.8754 4.3131-4.7924 3.8339-1.9169-0.95847-2.3962-2.3962-1.9169-3.8339-2.3962 2.8754-5.2716 0.95847-6.2301 0-0.47924-0.95847 0-3.3546 0.95847-6.2301"/>
</g>
<path id="path356" d="m918.32 274.64c-1.4377 0.95847-2.8754 0-4.3131 1.4377-0.95847 0.95847 0.47923 1.4377 1.4377 1.4377-0.47923 1.4377-0.47923 1.917 1.917 1.917-0.95847 1.4377 1.9169 1.9169 1.4377 3.8339 1.4377-1.4377 1.4377-3.3546 0.95847-4.7924-0.47923-1.4377-2.8754-2.3962-1.4377-3.8339z"/>
<g id="g358" fill="#073163">
<path id="path360" d="m874.7 259.31c-1.9169-0.95847-2.3962-2.3962-1.9169-3.8339-0.47924 0.95847-1.4377 1.4377-2.3962 1.4377-1.9169 4.3131-4.3131 8.147-7.1885 8.147-3.3546 0.47924-2.8754 3.8339-0.47923 3.8339 5.2716 0.95847 7.6678-0.95847 11.981-9.5847z"/>
<path id="path362" d="m827.26 247.8c1.4377-1.4377 0.47924-2.8754-0.47924-3.3546-1.4377-0.47923-4.3131 0-5.7508 2.3962 1.4377-0.47923 2.8754-0.47923 3.3546 0.47924 0.47923 0.95847 1.4377 1.9169 2.8754 0.47923z"/>
<path id="path364" d="m829.66 239.18c3.3546 0 4.3131 0.47923 4.7924 1.9169 0.47924 0.95847-0.47923 2.3962-1.4377 2.3962-1.4377 0-2.8754-0.95847-2.3962-1.4377 0.47923-0.95847 0.47923-2.3962-0.95847-2.8754z"/>
<path id="path366" d="m839.24 246.85c2.3962 0.47924 3.3546-0.95847 1.917-2.8754-0.47924-1.4377-1.917-2.3962-4.3131-1.9169 2.3962 1.4377 0 3.8339 2.3962 4.7924z"/>
<path id="path368" d="m821.51 254.99c1.4377 2.3962 3.8339 2.3962 4.7924 1.9169 1.4377-0.47923 1.9169-1.9169 1.4377-2.8754-0.95848-1.4377-2.3962-1.9169-2.8754 0-0.95847 1.9169-2.3962 1.4377-3.3546 0.95847z"/>
<path id="path370" d="m828.7 284.23c-0.95847-1.9169-3.8339-1.9169-6.2301 0 0.95847-0.47924 2.8754 0 3.3546 0.95847 0.47924 0.95847 1.4377 0.95847 1.917 0.95847 0.47923-0.47924 1.4377-0.95847 0.95847-1.9169z"/>
<path id="path372" d="m832.53 281.35c0-2.3962-3.3546-2.8754-5.2716-1.9169 0.95847 0 2.3962 0.95847 2.3962 1.9169 0.47923 0.95847 1.4377 1.4377 1.9169 1.4377 0.95847-0.47923 1.4377-0.95847 0.95847-1.4377z"/>
<path id="path374" d="m827.74 289.98c-2.8754-0.47923-4.3131 2.8754-4.3131 5.2716 0.47923-1.4377 1.9169-2.3962 3.3546-1.9169 1.4377 0 1.917-0.47923 1.917-1.4377 0.47923-0.95847 0-1.4377-0.95847-1.9169z"/>
<path id="path376" d="m828.22 298.12c0.95847 0.47924 1.9169-0.47923 2.3962-1.9169 0-0.95847 1.9169-0.95847 2.3962-0.47923 0.95848 0.47923 0.95848 2.3962-0.47923 3.3546-0.95847 0.47924-3.3546 0.95848-4.3131-0.95847z"/>
<path id="path378" d="m894.83 283.75c-0.95847-0.47923-3.3546-1.4377-5.2716 0 1.4377-0.47923 2.3962 0.47924 2.8754 1.4377 0 0.95847 1.4377 1.4377 1.9169 0.47923 0.47923-0.47923 0.95847-1.4377 0.47923-1.9169z"/>
<path id="path380" d="m890.52 287.1c-1.9169-0.95847-4.3131 1.4377-4.7924 3.3546 0.47924-0.47924 2.3962-1.4377 3.3546-1.4377 0.95847 0.47924 1.9169 0 1.9169-0.95847 0.47924-0.47923 0.47924-0.95847-0.47923-0.95847z"/>
<path id="path382" d="m892.92 290.94c-1.4377 0-3.3546 1.917-3.3546 3.8339 0.47923-0.95847 1.4377-1.4377 2.3962-0.95847 0.95847 0 2.3962-0.47924 2.3962-1.4377 0-0.95847-0.47924-1.4377-1.4377-1.4377z"/>
<path id="path384" d="m897.23 294.77c-0.95847-0.47924-2.3962 0-2.3962 1.4377s0 2.8754-0.47923 3.3546c0.95847-0.95847 1.9169-1.4377 2.8754-1.9169 0.47924-0.47924 0.95847-1.9169 0-2.8754z"/>
<path id="path386" d="m951.38 290.46c-0.95847-0.95847-2.3962-0.47924-2.8754 0.47923-0.47923 0.95847-0.95847 3.3546 0 5.2716 0-0.95847 0.95847-2.3962 1.917-2.3962 1.4377-0.47924 1.9169-2.3962 0.95847-3.3546z"/>
<path id="path388" d="m954.26 292.37c-1.9169 0.95847-1.9169 4.3131-0.47924 6.2301 0-0.95847 0.47924-2.3962 1.4377-2.8754 1.4377 0 1.9169-1.9169 1.4377-2.8754-0.95847-0.95848-1.9169-0.47924-2.3962-0.47924z"/>
<path id="path390" d="m960.01 294.29c-0.95847-0.47923-1.9169 0.47924-1.9169 1.4377-0.47923 1.4377 0.47924 3.3546 1.9169 4.3131 0-0.95848 0.47924-1.917 0.95847-2.3962 1.4377-0.95847 0.95847-2.8754-0.95847-3.3546z"/>
<path id="path392" d="m964.32 293.81c-0.95847 0-1.9169 1.4377-0.95847 2.8754 0.47923 0.95847 1.4377 1.4377 3.3546 0.95847-0.47924 0-1.4377-1.4377-0.95847-1.9169 0.47923-0.95847 0-1.9169-1.4377-1.9169z"/>
</g>
</g>
<g id="star">
<path id="path395" fill="#f9d050" d="m831.1 383.43 23.962-73.802 23.962 73.802-62.78-45.527h77.636z"/>
<path id="path397" fill="#024919" d="m835.89 376.72 49.84-36.422h-61.342l49.361 36.422-18.69-58.467z"/>
</g>
<use id="use399" xlink:href="#star" height="100%" width="100%" y="0" x="90.096649"/>
<use id="use401" xlink:href="#star" height="100%" width="100%" y="52.237129" x="45.047649"/>
<path id="path403" d="m989.72 232.95v93.451c0 80.991-38.339 108.79-89.617 130.83-51.278-22.045-90.096-49.84-90.096-130.83v-93.451h179.71z" stroke="#000" stroke-width="1.4377" fill="none"/>
</g>
</g>
</g>
</g>
</svg>
