<?xml version="1.0" encoding="UTF-8" standalone="no"?>
<!-- Created with Inkscape (http://www.inkscape.org/) -->

<svg
   xmlns:dc="http://purl.org/dc/elements/1.1/"
   xmlns:cc="http://creativecommons.org/ns#"
   xmlns:rdf="http://www.w3.org/1999/02/22-rdf-syntax-ns#"
   xmlns:svg="http://www.w3.org/2000/svg"
   xmlns="http://www.w3.org/2000/svg"
   xmlns:sodipodi="http://sodipodi.sourceforge.net/DTD/sodipodi-0.dtd"
   xmlns:inkscape="http://www.inkscape.org/namespaces/inkscape"
   version="1.1"
   id="svg2235"
   xml:space="preserve"
   width="800"
   height="800"
   viewBox="0 0 800 800"
   sodipodi:docname="flag-China-waving.svg"
   inkscape:version="0.92.4 (5da689c313, 2019-01-14)"><metadata
     id="metadata2241"><rdf:RDF><cc:Work
         rdf:about=""><dc:format>image/svg+xml</dc:format><dc:type
           rdf:resource="http://purl.org/dc/dcmitype/StillImage" /><dc:title></dc:title></cc:Work></rdf:RDF></metadata><defs
     id="defs2239"><clipPath
       clipPathUnits="userSpaceOnUse"
       id="clipPath2251"><path
         d="M 0,600 H 600 V 0 H 0 Z"
         id="path2249"
         inkscape:connector-curvature="0" /></clipPath></defs><sodipodi:namedview
     pagecolor="#ffffff"
     bordercolor="#666666"
     borderopacity="1"
     objecttolerance="10"
     gridtolerance="10"
     guidetolerance="10"
     inkscape:pageopacity="0"
     inkscape:pageshadow="2"
     inkscape:window-width="1920"
     inkscape:window-height="1018"
     id="namedview2237"
     showgrid="false"
     inkscape:zoom="1.06125"
     inkscape:cx="400"
     inkscape:cy="400"
     inkscape:window-x="-8"
     inkscape:window-y="-8"
     inkscape:window-maximized="1"
     inkscape:current-layer="g2243" /><g
     id="g2243"
     inkscape:groupmode="layer"
     inkscape:label="flag-China-wavy-publicdomainvectors.org"
     transform="matrix(1.3333333,0,0,-1.3333333,0,800)"><g
       id="g2245"><g
         id="g2247"
         clip-path="url(#clipPath2251)"><path
           d="m 34.45,535.517 c 27.641,7.819 58.645,14.605 87.128,4.058 27.996,-10.405 49.567,-29.532 73.037,-34.515 23.735,-5.028 51.593,3.7 81.559,8.686 14.423,2.389 28.019,3.324 39.394,0.698 9.864,-2.282 17.557,-7.649 23.534,-13.403 5.622,-5.415 10.738,-11.129 17.418,-14.375 7.231,-3.501 16.862,-4.469 27.956,-3.792 27.43,1.681 57.571,10.945 83.63,9.917 9.289,-0.371 16.356,-3.091 19.253,-7.5 2.621,-4.008 2.758,-9.068 5.009,-12.804 2.278,-3.77 7.961,-6.029 15.469,-6.424 9.991,-0.513 22.385,0.999 36.557,2.865 5.254,-99.785 10.775,-202.276 16.322,-307.597 -15.607,1.357 -30.336,2.884 -43.305,3.301 -10.578,0.331 -18.91,-0.059 -24.025,-2.684 -3.783,-1.946 -5.208,-5.933 -6.683,-9.578 -1.574,-3.868 -5.395,-7.72 -11.855,-9.305 -9.016,-2.202 -21.27,-1.729 -35.516,-0.508 -15.519,1.332 -31.144,3.518 -46.059,4.845 -13.445,1.197 -25.25,1.614 -34.955,-0.169 -8.261,-1.528 -15.092,-5.199 -20.892,-9.621 -5.984,-4.576 -12.212,-9.998 -20.498,-13.483 -9.514,-3.977 -21.697,-5.435 -35.312,-4.904 -30.347,1.225 -60.083,10.039 -86.89,8.703 -24.621,-1.243 -48.194,-14.609 -75.544,-25.925 C 89.691,89.808 56.813,87.948 27.554,94.257 c 1.196,77.17 2.386,152.839 3.548,227.041 1.138,72.774 2.269,144.163 3.348,214.219"
           style="fill:#de2910;fill-opacity:1;fill-rule:nonzero;stroke:none"
           id="path2253"
           inkscape:connector-curvature="0" /><path
           d="m 148.225,485.401 c 11.242,-41.555 21.653,-80.648 32.605,-117.177 -29.97,25.891 -59.174,62.07 -98.212,87.938 23.204,0.109 45.425,-6.194 65.366,-13.434 18.203,-6.611 35.45,-12.614 53.275,-13.549 -27.719,-17.877 -58.771,-30.15 -92.601,-49.523 13.894,37.698 27.149,72.927 39.567,105.745"
           style="fill:#ffde00;fill-opacity:1;fill-rule:nonzero;stroke:none"
           id="path2255"
           inkscape:connector-curvature="0" /><path
           d="m 255.894,489.761 c -1.158,-11.984 -2.325,-23.976 -3.488,-35.977 -7.853,8.858 -15.579,17.606 -22.843,26.589 13.133,-2.881 27.087,-4.417 41.15,-6.992 -14.874,-4.946 -29.276,-10.402 -43.215,-14.681 9.191,9.984 18.666,20.386 28.396,31.061"
           style="fill:#ffde00;fill-opacity:1;fill-rule:nonzero;stroke:none"
           id="path2257"
           inkscape:connector-curvature="0" /><path
           d="m 308.803,451.999 c -5.526,-10.55 -11.513,-21.357 -17.877,-32.375 -2.143,12.091 -4.35,24.099 -6.601,36.019 10.308,-7.84 19.757,-16.676 27.651,-26.52 -11.742,3.642 -25.597,4.903 -40.337,5.249 13.306,6.765 25.798,12.865 37.164,17.627"
           style="fill:#ffde00;fill-opacity:1;fill-rule:nonzero;stroke:none"
           id="path2259"
           inkscape:connector-curvature="0" /><path
           d="m 313.196,386.455 c -8.938,-7.224 -19.154,-14.804 -30.31,-22.718 3.863,12.089 7.625,24.155 11.26,36.181 4.856,-11.572 9.367,-23.318 13.477,-35.189 -10.122,7.611 -21.972,14.099 -34.563,19.988 14.781,1.505 28.389,2.375 40.136,1.738"
           style="fill:#ffde00;fill-opacity:1;fill-rule:nonzero;stroke:none"
           id="path2261"
           inkscape:connector-curvature="0" /><path
           d="m 256.847,357.69 c -0.543,-12.232 -1.085,-24.49 -1.628,-36.77 -8.53,9.901 -16.975,19.552 -25.025,29.199 13.776,-3.595 28.184,-6.814 42.575,-10.651 -14.766,-3.908 -29.445,-7.793 -43.597,-11.537 8.969,9.784 18.265,19.669 27.675,29.759"
           style="fill:#ffde00;fill-opacity:1;fill-rule:nonzero;stroke:none"
           id="path2263"
           inkscape:connector-curvature="0" /></g></g></g></svg>