<?xml version="1.0" encoding="UTF-8" standalone="no"?>
<!-- Created with Sodipodi ("http://www.sodipodi.com/") -->
<!--

-->
<svg xmlns:inkscape="http://www.inkscape.org/namespaces/inkscape" xmlns:rdf="http://www.w3.org/1999/02/22-rdf-syntax-ns#" xmlns="http://www.w3.org/2000/svg" xmlns:cc="http://creativecommons.org/ns#" xmlns:dc="http://purl.org/dc/elements/1.1/" xmlns:sodipodi="http://sodipodi.sourceforge.net/DTD/sodipodi-0.dtd" xmlns:svg="http://www.w3.org/2000/svg" xmlns:ns1="http://sozi.baierouge.fr" id="svg660" inkscape:version="0.48.3.1 r9886" viewBox="0 0 625 416.25" sodipodi:version="0.32" version="1.1" sodipodi:docname="_svgclean2.svg" xmlns:xlink="http://www.w3.org/1999/xlink">
  <sodipodi:namedview id="base" inkscape:window-x="0" inkscape:window-y="0" inkscape:window-height="645" inkscape:window-maximized="0" inkscape:zoom="0.22425739" showgrid="false" inkscape:current-layer="svg660" inkscape:cx="372.04724" inkscape:cy="-109.93109" inkscape:window-width="674"/>
  <rect id="rect665" style="fill-rule:evenodd;stroke-width:1pt;fill:#ffff00" height="104.06" width="625" y="0" x="0"/>
  <rect id="rect668" style="fill-rule:evenodd;stroke-width:1pt;fill:#ffffff" height="104.06" width="625" y="104.06" x="0"/>
  <rect id="rect667" style="fill-rule:evenodd;stroke-width:1pt;fill:#be0027" height="104.06" width="625" y="208.12" x="0"/>
  <rect id="rect666" style="fill-rule:evenodd;stroke-width:1pt;fill:#3b5aa3" height="104.06" width="625" y="312.19" x="0"/>
  <path id="path664" style="fill-rule:evenodd;fill:#239e46" inkscape:connector-curvature="0" d="m0 0.000006142v416.24l310.45-207.54-310.45-208.7z"/>
  <path id="path673" inkscape:connector-curvature="0" sodipodi:nodetypes="cscsc" style="fill-rule:evenodd;fill:#ffffff" d="m127.81 114.98c-69.183-3.51-100.7 51.6-100.63 94.2-0.159 50.38 47.582 91.93 91.71 89.43-23.794-11.26-52.85-42.82-53.117-89.64-0.244-42.42 23.977-79.31 62.037-93.99z"/>
  <polygon id="polygon674" style="fill-rule:evenodd;stroke-width:1pt;fill:#ffffff" sodipodi:type="star" sodipodi:sides="5" sodipodi:r1="18.652912" sodipodi:r2="9.3264561" sodipodi:arg1="1.1220729" sodipodi:arg2="1.7503914" d="m 126.77341,160.21338 -9.75793,-7.62986 -11.8172,3.71287 4.24106,-11.63809 -7.18286,-10.0915 12.37904,0.43712 7.37795,-9.94975 3.40961,11.90825 11.74269,3.94221 -10.27179,6.92258 z" inkscape:randomized="0" transform="translate(0,1.5e-5)" sodipodi:cy="143.40707" sodipodi:cx="118.68148" inkscape:rounded="0" inkscape:flatsided="false" points="126.77 160.21 117.02 152.58 105.2 156.3 109.44 144.66 102.26 134.57 114.64 135 122.01 125.05 125.42 136.96 137.17 140.9 126.89 147.83"/>
  <polygon id="polygon675" style="fill-rule:evenodd;stroke-width:1pt;fill:#ffffff" sodipodi:type="star" sodipodi:sides="5" sodipodi:r1="18.652912" sodipodi:r2="9.3264561" sodipodi:arg1="1.1220729" sodipodi:arg2="1.7503914" transform="translate(-.20749 42.327)" inkscape:randomized="0" d="m 126.77341,160.21338 -9.75793,-7.62986 -11.8172,3.71287 4.24106,-11.63809 -7.18286,-10.0915 12.37904,0.43712 7.37795,-9.94975 3.40961,11.90825 11.74269,3.94221 -10.27179,6.92258 z" sodipodi:cy="143.40707" sodipodi:cx="118.68148" inkscape:rounded="0" inkscape:flatsided="false" points="126.77 160.21 117.02 152.58 105.2 156.3 109.44 144.66 102.26 134.57 114.64 135 122.01 125.05 125.42 136.96 137.17 140.9 126.89 147.83"/>
  <polygon id="polygon676" style="fill-rule:evenodd;stroke-width:1pt;fill:#ffffff" sodipodi:type="star" sodipodi:sides="5" sodipodi:r1="18.652912" sodipodi:r2="9.3264561" sodipodi:arg1="1.1220729" sodipodi:arg2="1.7503914" transform="translate(-.0000096112 85.069)" inkscape:randomized="0" d="m 126.77341,160.21338 -9.75793,-7.62986 -11.8172,3.71287 4.24106,-11.63809 -7.18286,-10.0915 12.37904,0.43712 7.37795,-9.94975 3.40961,11.90825 11.74269,3.94221 -10.27179,6.92258 z" sodipodi:cy="143.40707" sodipodi:cx="118.68148" inkscape:rounded="0" inkscape:flatsided="false" points="126.77 160.21 117.02 152.58 105.2 156.3 109.44 144.66 102.26 134.57 114.64 135 122.01 125.05 125.42 136.96 137.17 140.9 126.89 147.83"/>
  <polygon id="polygon677" style="fill-rule:evenodd;stroke-width:1pt;fill:#ffffff" sodipodi:type="star" sodipodi:sides="5" sodipodi:r1="18.652912" sodipodi:r2="9.3264561" sodipodi:arg1="1.1220729" sodipodi:arg2="1.7503914" transform="translate(-.20749 128.23)" inkscape:randomized="0" d="m 126.77341,160.21338 -9.75793,-7.62986 -11.8172,3.71287 4.24106,-11.63809 -7.18286,-10.0915 12.37904,0.43712 7.37795,-9.94975 3.40961,11.90825 11.74269,3.94221 -10.27179,6.92258 z" sodipodi:cy="143.40707" sodipodi:cx="118.68148" inkscape:rounded="0" inkscape:flatsided="false" points="126.77 160.21 117.02 152.58 105.2 156.3 109.44 144.66 102.26 134.57 114.64 135 122.01 125.05 125.42 136.96 137.17 140.9 126.89 147.83"/>
  <metadata id="metadata14">
    <rdf:RDF>
      <cc:Work>
        <dc:format>image/svg+xml</dc:format>
        <dc:type rdf:resource="http://purl.org/dc/dcmitype/StillImage"/>
        <cc:license rdf:resource="http://creativecommons.org/licenses/publicdomain/"/>
        <dc:publisher>
          <cc:Agent rdf:about="http://openclipart.org/">
            <dc:title>Openclipart</dc:title>
          </cc:Agent>
        </dc:publisher>
      </cc:Work>
      <cc:License rdf:about="http://creativecommons.org/licenses/publicdomain/">
        <cc:permits rdf:resource="http://creativecommons.org/ns#Reproduction"/>
        <cc:permits rdf:resource="http://creativecommons.org/ns#Distribution"/>
        <cc:permits rdf:resource="http://creativecommons.org/ns#DerivativeWorks"/>
      </cc:License>
    </rdf:RDF>
  </metadata>
</svg>
