<?xml version="1.0" encoding="UTF-8" standalone="no"?>
<svg id="svg4137" xmlns:rdf="http://www.w3.org/1999/02/22-rdf-syntax-ns#" xmlns="http://www.w3.org/2000/svg" height="2350.9" viewBox="0 0 3352.0467 2350.8748" width="3352" version="1.1" xmlns:cc="http://creativecommons.org/ns#" xmlns:xlink="http://www.w3.org/1999/xlink" xmlns:dc="http://purl.org/dc/elements/1.1/">
<defs id="defs4141">
<filter id="filter4699" style="color-interpolation-filters:sRGB" height="1.0203" width="1.0293" y="-.010171" x="-.014630">
<feGaussianBlur id="feGaussianBlur4701" stdDeviation="13.923148"/>
</filter>
</defs>
<g id="g4804">
<path id="path4689" d="m82.308 3282.2c-0.989-39.5-35.333-76.2-71.441-76.2h-4.84v-41.5-41.5h3.5422c92.315 0 95.886-150.89 3.7559-158.68l-7.2981-0.6169v-32.673-32.673l8.8309-1.1757c88.423-11.773 89.723-143.65 1.5575-157.99l-10.386-1.7v-36.75-36.75h3.5422c92.358 0 95.93-150.88 3.7559-158.68l-7.2981-0.6169v-41.353-41.353h3.5422c32.139 0 63.994-28.277 71.534-63.5 9.82-45.9-27.203-95.5-71.26-95.5h-3.8163v-41.362-41.362l6.75-0.6838c91.162-9.2343 91.652-150.57 0.5481-158.27l-7.2981-0.6169v-41.206-41.206l7.385-0.6243c90.231-7.6273 90.222-150.71-0.011-158.34l-7.3744-0.6234v-36.728-36.728l3.125-0.625c1.7187-0.3437 4.3367-0.625 5.8176-0.625 15.126 0 39.423-14.074 50.863-29.463 36.836-49.549 8.7414-120.77-50.766-128.69l-9.0395-1.2035v-40.703-40.703l2.25-0.603c1.2375-0.3317 3.7962-0.6091 5.6861-0.6166 16.181-0.064 39.8-13.527 51.767-29.507 37.492-50.063 7.6121-122.91-52.954-129.09l-6.75-0.6896v-36.682-36.682l8.8309-1.1757c89.495-11.916 88.546-150.57-1.0809-157.85l-7.75-0.6295v-41.214-41.214l6.3299-0.64852c92.07-9.5 90.76-158.69-1.395-158.69h-4.938v-37.5-37.5h5.34c91.384 0 92.718-150.07 1.41-158.65l-6.75-0.63475v-32.71-32.71l7.25-0.61685c91.283-7.77 88.713-158.68-2.698-158.68h-4.5526v-32.79-32.79l10.298-1.6335c88.403-14.023 86.169-151.44-2.5612-157.54l-7.763-0.54 0.2633-33.1 0.2633-33.11 7.5-0.62505c32.938-2.745 62.331-31.558 67.525-66.194l0.702-4.681h47.271 47.271l0.6629 5.3058c10.95 87.639 135.92 86.352 151.01-1.556l0.644-3.75h40.26 40.26l1.2244 7.25c14.002 82.909 130.79 84.897 149.36 2.5429l2.21-9.793h36.299 36.299v2.34c0 9.6788 8.5936 29.835 17.328 40.644 40.863 50.564 120.38 29.68 133.36-35.025l1.59-7.959h36.163 36.163l1.2244 7.25c14.148 83.778 133.05 84.479 149.82 0.8843l1.6-8.134h36.154 36.154l1.2218 7.1251c14.55 84.85 135.48 84.23 150.28-0.76985l1.1-6.355h36.397 36.397v2.3117c0 14.445 13.656 39.571 27.915 51.362 45.258 37.423 112.93 11.535 123.15-47.106l1.1-6.568h40.172 40.172l1.7914 8.75c13.295 64.937 94.403 84.776 134.14 32.81 8.2025-10.728 16.523-30.729 16.523-39.72 0-1.7487 1.6-1.84 32.3-1.84h32.275l1.7191 8.3518c15.164 73.667 111.24 86.001 143.27 18.392 3.2523-6.8649 7.4638-20.917 7.4638-24.904 0-1.7563 1.9-1.84 40.4-1.84h40.386l0.7019 4.6808c13.122 87.501 137.93 87.501 151.05 0l0.7-4.681 32.136 0.0001022 32.136 0.0001022 0.1774 10.25c0.7219 41.71 34.737 77.65 73.573 77.735l6.75 0.01478v33.031c0 25.576-0.2821 33.109-1.25 33.373-0.6875 0.18811-4.175 0.8824-7.75 1.5429-80.196 14.816-79.773 140.34 0.5257 155.91l8.4677 1.6422v37.205 37.205l-3.75 0.64403c-53.208 9.1381-81.66 65.77-57.75 114.95 11.576 23.808 29.363 36.816 58.75 42.963l2.75 0.57524v32.936 32.936l-3.75 0.59531c-85.611 13.591-87.911 141.56-2.8351 157.7l6.5851 1.2492v37.169 37.169l-6.6022 1.1497c-83.37 14.518-82.649 147.04 0.8522 156.65l5.75 0.6616v41.768 41.768l-6.75 1.1726c-83.357 14.481-82.634 144.77 0.8708 156.79l5.3792 0.7739 0.2618 37.513 0.2618 37.513-6.8291 1.0753c-52.942 8.3364-80.993 76.343-50.392 122.17 13.163 19.714 37.111 35.198 54.439 35.198h2.781l-0.2609 41.694-0.261 41.694-7.5 1.3684c-51.829 9.4559-78.704 73.815-50.328 120.53 11.652 19.182 38.186 36.718 55.558 36.718h2.7701v37.455 37.455l-3.75 0.6161c-88.653 14.565-87.852 141.13 1 157.99l2.75 0.5217v41.436 41.436l-3.75 0.6161c-89.183 14.652-87.988 140.61 1.5 158.07l2.25 0.4391v41.462 41.462l-2.75 0.5217c-40.865 7.7524-67.25 38.754-67.25 79.016 0 40.3 26.347 71.257 67.25 79.016l2.75 0.5217v41.462 41.462l-2.75 0.5217c-88.901 16.865-89.702 143.42-1 157.99l3.75 0.6161v37.205 37.205l-8.4677 1.6422c-80.17 15.548-80.594 141.31-0.5257 155.92 3.575 0.6523 7.0625 1.34 7.75 1.5281 0.9678 0.2648 1.25 7.7883 1.25 33.328v32.986l-3.75 0.6161c-86.557 14.22-88.16 140.47-2 157.48l5.75 1.1355v36.785 36.785l-8.25 0.6847c-36.224 3.0064-62.939 27.718-71.193 65.853l-0.5952 2.75h-32.462-32.462l-0.5952-2.75c-8.6786-40.097-37.999-65.588-75.443-65.588-37.472 0-66.758 25.46-75.443 65.588l-0.5952 2.75h-40.512c-31.573 0-40.583-0.2758-40.832-1.25-0.1758-0.6875-1.0699-4.4-1.9868-8.25-18.498-77.675-130.95-77.294-147.63 0.5-0.6483 3.025-1.3948 6.2875-1.6588 7.25-0.6214 2.2652-65.151 2.7561-65.728 0.5-0.1758-0.6875-1.0699-4.4-1.9868-8.25-19.507-81.91-130.98-76.863-149.07 6.75l-0.5952 2.75h-40.512c-31.547 0-40.594-0.2766-40.88-1.25-0.202-0.6875-1.0832-4.4-1.9582-8.25-16.419-72.239-116.12-79.512-143.92-10.5-2.3703 5.8827-3.1087 8.3769-5.1071 17.25l-0.6193 2.75h-36.512c-28.347 0-36.594-0.2795-36.88-1.25-0.202-0.6875-1.094-4.4-1.9823-8.25-18.36-79.578-132.17-76.705-148.56 3.75l-1.1713 5.75h-36.46c-28.306 0-36.543-0.2796-36.828-1.25-0.202-0.6875-1.0915-4.3747-1.9768-8.1939-18.104-78.1-134.98-76.566-148.1 1.9439-1.3938 8.3435 2.7505 7.5559-38.214 7.2622l-36.578-0.2622-1.8149-7.6926c-19.11-80.998-132.04-79.136-148.85 2.4548l-1.1867 5.7623-36.576-0.2623-36.576-0.2622-1.8149-7.6926c-19.112-81.007-132.04-79.154-148.84 2.4426l-1.1841 5.75h-40.701-40.701l-1.2337-6.5037c-15.555-81.999-132.26-81.41-149.18 0.7537l-1.1841 5.75-47.179-0.01-47.179-0.01-0.2185-8.7446z" transform="matrix(0 1 1 0 27.416 27.416)" filter="url(#filter4699)"/>
<path id="path4687" d="m3303.7 103.72c-39.592-0.9891-76.244-35.333-76.244-71.442v-4.84h-41.5-41.5v3.5422c0 92.315-150.89 95.886-158.68 3.7559l-0.6169-7.2981h-32.673-32.673l-1.1757 8.8309c-11.773 88.423-143.65 89.723-157.99 1.5575l-1.6896-10.385h-36.75-36.75v3.5422c0 92.358-150.88 95.93-158.68 3.7559l-0.6169-7.2981h-41.353-41.353v3.5422c0 32.139-28.277 63.994-63.5 71.534-45.882 9.8209-95.5-27.203-95.5-71.259v-3.8163h-41.362-41.362l-0.6838 6.75c-9.2343 91.163-150.57 91.652-158.27 0.5481l-0.6169-7.2981h-41.206-41.206l-0.6243 7.385c-7.6273 90.231-150.71 90.222-158.34-0.011l-0.6234-7.3744h-36.728-36.728l-0.625 3.125c-0.3437 1.7188-0.625 4.3367-0.625 5.8176 0 15.126-14.074 39.423-29.463 50.863-49.549 36.837-120.77 8.7414-128.69-50.766l-1.2035-9.0395h-40.703-40.703l-0.603 2.25c-0.3317 1.2375-0.6091 3.7963-0.6166 5.6861-0.064 16.181-13.527 39.8-29.507 51.767-50.063 37.492-122.91 7.6121-129.09-52.954l-0.6896-6.75h-36.682-36.682l-1.1757 8.8309c-11.916 89.495-150.57 88.546-157.85-1.0809l-0.6295-7.75h-41.214-41.214l-0.6485 6.3299c-9.4334 92.073-158.63 90.764-158.63-1.3948v-4.938h-37.5-37.5v5.34c0 91.384-150.07 92.718-158.65 1.41l-0.63475-6.75h-32.71-32.71l-0.61685 7.25c-7.7664 91.281-158.68 88.716-158.68-2.6974v-4.5526h-32.79-32.79l-1.6335 10.298c-14.08 88.404-151.5 86.174-157.6-2.557l-0.53355-7.7633-33.106 0.2633-33.106 0.2633-0.62505 7.5c-2.7451 32.939-31.558 62.331-66.194 67.525l-4.6808 0.7019v47.271 47.271l5.3058 0.6629c87.639 10.95 86.352 135.92-1.5558 151.01l-3.75 0.644v40.26 40.26l7.25 1.2244c82.909 14.002 84.897 130.79 2.5429 149.36l-9.7929 2.2085v36.299 36.299h2.34c9.6788 0 29.835 8.5936 40.644 17.328 50.564 40.863 29.68 120.38-35.025 133.36l-7.9591 1.5963v36.163 36.163l7.25 1.2244c83.778 14.148 84.479 133.05 0.8843 149.82l-8.1343 1.6315v36.154 36.154l7.1251 1.2218c84.85 14.55 84.23 135.48-0.76985 150.28l-6.3553 1.1067v36.397 36.397h2.3117c14.445 0 39.571 13.656 51.362 27.915 37.423 45.258 11.535 112.93-47.106 123.15l-6.5676 1.1437v40.172 40.172l8.75 1.7914c64.937 13.295 84.776 94.403 32.81 134.14-10.728 8.2025-30.729 16.523-39.72 16.523-1.7487 0-1.84 1.6019-1.84 32.275v32.275l8.3518 1.7191c73.667 15.164 86.001 111.24 18.392 143.27-6.8649 3.2523-20.917 7.4638-24.904 7.4638-1.7563 0-1.84 1.837-1.84 40.386v40.386l4.6808 0.7019c87.501 13.122 87.501 137.93 0 151.05l-4.6808 0.7019 0.000102 32.136 0.000102 32.136 10.25 0.1774c41.71 0.7219 77.65 34.737 77.735 73.573l0.0148 6.75h33.031c25.576 0 33.109-0.2821 33.373-1.25 0.18811-0.6875 0.8824-4.175 1.5429-7.75 14.816-80.196 140.34-79.773 155.91 0.5257l1.6422 8.4677h37.205 37.205l0.64403-3.75c9.1381-53.208 65.77-81.66 114.95-57.75 23.808 11.576 36.816 29.363 42.963 58.75l0.57524 2.75h32.936 32.936l0.59531-3.75c13.591-85.611 141.56-87.911 157.7-2.8351l1.2492 6.5851h37.169 37.169l1.1497-6.6022c14.518-83.37 147.04-82.649 156.65 0.8522l0.6616 5.75h41.768 41.768l1.1726-6.75c14.481-83.357 144.77-82.634 156.79 0.8708l0.7739 5.3792 37.513 0.2618 37.513 0.2618 1.0753-6.8291c8.3364-52.942 76.343-80.993 122.17-50.392 19.714 13.163 35.198 37.111 35.198 54.439v2.781l41.694-0.2609 41.694-0.261 1.3684-7.5c9.4559-51.829 73.815-78.704 120.53-50.328 19.182 11.652 36.718 38.186 36.718 55.558v2.7701h37.455 37.455l0.6161-3.75c14.565-88.653 141.13-87.852 157.99 1l0.5217 2.75h41.436 41.436l0.6161-3.75c14.652-89.183 140.61-87.988 158.07 1.5l0.4391 2.25h41.462 41.462l0.5217-2.75c7.7524-40.865 38.754-67.25 79.016-67.25 40.3 0 71.257 26.347 79.016 67.25l0.5217 2.75h41.462 41.462l0.5217-2.75c16.865-88.901 143.42-89.702 157.99-1l0.6161 3.75h37.205 37.205l1.6422-8.4677c15.548-80.17 141.31-80.594 155.92-0.5257 0.6523 3.575 1.34 7.0625 1.5281 7.75 0.2648 0.9678 7.7883 1.25 33.328 1.25h32.986l0.6161-3.75c14.22-86.557 140.47-88.16 157.48-2l1.1355 5.75h36.785 36.785l0.6847-8.25c3.0064-36.224 27.718-62.939 65.853-71.193l2.75-0.5952v-32.462-32.462l-2.75-0.5952c-40.097-8.6786-65.588-37.999-65.588-75.443 0-37.472 25.46-66.758 65.588-75.443l2.75-0.5952v-40.512c0-31.573-0.2758-40.583-1.25-40.832-0.6875-0.1758-4.4-1.0699-8.25-1.9868-77.675-18.498-77.294-130.95 0.5-147.63 3.025-0.6483 6.2875-1.3948 7.25-1.6588 2.2652-0.6214 2.7561-65.151 0.5-65.728-0.6875-0.1758-4.4-1.0699-8.25-1.9868-81.91-19.507-76.863-130.98 6.75-149.07l2.75-0.5952v-40.512c0-31.547-0.2766-40.594-1.25-40.88-0.6875-0.202-4.4-1.0832-8.25-1.9582-72.239-16.419-79.512-116.12-10.5-143.92 5.8827-2.3703 8.3769-3.1087 17.25-5.1071l2.75-0.6193v-36.512c0-28.347-0.2795-36.594-1.25-36.88-0.6875-0.202-4.4-1.094-8.25-1.9823-79.578-18.36-76.705-132.17 3.75-148.56l5.75-1.1713v-36.46c0-28.306-0.2796-36.543-1.25-36.828-0.6875-0.202-4.3747-1.0915-8.1939-1.9768-78.1-18.104-76.566-134.98 1.9439-148.1 8.3435-1.3938 7.5559 2.7505 7.2622-38.214l-0.2622-36.578-7.6926-1.8149c-80.998-19.11-79.136-132.04 2.4548-148.85l5.7623-1.1867-0.2623-36.576-0.2622-36.576-7.6926-1.8149c-81.007-19.112-79.154-132.04 2.4426-148.84l5.75-1.1841v-40.701-40.701l-6.5037-1.2337c-81.999-15.555-81.41-132.26 0.7537-149.18l5.75-1.1841-0.01-47.179-0.01-47.179-8.7446-0.2185z" fill="#f2f2f2"/>
<g id="g4149" transform="matrix(3.7311 0 0 3.7195 177.58 -67.56)">
<rect id="rect3" height="533.33" width="800" y="66.667" x="0" fill="#fff"/>
<path id="branch" fill="#4e5b31" d="m434.8 498.25c-0.18-0.086-0.218-0.122-0.347-0.245l-0.125-0.117c-0.324-0.297-0.861-0.822-1.582-1.643-1.332-1.513-3.119-3.728-4.69-5.685-3.115-3.883-5.689-7.228-6.174-7.858l-0.793-1.032-7.767-2.395-5.671-2.644 3.03-3.406 10.408 4.456 7.767 1.594 14.363 10.564-0.011 0.009c-0.029 0.024-2.089 1.738-4.136 3.599-0.913 0.83-2.064 1.896-2.877 2.783-0.375 0.408-0.705 0.813-0.93 1.14-0.138 0.201-0.215 0.383-0.252 0.471l0.892-0.555 0.967 0.752-1.968 0.184-0.09 0.02zm-53.34-16.02c-6.777-0.001-13.471-1.874-19.895-5.567l-0.007-0.004 0.003-0.008s0.84-1.601 2.878-3.096c1.941-1.425 5.442-3.128 11.1-3.15h0.117c6.701 0 14.901 2.278 24.373 6.771-0.32 0.212-7.756 5.054-18.566 5.054l0.01 0.01zm-29.37-6.51c-1.253 0-2.379-0.474-3.17-1.333-0.649-0.706-1.114-1.646-1.422-2.878-0.504-2.018-0.365-4.025-0.351-4.217 0.526-0.221 1.062-0.342 1.562-0.354l0.112-0.002c2.511 0 4.49 2.178 5.338 4.337 0.481 1.227 0.574 2.259 0.274 3.067-0.3 0.81-1.24 1.37-2.34 1.37zm51.68-5.99c-17.359-2.479-24.717-8.755-27.833-13.583-3.323-5.149-2.641-9.912-2.634-9.96l0.003-0.014 0.013-0.004c0.005 0 1.061-0.285 2.658-0.293 4.618 0 16.43 2.323 27.798 23.842l0.007 0.014-0.02-0.01zm-35.58-3.44c-7.416-0.001-13.062-1.28-16.782-3.804-2.138-1.45-3.184-3.043-3.686-4.125-0.47-1.014-0.577-1.856-0.594-2.023 0.196-0.09 3.232-1.438 7.765-1.65 0.383-0.018 0.769-0.029 1.174-0.03 5.732 0 14.448 1.87 23.646 10.78l0.009 0.009-0.011 0.001c-4.2 0.55-8.08 0.84-11.53 0.84zm-35.91-1.38c-7.82 0-18.563-2.388-25.263-9.087l-0.007-0.008 0.02-0.005c0.07-0.018 7.342-1.863 15.523-2.062 0.488-0.012 0.979-0.019 1.475-0.019 7.332 0 12.944 1.422 16.682 4.225 1.305 0.979 2.018 1.89 2.178 2.783 0.134 0.746-0.26 1.55-1.056 2.15-1.683 1.271-4.692 1.949-8.945 2.017l-0.6 0.02zm-25.34-13c-0.963 0-1.867-0.426-2.479-1.167-0.506-0.614-0.858-1.416-1.108-2.522-0.418-1.848-0.292-3.656-0.291-3.674l0.001-0.018c0.364-0.172 0.771-0.264 1.217-0.275h0.003c1.157 0 2.039 0.63 2.589 1.158 0.733 0.705 1.333 1.645 1.688 2.645 0.365 1.03 0.424 1.892 0.18 2.635-0.2 0.59-0.88 1.21-1.8 1.21zm58.53-1.32c-1.253 0-2.379-0.474-3.17-1.333-0.649-0.706-1.114-1.646-1.422-2.878-0.504-2.018-0.365-4.025-0.351-4.217 0.526-0.221 1.062-0.342 1.562-0.354l0.112-0.002c2.511 0 4.49 2.178 5.338 4.337 0.481 1.227 0.574 2.259 0.274 3.067-0.3 0.82-1.25 1.37-2.34 1.37zm-28.51-1.18c-15.737-0.554-23.904-5.027-27.984-8.683-2.297-2.058-3.574-4.098-4.24-5.447-0.628-1.274-0.866-2.249-0.908-2.438l0.021-0.009c0.003 0 1.489-0.532 3.885-0.579l0.368-0.004c5.307 0 16.111 2.229 28.852 17.153v0.01zm17.09-1.59c-12.661-1.928-19.834-7.363-23.622-11.585-3.971-4.425-5.16-8.546-5.213-8.738 0.023-0.007 1.57-0.41 3.9-0.469 0.169-0.005 0.345-0.007 0.524-0.007 0.181 0 0.365 0.002 0.553 0.007 6.368 0.139 17.934 3.023 23.855 20.785h0.01zm-65-6.08c-4.149 0-8.174-0.48-11.962-1.427-6.629-1.658-9.473-4.189-10.691-6.021-0.692-1.04-0.943-1.952-1.031-2.534-0.085-0.556-0.04-0.999-0.031-1.073l0.031-0.011c0.017-0.004 4.4-1.235 10.464-1.328 0.239-0.004 0.48-0.006 0.725-0.006 2.927 0 5.808 0.279 8.564 0.83 10.536 2.107 16 10.06 16.053 10.14l0.005 0.009-0.013 0.003c-0.06 0.01-5.08 1.42-12.12 1.42zm29.39-10.68c-1.269 0-2.395-0.463-3.172-1.304-0.639-0.691-1.104-1.643-1.42-2.908-0.506-2.015-0.365-4.002-0.351-4.185 0.526-0.221 1.062-0.342 1.562-0.354l0.112-0.002c2.506 0 4.488 2.179 5.339 4.338 0.468 1.188 0.55 2.208 0.243 3.034-0.31 0.84-1.22 1.38-2.31 1.38zm-22.1-3.03c-0.095-0.023-5.977-1.536-11.967-5.225-5.544-3.413-12.326-9.45-13.153-18.83v-0.005l0.014-0.004c0.001 0 0.516-0.125 1.278-0.154 0.105-0.004 0.217-0.006 0.334-0.006 1.656 0 5.046 0.466 9.147 3.584 5.22 3.98 10.04 10.92 14.35 20.65zm14.43-0.53c-0.037-0.015-4.229-1.693-9.469-6.084-4.882-4.092-11.746-11.46-16.716-23.33 0.003-0.001 1.142-0.608 2.886-0.718 0.101-0.007 0.203-0.009 0.306-0.009 0.15 0 0.305 0.005 0.463 0.009 2.411 0.068 6.083 1.07 10.154 5.463 4.676 5.047 8.85 13.34 12.404 24.651l0.01 0.032-0.03-0.01zm-37.39-1.09c-4.821 0-6.471-2.615-6.957-3.74-0.798-1.849-0.556-3.689-0.554-3.707l0.003-0.02c0.78-0.195 1.605-0.303 2.398-0.314l0.165-0.001c3.799 0 6.798 1.929 8.084 3.841 0.255 0.379 1.037 1.694 0.39 2.721-0.52 0.81-1.7 1.22-3.53 1.22zm-10.68-13.47c-2.692 0-6.811-0.165-11.141-0.952-4.294-0.781-6.728-4.432-8.013-7.356-1.399-3.185-1.794-6.223-1.798-6.254h0.012c13.282 0.39 19.555 4.271 22.478 7.457 3.018 3.29 3.197 6.706 3.206 6.922l-0.009 0.001c-0.02 0-1.89 0.18-4.74 0.18zm13.83-13.82c-0.018-0.022-1.535-1.898-3.033-4.228-1.573-2.445-3.028-4.996-3.028-7.084 0-2.016-0.474-6.266-0.757-8.619-0.358-2.985-0.72-5.54-0.75-5.757l0.013 0.004c0.337 0.123 8.308 3.114 8.308 10.591 0 7.489-0.738 15.014-0.745 15.089l-0.001 0.011h-0.01zm-10.33-0.71c-0.084 0-0.167-0.008-0.25-0.021-2.356-0.393-6.496-2.194-11.073-4.818-5.082-2.914-9.209-6.036-11.62-8.791-2.198-2.512-3.503-6.457-3.88-11.726-0.267-3.739 0.053-6.854 0.087-7.163 0.412-0.137 0.85-0.204 1.315-0.204 1.764 0.029 3.647 0.823 6.189 2.574 1.981 1.365 4.165 3.221 6.49 5.514 4.012 3.957 7.168 7.932 7.199 7.971l0.032 0.04c0.265 0.475 2.537 4.571 4.307 8.558 1.124 2.532 1.767 4.357 2.024 5.746 0.147 0.791 0.19 1.31-0.004 1.781-0.081 0.195-0.235 0.376-0.385 0.448-0.14 0.06-0.28 0.09-0.44 0.09z"/>
<use id="use7" xlink:href="#branch" transform="matrix(-1 0 0 1 842.18 0)" height="600" width="900" y="0" x="0"/>
<path id="path9" fill="#d57800" d="m698.83 95.476-2.355 0.938-0.923 0.368-2.854-0.157-2.673 1.283-4.74 3.239-0.209 0.15-1.767 0.461-1.641-0.708-0.932 0.424-0.321 1.92-0.887 1.379-1.092 0.767-3.783 0.387-3.19 1.645-4.15-1.111-1.928 0.755-4.099 3.692-2.095 0.992-0.732-0.042-2.778-0.143-1.173 0.384-1.752 1.693-3.315 0.258-1.033 0.715-1.618 3.26-1.753 1.808-1.003 0.212-1.087-0.398-0.817 0.144-0.37 2.086-0.793 0.874-2.219 0.764-1.773 1.477-1.556 0.799-2.084-0.052h-0.479l-2.076 1.146-3.905 0.342-1.624 1.549-0.358 0.331-0.758 0.458-1.24 0.74-0.304 0.184-1.495-0.267-1.75 0.693-0.708-1.089-1.211 0.727-1.604 0.069-1.998-0.889-1.522-0.678-1.113 0.161-0.387 1.94-0.039 0.206-1.17 1.557-2.184 1.323-0.297 0.387-2.485 3.208-4.722 4.966-3.993 2.028-4.139 1.259-2.897 2.38-7.599 3.767-11.994 5.967-2.453 0.786-3.52 0.562-6.278 2.312-5.539 1.671-0.308 0.094-1.096 0.332-7.81 2.363-3.635-0.384-2.153 0.782-5.605-0.622-3.897 0.077-2.467 0.513-4.637 2.224-7.827 3.762-2.586 2.366-4.027 2.101-4.715 1.493 0.011-1.981-0.028-0.084-1.636 0.517-1.181 0.373-3.825 0.59h-2.128l-1.321-0.384-0.204 0.069-7.818 2.576-8.719 0.842-4.363 1.399-3.26-0.052-2.038 0.607-3.995 0.488-1.428-0.381-0.322-0.088-11.75 0.51-5.372-0.607-2.564 0.583-4.296-1.445-6.269-0.727-1.465-0.439-3.295-0.978-1.491 0.859-1.116 0.119-2.667-0.967-0.96-0.025-2.202 0.796-1.267-0.325-1.177-0.938-2.761-0.411-1.682-1.414-9.402 1.246-2.551-0.75-8.554-2.492-1.361 0.069-1.696 1.271-2.548 0.929-2.212 0.575-3.012 0.105-3.497-0.918-3.606-1.748-1.333-0.317-2.974 0.3-0.91 0.083-5.466-2.932-7.042-4.404-4.778-2.296-1.794-0.291-0.241 0.853 0.89 2.805 0.303 2.774-0.091 2.563-0.049 1.587 0.446 1.425 1.725 1.912 0.719 1.92 0.526 5.284-0.006 5.362-0.839 8.551-0.283 1.302-1.001 4.43-0.914 4.069-3.546 10.833-0.974 1.343-2.391 1.631-5.419 3.688-3.99 2.301-1.263 0.523-3.239 0.245-2.018-0.105-2.513-1.361-2.467-0.635-3.232-2.324-3.595-0.744-3.941-2.278-1.026-1.233-2.146-0.202-2.976-0.893 0.002-0.005-1.093-0.327-0.755-0.22v-0.001l-3.796-0.104-3.54-1.634-1.864-0.45-2.547-0.129-2.666 1.239-0.001-0.004-1.351 0.629-1.707-0.678-1.235 0.077-1.399 2.115-0.209 0.328-0.964 0.51-1.2-0.017-0.939-0.025-1.016 0.444-1.368 0.593v0.003l-1.208 0.527-0.59 0.255-0.01-0.01-0.363 0.073-0.645 0.112-0.8 0.153-1.41-0.824-0.75-0.442-1.257-0.256-0.677 0.489-0.133 2.301-0.618 1.378-1.961 1.734-1.993 1.755-1.389 2.047-3.676 8.39-2.303 3.385-0.715 0.789-2.408 2.656-2.136 1.657-4.922 3.815-4.659 1.741-4.013 0.82-1.951 0.008-3.696-0.492-3.323-1.02-3.65-2.282-4.003-3.217-5.794-5.724-0.82-0.493-0.171-0.114-1.825-1.167-1.354 0.035-0.53 0.874-0.29 1.263-0.245 1.12-0.664 6.367 0.049 0.369 0.349 2.622 4.401 6.15 1.358 3.267 0.223 0.373 0.908 1.525 0.691 1.163 0.069 0.118 1.504 4.488-1.057 2.534 0.534 1.697-1.336 1.037-0.245 1.465 3.951 4.953 0.862 2.185-0.963 3.029-1.536 1.671-0.429 0.457 0.216 1.28 1.818 1.635 3.089 2.75 1.647 4.086 1.253 1.096 1.456-0.31 0.81 0.618 1.228-0.021 1.208 1.208 0.782 0.379 1.236 0.616 0.977 1.272 0.216 3.911 1.822 4.86 0.028 2.635 0.01 0.374 1.134 1.948 0.356 1.538-0.604 4.069 1.445 1.306 1.567-0.32 1.012 0.16 1.626 1.354 1.969 3.001 1.926-0.282 1.222 0.589 5.902 5.334 1.339 0.676 0.074 0.042 0.963 0.483 1.197 1.208 1.856-1.232 0.206-0.021 2.018-0.178 0.886 0.597 1.704 1.149 2.234-0.029 4.844 1.485 2.119 0.543 4.261 2.648 1.811 1.12 1.072 0.871 1.424 1.161 2.845 1.224 2.44 0.584 1.322 0.314 0.995 0.384 0.025-0.062 0.014 0.004-0.024 0.063 5.284 2.023 2.862 0.668 2.648 0.975 1.927 0.703 1.414 0.023 2-1.682 1.937-0.112 1.609 0.401 1.57-0.263 2.485-1.531 0.485-0.719 1.762-0.839 5.944-0.738 1.737 0.564 4.46-1.94 2.988 0.831 2.645-0.938 5.779 1.284 1.536 1.081 1.717 1.965 0.21 0.009 1.912 0.037-0.799 1.331 2.523 2.647 2.279 3.445 0.154 0.455 1.657 4.864 1.232 1.723 0.862 2.405 0.042 1.568-1.34 1.022-0.22 0.583-0.076 0.216 0.272 0.655 0.506-0.276 0.963-0.533 1.166-0.181 2.066 0.22 1.364 0.143 2.154-1.069 1.427-0.71 2.293 0.987 2.52-0.028 1.058 0.471 2.995 1.358 1.529 0.144 0.565-0.371 0.36-0.856-0.185-0.996-1.145-1.323-2.531-2.938-1.036-1.51-0.789-2.186-0.245-2.794-0.174-1.885 0.314-2.477 0.68-0.884 0.5-1.968h0.009l0.129-0.515 1.406-1.866 3.724-2.393 4-3.582 3.162-2.085 3.26-1.412 0.087-0.396 0.363 0.146 8.292-2.819 0.137-0.016 3.692-0.643 24.92 1.755 0.924-0.279 0.004-0.006 0.83-2.33 0.447-0.432 0.297-0.282 2.74-1.206 1.281-0.183 3.556 0.878 1.456 0.359 2.332-1.307 1.654 0.028 3.417-1.866 2.111 0.053 0.803-0.321 4.112-2.955 3.961-1.135 1.03-0.548 0.363-0.199 4.06-2.144 2.579-1.981 2.226-1.183 2.438-0.629 6.38-0.449 1.283-2.138 2.744-0.366 1.657-1.87 1.896-0.771 1.359-1.958 1.139-1.641 1.591-0.921 5.1-0.32 6.045 0.749 0.799-0.485 1.366-4.875 1.43-0.915 3.851-5.612 0.013-2.045 0.004-1.708 0.633-2.432-0.43-4.391 0.51-4.446 2.394-5.65 2.109-2.279 3.401-2.301 1.729-0.753 2.449-0.412v-0.006l0.36-0.061 0.624-0.107 8.433-0.116c0.117-0.087 3.067-0.042 3.067-0.042l2.812-0.038 7.114 1.266 0.506 0.088 2.405 0.779 2.774 2.157 2.936 2.868 0.551 0.535 1.902 0.801 0.575 0.251 1.571-0.251 2.237-1.165 1.688-1.427 2.301-1.257 0.056-0.08 1.295-1.948 0.039-0.04 0.028 0.007 0.003-0.011-0.022-0.005 0.511-0.775 4.447-1.733 5.23-0.304 0.588-0.318 0.327-0.175 1.382-1.623 1.295-0.011 3.135 1.134 2.204-0.437 1.75 0.699 1.36-0.161 2.565-0.304 2.754 1.938 1.605 0.205 5.658 3.31 0.294 0.048 0.152 0.028 0.324 0.053 0.671-0.199 0.998-0.289 0.132-0.039 0.126 0.174 0.643 0.907 0.882 0.126 1.044-1.393-0.415-0.632-0.157-0.23-2.021-0.411-1.815-3.103 1.728-1.861-2.711-3.326-0.45-0.551-0.153-0.234-0.937-1.423-4.746-7.235-6.182-4.935-0.002 0.004-2.165-1.732-0.014-0.01-0.758-0.596-3.302-3.358-2.358-3.13-0.309-0.674-0.487-1.062-1.413-3.078-2.462-1.896-2.006-2.191-0.098-0.129-4.14-5.626-0.68-0.943-0.978-0.565-2.066-0.014-0.195-0.196-0.116-0.121 0.07-0.074 0.991-0.985 1.105-0.278 0.476-1.089-2.108-6.104-0.014-0.213-0.157-1.95 1.718-8.855 0.22-1.079 2.928-5.958 1.814-1.486 1.98-3.892 1.696-2.488 1.625-1.582 0.284-0.168 2.934-1.776 2.465-0.347 2.348-0.331 4.099 1.264 3.901-0.076 0.761-0.081 1.77-0.203 2.911-0.917 1.374-0.848 0.713-1.093 1.487-4.987 0.478-1.587 0.917-1.724 5.306-6.108 4.011-3.71 9.019-6.613 4.415-2.639 2.254-1.347 20.126-8.946 5.23-5.302 2.725-2.757 4.821-3.235 5.641-2.311 4.854-3.842 1.06-1.334 1.336-4.303 1.113-0.269 1.005-2.174 0.286-0.618 3.961-2.792 0.448-0.223 15.388-7.71 2.236 0.307 1.197-1.793 4.477-0.751 0.824-0.14 1.104-0.551 0.939-1.599v-0.316l0.129-4.273 0.956-1.155 0.521-2.816 0.491-0.65 0.513-0.676 1.268-0.891-0.22-0.531z"/>
</g>
</g>
</svg>
