<svg xmlns="http://www.w3.org/2000/svg" xmlns:xlink="http://www.w3.org/1999/xlink" viewBox="0 0 134.167 84.083" fill="#fff" fill-rule="evenodd" stroke="#000" stroke-linecap="round" stroke-linejoin="round"><style><![CDATA[.B{fill:#1e50a0}]]></style><use xlink:href="#A" x="2.083" y="1.042"/><symbol id="A" overflow="visible"><g stroke="none" fill-rule="nonzero"><path d="M0 2.087h129.167v79.167H0z"/><use xlink:href="#C"/><path d="M129.167 62.503a88.72 88.72 0 0 1-12.917 2.083c-3.271-.104-9.646-2.187-12.917-2.083s-9.646 2.188-12.917 2.083-9.646-2.187-12.917-2.083-9.646 2.188-12.917 2.083-9.646-2.187-12.917-2.083-9.646 2.183-12.917 2.083-9.646-2.167-12.917-2.083-9.646 2.083-12.917 2.083A105.91 105.91 0 0 1 0 62.503v-4.167a105.91 105.91 0 0 0 12.917 2.083c3.271 0 9.646-2 12.917-2.083s9.646 1.983 12.917 2.083 9.646-1.979 12.917-2.083 9.646 1.979 12.917 2.083 9.646-1.979 12.917-2.083 9.646 1.979 12.917 2.083 9.646-1.979 12.917-2.083 9.646 1.979 12.917 2.083a88.72 88.72 0 0 0 12.917-2.083z" class="B"/><path d="M129.167 66.67a88.72 88.72 0 0 1-12.917 2.083c-3.271-.104-9.646-2.187-12.917-2.083s-9.646 2.188-12.917 2.083-9.646-2.187-12.917-2.083-9.646 2.188-12.917 2.083-9.646-2.187-12.917-2.083-9.646 2.183-12.917 2.083-9.646-2.167-12.917-2.083-9.646 2.083-12.917 2.083A105.91 105.91 0 0 1 0 66.67v-4.167a105.91 105.91 0 0 0 12.917 2.083c3.271 0 9.646-2 12.917-2.083s9.646 1.983 12.917 2.083 9.646-1.979 12.917-2.083 9.646 1.979 12.917 2.083 9.646-1.979 12.917-2.083 9.646 1.979 12.917 2.083 9.646-1.979 12.917-2.083 9.646 1.979 12.917 2.083a88.72 88.72 0 0 0 12.917-2.083z"/><path d="M129.167 70.837a88.72 88.72 0 0 1-12.917 2.083c-3.271-.104-9.646-2.187-12.917-2.083s-9.646 2.188-12.917 2.083-9.646-2.187-12.917-2.083-9.646 2.188-12.917 2.083-9.646-2.187-12.917-2.083-9.646 2.183-12.917 2.083-9.646-2.167-12.917-2.083-9.646 2.083-12.917 2.083A105.91 105.91 0 0 1 0 70.837v-4.167a105.91 105.91 0 0 0 12.917 2.083c3.271 0 9.646-2 12.917-2.083s9.646 1.983 12.917 2.083 9.646-1.979 12.917-2.083 9.646 1.979 12.917 2.083 9.646-1.979 12.917-2.083 9.646 1.979 12.917 2.083 9.646-1.979 12.917-2.083 9.646 1.979 12.917 2.083a88.72 88.72 0 0 0 12.917-2.083zm0 10.417l-12.917-2.083c-3.271-.104-9.646 1.979-12.917 2.083s-9.646-1.979-12.917-2.083-9.646 1.979-12.917 2.083-9.646-1.979-12.917-2.083-9.646 1.979-12.917 2.083-9.646-1.983-12.917-2.083-9.646 2-12.917 2.083-9.646-2.083-12.917-2.083A105.91 105.91 0 0 0 0 81.254v-8.333a105.91 105.91 0 0 0 12.917 2.083c3.271 0 9.646-2 12.917-2.083s9.646 1.983 12.917 2.083 9.646-1.979 12.917-2.083 9.646 1.979 12.917 2.083 9.646-1.979 12.917-2.083 9.646 1.979 12.917 2.083 9.646-1.979 12.917-2.083 9.646 1.979 12.917 2.083a88.72 88.72 0 0 0 12.917-2.083z" class="B"/><path d="M129.167 75.003a88.72 88.72 0 0 1-12.917 2.083c-3.271-.104-9.646-2.187-12.917-2.083s-9.646 2.188-12.917 2.083-9.646-2.187-12.917-2.083-9.646 2.188-12.917 2.083-9.646-2.187-12.917-2.083-9.646 2.183-12.917 2.083-9.646-2.167-12.917-2.083-9.646 2.083-12.917 2.083A105.91 105.91 0 0 1 0 75.003v-4.167a105.91 105.91 0 0 0 12.917 2.083c3.271 0 9.646-2 12.917-2.083s9.646 1.983 12.917 2.083 9.646-1.979 12.917-2.083 9.646 1.979 12.917 2.083 9.646-1.979 12.917-2.083 9.646 1.979 12.917 2.083 9.646-1.979 12.917-2.083 9.646 1.979 12.917 2.083a88.72 88.72 0 0 0 12.917-2.083z"/><path d="M129.167 45.837a88.72 88.72 0 0 1-12.917 2.083c-3.271-.104-9.646-2.187-12.917-2.083s-9.646 2.188-12.917 2.083-9.646-2.187-12.917-2.083-9.646 2.188-12.917 2.083-9.646-2.187-12.917-2.083-9.646 2.183-12.917 2.083-9.646-2.167-12.917-2.083-9.646 2.083-12.917 2.083A105.91 105.91 0 0 1 0 45.837v-4.167a105.91 105.91 0 0 0 12.917 2.083c3.271 0 9.646-2 12.917-2.083s9.646 1.983 12.917 2.083 9.646-1.979 12.917-2.083 9.646 1.979 12.917 2.083 9.646-1.979 12.917-2.083 9.646 1.979 12.917 2.083 9.646-1.979 12.917-2.083 9.646 1.979 12.917 2.083a88.72 88.72 0 0 0 12.917-2.083z" class="B"/><path d="M129.167 50.003a88.72 88.72 0 0 1-12.917 2.083c-3.271-.104-9.646-2.187-12.917-2.083s-9.646 2.188-12.917 2.083-9.646-2.187-12.917-2.083-9.646 2.188-12.917 2.083-9.646-2.187-12.917-2.083-9.646 2.183-12.917 2.083-9.646-2.167-12.917-2.083-9.646 2.083-12.917 2.083A105.91 105.91 0 0 1 0 50.003v-4.167a105.91 105.91 0 0 0 12.917 2.083c3.271 0 9.646-2 12.917-2.083s9.646 1.983 12.917 2.083 9.646-1.979 12.917-2.083 9.646 1.979 12.917 2.083 9.646-1.979 12.917-2.083 9.646 1.979 12.917 2.083 9.646-1.979 12.917-2.083 9.646 1.979 12.917 2.083a88.72 88.72 0 0 0 12.917-2.083z"/><path d="M129.167 54.17a88.72 88.72 0 0 1-12.917 2.083c-3.271-.104-9.646-2.187-12.917-2.083s-9.646 2.188-12.917 2.083-9.646-2.187-12.917-2.083-9.646 2.188-12.917 2.083-9.646-2.187-12.917-2.083-9.646 2.183-12.917 2.083-9.646-2.167-12.917-2.083-9.646 2.083-12.917 2.083A105.91 105.91 0 0 1 0 54.17v-4.167a105.91 105.91 0 0 0 12.917 2.083c3.271 0 9.646-2 12.917-2.083s9.646 1.983 12.917 2.083 9.646-1.979 12.917-2.083 9.646 1.979 12.917 2.083 9.646-1.979 12.917-2.083 9.646 1.979 12.917 2.083 9.646-1.979 12.917-2.083 9.646 1.979 12.917 2.083a88.72 88.72 0 0 0 12.917-2.083z" class="B"/><use xlink:href="#C"/><path d="M129.167 29.17a88.72 88.72 0 0 1-12.917 2.083c-3.271-.104-9.646-2.187-12.917-2.083s-9.646 2.188-12.917 2.083-9.646-2.187-12.917-2.083-9.646 2.188-12.917 2.083-9.646-2.187-12.917-2.083-9.646 2.183-12.917 2.083-9.646-2.167-12.917-2.083-9.646 2.083-12.917 2.083A105.91 105.91 0 0 1 0 29.17v-4.167a105.91 105.91 0 0 0 12.917 2.083c3.271 0 9.646-2 12.917-2.083s9.646 1.983 12.917 2.083 9.646-1.979 12.917-2.083 9.646 1.979 12.917 2.083 9.646-1.979 12.917-2.083 9.646 1.979 12.917 2.083 9.646-1.979 12.917-2.083 9.646 1.979 12.917 2.083a88.72 88.72 0 0 0 12.917-2.083z" class="B"/><path d="M129.167 33.337a88.72 88.72 0 0 1-12.917 2.083c-3.271-.104-9.646-2.187-12.917-2.083s-9.646 2.188-12.917 2.083-9.646-2.187-12.917-2.083-9.646 2.188-12.917 2.083-9.646-2.187-12.917-2.083-9.646 2.183-12.917 2.083-9.646-2.167-12.917-2.083-9.646 2.083-12.917 2.083A105.91 105.91 0 0 1 0 33.337v-4.167a105.91 105.91 0 0 0 12.917 2.083c3.271 0 9.646-2 12.917-2.083s9.646 1.983 12.917 2.083 9.646-1.979 12.917-2.083 9.646 1.979 12.917 2.083 9.646-1.979 12.917-2.083 9.646 1.979 12.917 2.083 9.646-1.979 12.917-2.083 9.646 1.979 12.917 2.083a88.72 88.72 0 0 0 12.917-2.083z"/><path d="M129.167 37.503a88.72 88.72 0 0 1-12.917 2.083c-3.271-.104-9.646-2.187-12.917-2.083s-9.646 2.188-12.917 2.083-9.646-2.187-12.917-2.083-9.646 2.188-12.917 2.083-9.646-2.187-12.917-2.083-9.646 2.183-12.917 2.083-9.646-2.167-12.917-2.083-9.646 2.083-12.917 2.083A105.91 105.91 0 0 1 0 37.503v-4.167a105.91 105.91 0 0 0 12.917 2.083c3.271 0 9.646-2 12.917-2.083s9.646 1.983 12.917 2.083 9.646-1.979 12.917-2.083 9.646 1.979 12.917 2.083 9.646-1.979 12.917-2.083 9.646 1.979 12.917 2.083 9.646-1.979 12.917-2.083 9.646 1.979 12.917 2.083a88.72 88.72 0 0 0 12.917-2.083z" class="B"/><path d="M129.167 41.67a88.72 88.72 0 0 1-12.917 2.083c-3.271-.104-9.646-2.187-12.917-2.083s-9.646 2.188-12.917 2.083-9.646-2.187-12.917-2.083-9.646 2.188-12.917 2.083-9.646-2.187-12.917-2.083-9.646 2.183-12.917 2.083-9.646-2.167-12.917-2.083-9.646 2.083-12.917 2.083A105.91 105.91 0 0 1 0 41.67v-4.167a105.91 105.91 0 0 0 12.917 2.083c3.271 0 9.646-2 12.917-2.083s9.646 1.983 12.917 2.083 9.646-1.979 12.917-2.083 9.646 1.979 12.917 2.083 9.646-1.979 12.917-2.083 9.646 1.979 12.917 2.083 9.646-1.979 12.917-2.083 9.646 1.979 12.917 2.083a88.72 88.72 0 0 0 12.917-2.083z"/><path d="M129.167 12.503a88.72 88.72 0 0 1-12.917 2.083c-3.271-.104-9.646-2.187-12.917-2.083s-9.646 2.188-12.917 2.083-9.646-2.187-12.917-2.083-9.646 2.188-12.917 2.083-9.646-2.187-12.917-2.083-9.646 2.183-12.917 2.083-9.646-2.167-12.917-2.083-9.646 2.083-12.917 2.083A105.91 105.91 0 0 1 0 12.503V8.337a105.91 105.91 0 0 0 12.917 2.083c3.271 0 9.646-2 12.917-2.083s9.646 1.983 12.917 2.083 9.646-1.979 12.917-2.083 9.646 1.979 12.917 2.083S74.229 8.441 77.5 8.337s9.646 1.979 12.917 2.083 9.646-1.979 12.917-2.083 9.646 1.979 12.917 2.083a88.72 88.72 0 0 0 12.917-2.083z" class="B"/><path d="M129.167 16.67a88.72 88.72 0 0 1-12.917 2.083c-3.271-.104-9.646-2.187-12.917-2.083s-9.646 2.188-12.917 2.083-9.646-2.187-12.917-2.083-9.646 2.188-12.917 2.083-9.646-2.187-12.917-2.083-9.646 2.183-12.917 2.083-9.646-2.167-12.917-2.083-9.646 2.083-12.917 2.083A105.91 105.91 0 0 1 0 16.67v-4.167a105.91 105.91 0 0 0 12.917 2.083c3.271 0 9.646-2 12.917-2.083s9.646 1.983 12.917 2.083 9.646-1.979 12.917-2.083 9.646 1.979 12.917 2.083 9.646-1.979 12.917-2.083 9.646 1.979 12.917 2.083 9.646-1.979 12.917-2.083 9.646 1.979 12.917 2.083a88.72 88.72 0 0 0 12.917-2.083z"/><path d="M129.167 4.17a88.72 88.72 0 0 1-12.917 2.083c-3.271-.104-9.646-2.187-12.917-2.083s-9.646 2.188-12.917 2.083S80.771 4.066 77.5 4.17s-9.646 2.188-12.917 2.083-9.646-2.187-12.917-2.083-9.646 2.183-12.917 2.083-9.646-2.167-12.917-2.083-9.646 2.083-12.917 2.083A105.91 105.91 0 0 1 0 4.17V.004a105.91 105.91 0 0 0 12.917 2.083c3.271 0 9.646-2 12.917-2.083s9.646 1.983 12.917 2.083S48.396.108 51.667.004s9.646 1.979 12.917 2.083S74.229.108 77.5.004s9.646 1.979 12.917 2.083S100.063.108 103.333.004s9.646 1.979 12.917 2.083A88.72 88.72 0 0 0 129.167.004z" class="B"/><path d="M129.167 8.337a88.72 88.72 0 0 1-12.917 2.083c-3.271-.104-9.646-2.187-12.917-2.083s-9.646 2.188-12.917 2.083S80.771 8.233 77.5 8.337s-9.646 2.188-12.917 2.083-9.646-2.187-12.917-2.083-9.646 2.183-12.917 2.083-9.646-2.167-12.917-2.083-9.646 2.083-12.917 2.083A105.91 105.91 0 0 1 0 8.337V4.171a105.91 105.91 0 0 0 12.917 2.083c3.271 0 9.646-2 12.917-2.083s9.646 1.983 12.917 2.083 9.646-1.979 12.917-2.083 9.646 1.979 12.917 2.083S74.229 4.275 77.5 4.171s9.646 1.979 12.917 2.083 9.646-1.979 12.917-2.083 9.646 1.979 12.917 2.083a88.72 88.72 0 0 0 12.917-2.083z"/><path d="M129.167 20.837a88.72 88.72 0 0 1-12.917 2.083c-3.271-.104-9.646-2.187-12.917-2.083s-9.646 2.188-12.917 2.083-9.646-2.187-12.917-2.083-9.646 2.188-12.917 2.083-9.646-2.187-12.917-2.083-9.646 2.183-12.917 2.083-9.646-2.167-12.917-2.083-9.646 2.083-12.917 2.083A105.91 105.91 0 0 1 0 20.837v-4.167a105.91 105.91 0 0 0 12.917 2.083c3.271 0 9.646-2 12.917-2.083s9.646 1.983 12.917 2.083 9.646-1.979 12.917-2.083 9.646 1.979 12.917 2.083 9.646-1.979 12.917-2.083 9.646 1.979 12.917 2.083 9.646-1.979 12.917-2.083 9.646 1.979 12.917 2.083a88.72 88.72 0 0 0 12.917-2.083z" class="B"/><path d="M129.167 25.003a88.72 88.72 0 0 1-12.917 2.083c-3.271-.104-9.646-2.187-12.917-2.083s-9.646 2.188-12.917 2.083-9.646-2.187-12.917-2.083-9.646 2.188-12.917 2.083-9.646-2.187-12.917-2.083-9.646 2.183-12.917 2.083-9.646-2.167-12.917-2.083-9.646 2.083-12.917 2.083A105.91 105.91 0 0 1 0 25.003v-4.167a105.91 105.91 0 0 0 12.917 2.083c3.271 0 9.646-2 12.917-2.083s9.646 1.983 12.917 2.083 9.646-1.979 12.917-2.083 9.646 1.979 12.917 2.083 9.646-1.979 12.917-2.083 9.646 1.979 12.917 2.083 9.646-1.979 12.917-2.083 9.646 1.979 12.917 2.083a88.72 88.72 0 0 0 12.917-2.083z"/><path d="M0 2.087h64.583V41.67H0z" class="B"/><path d="M10.181 4.17H2.083v4.858L56.485 41.67h8.098v-4.858L10.181 4.17z"/><path d="M64.583 9.028V4.17h-8.098L2.083 36.812v4.858h8.098L64.583 9.028z"/><path d="M2.083 16.67h62.5v12.5h-62.5z"/><path d="M27.083 4.17h12.5v37.5h-12.5z"/><g fill="#d22f27"><path d="M31.25 4.17h4.167v37.5H31.25z"/><path d="M2.083 20.837h62.5v4.167h-62.5zm62.5 15.975L51.848 29.17H43.75l20.833 12.5v-4.854zm0-32.642h-8.098L39.583 14.312v2.358h4.167l20.833-12.5zm-62.5 4.858l12.735 7.642h8.098L2.083 4.17v4.854zm0 32.642h8.098l16.902-10.142V29.17h-4.167L2.083 41.67z"/></g></g><path d="M0 2.087h129.167v79.167H0z" fill="none" stroke-width="4.167"/></symbol><defs><path id="C" d="M129.167 58.337a88.72 88.72 0 0 1-12.917 2.083c-3.271-.104-9.646-2.187-12.917-2.083s-9.646 2.188-12.917 2.083-9.646-2.187-12.917-2.083-9.646 2.188-12.917 2.083-9.646-2.187-12.917-2.083-9.646 2.183-12.917 2.083-9.646-2.167-12.917-2.083-9.646 2.083-12.917 2.083A105.91 105.91 0 0 1 0 58.337v-4.167a105.91 105.91 0 0 0 12.917 2.083c3.271 0 9.646-2 12.917-2.083s9.646 1.983 12.917 2.083 9.646-1.979 12.917-2.083 9.646 1.979 12.917 2.083 9.646-1.979 12.917-2.083 9.646 1.979 12.917 2.083 9.646-1.979 12.917-2.083 9.646 1.979 12.917 2.083a88.72 88.72 0 0 0 12.917-2.083z"/></defs></svg>