<?xml version="1.0" encoding="UTF-8" standalone="no"?>
<!-- Created with Inkscape (http://www.inkscape.org/) -->
<svg xmlns:rdf="http://www.w3.org/1999/02/22-rdf-syntax-ns#" xmlns="http://www.w3.org/2000/svg" xmlns:cc="http://web.resource.org/cc/" xmlns:xlink="http://www.w3.org/1999/xlink" xmlns:dc="http://purl.org/dc/elements/1.1/" xmlns:svg="http://www.w3.org/2000/svg" xmlns:inkscape="http://www.inkscape.org/namespaces/inkscape" xmlns:sodipodi="http://sodipodi.sourceforge.net/DTD/sodipodi-0.dtd" xmlns:ns1="http://sozi.baierouge.fr" id="svg602" space="preserve" viewBox="0 0 793.7 496.06" version="1.0" y="0" x="0" inkscape:version="0.91 r13725">
  <g id="g1744">
    <rect id="rect1456" style="fill-rule:evenodd;fill:#ffffff" height="496.06" width="793.7" y="-.000015259" x="0"/>
    <rect id="rect1452" style="fill-rule:evenodd;fill:#013993" height="194.88" width="340.16" y="-.000037738" x="0"/>
    <rect id="rect1453" style="fill-rule:evenodd;fill:#dd2110" height="194.88" width="340.16" y="301.18" x="0"/>
    <rect id="rect1454" style="fill-rule:evenodd;fill:#00309b" height="194.88" width="340.16" y="301.18" x="453.54"/>
    <rect id="rect1455" style="fill-rule:evenodd;fill:#dd2110" height="194.88" width="340.16" y="-.000060218" x="453.54"/>
    <g id="g1457" transform="matrix(.56817 0 0 .55377 322.81 177.16)">
      <g id="g1098">
        <g id="g1009" transform="matrix(-1 0 0 1 258.12 .29904)">
          <path id="path1010" style="stroke:#000000;stroke-width:1pt;fill:none" d="m41.574 80.917c0.299-6.58 4.187-8.674 4.187-8.674"/>
          <path id="path1011" style="stroke:#000000;stroke-width:1pt;fill:none" d="m43.518 81.365c0.299-6.58 4.187-8.673 4.187-8.673"/>
          <path id="path1012" style="stroke:#000000;stroke-width:1pt;fill:none" d="m45.611 81.515c0.299-6.58 4.188-8.674 4.188-8.674"/>
          <path id="path1013" style="stroke:#000000;stroke-width:1pt;fill:none" d="m47.555 82.263c0.299-6.58 4.188-8.674 4.188-8.674"/>
          <path id="path1014" style="stroke:#000000;stroke-width:1pt;fill:none" d="m49.649 83.16c0.299-6.58 4.187-8.674 4.187-8.674"/>
          <path id="path1015" style="stroke:#000000;stroke-width:1pt;fill:none" d="m51.593 84.207c0.299-6.58 4.187-8.674 4.187-8.674"/>
          <path id="path1016" style="fill-rule:evenodd;fill-opacity:.99610;stroke:#000000;stroke-width:1pt;fill:#003892" d="m44.413 72.535c7.19-19.88 10.151-22.629 11.42-24.11 1.269-1.48 14.17-5.71 14.17-5.71l3.595 8.248s-10.997 5.499-13.324 10.575c-2.326 5.075-4.018 14.381-4.018 14.381s-4.864-2.115-6.556-2.75c-1.692-0.634-5.287-0.211-5.287-0.634z"/>
          <path id="path1017" style="stroke-linejoin:round;fill-rule:evenodd;fill-opacity:.99610;stroke:#000000;stroke-width:1.25;fill:#003892" d="m50.123 58.365c11.42-4.864 15.016-2.326 19.034-3.384 4.018-1.057 12.689-3.383 13.535-5.498s-7.402-12.478-7.402-12.478l-5.763 6.186c-3.739 4.013-12.728 0.405-15.915 7.455l-3.489 7.719z"/>
          <path id="path1018" style="stroke:#000000;stroke-width:1pt;fill:none" d="m62.389 53.924c1.692 2.326 13.221-4.82 16.073-5.499 3.216-0.977 4.442 0.846 4.442 0.846"/>
          <path id="path1019" style="fill-rule:evenodd;fill-opacity:.99610;stroke:#000000;stroke-width:1pt;fill:#003892" d="m113.78 30.026c-0.84 0-17.084-1.685-31.299 1.057-14.62 2.603-23.151 8.039-23.264 11.421-0.212 6.556 2.961 11.843 3.384 11.632 0.423-0.212 0-2.961 3.595-4.019 3.595-1.057 20.303-6.556 24.744-6.767 4.441-0.212 17.34 0.423 19.25 0.211 1.9-0.211 6.76-1.269 6.76-3.595 0-2.327-2.96-9.517-3.17-9.94z"/>
          <path id="path1020" style="stroke:#000000;stroke-width:1pt;fill:none" d="m104.37 39.014c0.21 0.74-0.21 2.326 2.43 2.009 2.75-0.211 4.11-2.183 6.66-1.903 2.42 0.276 2.75 1.903 2.75 1.903"/>
        </g>
        <g id="g997">
          <path id="path996" style="stroke:#000000;stroke-width:1pt;fill:none" d="m41.574 80.917c0.299-6.58 4.187-8.674 4.187-8.674"/>
          <path id="path992" style="stroke:#000000;stroke-width:1pt;fill:none" d="m43.518 81.365c0.299-6.58 4.187-8.673 4.187-8.673"/>
          <path id="path994" style="stroke:#000000;stroke-width:1pt;fill:none" d="m45.611 81.515c0.299-6.58 4.188-8.674 4.188-8.674"/>
          <path id="path993" style="stroke:#000000;stroke-width:1pt;fill:none" d="m47.555 82.263c0.299-6.58 4.188-8.674 4.188-8.674"/>
          <path id="path995" style="stroke:#000000;stroke-width:1pt;fill:none" d="m49.649 83.16c0.299-6.58 4.187-8.674 4.187-8.674"/>
          <path id="path987" style="stroke:#000000;stroke-width:1pt;fill:none" d="m51.593 84.207c0.299-6.58 4.187-8.674 4.187-8.674"/>
          <path id="path980" style="fill-rule:evenodd;fill-opacity:.99610;stroke:#000000;stroke-width:1pt;fill:#003892" d="m44.413 72.535c7.19-19.88 10.151-22.629 11.42-24.11 1.269-1.48 14.17-5.71 14.17-5.71l3.595 8.248s-10.997 5.499-13.324 10.575c-2.326 5.075-4.018 14.381-4.018 14.381s-4.864-2.115-6.556-2.75c-1.692-0.634-5.287-0.211-5.287-0.634z"/>
          <path id="path981" style="stroke-linejoin:round;fill-rule:evenodd;fill-opacity:.99610;stroke:#000000;stroke-width:1.25;fill:#003892" d="m50.123 58.365c11.42-4.864 15.016-2.326 19.034-3.384 4.018-1.057 12.689-3.383 13.535-5.498s-7.402-12.478-7.402-12.478l-5.763 6.186c-3.739 4.013-12.728 0.405-15.915 7.455l-3.489 7.719z"/>
          <path id="path984" style="stroke:#000000;stroke-width:1pt;fill:none" d="m62.389 53.924c1.692 2.326 13.221-4.82 16.073-5.499 3.216-0.977 4.442 0.846 4.442 0.846"/>
          <path id="path982" style="fill-rule:evenodd;fill-opacity:.99610;stroke:#000000;stroke-width:1pt;fill:#003892" d="m113.78 30.026c-0.84 0-17.084-1.685-31.299 1.057-14.62 2.603-23.151 8.039-23.264 11.421-0.212 6.556 2.961 11.843 3.384 11.632 0.423-0.212 0-2.961 3.595-4.019 3.595-1.057 20.303-6.556 24.744-6.767 4.441-0.212 17.34 0.423 19.25 0.211 1.9-0.211 6.76-1.269 6.76-3.595 0-2.327-2.96-9.517-3.17-9.94z"/>
          <path id="path986" style="stroke:#000000;stroke-width:1pt;fill:none" d="m104.37 39.014c0.21 0.74-0.21 2.326 2.43 2.009 2.75-0.211 4.11-2.183 6.66-1.903 2.42 0.276 2.75 1.903 2.75 1.903"/>
        </g>
        <path id="path985" style="fill-rule:evenodd;stroke:#000000;stroke-width:1pt;fill:#003892" d="m128.59 20.086c-20.14 0.267-25.55 3.232-26.44 6.767-0.87 3.252 2.33 12.69 2.33 12.69s3.38-6.556 24.32-6.345c20.93 0.212 25.02 5.922 25.02 5.922s2.68-9.306 2.47-12.478-8.69-6.609-27.7-6.556z"/>
        <path id="path1031" style="fill:#fecd07" d="m156.46 40.561l0.79-8.554 0.82 0.075-0.7 7.544 3.05 0.28-0.09 1.009-3.87-0.354z"/>
        <path id="path1032" style="fill:#fecd07" d="m161.44 41.017l0.78-8.554 0.82 0.075-0.78 8.554-0.82-0.075z"/>
        <path id="path1036" style="fill:#fecd07" d="m169.21 41.569l1.35-8.482 4.44 0.71-0.16 1.001-3.62-0.58-0.42 2.598 3.39 0.543-0.16 0.995-3.39-0.543-0.46 2.887 3.76 0.602-0.16 1.001-4.57-0.732z"/>
        <path id="path1039" style="fill:#fecd07" d="m182.12 44.726l2.54-7.137-1.92-0.686 0.34-0.955 4.63 1.65-0.34 0.955-1.93-0.689-2.54 7.138-0.78-0.276z"/>
        <path id="path1047" style="fill:#fecd07" d="m164.57 40.287l1.54 0.141c0.27 0.025 0.45 0.028 0.56 0.011 0.2-0.03 0.36-0.093 0.5-0.19 0.13-0.098 0.25-0.246 0.35-0.444 0.1-0.203 0.17-0.44 0.19-0.713 0.03-0.319 0-0.6-0.1-0.845-0.1-0.248-0.25-0.428-0.45-0.541-0.2-0.116-0.49-0.192-0.89-0.228l-1.43-0.132-0.27 2.941zm0.37-3.95l1.33 0.123c0.37 0.033 0.63 0.024 0.79-0.028 0.22-0.066 0.39-0.194 0.51-0.383s0.2-0.433 0.23-0.732c0.02-0.284 0-0.538-0.08-0.761-0.08-0.226-0.21-0.387-0.38-0.482-0.18-0.098-0.49-0.168-0.93-0.209l-1.24-0.113-0.23 2.585zm-1.28 4.885l0.79-8.554 2.32 0.212c0.47 0.044 0.84 0.166 1.11 0.367 0.27 0.198 0.47 0.485 0.59 0.861 0.13 0.373 0.18 0.756 0.15 1.149-0.04 0.365-0.14 0.703-0.31 1.013-0.18 0.309-0.42 0.55-0.72 0.722 0.36 0.186 0.62 0.471 0.78 0.855 0.17 0.384 0.23 0.825 0.19 1.323-0.04 0.401-0.13 0.768-0.29 1.103-0.15 0.331-0.33 0.582-0.52 0.752-0.2 0.171-0.44 0.292-0.72 0.364-0.28 0.069-0.62 0.085-1.01 0.049l-2.36-0.216z"/>
        <path id="path1050" style="fill:#fecd07" d="m177.06 38.143l1.7 0.48c0.36 0.103 0.66 0.132 0.89 0.088 0.23-0.048 0.43-0.169 0.6-0.365 0.17-0.199 0.3-0.432 0.37-0.699 0.11-0.391 0.1-0.741-0.03-1.052-0.14-0.309-0.42-0.526-0.87-0.652l-1.89-0.535-0.77 2.735zm-2.1 4.393l2.34-8.265 2.65 0.75c0.53 0.15 0.91 0.34 1.15 0.569 0.23 0.225 0.38 0.549 0.44 0.971 0.06 0.423 0.03 0.862-0.1 1.317-0.17 0.586-0.45 1.042-0.83 1.366-0.39 0.325-0.89 0.46-1.49 0.407 0.17 0.198 0.29 0.38 0.36 0.547 0.15 0.358 0.26 0.786 0.34 1.285l0.4 2.543-0.99-0.281-0.3-1.943c-0.09-0.562-0.18-0.995-0.25-1.301-0.08-0.305-0.16-0.527-0.25-0.666-0.08-0.139-0.18-0.246-0.29-0.322-0.09-0.051-0.23-0.106-0.43-0.164l-0.92-0.259-1.04 3.67-0.79-0.224z"/>
        <path id="path1053" style="fill:#fecd07" d="m191.76 47.655l1.25 0.444c0.39 0.137 0.71 0.195 0.96 0.173 0.26-0.02 0.48-0.098 0.68-0.232 0.27-0.188 0.53-0.478 0.79-0.869 0.25-0.394 0.49-0.896 0.71-1.507 0.3-0.846 0.43-1.532 0.39-2.056-0.04-0.528-0.17-0.92-0.41-1.177-0.16-0.184-0.48-0.358-0.94-0.521l-1.23-0.438-2.2 6.183zm-1.11 0.68l2.88-8.093 2.01 0.717c0.46 0.162 0.79 0.324 1 0.486 0.3 0.226 0.52 0.521 0.65 0.885 0.18 0.47 0.25 1.014 0.2 1.631-0.04 0.614-0.19 1.282-0.45 2.004-0.22 0.614-0.47 1.14-0.74 1.578s-0.54 0.784-0.82 1.04c-0.27 0.251-0.53 0.432-0.79 0.543-0.26 0.109-0.54 0.161-0.84 0.155-0.31-0.004-0.64-0.07-0.99-0.195l-2.11-0.751z"/>
        <path id="path1056" style="fill:#fecd07" d="m187.43 43.021l1.98 0.706 0.19-2.459c0.05-0.747 0.12-1.355 0.18-1.825-0.26 0.492-0.55 0.97-0.86 1.433l-1.49 2.145zm-2.87 2.723l5.12-7.293 0.84 0.296-0.49 8.945-0.88-0.314 0.19-2.694-2.44-0.87-1.52 2.223-0.82-0.293z"/>
        <path id="path1062" style="fill:#fecd07" d="m126.4 31.506v-7.576h-2.28v-1.014h5.49v1.014h-2.29v7.576h-0.92z"/>
        <path id="path1065" style="fill:#fecd07" d="m137.93 31.483l0.36-8.582 0.91 0.037-0.35 8.583-0.92-0.038z"/>
        <path id="path1070" style="fill:#fecd07" d="m112.44 28.161l1.76-0.323c0.58-0.107 0.97-0.318 1.17-0.632 0.19-0.314 0.24-0.714 0.15-1.202-0.06-0.354-0.19-0.642-0.38-0.865-0.19-0.227-0.41-0.36-0.66-0.397-0.16-0.022-0.45 0.004-0.85 0.079l-1.74 0.32 0.55 3.02zm-0.09 4.597l-1.55-8.448 2.57-0.472c0.45-0.083 0.8-0.12 1.05-0.11 0.35 0.008 0.65 0.089 0.91 0.244 0.26 0.15 0.49 0.388 0.69 0.712 0.21 0.324 0.35 0.696 0.43 1.114 0.13 0.719 0.06 1.362-0.22 1.929-0.28 0.563-0.9 0.933-1.86 1.11l-1.75 0.321 0.64 3.435-0.91 0.165z"/>
        <path id="path1073" style="fill:#fecd07" d="m119.28 27.858l2.34-0.177-0.9-2.317c-0.27-0.704-0.48-1.284-0.62-1.739-0.05 0.555-0.13 1.11-0.25 1.664l-0.57 2.569zm-1.72 3.668l2-8.766 0.98-0.074 3.47 8.351-1.04 0.079-1-2.533-2.88 0.218-0.56 2.652-0.97 0.073z"/>
        <path id="path1076" style="fill:#fecd07" d="m131.48 26.707h1.97c0.41 0 0.74-0.053 0.98-0.158 0.23-0.11 0.41-0.282 0.54-0.516 0.12-0.238 0.18-0.496 0.18-0.773 0-0.407-0.12-0.741-0.36-1.002-0.23-0.262-0.61-0.393-1.12-0.393h-2.19v2.842zm-0.92 4.799v-8.59h3.07c0.62 0 1.09 0.078 1.41 0.234 0.32 0.153 0.57 0.424 0.77 0.815 0.19 0.39 0.28 0.822 0.28 1.295 0 0.609-0.15 1.123-0.47 1.541s-0.81 0.683-1.48 0.796c0.25 0.145 0.43 0.288 0.56 0.428 0.26 0.305 0.52 0.686 0.76 1.143l1.2 2.338h-1.15l-0.92-1.787c-0.26-0.516-0.48-0.911-0.66-1.184-0.17-0.273-0.33-0.465-0.47-0.574-0.13-0.11-0.27-0.186-0.41-0.229-0.1-0.027-0.27-0.041-0.51-0.041h-1.06v3.815h-0.92z"/>
        <path id="path1079" style="fill:#fecd07" d="m143.25 28.63l2.31 0.408-0.3-2.468c-0.09-0.75-0.15-1.363-0.17-1.84-0.18 0.527-0.4 1.044-0.65 1.551l-1.19 2.349zm-2.58 3.125l4.11-7.996 0.97 0.172 1.3 8.952-1.03-0.182-0.34-2.702-2.85-0.504-1.2 2.43-0.96-0.17z"/>
        <path id="path1083" style="fill:#fecd07" d="m78.826 43.47l-1.228-8.501 0.92-0.133 1.228 8.501-0.92 0.133z"/>
        <path id="path1086" style="fill:#fecd07" d="m88.532 38.755l0.865-0.172c0.079 0.425 0.206 0.768 0.38 1.031 0.177 0.259 0.432 0.46 0.765 0.603 0.333 0.139 0.698 0.19 1.096 0.155 0.353-0.032 0.659-0.124 0.918-0.276 0.259-0.153 0.443-0.346 0.554-0.579 0.113-0.238 0.158-0.489 0.135-0.753-0.024-0.269-0.109-0.496-0.254-0.684-0.145-0.191-0.37-0.341-0.674-0.451-0.196-0.073-0.623-0.174-1.282-0.304-0.66-0.133-1.126-0.272-1.398-0.416-0.353-0.184-0.626-0.427-0.82-0.727-0.191-0.305-0.303-0.653-0.339-1.046-0.038-0.432 0.026-0.844 0.193-1.235 0.167-0.395 0.434-0.708 0.801-0.936 0.368-0.229 0.787-0.365 1.258-0.407 0.518-0.046 0.983 0.017 1.396 0.188 0.416 0.166 0.748 0.439 0.996 0.817 0.249 0.378 0.403 0.817 0.464 1.317l-0.88 0.161c-0.096-0.537-0.295-0.931-0.596-1.182-0.298-0.252-0.716-0.354-1.253-0.306-0.56 0.05-0.957 0.213-1.192 0.489-0.233 0.271-0.333 0.584-0.301 0.938 0.027 0.308 0.14 0.552 0.339 0.735 0.196 0.182 0.679 0.345 1.448 0.488 0.772 0.139 1.305 0.274 1.598 0.405 0.428 0.193 0.755 0.458 0.98 0.795 0.225 0.333 0.358 0.729 0.399 1.188 0.041 0.455-0.027 0.894-0.204 1.318-0.178 0.42-0.456 0.76-0.837 1.022-0.378 0.257-0.816 0.408-1.316 0.452-0.632 0.057-1.173-0.009-1.623-0.196-0.446-0.188-0.812-0.496-1.097-0.926-0.282-0.433-0.455-0.936-0.519-1.506z"/>
        <path id="path1089" style="fill:#fecd07" d="m80.489 38.368c-0.204-1.411-0.054-2.559 0.451-3.445 0.503-0.89 1.245-1.406 2.224-1.547 0.642-0.093 1.247 0.011 1.816 0.312 0.57 0.3 1.037 0.768 1.403 1.401 0.368 0.63 0.614 1.37 0.737 2.221 0.125 0.862 0.094 1.654-0.092 2.375-0.186 0.722-0.515 1.296-0.985 1.723-0.471 0.423-1.009 0.679-1.612 0.766-0.654 0.094-1.267-0.014-1.838-0.327-0.571-0.312-1.037-0.783-1.399-1.414-0.362-0.63-0.597-1.318-0.705-2.065zm0.951-0.119c0.148 1.024 0.489 1.8 1.023 2.327 0.537 0.522 1.145 0.734 1.824 0.636 0.692-0.1 1.218-0.48 1.577-1.14 0.363-0.66 0.465-1.537 0.307-2.631-0.1-0.692-0.283-1.281-0.55-1.768-0.265-0.49-0.602-0.85-1.013-1.079-0.408-0.233-0.841-0.317-1.299-0.25-0.651 0.094-1.172 0.449-1.564 1.066-0.388 0.613-0.49 1.559-0.305 2.839z"/>
        <path id="path1097" style="fill:#fecd07" d="m72.782 44.37l1.428-0.454c0.442-0.14 0.771-0.3 0.989-0.479 0.22-0.181 0.376-0.386 0.468-0.616 0.128-0.324 0.181-0.72 0.16-1.188-0.019-0.473-0.127-1.019-0.323-1.637-0.272-0.857-0.596-1.477-0.973-1.862-0.375-0.389-0.751-0.61-1.129-0.662-0.273-0.036-0.673 0.029-1.199 0.196l-1.406 0.446 1.985 6.256zm-0.579 1.247l-2.598-8.188 2.305-0.731c0.52-0.165 0.93-0.252 1.228-0.261 0.418-0.014 0.807 0.078 1.168 0.275 0.469 0.253 0.88 0.637 1.234 1.151 0.356 0.51 0.65 1.13 0.882 1.86 0.197 0.622 0.313 1.192 0.346 1.709 0.034 0.518 0.008 0.965-0.077 1.341-0.086 0.371-0.212 0.683-0.376 0.936-0.162 0.249-0.385 0.469-0.669 0.662-0.281 0.191-0.624 0.351-1.029 0.48l-2.414 0.766z"/>
      </g>
      <g id="g798">
        <g id="g615">
          <path id="path606" style="fill-rule:evenodd;stroke:#000000;stroke-width:1pt;fill:#ffffff" d="m70.866 60.236l10.63 10.63v85.044c0 6.7 7.087 14.17 14.173 14.17h17.721c10.63 0 15.94 8.86 15.94 8.86s5.32-9.01 15.95-8.86l19.22 0.27c5.58 0.08 12.67-7.36 12.67-14.44v-85.044l10.63-10.63h-116.93z"/>
          <path id="path611" style="fill-rule:evenodd;stroke:#000000;stroke-width:.625;fill:#dd2110" d="m138.19 60.236v49.604h38.98v-38.974l10.63-10.63h-49.61z"/>
          <path id="path610" style="fill-rule:evenodd;stroke:#000000;stroke-width:.625;fill:#013993" d="m70.866 60.236h49.604v49.604h-38.974v-38.974l-10.63-10.63z"/>
          <path id="path612" style="fill-rule:evenodd;stroke:#000000;stroke-width:.625;fill:#dd2110" d="m81.496 127.56h38.974v44.29l-3.54-1.77h-21.261c-7.086 0-14.173-7.09-14.173-14.17v-28.35z"/>
          <path id="path613" style="fill-rule:evenodd;stroke:#000000;stroke-width:.625;fill:#013993" d="m177.17 127.56h-38.98v44.29l3.54-1.77h21.26c7.09 0 14.18-7.09 14.18-14.17v-28.35z"/>
          <path id="path614" style="stroke:#000000;stroke-width:1pt;fill:none" d="m70.866 60.236l10.63 10.63v85.044c0 6.7 7.087 14.17 14.173 14.17h17.721c10.63 0 15.94 8.86 15.94 8.86s5.32-9.01 15.95-8.86l19.22 0.27c5.58 0.08 12.67-7.36 12.67-14.44v-85.044l10.63-10.63h-116.93z"/>
        </g>
        <path id="path797" style="fill-rule:evenodd;stroke:#000000;fill:#fecd08" d="m127.56 88.583v14.177h3.54v-14.177h3.55v-3.544h-3.55v-3.543h-3.54v3.543h-3.54v3.544h3.54z"/>
        <g id="g696">
          <g id="g665" transform="matrix(.96868 .24833 -.24833 .96868 34.802 -31.896)">
            <path id="path666" style="stroke:#241a0d;stroke-width:1.875;fill:none" d="m127.95 109.76l-36.799-30.031"/>
            <path id="path667" style="fill-rule:evenodd;fill:#fecd08" d="m90.201 80.755l-4.493-5.534 6.698 3.267-2.205 2.267z"/>
          </g>
          <g id="g688">
            <path id="path648" style="fill-rule:evenodd;fill:#dd200f" d="m118.01 96.436c-0.21 0.423-3.59 14.594-3.59 14.594s11.2 1.69 10.99 1.06c-0.21-0.64-1.48-9.73-2.11-10.37-0.64-0.63-5.08-4.438-5.29-5.284z"/>
            <path id="path647" style="fill-rule:evenodd;fill:#ffffff" d="m108.7 86.708l-1.9 19.242s12.69 11.42 12.48 9.94-1.06-19.454-1.06-19.454l-9.52-9.728z"/>
            <path id="path646" style="fill-rule:evenodd;fill:#04388f" d="m98.13 75.076l-0.634 21.149s11.204 9.305 11.204 8.455c0-0.84 1.06-17.126 1.06-17.126l-11.63-12.478z"/>
            <path id="path649" style="stroke:#000000;fill:none" d="m97.919 74.865l-0.635 17.976"/>
            <g id="g662" transform="matrix(.99359 .11307 -.11307 .99359 15.164 -16.177)">
              <path id="path663" style="stroke:#241a0d;stroke-width:1.875;fill:none" d="m127.95 109.76l-36.799-30.031"/>
              <path id="path664" style="fill-rule:evenodd;fill:#fecd08" d="m90.201 80.755l-4.493-5.534 6.698 3.267-2.205 2.267z"/>
            </g>
          </g>
          <g id="g678">
            <path id="path622" style="stroke:#000000;fill-rule:evenodd;fill:#ffffff" d="m92.126 81.496v53.154c0 10.63 10.554 18.25 17.714 17.71 7.17-0.54 17.72-3.54 17.72-3.54v-38.98l-35.434-28.344z"/>
            <path id="path623" style="fill-rule:evenodd;fill:#dd200f" d="m92.126 124.02v10.63c0 10.63 10.554 18.25 17.714 17.71 7.17-0.54 17.72-3.54 17.72-3.54-7.09-3.54-24.8 7.09-24.8-21.26-3.547 0-7.091 0-10.634-3.54z"/>
            <path id="path624" style="fill-rule:evenodd;stroke-width:1.25;fill:#04388f" d="m103.18 89.8l-0.42 30.67c-3.759-0.54-7.091-1.94-10.634-3.54v-35.434l11.054 8.304z"/>
            <path id="path625" style="fill-rule:evenodd;fill:#dd200f" d="m112.93 98.551v23.689s2.54-0.42 6.77 1.27 8.04 3.38 8.04 3.38v-17.13l-14.81-11.209z"/>
            <path id="path626" style="fill-rule:evenodd;fill:#04388f" d="m126.68 134.72s-7.82-4.02-9.73-4.23c-1.9-0.22-4.44 0.21-4.44 0.21s-0.42 3.59-0.21 5.71c0.21 2.11 3.38 3.17 4.44 3.17s9.94-1.06 9.94-1.06v-3.8z"/>
            <path id="path638" style="stroke:#000000;fill:none" d="m92.126 81.496v53.154c0 10.63 10.554 18.25 17.714 17.71 7.17-0.54 17.72-3.54 17.72-3.54v-38.98l-35.434-28.344z"/>
            <g id="g659">
              <path id="path655" style="stroke:#241a0d;stroke-width:1.875;fill:none" d="m127.95 109.76l-36.799-30.031"/>
              <path id="path658" style="fill-rule:evenodd;fill:#fecd08" d="m90.201 80.755l-4.493-5.534 6.698 3.267-2.205 2.267z"/>
            </g>
          </g>
        </g>
        <g id="g718" transform="matrix(-1 0 0 1 259.21 -.63182)">
          <g id="g719" transform="matrix(.96868 .24833 -.24833 .96868 34.802 -31.896)">
            <path id="path720" style="stroke:#241a0d;stroke-width:1.875;fill:none" d="m127.95 109.76l-36.799-30.031"/>
            <path id="path721" style="fill-rule:evenodd;fill:#fecd08" d="m90.201 80.755l-4.493-5.534 6.698 3.267-2.205 2.267z"/>
          </g>
          <g id="g722">
            <path id="path723" style="fill-rule:evenodd;fill:#dd200f" d="m118.01 96.436c-0.21 0.423-3.59 14.594-3.59 14.594s11.2 1.69 10.99 1.06c-0.21-0.64-1.48-9.73-2.11-10.37-0.64-0.63-5.08-4.438-5.29-5.284z"/>
            <path id="path724" style="fill-rule:evenodd;fill:#ffffff" d="m108.7 86.708l-1.9 19.242s12.69 11.42 12.48 9.94-1.06-19.454-1.06-19.454l-9.52-9.728z"/>
            <path id="path725" style="fill-rule:evenodd;fill:#04388f" d="m98.13 75.076l-0.634 21.149s11.204 9.305 11.204 8.455c0-0.84 1.06-17.126 1.06-17.126l-11.63-12.478z"/>
            <path id="path726" style="stroke:#000000;fill:none" d="m97.919 74.865l-0.635 17.976"/>
            <g id="g727" transform="matrix(.99359 .11307 -.11307 .99359 15.164 -16.177)">
              <path id="path728" style="stroke:#241a0d;stroke-width:1.875;fill:none" d="m127.95 109.76l-36.799-30.031"/>
              <path id="path729" style="fill-rule:evenodd;fill:#fecd08" d="m90.201 80.755l-4.493-5.534 6.698 3.267-2.205 2.267z"/>
            </g>
          </g>
          <g id="g730">
            <path id="path731" style="stroke:#000000;fill-rule:evenodd;fill:#ffffff" d="m92.126 81.496v53.154c0 10.63 10.554 18.25 17.714 17.71 7.17-0.54 17.72-3.54 17.72-3.54v-38.98l-35.434-28.344z"/>
            <path id="path732" style="fill-rule:evenodd;fill:#dd200f" d="m92.126 124.02v10.63c0 10.63 10.554 18.25 17.714 17.71 7.17-0.54 17.72-3.54 17.72-3.54-7.09-3.54-24.8 7.09-24.8-21.26-3.547 0-7.091 0-10.634-3.54z"/>
            <path id="path733" style="fill-rule:evenodd;stroke-width:1.25;fill:#04388f" d="m103.18 89.8l-0.42 30.67c-3.759-0.54-7.091-1.94-10.634-3.54v-35.434l11.054 8.304z"/>
            <path id="path734" style="fill-rule:evenodd;fill:#dd200f" d="m112.93 98.551v23.689s2.54-0.42 6.77 1.27 8.04 3.38 8.04 3.38v-17.13l-14.81-11.209z"/>
            <path id="path735" style="fill-rule:evenodd;fill:#04388f" d="m126.68 134.72s-7.82-4.02-9.73-4.23c-1.9-0.22-4.44 0.21-4.44 0.21s-0.42 3.59-0.21 5.71c0.21 2.11 3.38 3.17 4.44 3.17s9.94-1.06 9.94-1.06v-3.8z"/>
            <path id="path736" style="stroke:#000000;fill:none" d="m92.126 81.496v53.154c0 10.63 10.554 18.25 17.714 17.71 7.17-0.54 17.72-3.54 17.72-3.54v-38.98l-35.434-28.344z"/>
            <g id="g737">
              <path id="path738" style="stroke:#241a0d;stroke-width:1.875;fill:none" d="m127.95 109.76l-36.799-30.031"/>
              <path id="path739" style="fill-rule:evenodd;fill:#fecd08" d="m90.201 80.755l-4.493-5.534 6.698 3.267-2.205 2.267z"/>
            </g>
          </g>
        </g>
        <g id="g788">
          <path id="path786" style="fill-rule:evenodd;stroke:#000000;fill:#dd200f" d="m135.52 146.85c0.79 0.95 3.79 4.9 4.58 3.95s-1.9-8.21-2.84-12c-0.95-3.8-3.16-8.06-3.32-13.9-0.16-5.85-3.63 0.63-3.63 0.63l5.21 21.32z"/>
          <path id="path784" style="fill-rule:evenodd;stroke:#000000;fill:#dd200f" d="m132.52 158.38l6.79 0.32s-2.21-9.16-2.84-14.53c-0.64-5.37-6.32-21.49-6.32-21.49l2.37 35.7z"/>
          <path id="path780" style="fill-rule:evenodd;stroke:#000000;fill:#ffffff" d="m127.62 121.11c-0.16 0.31-9.63 15.47-9.63 23.37s4.42 12.64 6 15.16c1.58 2.53 5.37 10.59 5.37 10.59s4.58-8.85 5.05-12.32c0.48-3.48-1.73-18.17-1.1-23.85 0.63-5.69 4.89-19.11 4.89-19.11l-10.58 6.16z"/>
          <path id="path782" style="fill-rule:evenodd;fill:#003893" d="m127.62 121.11c-0.16 0.31-9.63 15.47-9.63 23.37s4.42 12.64 6 15.16c-0.32-5.05-0.76-9.61-0.48-16.11 0.72-16.79 11.38-26.69 11.38-26.69l-7.27 4.27z"/>
          <path id="path783" style="fill-rule:evenodd;fill:#dd200f" d="m131.41 116.68c0 2.85-3.79 11.38-3.79 19.27 0 3.95 1.54 13.15 1.98 20.73 0.43 7.58-0.24 13.55-0.24 13.55s4.58-8.85 5.05-12.32c0.48-3.48-1.73-18.17-1.1-23.85 0.63-5.69 4.89-19.11 4.89-19.11l-6.79 1.73z"/>
          <path id="path781" style="stroke:#000000;fill:none" d="m127.62 121.11c-0.16 0.31-9.63 15.47-9.63 23.37s4.42 12.64 6 15.16c1.58 2.53 5.37 10.59 5.37 10.59s4.58-8.85 5.05-12.32c0.48-3.48-1.73-18.17-1.1-23.85 0.63-5.69 4.89-19.11 4.89-19.11l-10.58 6.16z"/>
          <path id="path787" style="fill-rule:evenodd;stroke:#000000;fill:#dd200f" d="m126.2 117.63c-2.21 1.9-0.63 6.32-0.63 6.32s1.58-1.9 4.58-1.74 4.89 4.74 4.89 4.74 1.9-1.42 2.22-4.42c0.31-3-6.01-6.32-11.06-4.9z"/>
        </g>
        <g id="g761" transform="translate(9.8283 -170.66)">
          <path id="path760" style="fill-rule:evenodd;stroke:#000000;stroke-width:1pt;fill:#000000" d="m109.64 276.24l6.16 16.27s2.73-1.22 4.5-1.81c1.76-0.67 3.87-0.24 3.87-0.24s2.87-1.59 4.27-2.13c1.57-0.53 4.42-0.56 4.42-0.56l0.43-0.64s-21.5-12.6-23.39-11.97l-0.26 1.08z"/>
          <path id="path740" style="fill-rule:evenodd;stroke:#000000;stroke-width:1pt;fill:#ffffff" d="m110.09 274.79l6.16 16.27s2.72-1.22 4.5-1.82c1.76-0.66 3.87-0.23 3.87-0.23s2.87-1.59 4.26-2.13c1.58-0.53 4.43-0.56 4.43-0.56l-6.16-17.85s-2.39 0.26-4.35 0.95c-1.48 0.58-3.71 2.69-3.71 2.69-1.1-0.08-3-0.32-4.89 0.31-1.82 0.71-3.4 1.58-4.11 2.37z"/>
          <path id="path742" style="stroke:#9d9698;stroke-width:.625;fill:none" d="m119.09 272.11l5.85 16.9"/>
          <path id="path743" style="stroke:#9d9698;stroke-width:.625;fill:none" d="m111.04 275.9c2.05-1.74 5.6-2.77 8.53-2.37"/>
          <path id="path745" style="stroke:#9d9698;stroke-width:.625;fill:none" d="m111.67 277.87c2.05-1.73 5.61-2.76 8.53-2.37"/>
          <path id="path746" style="stroke:#9d9698;stroke-width:.625;fill:none" d="m112.29 280.04c2.05-1.74 5.6-2.77 8.53-2.37"/>
          <path id="path747" style="stroke:#9d9698;stroke-width:.625;fill:none" d="m112.93 282.3c2.05-1.74 5.61-2.77 8.53-2.37"/>
          <path id="path748" style="stroke:#9d9698;stroke-width:.625;fill:none" d="m114.12 284.59c2.05-1.74 5.6-2.77 8.53-2.37"/>
          <path id="path749" style="stroke:#9d9698;stroke-width:.625;fill:none" d="m114.67 286.8c2.05-1.74 5.61-2.77 8.53-2.37"/>
          <path id="path750" style="stroke:#9d9698;stroke-width:.625;fill:none" d="m115.62 288.93c2.05-1.74 5.6-2.77 8.53-2.37"/>
          <path id="path751" style="stroke:#9d9698;stroke-width:.625;fill:none" d="m119.78 273.55c1.79-2 4.94-3.35 7.88-3.36"/>
          <path id="path752" style="stroke:#9d9698;stroke-width:.625;fill:none" d="m120.33 276.07c1.8-2 4.94-3.34 7.89-3.35"/>
          <path id="path753" style="stroke:#9d9698;stroke-width:.625;fill:none" d="m120.88 277.81c1.8-2 4.94-3.35 7.89-3.35"/>
          <path id="path754" style="stroke:#9d9698;stroke-width:.625;fill:none" d="m121.91 280.1c1.8-2 4.94-3.35 7.89-3.35"/>
          <path id="path755" style="stroke:#9d9698;stroke-width:.625;fill:none" d="m122.38 282.39c1.8-2 4.94-3.34 7.89-3.35"/>
          <path id="path756" style="stroke:#9d9698;stroke-width:.625;fill:none" d="m123.41 284.37c1.8-2.01 4.94-3.35 7.89-3.36"/>
          <path id="path757" style="stroke:#9d9698;stroke-width:.625;fill:none" d="m124.2 286.5c1.8-2 4.94-3.35 7.89-3.36"/>
          <path id="path759" style="stroke:#000000;stroke-width:1pt;fill:none" d="m110.09 274.79l6.16 16.27s2.72-1.22 4.5-1.82c1.76-0.66 3.87-0.23 3.87-0.23s2.87-1.59 4.26-2.13c1.58-0.53 4.43-0.56 4.43-0.56l-6.16-17.85s-2.39 0.26-4.35 0.95c-1.48 0.58-3.71 2.69-3.71 2.69-1.1-0.08-3-0.32-4.89 0.31-1.82 0.71-3.4 1.58-4.11 2.37z"/>
        </g>
      </g>
      <g id="g939">
        <path id="path758" style="stroke:#003d00;fill-rule:evenodd;fill:#418b00" d="m108.7 216.56c0.85-0.42 9.73-5.92 14.39-10.15 4.65-4.23 8.88-9.73 13.95-14.8 5.08-5.08 7.62-3.81 10.16-9.73 2.53-5.92 1.26-8.36 1.26-14.28 1.75 0.06 2.44 1.88 3.43 3.96 0.49 1.03 2.67-7.11 2.62-4.72-0.06 2.67-0.12 8.8 0.09 8.48 0.84-1.27 4.44-9.51 4.44-9.51s-1.69 11.42-1.27 10.15 4.65-7.19 4.65-7.19v7.19s3.07-5.08 3.81-8.89c0.85-0.42 2.54 5.08 3.38 3.81 0.85-1.27 1.69-8.88 2.96-8.04 1.27 0.85 2.12 4.66 2.12 4.66s-0.85-24.54 0.42-24.11c1.27 0.42 4.23 1.27 4.23 1.27v-9.31s3.39 11 3.81 12.27-0.42-8.88-1.27-11.42-1.69-7.62-1.69-7.62 4.35 6.34 5.1 7.62c0-1.27-3.41-12.27-4.26-12.27-0.84 0-4.65 4.65-3.8 4.23 0.84-0.42 2.96-9.73 4.23-9.73s3.78 6.73 3.33 5.98l-2.49-14.44 3.39 6.35s0.84-3.81 0-5.92c-0.85-2.12-1.27-5.5-1.27-5.5s2.54 3.38 2.11 2.54c-0.42-0.85 0-7.619 0-7.619s1.79 3.959 2.22 4.799c0.42 0.85 2.01 3.24 2.01 3.24v-2.96l2.22 1.89s-4.76-10.352-6.87-10.775c-2.12-0.423-5.08 3.383-5.08 3.383s3.81-6.767 5.08-6.767h1.69l-1.27-7.191s8.46 11.844 8.04 10.152-3.81-9.729-4.23-12.69c-0.42-2.96-1.69-8.036-1.69-8.036s2.96 4.23 3.8 5.499c0.85 1.269 3.39 6.344 3.39 5.498s-0.43-10.574-0.43-10.574l4.23 9.305 3.81-10.997 2.12 10.574s1.69-5.075 2.11-7.19 1.69-2.115 1.69-2.115-0.42 8.882-0.42 9.728-0.85 5.499-0.85 5.499 3.81-8.037 4.66-9.728c0.84-1.692 4.23-2.961 4.23-2.961s-1.7 3.807-2.12 5.075c-0.42 1.269-5.07 10.998-4.23 10.998 0.85 0 4.23-5.076 6.35-5.076 2.11 0 5.92 5.499 5.07 5.922-0.84 0.423-4.23-1.692-5.5-1.692s-11.42 11.419-9.72 10.999c1.69-0.42 7.61-6.875 7.61-6.875s-2.12 5.185-1.27 4.755c0.85-0.42 7.19-4.226 7.19-4.226s-9.31 8.456-8.04 8.456 6.35-2.53 6.35-2.53l-6.35 8.03s5.24-3.49 6.98-3.49c1.8 0 5.29 1.38 5.29 1.38s-6.34 0.42-7.19 0.84c-0.85 0.43-7.19 9.73-5.5 8.89 1.69-0.85 5.08-4.66 5.08-4.66l-2.12 5.5 8.88-5.5-12.26 13.11s8.46-6.76 9.73-6.34 7.19 7.19 7.19 7.19-7.62-3.81-8.46-3.81c-0.85 0-12.27 14.81-10.58 13.96 1.69-0.84 7.62-4.23 9.31-4.23s4.65 7.62 3.81 7.62c-0.85 0-4.66-2.12-5.5-2.12-0.85 0-10.58 5.92-10.58 5.92s7.19-1.27 9.31-1.69c2.11-0.42 6.34 0 8.03-0.85 1.7-0.84 6.35-2.53 6.35-2.53s-4.87 3.17-7.4 5.28c-2.54 2.12-6.98 2.75-6.98 2.75l8.03 0.85s-10.99 3.49-13.74 4.55c-2.48 1.09-4.3 2.09-6.02 2.99 1.27 0 7.5-0.35 9.19-0.35s9.73 1.27 9.73 1.27-10.58 1.69-11.85 1.69c-1.26 0-2.96 1.27-2.96 1.27l11.42 1.27-7.61 1.27s5.5 2.01 6.77 2.43 5.07 3.07 5.07 3.07-9.72-2.12-11.84-2.12c-2.11 0-5.39 0.53-5.39 0.53s3.7 0.21 5.6 1.27c1.48 0.63 1.91 1.59 1.91 1.59l-5.5-0.43s3.8 2.96 5.07 3.39c1.27 0.42 2.54 1.69 2.54 1.69l-8.46-0.85 7.19 5.5s-7.61-1.69-8.88-1.69h-1.27s3.81 2.96 4.65 4.23c0.85 1.27 1.69 2.96 1.69 2.96s-3.38-0.85-5.07-1.69c-1.69-0.85-4.65-1.27-4.65-1.27l3.8 4.23-6.34-1.27 3.38 5.08-6.34-2.12s2.96 1.69 2.96 2.96-1.27 7.19-2.12 6.35c-0.84-0.85-1.27-4.23-2.11-5.5-0.85-1.27-2.12-2.12-2.12-2.12s-2.43-1.16-4.33-1.27c0.42 0.85 4.97 3.81 5.6 4.76l-8.03-0.95s7.61 3.81 6.34 3.81-41.87-3.39-44.41-3.39-14.81 14.38-17.34 15.65c-2.54 1.27-8.46 8.46-11 8.89-2.54 0.42-5.92 2.11-5.92 2.11l-4.66-2.54z"/>
        <path id="path764" style="stroke:#003d00;fill:none" d="m148.05 185s5.38-5.68 5.98-7.17c0.6-1.5 0.9-2.7 0.9-2.7"/>
        <path id="path765" style="stroke:#003d00;fill:none" d="m150.74 185.9c4.49-2.99 7.27-10.59 7.27-10.59"/>
        <path id="path767" style="stroke:#003d00;fill:none" d="m158.52 182.91c2.09-1.49 4.01-7.21 4.01-7.21"/>
        <path id="path768" style="stroke:#003d00;fill:none" d="m159.71 186.2c8.23-5.83 8.08-16.75 8.08-16.75"/>
        <path id="path769" style="stroke:#003d00;fill:none" d="m164.8 186.5c8.07-9.12 7.92-21.98 7.92-21.98"/>
        <path id="path770" style="stroke:#003d00;fill:none" d="m167.49 187.7c6.88-3.74 6.88-20.64 6.88-21.84v-1.19"/>
        <path id="path771" style="stroke:#003d00;fill:none" d="m178.71 176.78c-0.15-9.87-3.14-17.35-3.14-17.35"/>
        <path id="path772" style="stroke:#003d00;fill:none" d="m180.95 173.19c0.3-11.22-3.89-18.39-3.89-18.39"/>
        <path id="path773" style="stroke:#003d00;fill:none" d="m181.85 172.44c2.54-25.42-2.99-27.66-2.99-27.66"/>
        <path id="path774" style="stroke:#003d00;fill:none" d="m185.44 161.68c0.89-10.77-2.1-14.66-2.1-14.66"/>
        <path id="path775" style="stroke:#003d00;fill:none" d="m188.87 154.5c1.05-7.93-3.73-18.25-3.73-18.25"/>
        <path id="path776" style="stroke:#003d00;fill:none" d="m189.32 168.4c17.35-11.66 18.4-7.62 18.4-7.62"/>
        <path id="path777" style="stroke:#003d00;fill:none" d="m184.99 177.38c19.14-13.46 22.58-10.17 22.58-10.17"/>
        <path id="path778" style="stroke:#003d00;fill:none" d="m195.16 172.74c13.6-0.9 13.01 1.5 13.01 1.5"/>
        <path id="path779" style="stroke:#003d00;fill:none" d="m190.52 179.62c10.77-0.75 10.77 2.39 10.77 2.39"/>
        <path id="path785" style="stroke:#003d00;fill:none" d="m195.45 144.18c13.16-15.4 15.71-16.3 15.71-16.3"/>
        <path id="path788" style="stroke:#003d00;fill:none" d="m195.01 147.92c13.31-8.98 14.8-10.17 14.8-10.17"/>
        <path id="path789" style="stroke:#003d00;fill:none" d="m193.66 155.24c9.72-9.72 13.91-10.16 13.91-10.16"/>
        <path id="path790" style="stroke:#003d00;fill:none" d="m193.66 159.43c16.75-13.46 23.78-10.76 23.78-10.76"/>
        <path id="path791" style="stroke:#003d00;fill:none" d="m191.27 163.47c8.82-5.83 11.96-5.83 13.76-6.58"/>
        <path id="path792" style="stroke:#003d00;fill:none" d="m200.69 108.59c-3.14-16.004-5.09-22.584-5.09-22.584"/>
        <path id="path793" style="stroke:#003d00;fill:none" d="m199.34 84.51c3.29 5.085 4.34 14.357 4.19 15.85-0.15 1.5-1.94 8.53-1.94 8.53"/>
        <path id="path794" style="stroke:#003d00;fill:none" d="m204.43 81.37c-0.6 8.375 0.45 10.468 0.45 10.468"/>
        <path id="path795" style="stroke:#003d00;fill:none" d="m204.13 100.36c2.09-3.736 4.48-11.513 4.48-11.513"/>
        <path id="path796" style="stroke:#003d00;fill:none" d="m210.56 93.184c-3.29 8.826-9.72 23.626-9.87 24.526l-0.15 0.9"/>
        <path id="path798" style="stroke:#003d00;fill:none" d="m199.64 127.43c9.72-19.74 12.86-22.28 12.86-22.28"/>
        <path id="path799" style="stroke:#003d00;fill:none" d="m200.09 130.42c11.22-16 12.71-19.74 12.71-19.74"/>
        <path id="path800" style="stroke:#003d00;fill:none" d="m198.15 137.6c12.71-16.6 17.49-18.25 17.49-18.25"/>
        <path id="path801" style="stroke:#003d00;fill:none" d="m191.72 146.57c-1.5-14.65-7.18-22.58-7.18-22.58"/>
        <path id="path802" style="stroke:#003d00;fill:none" d="m185.58 116.36c6.29 10.17 7.18 22.58 7.18 22.58"/>
        <path id="path803" style="stroke:#003d00;fill:none" d="m186.48 107.24c9.72 16.3 7.63 25.87 7.63 25.87"/>
        <path id="path804" style="stroke:#003d00;fill:none" d="m190.67 107.84c8.82 17.2 5.08 30.06 5.08 30.06"/>
        <path id="path805" style="stroke:#003d00;fill:none" d="m193.36 107.09c4.94 12.86 4.64 18.84 4.64 18.84"/>
        <path id="path806" style="stroke:#003d00;fill:none" d="m187.53 92.436c14.65 14.054 11.51 21.684 11.51 21.684"/>
        <path id="path807" style="stroke:#003d00;fill:none" d="m183.94 171.4c5.08-12.12 5.68-14.06 5.68-14.06s-1.19 6.88-1.34 8.97-2.1 7.48-2.1 7.48"/>
        <path id="path808" style="stroke:#003d00;fill:none" d="m173.62 182.46c10.17-1.94 20.94 4.79 20.94 4.79"/>
        <path id="path809" style="stroke:#003d00;fill:none" d="m172.28 185.9c10.61 0.9 16.45 2.39 16.45 2.39"/>
        <path id="path810" style="stroke:#003d00;fill:none" d="m176.61 177.98c5.54 0.29 21.84 6.73 21.84 6.73"/>
        <path id="path938" style="stroke:#003e00;fill:none" d="m152.48 170.88s0.21 3.81-0.63 5.92c-0.85 2.12-1.27 2.75-1.27 2.75"/>
      </g>
      <g id="g1059">
        <path id="path878" style="fill-rule:evenodd;stroke:#003d00;stroke-width:.625;fill:#418b00" d="m145 219.66c-13.9-7.06-28.66-26.64-31.91-27.48s-36.959 5.06-36.644 4.11c0.316-0.95 0.948-6 2.528-8.53 1.579-2.53 5.686-5.06 5.054-5.06s-9.161 0.32-9.161 0.32-3.791 4.74-5.37 5.37c-1.58 0.63-8.529 1.26-10.109 2.21-1.579 0.95-4.422 3.79-4.422 3.79s-0.632-3.47-0.632-4.42 1.263-2.84 1.263-2.84-7.897 0.31-6.949 0c0.947-0.32 1.263-2.53 2.527-4.11 1.263-1.58 2.843-3.47 5.054-4.11 2.211-0.63 4.423-1.26 4.423-1.26l-3.791-1.89s3.791-1.9 4.738-1.9c0.948 0 4.739-0.95 4.739-0.95s-2.843-3.16-2.843-4.42-2.843 4.74-5.055 5.37c-2.211 0.63-6.633 1.26-8.845 1.26-2.211 0-5.37 3.48-5.37 3.48s-0.947-3.48-0.632-4.74c0.316-1.26 1.58-1.9 1.58-1.9l-3.475 0.32s0.948-4.74 1.264-5.37 1.895-3.47 1.895-3.47-2.527-1.9-3.159-3.16c-0.632-1.27-1.579-4.43-1.579-4.43h6.633c1.58 0 5.686 1.9 5.686 1.9s-1.579-2.53-1.579-3.48c0-0.94-1.264-3.15-0.632-3.15s5.055 2.84 5.055 2.84-1.264-6-3.159-7.27c-1.896-1.26-10.425-2.84-12.004-5.05-1.58-2.21-3.791-10.11-4.423-12.01-0.632-1.89-2.527-2.84-2.527-2.84h5.054s-0.632-3.16-0.947-5.05c-0.316-1.9 0.631-4.74 0.631-4.74s2.212 3.79 3.475 3.79c1.264 0 3.159 2.21 3.159 2.21l0.316-2.21 3.791 5.05s0.316-3.47 0.947-4.1c0.632-0.63 2.212-1.27 2.212-1.27s0.316 2.21 0.631 2.85c0.316 0.63 2.212 5.37 2.212 6.31 0 0.95-0.632 11.38-0.632 12.32 0 0.95 3.791 8.22 3.791 8.22v-7.58c0-1.9-2.212-6.01-1.896-7.59 0.316-1.57 0.632-4.1 0.632-4.1s1.895 3.47 2.527 3.79c0.632 0.31 2.527 3.79 2.527 3.79l2.212-4.11s-5.371-4.42-6.002-6.32c-0.632-1.89-1.264-6-1.264-6s-3.791-1.89-5.054-3.16c-1.264-1.26-6.318-10.1-6.318-10.1h1.895s-1.895-4.11-1.895-6.01c0-1.89 0.316-5.683 0.316-5.683s1.895 1.58 2.211 2.212c0.316 0.631 2.843 0.951 2.843 0.951s-3.791-8.533-3.791-12.008 5.055-10.108 5.055-10.108l2.527 4.106 5.054-7.581s2.211 3.475 2.211 4.422v4.107s3.159 0.316 3.791 0.316 2.211 1.263 2.211 1.263-2.527 0.948-3.474 1.896c-0.948 0.947-1.896 5.054-2.843 5.37-0.948 0.316-5.055 3.159-6.002 4.107-0.948 0.947-1.896 6.63-1.896 6.63s3.159 4.43 3.475 6.01c0.316 1.57 0.632 5.68 0.632 5.68s1.579 1.9 2.843 1.58c1.263-0.31 2.527-2.21 2.211-3.47-0.316-1.27-3.791-4.43-4.107-6.01-0.315-1.58 0.316-12 0.316-12l5.055 2.843s2.843-2.843 3.475-4.422c0.631-1.58 1.579-6.002 1.579-6.002l2.211 6.633s1.58-2.843 3.159-3.474c1.58-0.632 4.739-2.528 4.739-2.528s-1.264 3.791-1.264 4.423 0.316 11.687-0.316 12.947c-0.632 1.27-8.845 9.17-9.477 9.8-0.631 0.63-0.631 5.37-0.631 5.37l6.002-5.37s0.631 2.84 0.947 4.42 0.316 3.16 0.316 3.16 3.159-0.95 4.107-1.58c0.947-0.63 2.843 0.63 2.843 0.63s-0.948 2.53-1.58 3.16c-0.631 0.63-2.843 6.63-3.79 7.58-0.948 0.95-6.634 3.16-7.266 4.11s-5.37 6.32-6.634 8.21c-1.263 1.9-1.263 5.69-1.263 5.69s1.895-5.69 3.474-6.95c1.58-1.27 5.371-5.69 5.371-5.69l0.947 4.74s3.475-2.53 4.739-2.84c1.263-0.32 7.897-1.9 7.897-1.9s-4.422 3.79-4.422 4.74-0.632 6-2.212 7.27c-1.579 1.26-9.161 6-9.792 6.31-0.632 0.32-1.264 2.85-1.264 3.79 0 0.95 0.948 2.22 0.948 2.22s0.947-2.22 2.211-3.48 0.948-4.11 0.948-4.11 2.843 2.85 3.159 4.11 0.631 7.9 0.316 9.48c-0.316 1.58-0.632 5.37 0 6.32 0.631 0.94 3.474 4.1 4.106 4.1s-3.791-8.21-3.159-12 3.159-6.32 3.791-8.22c0.632-1.89 0.817-3.79 0.817-3.79s2.769 3.29 3.305 4.8c0.888-1.33 1.814-2.21 3.059-2.94 0.686 0.83 2.697 6.61 3.187 8.24 1.049-1.73 2.475-3.6 3.666-4.78 1.193 1.74 2.932 6.46 2.485 8.7-0.894 2.9-2.304 5.25-4.199 6.52-1.896 1.26-3.475 1.89-3.475 1.89s4.423 1.58 5.686 1.58c1.264 0 3.159 0.95 3.159 0.95l-6.95 2.21s8.53 0.95 8.53 0.32 0-4.11-0.948-6c-0.948-1.9-1.264-4.11-1.264-4.11s2.843 0.95 4.107 0.95c1.259 0 3.479 0.31 3.479-0.32s-2.53-5.69-1.9-5.69 8.85 7.59 8.85 6.32c0-1.26 3.53-7.91 3.53-7.91s3.01 5.77 3.32 6.72c0.32 0.94 0.41 3.4 0.41 5.61 0 2.22-2.21 5.37-2.21 5.37s4.42 6.95 7.27 9.48c2.84 2.53 10.52 13.33 18.63 18.32 4.21 2.59 4.43 2.53 7.9 4.43l-3.47 4.73z"/>
        <path id="path879" style="stroke:#003d00;stroke-width:.625;fill:none" d="m44.225 169.75c2.211-2.52 4.739-1.58 6.634-2.52 1.895-0.95 5.37-2.85 5.37-2.85"/>
        <path id="path880" style="stroke:#003d00;stroke-width:.625;fill:none" d="m61.599 160.28c-3.79 2.52-6.949 8.53-8.529 9.47-1.579 0.95-5.686 1.9-5.686 1.9"/>
        <path id="path881" style="stroke:#003d00;stroke-width:.625;fill:none" d="m48.332 173.23s5.37-0.32 6.634-1.58c1.263-1.27 3.474-2.84 3.474-2.84"/>
        <path id="path882" style="stroke:#003d00;stroke-width:.625;fill:none" d="m70.76 159.96v5.69"/>
        <path id="path883" style="stroke:#003d00;stroke-width:.625;fill:none" d="m54.018 184.6c5.686-0.63 12.952-2.53 12.32-2.53"/>
        <path id="path884" style="stroke:#003d00;stroke-width:.625;fill:none" d="m59.072 188.07c6.318 0.32 12.32-6.31 12.32-6.31"/>
        <path id="path885" style="stroke:#003d00;stroke-width:.625;fill:none" d="m61.284 178.6c7.581 4.42 25.271 1.58 25.271 1.58"/>
        <path id="path886" style="stroke:#003d00;stroke-width:.625;fill:none" d="m81.817 164.07c-0.632 12.32-1.264 12.32-1.264 12.32"/>
        <path id="path887" style="stroke:#003d00;stroke-width:.625;fill:none" d="m78.026 170.7c0.316-3.47 0.632-4.74 0.632-4.74"/>
        <path id="path888" style="stroke:#003d00;stroke-width:.625;fill:none" d="m79.605 159.64c0 0.64-0.315 4.43-0.315 4.43"/>
        <path id="path889" style="stroke:#003d00;stroke-width:.625;fill:none" d="m84.976 174.18c1.579-3.16 1.579-6.01 1.579-6.01"/>
        <path id="path890" style="stroke:#003d00;stroke-width:.625;fill:none" d="m84.66 166.59l-0.316 2.22"/>
        <path id="path891" style="stroke:#003d00;stroke-width:.625;fill:none" d="m90.03 168.81c-1.264 3.15-1.895 3.15-1.895 3.15"/>
        <path id="path892" style="stroke:#003d00;stroke-width:.625;fill:none" d="m96.032 172.91c3.791 1.9 9.788 7.9 9.788 7.9"/>
        <path id="path893" style="stroke:#003d00;stroke-width:.625;fill:none" d="m103.3 172.6c3.16 1.89 6 6 6 6"/>
        <path id="path894" style="stroke:#003d00;stroke-width:.625;fill:none" d="m109.62 173.86c4.1 4.42 0.94 9.79 0.94 9.79"/>
        <path id="path895" style="stroke:#003d00;stroke-width:.625;fill:none" d="m114.04 170.07l-0.95 7.58"/>
        <path id="path896" style="stroke:#003d00;stroke-width:.625;fill:none" d="m34.432 128.05c4.423 1.27 5.371 4.11 6.318 5.38 0.948 1.26 0.316 3.15 1.58 4.73 1.263 1.58 3.475 3.48 3.475 3.48"/>
        <path id="path897" style="stroke:#003d00;stroke-width:.625;fill:none" d="m38.223 127.42c8.213 0.63 5.686 7.27 6.318 8.22 0.632 0.94 1.895 5.05 3.159 5.68s1.58 0 2.527 1.27c0.948 1.26 2.211 4.1 2.211 4.1"/>
        <path id="path898" style="stroke:#003d00;stroke-width:.625;fill:none" d="m37.907 121.11s0.632 0.31 2.527 2.52c1.896 2.21 1.264 4.11 1.264 4.11"/>
        <path id="path899" style="stroke:#003d00;stroke-width:.625;fill:none" d="m46.436 124.58c-1.579 4.42 1.264 9.48 1.264 9.48"/>
        <path id="path900" style="stroke:#003d00;stroke-width:.625;fill:none" d="m48.964 126.16c3.79 2.84 0.947 8.53 0.947 8.53"/>
        <path id="path901" style="stroke:#003d00;stroke-width:.625;fill:none" d="m49.595 137.53l-0.315 4.74"/>
        <path id="path902" style="stroke:#003d00;stroke-width:.625;fill:none" d="m59.704 123.63c2.527 1.27 2.843 4.74 2.843 4.74"/>
        <path id="path903" style="stroke:#003d00;stroke-width:.625;fill:none" d="m69.497 138.8s-2.211 6.31-3.791 8.52c-1.579 2.22-1.579 2.53-1.579 2.53"/>
        <path id="path904" style="stroke:#003d00;stroke-width:.625;fill:none" d="m63.495 156.49c2.211-7.59 6.002-8.85 6.002-8.85"/>
        <path id="path905" style="stroke:#003d00;stroke-width:.625;fill:none" d="m67.286 150.48c6.633-2.52 11.688-10.74 11.688-10.74"/>
        <path id="path906" style="stroke:#003d00;stroke-width:.625;fill:none" d="m44.857 164.7c6.95-4.11 6.95-1.9 10.109-2.84 3.159-0.95 4.738-3.16 4.738-3.16"/>
        <path id="path907" style="stroke:#003d00;stroke-width:.625;fill:none" d="m41.066 158.06c4.423-0.94 11.057 2.85 11.057 2.85"/>
        <path id="path908" style="stroke:#003d00;stroke-width:.625;fill:none" d="m50.859 153.33c5.686 0.63 6.95 5.37 6.95 5.37"/>
        <path id="path909" style="stroke:#003d00;stroke-width:.625;fill:none" d="m58.125 176.7c11.056-0.94 11.372 0.95 11.372 0.95"/>
        <path id="path910" style="stroke:#003d00;stroke-width:.625;fill:none" d="m66.654 167.23c-0.316-4.11-0.316-5.06-0.316-5.06"/>
        <path id="path911" style="stroke:#003d00;stroke-width:.625;fill:none" d="m63.811 141.32c4.738-8.53 9.792-13.58 9.792-13.58"/>
        <path id="path912" style="stroke:#003d00;stroke-width:.625;fill:none" d="m72.972 130.9c2.527-1.9 7.581-9.48 7.581-9.48"/>
        <path id="path913" style="stroke:#003d00;stroke-width:.625;fill:none" d="m65.706 130.58c-0.632-11.05-1.895-12.32 0-15.79 1.895-3.48 6.002-6 6.634-7.9s2.211-5.05 2.211-8.845c0-3.791 3.159-6.95 3.159-6.95"/>
        <path id="path914" style="stroke:#003d00;stroke-width:.625;fill:none" d="m71.392 93.938c2.843 12.632-6.95 17.372-7.581 19.902-0.632 2.53 1.263 10.11 1.263 10.11"/>
        <path id="path915" style="stroke:#003d00;stroke-width:.625;fill:none" d="m45.489 109.42c5.686 4.1 10.108 8.53 10.108 8.53"/>
        <path id="path916" style="stroke:#003d00;stroke-width:.625;fill:none" d="m47.7 109.73c0.948 0 3.475 1.9 5.37 2.53 1.896 0.63 4.423 1.9 4.423 1.9"/>
        <path id="path917" style="stroke:#003d00;stroke-width:.625;fill:none" d="m45.805 98.361c0.631 4.419 5.686 6.949 6.949 8.849 1.264 1.89 0.948 3.47 0.948 3.47"/>
        <path id="path918" style="stroke:#003d00;stroke-width:.625;fill:none" d="m63.811 168.81v-4.43"/>
        <path id="path919" style="stroke:#003d00;stroke-width:.625;fill:none" d="m63.179 109.1c-0.316-5.05 0.632-11.687 0.632-11.687"/>
        <path id="path920" style="stroke:#003d00;stroke-width:.625;fill:none" d="m68.549 95.518c0 6.322-2.527 11.692-2.527 11.692"/>
        <path id="path921" style="stroke:#003d00;stroke-width:.625;fill:none" d="m63.179 106.89c-1.58-3.79-1.264-4.42-1.895-6.95-0.632-2.527-1.264-3.159-1.264-3.159"/>
        <path id="path922" style="stroke:#003d00;stroke-width:.625;fill:none" d="m53.07 100.26c0.316-9.165 3.475-10.112 2.843-12.956-0.631-2.843-1.263-4.422-1.263-4.422"/>
        <path id="path923" style="stroke:#003d00;stroke-width:.625;fill:none" d="m61.915 83.198c-3.475 1.579-6.002 5.686-6.002 5.686"/>
        <path id="path924" style="stroke:#003d00;stroke-width:.625;fill:none" d="m54.65 95.834c1.895-4.423 3.79-7.266 5.686-8.845 1.895-1.58 4.422-0.948 4.422-0.948"/>
        <path id="path925" style="stroke:#003d00;stroke-width:.625;fill:none" d="m51.491 83.198c-0.316 2.843 0.947 6.002 0.947 6.002"/>
        <path id="path926" style="stroke:#003d00;stroke-width:.625;fill:none" d="m55.597 86.357c2.528-4.107 3.159-10.425 3.159-10.425"/>
        <path id="path927" style="stroke:#003d00;stroke-width:.625;fill:none" d="m68.865 130.9c0.632-6.64 4.423-14.53 4.423-14.53"/>
        <path id="path928" style="fill-rule:evenodd;stroke:#003d00;stroke-width:.625;fill:#dd200f" d="m53.162 99.573a2.0103 2.3454 0 1 0 -4.02 0 2.0103 2.3454 0 1 0 4.02 0z"/>
        <path id="path929" style="fill-rule:evenodd;stroke:#003d00;stroke-width:.625;fill:#dd200f" transform="translate(3.3506 3.3506)" d="m53.162 99.573a2.0103 2.3454 0 1 0 -4.02 0 2.0103 2.3454 0 1 0 4.02 0z"/>
        <path id="path930" style="fill-rule:evenodd;stroke:#003d00;stroke-width:.625;fill:#dd200f" transform="translate(10.945 20.103)" d="m53.162 99.573a2.0103 2.3454 0 1 0 -4.02 0 2.0103 2.3454 0 1 0 4.02 0z"/>
        <path id="path931" style="fill-rule:evenodd;stroke:#003d00;stroke-width:.625;fill:#dd200f" transform="translate(14.966 22.56)" d="m53.162 99.573a2.0103 2.3454 0 1 0 -4.02 0 2.0103 2.3454 0 1 0 4.02 0z"/>
        <path id="path932" style="fill-rule:evenodd;stroke:#003d00;stroke-width:.625;fill:#dd200f" transform="translate(.22337 47.131)" d="m53.162 99.573a2.0103 2.3454 0 1 0 -4.02 0 2.0103 2.3454 0 1 0 4.02 0z"/>
        <path id="path933" style="fill-rule:evenodd;stroke:#003d00;stroke-width:.625;fill:#dd200f" transform="translate(10.052 52.269)" d="m53.162 99.573a2.0103 2.3454 0 1 0 -4.02 0 2.0103 2.3454 0 1 0 4.02 0z"/>
        <path id="path934" style="fill-rule:evenodd;stroke:#003d00;stroke-width:.625;fill:#dd200f" transform="translate(15.859 72.372)" d="m53.162 99.573a2.0103 2.3454 0 1 0 -4.02 0 2.0103 2.3454 0 1 0 4.02 0z"/>
        <path id="path935" style="fill-rule:evenodd;stroke:#003d00;stroke-width:.625;fill:#dd200f" transform="translate(26.358 77.956)" d="m53.162 99.573a2.0103 2.3454 0 1 0 -4.02 0 2.0103 2.3454 0 1 0 4.02 0z"/>
        <path id="path936" style="fill-rule:evenodd;stroke:#003d00;stroke-width:.625;fill:#dd200f" transform="translate(31.719 77.733)" d="m53.162 99.573a2.0103 2.3454 0 1 0 -4.02 0 2.0103 2.3454 0 1 0 4.02 0z"/>
        <path id="path937" style="fill-rule:evenodd;stroke:#003d00;stroke-width:.625;fill:#dd200f" transform="translate(48.248 81.53)" d="m53.162 99.573a2.0103 2.3454 0 1 0 -4.02 0 2.0103 2.3454 0 1 0 4.02 0z"/>
      </g>
      <g id="g1384">
        <g id="g1194" style="stroke:#000000">
          <g id="g1180" transform="matrix(-1 0 0 1 258.45 -.000030518)">
            <g id="g1181">
              <path id="path1182" style="fill:none" d="m39.971 213.6c2.538-4.23 4.23-4.66 4.23-4.66"/>
              <path id="path1183" style="fill:none" d="m40.817 215.08c2.538-4.23 4.23-4.66 4.23-4.66"/>
              <path id="path1184" style="fill:none" d="m42.086 216.35c2.538-4.23 4.23-4.66 4.23-4.66"/>
              <path id="path1185" style="fill:none" d="m42.932 217.83c2.538-4.23 4.23-4.66 4.23-4.66"/>
              <path id="path1186" style="fill:none" d="m44.201 218.88c2.538-4.23 4.23-4.65 4.23-4.65"/>
              <path id="path1187" style="fill:none" d="m45.047 220.36c2.538-4.23 4.23-4.65 4.23-4.65"/>
              <path id="path1188" style="fill:none" d="m46.316 221.42c2.538-4.23 4.23-4.65 4.23-4.65"/>
              <path id="path1189" style="fill:none" d="m47.162 222.9c2.538-4.23 4.23-4.65 4.23-4.65"/>
              <path id="path1190" style="fill:none" d="m48.219 223.96c2.538-4.23 4.23-4.65 4.23-4.65"/>
            </g>
            <path id="path1191" style="fill-rule:evenodd;fill-opacity:.99610;fill:#dc200f" d="m42.721 210c6.133-6.13 13.747-4.02 17.13-4.44 2.01-1.9 6.239-4.18 9.385-2.83s4.997 8.22 4.997 9.18c0 1.9-3.384 3.38-6.134 3.59-2.749 0.21-9.094 0.21-11.208 0.42-2.115 0.21-5.076 3.81-5.076 3.81s-6.133-8.04-9.094-9.73z"/>
            <path id="path1192" style="fill-rule:evenodd;fill-opacity:.99610;fill:#dc200f" d="m60.486 209.58c0-3.17 2.068-4.89 4.018-4.44 2.703 0.61 13.12 5.25 17.131 5.5 3.595 0.21 9.728-3.6 9.728-5.93 0-2.32-8.882-5.49-8.882-5.49l-6.133 1.9s-7.826-3.81-12.478-3.81c-4.653 0-7.402 2.96-7.191 5.29 0.212 2.33 3.807 7.4 3.807 6.98z"/>
            <path id="path1193" style="fill:none" d="m60.063 208.31c0.211 2.11 1.692 3.38 4.864 3.17s6.345-1.27 7.191-1.27 2.115 1.48 2.115 1.48"/>
          </g>
          <g id="g1166">
            <g id="g1155">
              <path id="path1145" style="fill:none" d="m39.971 213.6c2.538-4.23 4.23-4.66 4.23-4.66"/>
              <path id="path1146" style="fill:none" d="m40.817 215.08c2.538-4.23 4.23-4.66 4.23-4.66"/>
              <path id="path1147" style="fill:none" d="m42.086 216.35c2.538-4.23 4.23-4.66 4.23-4.66"/>
              <path id="path1148" style="fill:none" d="m42.932 217.83c2.538-4.23 4.23-4.66 4.23-4.66"/>
              <path id="path1149" style="fill:none" d="m44.201 218.88c2.538-4.23 4.23-4.65 4.23-4.65"/>
              <path id="path1150" style="fill:none" d="m45.047 220.36c2.538-4.23 4.23-4.65 4.23-4.65"/>
              <path id="path1151" style="fill:none" d="m46.316 221.42c2.538-4.23 4.23-4.65 4.23-4.65"/>
              <path id="path1152" style="fill:none" d="m47.162 222.9c2.538-4.23 4.23-4.65 4.23-4.65"/>
              <path id="path1153" style="fill:none" d="m48.219 223.96c2.538-4.23 4.23-4.65 4.23-4.65"/>
            </g>
            <path id="path1142" style="fill-rule:evenodd;fill-opacity:.99610;fill:#dc200f" d="m42.721 210c6.133-6.13 13.747-4.02 17.13-4.44 2.01-1.9 6.239-4.18 9.385-2.83s4.997 8.22 4.997 9.18c0 1.9-3.384 3.38-6.134 3.59-2.749 0.21-9.094 0.21-11.208 0.42-2.115 0.21-5.076 3.81-5.076 3.81s-6.133-8.04-9.094-9.73z"/>
            <path id="path1143" style="fill-rule:evenodd;fill-opacity:.99610;fill:#dc200f" d="m60.486 209.58c0-3.17 2.068-4.89 4.018-4.44 2.703 0.61 13.12 5.25 17.131 5.5 3.595 0.21 9.728-3.6 9.728-5.93 0-2.32-8.882-5.49-8.882-5.49l-6.133 1.9s-7.826-3.81-12.478-3.81c-4.653 0-7.402 2.96-7.191 5.29 0.212 2.33 3.807 7.4 3.807 6.98z"/>
            <path id="path1144" style="fill:none" d="m60.063 208.31c0.211 2.11 1.692 3.38 4.864 3.17s6.345-1.27 7.191-1.27 2.115 1.48 2.115 1.48"/>
          </g>
          <path id="path1165" style="fill-rule:evenodd;fill:#dd200f" d="m130.07 183.35c-41.447-0.95-58.375 7.19-58.587 13.12-0.211 5.92 5.076 10.57 7.825 10.57 2.75 0 9.641-3.63 9.43-5.11-1.109-0.66-1.248-1.47-0.547-1.87 0.869-0.5 15.859-3.59 42.089-3.59 26.22 0 41.04 2.71 41.24 3.59 0.24 1.09-1.95 1.71-3.3 3.24 5.83-0.6 7.32 3.11 10.07 3.32 2.74 0.21 8.04-3.82 8.24-9.73 0.22-6.15-17.34-12.63-56.46-13.54z"/>
        </g>
        <path id="path1230" style="fill:#fecd07" d="m85.165 197.64l-2.255-6.66 3.838-1.31 0.266 0.79-3.135 1.07 0.69 2.04 2.936-1 0.265 0.78-2.936 1 0.767 2.27 3.258-1.11 0.266 0.78-3.96 1.35z"/>
        <path id="path1233" style="fill:#fecd07" d="m98.397 187.78l0.801-0.07 0.362 4.2c0.063 0.73 0.044 1.32-0.056 1.76-0.101 0.44-0.319 0.81-0.657 1.11-0.334 0.3-0.793 0.47-1.377 0.52-0.566 0.04-1.04-0.04-1.421-0.24-0.381-0.21-0.667-0.53-0.859-0.96-0.193-0.43-0.323-1.04-0.389-1.81l-0.362-4.19 0.801-0.07 0.361 4.2c0.055 0.63 0.143 1.09 0.265 1.38 0.125 0.29 0.313 0.51 0.563 0.65 0.254 0.14 0.552 0.2 0.896 0.17 0.589-0.04 0.995-0.24 1.218-0.58s0.295-0.96 0.216-1.88l-0.362-4.19z"/>
        <path id="path1237" style="fill:#fecd07" d="m106.74 193.98v-6.97h0.75v6.15h2.81v0.82h-3.56z"/>
        <path id="path1238" style="fill:#fecd07" d="m111.76 193.98v-7.27h0.85v7.27h-0.85z"/>
        <path id="path1239" style="fill:#fecd07" d="m117.97 191.53l0.67 0.25c-0.14 0.81-0.39 1.42-0.76 1.85-0.36 0.42-0.81 0.63-1.34 0.63-0.54 0-0.99-0.16-1.33-0.48-0.34-0.33-0.6-0.8-0.78-1.42s-0.27-1.29-0.27-2c0-0.77 0.1-1.44 0.3-2.02 0.21-0.58 0.49-1.01 0.86-1.31 0.38-0.3 0.79-0.45 1.24-0.45 0.5 0 0.93 0.19 1.27 0.56 0.35 0.38 0.59 0.92 0.73 1.6l-0.66 0.23c-0.12-0.54-0.29-0.93-0.51-1.18-0.23-0.25-0.51-0.37-0.85-0.37-0.39 0-0.71 0.14-0.98 0.41-0.26 0.27-0.44 0.64-0.55 1.1-0.1 0.46-0.16 0.94-0.16 1.43 0 0.63 0.07 1.18 0.19 1.66 0.13 0.47 0.32 0.82 0.59 1.05 0.26 0.23 0.55 0.35 0.86 0.35 0.38 0 0.69-0.16 0.95-0.48 0.26-0.31 0.44-0.78 0.53-1.41z"/>
        <path id="path1246" style="fill:#fecd07" d="m141.01 193.83v-6.82h1.22l1.44 4.83c0.14 0.45 0.23 0.78 0.29 1.01 0.07-0.25 0.18-0.62 0.33-1.1l1.46-4.74h1.09v6.82h-0.78v-5.71l-1.78 5.71h-0.72l-1.77-5.8v5.8h-0.78z"/>
        <path id="path1247" style="fill:#fecd07" d="m148.06 194.13v-6.97h0.85v6.97h-0.85z"/>
        <path id="path1248" style="fill:#fecd07" d="m150.4 194.28v-6.97h0.69l2.67 5.47v-5.47h0.65v6.97h-0.69l-2.68-5.48v5.48h-0.64z"/>
        <path id="path1249" style="fill:#fecd07" d="m156.28 194.28v-6.67h0.85v6.67h-0.85z"/>
        <path id="path1250" style="fill:#fecd07" d="m162.31 192.9l0.71 0.32c-0.24 0.79-0.58 1.37-1.03 1.76-0.44 0.38-0.95 0.53-1.53 0.48-0.59-0.07-1.06-0.28-1.41-0.64-0.34-0.36-0.57-0.86-0.71-1.5-0.13-0.64-0.16-1.31-0.08-2.01 0.08-0.77 0.25-1.43 0.53-1.98s0.64-0.96 1.08-1.21c0.44-0.26 0.9-0.36 1.39-0.31 0.56 0.06 1.01 0.29 1.35 0.71s0.54 0.97 0.62 1.67l-0.74 0.15c-0.08-0.55-0.22-0.96-0.44-1.23s-0.52-0.43-0.89-0.46c-0.42-0.05-0.8 0.05-1.11 0.29-0.31 0.25-0.55 0.59-0.72 1.04-0.16 0.45-0.27 0.91-0.32 1.4-0.06 0.63-0.05 1.19 0.04 1.67s0.27 0.85 0.53 1.12c0.27 0.26 0.57 0.41 0.91 0.44 0.41 0.04 0.78-0.08 1.09-0.36 0.32-0.29 0.56-0.74 0.73-1.35z"/>
        <path id="path1253" style="fill:#fecd07" d="m169.11 197.02l1.49-7.31 0.76 0.17 1.75 6.4 1.18-5.74 0.7 0.16-1.49 7.31-0.76-0.17-1.75-6.41-1.17 5.75-0.71-0.16z"/>
        <path id="path1258" style="fill:#fecd07" d="m79.808 200l-2.742-6.75 2.293-1.02c0.46-0.2 0.836-0.3 1.125-0.28 0.289 0.01 0.567 0.14 0.835 0.38 0.268 0.25 0.478 0.55 0.629 0.92 0.194 0.48 0.24 0.94 0.136 1.37-0.104 0.44-0.386 0.81-0.846 1.12 0.227 0.03 0.41 0.08 0.549 0.15 0.297 0.15 0.608 0.37 0.932 0.65l1.646 1.43-0.861 0.38-1.254-1.09c-0.365-0.32-0.655-0.56-0.872-0.71-0.216-0.16-0.394-0.26-0.532-0.3-0.136-0.04-0.264-0.05-0.384-0.04-0.086 0.01-0.217 0.06-0.394 0.14l-0.793 0.35 1.218 2.99-0.685 0.31zm-0.847-4.07l1.47-0.66c0.313-0.14 0.541-0.29 0.683-0.45s0.221-0.36 0.238-0.58c0.016-0.23-0.021-0.45-0.11-0.67-0.129-0.32-0.325-0.54-0.587-0.67-0.26-0.13-0.582-0.1-0.965 0.07l-1.637 0.72 0.908 2.24z"/>
        <path id="path1261" style="fill:#fecd07" d="m90.429 196.01l-1.538-6.98 2.165-0.46c0.381-0.08 0.677-0.12 0.888-0.12 0.294-0.01 0.555 0.05 0.781 0.18 0.225 0.11 0.428 0.3 0.606 0.57 0.181 0.26 0.31 0.57 0.386 0.91 0.131 0.6 0.086 1.14-0.133 1.61-0.221 0.48-0.737 0.81-1.549 0.98l-1.472 0.31 0.626 2.84-0.76 0.16zm-0.047-3.82l1.484-0.32c0.49-0.1 0.814-0.29 0.972-0.55 0.157-0.27 0.191-0.61 0.102-1.01-0.064-0.29-0.18-0.53-0.348-0.71-0.167-0.18-0.356-0.29-0.569-0.31-0.137-0.02-0.378 0.01-0.723 0.09l-1.468 0.31 0.55 2.5z"/>
        <path id="path1265" style="fill:#fecd07" d="m101.23 194.57l-0.43-7.12 2.06-0.13c0.42-0.03 0.76 0.02 1.02 0.15 0.27 0.13 0.48 0.34 0.64 0.63s0.25 0.59 0.27 0.92c0.02 0.3-0.02 0.6-0.13 0.87-0.12 0.28-0.29 0.51-0.54 0.69 0.34 0.11 0.61 0.3 0.8 0.6 0.2 0.29 0.31 0.64 0.34 1.06 0.02 0.33-0.02 0.64-0.11 0.94-0.09 0.29-0.21 0.52-0.36 0.69-0.15 0.16-0.35 0.29-0.59 0.39-0.23 0.09-0.52 0.15-0.87 0.17l-2.1 0.14zm0.48-4.17l1.19-0.08c0.32-0.02 0.55-0.06 0.69-0.13 0.18-0.08 0.31-0.21 0.39-0.38 0.09-0.17 0.12-0.38 0.11-0.63-0.02-0.24-0.07-0.44-0.17-0.61-0.1-0.18-0.23-0.29-0.4-0.35s-0.45-0.07-0.84-0.05l-1.1 0.08 0.13 2.15zm0.2 3.28l1.37-0.09c0.23-0.01 0.4-0.03 0.49-0.06 0.16-0.05 0.3-0.13 0.41-0.22 0.1-0.1 0.19-0.24 0.25-0.42s0.09-0.38 0.07-0.6c-0.01-0.27-0.08-0.5-0.2-0.68-0.11-0.19-0.27-0.32-0.46-0.39s-0.46-0.09-0.81-0.07l-1.27 0.09 0.15 2.44z"/>
        <path id="path1268" style="fill:#fecd07" d="m119.43 193.98l2.17-7.42h0.8l2.3 7.42h-0.85l-0.65-2.25h-2.36l-0.61 2.25h-0.8zm1.63-3.05h1.9l-0.58-2.05c-0.18-0.62-0.31-1.14-0.4-1.54-0.07 0.48-0.17 0.95-0.3 1.42l-0.62 2.17z"/>
        <path id="path1271" style="fill:#fecd07" d="m129.07 193.98v-7.27h1.96c0.45 0 0.78 0.04 1.02 0.11 0.32 0.09 0.6 0.27 0.83 0.52 0.3 0.32 0.53 0.74 0.68 1.24s0.22 1.08 0.22 1.73c0 0.55-0.05 1.04-0.15 1.46-0.1 0.43-0.23 0.78-0.39 1.06s-0.33 0.5-0.52 0.66-0.41 0.28-0.68 0.36c-0.27 0.09-0.57 0.13-0.91 0.13h-2.06zm0.75-0.86h1.22c0.38 0 0.67-0.04 0.88-0.13 0.22-0.09 0.39-0.22 0.52-0.38 0.17-0.23 0.31-0.53 0.41-0.92 0.1-0.38 0.15-0.85 0.15-1.4 0-0.76-0.1-1.34-0.29-1.75-0.2-0.41-0.43-0.68-0.71-0.82-0.21-0.1-0.53-0.15-0.98-0.15h-1.2v5.55z"/>
        <path id="path1274" style="fill:#fecd07" d="m134.99 190.37c0-1.24 0.23-2.2 0.67-2.9 0.45-0.7 1.03-1.05 1.73-1.05 0.47 0 0.88 0.17 1.26 0.49 0.37 0.33 0.65 0.79 0.85 1.38 0.19 0.58 0.29 1.25 0.29 1.99 0 0.75-0.1 1.43-0.31 2.02-0.2 0.6-0.49 1.05-0.87 1.36-0.38 0.3-0.78 0.45-1.22 0.45-0.47 0-0.89-0.17-1.27-0.5-0.37-0.34-0.65-0.8-0.84-1.39-0.19-0.58-0.29-1.2-0.29-1.85zm0.69 0.01c0 0.9 0.16 1.6 0.48 2.12 0.33 0.52 0.74 0.77 1.23 0.77 0.5 0 0.91-0.26 1.23-0.78s0.48-1.26 0.48-2.21c0-0.61-0.06-1.14-0.2-1.59s-0.34-0.8-0.61-1.05c-0.26-0.25-0.56-0.37-0.89-0.37-0.47 0-0.88 0.24-1.22 0.72s-0.5 1.27-0.5 2.39z"/>
        <path id="path1277" style="fill:#fecd07" d="m163.03 195.41l3.69-6.93 0.81 0.19 0.77 7.95-0.85-0.2-0.19-2.39-2.36-0.55-1.08 2.11-0.79-0.18zm2.25-2.68l1.91 0.44-0.16-2.19c-0.05-0.66-0.08-1.21-0.08-1.63-0.17 0.46-0.37 0.91-0.6 1.35l-1.07 2.03z"/>
        <path id="path1280" style="fill:#fecd07" d="m174.13 198.17l4.81-5.93 0.71 0.36-0.82 7.95-0.76-0.38 0.29-2.39-2.1-1.07-1.42 1.82-0.71-0.36zm2.63-2.1l1.7 0.86 0.28-2.18c0.08-0.66 0.16-1.2 0.24-1.61-0.25 0.41-0.53 0.8-0.82 1.18l-1.4 1.75z"/>
      </g>
      <g id="g1441">
        <path id="path1440" style="fill-rule:evenodd;stroke:#000000;fill:#dd200f" d="m149 204.18c-6.77-2.96-10.37-0.63-10.37-0.63l0.21 4.65s3.18 0 4.44 0.63c1.27 0.64 4.23 2.12 4.23 2.12l1.49-6.77z"/>
        <path id="path1331" style="fill-rule:evenodd;stroke:#000000;fill:#dd200f" d="m109.55 204.5c6.77-2.96 10.37-0.64 10.37-0.64l-0.22 4.66s-3.17 0-4.44 0.63-4.23 2.11-4.23 2.11l-1.48-6.76z"/>
        <path id="path1334" style="fill-rule:evenodd;stroke:#000000;fill:#dd200f" d="m125.41 202.91v6.77c0.32 0.42 1.48 0.95 3.6 0.95 2.11 0 3.59-0.95 3.59-0.95v-7.09s-2.32-0.84-4.01-0.63c-1.7 0.21-2.75 0.53-3.18 0.95z"/>
        <g id="g1434">
          <path id="path1333" style="fill-rule:evenodd;stroke:#000000;fill:#dd200f" d="m132.6 210.1c1.06 1.91 8.57 1.27 8.78-0.42s0.11-4.13 0.11-4.13h-8.89v4.55z"/>
          <path id="path1332" style="fill-rule:evenodd;stroke:#000000;fill:#dd200f" d="m132.6 202.59c1.06-0.42 3.81-1.48 5.93-1.27 2.11 0.22 3.17 1.49 3.17 1.49l-0.42 6.13c-0.43-0.71-2.08-1.53-3.18-1.48-2.07 0.09-3.59 0.84-5.5 1.9v-6.77z"/>
        </g>
        <g id="g1437" transform="matrix(-1 0 0 1 258.02 .10571)">
          <path id="path1438" style="fill-rule:evenodd;stroke:#000000;fill:#dd200f" d="m132.6 210.1c1.06 1.91 8.57 1.27 8.78-0.42s0.11-4.13 0.11-4.13h-8.89v4.55z"/>
          <path id="path1439" style="fill-rule:evenodd;stroke:#000000;fill:#dd200f" d="m132.6 202.59c1.06-0.42 3.81-1.48 5.93-1.27 2.11 0.22 3.17 1.49 3.17 1.49l-0.42 6.13c-0.43-0.71-2.08-1.53-3.18-1.48-2.07 0.09-3.59 0.84-5.5 1.9v-6.77z"/>
        </g>
      </g>
    </g>
  </g>
  <metadata>
    <rdf:RDF>
      <cc:Work>
        <dc:format>image/svg+xml</dc:format>
        <dc:type rdf:resource="http://purl.org/dc/dcmitype/StillImage"/>
        <cc:license rdf:resource="http://creativecommons.org/licenses/publicdomain/"/>
        <dc:publisher>
          <cc:Agent rdf:about="http://openclipart.org/">
            <dc:title>Openclipart</dc:title>
          </cc:Agent>
        </dc:publisher>
        <dc:title>dominican republic</dc:title>
        <dc:date>2011-02-16T23:25:32</dc:date>
        <dc:description>Originally uploaded by Caleb Moore for OCAL. 0.18</dc:description>
        <dc:source>https://openclipart.org/detail/120073/dominican-republic-by-anonymous</dc:source>
        <dc:creator>
          <cc:Agent>
            <dc:title>Anonymous</dc:title>
          </cc:Agent>
        </dc:creator>
        <dc:subject>
          <rdf:Bag>
            <rdf:li>country</rdf:li>
            <rdf:li>dominican republic</rdf:li>
            <rdf:li>flag</rdf:li>
          </rdf:Bag>
        </dc:subject>
      </cc:Work>
      <cc:License rdf:about="http://creativecommons.org/licenses/publicdomain/">
        <cc:permits rdf:resource="http://creativecommons.org/ns#Reproduction"/>
        <cc:permits rdf:resource="http://creativecommons.org/ns#Distribution"/>
        <cc:permits rdf:resource="http://creativecommons.org/ns#DerivativeWorks"/>
      </cc:License>
    </rdf:RDF>
  </metadata>
</svg>
