<?xml version="1.0" encoding="UTF-8" standalone="no"?>
<svg
   xmlns:dc="http://purl.org/dc/elements/1.1/"
   xmlns:cc="http://creativecommons.org/ns#"
   xmlns:rdf="http://www.w3.org/1999/02/22-rdf-syntax-ns#"
   xmlns:svg="http://www.w3.org/2000/svg"
   xmlns="http://www.w3.org/2000/svg"
   xmlns:xlink="http://www.w3.org/1999/xlink"
   xmlns:sodipodi="http://sodipodi.sourceforge.net/DTD/sodipodi-0.dtd"
   xmlns:inkscape="http://www.inkscape.org/namespaces/inkscape"
   viewBox="0 0 960.00004 600"
   id="svg2"
   version="1.1"
   inkscape:version="0.91 r13725"
   sodipodi:docname="BevelledEasterIsland.svg"
   width="960.00006"
   height="600">
  <metadata
     id="metadata4551">
    <rdf:RDF>
      <cc:Work
         rdf:about="">
        <dc:format>image/svg+xml</dc:format>
        <dc:type
           rdf:resource="http://purl.org/dc/dcmitype/StillImage" />
        <dc:title></dc:title>
      </cc:Work>
    </rdf:RDF>
  </metadata>
  <sodipodi:namedview
     pagecolor="#ffffff"
     bordercolor="#666666"
     borderopacity="1"
     objecttolerance="10"
     gridtolerance="10"
     guidetolerance="10"
     inkscape:pageopacity="0"
     inkscape:pageshadow="2"
     inkscape:window-width="1600"
     inkscape:window-height="837"
     id="namedview4549"
     showgrid="true"
     fit-margin-top="0"
     fit-margin-left="0"
     fit-margin-right="0"
     fit-margin-bottom="0"
     inkscape:object-nodes="true"
     inkscape:snap-smooth-nodes="true"
     inkscape:object-paths="false"
     inkscape:snap-global="true"
     inkscape:zoom="1.1166667"
     inkscape:cx="480.00003"
     inkscape:cy="300"
     inkscape:window-x="-8"
     inkscape:window-y="-8"
     inkscape:window-maximized="1"
     inkscape:current-layer="svg2" />
  <defs
     id="defs4">
    <linearGradient
       id="linearGradient6136">
      <stop
         style="stop-color:#000000;stop-opacity:0;"
         offset="0"
         id="stop6138" />
      <stop
         style="stop-color:#000000;stop-opacity:1;"
         offset="1"
         id="stop6140" />
    </linearGradient>
    <linearGradient
       id="linearGradient22506">
      <stop
         style="stop-color:#ffffff;stop-opacity:1;"
         offset="0"
         id="stop22508" />
      <stop
         style="stop-color:#ffffff;stop-opacity:0;"
         offset="1"
         id="stop22510" />
    </linearGradient>
    <linearGradient
       id="linearGradient22338">
      <stop
         style="stop-color:#000000;stop-opacity:0;"
         offset="0"
         id="stop22340" />
      <stop
         id="stop6129"
         offset="0.5"
         style="stop-color:#000000;stop-opacity:0;" />
      <stop
         style="stop-color:#000000;stop-opacity:1;"
         offset="1"
         id="stop22342" />
    </linearGradient>
    <filter
       style="color-interpolation-filters:sRGB"
       inkscape:label="Blur"
       id="filter23929">
      <feGaussianBlur
         stdDeviation="1 5"
         result="blur"
         id="feGaussianBlur23931" />
    </filter>
    <filter
       style="color-interpolation-filters:sRGB"
       inkscape:label="Blur"
       id="filter23980">
      <feGaussianBlur
         stdDeviation="2 2"
         result="blur"
         id="feGaussianBlur23982" />
    </filter>
    <filter
       style="color-interpolation-filters:sRGB"
       inkscape:label="Blur"
       id="filter23988">
      <feGaussianBlur
         stdDeviation="1 1"
         result="blur"
         id="feGaussianBlur23990" />
    </filter>
    <filter
       style="color-interpolation-filters:sRGB"
       inkscape:label="Blur"
       id="filter24008">
      <feGaussianBlur
         stdDeviation="1 1"
         result="blur"
         id="feGaussianBlur24010" />
    </filter>
    <filter
       style="color-interpolation-filters:sRGB"
       inkscape:label="Blur"
       id="filter24012">
      <feGaussianBlur
         stdDeviation="1 1"
         result="blur"
         id="feGaussianBlur24014" />
    </filter>
    <filter
       style="color-interpolation-filters:sRGB"
       inkscape:label="Blur"
       id="filter24016">
      <feGaussianBlur
         stdDeviation="1 1"
         result="blur"
         id="feGaussianBlur24018" />
    </filter>
    <filter
       style="color-interpolation-filters:sRGB"
       inkscape:label="Blur"
       id="filter24020">
      <feGaussianBlur
         stdDeviation="1 1"
         result="blur"
         id="feGaussianBlur24022" />
    </filter>
    <filter
       style="color-interpolation-filters:sRGB"
       inkscape:label="Blur"
       id="filter24024">
      <feGaussianBlur
         stdDeviation="1 1"
         result="blur"
         id="feGaussianBlur24026" />
    </filter>
    <filter
       style="color-interpolation-filters:sRGB"
       inkscape:label="Blur"
       id="filter24028">
      <feGaussianBlur
         stdDeviation="1 1"
         result="blur"
         id="feGaussianBlur24030" />
    </filter>
    <filter
       style="color-interpolation-filters:sRGB"
       inkscape:label="Blur"
       id="filter24032">
      <feGaussianBlur
         stdDeviation="1 1"
         result="blur"
         id="feGaussianBlur24034" />
    </filter>
    <filter
       style="color-interpolation-filters:sRGB"
       inkscape:label="Blur"
       id="filter24036">
      <feGaussianBlur
         stdDeviation="1 1"
         result="blur"
         id="feGaussianBlur24038" />
    </filter>
    <filter
       style="color-interpolation-filters:sRGB"
       inkscape:label="Blur"
       id="filter24052">
      <feGaussianBlur
         stdDeviation="1 1"
         result="blur"
         id="feGaussianBlur24054" />
    </filter>
    <filter
       style="color-interpolation-filters:sRGB"
       inkscape:label="Blur"
       id="filter24309">
      <feGaussianBlur
         stdDeviation="2 2"
         result="blur"
         id="feGaussianBlur24311" />
    </filter>
    <clipPath
       clipPathUnits="userSpaceOnUse"
       id="clipPath4532">
      <path
         inkscape:connector-curvature="0"
         id="path4534"
         d="M 18.75,-2.6189942e-4 A 18.75,18.75 0 0 0 0,18.749739 L 0,381.25023 a 18.75,18.75 0 0 0 18.75,18.75 l 562.50001,0 a 18.75,18.75 0 0 0 18.75001,-18.75 l 0,-362.500491 A 18.75,18.75 0 0 0 581.25001,-2.6189942e-4 l -562.50001,0 z"
         style="fill:#00ffff;fill-opacity:1" />
    </clipPath>
    <radialGradient
       inkscape:collect="always"
       xlink:href="#linearGradient22338"
       id="radialGradient6127"
       cx="1070"
       cy="700.00079"
       fx="1070"
       fy="700.00079"
       r="40"
       gradientUnits="userSpaceOnUse"
       gradientTransform="matrix(-1,0,0,1,-170,-99.999203)" />
    <linearGradient
       inkscape:collect="always"
       xlink:href="#linearGradient6136"
       id="linearGradient6142"
       x1="780"
       y1="373.3338"
       x2="800"
       y2="373.3338"
       gradientUnits="userSpaceOnUse"
       gradientTransform="matrix(1,0,0,0.92646923,-2000,44.118511)" />
    <linearGradient
       inkscape:collect="always"
       xlink:href="#linearGradient6136"
       id="linearGradient6152"
       x1="410"
       y1="620.00079"
       x2="410"
       y2="640.00079"
       gradientUnits="userSpaceOnUse"
       gradientTransform="translate(-2000,0)" />
    <radialGradient
       inkscape:collect="always"
       xlink:href="#linearGradient22338"
       id="radialGradient6156"
       gradientUnits="userSpaceOnUse"
       gradientTransform="translate(-3030,-99.9992)"
       cx="1070"
       cy="700.00079"
       fx="1070"
       fy="700.00079"
       r="40" />
    <linearGradient
       inkscape:collect="always"
       xlink:href="#linearGradient6136"
       id="linearGradient6160"
       gradientUnits="userSpaceOnUse"
       x1="780"
       y1="373.3338"
       x2="800"
       y2="373.3338"
       gradientTransform="matrix(1,0,0,0.92646923,1200,44.118511)" />
    <linearGradient
       inkscape:collect="always"
       xlink:href="#linearGradient6136"
       id="linearGradient6164"
       gradientUnits="userSpaceOnUse"
       x1="410"
       y1="620.00079"
       x2="410"
       y2="640.00079"
       gradientTransform="translate(-2000,-780.00157)" />
    <radialGradient
       inkscape:collect="always"
       xlink:href="#linearGradient22338"
       id="radialGradient6174"
       gradientUnits="userSpaceOnUse"
       gradientTransform="matrix(-1,0,0,-1,-170.00003,880.00078)"
       cx="1070"
       cy="700.00079"
       fx="1070"
       fy="700.00079"
       r="40" />
    <radialGradient
       inkscape:collect="always"
       xlink:href="#linearGradient22338"
       id="radialGradient6176"
       gradientUnits="userSpaceOnUse"
       gradientTransform="matrix(1,0,0,-1,-3030,880.00078)"
       cx="1070"
       cy="700.00079"
       fx="1070"
       fy="700.00079"
       r="40" />
    <linearGradient
       inkscape:collect="always"
       xlink:href="#linearGradient22506"
       id="linearGradient6209"
       x1="2050"
       y1="-120.00079"
       x2="2560"
       y2="-630.00079"
       gradientUnits="userSpaceOnUse"
       gradientTransform="matrix(1,0,0,0.93877538,-4000,-37.95931)" />
    <filter
       style="color-interpolation-filters:sRGB"
       inkscape:label="Blur"
       id="filter6223">
      <feGaussianBlur
         stdDeviation="2 2"
         result="blur"
         id="feGaussianBlur6225" />
    </filter>
    <filter
       style="color-interpolation-filters:sRGB"
       inkscape:label="Blur"
       id="filter15556">
      <feGaussianBlur
         stdDeviation="2 2"
         result="blur"
         id="feGaussianBlur15558" />
    </filter>
    <filter
       style="color-interpolation-filters:sRGB"
       inkscape:label="Blur"
       id="filter4960">
      <feGaussianBlur
         stdDeviation="2 2"
         result="blur"
         id="feGaussianBlur4962" />
    </filter>
    <filter
       style="color-interpolation-filters:sRGB"
       inkscape:label="Blur"
       id="filter4966">
      <feGaussianBlur
         stdDeviation="2 2"
         result="blur"
         id="feGaussianBlur4968" />
    </filter>
    <filter
       style="color-interpolation-filters:sRGB"
       inkscape:label="Blur"
       id="filter4970">
      <feGaussianBlur
         stdDeviation="2 2"
         result="blur"
         id="feGaussianBlur4972" />
    </filter>
    <clipPath
       clipPathUnits="userSpaceOnUse"
       id="clipPath6446">
      <rect
         style="fill:#d70000;fill-opacity:1"
         id="rect6448"
         width="640"
         height="401.38315"
         x="0"
         y="-401.38315"
         transform="scale(1,-1)"
         ry="32.110649" />
    </clipPath>
  </defs>
  <g
     id="g6450"
     transform="translate(80,-91.000793)">
    <rect
       style="fill:#000000;fill-opacity:1;filter:url(#filter4970)"
       id="rect6199"
       width="800"
       height="500"
       x="-1000"
       y="-641.00079"
       transform="matrix(1,0,0,-1,1000,0)"
       ry="40" />
    <g
       clip-path="url(#clipPath6446)"
       transform="matrix(1.25,0,0,1.2456926,0,140.00077)"
       id="g4154">
      <rect
         style="opacity:1;fill:#ffffff;fill-opacity:1;stroke:none;stroke-width:2;stroke-linecap:butt;stroke-linejoin:round;stroke-miterlimit:4;stroke-dasharray:none;stroke-opacity:1"
         id="rect2510"
         width="640"
         height="401.38315"
         x="0"
         y="0" />
      <path
         inkscape:connector-curvature="0"
         style="fill:#ff0000"
         d="m 588.67827,81.399422 0.91119,-7.80825 -2.21536,7.62306 c -4.62741,15.923263 -17.8014,29.501088 -31.29176,32.250548 -10.03552,2.04528 -18.8877,5.28504 -22.39537,8.19619 -2.19464,1.82147 -3.01409,1.75462 -5.44388,-0.44425 -1.8442,-1.66886 -5.65797,-2.58847 -10.73504,-2.58847 -6.9618,0 -8.29114,0.56388 -11.4714,4.86496 -1.97824,2.67574 -3.99124,4.47071 -4.47304,3.98882 -0.48192,-0.4819 0.0234,-1.96002 1.12266,-3.28472 1.46159,-1.76095 1.50051,-2.40858 0.14465,-2.40858 -1.01986,0 -2.83163,2.33874 -4.02584,5.19714 -2.68502,6.42647 -9.97446,13.06748 -13.54964,13.06748 -10.99748,-3.86456 -12.44474,-21.0055 -25.02488,-21.9083 -4.2546,0.21448 -4.2557,0.21769 -0.31904,0.93421 5.4461,0.99117 7.52206,6.73514 14.46915,15.59031 43.76457,55.78337 104.82803,6.96471 114.2976,-53.270148 z"
         id="path2508"
         sodipodi:nodetypes="cccsssssssssssssc" />
      <path
         inkscape:connector-curvature="0"
         style="fill:#ff0000"
         d="M 326.50627,347.16812 C 257.38696,348.12023 166.814,300.86766 138.95437,234.15834 136.29344,226.5379 132.427,219.44213 129.46232,211.95004 120.60038,198.86008 112.13173,184.27071 100.97945,172.9775 74.852441,146.41246 50.112518,114.5932 48.53823,75.956408 c 0.0843,-3.10337 1.074534,0.678674 2.334979,8.396033 10.393026,63.493909 72.094891,105.818149 116.144171,51.764259 2.92969,-3.59533 5.60264,-8.92678 7.34789,-10.88233 3.21722,-3.60462 8.94355,-4.86937 8.94355,-1.97533 0,0.86916 -1.7657,1.58025 -3.92379,1.58025 -3.14164,0 -4.7544,1.63847 -8.08797,8.21714 -3.85116,7.59958 -19.99217,23.96287 -22.96586,24.9681 -2.47926,0.83804 -0.83466,2.81056 5.3479,6.0545 13.83503,7.25895 18.61769,10.4315 33.02294,21.90536 15.38645,12.74543 33.55213,22.78978 54.0396,23.23726 18.42505,-3.8527 30.05887,-4.2447 41.26333,6.53615 5.90898,5.68555 17.74009,7.05693 37.9954,7.05693 20.25532,0 31.95004,-1.5165 37.99542,-7.05693 11.76298,-10.78085 22.83828,-10.38885 41.26331,-6.53615 20.88306,-0.11018 38.18339,-10.99174 54.03961,-23.23726 14.40528,-11.47386 19.18791,-14.64641 33.02294,-21.90536 6.18263,-3.24394 8.66496,-6.0545 5.3479,-6.0545 -3.13909,0 -19.11469,-17.36852 -22.96581,-24.9681 -3.33363,-6.57867 -4.94637,-8.21714 -8.08802,-8.21714 -2.15809,0 -3.92378,-0.71109 -3.92378,-1.58025 0,-2.89404 5.72626,-1.62929 8.94358,1.97533 1.74522,1.95555 5.05175,6.85261 7.34791,10.88233 49.35464,59.10657 107.28177,2.56013 117.12174,-51.764259 1.20137,-7.726743 2.25096,-11.499403 2.3352,-8.396033 -1.71825,38.539432 -28.18216,70.167402 -53.41911,97.021092 -10.70586,11.91842 -20.55571,24.98013 -28.48297,38.97254 -3.44396,7.27619 -6.12897,14.90514 -9.49192,22.2083 -34.61132,66.15702 -99.73473,114.24566 -174.5401,113.00978 z"
         id="path1972"
         sodipodi:nodetypes="csssssssssssssssssssssssssssssssc" />
      <path
         inkscape:connector-curvature="0"
         style="fill:#ffffff"
         d="m 267.06217,213.42651 c 1.46811,-6.26918 -8.97152,-3.69235 -5.44785,1.41195 1.51105,2.4259 5.75785,1.91902 5.44785,-1.41195 z"
         id="path1970" />
      <path
         inkscape:connector-curvature="0"
         style="fill:#ffffff"
         d="m 378.74942,213.96389 c 1.71529,-5.67686 -8.12865,-5.78359 -5.79096,0.34159 0.83812,3.00308 5.12651,2.55733 5.79096,-0.34159 z"
         id="path1968" />
      <path
         inkscape:connector-curvature="0"
         style="fill:#ff0000"
         d="m 51.521349,81.28947 -0.911068,-7.808256 2.215286,7.623052 c 4.627399,15.92326 17.801633,29.501134 31.291914,32.250584 10.035326,2.04528 18.887489,5.28502 22.395429,8.1962 2.19484,1.82148 3.01403,1.75459 5.44375,-0.44425 1.84387,-1.66889 5.65789,-2.5885 10.73496,-2.5885 6.96209,0 8.29164,0.56391 11.47154,4.86499 1.97817,2.67573 3.99104,4.47067 4.47291,3.98881 0.48188,-0.48188 -0.0233,-1.96001 -1.12271,-3.28472 -1.46143,-1.76097 -1.5004,-2.40859 -0.14468,-2.40859 1.02,0 2.83169,2.33874 4.02604,5.19717 2.68501,6.42644 9.97416,13.06745 13.54934,13.06745 10.99792,-3.86455 12.44483,-21.00547 25.02496,-21.90827 4.25471,0.21444 4.2561,0.21769 0.31899,0.93421 -5.44588,0.99115 -7.52192,6.73512 -14.46897,15.59029 -43.76472,55.78337 -104.828235,6.96471 -114.297691,-53.27017 z"
         id="path1966"
         sodipodi:nodetypes="cccsssssssssssssc" />
      <path
         inkscape:connector-curvature="0"
         style="fill:#ffffff"
         d="m 125.43302,154.09957 c 5.53173,-4.18895 2.05617,-7.16314 -8.0501,-6.88852 l -9.13594,0.24826 7.90135,0.93693 c 4.3456,0.5153 7.68192,1.64803 7.41358,2.51717 -0.2683,0.86913 -1.69044,1.38107 -3.16043,1.13763 -1.47011,-0.24344 -5.51737,-0.76405 -8.99396,-1.15689 l -6.32101,-0.71427 5.53079,1.68453 c 3.04214,0.9265 6.59752,2.29416 7.9015,3.03928 3.18476,1.82021 3.49622,1.78395 6.91422,-0.80412 z"
         id="path1964" />
      <path
         inkscape:connector-curvature="0"
         style="fill:#ffffff"
         d="m 105.08651,146.96279 c 0,-3.56055 -7.719432,-3.08948 -8.413299,0.5134 -0.449053,2.33178 0.303028,2.78551 3.928979,2.37038 2.70423,-0.30963 4.48432,-1.45427 4.48432,-2.88378 z"
         id="path1962" />
      <path
         inkscape:connector-curvature="0"
         style="fill:#ffffff"
         d="m 99.983643,147.5883 c 0.525107,-0.5251 1.888067,-0.58124 3.028967,-0.12475 1.26052,0.50445 0.88591,0.8789 -0.95484,0.95473 -1.66589,0.0686 -2.599228,-0.30488 -2.074127,-0.82998 z"
         id="path1960" />
      <path
         inkscape:connector-curvature="0"
         style="fill:#ffffff"
         d="m 115.06005,131.48516 c -0.54766,-4.72951 -6.02293,-7.15245 -6.02293,-2.66528 0,1.4476 -1.42231,4.44011 -3.16048,6.64997 -4.69759,5.97202 -3.88227,6.81413 3.25727,3.36459 5.43978,-2.62818 6.34303,-3.7483 5.92614,-7.34928 z"
         id="path1958" />
      <path
         inkscape:connector-curvature="0"
         style="fill:#ffffff"
         d="m 88.466932,133.48261 c -3.732542,-6.6455 -4.018973,-12.26218 -0.763127,-14.96431 2.830786,-2.34934 3.063914,-1.06765 0.540721,2.97264 -1.074084,1.71988 -1.308837,4.15816 -0.568482,5.90445 1.080614,2.54892 1.419548,2.27636 2.367602,-1.90389 0.608533,-2.68329 1.571413,-5.63102 2.139671,-6.55051 1.502643,-2.43132 -3.703147,-3.95874 -6.260034,-1.83673 -4.240738,3.51951 -0.743771,21.95728 4.164469,21.95728 0.831971,0 0.102595,-2.51051 -1.62082,-5.57893 z"
         id="path1956" />
      <path
         inkscape:connector-curvature="0"
         style="fill:#ffffff"
         d="m 103.92473,134.48562 c 3.26726,-4.419 3.27989,-4.60296 0.37294,-5.36312 -1.65553,-0.43295 -3.30252,0.0262 -3.65977,1.02037 -0.35724,0.99414 -1.688629,3.60006 -2.446497,2.88876 -0.760097,-0.71339 0.656619,-4.88631 2.644277,-6.3856 1.98187,-1.4948 3.10316,-3.21777 2.49203,-3.82884 -0.61095,-0.61101 -2.19839,-0.22826 -3.527444,0.85065 -2.013939,1.63472 -2.252241,1.5226 -1.430364,-0.67305 1.073567,-2.86805 -2.814271,-5.37314 -4.387753,-2.82724 -0.513714,0.83121 -0.104835,1.51124 0.908586,1.51124 1.016012,0 1.420422,1.10013 0.901498,2.45245 -0.538888,1.40431 -0.274454,2.04044 0.618672,1.48847 0.857875,-0.53022 1.448166,0.32176 1.311755,1.89323 -0.495143,5.70453 0.282027,11.5486 1.535823,11.5486 0.705682,0 2.805487,-2.05917 4.666247,-4.57592 z"
         id="path1954"
         sodipodi:nodetypes="csssssssssssssc" />
      <path
         inkscape:connector-curvature="0"
         style="fill:#ffffff"
         d="m 92.740191,126.7962 c -0.395508,-1.51086 -0.704776,0.0974 -0.687248,3.57397 0.01754,3.47654 0.341167,4.71271 0.719145,2.74699 0.377976,-1.96567 0.363606,-4.8101 -0.0319,-6.32096 z"
         id="path1952" />
      <path
         inkscape:connector-curvature="0"
         style="fill:#ffffff"
         d="m 127.43571,127.20966 c -1.30361,-1.30369 -2.75452,-2.37037 -3.22366,-2.37037 -0.46957,0 -0.44399,1.06668 0.0561,2.37037 0.50042,1.30371 1.95091,2.3704 3.22383,2.3704 2.00686,0 1.99957,-0.31454 -0.0563,-2.3704 z"
         id="path1950" />
      <path
         inkscape:connector-curvature="0"
         style="fill:#ffffff"
         d="m 521.10856,154.99786 c 1.5092,-0.79553 5.23264,-2.20501 8.27491,-3.1322 l 5.53068,-1.68578 -6.32081,0.71427 c -3.47677,0.39284 -7.52392,0.91345 -8.99402,1.15689 -1.46998,0.24344 -2.8921,-0.2685 -3.16045,-1.13763 -0.26852,-0.86914 3.06801,-2.00187 7.4134,-2.51717 l 7.90154,-0.93693 -9.13603,-0.24826 c -10.10625,-0.27462 -13.58172,2.69957 -8.0502,6.88852 3.59261,2.7203 3.18934,2.66492 6.54098,0.89829 z"
         id="path1946" />
      <path
         inkscape:connector-curvature="0"
         style="fill:#ffffff"
         d="m 543.30817,147.376 c -0.61185,-3.17809 -5.61658,-4.61291 -7.95013,-2.27935 -2.37619,2.37636 -6.1e-4,5.02664 4.50603,5.02664 2.92337,0 3.83351,-0.7259 3.4441,-2.74729 z"
         id="path1944" />
      <path
         inkscape:connector-curvature="0"
         style="fill:#ffffff"
         d="m 536.13227,147.5883 c 0.52526,-0.5251 1.88829,-0.58124 3.0288,-0.12475 1.26055,0.50445 0.88613,0.8789 -0.95478,0.95473 -1.66584,0.0686 -2.59897,-0.30488 -2.07402,-0.82998 z"
         id="path1942" />
      <path
         inkscape:connector-curvature="0"
         style="fill:#ffffff"
         d="m 534.40673,135.9456 c -1.89348,-2.56153 -3.44301,-5.80494 -3.44301,-7.20757 0,-4.43614 -5.48312,-1.91382 -6.02563,2.77167 -0.41483,3.58913 0.47061,4.74229 5.53136,7.2052 3.31374,1.61272 6.32996,2.69726 6.70294,2.41012 0.3725,-0.28716 -0.87165,-2.61789 -2.76566,-5.17942 z"
         id="path1940" />
      <path
         inkscape:connector-curvature="0"
         style="fill:#ffffff"
         d="m 542.27565,134.71586 c 0.1377,-2.39012 0.13874,-5.63144 0.002,-7.20292 -0.13629,-1.57147 0.45402,-2.42345 1.31213,-1.89323 0.89313,0.55197 1.15743,-0.0842 0.61871,-1.48847 -0.51936,-1.35232 -0.11482,-2.45245 0.90134,-2.45245 1.0133,0 1.42241,-0.68003 0.90871,-1.51124 -1.57371,-2.5459 -5.46157,-0.0408 -4.38799,2.82724 0.82199,2.19565 0.58345,2.30777 -1.43016,0.67305 -1.32912,-1.07891 -2.9167,-1.46166 -3.5275,-0.85065 -0.61131,0.61107 0.51017,2.33404 2.49188,3.82884 1.988,1.49929 2.98523,3.29772 2.22526,4.01111 -0.75781,0.71131 -1.6704,0.47987 -2.02724,-0.51427 -0.35751,-0.99416 -2.0044,-1.45332 -3.65987,-1.02037 -2.90704,0.76016 -2.89447,0.94412 0.3728,5.36312 4.23185,5.72359 5.87966,5.7848 6.1997,0.23024 z"
         id="path1938" />
      <path
         inkscape:connector-curvature="0"
         style="fill:#ffffff"
         d="m 553.83664,134.39927 c 2.99924,-5.7996 3.12601,-14.90065 0.24076,-17.29501 -2.55642,-2.12201 -7.76285,-0.59459 -6.25987,1.83673 0.56836,0.91949 1.53122,3.86722 2.13949,6.55051 0.94823,4.18025 1.28699,4.45281 2.36761,1.90389 0.74051,-1.74629 0.50559,-4.18457 -0.56849,-5.90445 -2.52301,-4.04029 -2.29005,-5.32198 0.54089,-2.97264 3.25601,2.70213 2.96925,8.31881 -0.76326,14.96431 -1.72327,3.06842 -2.45283,5.57893 -1.62086,5.57893 0.83197,0 2.5976,-2.09803 3.92373,-4.66227 z"
         id="path1936" />
      <path
         inkscape:connector-curvature="0"
         style="fill:#ffffff"
         d="m 547.85176,126.7962 c -0.39552,-1.51086 -0.70493,0.0974 -0.68728,3.57397 0.0176,3.47654 0.34137,4.71271 0.71929,2.74699 0.37811,-1.96567 0.36362,-4.8101 -0.032,-6.32096 z"
         id="path1934" />
      <path
         inkscape:connector-curvature="0"
         style="fill:#ffffff"
         d="m 515.73261,127.20966 c 0.49993,-1.30369 0.52572,-2.37037 0.056,-2.37037 -0.46907,0 -1.92003,1.06668 -3.22358,2.37037 -2.05579,2.05586 -2.06313,2.3704 -0.0563,2.3704 1.2729,0 2.72375,-1.06669 3.22392,-2.3704 z"
         id="path1929" />
    </g>
    <g
       transform="translate(2000,0)"
       id="g4983">
      <path
         style="opacity:0.603;fill:url(#radialGradient6127);fill-opacity:1"
         d="m -1200,600.00079 a 40,40 0 0 1 -40,40 l 0,-20 a 20,20 0 0 0 20,-20 l 20,0 z"
         id="path5058"
         inkscape:connector-curvature="0" />
      <rect
         style="opacity:0.603;fill:url(#linearGradient6142);fill-opacity:1"
         id="rect6134"
         width="20"
         height="420.00006"
         x="-1220"
         y="180.00079"
         ry="0" />
      <rect
         style="opacity:0.603;fill:url(#linearGradient6152);fill-opacity:1"
         id="rect6144"
         width="720"
         height="20"
         x="-1960"
         y="620.00079" />
      <path
         inkscape:connector-curvature="0"
         id="path6154"
         d="m -2000,600.00079 a 40,40 0 0 0 40,40 l 0,-20 a 20,20 0 0 1 -20,-20 l -20,0 z"
         style="opacity:0.603;fill:url(#radialGradient6156);fill-opacity:1" />
      <rect
         ry="0"
         y="180.00079"
         x="1980"
         height="420.00006"
         width="20"
         id="rect6158"
         style="opacity:0.603;fill:url(#linearGradient6160);fill-opacity:1"
         transform="scale(-1,1)" />
      <rect
         y="-160.00079"
         x="-1960"
         height="20"
         width="720"
         id="rect6162"
         style="opacity:0.603;fill:url(#linearGradient6164);fill-opacity:1"
         transform="scale(1,-1)" />
      <path
         inkscape:connector-curvature="0"
         id="path6166"
         d="m -1200,180.00079 a 40,40 0 0 0 -40,-40 l 0,20 a 20,20 0 0 1 20,20 l 20,0 z"
         style="opacity:0.603;fill:url(#radialGradient6174);fill-opacity:1" />
      <path
         style="opacity:0.603;fill:url(#radialGradient6176);fill-opacity:1"
         d="m -2000,180.00079 a 40,40 0 0 1 40,-40 l 0,20 a 20,20 0 0 0 -20,20 l -20,0 z"
         id="path6168"
         inkscape:connector-curvature="0" />
      <rect
         style="opacity:0.3;fill:url(#linearGradient6209);fill-opacity:1"
         id="rect6201"
         width="760"
         height="459.99994"
         x="-1980"
         y="-620.00073"
         ry="19.999943"
         transform="scale(1,-1)" />
    </g>
  </g>
</svg>
