<?xml version="1.0" encoding="UTF-8" standalone="no"?>
<svg id="svg4137" xmlns:rdf="http://www.w3.org/1999/02/22-rdf-syntax-ns#" xmlns="http://www.w3.org/2000/svg" height="1888.6" viewBox="0 0 3346.565 1888.5843" width="3346.6" version="1.1" xmlns:cc="http://creativecommons.org/ns#" xmlns:dc="http://purl.org/dc/elements/1.1/">
<defs id="defs4141">
<filter id="filter6669" style="color-interpolation-filters:sRGB" height="1.0336" width="1.0187" y="-.016787" x="-.0093372">
<feGaussianBlur id="feGaussianBlur6671" stdDeviation="12.781126"/>
</filter>
</defs>
<g id="g4158">
<path id="path6667" d="m168.39 30.675-33.106 0.26367-33.106 0.26172-0.625 7.5c-2.7451 32.939-31.559 62.331-66.195 67.525l-4.6797 0.70313v47.271 47.27l5.3047 0.66406c87.639 10.95 86.353 135.92-1.5547 151.01l-3.75 0.64453v40.26 40.26l7.25 1.2246c32.588 5.5036 52.666 26.888 60.043 51.945h1.6211c7.5354 37.886-12.641 81.409-60.779 91.064l-8.1348 1.6309v36.154 36.154l7.125 1.2226c84.85 14.55 84.231 135.48-0.7695 150.28l-6.3555 1.1074v36.396 36.396h2.3106c14.445 0 39.573 13.657 51.363 27.916 37.423 45.258 11.534 112.93-47.107 123.15l-6.5664 1.1445v40.172 40.172l8.75 1.791c64.937 13.295 84.777 94.403 32.811 134.14-10.728 8.2025-30.73 16.522-39.721 16.522-1.7487 0-1.8399 1.6026-1.8399 32.275v32.275l8.3516 1.7187c73.667 15.164 86.001 111.24 18.393 143.27-6.8649 3.2523-20.917 7.4629-24.904 7.4629-1.7563 0-1.8399 1.8372-1.8399 40.387v40.387l4.6797 0.7032c87.501 13.122 87.501 137.93 0 151.05l-4.6797 0.7031v32.137 32.135l10.25 0.1777c41.71 0.7219 77.649 34.737 77.734 73.572l0.0156 6.75h33.031c25.576 0 33.108-0.2821 33.373-1.25 0.1881-0.6875 0.8826-4.175 1.543-7.75 14.816-80.196 140.34-79.771 155.91 0.5274l1.6426 8.4667h37.205 37.203l0.6446-3.75c9.1379-53.208 65.77-81.661 114.95-57.75 23.808 11.576 36.816 29.364 42.963 58.75l0.5742 2.75h32.936 32.936l0.5957-3.75c13.59-85.611 141.56-87.912 157.7-2.8359l1.2481 6.5859h37.17 37.17l1.1485-6.6015c14.518-83.37 147.04-82.65 156.65 0.8515l0.6621 5.75h41.768 41.77l1.1719-6.75c14.481-83.357 144.77-82.633 156.79 0.8711l0.7735 5.3789 37.514 0.2618 37.512 0.2617 1.0761-6.8281c8.3364-52.942 76.344-80.993 122.17-50.393 19.714 13.163 35.197 37.11 35.197 54.438v2.7812l41.693-0.2597 41.695-0.2618 1.3672-7.5c9.4559-51.829 73.815-78.703 120.53-50.328 19.182 11.652 36.719 38.186 36.719 55.559v2.7695h37.455 37.455l0.6152-3.75c14.565-88.653 141.13-87.852 157.99 1l0.5215 2.75h41.438 41.434l0.6172-3.75c14.652-89.183 140.61-87.988 158.07 1.5l0.4375 2.25h41.463 41.463l0.5195-2.75c7.753-40.865 38.755-67.25 79.018-67.25 40.3 0 71.257 26.347 79.016 67.25l0.5215 2.75h41.463 41.463l0.5195-2.75c16.866-88.901 143.42-89.702 157.99-1l0.6153 3.75h37.205 37.205l1.6426-8.4667c15.548-80.17 141.31-80.595 155.92-0.5274 0.652 3.575 1.3413 7.0625 1.5293 7.75 0.265 0.9678 7.7881 1.25 33.328 1.25h32.984l0.6172-3.75c14.221-86.557 140.47-88.16 157.48-2l1.1367 5.75h36.785 36.785l0.6836-8.25c3.006-36.224 27.718-62.938 65.854-71.191l2.75-0.5957v-32.463-32.461l-2.75-0.5957c-40.097-8.6786-65.588-38-65.588-75.443 0-37.472 25.461-66.756 65.588-75.441l2.75-0.5957v-40.512c0-31.573-0.276-40.583-1.25-40.832-0.688-0.1758-4.4-1.0713-8.25-1.9882-77.675-18.498-77.295-130.95 0.5-147.62 3.025-0.6483 6.287-1.3962 7.25-1.6602 2.265-0.6214 2.756-65.15 0.5-65.727-0.688-0.1758-4.4-1.0713-8.25-1.9882-81.91-19.507-76.863-130.98 6.75-149.07l2.75-0.5957v-40.512c0-31.547-0.277-40.595-1.25-40.881-0.688-0.202-4.4-1.082-8.25-1.957-72.239-16.419-79.512-116.12-10.5-143.92 5.883-2.3703 8.377-3.1091 17.25-5.1075l2.75-0.6191v-36.512c0-28.347-0.28-36.596-1.25-36.881-0.688-0.202-4.4-1.0941-8.25-1.9824-79.578-18.36-76.705-132.17 3.75-148.56l5.75-1.1719v-36.461c0-28.306-0.28-36.543-1.25-36.828-0.688-0.202-4.3743-1.0912-8.1933-1.9765-44.63-10.345-63.242-52.943-56.359-90.004h1.3242c7.5004-24.307 27.131-45.231 58.728-51.738l5.75-1.1836v-40.701-40.701l-6.5039-1.2344c-81.999-15.555-81.409-132.26 0.7539-149.18l5.75-1.1836-0.01-47.18-0.01-47.18-8.7363-0.2168h-0.01c-39.588-0.9945-76.234-35.338-76.234-71.443v-4.8398h-41.5-41.5v3.543c0 92.315-150.89 95.886-158.68 3.7559l-0.6153-7.2988h-32.674-32.674l-1.1758 8.832c-11.773 88.423-143.65 89.722-157.99 1.5566l-1.6895-10.385h-36.75-36.75v3.543c0 92.358-150.89 95.929-158.68 3.7558l-0.6153-7.2988h-41.354-41.354v3.543c0 32.139-28.277 63.994-63.5 71.533-45.882 9.8209-95.5-27.203-95.5-71.26v-3.8164h-41.363-41.361l-0.6836 6.75c-9.2343 91.163-150.57 91.653-158.27 0.54882l-0.6153-7.2988h-41.207-41.207l-0.625 7.3848c-7.6273 90.231-150.71 90.223-158.34-0.01l-0.6231-7.375h-36.728-36.728l-0.625 3.125c-0.3437 1.7188-0.625 4.3355-0.625 5.8164 0 15.126-14.074 39.423-29.463 50.863-49.549 36.836-120.77 8.7422-128.69-50.766l-1.2051-9.0391h-40.703-40.703l-0.6015 2.25c-0.3317 1.2375-0.6097 3.7957-0.6172 5.6855-0.064 16.181-13.528 39.8-29.508 51.768-50.063 37.492-122.91 7.6125-129.09-52.953l-0.6894-6.75h-36.682-36.682l-1.1758 8.8301c-11.916 89.495-150.57 88.547-157.85-1.0801l-0.6289-7.75h-41.213-41.215l-0.6484 6.3301c-9.4334 92.073-158.63 90.764-158.63-1.3945v-4.9394h-37.5-37.5v5.3398c0 91.384-150.07 92.718-158.65 1.4102l-0.6348-6.75h-32.711-32.709l-0.6172 7.25c-8.17 91.024-159.08 88.464-159.08-2.953v-4.5527h-32.791-32.789l-1.6328 10.299c-14.023 88.403-151.44 86.17-157.54-2.5606l-0.5351-7.7637z" filter="url(#filter6669)"/>
<path id="path4687" d="m162.39 24.675-33.106 0.26367-33.105 0.26172-0.625 7.5c-2.7451 32.939-31.56 62.331-66.195 67.525l-4.6797 0.70313v47.271 47.27l5.3047 0.66406c87.639 10.95 86.353 135.92-1.5547 151.01l-3.75 0.64453v40.26 40.26l7.25 1.2246c32.588 5.5036 52.666 26.888 60.043 51.945h1.6211c7.5354 37.886-12.641 81.409-60.779 91.064l-8.1348 1.6309v36.154 36.154l7.125 1.2226c84.85 14.55 84.231 135.48-0.7695 150.28l-6.3555 1.1074v36.396 36.396h2.3106c14.445 0 39.573 13.657 51.363 27.916 37.423 45.258 11.534 112.93-47.107 123.15l-6.5664 1.1445v40.172 40.172l8.75 1.791c64.937 13.295 84.777 94.403 32.811 134.14-10.728 8.2025-30.73 16.522-39.721 16.522-1.7487 0-1.8399 1.6026-1.8399 32.275v32.275l8.3516 1.7187c73.667 15.164 86.001 111.24 18.393 143.27-6.8649 3.2523-20.917 7.4629-24.904 7.4629-1.7563 0-1.8399 1.8372-1.8399 40.387v40.387l4.6797 0.7032c87.501 13.122 87.501 137.93 0 151.05l-4.6797 0.7031v32.137 32.135l10.25 0.1777c41.71 0.7219 77.649 34.737 77.734 73.572l0.0156 6.75h33.031c25.576 0 33.108-0.2821 33.373-1.25 0.1881-0.6875 0.8826-4.175 1.543-7.75 14.816-80.196 140.34-79.771 155.91 0.5274l1.6426 8.4667h37.205 37.203l0.6446-3.75c9.1379-53.208 65.77-81.661 114.95-57.75 23.808 11.576 36.816 29.364 42.963 58.75l0.5742 2.75h32.936 32.936l0.5957-3.75c13.59-85.611 141.56-87.912 157.7-2.8359l1.2481 6.5859h37.17 37.17l1.1485-6.6015c14.518-83.37 147.04-82.65 156.65 0.8515l0.6621 5.75h41.768 41.77l1.1719-6.75c14.481-83.357 144.77-82.633 156.79 0.8711l0.7735 5.3789 37.514 0.2618 37.512 0.2617 1.0761-6.8281c8.3364-52.942 76.344-80.993 122.17-50.393 19.714 13.163 35.197 37.11 35.197 54.438v2.7812l41.693-0.2597 41.695-0.2618 1.3672-7.5c9.4559-51.829 73.815-78.703 120.53-50.328 19.182 11.652 36.719 38.186 36.719 55.559v2.7695h37.455 37.455l0.6152-3.75c14.565-88.653 141.13-87.852 157.99 1l0.5215 2.75h41.438 41.434l0.6172-3.75c14.652-89.183 140.61-87.988 158.07 1.5l0.4375 2.25h41.463 41.463l0.5195-2.75c7.753-40.865 38.755-67.25 79.018-67.25 40.3 0 71.257 26.347 79.016 67.25l0.5215 2.75h41.463 41.463l0.5195-2.75c16.866-88.901 143.42-89.702 157.99-1l0.6153 3.75h37.205 37.205l1.6426-8.4667c15.548-80.17 141.31-80.595 155.92-0.5274 0.652 3.575 1.3413 7.0625 1.5293 7.75 0.265 0.9678 7.7881 1.25 33.328 1.25h32.984l0.6172-3.75c14.221-86.557 140.47-88.16 157.48-2l1.1367 5.75h36.785 36.785l0.6836-8.25c3.006-36.224 27.718-62.938 65.854-71.191l2.75-0.5957v-32.463-32.461l-2.75-0.5957c-40.097-8.6786-65.588-38-65.588-75.443 0-37.472 25.461-66.756 65.588-75.441l2.75-0.5957v-40.512c0-31.573-0.276-40.583-1.25-40.832-0.688-0.1758-4.4-1.0713-8.25-1.9882-77.675-18.498-77.295-130.95 0.5-147.62 3.025-0.6483 6.287-1.3962 7.25-1.6602 2.265-0.6214 2.756-65.15 0.5-65.727-0.688-0.1758-4.4-1.0713-8.25-1.9882-81.91-19.507-76.863-130.98 6.75-149.07l2.75-0.5957v-40.512c0-31.547-0.277-40.595-1.25-40.881-0.688-0.202-4.4-1.082-8.25-1.957-72.239-16.419-79.512-116.12-10.5-143.92 5.883-2.3703 8.377-3.1091 17.25-5.1075l2.75-0.6191v-36.512c0-28.347-0.28-36.596-1.25-36.881-0.688-0.202-4.4-1.0941-8.25-1.9824-79.578-18.36-76.705-132.17 3.75-148.56l5.75-1.1719v-36.461c0-28.306-0.28-36.543-1.25-36.828-0.688-0.202-4.3743-1.0912-8.1933-1.9765-44.63-10.345-63.242-52.943-56.359-90.004h1.3242c7.5004-24.307 27.131-45.231 58.728-51.738l5.75-1.1836v-40.701-40.701l-6.5039-1.2344c-81.999-15.555-81.409-132.26 0.7539-149.18l5.75-1.1836-0.01-47.18-0.01-47.18-8.7363-0.2168h-0.01c-39.9-1.251-76.5-35.594-76.5-71.7v-4.8398h-41.5-41.5v3.543c0 92.315-150.89 95.886-158.68 3.7559l-0.6153-7.2988h-32.674-32.674l-1.1758 8.832c-11.773 88.423-143.65 89.722-157.99 1.5566l-1.6895-10.385h-36.75-36.75v3.543c0 92.358-150.89 95.929-158.68 3.7558l-0.6153-7.2988h-41.354-41.354v3.543c0 32.139-28.277 63.994-63.5 71.533-45.882 9.8209-95.5-27.203-95.5-71.26v-3.8164h-41.363-41.361l-0.6836 6.75c-9.2343 91.163-150.57 91.653-158.27 0.54882l-0.6153-7.2988h-41.207-41.207l-0.625 7.3848c-7.6273 90.231-150.71 90.223-158.34-0.01l-0.6231-7.375h-36.728-36.728l-0.625 3.125c-0.3437 1.7188-0.625 4.3355-0.625 5.8164 0 15.126-14.074 39.423-29.463 50.863-49.549 36.836-120.77 8.7422-128.69-50.766l-1.2051-9.0391h-40.703-40.703l-0.6015 2.25c-0.3317 1.2375-0.6097 3.7957-0.6172 5.6855-0.064 16.181-13.528 39.8-29.508 51.768-50.063 37.492-122.91 7.6125-129.09-52.953l-0.6894-6.75h-36.682-36.682l-1.1758 8.8301c-11.916 89.495-150.57 88.547-157.85-1.0801l-0.6289-7.75h-41.213-41.215l-0.6484 6.3301c-9.4334 92.073-158.63 90.764-158.63-1.3945v-4.9394h-37.5-37.5v5.3398c0 91.384-150.07 92.718-158.65 1.4102l-0.6348-6.75h-32.711-32.709l-0.6172 7.25c-7.77 91.28-158.68 88.72-158.68-2.697v-4.5527h-32.791-32.789l-1.6328 10.299c-14.023 88.403-151.44 86.17-157.54-2.5606l-0.5351-7.7637z" fill="#f2f2f2"/>
<g id="g4152" transform="matrix(2.9849 0 0 3.0538 1323.4 350.54)">
<rect id="rect4" height="500" width="1e3" y="-57.506" x="-383.89" fill="#ea0437"/>
<path id="path6" fill="#4189dd" d="m-383.89 442.49h1e3v-250"/>
<path id="path8" fill="#12ad2b" d="m-383.89-57.506h1e3v250"/>
<path id="path10" fill="#ffc726" d="m-153.64 311.66c-10.81 2.9849-17.008 11.372-16.849 19.285l53.211-0.21363c0.47814-8.5029-6.5171-16.367-17.167-19.464 52.098-1.0763 97.357-20.591 105.58-33.112-8.1387-3.5322-17.549 2.1527-24.257 0.84438 15.927-7.3614 63.646-38.248 55.888-71.36-6.0308 18.391-24.3 33.609-32.081 37.694 17.826-27.067 42.166-55.247 21.049-77.069 1.0662 12.648-8.037 26.567-12.057 27.612 10.34-28.599 20.206-64.507-2.1974-88.178 2.9421 8.5558 1.7539 32.691-2.2972 33.776-1.2472-19.447-4.5658-60.352-25.047-59.77 6.5048 5.7907 9.3513 21.596 9.4958 37.56-4.6675-10.936-9.9719-19.171-21.317-27.246-9.1784-17.602-25.509-32.186-41.841-42.634 1.8332 12.812 3.3511 22.921 21.24 36.209-9.3269-0.57988-18.652-18.261-28.62-18.752-7.9291-0.38252-14.151 7.1844-27.108 2.8302 1.4344 4.2769 7.4794 6.1712 8.7552 9.3351-2.7753 1.9167-9.3635-0.2991-14.841-3.1517 7.5344 10.263 19.209 16.298 29.12 14.261 11.787-2.2666 24.424-1.0682 36.478 5.7907-3.0785 1.5809-15.061 1.5708-22.75 0.60837 6.9891 7.0766 11.677 11.766 23.83 11.689 10.855-0.0712 16.546-5.7907 19.333-2.2483 6.808 8.0675 11.39 16.131 17.085 25.629-12.58 1.3897-8.7877-14.228-22.798-22.217-7.8721 16.294 9.0543 35.609 20.577 43.638 0.15464 12.247 1.9452 22.493 7.1396 31.818 3.5017 6.574 8.0288 13.303 6.3217 28.139-6.8975-5.0236-13.638-21.966-11.158-35.415-8.6331 2.3541-12.009 17.535-7.9393 25.177 3.0398 5.8171 5.0684 16.951 1.5626 21.928-3.4162 4.637-3.7743 4.1182-3.7296 14.07 0.12208 5.9555-3.2046 12.997-8.6229 17.907 1.1313-4.1955 2.4213-11.414 1.1679-15.927-4.283 7.2658-15.028 14.784-18.412 22.595-3.3226 7.8294-4.165 21.39-20.245 24.518-20.686 4.106-27.826 7.6911-41.137 13.138-1.4772-10.11 2.9442-31.194 11.398-29.991 8.2546 1.469 33.281-8.6229 24.329-29.706-1.7681 6.6452-7.6666 13.13-14.043 13.417 6.8894-8.9383 19.185-18.194 13.197-33.171-3.3287 6.3665-8.5639 14.007-16.503 18.306 8.511-16.31 0.98885-21.189-9.1174-7.7562-3.817 5.1823-6.1223 15.567-8.5476 28.756-3.9696-10.727-3.7072-24.847-8.4113-36.313-4.9137-12.399 6.5211-15.673 11.903-14.678 13.177 3.518 35.198 3.5159 33.562-18.253-5.691 7.3635-15.671 9.6382-26.449 6.987 12.104-8.8386 21.661-25.464 8.1733-34.144-0.44966 9.2048-7.573 19.525-17.083 24.278-2.2259-7.7663-2.2259-16.009-0.3174-25.045-5.3105 5.5892-9.1886 17.219-12.273 30.441-0.23196-13.069 2.2402-22.485 4.0734-29.515 2.7794-10.269 9.6871-3.5871 20.261-2.8302 10.184 0.57784 24.204-5.05 21.525-18.859-3.4772 5.4631-10.615 7.5893-17.907 7.0115 8.7796-5.3186 24.076-14.77 15.687-29.307-3.524 5.5058-4.6655 10.216-14.865 11.905 2.6715-6.1447 3.1151-14.833 11.032-18.275-14.123-2.8119-22.208 6.456-26.318 20.971-1.6664-10.063-3.6502-13.769-4.0449-21.13 7.6341-8.4785 8.4337-25.065-8.0939-28.774-0.98072 8.5558-0.68976 10.595 1.1903 17.561-7.7582-4.6085-18.693-7.1519-25.973-0.63481 4.932 5.3227 12.566 10.009 24.333 4.2036-2.7794 9.0929-10.009 7.5364-19.942 4.0693 6.0715 11.404 13.734 13.431 22.19 12.116 4.4274 11.673 4.6228 20.542-8.3157 37.542 0.59819-10.564-0.15259-18.434-8.5456-26.976-7.1926-7.044-13.038 0.30114-1.7986 15.962-6.8182-5.0216-14.536-15.213-16.859-25.403-2.2483 12.588-0.22381 27.425 6.7449 35.743-3.2962 3.522-7.044-0.37439-12.588-8.9912 2.0978 27.576 13.862 32.897 29.674 26.75 0.44966 15.136 0.44966 29.151 1.349 47.434-9.2191-13.262-20.906-23.155-27.427-25.627-2.0225 7.4184 5.6218 17.083 9.8926 22.479-6.5191-1.349-20.682-12.139-20.682-12.139-1.4243 12.289 14.464 23.679 24.729 28.774-12.064-0.52495-17.386-5.0948-25.179-12.588 0.15057 34.095 36.941 28.174 43.837 22.929 0.89934 16.786 2.1812 36.191 3.0805 52.977-10.401-1.8149-9.5833-4.9422-18.483-5.7663-24.701-0.9624-44.295-29.651-50.783-50.755-1.8617 3.4732-0.38456 7.1071-2.0876 11.374-4.0103-10.358-9.1336-23.736-16.005-29.963 1.7498 6.0389 1.935 12.175 1.3266 23.462-2.3582-7.3126-4.5516-9.5548-4.7103-18.139 0.15057-6.5903 6.3583-11.453 6.0145-20.723-0.25434-6.7673-6.4275-21.435-7.335-32.791-2.9889 11.687-4.8649 24.007-9.4429 31.242 2.2748-12.481 1.5455-21.093 5.3939-29.493 4.4458-8.8427 8.2262-16.737 5.2657-25.661-2.8384 3.4467-1.8617 6.5781-8.993 14.953-1.549-9.1072 9.2209-23.684 19.673-29.543 7.3716-3.8842 16.664-17.777 10.611-27.299-6.9321 4.9788-10.045 11.705-19.838 23.199 6.985-27.305 25.134-34.449 46.862-34.543 4.8079-0.0224 14.501-1.758 17.221-8.1204-6.1244 2.3643-13.366 2.6654-19.81 1.3754 4.6899-6.8853 14.566-5.9901 23.769-6.0308 7.219-0.0346 18.489-1.0133 23.045-11.294-8.8061 3.815-22.54 4.6085-31.187 1.9065 13.752-7.1254 35.293-7.8925 46.342-17.244-12.593-9.3981-44.104 2.1893-64.007 15.84 5.5628-5.0867 14.355-14.11 19.205-21.395-10.885-5.2189-38.415 25.279-47.898 43.399-9.0075 5.0867-12.611 13.061-16.108 18.625 4.7998-16.218 5.3084-27.987 9.3127-41.342-30.877 10.629-18.043 67.679-24.759 81.328 0.79047-15.069 0.15036-34.427-6.0536-44.409-9.5104 7.2556-10.278 49.959-1.349 85.511-3.2243-9.5141-9.31-18.395-11.262-29.975-14.075 25.671 8.2512 55.957 26.921 79.881-14.055-7.3207-27.952-23.067-37.08-36.268 2.5195 45.947 50.501 55.494 57.95 66.786-10.11-4.7062-29.439-14.019-37.641-4.2606 13.352 3.0825 24.002 6.6452 32.584 12.271 12.452 15.547 36.032 22.347 77.098 24.064z"/>
</g>
</g>
</svg>
