<?xml version="1.0" encoding="UTF-8" standalone="no"?>
<svg version="1.1" xmlns="http://www.w3.org/2000/svg" xmlns:xlink="http://www.w3.org/1999/xlink" viewBox="0 0 720 360">
	<defs>
		<linearGradient id="Flagcols" x1="0" x2="0" y1="0" y2="1" gradientUnits="objectBoundingBox">
			<stop offset="0" stop-color="#078930"/>
			<stop offset="0.3333333333" stop-color="#078930"/>
			<stop offset="0.3333333333" stop-color="#FCDD09"/>
			<stop offset="0.6666666667" stop-color="#FCDD09"/>
			<stop offset="0.6666666667" stop-color="#DA121A"/>
			<stop offset="1" stop-color="#DA121A"/>
		</linearGradient>
	</defs>

	<g id="ethiopiaflag">
		<title>Flag of Ethiopia</title>

		<rect fill="url(#Flagcols)" width="720" height="360"/>
		<g id="EthiopiaEmblem">
			<title>The Emblem of Ethiopia</title>
			<desc>Based on https://en.wikipedia.org/wiki/Emblem_of_Ethiopia</desc>

			<circle fill="#0F47AF" cx="360" cy="180" r="120"/>
			<path fill="#FCDD09" d="M268.699 150.334l11.011 8l56.137 0l-7.147 21.997l6.805 4.945l22.918-70.533l-4.206-12.945l-15.77 48.536l-69.748 0zm34.874 107.332l11.011-8l17.347-53.39l18.712 13.594l6.805-4.944l-59.999-43.592l-13.61 0l41.287 29.997l-21.553 66.335zm15.199-62.167l-49.455 16.069l-1.236-3.804l49.454-16.069l1.237 3.804zm16.983-52.271l-3.236 2.351l-30.564-42.069l3.236-2.351l30.564 42.069zm24.245-59.228l-4.206 12.944l17.348 53.39l-23.129 0l-2.6 8l74.163 0l11.011-8l-51.034 0l-21.553-66.334zm2 192l-4 0l0-52l4 0l0 52zm54.427-18.334l-4.205-12.945l-45.417-32.997l18.712-13.594l-2.599-8l-59.999 43.591l-4.206 12.945l41.287-29.997l56.427 40.997zm1.618-154.156l-30.564 42.069l-3.236-2.351l30.564-42.069l3.236 2.351zm33.256 46.824l-13.61 0l-45.416 32.997l-7.148-21.997l-8.411 0l22.917 70.533l11.011 8l-15.77-48.536l56.427-40.997zm0.618 57.43l-1.236 3.804l-49.455-16.069l1.237-3.804l49.454 16.069z"/>
		</g>
	</g>
</svg>
