<?xml version="1.0" encoding="UTF-8" standalone="no"?>
<!-- Created with Sodipodi ("http://www.sodipodi.com/") -->
<svg xmlns:inkscape="http://www.inkscape.org/namespaces/inkscape" xmlns:rdf="http://www.w3.org/1999/02/22-rdf-syntax-ns#" xmlns="http://www.w3.org/2000/svg" xmlns:cc="http://creativecommons.org/ns#" xmlns:dc="http://purl.org/dc/elements/1.1/" xmlns:sodipodi="http://sodipodi.sourceforge.net/DTD/sodipodi-0.dtd" xmlns:svg="http://www.w3.org/2000/svg" xmlns:ns1="http://sozi.baierouge.fr" id="svg556" inkscape:version="0.48.3.1 r9886" viewBox="0 0 992.13 496.06" sodipodi:version="0.32" version="1.1" sodipodi:docname="_svgclean2.svg" xmlns:xlink="http://www.w3.org/1999/xlink">
  <sodipodi:namedview id="base" inkscape:window-x="0" inkscape:window-y="0" inkscape:window-height="645" inkscape:window-maximized="0" inkscape:zoom="0.22425739" showgrid="false" inkscape:current-layer="svg556" inkscape:cx="372.04724" inkscape:cy="-30.120889" inkscape:window-width="674"/>
  <g id="g1267" transform="translate(0,-1.51e-4)">
    <path id="path688" inkscape:connector-curvature="0" style="fill-rule:evenodd;stroke-width:1pt;fill:#67b1ff" transform="translate(0,-1.5259e-5)" d="m0 0.00021792v496.06h992.13v-496.06l-992.13 0.00043584z"/>
    <rect id="rect962" style="fill-rule:evenodd;stroke-width:1pt;fill:#0000b4" height="248.03" width="496.06" y=".000151" x="0"/>
    <g id="g584" transform="matrix(8.2677,0,0,8.2677,0,3.2806e-4)">
      <path id="path146" style="stroke-width:1pt;fill:#ffffff" inkscape:connector-curvature="0" d="m0 0v3.3541l53.292 26.646h6.708v-3.354l-53.292-26.646h-6.708zm60 0v3.354l-53.292 26.646h-6.708v-3.354l53.292-26.646h6.708z"/>
      <path id="path136" style="stroke-width:1pt;fill:#ffffff" inkscape:connector-curvature="0" d="m25 0v30h10v-30h-10zm-25 10v10h60v-10h-60z"/>
      <path id="path141" style="stroke-width:1pt;fill:#cc0000" inkscape:connector-curvature="0" d="m0 12v6h60v-6h-60zm27-12v30h6v-30h-6z"/>
      <path id="path150" style="stroke-width:1pt;fill:#cc0000" inkscape:connector-curvature="0" d="m0 30 20-10h4.472l-20 10h-4.472zm0-30 20 10h-4.472l-15.528-7.7639v-2.2361zm35.528 10 20-10h4.472l-20 10h-4.472zm24.472 20-20-10h4.472l15.528 7.764v2.236z"/>
    </g>
    <g id="g901">
      <path id="path689" inkscape:connector-curvature="0" style="fill-rule:evenodd;stroke-width:1pt;fill:#ffffff" transform="translate(0,-1.5259e-5)" d="m687.5 121.06v125c18.75 87.5 51.56 100 93.75 125 42.19-25 75-37.5 93.75-125v-125h-187.5z"/>
      <path id="path694" inkscape:connector-curvature="0" sodipodi:nodetypes="cccccc" style="fill-rule:evenodd;stroke-width:1pt;fill:#da0000" d="m768.75 121.06 0.2 242.91 12.5 7.05 12.5-7.25-0.2-242.71h-25z"/>
      <path id="path693" inkscape:connector-curvature="0" sodipodi:nodetypes="ccccc" style="fill-rule:evenodd;stroke-width:1pt;fill:#da0000" d="m687.5 247.38 9.38 34.05 169.24-0.09 8.88-33.96h-187.5z"/>
      <rect id="rect566" style="fill-rule:evenodd;stroke-width:1pt;fill:#da0000" height="87.5" width="187.5" y="121.06" x="687.5"/>
      <g id="g910" transform="matrix(.25759 0 0 .30435 612.91 247.3)">
        <rect id="rect909" style="fill-rule:evenodd;stroke:#000000;stroke-width:.75;fill:#f6efec" rx="23.225" ry="27.989" height="55.978" width="46.45" y="-281.68" x="306.09"/>
        <path id="path908" style="fill-rule:evenodd;stroke:#000000;stroke-width:.875;fill:#ffff00" d="m850.4-296.57s47.64-3.57 64.31-22.63c16.67-19.05-11.31-53.59 6.55-57.17 7.15-0.59 17.27 1.79 25.01 11.32-1.19-7.15-5.95-11.32-7.74-15.48-6.55-5.96-13.1-5.36-22.63-5.36-6.55 1.19-7.74-1.2-18.46-13.7-5.36-5.96-5.36-20.84-1.19-30.97-12.51 9.53-10.12 22.63-8.93 25.61 2.97 13.1 5.95 16.67 5.95 22.63-3.57-1.79-10.12-17.27-44.07-19.65-33.94-2.39-119.7 23.82-158.4 23.82-38.71 0-94.69-16.08-94.69-16.08s14.29-11.32-2.98-16.08-55.38 16.67-66.1 4.76c-7.74-11.31-4.76-8.93-5.95-14.29-2.98 1.79-4.77 8.94-0.6 18.46 4.17 9.53 6.55 6.55 5.96 6.55-0.6 0-13.7 0-14.89 4.77-1.19 3.57-2.98 7.74 3.57 20.84 2.38-13.1-6.55-14.89 13.1-16.08s33.35 7.74 50.02 10.72c16.68 2.98 16.68-7.14 17.27-6.55 0.6 0.6 51.22 14.29 97.67 11.31 46.45-2.97 121.48-28.58 156.02-23.22s57.17 30.37 57.77 53.6c-0.6 14.29-15.49 21.43-27.39 23.82-14.3 2.38-47.65 5.95-47.65 5.95l18.47 13.1z" sodipodi:nodetypes="ccccccccccccccccccccccccccccc" inkscape:connector-curvature="0" transform="matrix(.87977 0 0 .69778 113.77 -89.63)"/>
        <path id="path900" style="fill-rule:evenodd;stroke:#000000;stroke-width:.5;fill:#ffff00" d="m683.06-248.92c-0.6 0-32.76 0.59-42.29 14.29-9.53 13.69-13.69 26.8-13.1 26.8 0.6 0 21.44-11.32 21.44-11.32s-15.48 22.63-7.15 42.88c8.34 20.25-22.01 19.05-39.5 19.65-7.74-5.96-32.48-16.08-41.3-17.87-5.5-2.08-16.32-2.35-27.61 10.35-6.65 7.83 9.89-7.37 26.29-6.18 1.78 1.79 2.92 3.58 3.24 7.74-8.75-0.59-17.84-10.72-28.56 10.13 10.72-7.15 12.06-7 17.49-7.45 7.24-0.53 6.31 3.28 6.01 3.28-1.19 0-4.14 0.6-8.62 4.76-2.38 2.98-8.33 9.53-7.14 9.53s4.75-3.57 10.32-6.55c3.49-2.38 6.8-2.38 17.33 0.6 57.76 13.69 88.73 3.57 92.3-1.79 1.79-2.38-33.35-69.67 60.15-87.54-1.19-0.6-39.3-10.72-39.3-11.31z" sodipodi:nodetypes="cccccccscccscccccccc" inkscape:connector-curvature="0" transform="matrix(.85464 0 0 1 231.25 -38.113)"/>
        <path id="path899" inkscape:connector-curvature="0" sodipodi:nodetypes="ccccccccccccccccccccccccccc" style="fill-rule:evenodd;stroke:#000000;stroke-width:.625;fill:#ffff00" d="m472.84-212.6c32.75 27.4 253.69-29.18 281.68-48.83 16.08-11.32 44.06-19.65 44.06 19.05 7.15-26.2 7.15-32.75 7.15-32.15 0.6 0.59 11.31 10.12 20.84 42.28 2.39-28.59-4.17-45.26-0.59-42.88 2.38-2.38 2.38 14.29 21.44 37.52-4.17-18.46-5.36-26.8-5.36-26.8s35.73 34.54 55.98 39.31c20.24 4.76 49.42-9.53 58.36-1.2 8.93 8.34 24.41 23.23 23.81 35.14-0.59 11.91-33.34 1.79-36.92 11.31-3.57 9.53 2.39 9.53 2.39 9.53s2.97 7.15 5.36 13.1c1.78-4.16-1.79-13.1 4.76-13.69 4.76 0.59 4.76 8.33 5.96 12.5 1.38-4.76-0.2-14.29 4.16-14.29 4.77-0.99 5.36 7.54 8.94 13.1v-13.1c13.69-4.17 25.64-4.76 27.34-13.7 1.8-8.93-20.8-29.18-26.16-42.28-5.35-13.1 4.17-18.46-5.95-25.6-10.12-7.15-48.83 11.31-66.69 4.16-17.87-7.14-10.72-58.36-78.02-69.67-67.29-11.32-249.52 59.55-281.68 62.53-32.15 2.98-71.46-10.13-71.46-10.13l0.6 54.79z"/>
        <path id="path892" style="fill-rule:evenodd;stroke:#000000;stroke-width:.5;fill:#ffff00" d="m420.43-263.22s-28.58-37.52-51.81-41.09c-23.22-2.97-45.85 14.29-50.62 11.91-4.76-2.38-6.55 0.6-9.52 5.96-2.98 5.36 0.59 8.93 0.59 8.34 1.19 0 4.17-8.94 5.36-9.53 1.19-0.6-5.95 10.72 1.19 11.91 2.38 0.59 3.58-8.34 6.55-11.91 0.6 0.59-4.76 12.5-1.78 13.1 2.97 0.59 6.55-11.91 11.91-14.89 7.74-5.36 19.05-7.15 33.35-7.15 14.29 4.17 43.47 38.71 46.45 38.12l8.33-4.77z" sodipodi:nodetypes="ccccccccccccc" inkscape:connector-curvature="0" transform="matrix(.98384 .22683 .17906 -1.2464 64.173 -655.73)"/>
        <path id="path891" style="fill-rule:evenodd;stroke:#000000;stroke-width:.5;fill:#ffff00" d="m420.43-263.22s-28.58-37.52-51.81-41.09c-23.22-2.97-45.85 14.29-50.62 11.91-4.76-2.38-6.55 0.6-9.52 5.96-2.98 5.36 0.59 8.93 0.59 8.34 1.19 0 4.17-8.94 5.36-9.53 1.19-0.6-5.95 10.72 1.19 11.91 2.38 0.59 3.58-8.34 6.55-11.91 0.6 0.59-4.76 12.5-1.78 13.1 2.97 0.59 6.55-11.91 11.91-14.89 7.74-5.36 19.05-7.15 33.35-7.15 14.29 4.17 43.47 38.71 46.45 38.12l8.33-4.77z" sodipodi:nodetypes="ccccccccccccc" inkscape:connector-curvature="0" transform="matrix(1,0,0,1.1289,11.315,42.241)"/>
        <path id="path887" inkscape:connector-curvature="0" sodipodi:nodetypes="cccccccccccccccccccc" style="fill-rule:evenodd;stroke:#000000;stroke-width:.5;fill:#ffff00" d="m417.46-267.98-31.57 15.48 23.23 5.96-16.68 19.05 23.82-7.74-1.78 25.61 13.7-16.68 8.93 23.23 9.53-17.27 11.31 19.06 4.76-18.46 13.7 18.46 4.77-25.02 16.67 15.49-2.38-26.21 20.25 6.56-12.51-20.25s22.03-1.19 20.84-1.19-16.67-13.1-30.37-16.68l-76.22 0.6z"/>
        <path id="path888" style="fill-rule:evenodd;stroke:#000000;stroke-width:.80806;fill:#ffff00" d="m417.46-267.98-31.57 15.48 23.23 5.96-16.68 19.05 23.82-7.74-1.78 25.61 13.7-16.68 8.93 23.23 9.53-17.27 11.31 19.06 4.76-18.46 13.7 18.46 4.77-25.02 16.67 15.49-2.38-26.21 20.25 6.56-12.51-20.25s22.03-1.19 20.84-1.19-16.67-13.1-30.37-16.68l-76.22 0.6z" sodipodi:nodetypes="cccccccccccccccccccc" inkscape:connector-curvature="0" transform="matrix(.54756 0 0 .56637 205.56 -123.01)"/>
        <path id="path901" inkscape:connector-curvature="0" style="fill-rule:evenodd;stroke:#000000;stroke-width:.5;fill:#ffff00" transform="translate(1.191,-1.5259e-5)" d="m441.87-316.81s-8.93-7.15-12.5 0c-3.58 7.14 7.74 4.17 7.74 5.36s-7.74 9.52-7.74 19.05 5.95 25.61 5.95 27.99 2.38 8.93 10.72 11.32c8.34 2.38 11.32-7.75 13.1-8.94 1.79-1.19 13.1 1.79 17.27-8.33 4.17-10.13 4.17-28.59 4.17-28.59s7.15 5.36 7.15-5.36-7.75 0-7.75 0 1.2-11.31-17.27-16.67c-18.46-5.36-20.24 5.36-20.84 4.17z"/>
        <path id="path893" style="fill-rule:evenodd;stroke:#000000;stroke-width:.54016;fill:#ffff00" d="m441.48-317.31c-2.38-4.83-9.14-23.32-9.14-23.32l16.21 6.94c-5.53-1.37-10.25-2.18-9.66-2.18 0.6 0 7.15 8.93 7.15 8.93 6.45-0.37 12.9 1.78 20.84 3.51 0 0 6.55-7.29 5.96-7.29-0.6 0-3.58-1.19-3.58-1.19l14.89-6.83-4.76 9.21h-2.98l-5.95 6.69c6.7 1.26 9.97 2.24 16.52 6.45 5.81-0.84 10.72-3.85 13.85-6.13-5.21-1.44-7.59-2.56-7-2.56 0.6 0 21.89 1.12 21.89 1.12s-20.89 12.92-33.1 17.65c-11.29-3.25-39.95-9.22-41.14-11z" sodipodi:nodetypes="cccccccccccccccccc" inkscape:connector-curvature="0" transform="matrix(.94169 -.015964 .033279 1.4162 35.5 137.73)"/>
        <rect id="rect903" style="fill-rule:evenodd;stroke-width:1pt;fill:#000000" rx="6.8653" ry="3.0767" transform="matrix(.90427 .42695 -.99418 -.10777 0 0)" width="13.731" y="-1416.1" x="-1065.8" height="6.1534"/>
        <rect id="rect904" style="fill-rule:evenodd;stroke-width:1pt;fill:#000000" rx="6.8653" ry="3.0767" transform="matrix(.90427 .42695 -.99418 -.10777 0 0)" width="13.731" y="-1419.6" x="-1050" height="6.1534"/>
        <rect id="rect905" style="fill-rule:evenodd;stroke-width:1pt;fill:#000000" rx="12.761" ry="5.9698" transform="matrix(.94659 .32243 -.99696 -.077966 0 0)" width="25.522" y="-1636.5" x="-1253.9" height="11.94"/>
        <rect id="rect906" style="fill-rule:evenodd;stroke-width:1pt;fill:#000000" rx="5.7808" ry="2.6743" transform="matrix(.93542 .35353 -.99626 -.086447 0 0)" width="11.562" y="-1565.8" x="-1186.4" height="5.3487"/>
        <rect id="rect907" style="fill-rule:evenodd;stroke-width:1pt;fill:#000000" rx="4.9308" ry="2.0464" transform="matrix(.32908 -.9443 .13645 .99065 0 0)" width="9.8615" y="734.39" x="1061.7" height="4.0928"/>
      </g>
      <g id="g695">
        <path id="path881" style="fill-rule:evenodd;stroke:#000000;stroke-width:.375;fill:#ff7300" d="m737.05 319.5c1.66 4.74 0.81 0-0.96 7.34 1.1-2.18 2.66-3.43 3.29-3.43 0.93 0 1.4 0 3.28 1.4-1.72-2.5-4.69-1.87-4.54-5.62-0.15-0.86-0.99 0.08-1.07 0.31z" sodipodi:nodetypes="cccccs" inkscape:connector-curvature="0" transform="matrix(1.0471,0,0,1.3894,-30.434,-120.97)"/>
        <rect id="rect760" style="fill-rule:evenodd;stroke:#000000;stroke-width:.10288;fill:#b2802e" rx=".68451" ry=".50573" transform="matrix(.81841 -.57463 .19718 .98037 0 0)" width="1.369" y="717.59" x="708.8" height="18.038"/>
        <path id="path785" style="fill-rule:evenodd;stroke:#000000;stroke-width:.375;fill:#ffffff" d="m734.06 312.16c0.78-0.47 6.56-11.1 34.06-9.54-15.62 5.32-25.31 16.57-27.65 17.04-1.72 0.46-5.47-5.78-6.41-7.5z" sodipodi:nodetypes="cccc" inkscape:connector-curvature="0" transform="matrix(.79486 0 0 .97816 152.8 3.9014)"/>
        <g id="g741" transform="matrix(.077554 -.15007 .49698 .3741 547.14 335.66)">
          <path id="path742" style="fill-rule:evenodd;stroke:#000000;stroke-width:.33302;fill:#007500" d="m-3819.3-4447.1-7.4-2.8 15.1 11.4-2.8-5.3-4.9-3.3z" sodipodi:nodetypes="ccccc" inkscape:connector-curvature="0" transform="matrix(3.178,-1.5262,-3.4237,1.1639,-2258.1,-426.8)"/>
          <path id="path743" style="fill-rule:evenodd;stroke:#000000;stroke-width:.33302;fill:#007500" d="m-3819.3-4447.1-5.3 0.2 12.7 7.6-2.5-4.5-4.9-3.3z" sodipodi:nodetypes="ccccc" inkscape:connector-curvature="0" transform="matrix(3.5127 -.40025 -3.6221 -.021804 -1862.5 -1401.1)"/>
          <path id="path744" style="fill-rule:evenodd;stroke:#000000;stroke-width:.33302;fill:#007500" d="m-3819.9-4447.6 4.6 7.4 4.4 1.3-3.5-4.9-5.5-3.8z" sodipodi:nodetypes="ccccc" inkscape:connector-curvature="0" transform="matrix(-2.6372,-2.3184,2.3892,2.6793,1392,3285)"/>
          <path id="path745" style="fill-rule:evenodd;stroke:#000000;stroke-width:.33302;fill:#007500" d="m-3821.8-4448.7 17.5 22.4-6.7-12.5-3.4-5-7.4-4.9z" sodipodi:nodetypes="ccccc" inkscape:connector-curvature="0" transform="matrix(-3.4904 -.55765 3.4788 .99308 2977.8 2508.4)"/>
          <path id="path746" style="fill-rule:evenodd;stroke:#000000;stroke-width:.33302;fill:#007500" d="m-3822.2-4449.9-12.5-6.5 24.1 18.7-3.8-6.1-7.8-6.1z" sodipodi:nodetypes="ccccc" inkscape:connector-curvature="0" transform="matrix(3.2054,1.4696,-3.074,-1.8856,-598.79,-2550.3)"/>
          <path id="path747" style="fill-rule:evenodd;stroke:#000000;stroke-width:.33302;fill:#007500" d="m-3823.5-4450.2-5.2-1.2 17.8 13.3-3.5-5.7-9.1-6.4z" sodipodi:nodetypes="ccccc" inkscape:connector-curvature="0" transform="matrix(2.2844,2.6564,-1.988,-2.9799,713.89,-2886)"/>
          <path id="path748" style="fill-rule:evenodd;stroke:#000000;stroke-width:.33302;fill:#007500" d="m-3824.7-4451.7-13.4-9.8 24.4 21-0.7-3.3-10.3-7.9z" sodipodi:nodetypes="ccccc" inkscape:connector-curvature="0" transform="matrix(.37924 3.46 .05045 -3.5644 2504.7 -2418.4)"/>
          <path id="path749" style="fill-rule:evenodd;stroke:#000000;stroke-width:.33302;fill:#007500" d="m-3822.2-4449.3 10.6 14.4 1.7-2.6-4.5-6.3-7.8-5.5z" sodipodi:nodetypes="ccccc" inkscape:connector-curvature="0" transform="matrix(-1.7431,3.0279,2.1539,-2.866,3756.5,-963.26)"/>
          <path id="path750" style="fill-rule:evenodd;stroke:#000000;stroke-width:.33302;fill:#007500" d="m-3820.2-4447 15.6 19.2-3.3-7.7-6.5-8.3-5.8-3.2z" sodipodi:nodetypes="ccccc" inkscape:connector-curvature="0" transform="matrix(-2.682,2.2681,3.0128,-1.9788,3991.9,81.022)"/>
          <path id="path751" style="fill-rule:evenodd;stroke:#000000;stroke-width:.33302;fill:#007500" d="m-3821-4448.7 12.2 17.1-0.1-5.3-5.5-6.9-6.6-4.9z" sodipodi:nodetypes="ccccc" inkscape:connector-curvature="0" transform="matrix(-3.4114 .91629 3.5841 -.51526 3749.2 1428)"/>
          <path id="path752" style="fill-rule:evenodd;stroke:#000000;stroke-width:.33302;fill:#007500" d="m-3818.9-4446.9 2 4.3 4.3 2.1-1.8-3.3-4.5-3.1z" sodipodi:nodetypes="ccccc" inkscape:connector-curvature="0" transform="matrix(2.2975,-2.6455,-2.6694,2.4095,-2265,838.98)"/>
          <path id="path753" style="fill-rule:evenodd;stroke:#000000;stroke-width:.33302;fill:#007500" d="m-3819.3-4447.1v5.7l6.7 1.4-1.8-3.8-4.9-3.3z" sodipodi:nodetypes="ccccc" inkscape:connector-curvature="0" transform="matrix(1.6877 -1.2717 -1.8182 .96978 -807.24 -319.88)"/>
          <path id="path754" style="fill-rule:evenodd;stroke:#000000;stroke-width:.33302;fill:#007500" d="m-3819.3-4447.1v5.7l6.7 1.4-1.8-3.8-4.9-3.3z" sodipodi:nodetypes="ccccc" inkscape:connector-curvature="0" transform="matrix(-1.7023,-1.4301,1.3594,1.5963,381.49,1860.1)"/>
          <path id="path755" style="fill-rule:evenodd;stroke:#000000;stroke-width:.33302;fill:#007500" d="m-3819.3-4447.1v5.7l6.7 1.4-1.8-3.8-4.9-3.3z" sodipodi:nodetypes="ccccc" inkscape:connector-curvature="0" transform="matrix(1.8936,1.1287,-1.795,-1.3772,80.698,-1592.5)"/>
          <path id="path756" style="fill-rule:evenodd;stroke:#000000;stroke-width:.33302;fill:#007500" d="m-3819.3-4447.1 15.7 18.9-10.2-13.7-0.6-1.9-4.9-3.3z" sodipodi:nodetypes="ccccc" inkscape:connector-curvature="0" transform="matrix(-2.0834 .8264 2.2338 -.61096 2813.4 659.36)"/>
          <path id="path757" style="fill-rule:evenodd;stroke:#000000;stroke-width:.33302;fill:#007500" d="m-3819.3-4447.1 11 13.1-4.3-6-1.8-3.8-4.9-3.3z" sodipodi:nodetypes="ccccc" inkscape:connector-curvature="0" transform="matrix(-.67839 3.4155 1.1202 -3.39 3224 -1814.7)"/>
          <path id="path758" style="fill-rule:evenodd;stroke:#000000;stroke-width:.33302;fill:#007500" d="m-3819.3-4447.1-14.4-12.6 18.3 16.8 1-0.9-4.9-3.3z" sodipodi:nodetypes="ccccc" inkscape:connector-curvature="0" transform="matrix(2.394,2.5613,-2.1114,-2.8965,583.34,-2880.2)"/>
          <path id="path759" style="fill-rule:evenodd;stroke:#000000;stroke-width:.33302;fill:#007500" d="m-3819.3-4447.1v5.7l6.7 1.4-1.8-3.8-4.9-3.3z" sodipodi:nodetypes="ccccc" inkscape:connector-curvature="0" transform="matrix(2.2059 -1.0764 -2.3765 .82088 -1312.4 -235.44)"/>
        </g>
        <path id="path876" style="fill-rule:evenodd;stroke:#000000;stroke-width:.375;fill:#ffffff" d="m759.39 305.01c-3.24 1.07-4.83 1.58-6.47 1.79 0.84 0.35 2.69 0.14 4.81 0.71-1.89 0.04-5.38 1.48-6.83 1.51 1.01 0.6 4.58 0.02 5.24 0.18-1.91 0.12-4.99 1.6-6.91 1.6-0.87 0.67 4.46-0.46 6.61 0.81-2.22-0.12-6.52 1.16-8.86 0.85 1.78 1.04 4.96-0.11 7.61 1.02-0.77 0.08-6.91 0.77-9.09 0.44 1.3 0.65 5.22 0.55 6.18 1.12-1.62-0.21-5.93 0.69-7.42 0.34 1.34 0.97 5.41 0.42 6.16 1-2.66 0.93-6.69 0.19-8.54 0.44 1.24 0.58 2.27 1.17 3.37 1.71 1.6 1.13 6.61 4.3 9.6 5.25-3.31-0.44-4.47-0.49-6.61-0.67l4.87 5.16c-2.03-1.09-5.61-3.16-7.99-4.23-5.26-2.57-9.06-2.13-12.7-4.31-5.12-4.97-7.97-10.89-8.22-12.46-0.26-1.58-0.48-4.41-5.16-2.94 4.51-0.58 6.41-5.79 6.76-5.58 0.16 0.09 0.58 3.48 1.64 4.85 0.7 0.99 6.71 4.35 7.7 4.53 8.95-5.31 16.2-5.97 24.25-3.12z" sodipodi:nodetypes="ccccccccccccccccccccccccccc" inkscape:connector-curvature="0" transform="matrix(1.0471,0,0,1.3894,-29.616,-119.66)"/>
      </g>
      <g id="g829" transform="translate(2.7708,-1.5259e-5)">
        <rect id="rect607" style="fill-rule:evenodd;stroke:#000000;stroke-width:.25;fill:#e4cc00" rx="1.3908" ry="5.5633" transform="matrix(.71096 .70323 -.70323 .71096 0 0)" width="2.7816" y="-352.62" x="802.37" height="11.127"/>
        <path id="path574" style="fill-rule:evenodd;stroke:#000000;stroke-width:.25;fill:#006000" d="m801.33 335.45c-0.21-1.18-0.35-1.77 0.25-3.31 0.86-1.08 1.31-2.04 2.89-3.16 1.71-0.56 2.29-0.06 4.53-2.13 0.72-1.37 1.82-2.41 2.44-3.89 1.46-2.17 1.95-3.25 3.12-4.92 1.55-1.74 2.8-3.3 3.71-4.64 0.97-1.71 1.84-2.77 3.25-4.17 0.56-1.61 1.78-2.8 3.24-4.17 1.11-2.04 3.25-4.36 4.17-6.03 1.65-1.88 2.29-2.7 3.71-4.64 1.26-0.83 3.37-2.64 5.1-3.24 2.36-0.99 3.62-1.97 5.18-0.47 1.02 1.03 2.87 2.68 1.58 3.9-0.67 0.75-1.78 0.84-3.05 0.28-1.31-0.85-1.95-3.32-3.71-1.39-1.27 1.45-1.92 2.61-3.71 4.17-0.88 1.3-1.52 2.28-2.31 4.17-1.05 1.21-1.92 2.57-2.79 4.64-1.12 0.93-2.09 2.77-2.78 4.17-1.11 1.16-1.91 2.36-2.78 4.17-1.75 1.68-2.41 3.1-3.71 4.17-0.86 1.82-2.22 3.56-3.24 4.64-0.82 1.32-1.62 2.7-2.32 4.17-1.48 1.51-1.54 1.83-3.71 4.17-1.81 2.36-1.2 2.08-4.03 4.81-1.54 0.51-3.1 0.68-5.03-1.3z" sodipodi:nodetypes="ccccccccccccccccccccccccccc" inkscape:connector-curvature="0" transform="translate(-6.3109,-1.1154)"/>
        <rect id="rect600" style="fill-rule:evenodd;stroke:#000000;stroke-width:.25;fill:#e4cc00" rx="1.3908" ry="5.5633" transform="matrix(.92608 .37732 -.37732 .92608 0 0)" width="2.7816" y="-20.84" x="862.29" height="11.127"/>
        <rect id="rect601" style="fill-rule:evenodd;stroke:#000000;stroke-width:.25;fill:#e4cc00" rx="1.3908" ry="5.5633" transform="rotate(24.033)" width="2.7816" y="-48.488" x="863.44" height="11.127"/>
        <rect id="rect603" style="fill-rule:evenodd;stroke:#000000;stroke-width:.25;fill:#e4cc00" rx="1.3908" ry="5.5633" transform="matrix(.81058 .58564 -.58563 .81058 0 0)" width="2.7816" y="-224.52" x="840.48" height="11.127"/>
        <rect id="rect605" style="fill-rule:evenodd;stroke:#000000;stroke-width:.25;fill:#e4cc00" rx="1.3908" ry="5.5633" transform="matrix(.6491 .7607 -.7607 .6491 0 0)" width="2.7816" y="-420.33" x="773.6" height="11.127"/>
        <rect id="rect606" style="fill-rule:evenodd;stroke:#000000;stroke-width:.25;fill:#e4cc00" rx="1.3908" ry="5.5633" transform="matrix(.70142 .71274 -.71274 .70142 0 0)" width="2.7816" y="-363.86" x="799.69" height="11.127"/>
        <rect id="rect608" style="fill-rule:evenodd;stroke:#000000;stroke-width:.25;fill:#e4cc00" rx="1.3908" ry="5.5633" transform="matrix(.81058 .58564 -.58563 .81058 0 0)" width="2.7816" y="-224.23" x="844.16" height="11.127"/>
        <rect id="rect609" style="fill-rule:evenodd;stroke:#000000;stroke-width:.25;fill:#e4cc00" rx="1.3908" ry="5.5633" transform="matrix(.81058 .58564 -.58563 .81058 0 0)" width="2.7816" y="-224.62" x="842.29" height="11.127"/>
        <g id="g586" transform="translate(-6.3109,-1.1154)">
          <rect id="rect575" style="fill-rule:evenodd;stroke:#000000;stroke-width:.25;fill:#e4cc00" rx="1.3908" ry="5.5633" transform="matrix(.81057 .58564 -.58564 .81057 0 0)" width="2.7816" y="-244.57" x="838.79" height="11.127"/>
          <rect id="rect576" style="fill-rule:evenodd;stroke:#000000;stroke-width:.25;fill:#e4cc00" rx="1.3908" ry="5.5633" transform="matrix(.81057 .58564 -.58564 .81057 0 0)" width="2.7816" y="-244.68" x="840.85" height="11.127"/>
          <rect id="rect577" style="fill-rule:evenodd;stroke:#000000;stroke-width:.25;fill:#e4cc00" rx="1.3908" ry="5.5633" transform="matrix(.81057 .58564 -.58564 .81057 0 0)" width="2.7816" y="-244.66" x="843" height="11.127"/>
          <rect id="rect578" style="fill-rule:evenodd;stroke:#000000;stroke-width:.25;fill:#e4cc00" rx="1.3908" ry="5.5633" transform="matrix(.81057 .58564 -.58564 .81057 0 0)" width="2.7816" y="-244.7" x="845.3" height="11.127"/>
          <rect id="rect579" style="fill-rule:evenodd;stroke:#000000;stroke-width:.25;fill:#e4cc00" rx="1.3908" ry="5.5633" transform="matrix(.81057 .58564 -.58564 .81057 0 0)" width="2.7816" y="-244.54" x="847.15" height="11.127"/>
          <rect id="rect580" style="fill-rule:evenodd;stroke:#000000;stroke-width:.25;fill:#e4cc00" rx="1.3908" ry="5.5633" transform="matrix(.81057 .58564 -.58564 .81057 0 0)" width="2.7816" y="-245.75" x="857.84" height="11.127"/>
          <rect id="rect581" style="fill-rule:evenodd;stroke:#000000;stroke-width:.25;fill:#e4cc00" rx="1.3908" ry="5.5633" transform="matrix(.81057 .58564 -.58564 .81057 0 0)" width="2.7816" y="-245.32" x="856.37" height="11.127"/>
          <rect id="rect582" style="fill-rule:evenodd;stroke:#000000;stroke-width:.25;fill:#e4cc00" rx="1.3908" ry="5.5633" transform="matrix(.81057 .58564 -.58564 .81057 0 0)" width="2.7816" y="-245.1" x="854.94" height="11.127"/>
          <rect id="rect583" style="fill-rule:evenodd;stroke:#000000;stroke-width:.25;fill:#e4cc00" rx="1.3908" ry="5.5633" transform="matrix(.81057 .58564 -.58564 .81057 0 0)" width="2.7816" y="-245.02" x="852.83" height="11.127"/>
          <rect id="rect584" style="fill-rule:evenodd;stroke:#000000;stroke-width:.25;fill:#e4cc00" rx="1.3908" ry="5.5633" transform="matrix(.81057 .58564 -.58564 .81057 0 0)" width="2.7816" y="-244.68" x="850.76" height="11.127"/>
          <rect id="rect585" style="fill-rule:evenodd;stroke:#000000;stroke-width:.25;fill:#e4cc00" rx="1.3908" ry="5.5633" transform="matrix(.81057 .58564 -.58564 .81057 0 0)" width="2.7816" y="-244.64" x="848.96" height="11.127"/>
        </g>
        <rect id="rect602" style="fill-rule:evenodd;stroke:#000000;stroke-width:.25;fill:#e4cc00" rx="1.3908" ry="5.5633" transform="matrix(.87904 .47676 -.47676 .87904 -.39185 -.000015259)" width="2.7816" y="-115.05" x="859.81" height="11.127"/>
        <g id="g610" transform="translate(-11.95,5.7652)">
          <rect id="rect611" style="fill-rule:evenodd;stroke:#000000;stroke-width:.25;fill:#e4cc00" rx="1.3908" ry="5.5633" transform="matrix(.81057 .58564 -.58564 .81057 0 0)" width="2.7816" y="-244.57" x="838.79" height="11.127"/>
          <rect id="rect612" style="fill-rule:evenodd;stroke:#000000;stroke-width:.25;fill:#e4cc00" rx="1.3908" ry="5.5633" transform="matrix(.81057 .58564 -.58564 .81057 0 0)" width="2.7816" y="-244.68" x="840.85" height="11.127"/>
          <rect id="rect613" style="fill-rule:evenodd;stroke:#000000;stroke-width:.25;fill:#e4cc00" rx="1.3908" ry="5.5633" transform="matrix(.81057 .58564 -.58564 .81057 0 0)" width="2.7816" y="-244.66" x="843" height="11.127"/>
          <rect id="rect614" style="fill-rule:evenodd;stroke:#000000;stroke-width:.25;fill:#e4cc00" rx="1.3908" ry="5.5633" transform="matrix(.81057 .58564 -.58564 .81057 0 0)" width="2.7816" y="-244.7" x="845.3" height="11.127"/>
          <rect id="rect615" style="fill-rule:evenodd;stroke:#000000;stroke-width:.25;fill:#e4cc00" rx="1.3908" ry="5.5633" transform="matrix(.81057 .58564 -.58564 .81057 0 0)" width="2.7816" y="-244.54" x="847.15" height="11.127"/>
          <rect id="rect616" style="fill-rule:evenodd;stroke:#000000;stroke-width:.25;fill:#e4cc00" rx="1.3908" ry="5.5633" transform="matrix(.81057 .58564 -.58564 .81057 0 0)" width="2.7816" y="-245.75" x="857.84" height="11.127"/>
          <rect id="rect617" style="fill-rule:evenodd;stroke:#000000;stroke-width:.25;fill:#e4cc00" rx="1.3908" ry="5.5633" transform="matrix(.81057 .58564 -.58564 .81057 0 0)" width="2.7816" y="-245.32" x="856.37" height="11.127"/>
          <rect id="rect618" style="fill-rule:evenodd;stroke:#000000;stroke-width:.25;fill:#e4cc00" rx="1.3908" ry="5.5633" transform="matrix(.81057 .58564 -.58564 .81057 0 0)" width="2.7816" y="-245.1" x="854.94" height="11.127"/>
          <rect id="rect619" style="fill-rule:evenodd;stroke:#000000;stroke-width:.25;fill:#e4cc00" rx="1.3908" ry="5.5633" transform="matrix(.81057 .58564 -.58564 .81057 0 0)" width="2.7816" y="-245.02" x="852.83" height="11.127"/>
          <rect id="rect620" style="fill-rule:evenodd;stroke:#000000;stroke-width:.25;fill:#e4cc00" rx="1.3908" ry="5.5633" transform="matrix(.81057 .58564 -.58564 .81057 0 0)" width="2.7816" y="-244.68" x="850.76" height="11.127"/>
          <rect id="rect621" style="fill-rule:evenodd;stroke:#000000;stroke-width:.25;fill:#e4cc00" rx="1.3908" ry="5.5633" transform="matrix(.81057 .58564 -.58564 .81057 0 0)" width="2.7816" y="-244.64" x="848.96" height="11.127"/>
        </g>
      </g>
      <g id="g864" transform="matrix(.96634 0 0 .90397 23.343 23.148)">
        <rect id="rect721" style="fill-rule:evenodd;stroke:#000000;stroke-width:.1723;fill:#b2802e" rx="1.4318" ry=".67821" transform="matrix(.94656 .32251 -.32251 .94656 0 0)" width="2.8636" y="-28.09" x="774.89" height="24.19"/>
        <rect id="rect720" style="fill-rule:evenodd;stroke:#000000;stroke-width:.1723;fill:#b2802e" rx="1.4318" ry=".67821" height="24.19" width="2.8636" y="221.74" x="727.44"/>
        <rect id="rect719" style="fill-rule:evenodd;stroke:#000000;stroke-width:.1723;fill:#b2802e" rx="1.4318" ry=".67821" height="24.19" width="2.8636" y="221.28" x="707.97"/>
        <g id="g715" transform="matrix(.94101 -.33837 .33837 .94101 -41.713 263.18)">
          <path id="path716" style="fill-rule:evenodd;stroke:#000000;stroke-width:.25;fill:#004500" d="m692.68 226.06c0.3-4.9 4.14-6.41 10.4-4.22 0.53 0.3 0.98-0.6 0.83-0.68-10.03-5.27-14.49-19.46 1.56-16.9 2.41 0.76-2.17 2.14-5.51 2.76-4.52 0.57-1.7 6.83 7.26 12.63 1.96 1.51 6.33 4.6 6.33 4.6s-1.58 2.79-1.73 2.79-12.21-4.37-15.07-0.6c-1.81 3.01 0.69 3.44 0.08 7.97-1.05 3.91-1.58 3.46-1.81-0.08 0.79-2.47-2.34-6.31-2.34-8.27z" sodipodi:nodetypes="cccccccccccc" inkscape:connector-curvature="0" transform="matrix(.19503 .7064 -.72637 -.01711 764.19 -278.28)"/>
          <path id="path717" style="fill-rule:evenodd;stroke:#000000;stroke-width:.25;fill:#004500" d="m692.68 226.06c0.3-4.9 4.14-6.41 10.4-4.22 0.53 0.3 0.98-0.6 0.83-0.68-10.03-5.27-6.2-19.17 9.85-16.61 2.41 0.75 1.95 1.61-1.39 2.23-4.52 0.57-14.11 7.07-5.15 12.87 1.96 1.51 6.33 4.6 6.33 4.6s-1.58 2.79-1.73 2.79-12.21-4.37-15.07-0.6c-1.81 3.01 1.09 5.81 0.49 10.34-1.05 3.91-1.58 3.46-1.81-0.08 0.08-0.6-2.75-8.68-2.75-10.64z" sodipodi:nodetypes="cccccccccccc" inkscape:connector-curvature="0" transform="matrix(.15123 .71705 -.72395 -.061737 793.24 -271.41)"/>
          <path id="path718" style="fill-rule:evenodd;stroke:#000000;stroke-width:.25;fill:#004500" d="m692.68 226.06c0.3-4.9 4.14-6.41 10.4-4.22 0.53 0.3 0.98-0.6 0.83-0.68-10.03-5.27-2.64-11.92 11.99-9.1 1.58 0.2-2.1 2.16-5.44 2.78-4.52 0.57-12.2-0.99-3.24 4.81 1.96 1.51 6.33 4.6 6.33 4.6s-1.58 2.79-1.73 2.79-12.21-4.37-15.07-0.6c-1.81 3.01 7.07 9.44 6.47 13.96-1.06 3.92-1.58 3.46-1.81-0.08 0.07-0.6-8.73-12.3-8.73-14.26z" sodipodi:nodetypes="cccccccccccc" inkscape:connector-curvature="0" transform="matrix(.093062 .72689 -.71664 -.11977 831.05 -260.09)"/>
        </g>
        <g id="g707" transform="translate(-9.4432,-14.668)">
          <path id="path704" style="fill-rule:evenodd;stroke:#000000;stroke-width:.25;fill:#004500" d="m692.68 226.06c0.3-4.9 4.14-6.41 10.4-4.22 0.53 0.3 0.98-0.6 0.83-0.68-10.03-5.27-10.2-16.4 5.85-13.84 2.42 0.76-2.09 2.17-5.43 2.78-4.52 0.58-6.07 3.75 2.89 9.55 1.96 1.51 6.33 4.6 6.33 4.6s-1.58 2.79-1.73 2.79-12.21-4.37-15.07-0.6c-1.81 3.01-1.73 3.16-2.34 7.68-1.05 3.92-1.58 3.47-1.81-0.07 0.08-0.61 0.08-6.03 0.08-7.99z" sodipodi:nodetypes="cccccccccccc" inkscape:connector-curvature="0" transform="matrix(.42734 .59533 -.68745 .2352 569.63 -241.84)"/>
          <path id="path705" style="fill-rule:evenodd;stroke:#000000;stroke-width:.25;fill:#004500" d="m692.68 226.06c0.3-4.9 4.14-6.41 10.4-4.22 0.53 0.3 0.98-0.6 0.83-0.68-10.03-5.27-10.2-16.4 5.85-13.84 2.42 0.76-2.09 2.17-5.43 2.78-4.52 0.58-6.07 3.75 2.89 9.55 1.96 1.51 6.33 4.6 6.33 4.6s-1.58 2.79-1.73 2.79-12.21-4.37-15.07-0.6c-1.81 3.01-1.73 3.16-2.34 7.68-1.05 3.92-1.58 3.47-1.81-0.07 0.08-0.61 0.08-6.03 0.08-7.99z" sodipodi:nodetypes="cccccccccccc" inkscape:connector-curvature="0" transform="matrix(.38992 .62048 -.70061 .19249 599.26 -245.44)"/>
          <path id="path706" style="fill-rule:evenodd;stroke:#000000;stroke-width:.25;fill:#004500" d="m692.68 226.06c0.3-4.9 4.14-6.41 10.4-4.22 0.53 0.3 0.98-0.6 0.83-0.68-10.03-5.27-10.2-16.4 5.85-13.84 2.42 0.76-2.09 2.17-5.43 2.78-4.52 0.58-6.07 3.75 2.89 9.55 1.96 1.51 6.33 4.6 6.33 4.6s-1.58 2.79-1.73 2.79-12.21-4.37-15.07-0.6c-1.81 3.01-1.73 3.16-2.34 7.68-1.05 3.92-1.58 3.47-1.81-0.07 0.08-0.61 0.08-6.03 0.08-7.99z" sodipodi:nodetypes="cccccccccccc" inkscape:connector-curvature="0" transform="matrix(.33876 .64983 -.71383 .13552 638.65 -247.9)"/>
        </g>
        <g id="g711" transform="translate(6.0103 -.72439)">
          <path id="path701" style="fill-rule:evenodd;stroke:#000000;stroke-width:.25;fill:#004500" d="m692.68 226.06c0.3-4.9 4.14-6.41 10.4-4.22 0.53 0.3 0.98-0.6 0.83-0.68-10.03-5.27-14.49-19.46 1.56-16.9 2.41 0.76-2.17 2.14-5.51 2.76-4.52 0.57-1.7 6.83 7.26 12.63 1.96 1.51 6.33 4.6 6.33 4.6s-1.58 2.79-1.73 2.79-12.21-4.37-15.07-0.6c-1.81 3.01 0.69 3.44 0.08 7.97-1.05 3.91-1.58 3.46-1.81-0.08 0.79-2.47-2.34-6.31-2.34-8.27z" sodipodi:nodetypes="cccccccccccc" inkscape:connector-curvature="0" transform="matrix(.19503 .7064 -.72637 -.01711 764.19 -278.28)"/>
          <path id="path702" style="fill-rule:evenodd;stroke:#000000;stroke-width:.25;fill:#004500" d="m692.68 226.06c0.3-4.9 4.14-6.41 10.4-4.22 0.53 0.3 0.98-0.6 0.83-0.68-10.03-5.27-6.2-19.17 9.85-16.61 2.41 0.75 1.95 1.61-1.39 2.23-4.52 0.57-14.11 7.07-5.15 12.87 1.96 1.51 6.33 4.6 6.33 4.6s-1.58 2.79-1.73 2.79-12.21-4.37-15.07-0.6c-1.81 3.01 1.09 5.81 0.49 10.34-1.05 3.91-1.58 3.46-1.81-0.08 0.08-0.6-2.75-8.68-2.75-10.64z" sodipodi:nodetypes="cccccccccccc" inkscape:connector-curvature="0" transform="matrix(.15123 .71705 -.72395 -.061737 793.24 -271.41)"/>
          <path id="path703" style="fill-rule:evenodd;stroke:#000000;stroke-width:.25;fill:#004500" d="m692.68 226.06c0.3-4.9 4.14-6.41 10.4-4.22 0.53 0.3 0.98-0.6 0.83-0.68-10.03-5.27-2.64-11.92 11.99-9.1 1.58 0.2-2.1 2.16-5.44 2.78-4.52 0.57-12.2-0.99-3.24 4.81 1.96 1.51 6.33 4.6 6.33 4.6s-1.58 2.79-1.73 2.79-12.21-4.37-15.07-0.6c-1.81 3.01 7.07 9.44 6.47 13.96-1.06 3.92-1.58 3.46-1.81-0.08 0.07-0.6-8.73-12.3-8.73-14.26z" sodipodi:nodetypes="cccccccccccc" inkscape:connector-curvature="0" transform="matrix(.093062 .72689 -.71664 -.11977 831.05 -260.09)"/>
        </g>
      </g>
      <g id="g880">
        <rect id="rect668" style="fill-rule:evenodd;stroke:#000000;stroke-width:.1723;fill:#b2802e" rx="1.4318" ry=".67821" height="24.19" width="2.8636" y="222.49" x="826.05"/>
        <g id="g722" transform="matrix(.89029 0 0 .81475 84.748 43.403)">
          <path id="path671" style="fill-rule:evenodd;stroke:#000000;stroke-width:.33302;fill:#007500" d="m-3819.3-4447.1-7.4-2.8 15.1 11.4-2.8-5.3-4.9-3.3z" sodipodi:nodetypes="ccccc" inkscape:connector-curvature="0" transform="matrix(3.178,-1.5262,-3.4237,1.1639,-2258.1,-426.8)"/>
          <path id="path672" style="fill-rule:evenodd;stroke:#000000;stroke-width:.33302;fill:#007500" d="m-3819.3-4447.1-5.3 0.2 12.7 7.6-2.5-4.5-4.9-3.3z" sodipodi:nodetypes="ccccc" inkscape:connector-curvature="0" transform="matrix(3.5127 -.40025 -3.6221 -.021804 -1862.5 -1401.1)"/>
          <path id="path673" style="fill-rule:evenodd;stroke:#000000;stroke-width:.33302;fill:#007500" d="m-3819.9-4447.6 4.6 7.4 4.4 1.3-3.5-4.9-5.5-3.8z" sodipodi:nodetypes="ccccc" inkscape:connector-curvature="0" transform="matrix(-2.6372,-2.3184,2.3892,2.6793,1392,3285)"/>
          <path id="path674" style="fill-rule:evenodd;stroke:#000000;stroke-width:.33302;fill:#007500" d="m-3821.8-4448.7 17.5 22.4-6.7-12.5-3.4-5-7.4-4.9z" sodipodi:nodetypes="ccccc" inkscape:connector-curvature="0" transform="matrix(-3.4904 -.55765 3.4788 .99308 2977.8 2508.4)"/>
          <path id="path675" style="fill-rule:evenodd;stroke:#000000;stroke-width:.33302;fill:#007500" d="m-3822.2-4449.9-12.5-6.5 24.1 18.7-3.8-6.1-7.8-6.1z" sodipodi:nodetypes="ccccc" inkscape:connector-curvature="0" transform="matrix(3.2054,1.4696,-3.074,-1.8856,-598.79,-2550.3)"/>
          <path id="path676" style="fill-rule:evenodd;stroke:#000000;stroke-width:.33302;fill:#007500" d="m-3823.5-4450.2-5.2-1.2 17.8 13.3-3.5-5.7-9.1-6.4z" sodipodi:nodetypes="ccccc" inkscape:connector-curvature="0" transform="matrix(2.2844,2.6564,-1.988,-2.9799,713.89,-2886)"/>
          <path id="path677" style="fill-rule:evenodd;stroke:#000000;stroke-width:.33302;fill:#007500" d="m-3824.7-4451.7-13.4-9.8 24.4 21-0.7-3.3-10.3-7.9z" sodipodi:nodetypes="ccccc" inkscape:connector-curvature="0" transform="matrix(.37924 3.46 .05045 -3.5644 2504.7 -2418.4)"/>
          <path id="path678" style="fill-rule:evenodd;stroke:#000000;stroke-width:.33302;fill:#007500" d="m-3822.2-4449.3 10.6 14.4 1.7-2.6-4.5-6.3-7.8-5.5z" sodipodi:nodetypes="ccccc" inkscape:connector-curvature="0" transform="matrix(-1.7431,3.0279,2.1539,-2.866,3756.5,-963.26)"/>
          <path id="path679" style="fill-rule:evenodd;stroke:#000000;stroke-width:.33302;fill:#007500" d="m-3820.2-4447 15.6 19.2-3.3-7.7-6.5-8.3-5.8-3.2z" sodipodi:nodetypes="ccccc" inkscape:connector-curvature="0" transform="matrix(-2.682,2.2681,3.0128,-1.9788,3991.9,81.022)"/>
          <path id="path680" style="fill-rule:evenodd;stroke:#000000;stroke-width:.33302;fill:#007500" d="m-3821-4448.7 12.2 17.1-0.1-5.3-5.5-6.9-6.6-4.9z" sodipodi:nodetypes="ccccc" inkscape:connector-curvature="0" transform="matrix(-3.4114 .91629 3.5841 -.51526 3749.2 1428)"/>
          <path id="path681" style="fill-rule:evenodd;stroke:#000000;stroke-width:.33302;fill:#007500" d="m-3818.9-4446.9 2 4.3 4.3 2.1-1.8-3.3-4.5-3.1z" sodipodi:nodetypes="ccccc" inkscape:connector-curvature="0" transform="matrix(2.2975,-2.6455,-2.6694,2.4095,-2265,838.98)"/>
          <path id="path682" style="fill-rule:evenodd;stroke:#000000;stroke-width:.33302;fill:#007500" d="m-3819.3-4447.1v5.7l6.7 1.4-1.8-3.8-4.9-3.3z" sodipodi:nodetypes="ccccc" inkscape:connector-curvature="0" transform="matrix(1.6877 -1.2717 -1.8182 .96978 -807.24 -319.88)"/>
          <path id="path683" style="fill-rule:evenodd;stroke:#000000;stroke-width:.33302;fill:#007500" d="m-3819.3-4447.1v5.7l6.7 1.4-1.8-3.8-4.9-3.3z" sodipodi:nodetypes="ccccc" inkscape:connector-curvature="0" transform="matrix(-1.7023,-1.4301,1.3594,1.5963,381.49,1860.1)"/>
          <path id="path684" style="fill-rule:evenodd;stroke:#000000;stroke-width:.33302;fill:#007500" d="m-3819.3-4447.1v5.7l6.7 1.4-1.8-3.8-4.9-3.3z" sodipodi:nodetypes="ccccc" inkscape:connector-curvature="0" transform="matrix(1.8936,1.1287,-1.795,-1.3772,80.698,-1592.5)"/>
          <path id="path685" style="fill-rule:evenodd;stroke:#000000;stroke-width:.33302;fill:#007500" d="m-3819.3-4447.1 15.7 18.9-10.2-13.7-0.6-1.9-4.9-3.3z" sodipodi:nodetypes="ccccc" inkscape:connector-curvature="0" transform="matrix(-2.0834 .8264 2.2338 -.61096 2813.4 659.36)"/>
          <path id="path686" style="fill-rule:evenodd;stroke:#000000;stroke-width:.33302;fill:#007500" d="m-3819.3-4447.1 11 13.1-4.3-6-1.8-3.8-4.9-3.3z" sodipodi:nodetypes="ccccc" inkscape:connector-curvature="0" transform="matrix(-.67839 3.4155 1.1202 -3.39 3224 -1814.7)"/>
          <path id="path687" style="fill-rule:evenodd;stroke:#000000;stroke-width:.33302;fill:#007500" d="m-3819.3-4447.1-14.4-12.6 18.3 16.8 1-0.9-4.9-3.3z" sodipodi:nodetypes="ccccc" inkscape:connector-curvature="0" transform="matrix(2.394,2.5613,-2.1114,-2.8965,583.34,-2880.2)"/>
          <path id="path698" style="fill-rule:evenodd;stroke:#000000;stroke-width:.33302;fill:#007500" d="m-3819.3-4447.1v5.7l6.7 1.4-1.8-3.8-4.9-3.3z" sodipodi:nodetypes="ccccc" inkscape:connector-curvature="0" transform="matrix(2.2059 -1.0764 -2.3765 .82088 -1312.4 -235.44)"/>
        </g>
      </g>
    </g>
  </g>
  <metadata id="metadata129">
    <rdf:RDF>
      <cc:Work>
        <dc:format>image/svg+xml</dc:format>
        <dc:type rdf:resource="http://purl.org/dc/dcmitype/StillImage"/>
        <cc:license rdf:resource="http://creativecommons.org/licenses/publicdomain/"/>
        <dc:publisher>
          <cc:Agent rdf:about="http://openclipart.org/">
            <dc:title>Openclipart</dc:title>
          </cc:Agent>
        </dc:publisher>
      </cc:Work>
      <cc:License rdf:about="http://creativecommons.org/licenses/publicdomain/">
        <cc:permits rdf:resource="http://creativecommons.org/ns#Reproduction"/>
        <cc:permits rdf:resource="http://creativecommons.org/ns#Distribution"/>
        <cc:permits rdf:resource="http://creativecommons.org/ns#DerivativeWorks"/>
      </cc:License>
    </rdf:RDF>
  </metadata>
</svg>
