<?xml version="1.0" encoding="utf-8"?>
<!-- Generator: Adobe Illustrator 21.0.2, SVG Export Plug-In . SVG Version: 6.00 Build 0)  -->
<svg version="1.1" id="Layer_1" xmlns="http://www.w3.org/2000/svg" xmlns:xlink="http://www.w3.org/1999/xlink" x="0px" y="0px"
	 viewBox="0 0 100 80" style="enable-background:new 0 0 100 80;" xml:space="preserve">
<style type="text/css">
	.st0{fill:#EC2D3A;}
	.st1{fill:#FFFFFF;}
	.st2{fill:#293789;}
	.st3{fill:url(#SVGID_1_);stroke:#010101;stroke-miterlimit:10;}
</style>
<g>
	<g>
		<path class="st0" d="M6,10.9c29.7,11.5,59.5-11.9,89.2-0.4c0,19.8,0,39.6,0,59.4C65.5,58.3,35.7,81.8,6,70.3C6,50.5,6,30.7,6,10.9
			z"/>
		<path class="st1" d="M6,10.9c19.8,7.7,39.7-0.2,59.5-2.9c0,19.8,0,39.6,0,59.4C45.6,70.1,25.8,78,6,70.3C6,50.5,6,30.7,6,10.9z"/>
		<path class="st2" d="M6,10.9c9.9,3.8,19.8,3.8,29.7,2.5c0,19.8,0,39.6,0,59.4c-9.9,1.3-19.8,1.4-29.7-2.5C6,50.5,6,30.7,6,10.9z"
			/>
	</g>
	<linearGradient id="SVGID_1_" gradientUnits="userSpaceOnUse" x1="5.9696" y1="40.3715" x2="95.2064" y2="40.3715">
		<stop  offset="0" style="stop-color:#FFFFFF;stop-opacity:0"/>
		<stop  offset="0.5" style="stop-color:#FFFFFF;stop-opacity:0.5"/>
		<stop  offset="1" style="stop-color:#FFFFFF;stop-opacity:0"/>
	</linearGradient>
	<path class="st3" d="M95.2,69.9C65.5,58.3,35.7,81.8,6,70.3c0-19.8,0-39.6,0-59.4c29.7,11.5,59.5-11.9,89.2-0.4
		C95.2,30.3,95.2,50.1,95.2,69.9z"/>
</g>
</svg>
