<?xml version="1.0" encoding="utf-8"?>

<!DOCTYPE svg PUBLIC "-//W3C//DTD SVG 1.1//EN" "http://www.w3.org/Graphics/SVG/1.1/DTD/svg11.dtd">
<svg version="1.1" id="Layer_1" xmlns="http://www.w3.org/2000/svg" xmlns:xlink="http://www.w3.org/1999/xlink" x="0px" y="0px"
	 viewBox="-373.7244 -406.6185 1342.7244 1655.1267" enable-background="new -373.7244 -406.6185 1342.7244 1655.1267"
	 xml:space="preserve">
<g>
	<defs>
		<path id="SVGID_1_" d="M845.2425,106.6963c13.1243,7.0942,19.9651,11.2747,30.2264,22.5748
			c3.9525,4.3325,7.7277,11.3507,8.6398,17.1528c0.7854,4.966,1.4442,14.9739,3.4964,19.0784
			c0.4307,5.0926-0.8615,15.2779,2.0269,19.4331c2.5084,3.6485,6.7649,6.7648,6.0301,11.8068
			c-1.3935,9.4758,2.559,11.7561,8.4624,17.6849c2.103,2.1283,4.4592,5.7007,7.9557,5.7007c3.1164,0,4.4085-0.7601,7.1449,0.6081
			c0.228,1.1655,0.9628,2.0776,0.1773,3.3191c-3.091,3.3951-6.5875,6.8409-9.1718,11.0214
			c-4.5605,7.3729,6.6129,27.3128,10.5654,33.2668c1.5709,2.331,4.5859,4.0285,6.2834,6.3088
			c2.4576,3.2684,2.711,6.4101,6.1314,9.2732c2.9897,2.5083,3.8511,5.5487,2.711,9.5265c3.0151,3.5471,9.3492,4.1552,10.5653,9.6279
			c0.1014,0.5067,0.152,0.9881,0.152,1.4442c0,3.3444-2.5843,5.8274-3.6484,9.0705c-2.0269,6.0807-2.635,12.2629-4.2059,18.5463
			c-1.7482,7.1196-0.1774,15.6073-2.0016,22.4228c-0.532,6.3088-0.9628,13.1243-0.9628,19.4078v0.0253
			c-2.3563,0.7094-4.7379,1.3428-7.0689,2.1789c-5.3967,1.9002-7.6516,0.0507-12.8456,4.3832
			c-12.9216,10.7933-35.8005,13.3523-35.8005,34.9137c0,9.1211-0.152,14.7205-3.1417,23.3602
			c-3.3191,9.6279-9.1718,7.3983-13.8084,14.0111c-4.9153,7.0182-12.1615,12.0855-18.2422,18.1156
			c-7.829,7.753-14.2138,8.9438-22.4482,14.5178c-12.6176,8.5638,7.4996,25.0578-6.0301,29.8464
			c-1.1908,0.4307-2.2043,0.608-3.1164,0.608c-3.9525,0.076-5.9034-2.5336-11.6548,1.8496
			c-4.5352,3.4711-5.726,11.148-8.3864,16.0126c-2.9137,5.422-0.2027,11.1227-2.3563,16.5447
			c-3.6991,9.3239-11.0214,15.8353-16.494,24.0697c-5.4474,8.209-8.1331,17.6849-13.4537,25.9192
			c-1.4948,2.3057-6.0301,0.7601-6.0301,4.0285c0,5.1433-4.0792,8.0317-6.3848,12.5923c-2.6857,5.3967-2.5844,7.3983-7.3223,12.1615
			c-5.726,5.7261-9.2985,12.871-13.2003,19.8638c-3.4711,6.2834-6.7648,15.0499-10.2106,20.9279
			c-3.5724,6.0807-15.0753,12.3643-15.5566,19.5092c-0.4814,7.2462-3.243,11.6548-7.4236,17.6849
			c-3.4204,4.9659-5.194,11.3254-9.2478,15.8353c-3.9272,4.3832-5.9288,0.6841-9.1718-1.9255
			c-3.6738-2.939-8.3358,3.6738-12.567,4.9153c-7.5249,2.2296-4.1298,7.8796-7.7783,12.3389
			c-5.8781,7.1449,6.3341,16.0634-7.9557,14.0871c-4.3072-0.5828-6.5875,1.6215-8.209,4.4592
			c-1.0894,1.9255-1.8749,4.1552-2.787,5.954c-1.7229,3.4205-6.2328,6.6382-5.422,10.8694c0.6334,3.243,2.2549,3.3698,1.7482,7.7783
			c-0.8615,7.6769,5.2193,7.2969,6.6381,11.6295c2.6603,8.209-4.2565,15.7846-7.601,22.6761
			c-1.5962,3.3191-4.0538,6.3341-6.2834,8.9185c-1.5202,1.7736-2.0016,5.118-2.2803,7.3729
			c-0.2027,1.7482-0.2534,3.3951-0.3293,5.2446c-0.4307,8.1584-4.3579,11.3508-8.4877,17.5836
			c-3.2431,4.9153-0.5321,8.8677,4.9913,12.6176c4.5859,3.0911-14.9232,9.6785-18.0903,12.2375
			c-7.9303,6.4355-9.2478,19.5091-15.1005,27.4141c-4.1552,5.5994-11.1734,16.6968-11.1734,23.6136
			c0,7.3983-2.3817,15.2779-8.2344,19.9651c-4.3326,3.4965-5.1433,12.1362-7.5756,17.2288
			c-1.2415,2.5844-2.6603,4.9659-3.6738,7.6263c-0.8868,2.3563-0.7855,4.9659-1.8496,7.4489
			c-1.4695,3.4458-6.9675-1.6722-10.1093,2.787c-1.5202,2.1282-1.7989,7.0182,1.2162,7.8796
			c4.7379,1.3935-1.1148,6.4861,1.0388,9.5519c1.3935,1.9509,3.7498,2.0016,5.2447,3.4964
			c3.7244,3.7245-1.6976,13.2256-3.3951,17.0515c-1.3682,3.0151-2.1282-1.6722-5.2446-1.1402
			c-3.8005,0.6588-2.9897,7.7277-2.2803,10.4387c1.8495,6.9421,5.7514,5.6753-0.5321,11.6294
			c-4.9152,4.6873-8.7917,8.2344-12.7442,13.8337c-3.1418,4.4592-6.5622,3.5724-11.0974,3.7498
			c-7.905,0.3547,1.2415,8.9691,2.1029,10.692c1.2922,2.5844-5.3713,2.1283-6.2074,2.1029
			c-10.54-0.3546-7.3983,8.6398-11.6042,14.6193c-1.7989,2.559-4.7632,6.0554-3.0657,9.2731
			c1.0135,1.9003,2.5083,4.5099,0.1774,5.9541c-5.2193,3.1924-12.7189,4.2312-18.6983,5.6754
			c-14.7205,3.5724-29.1877,20.0411-42.7934,26.7046c-3.3951,1.6722-9.2732,4.3833-12.9976,4.3833
			c-5.9794,0-3.8512,4.5352-6.5622,5.8527c-1.4695,0.7347-5.6754,0.076-6.3848,1.1401c-1.2162,1.8242,1.8242,6.3849-1.5709,7.2716
			c-14.3151,3.6991-13.1496,35.015-28.9089,29.7451c-5.118-1.7229-6.9929,6.03-10.8187,8.4877
			c-2.5083,1.6216-5.118,2.2296-7.7783,2.2296c-9.3998,0-19.4331-7.677-27.6928-6.5115
			c-3.1164,0.4307-13.9604-5.3713-15.7086-8.2344c-3.1164-5.042-5.4474-9.4252-11.7815-10.5907
			c-10.9707-1.9762-29.0356,2.6097-39.753,5.5234c-1.6215,0.4307-8.133-0.0254-8.285,1.1401
			c-0.0507,0.2787-0.1013,0.5574-0.152,0.9628l-3.2684,0.4307c-2.3563,0.7855-3.9272,3.1925-6.4608,3.0658
			c-2.0269-0.1013-3.2177-1.9763-4.7126-3.0658c-3.2177-2.3309-9.0198,5.2448-10.92,7.525
			c-0.7348,0.8867-7.3476,5.7261-7.3476,3.243c0-3.3444,0.8108-5.194,2.5336-7.7783c1.5455-2.3057,2.787-5.5994,3.6738-8.2344
			l17.4822-17.3302c7.2969-7.2462-8.5637-7.2969-15.3032-10.4132c-4.0285-1.8749-8.0824-5.3967-12.4909-7.6263
			c-7.4236-3.7498-11.7055-8.057-12.0348-16.5447c-0.1013-2.3817-6.0554,1.0641-7.7023-0.1774
			c-3.4964-2.6097,1.4442-4.8646-5.6754-4.3579c-6.5115,0.4561-4.5099,1.8496-6.1821,7.0688
			c-1.8749,5.8274-7.601,8.9185-13.2763,9.6279c-6.4608,0.8108-7.6516,10.8694-16.266,10.8694c-4.9913,0-3.091,2.4323-6.7902,2.8883
			c-3.4711,0.9375-9.4252-5.3459-9.5265-2.1029c-0.152,4.8899,5.5234,6.4102,3.6738,9.6278
			c-3.3191,5.6754-24.3484,2.5337-30.1504,2.7111c-3.0657,0.1013-5.6754,1.9255-8.8931,1.9255
			c-3.3951,0-4.7633-2.9644-7.3476-4.4592c-3.0404-1.7736-5.9794-1.5455-9.3492-2.2042c-6.0808-1.1401-4.4085-4.5099-6.1821-5.1433
			c-3.0657-1.1149-9.0451,1.7229-12.6683,0.8615c-4.8646-1.1401-9.7292-0.1267-14.7712-1.5709
			c0.304-0.38,2.9897-7.4742,2.787-7.8796c-0.2534-0.532-4.6873-1.0641-6.1061-1.7482c-2.1283-1.0134-10.3373,5.8274-11.6041-1.6722
			c-0.304-1.7229-9.8559-1.4188-11.4521-1.1401c-5.8021,1.0388-11.0974,5.65-11.0974-5.422
			c9.7039-2.4324,2.9644-1.9255,5.8527-6.9169c2.1536-3.6738,6.2074-4.2058-0.7854-8.3864
			c-1.9256-1.1655-8.1077-0.9375-8.1077-3.0658c0-1.0134,1.5962-2.8376,0.7854-3.243c-2.1536-1.0641-10.1346-1.8242-12.6683-1.2162
			c-7.0689,1.647-11.1987,10.4894-16.1647,14.3405c-2.3816,1.875-12.947,2.103-8.7411,6.5623
			c2.0776,2.2042,6.8409,3.3444,9.6279,4.0284c0,1.5203-2.1789,2.0776-3.3191,2.1029c-3.7245,1.0895-10.1599,5.7515-14.6952,3.0658
			c-1.0641-0.6334-1.4695-2.863-3.3191-2.4576c-10.0586,2.2549-6.0301,3.9271-9.8559,12.0854
			c-1.9762,4.2312-5.5994,8.3104-9.9572,9.7039c-6.3848,2.0522,1.8496-8.4116-6.9929-5.9287
			c-3.8512,1.0642-5.8781-3.7751-6.2074,3.3951c-0.2027,4.4592-1.3682,8.1329-0.076,12.6936
			c1.9002,6.7395-0.7094,7.4742-6.1061,8.9183l-18.7743,5.0927c-2.483,0.6588-3.1164,4.7379-5.346,6.0302
			c-5.4473,9.5519-11.8321,4.4338-20.2439,0.7094c-6.5368-2.8883-14.5178,13.9098-15.4806,18.8251
			c-0.3547,1.9003,2.559,4.1552,0.9628,4.814c-4.6873,1.9003-9.6785,4.5605-9.6785,10.1345c-1.9256,0-4.8139-2.5842-6.9169-3.243
			c-3.1924-0.9882-5.1433,0.9121-8.285,1.7736c-3.7245,0.9882-12.7443-6.7395-13.5297-10.2612
			c-0.5827-2.8884-4.0032-6.3341-4.8139-9.6279c-0.8361-3.3698-0.1267-6.03-4.4592-3.2178
			c-6.5368,4.2059-14.4418,10.8948-22.3468,7.8544c-6.7142-2.559-6.9422,1.5962-11.7055,2.7363
			c-4.2819,0.9882-14.7965-3.623-18.6223-5.9541c-3.3444-2.0775-4.4339,4.0032-6.7902,3.7499
			c-2.6603-0.2534-4.9913-2.1283-4.9913-4.6366c0-5.5487,2.6603-4.5605-4.2819-6.0302c-1.8242-0.4054-3.2177-2.5842-4.1805-4.1298
			c-0.6081-4.2819,8.1077-9.0958,0.4307-11.0214c-4.1552-1.0388-14.2645,4.5352-19.2051,5.1686
			c-5.8021,0.7347-3.2431-3.7498-5.2447-6.9929c-1.8496-2.9896-12.2882,3.0911-15.2019,3.2178
			c-4.7379,0.228-11.6295-4.3579-11.6295-9.4504c0-3.2684-6.3595-2.3057-7.1449-5.498c-1.2415-4.9913-3.5218-6.1315-8.8171-6.1315
			c-2.5083,0-9.3745-5.8274-12.2375-7.2716c1.7736-0.5826,17.0515-6.8408,9.9572-8.1329
			c-9.6532-1.7736-3.6485-10.3373-7.7783-16.6208c-3.9525-1.4948-9.6279-2.0522-13.8844-1.4188
			c-2.1789,0.3295-9.1211,3.6232-10.3879,1.4949c-0.1267-0.2026-0.3547-1.7229-0.5067-3.0657
			c-0.1013-1.0388-0.1267-2.0016-0.0253-2.179c4.4592-7.1703,13.9604-9.0452,21.5867-4.2058
			c4.8139,3.0657,10.1853,5.9287,15.886,3.7498c3.9525-1.4949,4.9153,2.3563,3.2431-2.5337
			c-1.1148-3.1924-3.2938-5.3459-2.635-9.2731c2.0523-12.111,6.4608-17.6849,13.9857-26.6034l4.966-3.4204
			c1.5962-0.6841,3.7245-0.0254,5.422,0.2787c2.5337,0.4308,5.5487,1.7736,8.0317,0.608c4.5859-2.1788,8.5637-1.3428,10.5653-7.0941
			c1.0135-2.863,4.4086-6.2328,7.1702-7.525c3.6231-1.6975,1.5455-5.6246,4.0032-7.2715c2.2296-1.4949,4.3579,0.6841,4.89-3.0658
			c0.6081-4.0032,0.7094-5.4727,3.7751-8.3864c4.2819-4.1045,5.8527-5.1433,8.5637-10.7681
			c1.6976-3.5978-0.8108-12.8456,2.787-14.3657c3.6991-1.5709,4.1552-3.4205,4.966-7.2716
			c0.6841-3.1164,0.9628-6.3341,2.0269-9.3492c0.5067-1.4948,3.9778-5.3206,3.2177-7.5249
			c-1.7736-5.1433,1.7482-8.9945,5.7767-13.1243c3.5724-3.6738,7.1449-7.3729,10.7427-11.0467
			c2.0016-2.0523,0.5067-4.4846,3.4964-6.7395c1.4442-1.0895-1.9762-1.799-0.9628-4.6366c0.9121-2.635,2.2043-4.7886,2.863-7.525
			c1.5455-6.2328,8.6144-4.7632,11.0214-9.8812c2.1283-4.5605,6.3848-3.3191,7.601-6.0554c1.0641-2.4323-0.2534-2.179,2.787-3.9272
			c7.0182-4.0285,1.2162-10.7173,5.8527-14.6951c1.5455-1.3428,1.3682-3.8005,1.1401-5.7007
			c-0.3294-2.6096-1.1401-5.194-1.1401-7.8796c0-5.1686,5.1686-1.6469,8.0317-3.243c2.0016-1.0895,2.9644-11.3761,1.3935-12.947
			c-2.3056-2.3057-3.8765-1.4442-4.5352-4.89c-1.0135-5.2953-0.6841-8.1584,2.711-12.6176
			c2.2549-2.9644-2.7617-8.8677,1.3935-10.1346c4.7126-1.4442,1.8496-2.5336,3.6738-5.7767
			c1.9256-3.4711-0.2787-6.4354,1.2922-8.5891c0.7854-1.0641,3.4458-3.015,3.7751-4.0285c0.5574-1.8749-3.2177-2.8124-4.4592-3.3191
			c-2.331-0.9374-2.9137-4.8392-3.7498-7.0182c-1.6215-4.0285-0.2787-3.9525,1.0388-7.4236
			c1.0895-2.863-2.2043-6.0048-2.3563-8.9438c-0.1267-2.3563-4.4846-4.0792-5.0673-7.1702
			c-0.8108-4.2312,3.2177-6.2834,5.9287-8.3104c1.4695-1.0894,1.5962-20.6239,0.9628-23.1069
			c-1.5455-6.1567-5.9541-8.7411-9.6785-1.9255c-2.0523,3.7498-2.6857-0.2534-4.4592-1.5709
			c-2.4323-1.7989,2.1789-4.6619,1.0388-6.2075c-2.2043-3.0151-3.2684-2.6603-0.1774-6.5621
			c1.9762-2.483,2.4323-7.905,2.8123-11.1227c0.3547-3.2178,1.8496-6.4608,3.9272-9.1971c2.0269-2.6857,4.3579-2.1536,6.8915-3.6738
			c3.3698-2.0269,9.2225-10.1852,10.844-13.8337c1.4442-3.2937,3.8765-8.4117,7.0689-10.312c5.1686-3.1164,6.8662-5.65,10.92-9.7292
			c1.7482-1.7482,4.1805-3.0151,6.5368-3.5724c2.5336-0.6334,5.118,0.8615,7.7023,1.2922c5.7261-5.498,6.7142-13.631,7.4236-19.7625
			c0.4561-4.1805,0.6587-8.2343,2.6857-11.7308c3.5978-6.1314-1.9002-11.5027,5.346-15.8607
			c5.27-3.1671,15.1006-6.5621,14.3151-14.1631c-0.4054-3.8511-5.5487-9.5012-2.1789-12.6936
			c5.0673-4.7886,2.711-8.1837,2.4323-14.7965c-0.1267-3.6738,0.4054-7.2716,1.5709-10.6667
			c2.2043-6.3594-2.0269-13.0483,0.3547-18.901c2.5843-6.3595,10.312-11.2494,10.0586-18.6476
			c-0.1774-4.89-3.2684-5.7514-5.2447-10.084c-0.8614-1.8495-1.9509-6.7902-3.8765-9.2478
			c-1.2415-1.5709-2.8377-2.1282-4.9406-0.2027c-7.1956,6.6129-15.7086,8.8171-17.1275-2.711
			c-0.6841-5.4727-5.194-1.8242-7.4236-5.0673c-1.3935-2.0522-4.2312-6.6381-5.3207-9.5518
			c-1.2922-3.3444,0.4307-6.4102,0.4307-9.7039c0-8.5891-8.1837-15.2272-11.7055-22.3974
			c-2.1029-4.3072-2.9644-10.2613-5.3207-14.3658c-3.3698-5.8527-21.1306-4.7886-27.4394-5.422
			c-12.6429-1.2668-0.8361-13.631-6.5368-19.4331c-4.1299-4.1805-11.6548-3.2177-16.2407-6.4861
			c-7.4236-5.2447-6.5115-12.2122-10.4133-19.2557c-1.9256-3.4964-7.1702-4.3832-10.1093-7.5249
			c-2.407-2.5083-5.5234-7.6516-5.9541-11.0974c-1.0895-8.7664-3.0404-20.6239-8.0317-28.0222
			c-4.5352-6.6888-18.673-15.0245-15.3793-24.5764c1.7229-4.9913,3.9018-14.4165,5.8527-19.0024
			c3.8258-8.9438,9.6532-13.9351-1.0388-20.5732c-10.768-6.6635-20.8013-5.7767-23.1576-19.8638
			c-1.0641-6.5368,0-11.8575,2.9897-17.5835c1.6469-3.1924,1.4189-7.3476,2.179-10.2613c0.7094-2.7617-4.0285-7.1702-4.8139-10.4133
			c-0.9375-3.8005-0.4054-7.1956,0.3547-10.92c1.1655-5.7514,5.0926-15.3793-2.4576-18.9264
			c-3.0911-1.4442-11.5534-2.2803-13.175-4.5352c-1.2921-1.8242-3.7498-3.1417-3.7498-5.5234c0-2.2043,0.3294-4.2819,0.4307-6.3848
			c0.2027-4.3579,1.0641-7.9303,0.076-12.3389c-0.5321-2.483,0.1013-5.3713,0.1013-7.981c0-10.2866-1.3682-19.6611-3.6738-29.5677
			c-2.559-10.9707,10.8947-13.7831,12.2375-24.171c0.7854-6.1061,1.5709-13.9351-0.1013-19.9398
			c-2.179-7.9557-5.7514-15.734-6.6382-24.0697c-0.8108-7.677,8.285-17.4315,2.9644-22.8535
			c-2.863-2.9137-11.1227-2.0016-14.9992-3.9272c-6.6128-3.2937-2.6603-10.7173-1.9256-16.0127
			c0.8867-6.4101-1.2415-10.8947-2.3563-16.8234c-1.0641-5.5487,0.152-11.6801-0.532-17.3302
			c-0.5827-4.6873-3.9018-17.8116-3.9018-25.5899c0-2.2296,0.2534-4.0032,0.9374-5.042c3.3191-5.0926,11.0214-4.2819,13.175-11.4521
			c2.0016-6.5875,2.8884-18.5717,2.635-25.5645c-0.3801-9.5265,1.4442-14.8472,5.7514-23.0055
			c1.6215-3.0657,6.4355-13.3017,7.8543-15.6833c2.9644-4.8646,9.3492-3.2177,13.4537-7.3476
			c4.2819-4.2819,5.422-9.1718,7.2462-14.6192c1.1908-3.4964,4.5606-1.6722,6.4861-5.498
			c2.2296-4.4846,3.6231-9.3998,6.0048-13.9351c3.2431-6.1568,6.9929-12.2375,10.4133-18.4703
			c4.3832-8.057,10.5146-15.0752,17.4568-21.2573c8.4624-7.5249,16.6207-6.9169,25.4125-13.1243
			c6.6888-4.7126,8.9438-8.6651,12.9216-15.4046c4.6112-7.8036,12.0348-5.2446,16.5954-13.9097
			c3.5471-6.7142,3.3444-12.1615,6.3848-18.4703c3.5724-7.4743,9.8052-10.768,14.9232-16.8234
			c3.7245-4.3579,3.9778-8.361,9.9573-10.768c1.4695-0.5827,5.346-0.6841,8.9438-1.0388c3.5724-0.3547,6.8409-0.9628,7.0435-2.4576
			c0.1267-0.0253,0.6334-2.4323,1.0641-3.3191c4.0792-8.437,13.175-9.9066,13.175-21.2573c0-5.2193,1.7229-9.9826,2.3563-14.9738
			c0.4814-3.8258,0.5574-13.023-0.3547-16.6208c4.4339-7.1449-1.5709-34.5083,14.1631-34.5083
			c-2.0269-6.0808,0.1774-10.3373,4.7886-15.734c3.3444-3.9272,1.7736-10.0839,7.7783-10.0839c9.8306,0,10.0586,4.89,17.7355,7.2716
			c4.4846,1.3935,12.0855-0.8615,17.1275-0.8615c8.4624,0,7.4236,2.4576,14.0618,5.2447
			c9.8559-2.2803,20.6746,12.2629,24.8044,19.1544c0-13.2256-20.7253-21.9667-30.5812-26.3246
			c-3.8005-1.6975-34.5843-2.0269-27.7688-8.8424c0.1774-0.1774,0.5574-0.2534,1.1148-0.2534
			c7.0942,0,42.844,12.4149,47.7086,14.9485l32.4054,16.9755c6.1568,3.2431,13.631,5.65,19.2051,9.9826
			c5.0926,3.9525,7.9557,6.2581,7.9557,0.2534c1.6722,1.6722,7.0942,3.7498,9.5265,5.27c5.3713,0.6081,7.677,10.312,14.2138,10.5907
			c12.0095,0.4561,26.4006,11.7561,36.2565,18.1916c7.3476,4.8139,13.251,5.4727,21.6627,6.8409
			c5.5487,0.8868,22.3215,3.2431,27.0847,0.8615c2.787,3.4204,11.072,2.6857,14.9232,5.346
			c8.7411,6.0301,19.2304,1.5455,29.1623,4.1045c5.5233,1.4189,16.8741,7.7023,21.8401,7.7023c0-1.5709-7.753-10.7173,0.1013-8.3104
			c7.1196,2.1789,19.7625,2.0269,27.3381,2.0269c9.8306,1.3935,29.137,3.6991,37.0166,9.4505
			c10.2106,7.4236,13.859,17.4315,26.9073,21.5107c7.2969,0,9.0451,3.0657,14.5938,6.6635
			c2.5083,1.6469,8.8931,8.9184,11.9588,8.9184c-1.7229-6.8409-13.9097-13.7324-18.597-18.7997
			c-2.3816-2.5843-1.1148-5.2953,0-8.1584c0.8868-2.3056,16.7474,10.54,19.5598,12.0095
			c9.1971,4.7633,26.4767,11.0721,31.0119,20.5479c4.1805,8.8171,18.9517,15.506,18.9517,24.7791
			c0.2281,2.939,2.0016,4.8139,5.0673,4.8139c4.4846,0,9.5012,7.9303,14.3151,10.1599
			c10.0586,4.6366,17.6342,13.6564,25.3365,21.3587c3.5724,3.5978,7.1196,8.2344,11.6801,10.6667
			c3.6738,1.9509,11.6548,7.5756,13.9097,10.9454c2.635,5.3207,11.7561,9.5012,16.494,12.6936
			c5.2193,3.4964,8.7411,7.3476,12.8456,11.9842c3.2684,3.6991,2.863,7.2462,5.422,10.768
			c4.0285,5.5994,12.9976,8.7664,17.8875,14.4418c5.9288,6.8662,13.479,9.3492,21.232,13.6564
			c4.2059,0.5321,12.8963,1.2162,14.4925,5.2447c3.8511,9.6279,17.0515,17.9129,23.4109,26.35
			c3.4458,4.5859,8.7918,8.057,13.099,11.9842c4.4086,4.0285,8.9691,10.464,14.3151,13.1243
			c5.118,3.3698,2.8884,8.8171,6.5621,11.3001c3.1417,2.1283,7.6263,4.2819,9.8559,7.2716
			c-2.4576,2.4576-6.9675,2.8377-6.9675,8.0317l11.8575-3.4964c7.1702-2.1029,2.6097-5.3967,3.6738-11.3761
			c0.228-1.2922,7.3983-4.3832,8.9944-5.1686c10.3626-4.9913,22.9295,10.1599,25.7672,18.2169
			c2.7617,7.7783,7.9303,6.4608,5.498,16.3674c-1.0388,4.3072-6.8915,6.5368-6.8915,12.1615c6.6888,0,7.5502-4.4846,10.4893-9.0958
			c1.8749-2.9644,11.376-5.6754,12.4908-1.2415l15.3539,14.3658c3.5218,3.2684,11.4774,15.658,14.7712,15.658
			c0-0.9628,0.2534-1.5202,0.4307-2.2803c1.4949,0,6.8155,4.7126,9.9572,5.27c3.5978,0.6081,7.0689-0.076,9.5266,3.3191
			c3.9778,5.498,9.0198,3.4711,11.4268,9.9826c1.3428,3.5978,3.6738,4.1299,7.1702,4.4592
			c7.981,0.7348,25.5898,18.6223,25.5898,26.5273c0,7.8543,0.6081,14.8472,1.6722,22.5748
			c1.1655,8.6397,8.209,14.7458,9.6025,22.2201c0.8361,8.6398,4.1298,18.2423,6.2075,26.7047
			c2.4069,9.8559,0.5067,20.9026,3.0403,31.0625c0.7347,8.4877-1.2668,13.8337-3.5724,21.7894
			c-1.9002,6.5368-14.1884,14.3658-20.2692,16.8994c-1.3428,1.1402-6.4355,4.2312-6.8156,5.7007
			c3.0911,0,5.8021-2.0522,8.4877-3.2431c3.1164-1.3935,5.9288-3.7245,8.9944-5.0673c3.0404-1.3428,6.4608-2.711,9.1718-4.9153
			c5.346-1.2162,9.9066-20.5732,10.2866-25.6405l1.4189-18.5463c0.4814-6.6635-1.4949-12.6176-1.4949-19.0784
			c2.7363-8.0063,1.1401-23.1069,1.4949-31.9493c0.1773-4.4592,1.1148-10.9454,2.6096-15.1512
			c1.2922-3.6991,4.4592-7.905,5.3207-11.3761c0.4561-0.3294,1.0388-1.4695,1.2415-2.0269c0.2787-0.2027,0.532-0.6588,0.7854-0.9628
			C831.0287,99.526,841.138,104.4666,845.2425,106.6963z"/>
	</defs>
	<clipPath id="SVGID_2_">
		<use xlink:href="#SVGID_1_"  overflow="visible"/>
	</clipPath>
	<g clip-path="url(#SVGID_2_)">
		<polygon fill="#078930" points="-909.7244,-383.9633 1505,-383.9633 1505,1225.853 		"/>
		<polygon fill="#FCDD09" points="-909.7244,-383.9633 1505,1225.853 -909.7244,1225.853 		"/>
		<polygon fill="#DA121A" points="395.1045,452.6137 552.809,338.0349 357.8755,338.0349 297.6378,152.6422 237.4,338.0349 
			42.4666,338.0349 200.1711,452.6137 139.9333,638.0062 297.6378,523.4274 455.3423,638.0062 		"/>
	</g>
</g>
</svg>
