<?xml version="1.0" standalone="yes"?>
<svg xmlns="http://www.w3.org/2000/svg" xmlns:xlink="http://www.w3.org/1999/xlink" xmlns:svg="http://www.w3.org/2000/svg" xmlns:dc="http://purl.org/dc/elements/1.1/" xmlns:cc="http://web.resource.org/cc/" xmlns:rdf="http://www.w3.org/1999/02/22-rdf-syntax-ns#" width="434" height="260">
<path style="fill:#37a101; stroke:none;" d="M0 0L0 86L433 86L433 0L0 0z"/>
<path style="fill:#ffffff; stroke:none;" d="M433 0L433 259L0 259L0 260L434 260L434 77L434 24L433 0z"/>
<path style="fill:#efb501; stroke:none;" d="M0 86L0 87L433 87C422.972 82.7923 405.896 86 395 86L306 86L0 86z"/>
<path style="fill:#ffe901; stroke:none;" d="M0 87L0 172L433 172L433 87L0 87z"/>
<path style="fill:#719b7b; stroke:none;" d="M0 172L0 173L432 173L432 258L0 258L0 259L433 259L433 172L0 172z"/>
<path style="fill:#016dbd; stroke:none;" d="M0 173L0 258L432 258L432 173L0 173z"/>
</svg>
