<?xml version="1.0" encoding="UTF-8" standalone="no"?>
<!-- Created with Sodipodi ("http://www.sodipodi.com/") -->
<svg xmlns:inkscape="http://www.inkscape.org/namespaces/inkscape" xmlns:rdf="http://www.w3.org/1999/02/22-rdf-syntax-ns#" xmlns="http://www.w3.org/2000/svg" xmlns:cc="http://creativecommons.org/ns#" xmlns:dc="http://purl.org/dc/elements/1.1/" xmlns:sodipodi="http://sodipodi.sourceforge.net/DTD/sodipodi-0.dtd" xmlns:svg="http://www.w3.org/2000/svg" xmlns:ns1="http://sozi.baierouge.fr" id="svg1387" inkscape:version="0.48.3.1 r9886" viewBox="0 0 994.48 497.15" sodipodi:version="0.32" version="1.1" sodipodi:docname="_svgclean2.svg" xmlns:xlink="http://www.w3.org/1999/xlink">
  <sodipodi:namedview id="base" inkscape:window-x="0" inkscape:window-y="0" inkscape:window-height="645" inkscape:window-maximized="0" inkscape:zoom="0.22425739" showgrid="true" inkscape:current-layer="svg1387" inkscape:cx="373.45904" inkscape:cy="-29.031075" inkscape:window-width="674"/>
  <rect id="rect848" style="fill-rule:evenodd;stroke-width:1pt;fill:#ffffff" height="496.06" width="992.12" y="0" x="1.4118"/>
  <path id="path8052" inkscape:connector-curvature="0" sodipodi:nodetypes="cccccc" style="fill:#a11011" d="m642.03 170.03zm-69.844-60.974-12.406 63.089 86.439-0.87522-9.2642-62.214"/>
  <rect id="rect7926" style="fill-rule:evenodd;stroke-width:1pt;fill:#a11011" height="6.6291" width="26.517" y="75.334" x="516.71"/>
  <rect id="rect7925" style="fill-rule:evenodd;stroke-width:1pt;fill:#a11011" height="6.6291" width="25.633" y="75.334" x="484.89"/>
  <rect id="rect7924" style="fill-rule:evenodd;stroke-width:1pt;fill:#a11011" height="6.1872" width="25.633" y="74.892" x="452.19"/>
  <path id="path7920" inkscape:connector-curvature="0" sodipodi:nodetypes="ccccccc" style="fill:#a11011" d="m541.68 96.681zm-89.25-15.918v16.263h90.824v-15.917l-90.824-0.34559"/>
  <path id="path7918" inkscape:connector-curvature="0" sodipodi:nodetypes="cccccc" style="fill:#a11011" d="m463.46 103.72-10.634 67.1 91.756 0.43761-12.406-67.1m2.9001 64.547z"/>
  <rect id="rect3065" style="fill-rule:evenodd;stroke-width:1pt;fill:#d61517" height="123.76" width="994.48" y="373.39" x="0"/>
  <rect id="rect7787" style="fill-rule:evenodd;stroke-width:1pt;fill:#a11011" height="25.592" width="337.79" y="170.12" x="328.85"/>
  <path id="path7415" inkscape:connector-curvature="0" sodipodi:nodetypes="ccccccccc" style="fill:#a11011" d="m341.7 192.89-7.1339 127.82-36.731 0.44315v20.544h401.49v-20.544l-36.731 0.44316-7.1339-128.09-313.76-0.61044z"/>
  <path id="path1018" style="fill:#d61517" inkscape:connector-curvature="0" d="m447.2 227.5v21.124h5.1836v-21.124h-5.1836m7.7754 0v21.124h41.469v-21.124h-41.469m44.061 0v21.124h38.877v-21.124h-38.877m41.469 0v21.124h7.7754v-21.124h-7.7754z"/>
  <path id="path1233" inkscape:connector-curvature="0" sodipodi:nodetypes="ccccccc" style="fill:#d61517" d="m604.91 248.59zm-37.21-21.11v21.566h37.866v-21.108l-37.866-0.45829"/>
  <path id="path1236" style="fill:#d61517" inkscape:connector-curvature="0" d="m556.06 297.31v22.866h28.51v-22.87h-28.51m31.102 0v14.291h5.1836v-14.291h-5.1836m36.285 0v14.291h5.1836v-14.291h-5.1836m7.7754 0v22.866h28.51v-22.866h-28.51z"/>
  <path id="path1175" style="fill:#d61517" inkscape:connector-curvature="0" d="m558.65 274.04v20.682h5.1836v-20.682h-5.1836m7.7754 0v20.682h18.143v-20.682h-18.143z"/>
  <path id="path1180" style="fill:#d61517" inkscape:connector-curvature="0" d="m631.22 274.04v20.682h18.58v-20.682h-18.58m21.234 0v20.682h5.3086v-20.682h-5.3086z"/>
  <path id="path961" style="fill:#d61517" inkscape:connector-curvature="0" d="m557.25 196.04v5.6126h99.932v-5.6126h-99.932z"/>
  <path id="path1167" inkscape:connector-curvature="0" sodipodi:nodetypes="cccccc" style="fill:#d61517" d="m347.19 274.48v20.682h17.518v-20.682h-17.518z"/>
  <path id="path1171" style="fill:#d61517" inkscape:connector-curvature="0" d="m410.92 274.04v21.566h18.143v-21.566h-18.143m20.734 0v21.566h5.1836v-21.566h-5.1836z"/>
  <path id="path7814" style="fill:#d61517" inkscape:connector-curvature="0" d="m445.9 196.48v5.1706h103.03v-5.1706h-103.03z"/>
  <path id="path7815" style="fill:#d61517" inkscape:connector-curvature="0" d="m341.14 196.92v5.1706h94.187v-5.1706h-94.187z"/>
  <path id="path958" inkscape:connector-curvature="0" sodipodi:nodetypes="ccc" style="fill:#ffffff" d="m552.58 194.71c-9.9007 0.73164 1.2959 93.26 1.3218 122.11 0 0 11.819-116.05-1.3218-122.11z"/>
  <path id="path942" style="fill:#d61517" inkscape:connector-curvature="0" d="m330.57 179.27v14.18h334.34v-14.18h-334.34z"/>
  <path id="path7819" inkscape:connector-curvature="0" sodipodi:nodetypes="ccc" style="fill:#ffffff" d="m439.44 195.16c-9.9007 0.74488 1.2959 94.948 1.3218 124.32 0 0 11.819-118.15-1.3218-124.32z"/>
  <path id="path7821" inkscape:connector-curvature="0" sodipodi:nodetypes="cccccc" style="fill:#d61517" d="m336.84 274.48v20.682h7.9779v-20.682h-7.9779z"/>
  <path id="path7826" inkscape:connector-curvature="0" sodipodi:nodetypes="ccccccc" style="fill:#d61517" d="m336.64 296.86v23.334h28.51l-0.15551-23.304-28.354-0.0292m28.017 22.838z"/>
  <path id="path7827" inkscape:connector-curvature="0" sodipodi:nodetypes="ccccccc" style="fill:#d61517" d="m690.23 339.7zm-391.54-17.65v18.03h398.42v-17.647l-398.42-0.38315"/>
  <path id="path7828" inkscape:connector-curvature="0" sodipodi:nodetypes="ccccccc" style="fill:#d61517" d="m410.88 297.31v22.553h27.625v-22.525l-27.625-0.0282m27.148 22.074z"/>
  <path id="path7829" inkscape:connector-curvature="0" sodipodi:nodetypes="ccccccc" style="fill:#d61517" d="m444.47 296.86v22.865h28.51l-0.15-22.83-28.36-0.03m28.017 22.379z"/>
  <path id="path7830" inkscape:connector-curvature="0" sodipodi:nodetypes="ccccccc" style="fill:#d61517" d="m520.04 297.3v22.865h31.603l-0.14365-22.836-31.459-0.0286m31.057 22.379z"/>
  <path id="path7831" inkscape:connector-curvature="0" sodipodi:nodetypes="ccccccc" style="fill:#d61517" d="m384.01 249.02zm-37.11-21.98v22.45h37.759v-21.97l-37.76-0.48"/>
  <path id="path7832" inkscape:connector-curvature="0" sodipodi:nodetypes="ccccccc" style="fill:#d61517" d="m343.42 249.02zm-3.696-21.54v22.008h3.761v-21.54l-3.761-0.46767"/>
  <path id="path7833" inkscape:connector-curvature="0" sodipodi:nodetypes="ccccccc" style="fill:#d61517" d="m426.77 249.46zm-39.31-21.98v22.45h40v-21.97l-40-0.48"/>
  <path id="path7834" inkscape:connector-curvature="0" sodipodi:nodetypes="ccccccc" style="fill:#d61517" d="m434.01 249.46zm-4.5646-21.54v22.008h4.6449v-21.54l-4.6449-0.46767"/>
  <path id="path7835" inkscape:connector-curvature="0" sodipodi:nodetypes="ccccccc" style="fill:#d61517" d="m584.77 271.59zm-26.28-20.24v20.682h26.742v-20.243l-26.742-0.4395"/>
  <path id="path7836" inkscape:connector-curvature="0" sodipodi:nodetypes="ccccccc" style="fill:#d61517" d="m657.24 271.17zm-26.71-19.38v19.798h27.184v-19.378l-27.184-0.42072"/>
  <path id="path7837" inkscape:connector-curvature="0" sodipodi:nodetypes="ccccccc" style="fill:#d61517" d="m627.43 271.59zm-38.77-19.81v20.24h39.452v-19.81l-39.452-0.4301"/>
  <path id="path7838" inkscape:connector-curvature="0" sodipodi:nodetypes="ccccccc" style="fill:#ffffff" d="m554.66 178.59zm-4.5646-8.9967v9.192h4.6449v-8.9967l-4.6449-0.19533"/>
  <path id="path7839" inkscape:connector-curvature="0" sodipodi:nodetypes="ccccccc" style="fill:#d61517" d="m564.38 248.15zm-5-20.67v21.124h5.0868v-20.675l-5.0868-0.44889"/>
  <path id="path7840" inkscape:connector-curvature="0" sodipodi:nodetypes="ccccccc" style="fill:#d61517" d="m645.23 248.59zm-35.98-20.67v21.124h36.617v-20.67l-36.62-0.45"/>
  <path id="path7841" inkscape:connector-curvature="0" sodipodi:nodetypes="ccccccc" style="fill:#d61517" d="m656.26 248.59zm-7.17-20.67v21.124h7.2965v-20.675l-7.2965-0.44889"/>
  <path id="path7842" inkscape:connector-curvature="0" sodipodi:nodetypes="ccccccc" style="fill:#d61517" d="m581.74 225.16zm-22.81-21.1v21.566h23.207v-21.108l-23.207-0.45829"/>
  <path id="path7843" inkscape:connector-curvature="0" sodipodi:nodetypes="ccccccc" style="fill:#d61517" d="m626.5 225.17zm-40.68-20.67v21.124h41.402v-20.68l-41.4-0.44"/>
  <path id="path7844" inkscape:connector-curvature="0" sodipodi:nodetypes="ccccccc" style="fill:#d61517" d="m654.19 225.16zm-24.55-21.1v21.566h24.974v-21.108l-24.974-0.45829"/>
  <path id="path7845" inkscape:connector-curvature="0" sodipodi:nodetypes="ccccccc" style="fill:#d61517" d="m444.47 273v21.124h11.716v-20.99l-11.72-0.13m11.514 20.675z"/>
  <path id="path7846" inkscape:connector-curvature="0" sodipodi:nodetypes="ccccccc" style="fill:#d61517" d="m458.61 273.44v21.124h14.497v-20.99l-14.5-0.13m14.246 20.675z"/>
  <path id="path7847" inkscape:connector-curvature="0" sodipodi:nodetypes="ccccccc" style="fill:#d61517" d="m520.04 273.88v21.124h18.787v-21.15l-18.787 0.0264m18.462 20.675z"/>
  <path id="path7848" inkscape:connector-curvature="0" sodipodi:nodetypes="ccccccc" style="fill:#d61517" d="m550.6 294.56zm-9.35-20.68v21.124h9.5063v-20.675l-9.5063-0.44889"/>
  <path id="path7849" style="fill:#d61517" inkscape:connector-curvature="0" d="m338.5 195.59v4.2866h99.932v-4.2866h-99.932z"/>
  <path id="path7850" style="fill:#d61517" inkscape:connector-curvature="0" d="m441.04 195.59v4.2866h110.54v-4.2866h-110.54z"/>
  <path id="path7852" style="fill:#d61517" inkscape:connector-curvature="0" d="m554.09 195.15v4.2866h105.75v-4.2866h-105.75z"/>
  <path id="path7853" inkscape:connector-curvature="0" sodipodi:nodetypes="ccccccc" style="fill:#d61517" d="m364.24 272.02zm-26.28-20.68v21.124h26.742v-20.67l-26.74-0.45"/>
  <path id="path7854" inkscape:connector-curvature="0" sodipodi:nodetypes="ccccccc" style="fill:#d61517" d="m435.44 272.02zm-24.11-20.68v21.124h24.532v-20.67l-24.53-0.45"/>
  <path id="path7855" inkscape:connector-curvature="0" sodipodi:nodetypes="ccccccc" style="fill:#d61517" d="m367.94 251.78v21.124h40.96l0.14894-20.992-41.109-0.13203m40.252 20.675z"/>
  <path id="path7856" inkscape:connector-curvature="0" sodipodi:nodetypes="ccccccc" style="fill:#d61517" d="m446.24 250.46v21.124h27.184l0.14828-20.992-27.333-0.13203m26.715 20.675z"/>
  <path id="path7857" inkscape:connector-curvature="0" sodipodi:nodetypes="ccccccc" style="fill:#d61517" d="m517.32 271.13zm-41.92-20.67v21.124h42.651l-0.1551-20.834-42.496-0.29046"/>
  <path id="path7858" inkscape:connector-curvature="0" sodipodi:nodetypes="ccccccc" style="fill:#d61517" d="m520.48 250.9v21.124h27.625l0.15068-21.15-27.776 0.0264m27.148 20.675z"/>
  <path id="path7859" inkscape:connector-curvature="0" sodipodi:nodetypes="ccccccc" style="fill:#d61517" d="m474.26 224.29zm-27.58-20.67v21.124h28.068v-20.67l-28.07-0.45"/>
  <path id="path7860" inkscape:connector-curvature="0" sodipodi:nodetypes="ccccccc" style="fill:#d61517" d="m518.29 224.72zm-41.55-21.1v21.566h42.286v-21.108l-42.286-0.45829"/>
  <path id="path7861" inkscape:connector-curvature="0" sodipodi:nodetypes="ccccccc" style="fill:#d61517" d="m546.36 224.72zm-24.55-21.1v21.566h24.974v-21.108l-24.974-0.45829"/>
  <path id="path7862" inkscape:connector-curvature="0" sodipodi:nodetypes="cccccc" style="fill:#a11011" d="m429.9 177.1zm-71.616-60.974-10.634 63.089 86.439-0.87522-9.7475-63.526"/>
  <path id="path714" style="fill:#d61517" inkscape:connector-curvature="0" d="m462.79 120.25-2.6391 10.341h36.947v-10.341h-34.308m36.947 0v10.341h34.308v-10.341h-34.308z"/>
  <path id="path756" style="fill:#d61517" inkscape:connector-curvature="0" d="m460.16 133.18v10.341h13.112v-10.341h-13.112m15.734 0v10.341h41.957v-10.341h-41.957m44.579 0v10.341h15.734v-10.341h-15.734z"/>
  <path id="path658" style="fill:#d61517" inkscape:connector-curvature="0" d="m465.4 107.32-2.6428 10.341h10.571v-10.341h-7.9284m10.571 0v10.341h42.285v-10.341h-42.285m44.928 0v10.341h10.571v-10.341h-10.571z"/>
  <path id="path579" style="fill:#d61517" inkscape:connector-curvature="0" d="m452.39 84.055v5.1706h44.503v-5.1706h-44.503m47.12 0v5.1706h41.885v-5.1706h-41.885z"/>
  <path id="path600" style="fill:#d61517" inkscape:connector-curvature="0" d="m452.38 91.811v5.1706h20.734v-5.1706h-20.73m23.326 0v5.1706h41.47v-5.1706h-41.469m44.061 0v5.1706h20.734v-5.1706h-20.734z"/>
  <path id="path561" style="fill:#d61517" inkscape:connector-curvature="0" d="m486.08 76.299v5.1706h23.326v-5.1706h-23.326z"/>
  <path id="path912" style="fill:#d61517" inkscape:connector-curvature="0" d="m330.57 171.96v5.1706h20.734v-5.1706h-20.734z"/>
  <path id="path927" style="fill:#d61517" inkscape:connector-curvature="0" d="m644.18 171.96v5.1706h20.734v-5.1706h-20.734z"/>
  <path id="path7890" inkscape:connector-curvature="0" sodipodi:nodetypes="ccccccc" style="fill:#d61517" d="m372.31 177.36zm-19.765-4.2384v4.3304h20.112v-4.2384l-20.112-0.092"/>
  <path id="path7892" inkscape:connector-curvature="0" sodipodi:nodetypes="ccccccc" style="fill:#d61517" d="m416.56 177.81zm-17.16-3.6267v3.7054h17.461v-3.6267l-17.461-0.0787"/>
  <path id="path7893" inkscape:connector-curvature="0" sodipodi:nodetypes="ccccccc" style="fill:#ffffff" d="m445.94 179zm-4.999-10.294v10.518h5.0868v-10.294l-5.0868-0.2235"/>
  <path id="path7894" inkscape:connector-curvature="0" sodipodi:nodetypes="ccccccc" style="fill:#d61517" d="m369.27 170.99zm-17.16-12.71v12.986h17.461v-12.71l-17.46-0.28"/>
  <path id="path7895" inkscape:connector-curvature="0" sodipodi:nodetypes="ccccccc" style="fill:#d61517" d="m379.58 170.99zm-8.9078-12.277v12.544h9.0643v-12.277l-9.0643-0.26656"/>
  <path id="path7898" inkscape:connector-curvature="0" sodipodi:nodetypes="ccccccc" style="fill:#d61517" d="m430.29 172.27zm-15.42-14.44v14.754h15.694v-14.44l-15.694-0.31352"/>
  <path id="path7899" inkscape:connector-curvature="0" sodipodi:nodetypes="ccccccc" style="fill:#d61517" d="m411.86 171.07zm-12.02-12.61v12.879h12.234v-12.6l-12.23-0.28"/>
  <path id="path7921" inkscape:connector-curvature="0" sodipodi:nodetypes="ccccccc" style="fill:#a11011" d="m435.96 176.43zm-19.33-6.4v6.5402h19.671v-6.4012l-19.671-0.13898"/>
  <path id="path7919" inkscape:connector-curvature="0" sodipodi:nodetypes="cccccc" style="fill:#a11011" d="m535.08 168.7zm-72.019-64.547-11.036-7.1476h90.789l-10.15 8.0958"/>
  <path id="path7922" style="fill:#d61517" inkscape:connector-curvature="0" d="m453.37 76.299v5.1706h23.326v-5.1706h-23.326z"/>
  <path id="path7923" style="fill:#d61517" inkscape:connector-curvature="0" d="m517.45 76.741v5.1706h24.652v-5.1706h-24.652z"/>
  <g id="g7933" transform="translate(107.48 -8.8394)">
    <path id="path7934" style="fill:#d61517" d="m139.81 122.83zm-10.81-7.83v8h11v-7.83l-11-0.17" sodipodi:nodetypes="ccccccc" inkscape:connector-curvature="0" transform="matrix(6.0068 0 0 .20985 -418.88 88.002)"/>
    <path id="path7935" style="fill:#d61517" d="m139.81 122.83zm-10.81-7.83v8h11v-7.83l-11-0.17" sodipodi:nodetypes="ccccccc" inkscape:connector-curvature="0" transform="matrix(6.6496 0 0 .20985 -505.34 87.118)"/>
    <path id="path7936" style="fill:#d61517" d="m139.81 122.83zm-10.81-7.83v8h11v-7.83l-11-0.17" sodipodi:nodetypes="ccccccc" inkscape:connector-curvature="0" transform="matrix(6.971 0 0 .20985 -547.25 85.792)"/>
    <path id="path7937" style="fill:#d61517" d="m139.81 122.83zm-10.81-7.83v8h11v-7.83l-11-0.17" sodipodi:nodetypes="ccccccc" inkscape:connector-curvature="0" transform="matrix(6.971 0 0 .20985 -547.25 85.792)"/>
    <path id="path7938" style="fill:#d61517" d="m139.81 122.83zm-10.81-7.83v8h11v-7.83l-11-0.17" sodipodi:nodetypes="ccccccc" inkscape:connector-curvature="0" transform="matrix(7.2523 0 0 .20985 -584.41 84.024)"/>
  </g>
  <path id="path7958" inkscape:connector-curvature="0" sodipodi:nodetypes="ccccccc" style="fill:#d61517" d="m484.65 177.38zm-15.42-3.38v3.4466h15.694v-3.3733l-15.694-0.0732"/>
  <path id="path7959" inkscape:connector-curvature="0" sodipodi:nodetypes="ccccccc" style="fill:#d61517" d="m523.57 177.38zm-13.25-3.38v3.4466h13.484v-3.3733l-13.48-0.08"/>
  <path id="path7960" inkscape:connector-curvature="0" sodipodi:nodetypes="ccccccc" style="fill:#d61517" d="m362.57 225.15zm-21.07-21.54v22.008h21.439v-21.54l-21.439-0.46767"/>
  <path id="path7961" inkscape:connector-curvature="0" sodipodi:nodetypes="ccccccc" style="fill:#d61517" d="m484.4 172.3zm-29.32-13.32v13.611h29.835v-13.322l-29.835-0.28924"/>
  <path id="path7962" inkscape:connector-curvature="0" sodipodi:nodetypes="ccccccc" style="fill:#d61517" d="m542.37 172.3zm-24.87-13.32v13.611h25.309v-13.32l-25.31-0.29"/>
  <path id="path7963" inkscape:connector-curvature="0" sodipodi:nodetypes="ccccccc" style="fill:#d61517" d="m513.95 172.3zm-7.1705-13.322v13.611h7.2965v-13.322l-7.2965-0.28924"/>
  <path id="path7964" inkscape:connector-curvature="0" sodipodi:nodetypes="ccccccc" style="fill:#a11011" d="m468.72 176.86zm-16.3-6.83v6.9821h16.577v-6.8337l-16.577-0.14837"/>
  <path id="path917" style="fill:#d61517" inkscape:connector-curvature="0" d="m418.69 171.96v5.6126h20.734v-5.6126h-20.734m28.51 0v5.6126h20.734v-5.6126h-20.734z"/>
  <path id="path7965" inkscape:connector-curvature="0" sodipodi:nodetypes="ccccccc" style="fill:#a11011" d="m543.78 176.87zm-19.765-6.4012v6.5402h20.112v-6.4012l-20.112-0.13898"/>
  <path id="path7966" inkscape:connector-curvature="0" sodipodi:nodetypes="ccccccc" style="fill:#d61517" d="m409.03 225.16zm-43.3-21.1v21.566h44.054v-21.108l-44.054-0.45829"/>
  <path id="path7967" inkscape:connector-curvature="0" sodipodi:nodetypes="ccccccc" style="fill:#d61517" d="m434.14 225.16zm-22.37-21.1v21.566h22.764v-21.108l-22.764-0.45829"/>
  <path id="path7968" inkscape:connector-curvature="0" sodipodi:nodetypes="ccccccc" style="fill:#d61517" d="m496.16 156.87zm-38.87-11.59v11.843h39.558v-11.592l-39.558-0.25167"/>
  <path id="path7969" inkscape:connector-curvature="0" sodipodi:nodetypes="ccccccc" style="fill:#d61517" d="m538.14 157.31zm-38.87-11.59v11.843h39.558v-11.592l-39.558-0.25167"/>
  <rect id="rect7889" style="fill-rule:evenodd;stroke-width:1pt;fill:#a11011" height="6.6291" width="22.981" y="86.382" x="412.42"/>
  <rect id="rect7888" style="fill-rule:evenodd;stroke-width:1pt;fill:#a11011" height="7.513" width="25.633" y="85.94" x="378.83"/>
  <rect id="rect7887" style="fill-rule:evenodd;stroke-width:1pt;fill:#a11011" height="6.6291" width="20.329" y="86.382" x="350.54"/>
  <path id="path7885" inkscape:connector-curvature="0" sodipodi:nodetypes="cccccc" style="fill:#a11011" d="m432.66 106.07zm-74.431 10.485-7.9102-11.136 85.129 0.44201-10.246 9.2944"/>
  <path id="path624" style="fill:#d61517" inkscape:connector-curvature="0" d="m351.3 99.567v5.1706h18.143v-5.1706h-18.143m20.734 0v5.1706h41.469v-5.1706h-41.469m44.061 0v5.1706h18.143v-5.1706h-18.143z"/>
  <path id="path586" style="fill:#d61517" inkscape:connector-curvature="0" d="m351.3 87.524v4.5456h18.143v-4.5456h-18.143m28.51 0v4.5456h23.326v-4.5456h-23.326z"/>
  <path id="path588" style="fill:#d61517" inkscape:connector-curvature="0" d="m413.51 87.966v3.9206h20.734v-3.9206h-20.73z"/>
  <rect id="rect7886" style="fill-rule:evenodd;stroke-width:1pt;fill:#a11011" height="13.258" width="84.853" y="93.011" x="350.54"/>
  <path id="path7896" inkscape:connector-curvature="0" sodipodi:nodetypes="ccccccc" style="fill:#d61517" d="m386.74 155.57zm-32.87-10.11v10.334h33.447v-10.115l-33.447-0.21961"/>
  <path id="path7897" inkscape:connector-curvature="0" sodipodi:nodetypes="ccccccc" style="fill:#d61517" d="m428.11 155.57zm-38.64-10.11v10.334h39.321v-10.115l-39.321-0.21961"/>
  <path id="path7900" inkscape:connector-curvature="0" sodipodi:nodetypes="ccccccc" style="fill:#d61517" d="m390.98 98.262zm-39.309-3.8058v3.8885h40v-3.8058l-40-0.08263"/>
  <path id="path7901" inkscape:connector-curvature="0" sodipodi:nodetypes="ccccccc" style="fill:#d61517" d="m369.77 142.74zm-14.12-10.72v10.959h14.368v-10.73l-14.37-0.23"/>
  <path id="path7902" inkscape:connector-curvature="0" sodipodi:nodetypes="ccccccc" style="fill:#d61517" d="m410.95 142.77zm-38.15-9.5v9.7096h38.826v-9.5033l-38.826-0.20633"/>
  <path id="path7903" inkscape:connector-curvature="0" sodipodi:nodetypes="ccccccc" style="fill:#d61517" d="m426.8 143.18zm-12.38-10.72v10.959h12.599v-10.73l-12.6-0.23"/>
  <path id="path7904" inkscape:connector-curvature="0" sodipodi:nodetypes="ccccccc" style="fill:#d61517" d="m389.41 130.84zm-32-9.5v9.7096h32.563v-9.5033l-32.56-0.21"/>
  <path id="path7905" inkscape:connector-curvature="0" sodipodi:nodetypes="ccccccc" style="fill:#d61517" d="m425.13 130.84zm-32.36-9.5v9.7096h32.93v-9.5033l-32.93-0.21"/>
  <path id="path7906" inkscape:connector-curvature="0" sodipodi:nodetypes="ccccccc" style="fill:#d61517" d="m415.12 119.03zm-47.56-3.8v3.8885h48.397v-3.8058l-48.397-0.0826"/>
  <path id="path7907" inkscape:connector-curvature="0" sodipodi:nodetypes="ccccccc" style="fill:#d61517" d="m423.8 119.03zm-6.7362-3.8058v3.8885h6.8546v-3.8058l-6.8546-0.0826"/>
  <path id="path7908" inkscape:connector-curvature="0" sodipodi:nodetypes="ccccccc" style="fill:#d61517" d="m365.9 119.03zm-7.6048-3.8058v3.8885h7.7385v-3.8058l-7.7385-0.0826"/>
  <path id="path7914" inkscape:connector-curvature="0" sodipodi:nodetypes="ccccccc" style="fill:#d61517" d="m433.84 98.262zm-39.384-3.8058v3.8885h40.076v-3.8058l-40.076-0.08263"/>
  <path id="path7915" inkscape:connector-curvature="0" sodipodi:nodetypes="ccccccc" style="fill:#d61517" d="m371.44 106.62zm-19.332-5.4311v5.549h19.671v-5.4311l-19.671-0.11792"/>
  <path id="path7916" inkscape:connector-curvature="0" sodipodi:nodetypes="ccccccc" style="fill:#d61517" d="m410.51 106.01zm-34.247-4.9986v5.1071h34.849v-4.9986l-34.849-0.10853"/>
  <path id="path7917" inkscape:connector-curvature="0" sodipodi:nodetypes="ccccccc" style="fill:#d61517" d="m433.75 106.01zm-19.226-4.8194v4.9241h19.564v-4.8194l-19.564-0.10464"/>
  <g id="g7927" transform="matrix(1 0 0 .8895 1.4118 11.951)">
    <path id="path7909" style="fill:#d61517" d="m139.81 122.83zm-10.81-7.83v8h11v-7.83l-11-0.17" sodipodi:nodetypes="ccccccc" inkscape:connector-curvature="0" transform="matrix(6.0068 0 0 .20985 -418.88 88.002)"/>
    <path id="path7910" style="fill:#d61517" d="m139.81 122.83zm-10.81-7.83v8h11v-7.83l-11-0.17" sodipodi:nodetypes="ccccccc" inkscape:connector-curvature="0" transform="matrix(6.6496 0 0 .20985 -505.34 87.118)"/>
    <path id="path7911" style="fill:#d61517" d="m139.81 122.83zm-10.81-7.83v8h11v-7.83l-11-0.17" sodipodi:nodetypes="ccccccc" inkscape:connector-curvature="0" transform="matrix(6.971 0 0 .20985 -547.25 85.792)"/>
    <path id="path7912" style="fill:#d61517" d="m139.81 122.83zm-10.81-7.83v8h11v-7.83l-11-0.17" sodipodi:nodetypes="ccccccc" inkscape:connector-curvature="0" transform="matrix(6.971 0 0 .20985 -547.25 85.792)"/>
    <path id="path7913" style="fill:#d61517" d="m139.81 122.83zm-10.81-7.83v8h11v-7.83l-11-0.17" sodipodi:nodetypes="ccccccc" inkscape:connector-curvature="0" transform="matrix(7.2523 0 0 .20985 -584.41 84.024)"/>
  </g>
  <path id="path8053" inkscape:connector-curvature="0" sodipodi:nodetypes="ccccccc" style="fill:#d61517" d="m592.49 177.37zm-14.554-3.8058v3.8885h14.809v-3.8058l-14.809-0.0826"/>
  <path id="path8054" inkscape:connector-curvature="0" sodipodi:nodetypes="ccccccc" style="fill:#d61517" d="m641.41 176.93zm-21.94-3.8v3.8885h22.322v-3.8058l-22.322-0.0826"/>
  <path id="path8055" inkscape:connector-curvature="0" sodipodi:nodetypes="ccccccc" style="fill:#d61517" d="m643.67 171.45zm-19.59-11.95v12.21h19.93v-11.95l-19.93-0.26"/>
  <path id="path8056" inkscape:connector-curvature="0" sodipodi:nodetypes="ccccccc" style="fill:#d61517" d="m621.33 171.43zm-8.0054-12.382v12.651h8.146v-12.382l-8.146-0.26884"/>
  <path id="path8057" inkscape:connector-curvature="0" sodipodi:nodetypes="ccccccc" style="fill:#d61517" d="m579.2 171.86zm-16.3-13.25v13.535h16.577v-13.248l-16.577-0.28763"/>
  <path id="path8058" inkscape:connector-curvature="0" sodipodi:nodetypes="ccccccc" style="fill:#d61517" d="m592.57 171.86zm-10.29-13.43v13.718h10.466v-13.427l-10.466-0.29152"/>
  <path id="path8059" inkscape:connector-curvature="0" sodipodi:nodetypes="ccccccc" style="fill:#a11011" d="m577.42 177.73zm-17.16-7.7v7.8659h17.461v-7.6988l-17.461-0.16715"/>
  <path id="path922" style="fill:#d61517" inkscape:connector-curvature="0" d="m525.84 171.96v5.6126h22.928v-5.6126h-22.928m30.571 0v5.6126h20.381v-5.6126h-20.381z"/>
  <path id="path8060" inkscape:connector-curvature="0" sodipodi:nodetypes="ccccccc" style="fill:#d61517" d="m538.18 157.31zm-37.03-11.59v11.843h37.684v-11.59l-37.68-0.25"/>
  <rect id="rect8007" style="fill-rule:evenodd;stroke-width:1pt;fill:#a11011" height="6.6291" width="22.981" y="86.275" x="624.99"/>
  <rect id="rect8008" style="fill-rule:evenodd;stroke-width:1pt;fill:#a11011" height="7.513" width="25.633" y="85.833" x="591.4"/>
  <rect id="rect8009" style="fill-rule:evenodd;stroke-width:1pt;fill:#a11011" height="6.6291" width="20.329" y="86.275" x="563.11"/>
  <path id="path8010" inkscape:connector-curvature="0" sodipodi:nodetypes="cccccc" style="fill:#a11011" d="m645.23 105.96zm-74.431 10.485-7.9102-11.136 85.129 0.44201-10.246 9.2944"/>
  <path id="path8011" style="fill:#d61517" inkscape:connector-curvature="0" d="m563.87 99.459v5.171h18.143v-5.1706h-18.143m20.734 0v5.171h41.469v-5.1706h-41.469m44.061 0v5.171h18.143v-5.1706h-18.143z"/>
  <path id="path8012" style="fill:#d61517" inkscape:connector-curvature="0" d="m563.87 87.416v3.9206h18.143v-3.9206h-18.143m28.51 0v3.9206h23.326v-3.9206h-23.326z"/>
  <path id="path8013" style="fill:#d61517" inkscape:connector-curvature="0" d="m626.08 87.859v3.2956h20.734v-3.2956h-20.73z"/>
  <rect id="rect8014" style="fill-rule:evenodd;stroke-width:1pt;fill:#a11011" height="13.258" width="84.853" y="92.904" x="563.11"/>
  <path id="path8015" inkscape:connector-curvature="0" sodipodi:nodetypes="ccccccc" style="fill:#d61517" d="m599.91 155.45zm-34.35-10.73v10.959h34.956v-10.72l-34.96-0.24"/>
  <path id="path8016" inkscape:connector-curvature="0" sodipodi:nodetypes="ccccccc" style="fill:#d61517" d="m640.72 155.45zm-36.96-10.73v10.959h37.608v-10.72l-37.61-0.24"/>
  <path id="path8017" inkscape:connector-curvature="0" sodipodi:nodetypes="ccccccc" style="fill:#d61517" d="m601.09 98.155zm-36.852-3.8058v3.8885h37.5v-3.8058l-37.5-0.08263"/>
  <path id="path8018" inkscape:connector-curvature="0" sodipodi:nodetypes="ccccccc" style="fill:#d61517" d="m582.34 142.63zm-14.12-10.72v10.959h14.368v-10.73l-14.37-0.23"/>
  <path id="path8019" inkscape:connector-curvature="0" sodipodi:nodetypes="ccccccc" style="fill:#d61517" d="m623.53 142.63zm-37.54-10.72v10.959h38.201v-10.73l-38.2-0.23"/>
  <path id="path8020" inkscape:connector-curvature="0" sodipodi:nodetypes="ccccccc" style="fill:#d61517" d="m639.37 143.08zm-12.38-10.73v10.959h12.599v-10.73l-12.6-0.23"/>
  <path id="path8021" inkscape:connector-curvature="0" sodipodi:nodetypes="ccccccc" style="fill:#d61517" d="m602.6 129.52zm-32.61-7.66v7.8346h33.188v-7.6681l-33.188-0.16649"/>
  <path id="path8022" inkscape:connector-curvature="0" sodipodi:nodetypes="ccccccc" style="fill:#d61517" d="m637.7 129.52zm-31.74-7.66v7.8346h32.304v-7.6681l-32.304-0.16649"/>
  <path id="path8023" inkscape:connector-curvature="0" sodipodi:nodetypes="ccccccc" style="fill:#d61517" d="m627.7 118.93zm-47.56-3.81v3.8885h48.397v-3.8058l-48.397-0.0826"/>
  <path id="path8024" inkscape:connector-curvature="0" sodipodi:nodetypes="ccccccc" style="fill:#d61517" d="m636.38 118.93zm-6.7362-3.8058v3.8885h6.8546v-3.8058l-6.8546-0.0826"/>
  <path id="path8025" inkscape:connector-curvature="0" sodipodi:nodetypes="ccccccc" style="fill:#d61517" d="m578.47 118.93zm-7.6048-3.8058v3.8885h7.7385v-3.8058l-7.7385-0.0826"/>
  <path id="path8026" inkscape:connector-curvature="0" sodipodi:nodetypes="ccccccc" style="fill:#d61517" d="m646.39 98.155zm-40.612-3.8058v3.8885h41.326v-3.8058l-41.326-0.08263"/>
  <path id="path8027" inkscape:connector-curvature="0" sodipodi:nodetypes="ccccccc" style="fill:#d61517" d="m582.78 105.25zm-18.1-6.039v6.1741h18.421v-6.0429l-18.421-0.1312"/>
  <path id="path8028" inkscape:connector-curvature="0" sodipodi:nodetypes="ccccccc" style="fill:#d61517" d="m621.81 105.26zm-35.48-5.608v5.7321h36.099v-5.6103l-36.099-0.12181"/>
  <path id="path8029" inkscape:connector-curvature="0" sodipodi:nodetypes="ccccccc" style="fill:#d61517" d="m646.3 105.27zm-21.07-5.435v5.549h21.439v-5.4311l-21.439-0.11792"/>
  <g id="g8030" transform="matrix(1 0 0 .8895 213.98 11.844)">
    <path id="path8031" style="fill:#d61517" d="m139.81 122.83zm-10.81-7.83v8h11v-7.83l-11-0.17" sodipodi:nodetypes="ccccccc" inkscape:connector-curvature="0" transform="matrix(6.0068 0 0 .20985 -418.88 88.002)"/>
    <path id="path8032" style="fill:#d61517" d="m139.81 122.83zm-10.81-7.83v8h11v-7.83l-11-0.17" sodipodi:nodetypes="ccccccc" inkscape:connector-curvature="0" transform="matrix(6.6496 0 0 .20985 -505.34 87.118)"/>
    <path id="path8033" style="fill:#d61517" d="m139.81 122.83zm-10.81-7.83v8h11v-7.83l-11-0.17" sodipodi:nodetypes="ccccccc" inkscape:connector-curvature="0" transform="matrix(6.971 0 0 .20985 -547.25 85.792)"/>
    <path id="path8034" style="fill:#d61517" d="m139.81 122.83zm-10.81-7.83v8h11v-7.83l-11-0.17" sodipodi:nodetypes="ccccccc" inkscape:connector-curvature="0" transform="matrix(6.971 0 0 .20985 -547.25 85.792)"/>
    <path id="path8035" style="fill:#d61517" d="m139.81 122.83zm-10.81-7.83v8h11v-7.83l-11-0.17" sodipodi:nodetypes="ccccccc" inkscape:connector-curvature="0" transform="matrix(7.2523 0 0 .20985 -584.41 84.024)"/>
  </g>
  <g id="g8036" transform="matrix(1 0 0 .22651 213.98 86.051)">
    <path id="path8037" style="fill:#d61517" d="m139.81 122.83zm-10.81-7.83v8h11v-7.83l-11-0.17" sodipodi:nodetypes="ccccccc" inkscape:connector-curvature="0" transform="matrix(6.0068 0 0 .20985 -418.88 88.002)"/>
    <path id="path8038" style="fill:#d61517" d="m139.81 122.83zm-10.81-7.83v8h11v-7.83l-11-0.17" sodipodi:nodetypes="ccccccc" inkscape:connector-curvature="0" transform="matrix(6.6496 0 0 .20985 -505.34 87.118)"/>
    <path id="path8039" style="fill:#d61517" d="m139.81 122.83zm-10.81-7.83v8h11v-7.83l-11-0.17" sodipodi:nodetypes="ccccccc" inkscape:connector-curvature="0" transform="matrix(6.971 0 0 .20985 -547.25 85.792)"/>
    <path id="path8040" style="fill:#d61517" d="m139.81 122.83zm-10.81-7.83v8h11v-7.83l-11-0.17" sodipodi:nodetypes="ccccccc" inkscape:connector-curvature="0" transform="matrix(6.971 0 0 .20985 -547.25 85.792)"/>
    <path id="path8041" style="fill:#d61517" d="m139.81 122.83zm-10.81-7.83v8h11v-7.83l-11-0.17" sodipodi:nodetypes="ccccccc" inkscape:connector-curvature="0" transform="matrix(7.2523 0 0 .20985 -584.41 84.024)"/>
  </g>
  <rect id="rect9122" style="fill-rule:evenodd;stroke-width:1pt;fill:#808080" height="28.125" width="19.375" y="449.19" x="473.91"/>
  <rect id="rect9123" style="fill-rule:evenodd;stroke-width:1pt;fill:#ffc500" height="24.375" width="16.875" y="451.06" x="476.41"/>
  <rect id="rect9127" style="fill-rule:evenodd;stroke-width:1pt;fill:#808080" height="16.875" width="11.25" y="456.06" x="479.54"/>
  <rect id="rect9126" style="fill-rule:evenodd;stroke-width:1pt;fill:#d61517" height="13.125" width="6.875" y="457.94" x="482.04"/>
  <g id="g9128" transform="translate(-1.7132 -48.75)">
    <rect id="rect9125" style="fill-rule:evenodd;stroke-width:1pt;fill:#808080" height="8.75" width="7.5" y="509.19" x="475"/>
    <rect id="rect9124" style="fill-rule:evenodd;stroke-width:1pt;fill:#d61517" height="5.0001" width="8.125" y="511.06" x="475"/>
  </g>
  <g id="g752" transform="translate(-137.49 -219.42)">
    <rect id="rect747" style="fill-rule:evenodd;stroke-width:1pt;fill:#808080" transform="matrix(-1,0,0,-1,1128.6,1194.5)" height="73.125" width="9.375" y="486.69" x="488.75"/>
    <rect id="rect748" style="fill-rule:evenodd;stroke-width:1pt;fill:#ffc500" transform="matrix(-1,0,0,-1,1128.6,1194.5)" height="69.375" width="5.625" y="488.56" x="490.63"/>
  </g>
  <rect id="rect761" style="fill-rule:evenodd;stroke-width:1pt;fill:#808080" transform="matrix(-.72620 .68749 -.72620 -.68749 0 0)" height="33.691" width="6.2729" y="-648.18" x="-72.675"/>
  <rect id="rect771" style="fill-rule:evenodd;stroke-width:1pt;fill:#808080" transform="matrix(-.67437 -.73839 .67437 -.73839 0 0)" height="31.584" width="6.3836" y="88.095" x="-656.32"/>
  <rect id="rect758" style="fill-rule:evenodd;stroke-width:1pt;fill:#ffc500" transform="matrix(.72178 -.69212 .72178 .69212 0 0)" height="32.094" width="5.1578" y="615.71" x="70.822"/>
  <rect id="rect766" style="fill-rule:evenodd;stroke-width:1pt;fill:#ffc500" transform="matrix(-.67050 -.74191 .67050 -.74191 0 0)" height="31.993" width="5.1416" y="90.576" x="-656.23"/>
  <rect id="rect768" style="fill-rule:evenodd;stroke-width:1pt;fill:#808080" transform="matrix(.71324 -.70092 .71324 .70092 0 0)" height="29.863" width="6.0358" y="615.78" x="47.035"/>
  <rect id="rect769" style="fill-rule:evenodd;stroke-width:1pt;fill:#808080" transform="matrix(.71771 .69634 -.71771 .69634 0 0)" height="34.867" width="6.492" y="-77.963" x="613.2"/>
  <rect id="rect762" style="fill-rule:evenodd;stroke-width:1pt;fill:#ffc500" transform="rotate(225)" height="31.952" width="5.135" y="54.799" x="-619.86"/>
  <rect id="rect9112" style="fill-rule:evenodd;stroke-width:1pt;fill:#808080" height="60.353" width="5" y="326.47" x="495.34"/>
  <rect id="rect9113" style="fill-rule:evenodd;stroke-width:1pt;fill:#ffc500" height="58.371" width="3.4375" y="327.27" x="496.19"/>
  <rect id="rect765" style="fill-rule:evenodd;stroke-width:1pt;fill:#ffc500" transform="rotate(-45)" height="34.106" width="5.4811" y="614.77" x="53.191"/>
  <g id="g813" style="fill:#a11011" transform="matrix(1.2731 0 0 1.0252 -22.942 -7.4498)">
    <rect id="rect814" style="fill-rule:evenodd;stroke-width:1pt;fill:#a11011" height="44.301" width="34.57" y="275.98" x="477.98"/>
    <rect id="rect815" style="fill-rule:evenodd;stroke-width:1pt;fill:#a11011" ry="18.298" height="36.596" width="34.311" y="258.3" x="478.13"/>
  </g>
  <g id="g810" style="fill:#d61517" transform="matrix(1.2053 0 0 .98992 11.026 3.8542)">
    <rect id="rect811" style="fill-rule:evenodd;stroke-width:1pt;fill:#d61517" height="44.301" width="34.57" y="275.98" x="477.98"/>
    <rect id="rect812" style="fill-rule:evenodd;stroke-width:1pt;fill:#d61517" ry="18.298" height="36.596" width="34.311" y="258.3" x="478.13"/>
  </g>
  <g id="g807" style="fill:#a11011" transform="matrix(.89796 0 0 .92941 163.24 23.233)">
    <rect id="rect808" style="fill-rule:evenodd;stroke-width:1pt;fill:#a11011" height="44.301" width="34.57" y="275.98" x="477.98"/>
    <rect id="rect809" style="fill-rule:evenodd;stroke-width:1pt;fill:#a11011" ry="18.298" height="36.596" width="34.311" y="258.3" x="478.13"/>
  </g>
  <rect id="rect793" style="fill-rule:evenodd;stroke-width:1pt;fill:#d61517" height="39.275" width="27.226" y="280.85" x="594.23"/>
  <rect id="rect794" style="fill-rule:evenodd;stroke-width:1pt;fill:#d61517" ry="16.222" height="32.445" width="27.022" y="265.18" x="594.35"/>
  <g id="g984" style="fill:#a11011" transform="matrix(1.3093 0 0 1.0252 -152.41 -8.4644)">
    <rect id="rect985" style="fill-rule:evenodd;stroke-width:1pt;fill:#a11011" height="44.301" width="34.57" y="275.98" x="477.98"/>
    <rect id="rect986" style="fill-rule:evenodd;stroke-width:1pt;fill:#a11011" ry="18.298" height="36.596" width="34.311" y="258.3" x="478.13"/>
  </g>
  <g id="g987" style="fill:#d61517" transform="matrix(1.2395 0 0 .98992 -117.48 2.8395)">
    <rect id="rect988" style="fill-rule:evenodd;stroke-width:1pt;fill:#d61517" height="44.301" width="34.57" y="275.98" x="477.98"/>
    <rect id="rect989" style="fill-rule:evenodd;stroke-width:1pt;fill:#d61517" ry="18.298" height="36.596" width="34.311" y="258.3" x="478.13"/>
  </g>
  <g id="g990" style="fill:#a11011" transform="matrix(.92346 0 0 .92941 39.063 22.218)">
    <rect id="rect991" style="fill-rule:evenodd;stroke-width:1pt;fill:#a11011" height="44.301" width="34.57" y="275.98" x="477.98"/>
    <rect id="rect992" style="fill-rule:evenodd;stroke-width:1pt;fill:#a11011" ry="18.298" height="36.596" width="34.311" y="258.3" x="478.13"/>
  </g>
  <g id="g993" style="fill:#d61517" transform="matrix(.80993 0 0 .88656 95.161 35.163)">
    <rect id="rect994" style="fill-rule:evenodd;stroke-width:1pt;fill:#d61517" height="44.301" width="34.57" y="275.98" x="477.98"/>
    <rect id="rect995" style="fill-rule:evenodd;stroke-width:1pt;fill:#d61517" ry="18.298" height="36.596" width="34.311" y="258.3" x="478.13"/>
  </g>
  <g id="g997" style="fill:#a11011" transform="matrix(1.2912 0 0 1.0252 -251.9 -8.3082)">
    <rect id="rect998" style="fill-rule:evenodd;stroke-width:1pt;fill:#a11011" height="44.301" width="34.57" y="275.98" x="477.98"/>
    <rect id="rect999" style="fill-rule:evenodd;stroke-width:1pt;fill:#a11011" ry="18.298" height="36.596" width="34.311" y="258.3" x="478.13"/>
  </g>
  <g id="g1000" style="fill:#d61517" transform="matrix(1.2224 0 0 .98992 -217.45 2.9958)">
    <rect id="rect1001" style="fill-rule:evenodd;stroke-width:1pt;fill:#d61517" height="44.301" width="34.57" y="275.98" x="477.98"/>
    <rect id="rect1002" style="fill-rule:evenodd;stroke-width:1pt;fill:#d61517" ry="18.298" height="36.596" width="34.311" y="258.3" x="478.13"/>
  </g>
  <g id="g1003" style="fill:#a11011" transform="matrix(.91071 0 0 .92941 -63.065 22.374)">
    <rect id="rect1004" style="fill-rule:evenodd;stroke-width:1pt;fill:#a11011" height="44.301" width="34.57" y="275.98" x="477.98"/>
    <rect id="rect1005" style="fill-rule:evenodd;stroke-width:1pt;fill:#a11011" ry="18.298" height="36.596" width="34.311" y="258.3" x="478.13"/>
  </g>
  <g id="g1006" style="fill:#d61517" transform="matrix(.79875 0 0 .88656 -7.7414 35.319)">
    <rect id="rect1007" style="fill-rule:evenodd;stroke-width:1pt;fill:#d61517" height="44.301" width="34.57" y="275.98" x="477.98"/>
    <rect id="rect1008" style="fill-rule:evenodd;stroke-width:1pt;fill:#d61517" ry="18.298" height="36.596" width="34.311" y="258.3" x="478.13"/>
  </g>
  <path id="path1009" inkscape:connector-curvature="0" sodipodi:nodetypes="cccccc" style="fill:#a11011" d="m474.85 312.92v2.2448h6.1114v-2.2448h-6.1114z"/>
  <path id="path1010" inkscape:connector-curvature="0" sodipodi:nodetypes="cccccc" style="fill:#a11011" d="m366.25 311.35v2.2448h6.1114v-2.2448h-6.1114z"/>
  <path id="path1011" inkscape:connector-curvature="0" sodipodi:nodetypes="cccccc" style="fill:#a11011" d="m366.25 294.64v2.2448h6.1114v-2.2448h-6.1114z"/>
  <path id="path1012" inkscape:connector-curvature="0" sodipodi:nodetypes="cccccc" style="fill:#a11011" d="m366.41 278.85v2.2448h6.1114v-2.2448h-6.1114z"/>
  <path id="path1013" inkscape:connector-curvature="0" sodipodi:nodetypes="cccccc" style="fill:#a11011" d="m403.6 311.98v2.2448h6.1114v-2.2448h-6.1114z"/>
  <path id="path1014" inkscape:connector-curvature="0" sodipodi:nodetypes="cccccc" style="fill:#a11011" d="m403.44 295.1v2.2448h6.1114v-2.2448h-6.1114z"/>
  <path id="path1015" inkscape:connector-curvature="0" sodipodi:nodetypes="cccccc" style="fill:#a11011" d="m402.97 279.17v2.2448h6.1114v-2.2448h-6.1114z"/>
  <path id="path1016" inkscape:connector-curvature="0" sodipodi:nodetypes="cccccc" style="fill:#a11011" d="m483.64 269.96 1.5873-1.5873-4.3214-4.3214-1.5873 1.5873 4.3214 4.3214z"/>
  <path id="path1017" inkscape:connector-curvature="0" sodipodi:nodetypes="cccccc" style="fill:#a11011" d="m511.88 312.76v2.2448h6.1114v-2.2448h-6.1114z"/>
  <path id="path1019" inkscape:connector-curvature="0" sodipodi:nodetypes="cccccc" style="fill:#a11011" d="m475 294.79v2.2448h6.1114v-2.2448h-6.1114z"/>
  <path id="path1020" inkscape:connector-curvature="0" sodipodi:nodetypes="cccccc" style="fill:#a11011" d="m474.53 278.7v2.2448h6.1114v-2.2448h-6.1114z"/>
  <path id="path1021" inkscape:connector-curvature="0" sodipodi:nodetypes="cccccc" style="fill:#a11011" d="m511.88 295.1v2.2448h6.1114v-2.2448h-6.1114z"/>
  <path id="path1022" inkscape:connector-curvature="0" sodipodi:nodetypes="cccccc" style="fill:#a11011" d="m512.19 277.92v2.2448h6.1114v-2.2448h-6.1114z"/>
  <path id="path1023" inkscape:connector-curvature="0" sodipodi:nodetypes="cccccc" style="fill:#a11011" d="m586.72 313.54v2.2448h6.1114v-2.2448h-6.1114z"/>
  <path id="path1024" inkscape:connector-curvature="0" sodipodi:nodetypes="cccccc" style="fill:#a11011" d="m586.72 294.79v2.2448h6.1114v-2.2448h-6.1114z"/>
  <path id="path1025" inkscape:connector-curvature="0" sodipodi:nodetypes="cccccc" style="fill:#a11011" d="m586.88 276.98v2.2448h6.1114v-2.2448h-6.1114z"/>
  <path id="path1026" inkscape:connector-curvature="0" sodipodi:nodetypes="cccccc" style="fill:#a11011" d="m622.97 313.7v2.2448h6.1114v-2.2448h-6.1114z"/>
  <path id="path1027" inkscape:connector-curvature="0" sodipodi:nodetypes="cccccc" style="fill:#a11011" d="m622.82 294.95v2.2448h6.1114v-2.2448h-6.1114z"/>
  <path id="path1028" inkscape:connector-curvature="0" sodipodi:nodetypes="cccccc" style="fill:#a11011" d="m622.97 277.6v2.2448h6.1114v-2.2448h-6.1114z"/>
  <g id="g1065" style="fill:#a11011" transform="matrix(.54292 0 0 .44939 334.23 33.401)">
    <rect id="rect1066" style="fill-rule:evenodd;stroke-width:1pt;fill:#a11011" height="44.301" width="34.57" y="275.98" x="477.98"/>
    <rect id="rect1067" style="fill-rule:evenodd;stroke-width:1pt;fill:#a11011" ry="18.298" height="36.596" width="34.311" y="258.3" x="478.13"/>
  </g>
  <g id="g1068" style="fill:#d61517" transform="matrix(.514 0 0 .43392 348.71 38.356)">
    <rect id="rect1069" style="fill-rule:evenodd;stroke-width:1pt;fill:#d61517" height="44.301" width="34.57" y="275.98" x="477.98"/>
    <rect id="rect1070" style="fill-rule:evenodd;stroke-width:1pt;fill:#d61517" ry="18.298" height="36.596" width="34.311" y="258.3" x="478.13"/>
  </g>
  <g id="g1071" style="fill:#a11011" transform="matrix(.38293 0 0 .4074 413.63 46.85)">
    <rect id="rect1072" style="fill-rule:evenodd;stroke-width:1pt;fill:#a11011" height="44.301" width="34.57" y="275.98" x="477.98"/>
    <rect id="rect1073" style="fill-rule:evenodd;stroke-width:1pt;fill:#a11011" ry="18.298" height="36.596" width="34.311" y="258.3" x="478.13"/>
  </g>
  <g id="g792" style="fill:#d61517" transform="matrix(.33586 0 0 .38861 436.89 52.525)">
    <rect id="rect1075" style="fill-rule:evenodd;stroke-width:1pt;fill:#d61517" height="44.301" width="34.57" y="275.98" x="477.98"/>
    <rect id="rect1076" style="fill-rule:evenodd;stroke-width:1pt;fill:#d61517" ry="18.298" height="36.596" width="34.311" y="258.3" x="478.13"/>
  </g>
  <path id="path1029" inkscape:connector-curvature="0" sodipodi:nodetypes="cccccc" style="fill:#a11011" d="m609.02 257.55h-2.2448v6.1114h2.2448v-6.1114z"/>
  <path id="path1030" inkscape:connector-curvature="0" sodipodi:nodetypes="cccccc" style="fill:#a11011" d="m513.98 266.11-1.5873-1.5873-4.3214 4.3214 1.5873 1.5873 4.3214-4.3214z"/>
  <path id="path1031" inkscape:connector-curvature="0" sodipodi:nodetypes="cccccc" style="fill:#a11011" d="m623.82 265.95-1.5873-1.5873-4.3214 4.3214 1.5873 1.5873 4.3214-4.3214z"/>
  <path id="path1032" inkscape:connector-curvature="0" sodipodi:nodetypes="cccccc" style="fill:#a11011" d="m596.46 270.12 1.5873-1.5873-4.3214-4.3214-1.5873 1.5873 4.3214 4.3214z"/>
  <path id="path1033" inkscape:connector-curvature="0" sodipodi:nodetypes="cccccc" style="fill:#a11011" d="m374.19 262.81-1.5873 1.5873 4.3214 4.3214 1.5873-1.5873-4.3214-4.3214z"/>
  <path id="path1034" inkscape:connector-curvature="0" sodipodi:nodetypes="cccccc" style="fill:#a11011" d="m497.62 257.08h-2.2448v6.1114h2.2448v-6.1114z"/>
  <path id="path1035" inkscape:connector-curvature="0" sodipodi:nodetypes="cccccc" style="fill:#a11011" d="m386.78 264.12h2.2448v-6.1114h-2.2448v6.1114z"/>
  <path id="path1036" inkscape:connector-curvature="0" sodipodi:nodetypes="cccccc" style="fill:#a11011" d="m398.85 268.22 1.5873 1.5873 4.3214-4.3214-1.5873-1.5873-4.3214 4.3214z"/>
  <path id="path1063" inkscape:connector-curvature="0" sodipodi:nodetypes="cccccc" style="fill:#d61517" d="m402.94 344.84-1.5873 1.5873 4.3214 4.3214 1.5873-1.5873-4.3214-4.3214z"/>
  <path id="path1128" style="fill:#a11011" inkscape:connector-curvature="0" d="m596.8 170.76v6.8028h22.238v-6.8028h-22.238z"/>
  <path id="path925" style="fill:#d61517" inkscape:connector-curvature="0" d="m597.53 171.96v5.1706h20.734v-5.1706h-20.734z"/>
  <g id="g1101" transform="translate(-98.698 -108)">
    <g id="g1115" style="fill:#a11011" transform="matrix(.61374 0 0 .46256 290.81 137.49)">
      <rect id="rect1116" style="fill-rule:evenodd;stroke-width:1pt;fill:#a11011" height="44.301" width="34.57" y="275.98" x="477.98"/>
      <rect id="rect1117" style="fill-rule:evenodd;stroke-width:1pt;fill:#a11011" ry="18.298" height="36.596" width="34.311" y="258.3" x="478.13"/>
    </g>
    <g id="g1118" style="fill:#d61517" transform="matrix(.58106 0 0 .44663 307.18 142.59)">
      <rect id="rect1119" style="fill-rule:evenodd;stroke-width:1pt;fill:#d61517" height="44.301" width="34.57" y="275.98" x="477.98"/>
      <rect id="rect1120" style="fill-rule:evenodd;stroke-width:1pt;fill:#d61517" ry="18.298" height="36.596" width="34.311" y="258.3" x="478.13"/>
    </g>
    <g id="g1121" style="fill:#a11011" transform="matrix(.43289 0 0 .41934 380.56 151.34)">
      <rect id="rect1122" style="fill-rule:evenodd;stroke-width:1pt;fill:#a11011" height="44.301" width="34.57" y="275.98" x="477.98"/>
      <rect id="rect1123" style="fill-rule:evenodd;stroke-width:1pt;fill:#a11011" ry="18.298" height="36.596" width="34.311" y="258.3" x="478.13"/>
    </g>
    <g id="g1124" style="fill:#d61517" transform="matrix(.37967 0 0 .4 406.86 157.18)">
      <rect id="rect1125" style="fill-rule:evenodd;stroke-width:1pt;fill:#d61517" height="44.301" width="34.57" y="275.98" x="477.98"/>
      <rect id="rect1126" style="fill-rule:evenodd;stroke-width:1pt;fill:#d61517" ry="18.298" height="36.596" width="34.311" y="258.3" x="478.13"/>
    </g>
  </g>
  <path id="path1127" style="fill:#a11011" inkscape:connector-curvature="0" d="m485.8 171.03v6.8028h24.686v-6.8028h-24.686z"/>
  <path id="path919" style="fill:#d61517" inkscape:connector-curvature="0" d="m486.08 172.4v5.1706h23.326v-5.1706h-23.326z"/>
  <g id="g1129" transform="translate(-207.25 -108)">
    <g id="g1130" style="fill:#a11011" transform="matrix(.61374 0 0 .46256 290.81 137.49)">
      <rect id="rect1131" style="fill-rule:evenodd;stroke-width:1pt;fill:#a11011" height="44.301" width="34.57" y="275.98" x="477.98"/>
      <rect id="rect1132" style="fill-rule:evenodd;stroke-width:1pt;fill:#a11011" ry="18.298" height="36.596" width="34.311" y="258.3" x="478.13"/>
    </g>
    <g id="g1133" style="fill:#d61517" transform="matrix(.58106 0 0 .44663 307.18 142.59)">
      <rect id="rect1134" style="fill-rule:evenodd;stroke-width:1pt;fill:#d61517" height="44.301" width="34.57" y="275.98" x="477.98"/>
      <rect id="rect1135" style="fill-rule:evenodd;stroke-width:1pt;fill:#d61517" ry="18.298" height="36.596" width="34.311" y="258.3" x="478.13"/>
    </g>
    <g id="g1136" style="fill:#a11011" transform="matrix(.43289 0 0 .41934 380.56 151.34)">
      <rect id="rect1137" style="fill-rule:evenodd;stroke-width:1pt;fill:#a11011" height="44.301" width="34.57" y="275.98" x="477.98"/>
      <rect id="rect1138" style="fill-rule:evenodd;stroke-width:1pt;fill:#a11011" ry="18.298" height="36.596" width="34.311" y="258.3" x="478.13"/>
    </g>
    <g id="g1139" style="fill:#d61517" transform="matrix(.37967 0 0 .4 406.86 157.18)">
      <rect id="rect1140" style="fill-rule:evenodd;stroke-width:1pt;fill:#d61517" height="44.301" width="34.57" y="275.98" x="477.98"/>
      <rect id="rect1141" style="fill-rule:evenodd;stroke-width:1pt;fill:#d61517" ry="18.298" height="36.596" width="34.311" y="258.3" x="478.13"/>
    </g>
  </g>
  <path id="path1142" style="fill:#a11011" inkscape:connector-curvature="0" d="m373.17 168.86v8.163h21.694v-8.163h-21.694z"/>
  <path id="path7891" inkscape:connector-curvature="0" sodipodi:nodetypes="ccccccc" style="fill:#d61517" d="m393.54 177.29zm-18.89-7.26v7.424h19.229v-7.2662l-19.229-0.15776"/>
  <metadata id="metadata302">
    <rdf:RDF>
      <cc:Work>
        <dc:format>image/svg+xml</dc:format>
        <dc:type rdf:resource="http://purl.org/dc/dcmitype/StillImage"/>
        <cc:license rdf:resource="http://creativecommons.org/licenses/publicdomain/"/>
        <dc:publisher>
          <cc:Agent rdf:about="http://openclipart.org/">
            <dc:title>Openclipart</dc:title>
          </cc:Agent>
        </dc:publisher>
      </cc:Work>
      <cc:License rdf:about="http://creativecommons.org/licenses/publicdomain/">
        <cc:permits rdf:resource="http://creativecommons.org/ns#Reproduction"/>
        <cc:permits rdf:resource="http://creativecommons.org/ns#Distribution"/>
        <cc:permits rdf:resource="http://creativecommons.org/ns#DerivativeWorks"/>
      </cc:License>
    </rdf:RDF>
  </metadata>
</svg>
