<?xml version="1.0" encoding="UTF-8" standalone="no"?>
<!-- Created with Inkscape (http://www.inkscape.org/) -->
<svg xmlns:rdf="http://www.w3.org/1999/02/22-rdf-syntax-ns#" xmlns="http://www.w3.org/2000/svg" xmlns:cc="http://web.resource.org/cc/" xmlns:xlink="http://www.w3.org/1999/xlink" xmlns:dc="http://purl.org/dc/elements/1.1/" xmlns:svg="http://www.w3.org/2000/svg" xmlns:inkscape="http://www.inkscape.org/namespaces/inkscape" xmlns:sodipodi="http://sodipodi.sourceforge.net/DTD/sodipodi-0.dtd" xmlns:ns1="http://sozi.baierouge.fr" id="svg548" viewBox="0 0 825.59 493.56" version="1.0" y="0" x="0" inkscape:version="0.91 r13725">
  <rect id="rect672" style="fill-rule:evenodd;stroke-width:1pt;fill:#399408" transform="matrix(.98275 0 0 1.0596 -.057624 -4.0135)" height="466.67" width="840.37" y="3.8934" x="-.12282"/>
  <path id="path555" style="fill-rule:evenodd;fill:#ffffff" transform="matrix(1.6223 .024269 -.012901 1.0203 -3.1146 -2.919)" d="m-1.7998e-16 -4.4409e-14c-0.67194 0.090498 498.48 233.44 498.48 233.44l-494.74 253.84-3.74-487.28z"/>
  <path id="path671" style="fill-rule:evenodd;fill:#ffde08" transform="matrix(1.4364 0 0 .93473 -2.9681 18.003)" d="m5.768e-17 2.1816e-14c3.133 0 506.09 241.6 503.23 243.98l-501.8 247.34-1.43-491.32z"/>
  <path id="path556" style="fill-rule:evenodd;fill:#000000" d="m-2.7743-0.10954c2.4142 0 380.18 248.7 380.18 248.7l-380.18 242.88-0.0043-491.58z"/>
  <path id="path670" style="fill-rule:evenodd;fill:#de2110" transform="matrix(1.0343 0 0 .85058 -2.9681 38.877)" d="m1.3271e-16 -7.8263c2.0843-18.262 328.02 253.95 328.02 253.95l-328.02 255.16 1.3271e-16 -509.11z"/>
  <metadata>
    <rdf:RDF>
      <cc:Work>
        <dc:format>image/svg+xml</dc:format>
        <dc:type rdf:resource="http://purl.org/dc/dcmitype/StillImage"/>
        <cc:license rdf:resource="http://creativecommons.org/licenses/publicdomain/"/>
        <dc:publisher>
          <cc:Agent rdf:about="http://openclipart.org/">
            <dc:title>Openclipart</dc:title>
          </cc:Agent>
        </dc:publisher>
        <dc:title>Flag of Guyana</dc:title>
        <dc:date>2007-12-08T17:49:43</dc:date>
        <dc:description/>
        <dc:source>https://openclipart.org/detail/9614/flag-of-guyana-by-anonymous</dc:source>
        <dc:creator>
          <cc:Agent>
            <dc:title>Anonymous</dc:title>
          </cc:Agent>
        </dc:creator>
        <dc:subject>
          <rdf:Bag>
            <rdf:li>country</rdf:li>
            <rdf:li>externalsource</rdf:li>
            <rdf:li>flag</rdf:li>
            <rdf:li>guyana</rdf:li>
            <rdf:li>nation</rdf:li>
          </rdf:Bag>
        </dc:subject>
      </cc:Work>
      <cc:License rdf:about="http://creativecommons.org/licenses/publicdomain/">
        <cc:permits rdf:resource="http://creativecommons.org/ns#Reproduction"/>
        <cc:permits rdf:resource="http://creativecommons.org/ns#Distribution"/>
        <cc:permits rdf:resource="http://creativecommons.org/ns#DerivativeWorks"/>
      </cc:License>
    </rdf:RDF>
  </metadata>
</svg>
