<?xml version="1.0" encoding="UTF-8" standalone="no"?>
<svg
   xmlns:dc="http://purl.org/dc/elements/1.1/"
   xmlns:cc="http://creativecommons.org/ns#"
   xmlns:rdf="http://www.w3.org/1999/02/22-rdf-syntax-ns#"
   xmlns:svg="http://www.w3.org/2000/svg"
   xmlns="http://www.w3.org/2000/svg"
   xmlns:xlink="http://www.w3.org/1999/xlink"
   xmlns:sodipodi="http://sodipodi.sourceforge.net/DTD/sodipodi-0.dtd"
   xmlns:inkscape="http://www.inkscape.org/namespaces/inkscape"
   viewBox="0 0 960.00004 640.00079"
   id="svg2"
   version="1.1"
   inkscape:version="0.91 r13725"
   sodipodi:docname="BevelledIraq.svg"
   width="960.00006"
   height="640.00079">
  <metadata
     id="metadata4551">
    <rdf:RDF>
      <cc:Work
         rdf:about="">
        <dc:format>image/svg+xml</dc:format>
        <dc:type
           rdf:resource="http://purl.org/dc/dcmitype/StillImage" />
        <dc:title></dc:title>
      </cc:Work>
    </rdf:RDF>
  </metadata>
  <sodipodi:namedview
     pagecolor="#ffffff"
     bordercolor="#666666"
     borderopacity="1"
     objecttolerance="10"
     gridtolerance="10"
     guidetolerance="10"
     inkscape:pageopacity="0"
     inkscape:pageshadow="2"
     inkscape:window-width="1600"
     inkscape:window-height="837"
     id="namedview4549"
     showgrid="true"
     fit-margin-top="0"
     fit-margin-left="0"
     fit-margin-right="0"
     fit-margin-bottom="0"
     inkscape:object-nodes="true"
     inkscape:snap-smooth-nodes="true"
     inkscape:object-paths="false"
     inkscape:snap-global="true"
     inkscape:zoom="1.0468737"
     inkscape:cx="480.00003"
     inkscape:cy="320.0004"
     inkscape:window-x="-8"
     inkscape:window-y="-8"
     inkscape:window-maximized="1"
     inkscape:current-layer="svg2" />
  <defs
     id="defs4">
    <linearGradient
       id="linearGradient6136">
      <stop
         style="stop-color:#000000;stop-opacity:0;"
         offset="0"
         id="stop6138" />
      <stop
         style="stop-color:#000000;stop-opacity:1;"
         offset="1"
         id="stop6140" />
    </linearGradient>
    <linearGradient
       id="linearGradient22506">
      <stop
         style="stop-color:#ffffff;stop-opacity:1;"
         offset="0"
         id="stop22508" />
      <stop
         style="stop-color:#ffffff;stop-opacity:0;"
         offset="1"
         id="stop22510" />
    </linearGradient>
    <linearGradient
       id="linearGradient22338">
      <stop
         style="stop-color:#000000;stop-opacity:0;"
         offset="0"
         id="stop22340" />
      <stop
         id="stop6129"
         offset="0.5"
         style="stop-color:#000000;stop-opacity:0;" />
      <stop
         style="stop-color:#000000;stop-opacity:1;"
         offset="1"
         id="stop22342" />
    </linearGradient>
    <filter
       style="color-interpolation-filters:sRGB"
       inkscape:label="Blur"
       id="filter23929">
      <feGaussianBlur
         stdDeviation="1 5"
         result="blur"
         id="feGaussianBlur23931" />
    </filter>
    <filter
       style="color-interpolation-filters:sRGB"
       inkscape:label="Blur"
       id="filter23980">
      <feGaussianBlur
         stdDeviation="2 2"
         result="blur"
         id="feGaussianBlur23982" />
    </filter>
    <filter
       style="color-interpolation-filters:sRGB"
       inkscape:label="Blur"
       id="filter23988">
      <feGaussianBlur
         stdDeviation="1 1"
         result="blur"
         id="feGaussianBlur23990" />
    </filter>
    <filter
       style="color-interpolation-filters:sRGB"
       inkscape:label="Blur"
       id="filter24008">
      <feGaussianBlur
         stdDeviation="1 1"
         result="blur"
         id="feGaussianBlur24010" />
    </filter>
    <filter
       style="color-interpolation-filters:sRGB"
       inkscape:label="Blur"
       id="filter24012">
      <feGaussianBlur
         stdDeviation="1 1"
         result="blur"
         id="feGaussianBlur24014" />
    </filter>
    <filter
       style="color-interpolation-filters:sRGB"
       inkscape:label="Blur"
       id="filter24016">
      <feGaussianBlur
         stdDeviation="1 1"
         result="blur"
         id="feGaussianBlur24018" />
    </filter>
    <filter
       style="color-interpolation-filters:sRGB"
       inkscape:label="Blur"
       id="filter24020">
      <feGaussianBlur
         stdDeviation="1 1"
         result="blur"
         id="feGaussianBlur24022" />
    </filter>
    <filter
       style="color-interpolation-filters:sRGB"
       inkscape:label="Blur"
       id="filter24024">
      <feGaussianBlur
         stdDeviation="1 1"
         result="blur"
         id="feGaussianBlur24026" />
    </filter>
    <filter
       style="color-interpolation-filters:sRGB"
       inkscape:label="Blur"
       id="filter24028">
      <feGaussianBlur
         stdDeviation="1 1"
         result="blur"
         id="feGaussianBlur24030" />
    </filter>
    <filter
       style="color-interpolation-filters:sRGB"
       inkscape:label="Blur"
       id="filter24032">
      <feGaussianBlur
         stdDeviation="1 1"
         result="blur"
         id="feGaussianBlur24034" />
    </filter>
    <filter
       style="color-interpolation-filters:sRGB"
       inkscape:label="Blur"
       id="filter24036">
      <feGaussianBlur
         stdDeviation="1 1"
         result="blur"
         id="feGaussianBlur24038" />
    </filter>
    <filter
       style="color-interpolation-filters:sRGB"
       inkscape:label="Blur"
       id="filter24052">
      <feGaussianBlur
         stdDeviation="1 1"
         result="blur"
         id="feGaussianBlur24054" />
    </filter>
    <filter
       style="color-interpolation-filters:sRGB"
       inkscape:label="Blur"
       id="filter24309">
      <feGaussianBlur
         stdDeviation="2 2"
         result="blur"
         id="feGaussianBlur24311" />
    </filter>
    <clipPath
       clipPathUnits="userSpaceOnUse"
       id="clipPath4532">
      <path
         inkscape:connector-curvature="0"
         id="path4534"
         d="M 18.75,-2.6189942e-4 A 18.75,18.75 0 0 0 0,18.749739 L 0,381.25023 a 18.75,18.75 0 0 0 18.75,18.75 l 562.50001,0 a 18.75,18.75 0 0 0 18.75001,-18.75 l 0,-362.500491 A 18.75,18.75 0 0 0 581.25001,-2.6189942e-4 l -562.50001,0 z"
         style="fill:#00ffff;fill-opacity:1" />
    </clipPath>
    <radialGradient
       inkscape:collect="always"
       xlink:href="#linearGradient22338"
       id="radialGradient6127"
       cx="1070"
       cy="700.00079"
       fx="1070"
       fy="700.00079"
       r="40"
       gradientUnits="userSpaceOnUse"
       gradientTransform="matrix(-1,0,0,1,1830,-99.999203)" />
    <linearGradient
       inkscape:collect="always"
       xlink:href="#linearGradient6136"
       id="linearGradient6142"
       x1="780"
       y1="373.3338"
       x2="800"
       y2="373.3338"
       gradientUnits="userSpaceOnUse" />
    <linearGradient
       inkscape:collect="always"
       xlink:href="#linearGradient6136"
       id="linearGradient6152"
       x1="410"
       y1="620.00079"
       x2="410"
       y2="640.00079"
       gradientUnits="userSpaceOnUse" />
    <radialGradient
       inkscape:collect="always"
       xlink:href="#linearGradient22338"
       id="radialGradient6156"
       gradientUnits="userSpaceOnUse"
       gradientTransform="translate(-1030,-99.9992)"
       cx="1070"
       cy="700.00079"
       fx="1070"
       fy="700.00079"
       r="40" />
    <linearGradient
       inkscape:collect="always"
       xlink:href="#linearGradient6136"
       id="linearGradient6160"
       gradientUnits="userSpaceOnUse"
       x1="780"
       y1="373.3338"
       x2="800"
       y2="373.3338"
       gradientTransform="translate(-800,0)" />
    <linearGradient
       inkscape:collect="always"
       xlink:href="#linearGradient6136"
       id="linearGradient6164"
       gradientUnits="userSpaceOnUse"
       x1="410"
       y1="620.00079"
       x2="410"
       y2="640.00079"
       gradientTransform="translate(0,-746.66757)" />
    <radialGradient
       inkscape:collect="always"
       xlink:href="#linearGradient22338"
       id="radialGradient6174"
       gradientUnits="userSpaceOnUse"
       gradientTransform="matrix(-1,0,0,-1,1830,846.66678)"
       cx="1070"
       cy="700.00079"
       fx="1070"
       fy="700.00079"
       r="40" />
    <radialGradient
       inkscape:collect="always"
       xlink:href="#linearGradient22338"
       id="radialGradient6176"
       gradientUnits="userSpaceOnUse"
       gradientTransform="matrix(1,0,0,-1,-1030,846.66678)"
       cx="1070"
       cy="700.00079"
       fx="1070"
       fy="700.00079"
       r="40" />
    <linearGradient
       inkscape:collect="always"
       xlink:href="#linearGradient22506"
       id="linearGradient6209"
       x1="2050"
       y1="-120.00079"
       x2="2560"
       y2="-630.00079"
       gradientUnits="userSpaceOnUse"
       gradientTransform="matrix(1,0,0,1.0068041,-1000,4.218536)" />
    <filter
       style="color-interpolation-filters:sRGB"
       inkscape:label="Blur"
       id="filter6223">
      <feGaussianBlur
         stdDeviation="2 2"
         result="blur"
         id="feGaussianBlur6225" />
    </filter>
    <clipPath
       clipPathUnits="userSpaceOnUse"
       id="clipPath4867">
      <rect
         style="fill:#d70000;fill-opacity:1"
         id="rect4869"
         width="410.99899"
         height="273.99966"
         x="79.479965"
         y="-326.81558"
         transform="scale(1,-1)"
         ry="20.54995" />
    </clipPath>
  </defs>
  <g
     id="g4871"
     transform="translate(80,-54.288626)">
    <rect
       style="fill:#000000;fill-opacity:1;filter:url(#filter6223)"
       id="rect6199"
       width="800"
       height="533.33398"
       x="-1000"
       y="-640.00079"
       transform="matrix(1,0,0,-1,1000,0.95522506)"
       ry="40" />
    <g
       clip-path="url(#clipPath4867)"
       transform="matrix(1.9464768,0,0,1.9464768,-154.70591,3.8618731)"
       id="g4147">
      <rect
         style="fill:#ffffff"
         id="rect7_1_"
         x="79.500999"
         y="139.356"
         width="410.99799"
         height="101.287" />
      <rect
         id="rect3"
         x="79.5"
         y="53"
         width="410.99799"
         height="91.288002"
         style="fill:#ce1126;fill-opacity:1" />
      <rect
         id="rect7"
         x="79.5"
         y="235.713"
         width="410.99799"
         height="91.287003"
         style="fill:#000000;fill-opacity:1" />
      <g
         id="g6"
         style="fill:#007a3d;fill-opacity:1">
        <g
           id="g8"
           style="fill:#007a3d;fill-opacity:1">
          <g
             id="g10"
             style="fill:#007a3d;fill-opacity:1">
            <path
               inkscape:connector-curvature="0"
               d="m 325.525,173.177 c -0.558,-0.294 -1.186,-0.767 -1.395,-1.053 -0.314,-0.439 -0.131,-0.456 1.163,-0.105 2.319,0.629 3.815,0.384 5.298,-0.872 l 1.308,-1.103 1.54,0.784 c 0.848,0.428 1.748,0.724 2.008,0.656 0.667,-0.176 2.05,-1.95 2.005,-2.564 -0.054,-0.759 0.587,-0.569 0.896,0.263 0.615,1.631 -0.281,3.503 -1.865,3.918 -0.774,0.202 -1.488,0.127 -2.659,-0.28 -1.439,-0.502 -1.684,-0.495 -2.406,0.057 -1.617,1.24 -3.869,1.356 -5.893,0.299 z"
               id="path12"
               style="fill:#007a3d;fill-opacity:1" />
            <path
               inkscape:connector-curvature="0"
               d="m 331.258,167.935 c -0.563,-0.716 -1.239,-3.423 -1.02,-4.088 0.192,-0.575 0.39,-0.69 0.914,-0.526 0.918,0.287 1.13,0.92 0.993,3.063 -0.107,1.748 -0.366,2.207 -0.887,1.551 z"
               id="path14"
               style="fill:#007a3d;fill-opacity:1" />
          </g>
          <path
             inkscape:connector-curvature="0"
             d="m 263.743,165.991 c -0.185,1.31 2.325,4.567 3.458,5.157 -0.77,0.345 -1.728,0.189 -2.434,0.577 -3.948,3.948 -18.367,18.005 -21,21.366 7.799,0.154 16.449,-0.106 23.761,-0.44 -0.007,-5.299 5.018,-5.573 8.381,-7.503 1.73,2.725 6.075,2.516 6.618,6.618 0,4.91 0.009,12.306 0.009,17.646 -22.059,0 -44.566,0 -66.625,0 -1.172,5.176 -5.844,9.125 -12.354,7.5 2.014,-2.103 5.406,-2.827 6.619,-5.734 1.025,-6.365 -2.045,-10.296 -4.031,-13.907 3.284,-1.195 3.782,-1.493 7.121,-3.737 -2.343,7.12 6.091,6.338 12.353,6.175 0.211,-2.417 0.089,-5.271 -1.766,-5.624 2.396,-0.87 2.794,-1.168 6.619,-4.412 0,2.942 0,6.652 0,9.592 14.886,0 30.943,-0.111 46.139,-0.111 0,-3.002 0.795,-7.824 -1.581,-7.824 -2.269,0 -0.107,6.173 -1.87,6.173 -1.763,0 -23.719,0 -35.63,0 0,-1.328 -0.034,-4.104 -0.034,-6.104 1.51,-1.511 1.331,-1.38 11.648,-11.698 1.028,-1.029 8.266,-7.567 14.599,-13.71 z"
             id="path16"
             style="fill:#007a3d;fill-opacity:1" />
          <path
             inkscape:connector-curvature="0"
             d="m 352.803,165.737 c 2.488,1.338 4.457,3.191 7.502,3.971 -0.353,1.26 -1.475,1.759 -1.769,3.087 0,8.97 0,17.941 0,26.91 3.402,0.75 4.118,-1.178 5.737,-2.205 0.442,4.307 3.185,8.53 3.088,11.91 -4.851,0 -9.706,0 -14.559,0 10e-4,-14.555 10e-4,-29.114 10e-4,-43.673 z"
             id="path18"
             style="fill:#007a3d;fill-opacity:1" />
          <path
             inkscape:connector-curvature="0"
             d="m 333.391,180.149 c 0,0 5.296,-4.471 5.296,-4.643 0,7.646 0,15.837 0,23.485 l 3.814,-0.006 c 0,-8.948 -0.118,-18.023 -0.118,-26.338 1.548,-1.549 4.58,-3.792 5.338,-5.359 0,15.987 0,29.519 0,42.059 -10.746,0 -30.793,0.013 -33.443,0.013 -0.493,-8.73 -0.577,-17.771 9.599,-15.827 0,-1.488 0,-2.369 0,-3.562 -0.31,-0.609 -0.868,0.147 -0.998,-0.645 1.616,-1.617 2.163,-2.029 6.538,-5.851 0,4.612 0.081,15.499 0.081,15.499 1.07,0 3.153,0.004 3.857,0.004 10e-4,0.001 0.036,-18.228 0.036,-18.829 z m -12.554,18.602 c 0.716,1.075 3.155,1.056 3.04,-0.755 -0.411,-1.493 -3.615,-0.924 -3.04,0.755 z"
             id="path20"
             style="fill:#007a3d;fill-opacity:1" />
          <circle
             cx="224.026"
             cy="214.369"
             r="2.0420001"
             id="circle22"
             style="fill:#007a3d;fill-opacity:1" />
          <path
             inkscape:connector-curvature="0"
             d="M 341.175,199.295"
             id="path24"
             style="fill:#007a3d;fill-opacity:1" />
          <path
             inkscape:connector-curvature="0"
             d="M 329.451,199.295"
             id="path26"
             style="fill:#007a3d;fill-opacity:1" />
          <path
             inkscape:connector-curvature="0"
             d="m 287.048,165.779 c 2.488,1.339 4.457,3.191 7.502,3.971 -0.353,1.26 -1.476,1.759 -1.768,3.087 0,8.97 0,17.94 0,26.911 3.401,0.749 4.117,-1.179 5.736,-2.206 0.441,4.307 3.185,8.529 3.088,11.91 -4.851,0 -9.706,0 -14.559,0 10e-4,-14.555 10e-4,-29.114 10e-4,-43.673 z"
             id="path28"
             style="fill:#007a3d;fill-opacity:1" />
        </g>
      </g>
    </g>
    <g
       transform="translate(-1000,0)"
       id="g6211">
      <g
         id="g6189"
         transform="translate(1000,0)">
        <path
           inkscape:connector-curvature="0"
           id="path5058"
           d="m 800,600.00079 a 40,40 0 0 1 -40,40 l 0,-20 a 20,20 0 0 0 20,-20 l 20,0 z"
           style="opacity:0.603;fill:url(#radialGradient6127);fill-opacity:1" />
        <rect
           ry="0"
           y="146.66679"
           x="780"
           height="453.33401"
           width="20"
           id="rect6134"
           style="opacity:0.603;fill:url(#linearGradient6142);fill-opacity:1" />
        <rect
           y="620.00079"
           x="40"
           height="20"
           width="720"
           id="rect6144"
           style="opacity:0.603;fill:url(#linearGradient6152);fill-opacity:1" />
        <path
           style="opacity:0.603;fill:url(#radialGradient6156);fill-opacity:1"
           d="m 0,600.00079 a 40,40 0 0 0 40,40 l 0,-20 a 20,20 0 0 1 -20,-20 l -20,0 z"
           id="path6154"
           inkscape:connector-curvature="0" />
        <rect
           transform="scale(-1,1)"
           style="opacity:0.603;fill:url(#linearGradient6160);fill-opacity:1"
           id="rect6158"
           width="20"
           height="453.33401"
           x="-20"
           y="146.66679"
           ry="0" />
        <rect
           transform="scale(1,-1)"
           style="opacity:0.603;fill:url(#linearGradient6164);fill-opacity:1"
           id="rect6162"
           width="720"
           height="20"
           x="40"
           y="-126.66679" />
        <path
           style="opacity:0.603;fill:url(#radialGradient6174);fill-opacity:1"
           d="m 800,146.66679 a 40,40 0 0 0 -40,-40 l 0,20 a 20,20 0 0 1 20,20 l 20,0 z"
           id="path6166"
           inkscape:connector-curvature="0" />
        <path
           inkscape:connector-curvature="0"
           id="path6168"
           d="m 0,146.66679 a 40,40 0 0 1 40,-40 l 0,20 a 20,20 0 0 0 -20,20 l -20,0 z"
           style="opacity:0.603;fill:url(#radialGradient6176);fill-opacity:1" />
      </g>
      <rect
         style="opacity:0.3;fill:url(#linearGradient6209);fill-opacity:1"
         id="rect6201"
         width="760"
         height="493.33401"
         x="1020"
         y="-620.00079"
         ry="20"
         transform="scale(1,-1)" />
    </g>
  </g>
</svg>
