<?xml version="1.0" encoding="UTF-8" standalone="no"?>
<!-- Created with Sodipodi ("http://www.sodipodi.com/") -->
<svg xmlns:inkscape="http://www.inkscape.org/namespaces/inkscape" xmlns:rdf="http://www.w3.org/1999/02/22-rdf-syntax-ns#" xmlns="http://www.w3.org/2000/svg" xmlns:cc="http://creativecommons.org/ns#" xmlns:dc="http://purl.org/dc/elements/1.1/" xmlns:sodipodi="http://sodipodi.sourceforge.net/DTD/sodipodi-0.dtd" xmlns:svg="http://www.w3.org/2000/svg" xmlns:ns1="http://sozi.baierouge.fr" id="svg732" inkscape:version="0.48.3.1 r9886" viewBox="0 0 992.13 496.05" sodipodi:version="0.32" version="1.1" sodipodi:docname="_svgclean2.svg" xmlns:xlink="http://www.w3.org/1999/xlink">
  <sodipodi:namedview id="base" inkscape:window-x="0" inkscape:window-y="0" inkscape:window-height="645" inkscape:window-maximized="0" inkscape:zoom="0.22425739" showgrid="false" inkscape:current-layer="svg732" inkscape:cx="372.04724" inkscape:cy="-30.115482" inkscape:window-width="674"/>
  <rect id="rect851" style="fill-rule:evenodd;stroke-width:1pt;fill:#6fdcff" height="496.05" width="992.13" y="0" x="0"/>
  <rect id="rect773" style="fill-rule:evenodd;stroke-width:1pt;fill:#ffe400" rx="82.468" ry="78.136" height="156.27" width="164.94" y="116.63" x="412.63"/>
  <path id="path778" inkscape:connector-curvature="0" sodipodi:nodetypes="cccc" style="fill-rule:evenodd;stroke-width:.25;fill:#ffe400" d="m491.12 70.028c-0.65971-0.0062-4.3618 26.005-5.8305 31.868-1.2791 12.99 17.507 12.541 14.433-0.53167l-8.6022-31.336z"/>
  <path id="path779" inkscape:connector-curvature="0" sodipodi:nodetypes="cccc" style="fill-rule:evenodd;stroke-width:.25;fill:#ffe400" d="m497.78 321.76c0.65766 0.0496 6.2572-25.656 8.152-31.407 2.2281-12.875-16.546-13.663-14.437-0.41919l6.2846 31.827z"/>
  <path id="path780" inkscape:connector-curvature="0" sodipodi:nodetypes="cccc" style="fill-rule:evenodd;stroke-width:.25;fill:#ffe400" d="m366.37 194.28c-0.0555 0.62287 27.048 6.0521 33.109 7.8751 13.578 2.173 14.5-15.611 0.51198-13.676l-33.621 5.8012z"/>
  <path id="path781" inkscape:connector-curvature="0" sodipodi:nodetypes="cccc" style="fill-rule:evenodd;stroke-width:.25;fill:#ffe400" d="m629.7 197.4c0.0278-0.62446-27.29-5.0808-33.426-6.6858-13.661-1.686-13.795 16.119 0.094 13.686l33.332-7.0002z"/>
  <path id="path782" inkscape:connector-curvature="0" sodipodi:nodetypes="cccc" style="fill-rule:evenodd;stroke-width:.25;fill:#ffe400" d="m394.14 112c-0.44903 0.45797 17.356 20.566 20.942 25.542 9.2756 9.6428 21.574-3.8194 9.3031-10.468l-30.245-15.074z"/>
  <path id="path783" inkscape:connector-curvature="0" sodipodi:nodetypes="cccc" style="fill-rule:evenodd;stroke-width:.25;fill:#ffe400" d="m598.66 277.64c0.40537-0.49317-19.175-19.061-23.203-23.723-10.124-8.8436-21.143 5.5794-8.309 11.194l31.512 12.53z"/>
  <path id="path784" inkscape:connector-curvature="0" sodipodi:nodetypes="cccc" style="fill-rule:evenodd;stroke-width:.25;fill:#ffe400" d="m434.95 83.847c-0.59964 0.26067 7.7454 25.289 9.0522 31.185 4.683 12.269 21.478 4.2806 12.819-6.306l-21.87-24.883z"/>
  <path id="path785" inkscape:connector-curvature="0" sodipodi:nodetypes="cccc" style="fill-rule:evenodd;stroke-width:.25;fill:#ffe400" d="m554.2 308.99c0.6173-0.22059-5.8734-25.737-6.745-31.705-3.7726-12.548-21.112-5.6832-13.25 5.4474l19.995 26.258z"/>
  <path id="path786" inkscape:connector-curvature="0" sodipodi:nodetypes="cccc" style="fill-rule:evenodd;stroke-width:.25;fill:#ffe400" d="m583.39 101.27c-0.4761-0.43272-21.981 16.113-27.29 19.43-10.325 8.6327 3.685 20.5 10.898 8.981l16.392-28.411z"/>
  <path id="path787" inkscape:connector-curvature="0" sodipodi:nodetypes="cccc" style="fill-rule:evenodd;stroke-width:.25;fill:#ffe400" d="m406.19 289.01c0.44323 0.46301 23.109-14.627 28.648-17.587 10.933-7.9325-2.1735-20.693-10.213-9.6764l-18.435 27.264z"/>
  <path id="path788" inkscape:connector-curvature="0" sodipodi:nodetypes="cccc" style="fill-rule:evenodd;stroke-width:.25;fill:#ffe400" d="m372.16 149.32c-0.27093 0.56994 23.385 14.229 28.461 17.858 12.043 6.3272 19.153-10.154 5.2827-12.736l-33.744-5.1216z"/>
  <path id="path789" inkscape:connector-curvature="0" sodipodi:nodetypes="cccc" style="fill-rule:evenodd;stroke-width:.25;fill:#ffe400" d="m618.18 244.65c0.31206-0.55074-22.285-15.734-27.084-19.688-11.55-7.1044-19.852 8.869-6.2037 12.358l33.287 7.3299z"/>
  <path id="path790" inkscape:connector-curvature="0" sodipodi:nodetypes="cccc" style="fill-rule:evenodd;stroke-width:.25;fill:#ffe400" d="m539.99 77.233c-0.61171-0.23414-14.089 22.698-17.717 27.646-6.2002 11.65 11.46 17.735 13.64 4.5015l4.077-32.148z"/>
  <path id="path791" inkscape:connector-curvature="0" sodipodi:nodetypes="cccc" style="fill-rule:evenodd;stroke-width:.25;fill:#ffe400" d="m449.05 313.82c0.59309 0.27381 15.718-21.716 19.7-26.414 7.039-11.214-10.133-18.446-13.277-5.3879l-6.4231 31.802z"/>
  <path id="path792" inkscape:connector-curvature="0" sodipodi:nodetypes="cccc" style="fill-rule:evenodd;stroke-width:.25;fill:#ffe400" d="m374 246.64c0.23908 0.5826 27.103-5.826 33.393-6.7124 13.204-3.7017 5.7834-20.06-5.8839-12.498l-27.509 19.21z"/>
  <path id="path793" inkscape:connector-curvature="0" sodipodi:nodetypes="cccc" style="fill-rule:evenodd;stroke-width:.25;fill:#ffe400" d="m618.27 147.29c-0.19581-0.59693-27.465 4.0291-33.805 4.4995-13.444 2.8242-7.2396 19.631 4.9537 12.855l28.851-17.354z"/>
  <path id="path794" inkscape:connector-curvature="0" sodipodi:nodetypes="cccc" style="fill-rule:evenodd;stroke-width:.25;fill:#ffe400" d="m517.93 71.773c-0.64491-0.13178-9.7936 24.643-12.477 30.106-4.0108 12.481 14.487 15.621 14.25 2.2297l-1.7736-32.335z"/>
  <path id="path795" inkscape:connector-curvature="0" sodipodi:nodetypes="cccc" style="fill-rule:evenodd;stroke-width:.25;fill:#ffe400" d="m470.96 319.64c0.6337 0.1739 11.576-23.939 14.653-29.212 4.9158-12.187-13.307-16.537-14.053-3.1621l-0.60011 32.374z"/>
  <path id="path796" inkscape:connector-curvature="0" sodipodi:nodetypes="cccc" style="fill-rule:evenodd;stroke-width:.25;fill:#ffe400" d="m461.52 74.174c-0.64446 0.13379 1.8882 26.271 1.8407 32.296 1.8201 12.932 20.025 8.5129 13.942-3.5769l-15.78-28.716z"/>
  <path id="path797" inkscape:connector-curvature="0" sodipodi:nodetypes="cccc" style="fill-rule:evenodd;stroke-width:.25;fill:#ffe400" d="m527.46 318.16c0.65271-0.0911 0.0418-26.332 0.53073-32.34-0.86794-13.021-19.352-9.8101-14.17 2.651l13.639 29.689z"/>
  <path id="path798" inkscape:connector-curvature="0" sodipodi:nodetypes="cccc" style="fill-rule:evenodd;stroke-width:.25;fill:#ffe400" d="m414.77 95.934c-0.54079 0.35804 12.392 23.569 14.79 29.149 6.9225 11.278 21.939 0.57376 11.422-8.3756l-26.21-20.776z"/>
  <path id="path799" inkscape:connector-curvature="0" sodipodi:nodetypes="cccc" style="fill-rule:evenodd;stroke-width:.25;fill:#ffe400" d="m574.57 297.24c0.56574-0.32158-10.635-24.328-12.619-30.052-6.0793-11.706-21.845-2.016-12.009 7.6037l24.627 22.448z"/>
  <path id="path800" inkscape:connector-curvature="0" sodipodi:nodetypes="cccc" style="fill-rule:evenodd;stroke-width:.25;fill:#ffe400" d="m380.71 128.45c-0.36938 0.51793 20.487 17.793 24.837 22.188 10.73 8.177 20.698-6.9168 7.4939-11.699l-32.331-10.489z"/>
  <path id="path801" inkscape:connector-curvature="0" sodipodi:nodetypes="cccc" style="fill-rule:evenodd;stroke-width:.25;fill:#ffe400" d="m607.61 263.7c0.40644-0.49238-19.134-19.098-23.152-23.768-10.105-8.8631-21.155 5.5382-8.3332 11.177l31.485 12.591z"/>
  <path id="path802" inkscape:connector-curvature="0" sodipodi:nodetypes="cccc" style="fill-rule:evenodd;stroke-width:.25;fill:#ffe400" d="m365.82 169.04c-0.16904 0.60422 25.524 10.419 31.158 13.214 12.972 4.3785 17.146-12.982 3.016-13.383l-34.174 0.16929z"/>
  <path id="path803" inkscape:connector-curvature="0" sodipodi:nodetypes="cccc" style="fill-rule:evenodd;stroke-width:.25;fill:#ffe400" d="m624.91 224.98c0.21293-0.59163-24.698-12.074-30.113-15.232-12.619-5.2216-18.056 11.822-3.9899 13.152l34.103 2.08z"/>
  <path id="path804" inkscape:connector-curvature="0" sodipodi:nodetypes="cccc" style="fill-rule:evenodd;stroke-width:.25;fill:#ffe400" d="m364.97 218.93c0.0915 0.61903 27.791 0.22502 34.128 0.73053 13.749-0.73061 10.49-18.266-2.6982-13.444l-31.43 12.713z"/>
  <path id="path805" inkscape:connector-curvature="0" sodipodi:nodetypes="cccc" style="fill-rule:evenodd;stroke-width:.25;fill:#ffe400" d="m626.81 175.26c-0.0459-0.62357-27.707-2.053-33.992-2.9742-13.769-0.17573-11.803 17.532 1.7063 13.589l32.285-10.615z"/>
  <path id="path806" inkscape:connector-curvature="0" sodipodi:nodetypes="cccc" style="fill-rule:evenodd;stroke-width:.25;fill:#ffe400" d="m388.7 270.69c0.3678 0.51892 25.102-11.303 31.035-13.471 12.03-6.3489 1.0121-20.772-8.6268-10.975l-22.408 24.447z"/>
  <path id="path807" inkscape:connector-curvature="0" sodipodi:nodetypes="cccc" style="fill-rule:evenodd;stroke-width:.25;fill:#ffe400" d="m604.08 123.11c-0.32889-0.54187-25.869 9.6241-31.947 11.397-12.466 5.5422-2.5317 20.656 7.8018 11.517l24.145-22.914z"/>
  <path id="path808" inkscape:connector-curvature="0" sodipodi:nodetypes="cccc" style="fill-rule:evenodd;stroke-width:.25;fill:#ffe400" d="m429.04 304.91c0.55576 0.33683 18.258-19.852 22.786-24.084 8.3577-10.369-7.8186-19.431-12.532-6.8036l-10.254 30.887z"/>
  <path id="path809" inkscape:connector-curvature="0" sodipodi:nodetypes="cccc" style="fill-rule:evenodd;stroke-width:.25;fill:#ffe400" d="m564.38 88.197c-0.52974-0.37258-19.669 18.603-24.496 22.526-9.0976 9.794 6.3756 19.898 12.003 7.6118l12.49-30.143z"/>
  <g id="g766" style="fill:#ffe400" transform="matrix(14.182 0 0 10.788 -5406.8 -2660.8)">
    <path id="path760" inkscape:connector-curvature="0" sodipodi:nodetypes="ccccccccccccccccccccccccccccccccccccc" style="fill-rule:evenodd;fill:#ffe400" d="m387.6 291.56c0.23 0.3 0.16 0.81 0.82 0.75 1 0 1.03-0.81 1.03-1.38 0-0.56-1.5-1.35-1.57-2.18s0.35-1.06 0.7-1.06c0.34 0 0.58 0.26 0.58 0.5 0 0.23-0.17 0.29-0.41 0.29s0.1-0.16-0.11-0.29c-0.2-0.14-0.34 0.19-0.34 0.39s0.52 0.27 0.86 0.12c0.08 0.45 0.11 0.48-0.38 1.25 0.35-0.3 0.38-0.37 0.77-0.2-0.39-0.43-0.1-1.31-0.09-1.54 0.02-0.22-0.07-0.49-0.22-0.62-0.28-0.33-0.89-0.35-1.25-0.13-0.53 0.31-0.56 1.22-0.42 1.52l1.47 1.98c0.1 0.24 0.14 0.88-0.49 0.92-0.65 0.06-0.88-1.12-1-1.51-0.15 0.43-0.33 1.61-0.99 1.55-0.62-0.04-0.74-0.68-0.64-0.92l1.51-2.02c0.14-0.3 0.11-1.21-0.42-1.52-0.36-0.22-0.97-0.2-1.25 0.13-0.15 0.13-0.24 0.4-0.23 0.62 0.02 0.23 0.3 1.11-0.08 1.54 0.38-0.17 0.42-0.1 0.76 0.2-0.48-0.77-0.45-0.8-0.38-1.25 0.35 0.15 0.87 0.08 0.87-0.12s-0.14-0.53-0.35-0.39c-0.21 0.13 0.14 0.29-0.1 0.29-0.25 0-0.42-0.06-0.42-0.29 0-0.24 0.25-0.5 0.59-0.5 0.35 0 0.76 0.23 0.7 1.06-0.07 0.83-1.61 1.74-1.61 2.3 0 0.57 0.11 1.26 1.11 1.26 0.66 0.06 0.74-0.45 0.98-0.75z"/>
    <path id="path761" style="fill-rule:evenodd;fill:#ffe400" d="m387.52 294.92c0.24 0.3 0.43 1.2 1.09 1.14 1.01 0 1.39-0.73 1.39-1.3 0-0.56-2.05-5.18-2.12-6.01s0.35-1.06 0.7-1.06c0.34 0 0.58 0.26 0.58 0.5 0 0.23-0.17 0.29-0.41 0.29s0.1-0.16-0.11-0.29c-0.2-0.14-0.34 0.19-0.34 0.39s0.52 0.27 0.86 0.12c0.08 0.45 0.11 0.48-0.38 1.25 0.35-0.3 0.38-0.37 0.77-0.2-0.39-0.43-0.1-1.31-0.09-1.54 0.02-0.22-0.07-0.49-0.22-0.62-0.28-0.33-0.89-0.35-1.25-0.13-0.53 0.31-0.56 1.22-0.42 1.52l1.98 5.62c0.1 0.23-0.18 0.99-0.8 1.03-0.66 0.06-0.89-0.85-1-1.24l0.89 0.09s0.04-0.18 0-0.3c-0.46-0.04-0.89-0.15-0.89-0.15l-0.04-0.6h0.45l-0.04-0.27s-0.37 0.04-0.41 0c-0.03-0.03-0.07-0.6-0.07-0.6s-0.07-0.03-0.14-0.03c-0.08 0-0.15 0.03-0.15 0.03s-0.03 0.57-0.07 0.6c-0.03 0.04-0.4 0-0.4 0l-0.04 0.27h0.44l-0.03 0.6s-0.43 0.11-0.9 0.15c-0.03 0.12 0 0.3 0 0.3l0.9-0.09c-0.12 0.39-0.34 1.3-1 1.24-0.63-0.04-0.9-0.8-0.8-1.03l1.98-5.62c0.14-0.3 0.11-1.21-0.42-1.52-0.36-0.22-0.97-0.2-1.25 0.13-0.15 0.13-0.24 0.4-0.23 0.62 0.02 0.23 0.3 1.11-0.08 1.54 0.38-0.17 0.42-0.1 0.76 0.2-0.48-0.77-0.45-0.8-0.38-1.25 0.35 0.15 0.87 0.08 0.87-0.12s-0.14-0.53-0.35-0.39c-0.21 0.13 0.14 0.29-0.1 0.29-0.25 0-0.42-0.06-0.42-0.29 0-0.24 0.25-0.5 0.59-0.5 0.35 0 0.76 0.23 0.7 1.06-0.07 0.83-2.12 5.45-2.12 6.01 0 0.57 0.38 1.3 1.39 1.3 0.66 0.06 0.89-0.84 1.13-1.14z" sodipodi:nodetypes="ccccccccccccccccccccccccccccccccccccccccccccccccccccccc" inkscape:connector-curvature="0" transform="matrix(1,0,0,-1,9.5367e-6,574.63)"/>
    <path id="path762" style="fill-rule:evenodd;fill:#ffe400" d="m387.52 294.92c0.24 0.3 0.43 1.2 1.09 1.14 1.01 0 1.39-0.73 1.39-1.3 0-0.56-2.05-5.18-2.12-6.01s0.35-1.06 0.7-1.06c0.34 0 0.58 0.26 0.58 0.5 0 0.23-0.17 0.29-0.41 0.29s0.1-0.16-0.11-0.29c-0.2-0.14-0.34 0.19-0.34 0.39s0.52 0.27 0.86 0.12c0.08 0.45 0.11 0.48-0.38 1.25 0.35-0.3 0.38-0.37 0.77-0.2-0.39-0.43-0.1-1.31-0.09-1.54 0.02-0.22-0.07-0.49-0.22-0.62-0.28-0.33-0.89-0.35-1.25-0.13-0.53 0.31-0.56 1.22-0.42 1.52l1.98 5.62c0.1 0.23-0.18 0.99-0.8 1.03-0.66 0.06-0.89-0.85-1-1.24l0.89 0.09s0.04-0.18 0-0.3c-0.46-0.04-0.89-0.15-0.89-0.15l-0.04-0.6h0.45l-0.04-0.27s-0.37 0.04-0.41 0c-0.03-0.03-0.07-0.6-0.07-0.6s-0.07-0.03-0.14-0.03c-0.08 0-0.15 0.03-0.15 0.03s-0.03 0.57-0.07 0.6c-0.03 0.04-0.4 0-0.4 0l-0.04 0.27h0.44l-0.03 0.6s-0.43 0.11-0.9 0.15c-0.03 0.12 0 0.3 0 0.3l0.9-0.09c-0.12 0.39-0.34 1.3-1 1.24-0.63-0.04-0.9-0.8-0.8-1.03l1.98-5.62c0.14-0.3 0.11-1.21-0.42-1.52-0.36-0.22-0.97-0.2-1.25 0.13-0.15 0.13-0.24 0.4-0.23 0.62 0.02 0.23 0.3 1.11-0.08 1.54 0.38-0.17 0.42-0.1 0.76 0.2-0.48-0.77-0.45-0.8-0.38-1.25 0.35 0.15 0.87 0.08 0.87-0.12s-0.14-0.53-0.35-0.39c-0.21 0.13 0.14 0.29-0.1 0.29-0.25 0-0.42-0.06-0.42-0.29 0-0.24 0.25-0.5 0.59-0.5 0.35 0 0.76 0.23 0.7 1.06-0.07 0.83-2.12 5.45-2.12 6.01 0 0.57 0.38 1.3 1.39 1.3 0.66 0.06 0.89-0.84 1.13-1.14z" sodipodi:nodetypes="ccccccccccccccccccccccccccccccccccccccccccccccccccccccc" inkscape:connector-curvature="0" transform="translate(0,-17.498)"/>
    <path id="path763" style="fill-rule:evenodd;fill:#ffe400" d="m387.52 294.92c0.24 0.3 0.43 1.2 1.09 1.14 1.01 0 1.39-0.73 1.39-1.3 0-0.56-2.05-5.18-2.12-6.01s0.35-1.06 0.7-1.06c0.34 0 0.58 0.26 0.58 0.5 0 0.23-0.17 0.29-0.41 0.29s0.1-0.16-0.11-0.29c-0.2-0.14-0.34 0.19-0.34 0.39s0.52 0.27 0.86 0.12c0.08 0.45 0.11 0.48-0.38 1.25 0.35-0.3 0.38-0.37 0.77-0.2-0.39-0.43-0.1-1.31-0.09-1.54 0.02-0.22-0.07-0.49-0.22-0.62-0.28-0.33-0.89-0.35-1.25-0.13-0.53 0.31-0.56 1.22-0.42 1.52l1.98 5.62c0.1 0.23-0.18 0.99-0.8 1.03-0.66 0.06-0.89-0.85-1-1.24l0.89 0.09s0.04-0.18 0-0.3c-0.46-0.04-0.89-0.15-0.89-0.15l-0.04-0.6h0.45l-0.04-0.27s-0.37 0.04-0.41 0c-0.03-0.03-0.07-0.6-0.07-0.6s-0.07-0.03-0.14-0.03c-0.08 0-0.15 0.03-0.15 0.03s-0.03 0.57-0.07 0.6c-0.03 0.04-0.4 0-0.4 0l-0.04 0.27h0.44l-0.03 0.6s-0.43 0.11-0.9 0.15c-0.03 0.12 0 0.3 0 0.3l0.9-0.09c-0.12 0.39-0.34 1.3-1 1.24-0.63-0.04-0.9-0.8-0.8-1.03l1.98-5.62c0.14-0.3 0.11-1.21-0.42-1.52-0.36-0.22-0.97-0.2-1.25 0.13-0.15 0.13-0.24 0.4-0.23 0.62 0.02 0.23 0.3 1.11-0.08 1.54 0.38-0.17 0.42-0.1 0.76 0.2-0.48-0.77-0.45-0.8-0.38-1.25 0.35 0.15 0.87 0.08 0.87-0.12s-0.14-0.53-0.35-0.39c-0.21 0.13 0.14 0.29-0.1 0.29-0.25 0-0.42-0.06-0.42-0.29 0-0.24 0.25-0.5 0.59-0.5 0.35 0 0.76 0.23 0.7 1.06-0.07 0.83-2.12 5.45-2.12 6.01 0 0.57 0.38 1.3 1.39 1.3 0.66 0.06 0.89-0.84 1.13-1.14z" sodipodi:nodetypes="ccccccccccccccccccccccccccccccccccccccccccccccccccccccc" inkscape:connector-curvature="0" transform="matrix(1,0,0,-1,9.5367e-6,557.13)"/>
    <path id="path764" style="fill-rule:evenodd;fill:#ffe400" d="m387.52 294.92c0.24 0.3 0.43 1.2 1.09 1.14 1.01 0 1.39-0.73 1.39-1.3 0-0.56-2.05-5.18-2.12-6.01s0.35-1.06 0.7-1.06c0.34 0 0.58 0.26 0.58 0.5 0 0.23-0.17 0.29-0.41 0.29s0.1-0.16-0.11-0.29c-0.2-0.14-0.34 0.19-0.34 0.39s0.52 0.27 0.86 0.12c0.08 0.45 0.11 0.48-0.38 1.25 0.35-0.3 0.38-0.37 0.77-0.2-0.39-0.43-0.1-1.31-0.09-1.54 0.02-0.22-0.07-0.49-0.22-0.62-0.28-0.33-0.89-0.35-1.25-0.13-0.53 0.31-0.56 1.22-0.42 1.52l1.98 5.62c0.1 0.23-0.18 0.99-0.8 1.03-0.66 0.06-0.89-0.85-1-1.24l0.89 0.09s0.04-0.18 0-0.3c-0.46-0.04-0.89-0.15-0.89-0.15l-0.04-0.6h0.45l-0.04-0.27s-0.37 0.04-0.41 0c-0.03-0.03-0.07-0.6-0.07-0.6s-0.07-0.03-0.14-0.03c-0.08 0-0.15 0.03-0.15 0.03s-0.03 0.57-0.07 0.6c-0.03 0.04-0.4 0-0.4 0l-0.04 0.27h0.44l-0.03 0.6s-0.43 0.11-0.9 0.15c-0.03 0.12 0 0.3 0 0.3l0.9-0.09c-0.12 0.39-0.34 1.3-1 1.24-0.63-0.04-0.9-0.8-0.8-1.03l1.98-5.62c0.14-0.3 0.11-1.21-0.42-1.52-0.36-0.22-0.97-0.2-1.25 0.13-0.15 0.13-0.24 0.4-0.23 0.62 0.02 0.23 0.3 1.11-0.08 1.54 0.38-0.17 0.42-0.1 0.76 0.2-0.48-0.77-0.45-0.8-0.38-1.25 0.35 0.15 0.87 0.08 0.87-0.12s-0.14-0.53-0.35-0.39c-0.21 0.13 0.14 0.29-0.1 0.29-0.25 0-0.42-0.06-0.42-0.29 0-0.24 0.25-0.5 0.59-0.5 0.35 0 0.76 0.23 0.7 1.06-0.07 0.83-2.12 5.45-2.12 6.01 0 0.57 0.38 1.3 1.39 1.3 0.66 0.06 0.89-0.84 1.13-1.14z" sodipodi:nodetypes="ccccccccccccccccccccccccccccccccccccccccccccccccccccccc" inkscape:connector-curvature="0" transform="translate(0,-34.998)"/>
    <path id="path765" style="fill-rule:evenodd;fill:#ffe400" d="m387.6 291.56c0.23 0.3 0.16 0.81 0.82 0.75 1 0 1.03-0.81 1.03-1.38 0-0.56-1.5-1.35-1.57-2.18s0.35-1.06 0.7-1.06c0.34 0 0.58 0.26 0.58 0.5 0 0.23-0.17 0.29-0.41 0.29s0.1-0.16-0.11-0.29c-0.2-0.14-0.34 0.19-0.34 0.39s0.52 0.27 0.86 0.12c0.08 0.45 0.11 0.48-0.38 1.25 0.35-0.3 0.38-0.37 0.77-0.2-0.39-0.43-0.1-1.31-0.09-1.54 0.02-0.22-0.07-0.49-0.22-0.62-0.28-0.33-0.89-0.35-1.25-0.13-0.53 0.31-0.56 1.22-0.42 1.52l1.47 1.98c0.1 0.24 0.14 0.88-0.49 0.92-0.65 0.06-0.88-1.12-1-1.51-0.15 0.43-0.33 1.61-0.99 1.55-0.62-0.04-0.74-0.68-0.64-0.92l1.51-2.02c0.14-0.3 0.11-1.21-0.42-1.52-0.36-0.22-0.97-0.2-1.25 0.13-0.15 0.13-0.24 0.4-0.23 0.62 0.02 0.23 0.3 1.11-0.08 1.54 0.38-0.17 0.42-0.1 0.76 0.2-0.48-0.77-0.45-0.8-0.38-1.25 0.35 0.15 0.87 0.08 0.87-0.12s-0.14-0.53-0.35-0.39c-0.21 0.13 0.14 0.29-0.1 0.29-0.25 0-0.42-0.06-0.42-0.29 0-0.24 0.25-0.5 0.59-0.5 0.35 0 0.76 0.23 0.7 1.06-0.07 0.83-1.61 1.74-1.61 2.3 0 0.57 0.11 1.26 1.11 1.26 0.66 0.06 0.74-0.45 0.98-0.75z" sodipodi:nodetypes="ccccccccccccccccccccccccccccccccccccc" inkscape:connector-curvature="0" transform="matrix(1,0,0,-1,-2.861e-5,539.63)"/>
  </g>
  <g id="g852" style="fill:#ffe400" transform="matrix(2.1144 0 0 1.9986 -392.39 -248.63)">
    <path id="path844" style="fill-rule:evenodd;fill:#ffe400" d="m349.53 159.5c0.63 2.5 0.78 16.56 14.85 30 14.06 13.44 37.96 16.41 37.96 16.41s0.16 1.87-1.56 2.03c-1.72 0.15-9.84-1.56-13.9-2.82-4.07-1.24-7.66-3.43-8.13-3.28-0.47 0.16-1.25 1.57-2.5 1.41s-7.03-6.25-9.53-7.81-10.94-10.78-13.75-15.32c-2.81-4.53-3.44-7.5-4.37-7.5-0.94 0-4.22 2.19-4.22 2.19s-2.97-4.53-5.63-11.72c-2.65-7.18-2.34-11.4-1.72-11.71 0.63-0.32 0.63 5.31 2.66 10.46 2.03 5.16 4.84 6.72 4.84 6.72s-1.87-2.65-3.28-9.37-1.87-13.13-0.94-15.16c0.94-2.03 1.88-2.65 2.03-2.5 0.16 0.16-1.71 3.13-0.46 10.78 1.25 7.66 4.84 14.22 5.62 13.91s-0.47-1.88-1.09-6.41c-0.63-4.53 0.62-7.34 1.72-7.65 0.47-0.47 1.25 5 1.4 7.34z" sodipodi:nodetypes="ccccccccccccccccccccccc" inkscape:connector-curvature="0" transform="translate(10.607,88.389)"/>
    <path id="path845" style="fill-rule:evenodd;fill:#ffe400" d="m339.06 174.81c-2.65-2.5-6.87-11.25-7.81-10.78s6.88 12.97 7.03 14.06c0.16 1.1 1.88 4.53 0.63 4.07-1.25-0.47-10.63-10.32-9.53-8.44 1.09 1.87 8.12 10.47 7.65 10.94-0.47 0.46-5.78-4.69-5.93-4.07-0.16 0.63 5.31 5.79 5.15 6.41-0.15 0.62-3.44-3.28-3.44-2.5s3.44 4.69 3.44 5.31c0 0.63-2.97-2.81-2.03-0.93 0.94 1.87 3.59 3.59 3.44 4.21-0.16 0.63-2.19-0.78-2.19-0.47 0 0.32 3.91 1.72 4.84 2.82 0.94 1.09 7.35 8.44 12.19 12.18 4.84 3.76 18.6 10.16 19.53 10.16 0.94 0 2.35-2.03 2.03-2.81-0.31-0.78-13.75-5.31-17.5-8.75s-12.96-11.56-13.75-12.03c-0.78-0.47-2.81-0.31-2.81-0.78s2.66 0.31 2.5 0c-0.16-0.32-3.75-1.88-3.59-2.19 0.15-0.31 2.5 0.62 2.5 0.31s-4.22-2.65-4.07-3.12c0.16-0.47 3.13 1.4 3.13 1.09s-4.06-3.12-3.91-3.59c0.16-0.47 3.13 2.18 2.97 1.56-0.15-0.63-2.34-3.91-2.34-4.38s3.59 3.44 3.91 2.66c0.31-0.78-1.26-7.19-1.1-7.34 0.16-0.16 2.65 1.42 3.12 0.48 0.46-0.94-1.84-2.24-4.06-4.08z" sodipodi:nodetypes="cccccccccccccccccccccccccccccccc" inkscape:connector-curvature="0" transform="translate(11.232,85.889)"/>
    <path id="path846" style="fill-rule:evenodd;fill:#ffe400" d="m385.18 222.67c-2.48 0.33-3.6-0.52-2.19-2.55 1.95-0.15 7.13-1.82 8.96-2.59 1.84-0.76 3.79-1.86 5.42-3.33 1.62-1.61 2.49 1.03 1.68 2.39-0.68 0.96-3.72 2.7-5.95 3.61-3.25 1.09-6.04 2.6-7.92 2.47z" sodipodi:nodetypes="ccscscc" inkscape:connector-curvature="0" transform="matrix(.76398 0 0 .75875 102.13 140.95)"/>
    <path id="path847" style="fill-rule:evenodd;fill:#ffe400" d="m398.28 216.38c-1.25-1.41-0.15-2.35 1.72-3.44 2.81-1.56 2.03-3.6 5.63-5.32 1.56-0.93 23.9-10 31.25-14.84 7.34-4.84 27.81-20.31 33.28-30.94 5.47-10.62 2.81-11.4 3.59-11.87s1.56 1.56 1.41 3.91c-0.16 2.34-1.88 9.37-1.41 10 0.47 0.62 8.28-5.47 11.41-12.97 3.12-7.5 5.62-15.32 7.18-15.32 1.57 0-2.65 12.82-5.31 17.82-2.65 5-5.78 7.5-5 8.59s8.6-5.47 11.25-10.31c2.66-4.85 5.16-9.22 5.63-8.28 0.47 0.93-2.5 11.25-6.72 16.09s-9.22 8.28-8.44 9.06 6.41 1.56 12.35-2.5c5.93-4.06 6.56-10 7.34-9.68 0.78 0.31-0.78 8.43-6.41 13.43-5.62 5-13.28 5.47-12.97 6.57 0.32 1.09 16.25-4.54 15.94-3.29s-20.62 9.22-20.78 10c0 0.63 3.44 0.79 8.91-0.47 5.47-1.24 10.62-5.46 11.4-4.53 0.16 1.41-3.9 4.85-10.15 6.41s-9.38 3.75-9.54 4.22c-0.15 0.47 11.1-1.41 11.1-0.78 0 0.62-14.69 3.44-14.84 4.22-0.16 0.78 14.06-2.82 13.74-2.04-0.31 0.79-19.21 6.41-19.06 6.72 0.16 0.32 15.78-3.43 15.47-2.81-0.31 0.63-26.41 7.97-26.56 8.44-0.16 0.47 22.97-5.16 22.81-4.69s-12.03 3.44-12.03 3.75 9.53-1.56 9.37-1.09c-0.15 0.47-24.06 6.56-24.53 7.5s12.35-2.5 12.19-0.78-27.66 11.09-27.81 9.37c-0.16-1.72 16.72-6.09 16.56-6.56-0.15-0.47-9.69 1.09-9.84 0.15-0.16-0.93 6.25-2.96 5.78-3.43s-5.31 1.4-4.85 0.31c0.47-1.09 9.54-5.31 9.38-5.62-0.16-0.32-3.28 1.09-2.97 0 0.31-1.1 19.69-6.72 19.38-7.35-0.32-0.62-8.91 1.41-9.69 1.56-0.31-0.62 12.03-5.15 11.72-5.93-0.32-0.78-6.56 2.65-6.88 1.72-0.31-0.94 10.78-5.32 10.16-5.94-0.63-0.63-5.78 1.72-6.41 1.09-0.62-0.62 10.47-8.44 8.75-8.59-1.72-0.16-3.75 2.34-4.06 0.78 0.31-2.03 8.75-5.31 6.88-6.88-2.97-0.93-13.13 0.63-17.35 3.13s-18.12 16.41-21.56 18.59c-3.44 2.19-15 7.03-17.19 7.97-3.44 1.25-4.06 3.13-7.5 4.85-6.25 1.71-6.25 3.59-9.22 4.68-1.09 0.32-12.34 5.78-12.5 5.32z" sodipodi:nodetypes="ccccccccccccccccccccccccccccccccccccccccccccccccccccccccccc" inkscape:connector-curvature="0" transform="translate(10.607,88.389)"/>
    <path id="path848" style="fill-rule:evenodd;fill:#ffe400" d="m380 224.19c-1.87 0.93-3.59 3.43-2.5 4.37 0.63 1.25 2.5-2.65 4.06-2.5 1.57 0.16 3.75 0.16 7.97 0.47s6.41-0.94 8.75-0.78c2.35 0.16 7.66-1.25 10.16-1.25s2.97 0.31 3.28-0.78c0.31-1.1-7.81-0.31-11.41-0.47-3.59-0.16-8.12 0.78-10.78 0.78-2.5-0.15-6.87-0.94-9.53 0.16z" sodipodi:nodetypes="cccccccccc" inkscape:connector-curvature="0" transform="translate(13.107,87.607)"/>
    <rect id="rect849" style="fill-rule:evenodd;stroke-width:1pt;fill:#ffe400" rx="1.7188" ry="1.4844" height="2.9688" width="3.4375" y="309.14" x="401.7"/>
    <path id="path850" style="fill-rule:evenodd;fill:#ffe400" d="m432.17 225.28c1.56-0.31 5.75 1.25 8.63 2.03 5.32 2.19 15.14 1.1 15.14 2.19s-0.61 2.5-2.96 2.66c-2.34 0.15-7.98-0.94-7.82-0.94 0.15 0 4.53 2.19 3.28 2.81-1.25 0.63-5-1.25-5.63-0.78-0.62 0.47 3.44 1.41 2.82 1.72-0.63 0.31-3.45-0.47-4.39-0.31-0.94 0.15 0.79 1.25-0.3 1.72-1.1 0.46-2.93-0.63-3.72-0.32-0.78 0.32 1.69 2.03 0.59 2.19-1.09 0.16-3.72-0.78-5.13-0.94-1.41-0.15 1.38 1.57 0.45 1.72-0.94 0.16-3.49-1.25-4.12-1.25-0.62 0 0.05 1.88-0.88 1.88-0.94 0-2.05-1.57-2.51-1.57-0.47 0 0.01 1.88-0.93 1.88s-1.27-2.03-2.06-1.88c-0.92 0.16 0.03 2.66-1.22 2.5-1.25-0.15-1.42-2.65-2.36-2.5-0.93 0.16 0.17 2.5-0.77 2.5s-1.09-2.34-2.02-2.5c-0.94-0.15-0.48 2.19-1.1 2.19-0.63 0-1.09-2.19-1.4-2.19-0.32 0-0.01 2.19-1.1 2.03-1.1-0.15-1.09-2.5-1.4-2.34-0.32 0.16-0.32 1.72-1.1 1.72s-0.78-1.56-1.09-1.41c-0.31 0.16-1.41 2.19-2.19 1.88s0.18-1.88-0.13-1.88-1.28 1.1-1.91 0.94c-0.62-0.15 0.04-1.41-0.12-1.41s-1.59 0.79-2.22 0.79c-0.62 0-2.34 1.09-2.81 0.15s1.22-0.94 1.53-1.87c0.32-0.94-0.91-3.6 0.34-4.53 1.25-0.94 5.16 1.25 10.94-0.32 10.62-3.12 18.82-6.71 19.67-6.56z" sodipodi:nodetypes="ccccccccccccccccccccccccccccccccccccccc" inkscape:connector-curvature="0" transform="matrix(1.0971,0,0,1,-29.114,82.451)"/>
  </g>
  <metadata id="metadata53">
    <rdf:RDF>
      <cc:Work>
        <dc:format>image/svg+xml</dc:format>
        <dc:type rdf:resource="http://purl.org/dc/dcmitype/StillImage"/>
        <cc:license rdf:resource="http://creativecommons.org/licenses/publicdomain/"/>
        <dc:publisher>
          <cc:Agent rdf:about="http://openclipart.org/">
            <dc:title>Openclipart</dc:title>
          </cc:Agent>
        </dc:publisher>
      </cc:Work>
      <cc:License rdf:about="http://creativecommons.org/licenses/publicdomain/">
        <cc:permits rdf:resource="http://creativecommons.org/ns#Reproduction"/>
        <cc:permits rdf:resource="http://creativecommons.org/ns#Distribution"/>
        <cc:permits rdf:resource="http://creativecommons.org/ns#DerivativeWorks"/>
      </cc:License>
    </rdf:RDF>
  </metadata>
</svg>
