<?xml version="1.0" encoding="UTF-8" standalone="no"?>
<!-- Created with Sodipodi ("http://www.sodipodi.com/") -->
<svg xmlns:inkscape="http://www.inkscape.org/namespaces/inkscape" xmlns:rdf="http://www.w3.org/1999/02/22-rdf-syntax-ns#" xmlns="http://www.w3.org/2000/svg" xmlns:cc="http://creativecommons.org/ns#" xmlns:dc="http://purl.org/dc/elements/1.1/" xmlns:sodipodi="http://sodipodi.sourceforge.net/DTD/sodipodi-0.dtd" xmlns:svg="http://www.w3.org/2000/svg" xmlns:ns1="http://sozi.baierouge.fr" id="svg570" sodipodi:docname="_svgclean2.svg" viewBox="0 0 804.91 491.69" sodipodi:version="0.32" version="1.1" inkscape:version="0.48.3.1 r9886" xmlns:xlink="http://www.w3.org/1999/xlink">
  <sodipodi:namedview id="base" inkscape:window-width="674" inkscape:window-x="0" inkscape:window-y="0" inkscape:window-maximized="0" inkscape:zoom="0.85163977" showgrid="false" inkscape:current-layer="svg570" inkscape:cx="333.78978" inkscape:cy="-362.367" inkscape:window-height="645"/>
  <rect id="rect574" style="fill-rule:evenodd;stroke-width:1pt;fill:#e73e2d" height="294.33" width="802.62" y="1.1369e-13" x="1.6538"/>
  <path id="path605" inkscape:connector-curvature="0" sodipodi:nodetypes="cccc" style="fill-rule:evenodd;stroke:#d8aa3f;stroke-width:1.599;fill:#fec74a" d="m355.6 270.89c-18.664-14.57-53.419-9.6452-59.15-49.249 26.62 20.621 21.785-1.1769 61.542 18.459l-2.3921 30.79z"/>
  <path id="path564" inkscape:connector-curvature="0" sodipodi:nodetypes="cccc" style="fill-rule:evenodd;stroke:#d8aa3f;stroke-width:1.599;fill:#fec74a" d="m360.57 252.89c-13.302-19.588-47.896-25.548-41.218-65.003 19.023 27.785 21.098 5.5539 52.928 36.426l-11.71 28.577z"/>
  <path id="path565" inkscape:connector-curvature="0" sodipodi:nodetypes="cccc" style="fill-rule:evenodd;stroke:#d8aa3f;stroke-width:1.599;fill:#fec74a" d="m366.62 240.09c-4.8031-23.186-34.491-41.919-13.235-75.825 6.9549 32.947 17.372 13.198 34.981 53.895l-21.75 21.93z"/>
  <path id="path566" inkscape:connector-curvature="0" sodipodi:nodetypes="cccc" style="fill-rule:evenodd;stroke:#d8aa3f;stroke-width:1.5991;fill:#fec74a" d="m380.57 228.19c2.5469-23.541-19.956-50.485 10.683-76.228-3.496 33.492 12.482 17.895 16.747 62.034l-27.43 14.194z"/>
  <path id="path567" inkscape:connector-curvature="0" sodipodi:nodetypes="cccc" style="fill-rule:evenodd;stroke:#d8aa3f;stroke-width:1.5991;fill:#fec74a" d="m392.98 218.64c11.961-20.435 2.4616-54.229 40.954-65.172-16.901 29.125 4.0612 21.436-10.118 63.451l-30.836 1.7204z"/>
  <path id="path568" inkscape:connector-curvature="0" sodipodi:nodetypes="cccc" style="fill-rule:evenodd;stroke:#d8aa3f;stroke-width:1.599;fill:#fec74a" d="m411.11 221.15c17.821-15.59 19.522-50.653 59.498-48.832-25.261 22.267-2.942 21.618-29.707 56.973l-29.792-8.1414z"/>
  <path id="path569" inkscape:connector-curvature="0" sodipodi:nodetypes="cccc" style="fill-rule:evenodd;stroke:#d8aa3f;stroke-width:1.599;fill:#fec74a" d="m426.99 230.33c21.611-9.6724 33.528-42.691 71.208-29.217-30.683 13.871-9.1573 19.802-45.119 45.743l-26.09-16.53z"/>
  <path id="path570" inkscape:connector-curvature="0" sodipodi:nodetypes="cccc" style="fill-rule:evenodd;stroke:#d8aa3f;stroke-width:1.599;fill:#fec74a" d="m440.27 244.82c23.461-3.1986 44.19-31.529 76.555-7.993-33.348 4.6745-14.361 16.424-56.172 31.195l-20.38-23.2z"/>
  <path id="path598" inkscape:connector-curvature="0" sodipodi:nodetypes="ccccc" style="fill-rule:evenodd;stroke:#d8aa3f;stroke-width:1.5991;fill:#fec74a" d="m523.74 249.31-107.61 2.3683 4.5108 28.998 103.1-31.366z"/>
  <path id="path597" inkscape:connector-curvature="0" sodipodi:nodetypes="cccc" style="fill-rule:evenodd;stroke:#d8aa3f;stroke-width:1.599;fill:#fec74a" d="m508.02 209.74-99.723 38.286 16.692 32.044 83.031-70.33z"/>
  <path id="path596" inkscape:connector-curvature="0" sodipodi:nodetypes="ccccc" style="fill-rule:evenodd;stroke:#d8aa3f;stroke-width:1.599;fill:#fec74a" d="m428.85 269.5 51.588-93.661-79.138 73.66 27.55 20.001z"/>
  <path id="path595" inkscape:connector-curvature="0" sodipodi:nodetypes="ccccc" style="fill-rule:evenodd;stroke:#d8aa3f;stroke-width:1.5991;fill:#fec74a" d="m427.79 261.83 16.585-105.13-51.668 93.424 35.083 11.704z"/>
  <path id="path594" inkscape:connector-curvature="0" sodipodi:nodetypes="ccccc" style="fill-rule:evenodd;stroke:#d8aa3f;stroke-width:1.599;fill:#fec74a" d="m421.58 253.25-17.32-105.87-19.188 106.33 36.508-0.46051z"/>
  <path id="path604" inkscape:connector-curvature="0" sodipodi:nodetypes="ccccc" style="fill-rule:evenodd;stroke:#d8aa3f;stroke-width:1.599;fill:#fec74a" d="m412.63 244.22-50.217-88.418 19.295 107.48 30.922-19.061z"/>
  <path id="path603" inkscape:connector-curvature="0" sodipodi:nodetypes="cccc" style="fill-rule:evenodd;stroke:#d8aa3f;stroke-width:1.599;fill:#fec74a" d="m404.83 243.53-77.882-65.758 55.384 94.111 22.498-28.353z"/>
  <path id="path601" inkscape:connector-curvature="0" sodipodi:nodetypes="cccc" style="fill-rule:evenodd;stroke:#d8aa3f;stroke-width:1.599;fill:#fec74a" d="m299.57 210.21 83.609 69.036 12.857-36.114-96.466-32.922z"/>
  <path id="path600" inkscape:connector-curvature="0" sodipodi:nodetypes="cccc" style="fill-rule:evenodd;stroke:#d8aa3f;stroke-width:1.599;fill:#fec74a" d="m382.29 250.51-98.244-1.3847 97.837 32.652 0.40685-31.268z"/>
  <path id="path575" sodipodi:rx="43.751373" sodipodi:ry="43.751373" style="fill-rule:evenodd;stroke:#d8aa3f;stroke-width:1.187;fill:#fec74a" sodipodi:type="arc" d="m429.77 602.07a43.751 43.751 0 1 1 -87.503 0 43.751 43.751 0 1 1 87.503 0z" transform="matrix(1.3472 0 0 1.3472 -116.93 -542.93)" sodipodi:cy="602.07153" sodipodi:cx="386.01877"/>
  <rect id="rect586" style="fill-rule:evenodd;stroke-width:1pt;fill:#005989" height="200.33" width="802.18" y="291.36" x=".84110"/>
  <path id="path573" inkscape:connector-curvature="0" sodipodi:nodetypes="cccscscscsccccscscscscc" style="fill-rule:evenodd;fill:#ffffff" d="m0.384 435.99c14.916 6.94 36.284 24.32 59.142 24.3 38.243-0.25 39.261-26.34 77.998-25.1 38.84 1 31.82 28.46 84.26 28.32 43.34-0.11 57.33-33.28 94.69-29.31 27.66-1.43 38.98 31.42 81.5 31.83 44.1 0.95 60.29-35.8 87.95-32.76 29.47 0 39.13 29.6 80.47 29.81 52.66 0.27 61.92-30.8 94.86-28.81 23.45-0.5 41.94 22.77 76.3 23.35 27.42 0.47 50.37-20.37 65.88-27.82l0.77-35.37c-16.25 6.08-40.48 26-64.72 26.22-34.86 1.28-56.44-23-80.67-22.78-29.03 0.26-40.6 30.04-89.85 30.04-44.99 0-55.31-30.04-84.35-30.04-28.37 0.22-37.07 32.68-86.2 32.08-40.07-0.49-55.69-30.99-84.07-30.77-30.08 0-61.19 29.66-94.5 28.23-45.98-1.96-55.92-28.23-86-28.23-22.49 0-46.751 24.62-73.838 25.03-26.939 0.42-57.203-24.5-60.006-25.03l0.3841 36.81z"/>
  <path id="path578" inkscape:connector-curvature="0" sodipodi:nodetypes="cccscscscsccccscscscscc" style="fill-rule:evenodd;fill:#ffffff" d="m0.384 365.95c14.916 6.94 36.284 24.32 59.142 24.3 38.243-0.25 39.261-26.34 77.998-25.09 38.84 0.99 31.82 28.45 84.26 28.32 43.34-0.12 57.33-33.29 94.69-29.32 27.66-1.43 38.98 31.42 81.5 31.83 44.1 0.95 60.29-35.8 87.95-32.75 29.47 0 39.13 29.59 80.47 29.81 52.66 0.26 61.92-30.81 94.86-28.82 23.45-0.5 41.94 22.77 76.3 23.35 27.42 0.47 50.37-20.37 65.88-27.82l0.77-35.37c-16.25 6.08-40.48 26-64.72 26.22-34.86 1.28-56.44-23-80.67-22.78-29.03 0.26-40.6 30.05-89.85 30.05-44.99 0-55.31-30.05-84.35-30.05-28.37 0.22-37.07 32.68-86.2 32.08-40.07-0.49-55.69-30.99-84.07-30.77-30.08 0-61.19 29.66-94.5 28.23-45.98-1.96-55.92-28.23-86-28.23-22.49 0-46.751 24.62-73.838 25.03-26.939 0.42-57.203-24.49-60.006-25.03l0.3841 36.81z"/>
  <path id="path579" inkscape:connector-curvature="0" sodipodi:nodetypes="cccscscscsccccscscscscc" style="fill-rule:evenodd;fill:#ffffff" d="m0.3842 296.67c14.93 6.94 36.317 24.31 59.194 24.3 38.278-0.25 39.297-26.34 78.066-25.1 38.88 0.99 31.85 28.46 84.34 28.32 43.37-0.11 57.38-33.29 94.77-29.31 27.68-1.44 39.02 31.41 81.57 31.83 44.14 0.95 60.35-35.8 88.03-32.76 29.5 0 39.16 29.6 80.54 29.81 52.71 0.27 61.98-30.8 94.95-28.82 23.47-0.49 41.98 22.78 76.37 23.36 27.44 0.47 50.41-20.38 65.93-27.83l0.77-35.36c-16.26 6.07-40.52 25.99-64.77 26.21-34.9 1.29-56.49-22.99-80.74-22.77-29.06 0.26-40.64 30.04-89.93 30.04-45.04 0-55.37-30.04-84.43-30.04-28.4 0.22-37.1 32.67-86.27 32.07-40.12-0.48-55.74-30.98-84.15-30.76-30.11 0-61.25 29.65-94.59 28.22-46.02-1.95-55.96-28.22-86.07-28.22-22.51 0-46.794 24.62-73.905 25.03-26.963 0.41-57.253-24.5-60.059-25.03l0.3843 36.81z"/>
  <path id="path587" inkscape:connector-curvature="0" sodipodi:nodetypes="cccccc" style="fill-rule:evenodd;stroke:#d8aa3f;stroke-width:1.2792pt;fill:#ffc84b" d="m290.79 72.922c58.626-4.0167 47.932-9.0184 71.533-12.779 29.729 4.0806 33.131 22.079 49.697 33.131 0 0-6.2169 21.056-26.607 18.075-2.7375-8.4427 9.8754-11.065-26.403-33.17-21.081-1.2536-58.818 3.6969-68.22-5.2575z"/>
  <path id="path591" inkscape:connector-curvature="0" sodipodi:nodetypes="cccc" style="fill-rule:evenodd;stroke:#d8aa3f;stroke-width:1.2792pt;fill:#ffc84b" d="m472.56 105.54-42.226 1.7397v10.425c28.475 0.92103 33.617-2.891 42.226-12.165z"/>
  <path id="path590" inkscape:connector-curvature="0" sodipodi:nodetypes="cccccccccccc" style="stroke-linejoin:round;fill-rule:evenodd;stroke:#d8aa3f;stroke-width:1.599;fill:#ffc84b" d="m327.32 103.76c7.3554-3.7608 11.014-2.2258 17.397-2.4816 4.3877 7.9566 8.5195 8.6986 18.126 9.6963 14.66 20.621 35.28 20.864 38.261 20.864 28.731-0.74194 37.839-20.864 57.142-23.102h20.365c-3.3899-5.7948-6.0378-9.1079-13.419-9.4405-15.146-0.83148-34.769-0.42214-51.91 3.4794l-24.1 5.9611c-7.0356-3.4027-24.266-21.452-35.28-21.12-6.46 1.7397-6.46 3.9783-9.6836 6.46-6.2169 2.6479-12.421 1.3815-16.898 9.6835z"/>
  <path id="path589" sodipodi:rx="3.107254" sodipodi:ry="3.107269" style="fill-rule:evenodd;stroke:#d8aa3f;stroke-width:1.6303;fill:#ffc84b" sodipodi:type="arc" d="m330.54 451.11a3.1073 3.1073 0 1 1 -6.2145 0 3.1073 3.1073 0 1 1 6.2145 0z" transform="matrix(.98084 0 0 .98084 32.159 -347.49)" sodipodi:cy="451.10641" sodipodi:cx="327.42804"/>
  <path id="path588" inkscape:connector-curvature="0" sodipodi:nodetypes="ccccc" style="fill-rule:evenodd;stroke:#d8aa3f;stroke-width:1.2792pt;fill:#ffc84b" d="m376.01 103.52c43.135-51.999 80.82-45.629 129.93-49.185 1.6502 6.0378 1.0745 15.069-22.36 23.102-32.057 4.7202-89.442 38.504-89.685 38.504-10.681-0.49889-18.139-11.679-17.883-12.421z"/>
  <path id="path592" inkscape:connector-curvature="0" sodipodi:nodetypes="cc" style="stroke:#d9a43e;stroke-width:1.2792pt;stroke-linecap:round;fill:none" d="m464.65 69.635 31.826 1.3815"/>
  <path id="path593" inkscape:connector-curvature="0" sodipodi:nodetypes="cc" style="stroke:#d9a43e;stroke-width:1.2792pt;stroke-linecap:round;fill:none" d="m461.2 74.828 23.192 1.8932"/>
  <metadata id="metadata34">
    <rdf:RDF>
      <cc:Work>
        <dc:format>image/svg+xml</dc:format>
        <dc:type rdf:resource="http://purl.org/dc/dcmitype/StillImage"/>
        <cc:license rdf:resource="http://creativecommons.org/licenses/publicdomain/"/>
        <dc:publisher>
          <cc:Agent rdf:about="http://openclipart.org/">
            <dc:title>Openclipart</dc:title>
          </cc:Agent>
        </dc:publisher>
      </cc:Work>
      <cc:License rdf:about="http://creativecommons.org/licenses/publicdomain/">
        <cc:permits rdf:resource="http://creativecommons.org/ns#Reproduction"/>
        <cc:permits rdf:resource="http://creativecommons.org/ns#Distribution"/>
        <cc:permits rdf:resource="http://creativecommons.org/ns#DerivativeWorks"/>
      </cc:License>
    </rdf:RDF>
  </metadata>
</svg>
