<?xml version="1.0" encoding="UTF-8" standalone="no"?>
<svg
   xmlns:dc="http://purl.org/dc/elements/1.1/"
   xmlns:cc="http://creativecommons.org/ns#"
   xmlns:rdf="http://www.w3.org/1999/02/22-rdf-syntax-ns#"
   xmlns:svg="http://www.w3.org/2000/svg"
   xmlns="http://www.w3.org/2000/svg"
   xmlns:xlink="http://www.w3.org/1999/xlink"
   xmlns:sodipodi="http://sodipodi.sourceforge.net/DTD/sodipodi-0.dtd"
   xmlns:inkscape="http://www.inkscape.org/namespaces/inkscape"
   viewBox="0 0 960.00004 640.00079"
   id="svg2"
   version="1.1"
   inkscape:version="0.91 r13725"
   sodipodi:docname="BevelledLebanon.svg"
   width="960.00006"
   height="640.00079">
  <metadata
     id="metadata4551">
    <rdf:RDF>
      <cc:Work
         rdf:about="">
        <dc:format>image/svg+xml</dc:format>
        <dc:type
           rdf:resource="http://purl.org/dc/dcmitype/StillImage" />
        <dc:title></dc:title>
      </cc:Work>
    </rdf:RDF>
  </metadata>
  <sodipodi:namedview
     pagecolor="#ffffff"
     bordercolor="#666666"
     borderopacity="1"
     objecttolerance="10"
     gridtolerance="10"
     guidetolerance="10"
     inkscape:pageopacity="0"
     inkscape:pageshadow="2"
     inkscape:window-width="1600"
     inkscape:window-height="837"
     id="namedview4549"
     showgrid="true"
     fit-margin-top="0"
     fit-margin-left="0"
     fit-margin-right="0"
     fit-margin-bottom="0"
     inkscape:object-nodes="true"
     inkscape:snap-smooth-nodes="true"
     inkscape:object-paths="false"
     inkscape:snap-global="true"
     inkscape:zoom="1.0468737"
     inkscape:cx="480.00003"
     inkscape:cy="320.0004"
     inkscape:window-x="-8"
     inkscape:window-y="-8"
     inkscape:window-maximized="1"
     inkscape:current-layer="svg2" />
  <defs
     id="defs4">
    <linearGradient
       id="linearGradient6136">
      <stop
         style="stop-color:#000000;stop-opacity:0;"
         offset="0"
         id="stop6138" />
      <stop
         style="stop-color:#000000;stop-opacity:1;"
         offset="1"
         id="stop6140" />
    </linearGradient>
    <linearGradient
       id="linearGradient22506">
      <stop
         style="stop-color:#ffffff;stop-opacity:1;"
         offset="0"
         id="stop22508" />
      <stop
         style="stop-color:#ffffff;stop-opacity:0;"
         offset="1"
         id="stop22510" />
    </linearGradient>
    <linearGradient
       id="linearGradient22338">
      <stop
         style="stop-color:#000000;stop-opacity:0;"
         offset="0"
         id="stop22340" />
      <stop
         id="stop6129"
         offset="0.5"
         style="stop-color:#000000;stop-opacity:0;" />
      <stop
         style="stop-color:#000000;stop-opacity:1;"
         offset="1"
         id="stop22342" />
    </linearGradient>
    <filter
       style="color-interpolation-filters:sRGB"
       inkscape:label="Blur"
       id="filter23929">
      <feGaussianBlur
         stdDeviation="1 5"
         result="blur"
         id="feGaussianBlur23931" />
    </filter>
    <filter
       style="color-interpolation-filters:sRGB"
       inkscape:label="Blur"
       id="filter23980">
      <feGaussianBlur
         stdDeviation="2 2"
         result="blur"
         id="feGaussianBlur23982" />
    </filter>
    <filter
       style="color-interpolation-filters:sRGB"
       inkscape:label="Blur"
       id="filter23988">
      <feGaussianBlur
         stdDeviation="1 1"
         result="blur"
         id="feGaussianBlur23990" />
    </filter>
    <filter
       style="color-interpolation-filters:sRGB"
       inkscape:label="Blur"
       id="filter24008">
      <feGaussianBlur
         stdDeviation="1 1"
         result="blur"
         id="feGaussianBlur24010" />
    </filter>
    <filter
       style="color-interpolation-filters:sRGB"
       inkscape:label="Blur"
       id="filter24012">
      <feGaussianBlur
         stdDeviation="1 1"
         result="blur"
         id="feGaussianBlur24014" />
    </filter>
    <filter
       style="color-interpolation-filters:sRGB"
       inkscape:label="Blur"
       id="filter24016">
      <feGaussianBlur
         stdDeviation="1 1"
         result="blur"
         id="feGaussianBlur24018" />
    </filter>
    <filter
       style="color-interpolation-filters:sRGB"
       inkscape:label="Blur"
       id="filter24020">
      <feGaussianBlur
         stdDeviation="1 1"
         result="blur"
         id="feGaussianBlur24022" />
    </filter>
    <filter
       style="color-interpolation-filters:sRGB"
       inkscape:label="Blur"
       id="filter24024">
      <feGaussianBlur
         stdDeviation="1 1"
         result="blur"
         id="feGaussianBlur24026" />
    </filter>
    <filter
       style="color-interpolation-filters:sRGB"
       inkscape:label="Blur"
       id="filter24028">
      <feGaussianBlur
         stdDeviation="1 1"
         result="blur"
         id="feGaussianBlur24030" />
    </filter>
    <filter
       style="color-interpolation-filters:sRGB"
       inkscape:label="Blur"
       id="filter24032">
      <feGaussianBlur
         stdDeviation="1 1"
         result="blur"
         id="feGaussianBlur24034" />
    </filter>
    <filter
       style="color-interpolation-filters:sRGB"
       inkscape:label="Blur"
       id="filter24036">
      <feGaussianBlur
         stdDeviation="1 1"
         result="blur"
         id="feGaussianBlur24038" />
    </filter>
    <filter
       style="color-interpolation-filters:sRGB"
       inkscape:label="Blur"
       id="filter24052">
      <feGaussianBlur
         stdDeviation="1 1"
         result="blur"
         id="feGaussianBlur24054" />
    </filter>
    <filter
       style="color-interpolation-filters:sRGB"
       inkscape:label="Blur"
       id="filter24309">
      <feGaussianBlur
         stdDeviation="2 2"
         result="blur"
         id="feGaussianBlur24311" />
    </filter>
    <clipPath
       clipPathUnits="userSpaceOnUse"
       id="clipPath4532">
      <path
         inkscape:connector-curvature="0"
         id="path4534"
         d="M 18.75,-2.6189942e-4 A 18.75,18.75 0 0 0 0,18.749739 L 0,381.25023 a 18.75,18.75 0 0 0 18.75,18.75 l 562.50001,0 a 18.75,18.75 0 0 0 18.75001,-18.75 l 0,-362.500491 A 18.75,18.75 0 0 0 581.25001,-2.6189942e-4 l -562.50001,0 z"
         style="fill:#00ffff;fill-opacity:1" />
    </clipPath>
    <radialGradient
       inkscape:collect="always"
       xlink:href="#linearGradient22338"
       id="radialGradient6127"
       cx="1070"
       cy="700.00079"
       fx="1070"
       fy="700.00079"
       r="40"
       gradientUnits="userSpaceOnUse"
       gradientTransform="matrix(-1,0,0,1,1830,-99.999203)" />
    <linearGradient
       inkscape:collect="always"
       xlink:href="#linearGradient6136"
       id="linearGradient6142"
       x1="780"
       y1="373.3338"
       x2="800"
       y2="373.3338"
       gradientUnits="userSpaceOnUse" />
    <linearGradient
       inkscape:collect="always"
       xlink:href="#linearGradient6136"
       id="linearGradient6152"
       x1="410"
       y1="620.00079"
       x2="410"
       y2="640.00079"
       gradientUnits="userSpaceOnUse" />
    <radialGradient
       inkscape:collect="always"
       xlink:href="#linearGradient22338"
       id="radialGradient6156"
       gradientUnits="userSpaceOnUse"
       gradientTransform="translate(-1030,-99.9992)"
       cx="1070"
       cy="700.00079"
       fx="1070"
       fy="700.00079"
       r="40" />
    <linearGradient
       inkscape:collect="always"
       xlink:href="#linearGradient6136"
       id="linearGradient6160"
       gradientUnits="userSpaceOnUse"
       x1="780"
       y1="373.3338"
       x2="800"
       y2="373.3338"
       gradientTransform="translate(-800,0)" />
    <linearGradient
       inkscape:collect="always"
       xlink:href="#linearGradient6136"
       id="linearGradient6164"
       gradientUnits="userSpaceOnUse"
       x1="410"
       y1="620.00079"
       x2="410"
       y2="640.00079"
       gradientTransform="translate(0,-746.66757)" />
    <radialGradient
       inkscape:collect="always"
       xlink:href="#linearGradient22338"
       id="radialGradient6174"
       gradientUnits="userSpaceOnUse"
       gradientTransform="matrix(-1,0,0,-1,1830,846.66678)"
       cx="1070"
       cy="700.00079"
       fx="1070"
       fy="700.00079"
       r="40" />
    <radialGradient
       inkscape:collect="always"
       xlink:href="#linearGradient22338"
       id="radialGradient6176"
       gradientUnits="userSpaceOnUse"
       gradientTransform="matrix(1,0,0,-1,-1030,846.66678)"
       cx="1070"
       cy="700.00079"
       fx="1070"
       fy="700.00079"
       r="40" />
    <linearGradient
       inkscape:collect="always"
       xlink:href="#linearGradient22506"
       id="linearGradient6209"
       x1="2050"
       y1="-120.00079"
       x2="2560"
       y2="-630.00079"
       gradientUnits="userSpaceOnUse"
       gradientTransform="matrix(1,0,0,1.0068041,-1000,4.218536)" />
    <filter
       style="color-interpolation-filters:sRGB"
       inkscape:label="Blur"
       id="filter6223">
      <feGaussianBlur
         stdDeviation="2 2"
         result="blur"
         id="feGaussianBlur6225" />
    </filter>
    <clipPath
       clipPathUnits="userSpaceOnUse"
       id="clipPath4311">
      <rect
         style="fill:#d70000;fill-opacity:1"
         id="rect4313"
         width="750"
         height="500.00058"
         x="0"
         y="-499.99997"
         transform="scale(1,-1)"
         ry="37.5" />
    </clipPath>
  </defs>
  <g
     id="g4315"
     transform="translate(80,-54.288626)">
    <rect
       style="fill:#000000;fill-opacity:1;filter:url(#filter6223)"
       id="rect6199"
       width="800"
       height="533.33398"
       x="-1000"
       y="-640.00079"
       transform="matrix(1,0,0,-1,1000,0.95522506)"
       ry="40" />
    <g
       clip-path="url(#clipPath4311)"
       transform="matrix(1.0666667,0,0,1.0666667,0,106.66746)"
       id="g4142">
      <rect
         style="fill:#ed1c24"
         y="0"
         x="0"
         width="750"
         height="500"
         id="rect4" />
      <rect
         style="fill:#ffffff"
         x="0"
         y="125"
         width="750"
         height="250"
         id="rect6" />
      <path
         style="fill:#00a651"
         inkscape:connector-curvature="0"
         d="m 371.5894,125 c -5.36625,11.2997 -15.47204,19.19789 -25.13108,26.67157 -1.58907,1.38781 -5.53987,4.07569 -2.67374,6.12114 2.45559,-2.74435 9.19493,0.88988 5.2781,3.84075 -3.50866,3.28414 -8.3396,4.48654 -12.23522,7.19638 -3.4502,1.87446 -6.9495,3.83189 -9.6855,6.70121 -0.18637,4.48245 5.56162,2.00114 7.89416,3.86855 3.03751,3.24745 -1.28796,8.72173 -5.2743,7.46967 -5.09711,0.15619 -8.61744,4.64102 -10.54493,8.91981 -3.98712,6.1655 -11.54241,7.99124 -17.55736,11.49991 -3.44175,2.00629 -6.78099,4.22606 -9.98493,6.56709 -4.13077,2.82434 -0.53706,8.41626 3.85818,7.04364 4.7445,-0.47302 9.01314,-4.20076 13.92508,-3.12656 4.45468,1.56517 5.70492,7.38696 4.18673,11.45167 -1.12404,3.25439 -3.8489,5.54671 -6.03209,8.08889 -3.54406,3.59042 -8.17891,5.92136 -13.06609,7.03284 -4.72336,1.58585 -8.96852,4.47944 -12.0667,8.38572 -3.59595,3.61996 -7.17752,7.29857 -11.31051,10.31706 -1.30555,3.33133 2.37887,6.16901 5.4507,6.08057 6.47232,-0.40757 10.95807,-5.70485 16.47038,-8.42699 4.57433,-2.05589 9.95778,2.87435 8.83878,7.63989 -0.35398,4.63624 -4.69482,6.98883 -8.55431,8.41535 -11.3459,5.70374 -21.19705,13.97468 -29.94399,23.10059 -1.80907,3.69014 -6.7825,2.60382 -9.46051,5.17624 -1.74463,3.2554 2.63377,4.97186 5.24583,4.63724 11.22504,-1.35009 21.69931,-6.09462 31.62204,-11.31473 3.69007,-1.76428 7.15511,-4.08612 10.9915,-5.49217 3.60357,-0.89024 8.62847,0.67626 9.27321,4.77754 -0.005,4.32946 -4.29426,6.72748 -7.69113,8.41885 -10.47519,5.50352 -21.97118,8.54593 -33.16736,12.18435 -4.19145,-1.17183 -7.34911,6.28534 -2.75105,7.62618 4.86211,1.66727 10.031,0.33054 15.0045,0.11201 15.37863,-2.35609 28.82855,-10.67773 43.20384,-16.05696 5.97631,-1.94807 13.03063,0.7705 15.98002,6.37046 2.96316,4.99155 2.69233,11.55558 -0.43346,16.40517 -4.93985,10.56853 -12.44986,20.28171 -22.53169,26.35837 -6.32838,3.13304 -13.71524,4.33167 -19.13893,9.12842 -5.01611,1.65348 2.51469,8.43164 3.60327,3.05196 3.01421,-4.11105 8.33044,-5.33979 13.15272,-5.50963 7.24722,-0.78893 14.94357,-2.12574 20.57474,-7.14283 5.04841,-3.92026 10.02332,-9.32846 16.87848,-9.41286 3.78853,0.44927 7.5356,3.49348 11.38347,1.63595 3.36601,-1.54069 8.6473,-0.63787 9.52653,3.50138 1.60737,4.84212 6.59827,7.04525 10.55617,9.63647 1.43262,2.01176 6.19301,7.20027 7.29079,2.62585 -0.88582,-3.26263 0.37987,-8.2551 4.65977,-7.16485 3.7384,0.16692 7.30095,1.54537 11.03213,1.77146 4.96888,1.02921 9.11363,4.43088 11.93507,8.53823 1.94096,2.68041 6.19262,7.28592 9.35151,3.73166 1.96027,-3.67585 -1.7816,-6.74148 -4.82776,-8.05406 -4.44203,-2.75272 -8.23984,-6.41858 -12.1237,-9.88958 -5.72423,-5.34612 -10.66841,-12.14595 -11.57702,-20.13252 -1.23175,-7.96327 -0.58354,-16.0854 0.45571,-24.02703 1.30796,-5.11294 7.84609,-7.90426 12.4178,-5.18765 6.43278,2.93514 12.82118,7.13499 20.19603,6.6796 10.65672,0.22962 21.60744,-1.81083 32.02208,1.27732 10.13448,3.19236 17.3802,11.74485 27.25229,15.4456 2.20996,1.34306 5.03719,0.0649 5.84697,-2.29553 0.97841,-2.12106 0.28806,-4.83488 -1.75566,-6.04367 -11.44118,-11.54886 -27.0775,-17.1593 -40.31543,-26.18373 -4.16766,-1.05838 -4.92647,-7.76357 -1.0738,-9.69941 5.06555,-3.6812 12.23237,-1.96757 16.72634,1.82787 3.79511,2.22306 8.07073,3.88855 12.52333,3.89252 4.56089,-1.42776 2.34972,-8.02755 -1.73396,-8.52383 -7.39922,-4.17783 -12.69854,-11.0336 -19.10912,-16.46661 -3.69073,-3.12497 -7.73032,-6.28893 -12.69062,-6.89546 -2.71119,-0.49371 -5.48476,-0.60175 -8.23176,-0.41738 -2.57634,-2.79982 0.85729,-7.08688 4.18847,-6.73634 3.41839,0.23026 6.81724,0.48435 10.23118,0.009 3.81517,-0.27951 7.62705,-0.67444 11.4558,-0.70064 3.09056,2.10471 9.26644,-1.53103 6.47712,-5.1598 -3.047,-2.66998 -7.45317,-2.43806 -11.0944,-3.80826 -6.39664,-2.09862 -12.90639,-3.79475 -19.49757,-5.12501 -4.61129,-0.27496 -4.04254,-6.3438 0.0104,-7.01315 2.65242,-0.98945 4.95782,1.04837 7.50395,1.36429 4.34843,0.93443 8.83791,0.92243 13.18418,1.86979 3.68506,-1.81914 0.83638,-7.20299 -2.49717,-7.5167 -7.86548,-2.81255 -14.66289,-7.88884 -21.30805,-12.82692 -7.33672,-5.51766 -13.99294,-11.89854 -21.41962,-17.2887 -2.69469,-1.66989 -7.11143,-2.15083 -7.82031,-5.85155 -0.25,-3.40447 3.75734,-4.95497 6.59797,-4.15903 4.03042,1.19024 7.78603,3.26287 11.8938,4.28046 3.2228,0.5477 6.54573,1.50133 9.65207,1.09521 3.94317,-2.47755 -1.69121,-4.06107 -3.73057,-4.92068 -5.25742,-2.83545 -9.9288,-6.61325 -14.66015,-10.21578 -3.99829,-3.41287 3.39127,-4.92066 5.9332,-3.60658 4.2499,1.77795 4.7342,-4.41489 1.5574,-5.97324 -3.74312,-1.5916 -6.96207,-4.23374 -10.35615,-6.53791 -6.13248,-4.36548 -13.07825,-7.82117 -20.61705,-8.78107 -8.45213,-0.8493 -16.34126,-5.70972 -20.8252,-12.93782 -2.78058,-4.1191 -4.8212,-8.67434 -6.79387,-13.21818 z m -27.7573,47.41771 c 4.35633,0.12924 3.68662,7.98022 -0.60227,7.45642 -4.16502,-0.26804 -3.91011,-8.29984 0.60227,-7.45642 z m 41.09024,4.22793 c 4.23893,-0.75826 5.13655,6.9771 0.90145,7.34025 -4.41258,0.78986 -6.04799,-7.82974 -0.90145,-7.34025 z m -12.03503,1.0082 c 4.29735,0.8454 3.5329,8.33172 -0.80403,8.39714 -3.17306,0.70654 -6.59303,2.87216 -9.8032,1.2491 -2.61056,-2.761 1.16263,-6.84373 4.07668,-7.74125 2.23515,-0.45054 4.29156,-1.46539 6.53055,-1.90499 z m 27.69832,0.0325 c 4.14125,1.51072 2.68066,8.82141 -1.68753,8.72822 -4.13086,0.55352 -6.05453,-6.33753 -2.2025,-7.97193 1.247,-0.44214 2.55343,-0.81472 3.89003,-0.75629 z m -46.72433,8.29321 c 3.04519,2.89796 1.24659,8.49051 -2.50819,9.82757 -2.70647,1.50551 -6.39629,5.06666 -9.34419,2.13654 -1.59949,-3.57914 2.41531,-6.27423 4.7768,-8.26086 2.10757,-1.63874 4.43337,-3.1263 7.07558,-3.70325 z m 34.77775,16.16367 c 4.35988,2.05865 2.14669,9.91584 -2.63843,9.42744 -3.93001,-0.99583 -3.41691,-7.73625 0.54165,-8.27391 0.74828,-0.28639 1.43463,-0.70797 2.09678,-1.15353 z m -13.83442,0.78051 c 4.07761,1.90907 0.96423,8.71378 -3.14283,7.73324 -4.25835,-0.50009 -4.17984,-7.98676 0.51635,-7.31089 0.8849,-0.0439 1.79873,-0.0664 2.62648,-0.42235 z m 29.82215,3.90271 c 4.46922,-1.38684 9.84982,3.21755 8.39934,7.88672 -1.99069,3.61976 -6.91666,4.07805 -10.44491,2.72523 -4.05138,-0.2 -6.77643,-6.29062 -3.16717,-8.86967 1.49352,-1.12803 3.37618,-1.5916 5.21274,-1.74228 z m -66.01578,1.17078 c 3.69531,-2.01043 7.61884,4.03204 4.47617,6.69726 -2.08166,3.06041 -7.42705,4.31074 -9.784,0.90738 -1.95812,-3.32406 1.20787,-8.90868 5.30783,-7.60464 z m -17.04965,2.862 c 4.19184,0.57349 6.92322,4.3809 8.47241,8.00626 0.37817,4.41811 -6.1409,6.84232 -8.98477,3.6278 -3.19785,-2.00618 -5.99708,-6.13199 -4.3206,-9.96118 1.03292,-1.52053 3.0907,-2.14787 4.83296,-1.67288 z m 102.00296,15.96852 c 4.54933,-1.19889 7.85221,6.07162 3.94587,8.70176 -3.57171,3.2442 -10.51642,-1.0538 -8.65374,-5.68266 0.92574,-1.71607 2.77757,-2.85661 4.70787,-3.0191 z m -57.90394,8.29323 c 3.81461,0.4858 2.57873,7.09714 -0.94845,6.87523 -3.78556,-0.70169 -2.91885,-7.2481 0.94845,-6.87523 z m -19.35047,3.5124 c 3.11134,-2.20143 7.1241,3.17169 4.53605,5.6755 -3.10199,2.18464 -7.12563,-3.10325 -4.53605,-5.6755 z m 30.76608,0.65045 c 3.60637,2.19129 5.7474,6.2771 6.19568,10.40004 -1.72832,3.85189 -8.403,2.92335 -9.15551,-1.17858 -1.31976,-3.24407 -0.10346,-7.41773 2.95983,-9.22146 z m 10.73715,6.37441 c 4.64742,-1.16742 2.97966,8.54659 -0.90075,5.17719 -1.28953,-1.53131 -0.59889,-4.05101 0.90075,-5.17719 z m -67.43167,6.76467 c 3.07738,-0.90137 7.56319,0.0461 8.41264,3.57792 0.35882,3.31928 -3.2913,5.04611 -5.9659,5.86871 -4.28683,1.32275 -8.47945,3.49438 -13.08937,3.20265 -3.45532,-1.97492 -4.6956,-6.01636 -5.92755,-9.54118 3.33473,-3.12658 8.24515,-2.2094 12.3789,-2.99197 1.39595,-0.0716 2.79361,-0.1056 4.19128,-0.11613 z m 104.59872,15.2205 c 3.92557,-1.9246 8.1471,4.30637 4.86119,7.2168 -4.11083,4.73148 -12.02538,5.6107 -16.94072,1.63582 -0.59091,-4.18725 3.59171,-7.22841 7.30703,-7.82936 1.56288,-0.4415 3.11617,-1.1011 4.7725,-1.02326 z m 22.06425,4.78079 c 4.46021,-0.76762 7.97362,5.59529 4.78829,8.88838 -3.01451,4.54541 -10.2033,5.73754 -14.3136,2.01162 -1.60253,-3.76837 1.64829,-7.69488 5.10816,-8.90391 1.4871,-0.63289 2.89513,-1.44405 4.41715,-1.99609 z m -110.94071,6.76468 c 4.13059,-0.40762 7.91471,3.69065 7.37261,7.76297 2.99018,2.94257 -2.30489,8.42456 -5.28395,5.37746 -2.62524,-3.18097 -2.61143,-7.49635 -3.62831,-11.30329 -0.0455,-0.84562 0.58052,-1.94096 1.53965,-1.83714 z m 31.70997,2.37415 c 4.27033,-1.84625 9.79507,3.26246 7.47018,7.58747 -1.66027,3.52257 -8.13554,2.34188 -7.92037,-1.73835 -0.0111,-1.95182 -0.16861,-3.95361 0.45019,-5.84912 z m -15.42727,2.76438 c 4.28194,-0.98171 8.21053,4.56901 5.83101,8.27278 -4.26897,0.37953 -6.48524,-4.68691 -5.83101,-8.27278 z"
         id="path8" />
    </g>
    <g
       transform="translate(-1000,0)"
       id="g6211">
      <g
         id="g6189"
         transform="translate(1000,0)">
        <path
           inkscape:connector-curvature="0"
           id="path5058"
           d="m 800,600.00079 a 40,40 0 0 1 -40,40 l 0,-20 a 20,20 0 0 0 20,-20 l 20,0 z"
           style="opacity:0.603;fill:url(#radialGradient6127);fill-opacity:1" />
        <rect
           ry="0"
           y="146.66679"
           x="780"
           height="453.33401"
           width="20"
           id="rect6134"
           style="opacity:0.603;fill:url(#linearGradient6142);fill-opacity:1" />
        <rect
           y="620.00079"
           x="40"
           height="20"
           width="720"
           id="rect6144"
           style="opacity:0.603;fill:url(#linearGradient6152);fill-opacity:1" />
        <path
           style="opacity:0.603;fill:url(#radialGradient6156);fill-opacity:1"
           d="m 0,600.00079 a 40,40 0 0 0 40,40 l 0,-20 a 20,20 0 0 1 -20,-20 l -20,0 z"
           id="path6154"
           inkscape:connector-curvature="0" />
        <rect
           transform="scale(-1,1)"
           style="opacity:0.603;fill:url(#linearGradient6160);fill-opacity:1"
           id="rect6158"
           width="20"
           height="453.33401"
           x="-20"
           y="146.66679"
           ry="0" />
        <rect
           transform="scale(1,-1)"
           style="opacity:0.603;fill:url(#linearGradient6164);fill-opacity:1"
           id="rect6162"
           width="720"
           height="20"
           x="40"
           y="-126.66679" />
        <path
           style="opacity:0.603;fill:url(#radialGradient6174);fill-opacity:1"
           d="m 800,146.66679 a 40,40 0 0 0 -40,-40 l 0,20 a 20,20 0 0 1 20,20 l 20,0 z"
           id="path6166"
           inkscape:connector-curvature="0" />
        <path
           inkscape:connector-curvature="0"
           id="path6168"
           d="m 0,146.66679 a 40,40 0 0 1 40,-40 l 0,20 a 20,20 0 0 0 -20,20 l -20,0 z"
           style="opacity:0.603;fill:url(#radialGradient6176);fill-opacity:1" />
      </g>
      <rect
         style="opacity:0.3;fill:url(#linearGradient6209);fill-opacity:1"
         id="rect6201"
         width="760"
         height="493.33401"
         x="1020"
         y="-620.00079"
         ry="20"
         transform="scale(1,-1)" />
    </g>
  </g>
</svg>
