<?xml version="1.0" encoding="utf-8"?>

<!DOCTYPE svg PUBLIC "-//W3C//DTD SVG 1.1//EN" "http://www.w3.org/Graphics/SVG/1.1/DTD/svg11.dtd">
<svg version="1.1" id="Layer_1" xmlns="http://www.w3.org/2000/svg" xmlns:xlink="http://www.w3.org/1999/xlink" x="0px" y="0px"
	 viewBox="0 0 1733.812 1720.632" enable-background="new 0 0 1733.812 1720.632" xml:space="preserve">
<g>
	<g>
		<g>
			<path fill="none" d="M777.97,1660.1c0.414,0.063,0.95-0.013,1.332,0.216c0.067-0.076,0.141-0.145,0.213-0.216H777.97z"/>
			<path fill="#009543" d="M781.572,1657.253v-9.307c0-7.375-4.993-11.006-4.993-18.383v-9.305c0-5.106,1.248-8.17,3.631-12.594
				c1.476-2.724,2.269-4.766,4.085-7.263c1.475-2.157,3.404-2.838,4.993-4.993c2.042-2.724,3.519-4.427,5.901-6.808
				c2.383-2.384,4.766-2.95,7.262-5.447c3.973-3.972,6.582-7.036,7.263-12.709c0.341-2.838-0.339-4.427,0-7.263
				c0.795-7.15,1.589-11.12,2.724-18.156c1.135-6.808,3.972-10.327,7.263-16.34c2.496-4.539,6.014-5.901,8.624-10.44
				c-4.312-3.177-6.467-6.354-11.347-8.625c-3.971-1.814-6.241-3.517-9.078-6.808c-1.362-1.589-3.177-2.383-3.177-4.539
				c0-2.156,2.042-2.724,3.631-4.084c1.93-1.589,3.177-2.724,4.994-4.539c4.426-4.427,7.716-6.581,11.801-11.348
				c3.972-4.538,7.943-5.446,13.164-8.17c4.993-2.611,7.943-3.745,13.163-5.901c5.22-2.156,8.058-3.631,12.709-6.808
				c4.427-2.95,7.49-4.654,10.44-9.078c4.427-6.581,6.808-10.781,9.532-18.156c1.135-3.176,3.177-4.765,3.177-8.17
				c0-5.334-3.858-7.49-6.809-11.801c-0.793-1.249-2.269-1.93-2.269-3.518v-9.305c0-3.405-2.95-4.425-4.993-7.148
				c-2.609-3.52-4.198-5.562-7.716-8.171c-4.312-3.177-7.036-5.219-10.894-9.077c-1.247-1.25-2.156-2.27-3.177-3.631
				c-0.681-0.908-1.815-1.135-1.815-2.27c0-2.611,1.815-3.973,2.724-6.354c5.219-12.597,14.751-18.61,28.141-21.334
				c7.264-1.476,11.689-1.589,19.065-2.724c2.042-0.341,3.292-1.134,5.446-1.362c1.589-0.114,2.497,0.112,4.086,0
				c5.901-0.68,9.305-3.292,13.163-7.715c2.27-2.611,3.292-4.767,4.994-7.716c1.362-2.384,3.292-3.52,4.539-5.902
				c5.673-10.212,7.489-16.793,12.709-27.233c4.084-8.17,7.036-12.823,13.163-19.518c0.455-0.568,0.455-1.249,0.908-1.815
				c2.27-2.838,3.973-4.199,6.355-6.808c2.27-2.497,3.859-3.858,6.354-6.354c1.476-1.476,2.383-3.177,4.539-3.177
				c4.199,0,6.128,2.95,9.986,4.539c3.518,1.362,5.788,1.815,9.077,3.631c4.766,2.724,7.943,3.744,13.164,5.447
				c3.404,1.134,5.446,1.815,9.078,1.815c4.084,0,6.696-1.703,9.532-4.539c1.703-1.703,2.157-4.085,4.539-4.085
				c1.476,0,2.269,1.135,3.631,1.362c4.312,0.794,6.923,0.454,11.347,0.454c3.859,0,5.901-2.837,8.171-5.9
				c3.518-4.766,7.149-6.243,11.347-10.44c1.815-1.816,2.269-3.858,4.539-4.993c1.589-0.796,2.724-0.455,4.539-0.455
				c5.334,0,8.625,0.228,13.617,1.816c3.177,1.02,4.312,3.404,7.262,4.993c1.362,0.68,2.611,0.566,4.086,0.907
				c1.703,0.455,2.157,1.816,3.631,2.724c4.427,2.724,7.49,4.539,12.71,4.539c5.106,0,8.058-1.703,12.709-3.631
				c4.538,1.134,8.057,2.269,12.709,2.269c9.646,0,15.093-0.454,24.51-2.723c2.724-0.681,4.654-1.023,7.263-1.816
				c4.427-1.475,6.924-3.065,10.894-5.447c8.17-5.106,13.051-9.985,22.695-9.985c5.787,0,8.739,2.724,14.524,2.724
				c2.385,0,3.404-1.93,5.447-3.177c2.837-1.703,4.312-3.519,7.262-4.993c4.767-2.497,8.284-2.385,13.617-3.631
				c4.2-0.908,6.696-2.158,10.894-2.724c3.632-0.569,6.128,0.113,9.532-1.362c2.27-1.023,3.405-2.269,5.447-3.631
				c2.95-1.931,4.993-3.293,6.808-6.355c1.135-2.042,1.703-3.745,3.632-4.993c4.084-2.724,7.83-1.362,12.708-2.27
				c5.788-1.134,7.944-5.106,12.71-8.624c5.592-4.167,9.281-6.011,14.438-10.429H227.671c4.567,2.889,8.002,6.144,11.49,10.883
				l16.34,66.723l65.164-4.272c-1.691,1.577-3.671,2.764-4.341,5.18c-0.308,1.113,0.908,2.269,0.908,3.631
				c0,1.589-1.382,2.264-1.815,3.632c-2.516,7.936-9.119,9.951-14.526,16.34c-7.075,8.363-11.801,14.525-11.801,25.418
				c0,7.036,3.631,10.895,3.631,17.929c0,6.203,0,12.407,0,18.61c0,7.716,13.617,6.581,13.617,14.298
				c0,3.178-3.632,4.085-3.632,7.263c0,4.766,8.171,4.311,8.171,9.078c0,6.355-5.3,11.531-9.839,16.07l-0.052,0.047
				c2.881,0.879,5.252,2.187,8.074,3.854c1.31,0.774,0.908,3.632,2.724,3.632c2.724,0,4.783-1.452,7.263-1.815
				c12.958-1.904,20.389-4.64,32.681-9.078c4.049-1.463,8.265-8.075,10.894-4.539c5.978,8.04,3.206,15.653,5.447,25.419
				c0.935,4.076,0.2,7.738,2.723,10.893c3.83,4.788,9.316,4.071,14.526,7.263c8.86,5.431,15.425,6.377,25.418,9.985
				c6.346,2.291,10.022,5.66,12.709,11.802c0.489,1.119-0.496,2.514,0,3.631c1.32,2.968,2.951,6.355,6.356,6.355
				c4.426,1.815,10.551,23.829,12.709,28.142c1.021,2.042,0.68,3.631,1.815,5.446c2.608,3.859,7.262,4.879,7.262,9.532
				c0,2.836-1.362,4.426-1.362,7.263c0,3.518,1.816,5.674,4.086,8.17c2.836,3.063,4.993,4.312,8.625,6.356
				c6.581,3.631,9.759,7.262,16.34,10.892c6.24,3.405,11.12,3.859,15.887,9.078c4.993,5.447,4.651,11.12,9.531,16.795
				c3.178,3.632,4.994,5.447,8.171,9.078c3.063,3.517,5.785,4.425,9.078,7.716c4.878,4.878,6.24,9.078,8.624,15.433
				c2.382,6.354,2.951,12.821,9.532,14.524c6.128,1.589,9.986,0.454,16.341,0.454c5.56,0,8.624,1.816,14.183,1.816h18.951
				l19.065,2.723c7.035,0,9.305-7.716,16.34-7.716c1.815,0,2.724,1.247,4.539,1.362c2.836,0.112,4.878-1.702,7.263-0.454
				c1.362,0.682,1.474,2.269,2.269,3.631c2.95,5.106,5.446,7.602,8.625,12.71c2.608,4.197,4.766,6.581,7.716,10.439
				c1.362,1.815,1.815,3.632,3.177,5.447c2.382,3.063,5.22,4.084,9.077,4.993l9.986-1.362c6.355,1.021,9.872,2.382,15.886,4.085
				c4.085,1.135,6.695,1.02,10.894,1.815c4.878,0.907,7.716,1.701,12.709,1.816c0.681,0,1.135-0.454,1.815-0.454
				c4.198,0.339,7.603,1.815,11.802,1.815c5.674-0.908,9.192,0.115,14.525-1.815c7.376-2.724,11.574-6.354,19.517-6.354
				c3.745,0,4.654,4.197,5.901,7.717c1.362,3.858,3.858,5.334,6.354,8.624c0.341,0.454,0.114,1.362,0.454,1.815
				c0.111,0.148,0.285,0.208,0.484,0.238h1.545C780.408,1659.21,781.572,1658.618,781.572,1657.253z"/>
			<path fill="#FFFFFF" d="M1324.438,1179.635c6.127-5.334,10.893-6.581,18.155-9.985c3.292-1.476,5.447-2.158,8.171-4.539
				c2.61-2.27,4.426-3.518,7.262-5.447c3.065-2.042,4.085-4.652,7.263-6.354c3.972-2.157,6.581-3.404,10.894-4.993
				c2.951-1.023,4.653-1.93,7.716-2.724c7.263-2.042,12.482-2.951,17.248-8.624c2.157-2.611,4.539-3.405,6.354-6.354
				c2.611-4.2,4.539-6.809,7.716-10.44c0.454-0.568,0.341-1.362,0.908-1.816c2.496-2.041,4.427-2.837,6.808-4.993
				c3.519,3.971,7.943,3.859,11.802,7.716c6.696-4.765,6.241-11.462,9.532-19.063c1.815-4.199,5.901-5.334,10.439-5.446
				c3.52-0.115,5.562-1.135,9.078-1.362c2.838-0.227,4.88,0.907,7.263-0.455c2.838-1.589,3.404-3.972,4.993-6.808
				c1.815-3.292,4.085-5.22,4.085-9.078c0-7.376-3.177-11.12-5.447-18.156c-1.362-2.837-3.063-4.311-4.084-7.262
				c-1.474-4.312-1.701-7.489-4.085-11.347c-2.382-3.859-4.198-6.47-8.17-8.625c-1.362-0.68-2.27-1.25-3.632-1.815
				c-1.815-0.682-4.084-1.135-4.084-3.177c0-6.696,3.519-9.985,5.446-16.341c1.249-4.311,1.362-7.035,2.724-11.347
				c2.385-7.377,4.539-11.688,4.539-19.518c0-4.993-1.362-7.716-1.362-12.709c0-5.219,4.539-7.489,4.539-12.709
				c0-2.497-0.566-4.085-1.362-6.355c-1.021-2.951-3.631-4.086-3.631-7.263c0-6.128,1.93-9.873,5.901-14.524
				c2.384-2.838,3.858-4.539,6.354-7.263c1.589-1.815,3.065-2.837,4.993-4.539c1.135-1.022,2.724-1.476,2.724-3.065v-9.759
				c0-3.516,0.454-5.674,1.362-8.964c0.907-3.292,2.723-5.107,2.723-8.624h8.966c3.631,0,5.786,1.246,9.19,0
				c4.766-1.703,5.562-6.242,9.985-8.625c4.766-2.61,8.171-3.292,12.709-6.354c0.681-0.454,0.681-1.476,1.362-1.815
				c1.816-1.135,3.405-1.362,5.447-2.27c2.724-1.248,4.312-2.269,7.377-2.269c7.035,0,11.006,0.339,18.041,0.454
				c0.569-0.341,1.589,0,1.815-0.454c1.476-2.269,1.476-4.427,1.816-7.263c0.454-4.199,0.907-6.696,0.907-10.894
				c0-5.787-0.907-9.077-2.724-14.524c9.419,0,14.979-1.476,23.604-4.993c-1.929-4.654-4.085-7.604-8.171-10.44
				c-2.608-1.815-4.538-2.157-7.262-3.631c-2.382-1.249-4.086-3.065-4.086-5.901c0-8.171,4.539-12.255,4.539-20.425
				c0-3.859-0.454-6.242-1.362-9.986c-0.68-2.838-2.269-4.311-2.269-7.262c0-2.838,0.68-4.427,0.907-7.263
				c0.227-2.838-1.134-4.993,0.454-7.263c0.908-1.248,2.27-1.248,3.632-1.815c4.766-1.93,9.419-2.27,14.071-4.539
				c2.383-3.292,4.085-5.334,5.901-9.078c1.362-2.837,1.249-5.219,3.631-7.262c1.703-1.476,3.405-1.135,5.446-1.816
				c3.632-1.361,5.447-3.177,9.078-4.539c4.767-1.703,7.716-2.383,12.71-3.176c4.199-0.681,6.696-1.249,10.894-2.27
				c4.654-1.135,7.715-1.815,10.894-5.446c4.085-4.767,4.88-8.739,7.262-14.525c1.476-3.745,3.405-5.561,5.447-9.078
				c1.815-3.631,5.107-4.654,5.901-8.624c0.907-4.88,0.341-7.716,0.454-12.71c0.115-3.631-0.227-6.241,1.815-9.077
				c0.341-0.569,1.25-0.341,1.815-0.908c1.815-1.815,2.497-3.631,4.085-5.446c1.476-1.59,3.177-2.724,3.177-4.993
				c0-3.859-1.928-5.789-3.631-9.078c-1.021-2.043-1.702-3.746-3.632-4.994c-2.496-1.703-4.993-1.361-7.262-3.177
				c-0.567-0.454-0.567-1.248-0.908-1.815c-1.474-2.042-2.722-3.745-2.722-6.355c0-4.085,1.361-6.354,3.176-9.985
				c1.135-2.838,1.816-4.993,1.816-8.171c0-1.93-1.021-2.837-1.816-4.538c-1.815-3.746-4.085-5.447-7.262-8.171
				c-5.106-4.427-7.943-7.831-10.44-14.071c-1.135-2.724-1.135-4.654-2.269-7.263c-1.702-3.745-4.54-4.879-6.356-8.624
				c-2.269-4.539-2.269-7.831-3.631-12.709c-1.08-3.781-0.664-6.636-1.181-9.976H403.482c-0.862,1.147-1.496,2.383-2.732,3.621
				c-2.95,2.949-5.108,4.538-8.171,7.262c-2.837,0.455-6.808-0.568-6.808,2.269c0,2.27,1.589,3.178,1.815,5.447
				c0.227,2.156-1.022,3.404-0.454,5.447c0.566,2.042,2.496,2.609,4.539,3.177c5.105,1.474,10.44,3.743,10.44,9.078
				c0,3.516-0.908,6.808-4.086,8.17c-2.042,0.793-3.292,1.247-5.447,1.815c-1.248,0.339-2.837,0-3.631,0.907
				c-0.796,0.908-0.568,2.382-0.907,3.632c-2.043,7.263-9.646,7.829-14.979,13.163c-5.674,1.816-8.739,3.859-14.526,4.994
				c-4.879,0.907-8.17-0.227-12.709,1.815c-0.795,0.339-0.68,1.247-1.362,1.815c2.27,2.497,3.517,4.198,5.447,6.808
				c1.589,2.156,4.085,3.064,4.085,5.901c0,4.993-3.519,8.282-8.171,9.985c-4.766,1.702-8.965,0.34-12.709,3.632
				c-1.134,0.908-1.25,2.27-1.815,3.632c-0.908,2.041-2.269,3.062-2.269,5.332v9.305c0,3.519,1.589,5.674,0.454,8.966
				c-0.454,1.473-1.589,2.042-2.724,3.176c-1.93-1.703-2.723-3.292-4.993-4.538c-3.177-1.703-5.674-1.589-9.078-2.724l-1.815,0.454
				c-0.227,1.247-0.455,1.815-0.455,3.063c0,5.562,6.128,6.469,8.625,11.462c1.701,3.517,1.815,6.013,1.815,9.986
				c0,3.177,0.455,5.787-1.362,8.17c-3.177,4.086-7.716,3.405-12.709,4.993c-2.157,0.681-4.085,1.135-4.993,3.177
				c-0.568,1.248,0.227,2.382,0,3.632c-0.681,3.516-5.447,4.084-5.447,7.716c0,1.815,0.908,2.723,0.908,4.539
				c0,1.021-1.022,1.474-1.815,1.815c-1.249,0.68-2.27,0.908-3.632,1.362c-2.837,0.907-4.426,1.701-7.262,2.723
				c-4.086,1.475-7.716,4.198-7.716,8.625c0,1.589,1.247,2.269,1.815,3.631c1.815,3.971,3.632,6.468,3.632,10.895
				c0,2.269-0.569,4.084-2.27,5.446c-1.589,1.247-3.404,0.567-5.446,0.908c-1.25,0.111-2.27,0.907-3.632,0.907
				c-2.157,0-3.632-0.227-5.446-1.362c-1.703-1.022-2.043-3.177-4.086-3.177c-4.88,0-7.831,2.724-10.894,6.355
				c-1.589,1.929-4.085,1.929-5.447,4.085c-1.475,2.269-1.703,4.425-1.815,7.263c-0.114,4.651-0.907,7.147-0.907,11.801
				c0,4.198-0.796,9.532-4.994,9.532c-3.292,0-5.219-1.022-8.17-2.269c-1.362-0.568-2.042-2.27-3.631-2.27
				c-2.383,0-3.404,2.156-5.447,3.178c-2.838,1.473-5.788,1.928-6.355,4.993c-0.907,4.538-2.383,7.716-6.354,9.985
				c-1.589-2.157-3.292-3.065-4.539-5.447c-2.611-4.766-2.95-8.397-6.808-12.254c-0.568,0.339-1.476,0-1.816,0.454
				c-1.814,2.381-1.93,4.539-3.176,7.263c-2.611,5.9-5.335,8.85-9.986,13.163c-2.157,1.929-2.724,4.312-5.446,5.447
				c-3.973,1.701-6.697,1.135-10.894,1.815c-2.724,0.454-4.427,1.815-7.263,1.815c-1.589,0-2.27-1.023-3.632-1.815
				c-2.837-1.589-4.765-3.632-8.17-3.632c-2.496,0-2.157,3.632-3.631,5.447c-0.907,1.135-3.292,1.021-4.539,1.815
				c-1.703-0.341-2.723-1.362-4.539-1.362c-3.065,0-3.972,2.724-5.9,4.994c-3.52,4.084-5.221,7.035-9.078,10.893
				c-2.158,2.156-4.086,3.405-6.354,5.447c-2.27,2.042-3.632,4.539-6.809,4.539c-2.496,0-3.292-2.497-5.446-3.631
				c-2.724-1.476-4.539-2.497-7.263-4.086c-1.703,4.086-1.362,7.035-2.27,11.347c-0.454,2.156-1.703,3.29-2.269,5.447
				c-0.568,2.042,0.112,3.404-0.454,5.446c-0.569,2.156-1.931,3.177-3.632,4.539c-3.631-2.724-6.354-3.631-9.532-6.808
				c-3.404-3.404-5.219-6.015-9.532-8.17c-0.341,1.02-0.681,1.588-0.908,2.723l1.362,9.078c-0.341,2.497,0.227,3.971-0.454,6.354
				c-0.795,2.724-3.631,3.518-3.631,6.356c0,4.993,2.496,7.489,4.993,11.801c2.609,4.651,4.086,7.602,5.901,12.709
				c1.701,4.651,4.198,6.694,6.808,10.894c0.68,1.247,1.135,2.609,2.269,3.632c2.837,2.608,5.447,2.949,9.078,4.538
				c10.099,4.539,10.78,13.956,18.61,21.788c1.929,1.928,3.971,2.381,5.447,4.538c3.97,5.56,3.744,10.099,6.808,16.341
				l77.163,190.639c2.155,6.694,4.084,10.666,8.17,16.34c1.816,2.609,4.878,2.383,7.263,4.539c1.135,1.021,1.021,2.382,1.815,3.632
				c2.155,3.29,5.22,3.631,8.625,5.446c1.42,0.746,2.713,1.502,3.943,2.28h1096.226
				C1324.077,1179.945,1324.254,1179.796,1324.438,1179.635z"/>
			<path fill="#00209F" d="M594.437,314.467C594.56,314.22,594.517,314.257,594.437,314.467L594.437,314.467z"/>
			<path fill="#00209F" d="M1626.282,537.366c-0.454-1.476-1.589-2.383-2.27-3.631c-3.063-4.993-5.559-7.603-9.531-11.802
				c-2.27-2.383-4.312-3.631-5.447-6.808c-0.455-1.249,0.115-2.497-0.455-3.631c-0.681-1.476-1.928-2.27-3.176-3.177
				c-2.497-1.93-4.879-1.816-7.263-3.632c-0.567-0.454-0.454-1.248-0.908-1.815c-1.928-2.042-4.539-3.064-4.539-5.901
				c0-3.176,1.362-4.879,1.362-8.058v-9.305c0-4.993-2.836-7.602-3.177-12.595c-0.227-3.518,0.569-5.901-0.907-9.078
				c-1.021-2.157-2.95-2.61-4.994-3.631c-5.332-2.61-8.963-2.95-14.525-4.993c-4.878-1.816-7.716-3.177-12.709-4.539
				c-1.021-0.227-1.589-0.908-2.724-0.908c-6.467,0-6.694,9.986-13.164,9.986c-3.858,0-6.92-0.908-9.077-4.086
				c-1.702-2.611-2.497-4.654-4.086-7.263c-1.815-3.065-3.858-4.311-6.354-6.808c-3.063-3.065-4.198-5.562-6.808-9.078
				c-3.744-5.107-6.355-8.965-6.355-15.433c0-1.815,0.681-2.837,0.455-4.539c-0.339-2.383-3.29-2.496-5.447-3.631
				c-1.362-0.68-2.269-1.589-3.631-2.27c-3.859-1.93-6.694-2.269-10.894-3.631c-4.766-1.589-7.943-1.93-12.709-3.631
				c-5.786-2.157-5.901-8.398-11.347-11.348c-9.418-4.993-15.773-6.128-26.327-8.624c-6.467-1.476-10.551-1.93-16.34-4.993
				c-2.042-1.023-3.517-2.043-5.446-3.178c-1.475-0.907-3.064-1.022-3.632-2.723c-0.227-0.908,0.454-1.589,0.454-2.611
				c0-1.134-0.454-1.701-0.454-2.836c0.114-4.993,1.362-9.077,1.362-14.071c-1.021-6.241-3.859-10.212-9.532-12.709
				c-5.106-2.269-8.51-3.292-13.162-6.355c-2.27-1.476-3.178-3.065-5.447-4.539c-5.333-3.518-8.964-5.334-14.071-9.078
				c-3.516-2.61-6.922-2.838-9.532-6.355c-6.241-2.497-9.417-6.015-14.526-10.44c-3.29-2.837-6.467-3.404-8.624-7.262
				c-0.567-1.135-0.567-2.385-0.908-3.631c-1.135-3.632-2.269-5.789-4.084-9.078c-1.702-3.065-3.517-4.427-5.447-7.263
				c-4.198-6.242-6.467-10.327-10.894-16.34c-3.744-4.994-5.332-8.512-7.262-14.526c-0.681-2.157-0.113-3.972-1.816-5.446
				c-1.021-0.796-2.383-0.569-3.631-0.908c-2.156-0.681-3.404-1.362-5.447-2.27c-5.9-2.61-9.078-5.788-12.255-11.347
				c-1.246-2.157-2.608-3.065-4.084-4.993c-2.609-3.404-3.29-8.17-7.716-8.17c-7.263,0-11.348,1.361-18.61,1.361
				c-7.036,0-12.482-4.879-13.617-11.801c-0.794-4.88-0.794-7.716-1.362-12.709c-0.339-2.838,0.341-4.766-0.907-7.263
				c-1.816-3.631-6.013-2.838-8.625-5.901c-3.29-3.858-5.786-6.127-10.44-8.17c-4.198-1.815-6.694-2.838-10.894-4.539
				c-2.042-0.795-3.29-1.134-5.446-1.815c-1.474-0.454-2.156-1.362-3.744-1.362h-10.667c-2.837,0-4.88,1.362-7.376,0
				c-3.971-2.157-4.085-6.128-5.447-10.44c-0.793-2.61-1.362-4.538-1.815-7.262c-1.589-9.986-2.269-15.886-5.446-25.419
				c-0.681-2.042-0.794-3.404-1.362-5.446c-1.135-4.2-2.95-6.581-3.632-10.894c-0.566-3.518-0.339-5.789-1.815-9.078
				c-2.723-6.128-5.219-10.1-11.347-13.163c-4.198-2.043-7.263-2.838-10.44-6.355c-3.631-1.816-6.467-1.816-10.44-1.816
				c-3.063,0-3.97,2.724-6.354,4.539c-3.404,2.609-5.9,3.859-9.532,5.901c-6.467,3.744-9.759,6.92-16.34,10.44
				c-3.404,1.815-5.22,3.631-9.078,4.539c-4.879,1.135-7.716,0-12.709,0c-4.198,0-6.695,1.361-10.895,1.361
				c-4.311,0-6.581-2.723-10.893-2.723c-5.786,0-8.283,4.538-14.072,4.538c-5.332,0-8.282-1.022-13.616-1.361
				c-3.517-0.228-5.674,0.227-9.078-0.455c-2.043-0.341-4.651-1.022-6.808-1.361c-3.859,3.858-7.603,4.084-12.709,5.9
				c-2.95,1.021-4.312,2.724-7.263,3.631c-4.198,1.362-7.036,1.59-11.348,2.27c-2.723,0.34-4.993-1.022-7.262,0.454
				c-1.816,1.135-1.474,3.405-2.27,5.447c-0.907,2.269-2.381,3.404-3.631,5.447c-0.907,1.473-2.382,2.042-3.177,3.631
				c-1.474,2.724-2.27,4.766-4.086,7.262c-1.589,2.27-3.97,2.609-5.901,4.539c-2.724,2.724-3.631,5.221-4.538,9.078
				c-1.475,6.013-3.405,9.305-6.809,14.525c-1.247,2.042-2.155,4.197-4.539,4.538c-3.404,0.567-6.128-0.907-9.078,0.908
				c-1.246,0.794-1.701,2.042-2.723,3.177c-2.951,3.29-5.901,5.447-10.44,5.447c-0.794,0-1.135-0.796-1.815-0.908
				c-3.178-0.795-4.878-2.269-8.171-2.269c-2.95,0-3.743,2.836-6.354,4.084c-3.177,1.589-5.559,1.815-9.191,1.815h-11.12
				c-2.384,0-3.631-1.475-5.561-2.723c-1.247-0.796-2.382-1.362-3.632-2.27c-2.496-1.815-2.723-5.901-5.9-5.901
				c-2.27,0-3.291,1.816-5.447,2.27c-3.404,0.794-5.559,0.454-9.078,0.454c-4.993,0-8.056-0.114-12.709-1.815
				c-3.858-1.362-5.786-4.539-9.985-4.539c-1.817,0-1.929,2.043-2.724,3.631c-0.794,1.589-1.589,2.27-2.724,3.632
				c-2.382,2.836-3.971,4.425-6.808,6.808c-5.447,4.766-7.943,8.057-13.617,12.255c-3.859,2.836-4.993,5.901-8.625,9.078
				c-1.815,1.589-3.177,2.836-5.446,3.631c-1.247,0.455-2.609-0.227-3.631,0.455c-1.249,0.793-1.249,2.269-1.817,3.631
				c-0.793,2.042-1.589,3.404-2.269,5.446c-1.362,3.632-1.928,6.013-4.086,9.078c-2.042,2.836-4.766,3.177-6.808,5.901
				c-2.27,3.063-3.177,5.674-4.994,9.078c-0.793,1.589-2.155,1.928-2.723,3.631c-1.247,3.404-0.112,5.901-1.815,9.078
				c-1.135,2.156-2.836,3.063-4.993,4.086c-5.106,2.497-8.737,2.949-14.525,3.631c0,5.332-1.247,8.397-2.269,13.617
				c-0.567,2.723-0.34,4.651-1.362,7.263c-1.247,3.062-2.156,5.559-4.994,7.262c-1.928,1.135-3.631,1.135-5.446,2.27
				c-2.157,1.361-3.177,3.29-3.177,5.9c0,4.651,0.227,7.148,1.362,11.802h-5.334c-2.27,0-3.405-1.135-5.56-1.362
				c-3.065-0.454-4.654-1.022-7.263-2.724c-1.702,0.794-2.157,1.816-3.631,2.724c-3.632,2.269-6.581,2.724-10.894,2.724
				c-4.427,0-7.036-2.838-9.532-6.355c-1.362-1.93-1.25-3.746-2.724-5.447c-2.042-2.269-4.654-1.93-7.263-3.631
				c-1.361-0.795-1.93-2.27-3.177-3.177c-1.703-1.249-3.292-1.362-5.446-1.362c-3.632,0-6.128,1.135-8.625,3.631
				c-2.724,2.724-6.469,2.497-8.17,5.901c-0.908,1.928-0.227,3.29-0.453,5.447c-0.341,2.835-0.568,4.425-0.908,7.262h-8.624
				c-0.796-0.114-1.023-0.907-1.817-0.907c-1.476,0-2.042,1.589-2.723,2.724c-1.249,1.928-1.93,3.29-2.724,5.446
				c2.836,0.908,4.651,0.908,7.716,1.362c-3.859,5.787-3.632,10.325-6.808,16.34c-1.023,2.043-3.293,2.382-5.447,3.178
				c-3.065,1.246-4.766,3.176-8.17,3.176c-2.611,0-4.2-1.362-6.355-2.723c-0.68-0.454-0.568-1.476-1.362-1.815
				c-1.361-0.568-2.496-0.227-4.084-0.455c0-3.065-0.568-6.808-3.631-6.808c-2.27,0-2.27,3.631-4.539,3.631
				c-4.777,0-4.045-2.918-3.76-3.665c-0.163,0.328-0.62,1.156-1.688,2.757c-0.907,1.247-2.383,1.474-3.631,2.269
				c-3.292,2.156-5.107,4.993-9.078,4.993c-1.362,0-2.27-0.795-3.631-0.907c-2.838-0.341-4.427,0-7.263,0.68
				c-0.114-2.723-0.114-4.312-0.227-7.035c-4.654,0-7.49-1.362-11.12-4.086c-2.385-1.703-4.88-1.362-7.716-2.269
				c-3.745-1.249-5.562-3.293-9.532-4.086c0.68,4.198,0.339,6.695,0,10.894c3.516,0.794,7.716,1.815,7.716,5.447
				c0,0.793-0.796,1.134-0.908,1.814c-0.68,3.632-2.95,5.333-3.177,9.078c-0.114,2.156,1.247,3.859,0,5.447
				c-1.362,1.701-3.745,2.269-5.901,2.724l-1.815,1.362c-0.907-1.816-1.589-3.631-3.631-3.631c-1.249,0-1.816,1.134-2.724,1.814
				c-2.042,1.589-2.838,3.178-4.993,4.539c-2.157,1.362-4.993,1.816-4.993,4.425c0,2.27,0.454,3.405,0.454,5.674
				c0,2.497-0.68,3.859-1.362,6.242c-0.796,2.836-1.135,5.105-3.177,7.263c-1.023,1.134-2.724,1.134-3.632,2.269
				c-1.134,1.362-1.361,2.724-1.361,4.539c0,4.425,3.631,6.467,3.631,10.894c0,3.177-2.27,6.355-5.446,6.355
				c-0.908,0-1.023-1.135-1.816-1.362c-2.157-0.68-3.177-2.269-5.446-2.269c-4.654,0-10.44,1.247-10.44,5.901
				c0,1.588,1.929,1.814,3.177,2.723c1.928,1.362,3.631,2.609,3.631,4.994c0,2.042-1.703,3.063-3.631,3.631
				c-0.795,0.227-0.907,1.362-1.815,1.362c-0.908,0-1.022-1.135-1.815-1.362c-1.249-0.341-2.27-0.681-3.631-0.908
				c-0.115,0.794-0.908,1.021-0.908,1.815c0,2.156,1.362,3.291,1.362,5.447c0,4.085-3.177,7.716-7.263,7.716
				c-3.177,0-4.426-2.497-6.808-4.539c-0.455-0.341-1.25-0.227-1.816-0.454l-2.269,0.454c-0.114,1.474-0.454,2.27-0.454,3.743
				c0,2.043,0.68,3.405,0.908,5.335c0.111,1.247,0,2.608,0.907,3.631c1.474,1.701,3.404,1.701,5.447,2.724
				c4.085,2.042,8.624,3.517,8.624,8.17c0,1.815-0.454,4.086-2.269,4.086c-1.816,0-2.724-1.362-4.539-1.362
				c-2.157,0-2.611,2.27-4.539,3.177c-2.043,1.021-3.292,1.362-5.447,1.815c1.928,5.901,4.086,9.191,4.086,15.433
				c0,5.332-1.476,11.802-6.809,11.802c-0.907,0-0.68-1.362-1.362-1.817c-0.454,0.681-1.588,0.567-1.814,1.362
				c-1.703,5.333-1.362,11.121-6.809,12.709c-5.447,1.589-9.078,0.908-14.524,2.724c1.362,1.929,2.155,3.517,3.631,5.447
				c2.269,2.95,4.539,4.878,4.539,8.624c0,5.447-5.446,8.625-10.894,8.625c-1.589,0-2.157-1.476-3.631-1.815
				c-2.724-0.796-4.427-0.454-7.263-0.454c-2.27,0-2.383,2.835-2.724,4.993c-0.568,2.95-1.135,4.651-2.723,7.262
				c-1.477,2.382-3.178,3.405-4.994,5.447c-1.589,1.815-2.61,3.516-4.539,4.993c-2.496,2.043-4.654,2.609-7.262,4.539
				c-0.773,0.57-1.325,1.185-1.807,1.826h1223.435C1626.782,539.229,1626.587,538.327,1626.282,537.366z"/>
		</g>
		<g>
			<path stroke="#000000" stroke-width="2.6667" d="M864.314,570.013c-9.119,0.196-18.017,10.298-18.017,10.298l0.786,107.909
				l-34.068,35.691h27.579l-0.233,61.883l-163.152,219.696l-24.118-8.336l-42.155,89.925c0,0,104.267,65.291,255.6,63.504
				c166.101-1.975,256.341-66.512,256.341-66.512l-43.561-88.768l-21.331,9.276L892.742,786.024l-0.233-63.728h27.579
				l-37.535-35.247l0.222-107.515c0,0-9.341-9.708-18.46-9.512L864.314,570.013z"/>
			<path fill="none" stroke="#000000" stroke-width="13.3333" d="M921.22,828.365H808.404c0,0-40.947-86.272-34.31-146.587
				c6.758-61.413,41.858-90.469,88.523-90.981c55.173-0.615,84.091,27.035,92.827,88.523
				c8.656,60.928-34.225,149.051-34.225,149.051L921.22,828.365z"/>
			<path fill="#FFFFFF" d="M667.141,1034.018c-1.844,2.459-15.369,29.507-15.369,29.507l23.36-4.918L667.141,1034.018
				L667.141,1034.018z"/>
			<path fill="#FFFFFF" d="M680.634,1069.058l-24.589,7.991l29.508,11.68L680.634,1069.058L680.634,1069.058z"/>
			<path fill="#FFFFFF" d="M691.727,1034.605l12.295,36.27l30.122-8.606l-7.991-17.213L691.727,1034.605z"/>
			<path fill="#FFFFFF" d="M710.767,1083.832l4.303,14.754l39.958,9.836l-15.983-33.811L710.767,1083.832L710.767,1083.832z"/>
			<path fill="#FFFFFF" d="M755.034,1053.058l14.139,33.811l30.122-11.68l-9.836-14.754L755.034,1053.058z"/>
			<path fill="#FFFFFF" d="M774.714,1099.192l4.918,12.909l46.72,6.762l-19.671-30.737L774.714,1099.192L774.714,1099.192z"/>
			<path fill="#FFFFFF" d="M819.567,1062.925l17.213,30.122l43.646-15.983l-4.918-11.68L819.567,1062.925L819.567,1062.925z"/>
			<path fill="#FFFFFF" d="M844.794,1104.099l9.221,15.983l54.096-1.844l-20.286-30.122L844.794,1104.099L844.794,1104.099z"/>
			<path fill="#FFFFFF" d="M901.967,1064.152l14.754,25.204l34.426-16.598l-9.221-13.524L901.967,1064.152L901.967,1064.152z"/>
			<path fill="#FFFFFF" d="M958.5,1083.192l-34.426,17.213l9.221,14.754l46.106-7.377L958.5,1083.192L958.5,1083.192z"/>
			<path fill="#FFFFFF" d="M969.594,1056.738l17.827,22.131l28.893-22.746l-9.836-10.451L969.594,1056.738L969.594,1056.738z"/>
			<path fill="#FFFFFF" d="M1022.447,1068.418l-27.664,20.901l7.377,12.909l38.114-9.836L1022.447,1068.418L1022.447,1068.418z"/>
			<path fill="#FFFFFF" d="M1060.581,1024.792l6.762,9.836l-19.057,28.278l-19.672-25.204L1060.581,1024.792L1060.581,1024.792z"/>
			<path fill="#FFFFFF" d="M1073.487,1049.378l11.68,23.36l-23.36,7.991l-1.844-11.066L1073.487,1049.378L1073.487,1049.378z"/>
		</g>
	</g>
	<path fill="none" stroke="#000000" stroke-width="2" stroke-miterlimit="10" d="M301.038,1390.883
		c4.539-4.539,9.839-9.715,9.839-16.07c0-4.767-8.171-4.312-8.171-9.078c0-3.177,3.632-4.084,3.632-7.263
		c0-7.716-13.617-6.581-13.617-14.298c0-6.203,0-12.407,0-18.61c0-7.035-3.631-10.894-3.631-17.929
		c0-10.894,4.726-17.055,11.801-25.418c5.406-6.389,12.009-8.404,14.526-16.34c0.433-1.368,1.815-2.043,1.815-3.632
		c0-1.362-1.216-2.517-0.908-3.631c0.67-2.417,2.65-3.603,4.341-5.18l-65.164,4.272l-16.34-66.724
		c-4.427-6.014-8.739-9.646-15.433-13.163c-3.405-1.815-6.47-2.157-8.625-5.446c-0.795-1.249-0.68-2.611-1.815-3.632
		c-2.384-2.157-5.446-1.93-7.263-4.539c-4.086-5.674-6.015-9.646-8.17-16.34l-77.163-190.639
		c-3.064-6.242-2.838-10.781-6.808-16.341c-1.476-2.157-3.519-2.61-5.447-4.538c-7.83-7.832-8.511-17.249-18.61-21.788
		c-3.631-1.589-6.241-1.93-9.078-4.538c-1.134-1.023-1.589-2.385-2.269-3.632c-2.61-4.2-5.107-6.242-6.808-10.894
		c-1.815-5.107-3.292-8.058-5.901-12.709c-2.497-4.312-4.993-6.808-4.993-11.801c0-2.838,2.836-3.632,3.631-6.356
		c0.68-2.383,0.112-3.858,0.454-6.354l-1.362-9.078c0.227-1.135,0.567-1.703,0.908-2.723c4.312,2.155,6.128,4.766,9.532,8.17
		c3.177,3.177,5.901,4.084,9.532,6.808c1.701-1.362,3.063-2.383,3.632-4.539c0.566-2.042-0.114-3.404,0.454-5.446
		c0.566-2.158,1.815-3.292,2.269-5.447c0.908-4.312,0.567-7.262,2.27-11.347c2.724,1.589,4.539,2.609,7.263,4.086
		c2.155,1.134,2.95,3.631,5.446,3.631c3.177,0,4.539-2.497,6.809-4.539c2.269-2.042,4.197-3.292,6.355-5.447
		c3.858-3.858,5.559-6.808,9.078-10.893c1.928-2.27,2.835-4.994,5.9-4.994c1.816,0,2.836,1.021,4.539,1.362
		c1.247-0.795,3.632-0.68,4.539-1.815c1.474-1.815,1.135-5.447,3.631-5.447c3.405,0,5.333,2.043,8.17,3.632
		c1.362,0.793,2.043,1.815,3.632,1.815c2.836,0,4.539-1.362,7.263-1.815c4.197-0.68,6.92-0.114,10.894-1.815
		c2.723-1.135,3.29-3.518,5.446-5.447c4.651-4.312,7.375-7.263,9.986-13.163c1.246-2.724,1.362-4.881,3.176-7.263
		c0.34-0.454,1.248-0.114,1.816-0.454c3.858,3.858,4.197,7.489,6.808,12.254c1.247,2.382,2.95,3.291,4.539,5.447
		c3.971-2.269,5.447-5.447,6.355-9.985c0.567-3.065,3.516-3.519,6.355-4.993c2.043-1.023,3.064-3.178,5.447-3.178
		c1.589,0,2.269,1.702,3.631,2.27c2.95,1.247,4.878,2.269,8.17,2.269c4.198,0,4.994-5.334,4.994-9.532
		c0-4.654,0.793-7.149,0.907-11.801c0.112-2.838,0.34-4.994,1.815-7.263c1.362-2.157,3.859-2.157,5.447-4.085
		c3.063-3.631,6.013-6.355,10.894-6.355c2.042,0,2.382,2.156,4.086,3.177c1.814,1.135,3.29,1.362,5.446,1.362
		c1.362,0,2.381-0.796,3.632-0.907c2.042-0.341,3.858,0.339,5.446-0.908c1.701-1.362,2.27-3.177,2.27-5.446
		c0-4.427-1.816-6.924-3.632-10.895c-0.568-1.362-1.815-2.042-1.815-3.631c0-4.427,3.631-7.149,7.716-8.625
		c2.836-1.022,4.425-1.815,7.262-2.723c1.362-0.454,2.382-0.681,3.632-1.362c0.794-0.341,1.815-0.795,1.815-1.815
		c0-1.816-0.908-2.724-0.908-4.539c0-3.632,4.766-4.2,5.447-7.716c0.227-1.249-0.568-2.383,0-3.632
		c0.907-2.042,2.836-2.496,4.993-3.177c4.993-1.588,9.532-0.907,12.709-4.993c1.816-2.383,1.362-4.993,1.362-8.17
		c0-3.973-0.114-6.469-1.815-9.986c-2.497-4.993-8.625-5.9-8.625-11.462c0-1.247,0.228-1.815,0.455-3.063l1.815-0.454
		c3.404,1.135,5.901,1.021,9.078,2.724c2.27,1.246,3.063,2.835,4.993,4.538c1.135-1.134,2.27-1.703,2.724-3.176
		c1.135-3.292-0.454-5.447-0.454-8.966v-9.305c0-2.27,1.361-3.291,2.269-5.332c0.566-1.362,0.681-2.724,1.815-3.632
		c3.744-3.292,7.943-1.93,12.709-3.632c4.651-1.703,8.171-4.993,8.171-9.985c0-2.837-2.497-3.745-4.086-5.901
		c-1.93-2.61-3.177-4.311-5.447-6.808c0.681-0.568,0.567-1.476,1.362-1.815c4.539-2.042,7.83-0.908,12.709-1.815
		c5.786-1.135,8.851-3.177,14.525-4.994c5.333-5.334,12.936-5.9,14.979-13.163c0.339-1.25,0.111-2.724,0.907-3.632
		c0.794-0.907,2.382-0.568,3.631-0.907c2.156-0.568,3.405-1.023,5.447-1.815c3.177-1.362,4.086-4.654,4.086-8.17
		c0-5.335-5.335-7.604-10.44-9.078c-2.043-0.568-3.973-1.135-4.539-3.177c-0.568-2.043,0.68-3.292,0.454-5.447
		c-0.227-2.269-1.815-3.177-1.815-5.447c0-2.837,3.971-1.814,6.808-2.269c3.063-2.724,5.221-4.312,8.171-7.262
		c1.928-1.93,2.382-3.859,4.539-5.447c2.608-1.93,4.766-2.496,7.262-4.539c1.929-1.476,2.95-3.177,4.539-4.993
		c1.815-2.042,3.516-3.065,4.994-5.447c1.588-2.61,2.155-4.311,2.723-7.262c0.34-2.158,0.454-4.993,2.724-4.993
		c2.836,0,4.539-0.342,7.263,0.454c1.474,0.339,2.042,1.815,3.631,1.815c5.447,0,10.894-3.177,10.894-8.625
		c0-3.745-2.27-5.673-4.539-8.624c-1.476-1.93-2.269-3.518-3.631-5.447c5.446-1.815,9.077-1.135,14.524-2.724
		c5.447-1.588,5.106-7.376,6.809-12.709c0.227-0.795,1.361-0.68,1.814-1.362c0.681,0.455,0.455,1.816,1.362,1.816
		c5.333,0,6.809-6.47,6.809-11.802c0-6.242-2.158-9.532-4.086-15.433c2.156-0.454,3.404-0.795,5.447-1.815
		c1.928-0.907,2.382-3.177,4.539-3.177c1.815,0,2.723,1.362,4.539,1.362c1.815,0,2.269-2.27,2.269-4.086
		c0-4.652-4.539-6.128-8.624-8.17c-2.043-1.023-3.973-1.023-5.447-2.724c-0.907-1.023-0.796-2.383-0.907-3.631
		c-0.228-1.93-0.908-3.292-0.908-5.335c0-1.473,0.339-2.269,0.454-3.743l2.269-0.454c0.567,0.227,1.362,0.112,1.816,0.454
		c2.382,2.042,3.631,4.539,6.808,4.539c4.085,0,7.263-3.631,7.263-7.716c0-2.157-1.362-3.292-1.362-5.447
		c0-0.795,0.793-1.022,0.908-1.815c1.361,0.227,2.381,0.567,3.631,0.908c0.794,0.227,0.907,1.362,1.815,1.362
		c0.908,0,1.021-1.135,1.815-1.362c1.928-0.568,3.631-1.589,3.631-3.631c0-2.384-1.703-3.632-3.631-4.994
		c-1.248-0.908-3.177-1.135-3.177-2.723c0-4.654,5.786-5.901,10.44-5.901c2.269,0,3.29,1.589,5.446,2.269
		c0.794,0.227,0.908,1.362,1.816,1.362c3.176,0,5.446-3.177,5.446-6.355c0-4.427-3.631-6.469-3.631-10.894
		c0-1.815,0.227-3.177,1.361-4.539c0.908-1.135,2.609-1.135,3.632-2.269c2.042-2.158,2.381-4.427,3.177-7.263
		c0.681-2.383,1.362-3.745,1.362-6.242c0-2.269-0.454-3.404-0.454-5.674c0-2.608,2.836-3.063,4.993-4.425
		c2.155-1.361,2.951-2.95,4.993-4.539c0.907-0.68,1.474-1.814,2.724-1.814c2.042,0,2.724,1.814,3.631,3.631l1.815-1.362
		c2.156-0.455,4.539-1.023,5.901-2.724c1.247-1.589-0.114-3.292,0-5.447c0.227-3.745,2.497-5.446,3.177-9.078
		c0.112-0.68,0.908-1.022,0.908-1.814c0-3.632-4.2-4.654-7.716-5.447c0.339-4.199,0.68-6.696,0-10.894
		c3.97,0.793,5.786,2.836,9.532,4.086c2.836,0.907,5.332,0.566,7.716,2.269c3.631,2.724,6.467,4.086,11.12,4.086
		c0.112,2.723,0.112,4.312,0.227,7.035c2.836-0.68,4.425-1.022,7.263-0.68c1.361,0.112,2.269,0.907,3.631,0.907
		c3.971,0,5.786-2.837,9.078-4.993c1.247-0.795,2.724-1.022,3.631-2.269c4.726-7.094-2.458,0.907,5.447,0.907
		c2.269,0,2.269-3.631,4.539-3.631c3.063,0,3.631,3.743,3.631,6.808c1.589,0.228,2.724-0.113,4.084,0.455
		c0.794,0.339,0.681,1.362,1.362,1.815c2.156,1.361,3.744,2.723,6.356,2.723c3.404,0,5.105-1.93,8.17-3.176
		c2.155-0.796,4.425-1.135,5.447-3.178c3.176-6.015,2.949-10.553,6.808-16.34c-3.065-0.454-4.88-0.454-7.716-1.362
		c0.794-2.157,1.474-3.518,2.724-5.446c0.68-1.135,1.246-2.724,2.723-2.724c0.794,0,1.021,0.793,1.816,0.907h8.624
		c0.34-2.837,0.567-4.427,0.908-7.262c0.227-2.158-0.455-3.52,0.454-5.447c1.701-3.404,5.446-3.177,8.17-5.901
		c2.497-2.496,4.993-3.631,8.625-3.631c2.155,0,3.743,0.112,5.446,1.362c1.247,0.907,1.816,2.382,3.177,3.177
		c2.609,1.701,5.221,1.362,7.263,3.631c1.474,1.701,1.362,3.517,2.724,5.447c2.496,3.516,5.105,6.355,9.532,6.355
		c4.312,0,7.262-0.455,10.894-2.724c1.474-0.907,1.929-1.93,3.631-2.724c2.609,1.702,4.198,2.27,7.263,2.724
		c2.155,0.227,3.29,1.362,5.56,1.362h5.334c-1.135-4.654-1.362-7.15-1.362-11.802c0-2.61,1.021-4.539,3.177-5.9
		c1.815-1.135,3.518-1.135,5.446-2.27c2.838-1.703,3.746-4.2,4.994-7.262c1.022-2.611,0.795-4.54,1.362-7.263
		c1.022-5.221,2.269-8.285,2.269-13.617c5.789-0.681,9.419-1.134,14.525-3.631c2.157-1.023,3.858-1.93,4.993-4.086
		c1.703-3.177,0.568-5.674,1.815-9.078c0.568-1.703,1.93-2.042,2.723-3.631c1.816-3.404,2.724-6.015,4.994-9.078
		c2.042-2.724,4.766-3.065,6.808-5.901c2.158-3.065,2.724-5.446,4.085-9.078c0.68-2.042,1.476-3.404,2.269-5.446
		c0.568-1.362,0.568-2.838,1.816-3.631c1.022-0.681,2.383,0,3.631-0.455c2.269-0.795,3.631-2.042,5.446-3.631
		c3.632-3.177,4.766-6.242,8.625-9.078c5.674-4.199,8.17-7.49,13.617-12.255c2.837-2.383,4.426-3.972,6.808-6.808
		c1.135-1.362,1.93-2.043,2.724-3.632c0.795-1.588,0.907-3.631,2.724-3.631c4.199,0,6.128,3.177,9.985,4.539
		c4.654,1.701,7.716,1.815,12.709,1.815c3.519,0,5.674,0.34,9.078-0.454c2.157-0.454,3.177-2.27,5.447-2.27
		c3.177,0,3.404,4.086,5.9,5.901c1.249,0.908,2.385,1.474,3.632,2.27c1.93,1.247,3.177,2.723,5.561,2.723h11.12
		c3.632,0,6.013-0.227,9.191-1.815c2.611-1.248,3.404-4.084,6.355-4.084c3.293,0,4.993,1.474,8.171,2.269
		c0.68,0.112,1.022,0.908,1.815,0.908c4.539,0,7.49-2.158,10.44-5.447c1.022-1.135,1.476-2.383,2.723-3.177
		c2.95-1.815,5.674-0.341,9.078-0.908c2.384-0.341,3.292-2.496,4.539-4.538c3.404-5.221,5.334-8.512,6.809-14.525
		c0.907-3.858,1.814-6.355,4.538-9.078c1.931-1.93,4.312-2.269,5.901-4.539c1.815-2.496,2.611-4.538,4.086-7.262
		c0.795-1.589,2.27-2.158,3.177-3.631c1.249-2.043,2.724-3.178,3.631-5.447c0.796-2.042,0.455-4.312,2.27-5.447
		c2.269-1.475,4.539-0.113,7.262-0.454c4.312-0.68,7.15-0.908,11.348-2.27c2.951-0.907,4.312-2.61,7.263-3.631
		c5.106-1.815,8.85-2.042,12.709-5.9c2.157,0.339,4.765,1.02,6.808,1.361c3.404,0.681,5.562,0.227,9.078,0.455
		c5.334,0.339,8.284,1.361,13.616,1.361c5.789,0,8.286-4.538,14.072-4.538c4.311,0,6.581,2.723,10.893,2.723
		c4.2,0,6.697-1.361,10.895-1.361c4.993,0,7.83,1.135,12.709,0c3.858-0.908,5.674-2.724,9.078-4.539
		c6.581-3.52,9.873-6.696,16.34-10.44c3.632-2.042,6.128-3.292,9.532-5.901c2.384-1.815,3.292-4.539,6.354-4.539
		c3.973,0,6.809,0,10.44,1.816c3.177,3.516,6.242,4.311,10.44,6.355c6.128,3.063,8.625,7.035,11.347,13.163
		c1.476,3.29,1.249,5.56,1.815,9.078c0.681,4.312,2.497,6.694,3.632,10.894c0.568,2.042,0.68,3.404,1.362,5.446
		c3.177,9.533,3.858,15.433,5.446,25.419c0.454,2.724,1.023,4.651,1.815,7.262c1.362,4.312,1.476,8.283,5.447,10.44
		c2.496,1.362,4.539,0,7.376,0h10.667c1.589,0,2.27,0.908,3.744,1.362c2.157,0.681,3.404,1.021,5.446,1.815
		c4.2,1.701,6.696,2.724,10.894,4.539c4.654,2.043,7.15,4.312,10.44,8.17c2.611,3.063,6.808,2.27,8.625,5.901
		c1.248,2.497,0.568,4.425,0.907,7.263c0.568,4.993,0.568,7.829,1.362,12.709c1.135,6.921,6.581,11.801,13.617,11.801
		c7.262,0,11.347-1.361,18.61-1.361c4.427,0,5.107,4.766,7.716,8.17c1.476,1.928,2.838,2.836,4.084,4.993
		c3.177,5.56,6.356,8.737,12.255,11.347c2.043,0.908,3.292,1.589,5.447,2.27c1.248,0.339,2.61,0.112,3.631,0.908
		c1.703,1.474,1.135,3.29,1.816,5.446c1.93,6.013,3.517,9.532,7.262,14.525c4.427,6.013,6.696,10.098,10.894,16.34
		c1.93,2.836,3.745,4.198,5.447,7.263c1.815,3.29,2.949,5.446,4.084,9.078c0.341,1.246,0.341,2.496,0.908,3.631
		c2.157,3.858,5.334,4.425,8.624,7.262c5.108,4.425,8.284,7.943,14.525,10.44c2.61,3.516,6.015,3.744,9.532,6.355
		c5.107,3.744,8.738,5.56,14.071,9.078c2.269,1.474,3.177,3.063,5.447,4.539c4.652,3.063,8.056,4.086,13.162,6.355
		c5.673,2.497,8.511,6.468,9.532,12.709c0,4.994-1.247,9.078-1.362,14.071c0,1.135,0.454,1.702,0.454,2.836
		c0,1.023-0.68,1.703-0.454,2.611c0.568,1.701,2.157,1.815,3.632,2.723c1.93,1.135,3.404,2.156,5.446,3.178
		c5.788,3.063,9.873,3.516,16.34,4.993c10.554,2.496,16.909,3.631,26.327,8.624c5.446,2.95,5.561,9.192,11.347,11.348
		c4.766,1.701,7.943,2.042,12.709,3.631c4.2,1.362,7.035,1.701,10.894,3.631c1.362,0.681,2.269,1.59,3.631,2.27
		c2.158,1.135,5.108,1.247,5.447,3.631c0.227,1.702-0.455,2.724-0.455,4.539c0,6.468,2.611,10.326,6.355,15.433
		c2.61,3.516,3.745,6.013,6.808,9.078c2.497,2.497,4.539,3.743,6.354,6.808c1.589,2.609,2.384,4.651,4.086,7.263
		c2.157,3.177,5.219,4.086,9.077,4.086c6.47,0,6.697-9.986,13.164-9.986c1.135,0,1.703,0.681,2.724,0.908
		c4.993,1.362,7.831,2.723,12.709,4.539c5.562,2.042,9.193,2.382,14.525,4.993c2.043,1.021,3.973,1.474,4.994,3.631
		c1.476,3.177,0.68,5.56,0.907,9.078c0.341,4.993,3.177,7.602,3.177,12.595v9.305c0,3.178-1.362,4.881-1.362,8.058
		c0,2.837,2.611,3.859,4.539,5.901c0.455,0.567,0.341,1.362,0.908,1.815c2.383,1.815,4.766,1.702,7.263,3.632
		c1.248,0.907,2.496,1.701,3.176,3.177c0.569,1.134,0,2.381,0.455,3.631c1.135,3.177,3.177,4.425,5.447,6.808
		c3.972,4.199,6.468,6.809,9.531,11.802c0.681,1.247,1.816,2.155,2.27,3.631c1.476,4.653,0.454,7.943,1.815,12.71
		c1.362,4.878,1.362,8.17,3.631,12.709c1.815,3.744,4.654,4.878,6.356,8.624c1.134,2.609,1.134,4.539,2.269,7.263
		c2.497,6.24,5.334,9.644,10.44,14.071c3.177,2.724,5.446,4.425,7.262,8.171c0.796,1.701,1.816,2.608,1.816,4.538
		c0,3.178-0.682,5.333-1.816,8.171c-1.815,3.631-3.176,5.9-3.176,9.985c0,2.609,1.248,4.312,2.723,6.355
		c0.341,0.567,0.341,1.362,0.908,1.815c2.269,1.816,4.766,1.474,7.262,3.177c1.93,1.247,2.611,2.95,3.632,4.994
		c1.703,3.29,3.631,5.219,3.631,9.078c0,2.269-1.701,3.403-3.177,4.993c-1.589,1.815-2.27,3.631-4.085,5.446
		c-0.566,0.567-1.474,0.339-1.816,0.908c-2.042,2.836-1.701,5.446-1.815,9.077c-0.112,4.994,0.454,7.83-0.454,12.71
		c-0.794,3.97-4.086,4.993-5.901,8.624c-2.042,3.518-3.971,5.333-5.447,9.078c-2.381,5.786-3.176,9.759-7.262,14.525
		c-3.178,3.631-6.24,4.311-10.894,5.446c-4.198,1.021-6.695,1.589-10.894,2.27c-4.994,0.793-7.943,1.473-12.71,3.176
		c-3.631,1.362-5.446,3.178-9.078,4.539c-2.041,0.681-3.743,0.34-5.446,1.816c-2.381,2.042-2.269,4.425-3.631,7.262
		c-1.815,3.744-3.517,5.787-5.901,9.078c-4.651,2.269-9.305,2.609-14.071,4.539c-1.362,0.567-2.724,0.567-3.632,1.815
		c-1.588,2.27-0.227,4.425-0.454,7.263c-0.227,2.836-0.907,4.425-0.907,7.263c0,2.951,1.589,4.424,2.269,7.262
		c0.908,3.744,1.362,6.128,1.362,9.986c0,8.17-4.539,12.254-4.539,20.425c0,2.836,1.703,4.651,4.086,5.901
		c2.724,1.474,4.653,1.815,7.262,3.631c4.086,2.836,6.242,5.787,8.171,10.44c-8.625,3.516-14.184,4.993-23.604,4.993
		c1.816,5.447,2.724,8.737,2.724,14.524c0,4.198-0.454,6.695-0.907,10.894c-0.34,2.836-0.34,4.994-1.816,7.263
		c-0.227,0.454-1.246,0.112-1.815,0.454c-7.035-0.114-11.006-0.454-18.041-0.454c-3.065,0-4.653,1.021-7.377,2.269
		c-2.042,0.908-3.631,1.135-5.447,2.27c-0.68,0.339-0.68,1.362-1.362,1.815c-4.538,3.063-7.943,3.744-12.709,6.354
		c-4.423,2.382-5.219,6.922-9.985,8.625c-3.404,1.246-5.56,0-9.191,0h-8.966c0,3.516-1.815,5.332-2.723,8.624
		c-0.908,3.29-1.362,5.447-1.362,8.964v9.759c0,1.589-1.589,2.043-2.724,3.065c-1.928,1.702-3.404,2.724-4.993,4.539
		c-2.497,2.724-3.971,4.425-6.354,7.263c-3.971,4.651-5.901,8.397-5.901,14.524c0,3.177,2.61,4.312,3.631,7.263
		c0.796,2.27,1.362,3.858,1.362,6.355c0,5.22-4.539,7.49-4.539,12.709c0,4.993,1.362,7.716,1.362,12.709
		c0,7.83-2.155,12.141-4.539,19.518c-1.362,4.312-1.474,7.036-2.724,11.347c-1.928,6.356-5.446,9.645-5.446,16.341
		c0,2.042,2.269,2.496,4.084,3.177c1.362,0.566,2.27,1.135,3.632,1.815c3.972,2.155,5.788,4.766,8.17,8.625
		c2.384,3.858,2.611,7.035,4.085,11.347c1.022,2.95,2.723,4.425,4.084,7.262c2.27,7.036,5.447,10.78,5.447,18.156
		c0,3.859-2.27,5.786-4.085,9.078c-1.589,2.836-2.155,5.22-4.993,6.808c-2.382,1.362-4.425,0.228-7.263,0.455
		c-3.516,0.227-5.559,1.247-9.078,1.362c-4.538,0.112-8.624,1.247-10.439,5.446c-3.291,7.602-2.836,14.299-9.532,19.063
		c-3.859-3.858-8.283-3.745-11.802-7.716c-2.381,2.156-4.312,2.952-6.808,4.993c-0.567,0.455-0.455,1.248-0.908,1.816
		c-3.177,3.631-5.105,6.24-7.716,10.44c-1.815,2.949-4.198,3.743-6.354,6.354c-4.766,5.673-9.985,6.581-17.248,8.624
		c-3.063,0.794-4.766,1.701-7.716,2.724c-4.312,1.589-6.922,2.836-10.894,4.993c-3.177,1.702-4.198,4.312-7.263,6.354
		c-2.836,1.929-4.651,3.177-7.262,5.447c-2.724,2.381-4.879,3.063-8.171,4.539c-7.262,3.404-12.029,4.651-18.155,9.985
		c-5.447,4.766-9.192,6.581-14.979,10.894c-4.766,3.517-6.922,7.49-12.71,8.624c-4.878,0.908-8.624-0.454-12.708,2.27
		c-1.929,1.247-2.497,2.95-3.632,4.993c-1.815,3.063-3.858,4.425-6.808,6.355c-2.042,1.362-3.177,2.608-5.447,3.631
		c-3.404,1.474-5.9,0.793-9.532,1.362c-4.198,0.566-6.694,1.815-10.894,2.724c-5.333,1.246-8.85,1.134-13.617,3.631
		c-2.95,1.474-4.425,3.29-7.262,4.993c-2.043,1.247-3.063,3.177-5.447,3.177c-5.786,0-8.737-2.724-14.525-2.724
		c-9.644,0-14.525,4.879-22.695,9.985c-3.97,2.382-6.467,3.972-10.894,5.447c-2.609,0.794-4.539,1.135-7.263,1.816
		c-9.417,2.269-14.864,2.723-24.51,2.723c-4.652,0-8.171-1.135-12.709-2.269c-4.651,1.928-7.603,3.631-12.709,3.631
		c-5.22,0-8.283-1.815-12.71-4.539c-1.474-0.907-1.928-2.269-3.631-2.724c-1.474-0.341-2.724-0.227-4.085-0.907
		c-2.95-1.589-4.084-3.973-7.262-4.993c-4.993-1.589-8.283-1.816-13.617-1.816c-1.815,0-2.95-0.341-4.539,0.455
		c-2.27,1.135-2.724,3.176-4.539,4.993c-4.198,4.197-7.829,5.674-11.347,10.44c-2.27,3.063-4.312,5.9-8.171,5.9
		c-4.425,0-7.035,0.34-11.347-0.454c-1.362-0.227-2.155-1.362-3.631-1.362c-2.382,0-2.836,2.382-4.539,4.085
		c-2.836,2.836-5.447,4.539-9.532,4.539c-3.632,0-5.674-0.681-9.078-1.815c-5.221-1.703-8.398-2.724-13.164-5.447
		c-3.29-1.815-5.56-2.269-9.077-3.631c-3.859-1.589-5.788-4.539-9.986-4.539c-2.156,0-3.063,1.701-4.539,3.177
		c-2.496,2.497-4.084,3.858-6.354,6.354c-2.381,2.609-4.085,3.97-6.355,6.808c-0.454,0.567-0.454,1.247-0.908,1.815
		c-6.127,6.695-9.078,11.348-13.163,19.518c-5.221,10.44-7.036,17.021-12.709,27.233c-1.247,2.382-3.177,3.517-4.539,5.902
		c-1.702,2.949-2.724,5.105-4.994,7.716c-3.858,4.424-7.262,7.035-13.163,7.715c-1.589,0.112-2.497-0.114-4.086,0
		c-2.155,0.228-3.404,1.021-5.446,1.362c-7.375,1.135-11.801,1.247-19.065,2.724c-13.389,2.724-22.921,8.737-28.141,21.334
		c-0.908,2.381-2.724,3.743-2.724,6.354c0,1.135,1.134,1.362,1.815,2.27c1.022,1.361,1.93,2.381,3.177,3.631
		c3.858,3.858,6.581,5.9,10.894,9.077c3.518,2.609,5.107,4.651,7.716,8.171c2.042,2.724,4.993,3.743,4.993,7.148v9.305
		c0,1.589,1.476,2.269,2.269,3.518c2.951,4.311,6.809,6.467,6.809,11.801c0,3.405-2.042,4.994-3.177,8.17
		c-2.724,7.375-5.105,11.575-9.532,18.156c-2.951,4.425-6.013,6.128-10.44,9.078c-4.651,3.177-7.49,4.651-12.709,6.808
		c-5.219,2.156-8.17,3.29-13.163,5.901c-5.221,2.724-9.192,3.632-13.164,8.17c-4.084,4.767-7.375,6.922-11.801,11.348
		c-1.816,1.815-3.064,2.949-4.994,4.539c-1.589,1.361-3.631,1.928-3.631,4.084c0,2.156,1.815,2.95,3.177,4.539
		c2.837,3.291,5.107,4.994,9.078,6.808c4.88,2.27,7.035,5.447,11.347,8.625c-2.609,4.539-6.128,5.901-8.624,10.44
		c-3.291,6.013-6.128,9.532-7.263,16.34c-1.135,7.036-1.929,11.006-2.724,18.156c-0.339,2.836,0.341,4.425,0,7.263
		c-0.68,5.673-3.29,8.737-7.263,12.709c-2.496,2.497-4.878,3.063-7.262,5.447c-2.382,2.381-3.859,4.084-5.901,6.808
		c-1.589,2.155-3.518,2.836-4.993,4.993c-1.816,2.497-2.609,4.539-4.086,7.263c-2.382,4.425-3.631,7.489-3.631,12.595v9.305
		c0,7.377,4.993,11.008,4.993,18.383v9.307c0,1.474-1.362,2.042-2.269,3.063c-0.567-0.34-1.475,0-1.816-0.455
		c-0.339-0.454-0.112-1.362-0.454-1.815c-2.497-3.29-4.993-4.766-6.355-8.624c-1.247-3.519-2.156-7.716-5.901-7.716
		c-7.943,0-12.141,3.631-19.517,6.354c-5.333,1.93-8.851,0.907-14.525,1.816c-4.199,0-7.604-1.476-11.802-1.816
		c-0.68,0-1.134,0.454-1.815,0.454c-4.993-0.114-7.831-0.908-12.709-1.815c-4.199-0.796-6.808-0.68-10.894-1.815
		c-6.014-1.703-9.532-3.065-15.886-4.086l-9.986,1.362c-3.858-0.908-6.696-1.93-9.077-4.993c-1.362-1.815-1.815-3.632-3.177-5.447
		c-2.95-3.858-5.108-6.242-7.716-10.439c-3.178-5.108-5.674-7.604-8.625-12.71c-0.795-1.362-0.907-2.949-2.269-3.631
		c-2.384-1.248-4.427,0.566-7.263,0.454c-1.815-0.114-2.724-1.362-4.539-1.362c-7.035,0-9.305,7.716-16.34,7.716l-19.065-2.723
		H570.62c-5.56,0-8.624-1.816-14.183-1.816c-6.354,0-10.213,1.135-16.341-0.454c-6.581-1.703-7.149-8.17-9.532-14.525
		c-2.383-6.354-3.745-10.554-8.624-15.433c-3.293-3.292-6.015-4.2-9.078-7.716c-3.177-3.631-4.993-5.446-8.171-9.078
		c-4.879-5.674-4.538-11.347-9.531-16.795c-4.767-5.219-9.647-5.673-15.887-9.078c-6.581-3.631-9.759-7.262-16.34-10.893
		c-3.632-2.043-5.789-3.293-8.625-6.356c-2.269-2.496-4.086-4.652-4.086-8.17c0-2.837,1.362-4.427,1.362-7.263
		c0-4.652-4.654-5.673-7.262-9.532c-1.135-1.816-0.795-3.404-1.815-5.446c-2.158-4.312-8.283-26.326-12.709-28.142
		c-3.405,0-5.036-3.387-6.356-6.355c-0.496-1.117,0.489-2.511,0-3.631c-2.687-6.142-6.363-9.511-12.709-11.802
		c-9.993-3.608-16.558-4.555-25.418-9.985c-5.209-3.192-10.696-2.475-14.525-7.263c-2.523-3.155-1.788-6.816-2.723-10.892
		c-2.241-9.766,0.531-17.379-5.447-25.419c-2.629-3.536-6.844,3.076-10.894,4.539c-12.292,4.438-19.723,7.174-32.681,9.078
		c-2.479,0.364-4.539,1.816-7.263,1.816c-1.815,0-1.413-2.858-2.724-3.632c-2.822-1.667-5.193-2.974-8.074-3.854"/>
</g>
</svg>
