<?xml version="1.0" encoding="UTF-8" standalone="no"?>
<!-- Created with Sodipodi ("http://www.sodipodi.com/") -->
<svg xmlns:inkscape="http://www.inkscape.org/namespaces/inkscape" xmlns:rdf="http://www.w3.org/1999/02/22-rdf-syntax-ns#" xmlns="http://www.w3.org/2000/svg" xmlns:cc="http://creativecommons.org/ns#" xmlns:dc="http://purl.org/dc/elements/1.1/" xmlns:sodipodi="http://sodipodi.sourceforge.net/DTD/sodipodi-0.dtd" xmlns:svg="http://www.w3.org/2000/svg" xmlns:ns1="http://sozi.baierouge.fr" id="svg548" inkscape:version="0.48.3.1 r9886" viewBox="0 0 744.1 496.06" sodipodi:version="0.32" version="1.1" sodipodi:docname="_svgclean2.svg" xmlns:xlink="http://www.w3.org/1999/xlink">
  <sodipodi:namedview id="base" inkscape:window-x="0" inkscape:window-y="0" inkscape:window-height="645" inkscape:window-maximized="0" inkscape:zoom="0.22425739" showgrid="false" inkscape:current-layer="svg548" inkscape:cx="372.04724" inkscape:cy="-30.117145" inkscape:window-width="674"/>
  <g id="g555" transform="scale(6.2008)">
    <rect id="rect551" style="fill-rule:evenodd;stroke-width:1pt;fill:#00319c" height="80" width="40" y="0" x="0"/>
    <rect id="rect552" style="fill-rule:evenodd;stroke-width:1pt;fill:#ffde00" height="80" width="40" y="0" x="40"/>
    <rect id="rect553" style="fill-rule:evenodd;stroke-width:1pt;fill:#de2110" height="80" width="40" y="0" x="80"/>
  </g>
  <g id="g943" transform="matrix(.54264 0 0 .51852 135.2 -54.2)">
    <path id="path905" style="fill-rule:evenodd;stroke:#000000;stroke-width:1pt;fill:#ff1900" d="m173.62 690.94v63.78c0 3.55 0 7.09-3.54 7.09s-7.09 7.09-7.09 10.63c0 7.09 3.55 10.63 7.09 10.63h31.89c3.54 0 7.09-3.54 7.09-10.63-0.23-3.72-3.55-10.63-7.09-10.63-3.55 0-3.55-3.54-3.55-7.09v-63.78" sodipodi:nodetypes="cccccccccc" inkscape:connector-curvature="0" transform="matrix(.83373 -.55218 .55218 .83373 -26.753 225.15)"/>
    <path id="path907" sodipodi:rx="21.259842" sodipodi:ry="44.291351" style="fill-rule:evenodd;stroke:#000000;stroke-width:3.125;fill:#a77b3b" sodipodi:type="arc" d="m177.17 696.26c0 24.461-9.5184 44.291-21.26 44.291-11.741 0-21.26-19.83-21.26-44.291s9.5184-44.291 21.26-44.291c11.741 0 21.26 19.83 21.26 44.291z" transform="matrix(.76523 -.64375 .64375 .76523 -70.525 249)" sodipodi:cy="696.25977" sodipodi:cx="155.90552"/>
    <path id="path898" style="fill-rule:evenodd;stroke:#000000;stroke-width:1pt;fill:#ff1900" d="m173.62 690.94v63.78c0 3.55 0 7.09-3.54 7.09s-7.09 7.09-7.09 10.63c0 7.09 3.55 10.63 7.09 10.63h31.89c3.54 0 7.09-3.54 7.09-10.63-0.23-3.72-3.55-10.63-7.09-10.63-3.55 0-3.55-3.54-3.55-7.09v-63.78" sodipodi:nodetypes="cccccccccc" inkscape:connector-curvature="0" transform="matrix(.87313 .48748 -.48748 .87313 541.92 -4.2137)"/>
    <path id="path895" style="fill-rule:evenodd;stroke:#000000;stroke-width:3.125;fill:#a77b3b" d="m421.65 701.58h-28.34c-0.94 0.93-9 54.06-17.72 74.4-10.63 24.81-42.46 46.69-42.46 46.69s19.07 6.05 24.74 10.01c1.41-0.42 31.84-7.09 35.38-46.07 3.55 38.98-21.2 56.7-21.2 56.7s35.43 10.63 35.43 35.43c0-24.8 35.43-35.43 35.43-35.43s-17.77-17.72-21.31-56.7c7.08 38.98 34.08 45.65 35.49 46.07 5.67-3.96 24.75-10.01 24.75-10.01s-31.84-21.88-42.47-46.69c-8.72-20.34-16.78-73.47-17.72-74.4z" sodipodi:nodetypes="ccccccccccccccc" inkscape:connector-curvature="0" transform="translate(35.488,-56.693)"/>
    <path id="path728" style="fill-rule:evenodd;stroke:#000000;stroke-width:3.125;fill:#a77b3b" d="m336.61 467.7 53.15 17.71c17.72 0 35.44-17.69 35.44-35.41 0.59-39.41-14.18-53.17-17.72-53.17l7.09-7.09-10.63-10.62s3.55-18.39 38.97-17.7c35.42 0.68 35.44 17.71 35.44 35.43s-17.72 17.72-17.72 53.15c0 17.72 17.72 35.43 35.43 35.43l53.15-17.71v177.16h-212.6v-177.18z" sodipodi:nodetypes="cccccccccccccc" inkscape:connector-curvature="0" transform="translate(1.9073e-4,-1.8311e-4)"/>
    <g id="g853" transform="translate(-3.8147e-5,-1.8311e-4)">
      <path id="path732" style="stroke:#000000;stroke-width:.60302;fill:none" d="m302.16 292.24 14.64 14.96 14.64-14.96 14.65 14.96 29.29-14.96 14.26 15.81 15.03-15.81 21.6 15.81 22.33-15.81 14.65 14.96 14.64-14.96" sodipodi:nodetypes="ccccccccccc" inkscape:connector-curvature="0" transform="matrix(.24195 0 0 .71037 345 267.2)"/>
      <path id="path827" inkscape:connector-curvature="0" style="stroke:#000000;stroke-width:.25;fill:none" transform="translate(-1.5259e-4,1.2207e-4)" d="m432.28 435.83-7.08 38.97"/>
      <path id="path828" inkscape:connector-curvature="0" style="stroke:#000000;stroke-width:.25;fill:none" transform="translate(-2.2888e-4,1.2207e-4)" d="m435.83 435.83v38.97"/>
      <path id="path829" style="stroke:#000000;stroke-width:.25;fill:none" inkscape:connector-curvature="0" d="m442.91 435.83v38.97"/>
      <path id="path830" inkscape:connector-curvature="0" style="stroke:#000000;stroke-width:.25;fill:none" transform="translate(0,1.2207e-4)" d="m450 435.83 3.54 38.97"/>
      <path id="path831" style="stroke:#000000;stroke-width:.25;fill:none" inkscape:connector-curvature="0" d="m457.09 435.83 3.54 38.97"/>
    </g>
    <g id="g712" style="stroke:#000000;stroke-width:3.125">
      <path id="path691" style="fill-rule:evenodd;stroke:#000000;stroke-width:3.125;fill:#a77b3b" d="m318.9 361.42c35.43 17.71 35.43 53.15 35.43 70.86-1.25 16.12 0 354.33 0 354.33s-2.31-20.02-17.72-35.43l-17.71-17.72-17.72-17.71c-12.95-11.78-17.72-35.43-17.72-53.15v-248.03s0-17.72 35.44-53.15z" sodipodi:nodetypes="cccsccccc" inkscape:connector-curvature="0" transform="matrix(-1,0,0,1,620.08,2.7466e-4)"/>
      <path id="path692" style="stroke:#000000;stroke-width:3.125;fill:none" d="m283.46 574.02c0.42 0 17.72-17.72 17.72-17.72l17.72 17.72s17.71-17.72 17.71-17.72l17.72 17.72" sodipodi:nodetypes="ccccc" inkscape:connector-curvature="0" transform="matrix(-1,0,0,1,620.08,-141.73)"/>
      <path id="path693" style="stroke:#000000;stroke-width:3.125;fill:none" d="m283.46 574.02c0.42 0 17.72-17.72 17.72-17.72l17.72 17.72s17.71-17.72 17.71-17.72l17.72 17.72" sodipodi:nodetypes="ccccc" inkscape:connector-curvature="0" transform="matrix(-1,0,0,-1,620.08,1024)"/>
      <path id="path694" style="stroke:#000000;stroke-width:3.125;fill:none" d="m283.46 574.02c0.42 0 17.72-17.72 17.72-17.72l17.72 17.72s17.71-17.72 17.71-17.72l17.72 17.72" sodipodi:nodetypes="ccccc" inkscape:connector-curvature="0" transform="matrix(-1,0,0,1,620.08,-70.866)"/>
      <path id="path695" style="stroke:#000000;stroke-width:3.125;fill:none" d="m301.39 556.99-0.21 158.76" sodipodi:nodetypes="cc" inkscape:connector-curvature="0" transform="matrix(-1,0,0,1.8971,620.08,-642.07)"/>
      <path id="path696" style="stroke:#000000;stroke-width:3.125;fill:none" d="m301.39 539.27-0.21 176.48" sodipodi:nodetypes="cc" inkscape:connector-curvature="0" transform="matrix(-1,0,0,1.7027,602.57,-485.94)"/>
      <path id="path697" style="stroke:#000000;stroke-width:3.125;fill:none" d="m301.39 539.27-0.21 176.48" sodipodi:nodetypes="cc" inkscape:connector-curvature="0" transform="matrix(-1,0,0,1.9074,584.85,-614.03)"/>
    </g>
    <g id="g720" style="stroke:#000000;stroke-width:3.125">
      <path id="path675" style="fill-rule:evenodd;stroke:#000000;stroke-width:3.125;fill:#a77b3b" d="m318.9 361.42c35.43 17.71 35.43 53.15 35.43 70.86-1.25 16.12 0 354.33 0 354.33s-2.31-20.02-17.72-35.43l-17.71-17.72-17.72-17.71c-12.95-11.78-17.72-35.43-17.72-53.15v-248.03s0-17.72 35.44-53.15z" sodipodi:nodetypes="cccsccccc" inkscape:connector-curvature="0" transform="translate(265.75,2.7466e-4)"/>
      <path id="path676" style="stroke:#000000;stroke-width:3.125;fill:none" d="m283.46 574.02c0.42 0 17.72-17.72 17.72-17.72l17.72 17.72s17.71-17.72 17.71-17.72l17.72 17.72" sodipodi:nodetypes="ccccc" inkscape:connector-curvature="0" transform="translate(265.75,-141.73)"/>
      <path id="path677" style="stroke:#000000;stroke-width:3.125;fill:none" d="m283.46 574.02c0.42 0 17.72-17.72 17.72-17.72l17.72 17.72s17.71-17.72 17.71-17.72l17.72 17.72" sodipodi:nodetypes="ccccc" inkscape:connector-curvature="0" transform="matrix(1,0,0,-1,265.75,1024)"/>
      <path id="path678" style="stroke:#000000;stroke-width:3.125;fill:none" d="m283.46 574.02c0.42 0 17.72-17.72 17.72-17.72l17.72 17.72s17.71-17.72 17.71-17.72l17.72 17.72" sodipodi:nodetypes="ccccc" inkscape:connector-curvature="0" transform="translate(265.75,-70.866)"/>
      <path id="path679" style="stroke:#000000;stroke-width:3.125;fill:none" d="m301.39 556.99-0.21 158.76" sodipodi:nodetypes="cc" inkscape:connector-curvature="0" transform="matrix(1,0,0,1.8971,265.75,-642.07)"/>
      <path id="path680" style="stroke:#000000;stroke-width:3.125;fill:none" d="m301.39 539.27-0.21 176.48" sodipodi:nodetypes="cc" inkscape:connector-curvature="0" transform="matrix(1,0,0,1.7027,283.26,-485.94)"/>
      <path id="path681" style="stroke:#000000;stroke-width:3.125;fill:none" d="m301.39 539.27-0.21 176.48" sodipodi:nodetypes="cc" inkscape:connector-curvature="0" transform="matrix(1,0,0,1.9074,300.97,-614.03)"/>
    </g>
    <path id="path903" sodipodi:rx="21.259842" sodipodi:ry="44.291351" style="fill-rule:evenodd;stroke:#000000;stroke-width:3.125;fill:#a77b3b" sodipodi:type="arc" d="m177.17 696.26c0 24.461-9.5184 44.291-21.26 44.291-11.741 0-21.26-19.83-21.26-44.291s9.5184-44.291 21.26-44.291c11.741 0 21.26 19.83 21.26 44.291z" transform="matrix(.92308 .38461 -.38461 .92308 500.64 -32.163)" sodipodi:cy="696.25977" sodipodi:cx="155.90552"/>
    <g id="g860">
      <rect id="rect741" style="fill-rule:evenodd;stroke-width:1pt;fill:#ff0000" transform="translate(1.5259e-4,-1.8311e-4)" height="106.3" width="212.6" y="485.43" x="336.61"/>
      <path id="path742" style="fill-rule:evenodd;stroke-width:2.5;fill:#564dff" d="m336.61 591.73h212.6v53.15c0 35.44-53.15 35.44-106.3 70.87-53.15-35.43-106.3-35.43-106.3-70.87v-53.15z" sodipodi:nodetypes="cccccc" inkscape:connector-curvature="0" transform="translate(8.6148e-4,7.019e-4)"/>
      <path id="path740" style="stroke:#ffff00;stroke-width:2.5;fill:none" d="m336.61 485.43h212.6v159.45c0 35.44-53.15 35.44-106.3 70.87-53.15-35.43-106.3-35.43-106.3-70.87v-159.45z" sodipodi:nodetypes="cccccc" inkscape:connector-curvature="0" transform="translate(.0015814 .00032043)"/>
      <path id="path744" style="fill-rule:evenodd;stroke:#000000;stroke-width:3.0112;fill:#ffff00" d="m385.59 129.9s-50.62 55.45-50.62 108.6 53.15 70.86 53.15 70.86-17.72 0-17.72 70.87c0 35.43 53.15 17.72 53.15 35.43 0 17.72-0.75 60.58 0 88.58 0 17.72-35.43 0-35.43 17.72 0 8.86 26.58 53.15 53.15 53.15s53.15-44.29 53.15-53.15c0-17.72-35.43 0-35.43-17.72v-88.58c0-17.71 53.15 0 53.15-35.43 0-70.87-17.72-70.87-17.72-70.87s53.15-17.71 53.15-70.86-50.62-108.6-50.62-108.6 28.47 73.16 28.47 108.6c0 17.71-13.28 53.15-48.72 53.15 0 0-8.96-17.72-17.71 0 0 0-10.19-17.72-17.72 0-2.6 6.11-7.21-17.72-17.72 0-4.46 4.69-7.98-17.72-17.71 0-17.72 0-53.15-17.72-53.15-53.15 0-35.44 32.9-108.6 32.9-108.6z" sodipodi:nodetypes="cccccccscccccccccsssccc" inkscape:connector-curvature="0" transform="matrix(.7 0 0 .46956 134.02 431.52)"/>
      <path id="path746" style="fill-rule:evenodd;stroke:#000000;stroke-width:3.0112;fill:#ffff00" d="m382.68 248.03c-3.55 3.55 4.58 61.28 7.08 63.78 3.55 3.54 24.81 3.54 28.35 0 2.53-2.52 0-56.69-3.54-60.23-3.55-3.55-29.39-6.05-31.89-3.55z" sodipodi:nodetypes="cssss" inkscape:connector-curvature="0" transform="matrix(.7 0 0 .46956 136.69 524.92)"/>
      <path id="path747" style="fill-rule:evenodd;stroke:#000000;stroke-width:3.0112;fill:#ffff00" d="m382.68 248.03c-3.55 3.55 4.58 61.28 7.08 63.78 3.55 3.54 24.81 3.54 28.35 0 2.53-2.52 0-56.69-3.54-60.23-3.55-3.55-29.39-6.05-31.89-3.55z" sodipodi:nodetypes="cssss" inkscape:connector-curvature="0" transform="matrix(-.7 0 0 .46956 749.14 524.92)"/>
      <path id="path748" sodipodi:rx="15.944885" sodipodi:ry="15.944901" style="fill-rule:evenodd;stroke:#000000;stroke-width:3.0112;fill:#ffff00" sodipodi:type="arc" d="m414.57 228.54c0 8.8061-7.1388 15.945-15.945 15.945-8.8061 0-15.945-7.1388-15.945-15.945 0-8.8061 7.1388-15.945 15.945-15.945 8.8061 0 15.945 7.1388 15.945 15.945z" transform="matrix(.80459 0 0 .58536 96.528 497.79)" sodipodi:cy="228.54329" sodipodi:cx="398.62204"/>
      <path id="path749" sodipodi:rx="15.944885" sodipodi:ry="15.944901" style="fill-rule:evenodd;stroke:#000000;stroke-width:3.0112;fill:#ffff00" sodipodi:type="arc" d="m414.57 228.54c0 8.8061-7.1388 15.945-15.945 15.945-8.8061 0-15.945-7.1388-15.945-15.945 0-8.8061 7.1388-15.945 15.945-15.945 8.8061 0 15.945 7.1388 15.945 15.945z" transform="matrix(.8046 0 0 .58537 147.84 497.79)" sodipodi:cy="228.54329" sodipodi:cx="398.62204"/>
      <path id="path750" sodipodi:rx="15.944885" sodipodi:ry="15.944901" style="stroke-width:1pt;fill-rule:evenodd" sodipodi:type="arc" d="m414.57 228.54c0 8.8061-7.1388 15.945-15.945 15.945-8.8061 0-15.945-7.1388-15.945-15.945 0-8.8061 7.1388-15.945 15.945-15.945 8.8061 0 15.945 7.1388 15.945 15.945z" transform="matrix(.38889 0 0 .26087 304.02 626.15)" sodipodi:cy="228.54329" sodipodi:cx="398.62204"/>
      <path id="path751" sodipodi:rx="15.944885" sodipodi:ry="15.944901" style="stroke-width:1pt;fill-rule:evenodd" sodipodi:type="arc" d="m414.57 228.54c0 8.8061-7.1388 15.945-15.945 15.945-8.8061 0-15.945-7.1388-15.945-15.945 0-8.8061 7.1388-15.945 15.945-15.945 8.8061 0 15.945 7.1388 15.945 15.945z" transform="matrix(.38889 0 0 .26087 271.77 626.15)" sodipodi:cy="228.54329" sodipodi:cx="398.62204"/>
      <polygon id="polygon785" style="fill-rule:evenodd;stroke:#000000;stroke-width:1pt;fill:#ffff00" sodipodi:type="star" sodipodi:sides="8" sodipodi:r1="29.055115" sodipodi:r2="20.338581" sodipodi:arg1="1.5707964" sodipodi:arg2="1.9634954" transform="matrix(.97561 0 0 .97561 14.26 16.248)" inkscape:randomized="0" d="m 439.37008,549.92126 -7.78323,-10.26471 -12.76183,1.75467 1.75467,-12.76183 -10.26472,-7.78324 10.26472,-7.78324 -1.75467,-12.76183 12.76183,1.75467 7.78324,-10.26471 7.78323,10.26471 12.76184,-1.75467 -1.75467,12.76183 10.26471,7.78324 -10.26471,7.78324 1.75466,12.76183 -12.76183,-1.75467 z" sodipodi:cy="520.86615" sodipodi:cx="439.37009" inkscape:rounded="0" inkscape:flatsided="false" points="439.37 549.92 431.59 539.66 418.82 541.41 420.58 528.65 410.32 520.87 420.58 513.08 418.82 500.32 431.59 502.08 439.37 491.81 447.15 502.08 459.92 500.32 458.16 513.08 468.42 520.87 458.16 528.65 459.92 541.41 447.15 539.66"/>
      <path id="path786" style="fill-rule:evenodd;stroke:#000000;stroke-width:1pt;fill:#ffff00" d="m496.06 591.73 21.26 10.63 21.26-10.63-21.26-10.63-21.26 10.63z" sodipodi:nodetypes="ccccc" inkscape:connector-curvature="0" transform="translate(1.5259e-4,-1.8311e-4)"/>
      <path id="path788" style="fill-rule:evenodd;stroke:#000000;stroke-width:1pt;fill:#ffff00" d="m496.06 591.73 21.26 10.63 21.26-10.63-21.26-10.63-21.26 10.63z" sodipodi:nodetypes="ccccc" inkscape:connector-curvature="0" transform="translate(-152.36,1.6785e-4)"/>
      <path id="path790" style="fill-rule:evenodd;stroke:#000000;stroke-width:1pt;fill:#ffff00" d="m535.04 659.06c-3.54-7.09-14.17-10.64-21.26-10.64s-14.17 0-21.26 10.64c0-14.18 10.5-21.26 21.26-21.26s21.26 10.5 21.26 21.26z" sodipodi:nodetypes="ccccc" inkscape:connector-curvature="0" transform="matrix(.86717 -.49801 .49801 .86717 -263.15 350.11)"/>
      <path id="path792" sodipodi:rx="7.0866089" sodipodi:ry="7.0866389" style="fill-rule:evenodd;stroke:#000000;stroke-width:1pt;fill:#ffff00" sodipodi:type="arc" d="m386.22 651.97c0 3.9138-3.1728 7.0866-7.0866 7.0866s-7.0866-3.1728-7.0866-7.0866 3.1728-7.0866 7.0866-7.0866 7.0866 3.1728 7.0866 7.0866z" transform="translate(-3.5432,-17.717)" sodipodi:cy="651.96851" sodipodi:cx="379.13385"/>
      <path id="path793" sodipodi:rx="7.0866089" sodipodi:ry="7.0866389" style="fill-rule:evenodd;stroke:#000000;stroke-width:1pt;fill:#ffff00" sodipodi:type="arc" d="m386.22 651.97c0 3.9138-3.1728 7.0866-7.0866 7.0866s-7.0866-3.1728-7.0866-7.0866 3.1728-7.0866 7.0866-7.0866 7.0866 3.1728 7.0866 7.0866z" transform="translate(-10.63,7.0864)" sodipodi:cy="651.96851" sodipodi:cx="379.13385"/>
      <path id="path795" sodipodi:rx="7.0866089" sodipodi:ry="7.0866389" style="fill-rule:evenodd;stroke:#000000;stroke-width:1pt;fill:#ffff00" sodipodi:type="arc" d="m386.22 651.97c0 3.9138-3.1728 7.0866-7.0866 7.0866s-7.0866-3.1728-7.0866-7.0866 3.1728-7.0866 7.0866-7.0866 7.0866 3.1728 7.0866 7.0866z" transform="translate(-14.173,-7.0869)" sodipodi:cy="651.96851" sodipodi:cx="379.13385"/>
      <path id="path796" sodipodi:rx="7.0866089" sodipodi:ry="7.0866389" style="fill-rule:evenodd;stroke:#000000;stroke-width:1pt;fill:#ffff00" sodipodi:type="arc" d="m386.22 651.97c0 3.9138-3.1728 7.0866-7.0866 7.0866s-7.0866-3.1728-7.0866-7.0866 3.1728-7.0866 7.0866-7.0866 7.0866 3.1728 7.0866 7.0866z" transform="translate(3.5435,7.0864)" sodipodi:cy="651.96851" sodipodi:cx="379.13385"/>
      <path id="path797" sodipodi:rx="7.0866089" sodipodi:ry="7.0866389" style="fill-rule:evenodd;stroke:#000000;stroke-width:1pt;fill:#ffff00" sodipodi:type="arc" d="m386.22 651.97c0 3.9138-3.1728 7.0866-7.0866 7.0866s-7.0866-3.1728-7.0866-7.0866 3.1728-7.0866 7.0866-7.0866 7.0866 3.1728 7.0866 7.0866z" transform="translate(7.0868,-7.0869)" sodipodi:cy="651.96851" sodipodi:cx="379.13385"/>
      <path id="path791" sodipodi:rx="7.0866089" sodipodi:ry="7.0866389" style="fill-rule:evenodd;stroke:#000000;stroke-width:1pt;fill:#ffff00" sodipodi:type="arc" d="m386.22 651.97c0 3.9138-3.1728 7.0866-7.0866 7.0866s-7.0866-3.1728-7.0866-7.0866 3.1728-7.0866 7.0866-7.0866 7.0866 3.1728 7.0866 7.0866z" transform="translate(-3.5431,-3.5435)" sodipodi:cy="651.96851" sodipodi:cx="379.13385"/>
    </g>
    <g id="g881">
      <path id="path822" style="fill-rule:evenodd;stroke-width:1pt;fill:#da4500" d="m389.76 386.22c-15.64 0-17.71 1.77-24.8 3.54 0-4.89 17.42-10.63 33.07-10.63 0 3.55-4.13 7.09-8.27 7.09z" sodipodi:nodetypes="cccc" inkscape:connector-curvature="0" transform="matrix(1.1429,0,0,1.6667,-36.784,-242.13)"/>
      <path id="path823" sodipodi:rx="7.0866241" sodipodi:ry="7.0866389" style="fill-rule:evenodd;fill:#cac9c7" sodipodi:type="arc" d="m428.74 386.22c0 3.9138-3.1728 7.0866-7.0866 7.0866s-7.0866-3.1728-7.0866-7.0866 3.1728-7.0866 7.0866-7.0866 7.0866 3.1728 7.0866 7.0866z" transform="translate(7.0866,-3.5433)" sodipodi:cy="386.22043" sodipodi:cx="421.65356"/>
      <path id="path825" inkscape:connector-curvature="0" sodipodi:nodetypes="ccccccccccccc" style="fill-rule:evenodd;stroke:#000000;stroke-width:1pt;fill:#ffff00" d="m361.42 357.87v10.63h17.71v53.15h10.63v-53.15h17.72v-10.63h-17.72v-14.17h-10.63v14.17h-17.71z"/>
      <path id="path821" style="fill-rule:evenodd;stroke-width:1pt;fill:#da4500" d="m396.85 387.11c-15.65 0-24.8 0.88-31.89 2.65 0-4.89 9.16-10.63 24.8-10.63 3.55 0 7.09 5.32 7.09 7.98z" sodipodi:nodetypes="cccc" inkscape:connector-curvature="0" transform="matrix(1.3333,0,0,2.2222,-111.03,-470.46)"/>
    </g>
    <g id="g920">
      <path id="path908" style="fill-rule:evenodd;stroke:#000000;stroke-width:.875;fill:#008500" d="m67.323 612.99c-14.173-14.17-16.634-21.36 3.543-10.1l283.75 247.5-3.37 6.97-283.93-244.37z" sodipodi:nodetypes="ccccc" inkscape:connector-curvature="0" transform="matrix(.5634 .45036 -.20424 .35982 321.13 327.02)"/>
      <path id="path912" style="fill-rule:evenodd;fill:#008f00" d="m106.3 825.59c61.1-21.17 49.64-102.47 42.62-103.04-7.03-0.57-33.42 18.67-36.97 36.39-7.08-28.35-23.098-54.58-32.338-51.55-13.861 3.03 2.466 47.49-4.621 54.58-7.086 3.54-39.117-21.73-46.203-18.19-7.087 3.54 18.481 100.06 77.512 81.81z" sodipodi:nodetypes="ccccccc" inkscape:connector-curvature="0" transform="matrix(.13171 -.18019 .3274 .2393 23.692 542.15)"/>
      <path id="path913" style="fill-rule:evenodd;fill:#008f00" d="m106.3 825.59c61.1-21.17 49.64-102.47 42.62-103.04-7.03-0.57-33.42 18.67-36.97 36.39-7.08-28.35-23.098-54.58-32.338-51.55-13.861 3.03 2.466 47.49-4.621 54.58-7.086 3.54-39.117-21.73-46.203-18.19-7.087 3.54 18.481 100.06 77.512 81.81z" sodipodi:nodetypes="ccccccc" inkscape:connector-curvature="0" transform="matrix(.13171 -.18019 .3274 .2393 -4.4099 495.32)"/>
      <path id="path914" style="fill-rule:evenodd;fill:#008f00" d="m106.3 825.59c61.1-21.17 49.64-102.47 42.62-103.04-7.03-0.57-33.42 18.67-36.97 36.39-7.08-28.35-23.098-54.58-32.338-51.55-13.861 3.03 2.466 47.49-4.621 54.58-7.086 3.54-39.117-21.73-46.203-18.19-7.087 3.54 18.481 100.06 77.512 81.81z" sodipodi:nodetypes="ccccccc" inkscape:connector-curvature="0" transform="matrix(.13171 -.18019 .3274 .2393 -25.914 452.8)"/>
      <path id="path915" style="fill-rule:evenodd;fill:#008f00" d="m106.3 825.59c61.1-21.17 49.64-102.47 42.62-103.04-7.03-0.57-33.42 18.67-36.97 36.39-7.08-28.35-23.098-54.58-32.338-51.55-13.861 3.03 2.466 47.49-4.621 54.58-7.086 3.54-39.117-21.73-46.203-18.19-7.087 3.54 18.481 100.06 77.512 81.81z" sodipodi:nodetypes="ccccccc" inkscape:connector-curvature="0" transform="matrix(.13171 -.18019 .3274 .2393 -47.174 406.73)"/>
      <path id="path916" style="fill-rule:evenodd;fill:#008f00" d="m106.3 825.59c61.1-21.17 49.64-102.47 42.62-103.04-7.03-0.57-33.42 18.67-36.97 36.39-7.08-28.35-23.098-54.58-32.338-51.55-13.861 3.03 2.466 47.49-4.621 54.58-7.086 3.54-39.117-21.73-46.203-18.19-7.087 3.54 18.481 100.06 77.512 81.81z" sodipodi:nodetypes="ccccccc" inkscape:connector-curvature="0" transform="matrix(.2232 -.00073722 .0013391 .40553 219.6 248.33)"/>
      <path id="path917" style="fill-rule:evenodd;fill:#008f00" d="m106.3 825.59c61.1-21.17 49.64-102.47 42.62-103.04-7.03-0.57-33.42 18.67-36.97 36.39-7.08-28.35-23.098-54.58-32.338-51.55-13.861 3.03 2.466 47.49-4.621 54.58-7.086 3.54-39.117-21.73-46.203-18.19-7.087 3.54 18.481 100.06 77.512 81.81z" sodipodi:nodetypes="ccccccc" inkscape:connector-curvature="0" transform="matrix(.21063 .073823 -.13413 .38271 352.49 299.69)"/>
      <path id="path918" style="fill-rule:evenodd;fill:#008f00" d="m106.3 825.59c61.1-21.17 49.64-102.47 42.62-103.04-7.03-0.57-33.42 18.67-36.97 36.39-7.08-28.35-23.098-54.58-32.338-51.55-13.861 3.03 2.466 47.49-4.621 54.58-7.086 3.54-39.117-21.73-46.203-18.19-7.087 3.54 18.481 100.06 77.512 81.81z" sodipodi:nodetypes="ccccccc" inkscape:connector-curvature="0" transform="matrix(.22236 .019264 -.035001 .40402 292.95 329.27)"/>
      <path id="path919" style="fill-rule:evenodd;fill:#008f00" d="m106.3 825.59c61.1-21.17 49.64-102.47 42.62-103.04-7.03-0.57-33.42 18.67-36.97 36.39-7.08-28.35-23.098-54.58-32.338-51.55-13.861 3.03 2.466 47.49-4.621 54.58-7.086 3.54-39.117-21.73-46.203-18.19-7.087 3.54 18.481 100.06 77.512 81.81z" sodipodi:nodetypes="ccccccc" inkscape:connector-curvature="0" transform="matrix(.21927 .04166 -.075693 .39841 352.36 385.54)"/>
    </g>
    <path id="path899" sodipodi:rx="23.031494" sodipodi:ry="14.173248" style="fill-rule:evenodd;stroke:#000000;stroke-width:1pt;fill:#ff1900" sodipodi:type="arc" d="m209.06 775.98c0 7.8277-10.312 14.173-23.031 14.173-12.72 0-23.031-6.3456-23.031-14.173 0-7.8277 10.312-14.173 23.031-14.173 12.72 0 23.031 6.3456 23.031 14.173z" transform="matrix(.87313 .48748 -.48748 .87313 541.92 -4.2137)" sodipodi:cy="775.98425" sodipodi:cx="186.02362"/>
    <g id="g935" transform="matrix(.72399 .2386 -.265 .71579 631.68 213.1)">
      <path id="path934" style="fill-rule:evenodd;stroke:#000000;stroke-width:.625;fill:#ffff00" d="m155.91 414.57v-7.09h7.08v-7.09h7.09v7.09h7.08v7.09h-7.08v17.71h-7.09v-17.71h-7.08z" sodipodi:nodetypes="ccccccccccccc" inkscape:connector-curvature="0" transform="translate(0,-3.0518e-5)"/>
      <rect id="rect930" style="fill-rule:evenodd;stroke:#000000;stroke-width:.63046;fill:#ffff00" height="205.51" width="7.0866" y="474.8" x="162.99"/>
      <rect id="rect931" style="fill-rule:evenodd;stroke:#000000;stroke-width:.625;fill:#ffff00" height="56.693" width="14.173" y="676.77" x="159.45"/>
      <path id="path932" inkscape:connector-curvature="0" sodipodi:nodetypes="csccc" style="fill-rule:evenodd;stroke:#000000;stroke-width:.625;fill:#ffff00" d="m155.91 439.37h21.25c14.18 0-3.54 38.98-3.54 38.98h-14.17s-17.72-38.98-3.54-38.98z"/>
      <path id="path933" sodipodi:rx="7.086617" sodipodi:ry="5.3149719" style="fill-rule:evenodd;stroke:#000000;stroke-width:.625;fill:#ffff00" sodipodi:type="arc" d="m173.62 434.06c0 2.9354-3.1728 5.315-7.0866 5.315s-7.0866-2.3796-7.0866-5.315 3.1728-5.315 7.0866-5.315 7.0866 2.3796 7.0866 5.315z" sodipodi:cy="434.05508" sodipodi:cx="166.53543"/>
    </g>
    <path id="path906" sodipodi:rx="23.031494" sodipodi:ry="14.173248" style="fill-rule:evenodd;stroke:#000000;stroke-width:1pt;fill:#ff1900" sodipodi:type="arc" d="m209.06 775.98c0 7.8277-10.312 14.173-23.031 14.173-12.72 0-23.031-6.3456-23.031-14.173 0-7.8277 10.312-14.173 23.031-14.173 12.72 0 23.031 6.3456 23.031 14.173z" transform="matrix(.83373 -.55218 .55218 .83373 -26.753 225.15)" sodipodi:cy="775.98425" sodipodi:cx="186.02362"/>
  </g>
  <metadata id="metadata82">
    <rdf:RDF>
      <cc:Work>
        <dc:format>image/svg+xml</dc:format>
        <dc:type rdf:resource="http://purl.org/dc/dcmitype/StillImage"/>
        <cc:license rdf:resource="http://creativecommons.org/licenses/publicdomain/"/>
        <dc:publisher>
          <cc:Agent rdf:about="http://openclipart.org/">
            <dc:title>Openclipart</dc:title>
          </cc:Agent>
        </dc:publisher>
      </cc:Work>
      <cc:License rdf:about="http://creativecommons.org/licenses/publicdomain/">
        <cc:permits rdf:resource="http://creativecommons.org/ns#Reproduction"/>
        <cc:permits rdf:resource="http://creativecommons.org/ns#Distribution"/>
        <cc:permits rdf:resource="http://creativecommons.org/ns#DerivativeWorks"/>
      </cc:License>
    </rdf:RDF>
  </metadata>
</svg>
