<?xml version="1.0" encoding="UTF-8" standalone="no"?>
<svg id="svg4137" xmlns:rdf="http://www.w3.org/1999/02/22-rdf-syntax-ns#" xmlns="http://www.w3.org/2000/svg" height="1888.6" viewBox="0 0 3346.565 1888.5843" width="3346.6" version="1.1" xmlns:cc="http://creativecommons.org/ns#" xmlns:dc="http://purl.org/dc/elements/1.1/">
<defs id="defs4141">
<filter id="filter6669" style="color-interpolation-filters:sRGB" height="1.0336" width="1.0187" y="-.016787" x="-.0093372">
<feGaussianBlur id="feGaussianBlur6671" stdDeviation="12.781126"/>
</filter>
<clipPath id="clipPath4612" clipPathUnits="userSpaceOnUse">
<path id="path4614" fill="#00247d" d="m80 40.051v200 200h800v-200-200h-400-400z"/>
</clipPath>
<clipPath id="c-0">
<path id="path5-6" d="m0 0v150h700v150h-100zm600 0h-300v350h-300v-50z"/>
</clipPath>
</defs>
<g id="g4304">
<path id="path6667" d="m168.39 30.675-33.106 0.26367-33.106 0.26172-0.625 7.5c-2.7451 32.939-31.559 62.331-66.195 67.525l-4.6797 0.70313v47.271 47.27l5.3047 0.66406c87.639 10.95 86.353 135.92-1.5547 151.01l-3.75 0.64453v40.26 40.26l7.25 1.2246c32.588 5.5036 52.666 26.888 60.043 51.945h1.6211c7.5354 37.886-12.641 81.409-60.779 91.064l-8.1348 1.6309v36.154 36.154l7.125 1.2226c84.85 14.55 84.231 135.48-0.7695 150.28l-6.3555 1.1074v36.396 36.396h2.3106c14.445 0 39.573 13.657 51.363 27.916 37.423 45.258 11.534 112.93-47.107 123.15l-6.5664 1.1445v40.172 40.172l8.75 1.791c64.937 13.295 84.777 94.403 32.811 134.14-10.728 8.2025-30.73 16.522-39.721 16.522-1.7487 0-1.8399 1.6026-1.8399 32.275v32.275l8.3516 1.7187c73.667 15.164 86.001 111.24 18.393 143.27-6.8649 3.2523-20.917 7.4629-24.904 7.4629-1.7563 0-1.8399 1.8372-1.8399 40.387v40.387l4.6797 0.7032c87.501 13.122 87.501 137.93 0 151.05l-4.6797 0.7031v32.137 32.135l10.25 0.1777c41.71 0.7219 77.649 34.737 77.734 73.572l0.0156 6.75h33.031c25.576 0 33.108-0.2821 33.373-1.25 0.1881-0.6875 0.8826-4.175 1.543-7.75 14.816-80.196 140.34-79.771 155.91 0.5274l1.6426 8.4667h37.205 37.203l0.6446-3.75c9.1379-53.208 65.77-81.661 114.95-57.75 23.808 11.576 36.816 29.364 42.963 58.75l0.5742 2.75h32.936 32.936l0.5957-3.75c13.59-85.611 141.56-87.912 157.7-2.8359l1.2481 6.5859h37.17 37.17l1.1485-6.6015c14.518-83.37 147.04-82.65 156.65 0.8515l0.6621 5.75h41.768 41.77l1.1719-6.75c14.481-83.357 144.77-82.633 156.79 0.8711l0.7735 5.3789 37.514 0.2618 37.512 0.2617 1.0761-6.8281c8.3364-52.942 76.344-80.993 122.17-50.393 19.714 13.163 35.197 37.11 35.197 54.438v2.7812l41.693-0.2597 41.695-0.2618 1.3672-7.5c9.4559-51.829 73.815-78.703 120.53-50.328 19.182 11.652 36.719 38.186 36.719 55.559v2.7695h37.455 37.455l0.6152-3.75c14.565-88.653 141.13-87.852 157.99 1l0.5215 2.75h41.438 41.434l0.6172-3.75c14.652-89.183 140.61-87.988 158.07 1.5l0.4375 2.25h41.463 41.463l0.5195-2.75c7.753-40.865 38.755-67.25 79.018-67.25 40.3 0 71.257 26.347 79.016 67.25l0.5215 2.75h41.463 41.463l0.5195-2.75c16.866-88.901 143.42-89.702 157.99-1l0.6153 3.75h37.205 37.205l1.6426-8.4667c15.548-80.17 141.31-80.595 155.92-0.5274 0.652 3.575 1.3413 7.0625 1.5293 7.75 0.265 0.9678 7.7881 1.25 33.328 1.25h32.984l0.6172-3.75c14.221-86.557 140.47-88.16 157.48-2l1.1367 5.75h36.785 36.785l0.6836-8.25c3.006-36.224 27.718-62.938 65.854-71.191l2.75-0.5957v-32.463-32.461l-2.75-0.5957c-40.097-8.6786-65.588-38-65.588-75.443 0-37.472 25.461-66.756 65.588-75.441l2.75-0.5957v-40.512c0-31.573-0.276-40.583-1.25-40.832-0.688-0.1758-4.4-1.0713-8.25-1.9882-77.675-18.498-77.295-130.95 0.5-147.62 3.025-0.6483 6.287-1.3962 7.25-1.6602 2.265-0.6214 2.756-65.15 0.5-65.727-0.688-0.1758-4.4-1.0713-8.25-1.9882-81.91-19.507-76.863-130.98 6.75-149.07l2.75-0.5957v-40.512c0-31.547-0.277-40.595-1.25-40.881-0.688-0.202-4.4-1.082-8.25-1.957-72.239-16.419-79.512-116.12-10.5-143.92 5.883-2.3703 8.377-3.1091 17.25-5.1075l2.75-0.6191v-36.512c0-28.347-0.28-36.596-1.25-36.881-0.688-0.202-4.4-1.0941-8.25-1.9824-79.578-18.36-76.705-132.17 3.75-148.56l5.75-1.1719v-36.461c0-28.306-0.28-36.543-1.25-36.828-0.688-0.202-4.3743-1.0912-8.1933-1.9765-44.63-10.345-63.242-52.943-56.359-90.004h1.3242c7.5004-24.307 27.131-45.231 58.728-51.738l5.75-1.1836v-40.701-40.701l-6.5039-1.2344c-81.999-15.555-81.409-132.26 0.7539-149.18l5.75-1.1836-0.01-47.18-0.01-47.18-8.7363-0.2168h-0.01c-39.588-0.9945-76.234-35.338-76.234-71.443v-4.8398h-41.5-41.5v3.543c0 92.315-150.89 95.886-158.68 3.7559l-0.6153-7.2988h-32.674-32.674l-1.1758 8.832c-11.773 88.423-143.65 89.722-157.99 1.5566l-1.6895-10.385h-36.75-36.75v3.543c0 92.358-150.89 95.929-158.68 3.7558l-0.6153-7.2988h-41.354-41.354v3.543c0 32.139-28.277 63.994-63.5 71.533-45.882 9.8209-95.5-27.203-95.5-71.26v-3.8164h-41.363-41.361l-0.6836 6.75c-9.2343 91.163-150.57 91.653-158.27 0.54882l-0.6153-7.2988h-41.207-41.207l-0.625 7.3848c-7.6273 90.231-150.71 90.223-158.34-0.01l-0.6231-7.375h-36.728-36.728l-0.625 3.125c-0.3437 1.7188-0.625 4.3355-0.625 5.8164 0 15.126-14.074 39.423-29.463 50.863-49.549 36.836-120.77 8.7422-128.69-50.766l-1.2051-9.0391h-40.703-40.703l-0.6015 2.25c-0.3317 1.2375-0.6097 3.7957-0.6172 5.6855-0.064 16.181-13.528 39.8-29.508 51.768-50.063 37.492-122.91 7.6125-129.09-52.953l-0.6894-6.75h-36.682-36.682l-1.1758 8.8301c-11.916 89.495-150.57 88.547-157.85-1.0801l-0.6289-7.75h-41.213-41.215l-0.6484 6.3301c-9.4334 92.073-158.63 90.764-158.63-1.3945v-4.9394h-37.5-37.5v5.3398c0 91.384-150.07 92.718-158.65 1.4102l-0.6348-6.75h-32.711-32.709l-0.6172 7.25c-8.17 91.024-159.08 88.464-159.08-2.953v-4.5527h-32.791-32.789l-1.6328 10.299c-14.023 88.403-151.44 86.17-157.54-2.5606l-0.5351-7.7637z" filter="url(#filter6669)"/>
<path id="path4687" d="m162.39 24.675-33.106 0.26367-33.105 0.26172-0.625 7.5c-2.7451 32.939-31.56 62.331-66.195 67.525l-4.6797 0.70313v47.271 47.27l5.3047 0.66406c87.639 10.95 86.353 135.92-1.5547 151.01l-3.75 0.64453v40.26 40.26l7.25 1.2246c32.588 5.5036 52.666 26.888 60.043 51.945h1.6211c7.5354 37.886-12.641 81.409-60.779 91.064l-8.1348 1.6309v36.154 36.154l7.125 1.2226c84.85 14.55 84.231 135.48-0.7695 150.28l-6.3555 1.1074v36.396 36.396h2.3106c14.445 0 39.573 13.657 51.363 27.916 37.423 45.258 11.534 112.93-47.107 123.15l-6.5664 1.1445v40.172 40.172l8.75 1.791c64.937 13.295 84.777 94.403 32.811 134.14-10.728 8.2025-30.73 16.522-39.721 16.522-1.7487 0-1.8399 1.6026-1.8399 32.275v32.275l8.3516 1.7187c73.667 15.164 86.001 111.24 18.393 143.27-6.8649 3.2523-20.917 7.4629-24.904 7.4629-1.7563 0-1.8399 1.8372-1.8399 40.387v40.387l4.6797 0.7032c87.501 13.122 87.501 137.93 0 151.05l-4.6797 0.7031v32.137 32.135l10.25 0.1777c41.71 0.7219 77.649 34.737 77.734 73.572l0.0156 6.75h33.031c25.576 0 33.108-0.2821 33.373-1.25 0.1881-0.6875 0.8826-4.175 1.543-7.75 14.816-80.196 140.34-79.771 155.91 0.5274l1.6426 8.4667h37.205 37.203l0.6446-3.75c9.1379-53.208 65.77-81.661 114.95-57.75 23.808 11.576 36.816 29.364 42.963 58.75l0.5742 2.75h32.936 32.936l0.5957-3.75c13.59-85.611 141.56-87.912 157.7-2.8359l1.2481 6.5859h37.17 37.17l1.1485-6.6015c14.518-83.37 147.04-82.65 156.65 0.8515l0.6621 5.75h41.768 41.77l1.1719-6.75c14.481-83.357 144.77-82.633 156.79 0.8711l0.7735 5.3789 37.514 0.2618 37.512 0.2617 1.0761-6.8281c8.3364-52.942 76.344-80.993 122.17-50.393 19.714 13.163 35.197 37.11 35.197 54.438v2.7812l41.693-0.2597 41.695-0.2618 1.3672-7.5c9.4559-51.829 73.815-78.703 120.53-50.328 19.182 11.652 36.719 38.186 36.719 55.559v2.7695h37.455 37.455l0.6152-3.75c14.565-88.653 141.13-87.852 157.99 1l0.5215 2.75h41.438 41.434l0.6172-3.75c14.652-89.183 140.61-87.988 158.07 1.5l0.4375 2.25h41.463 41.463l0.5195-2.75c7.753-40.865 38.755-67.25 79.018-67.25 40.3 0 71.257 26.347 79.016 67.25l0.5215 2.75h41.463 41.463l0.5195-2.75c16.866-88.901 143.42-89.702 157.99-1l0.6153 3.75h37.205 37.205l1.6426-8.4667c15.548-80.17 141.31-80.595 155.92-0.5274 0.652 3.575 1.3413 7.0625 1.5293 7.75 0.265 0.9678 7.7881 1.25 33.328 1.25h32.984l0.6172-3.75c14.221-86.557 140.47-88.16 157.48-2l1.1367 5.75h36.785 36.785l0.6836-8.25c3.006-36.224 27.718-62.938 65.854-71.191l2.75-0.5957v-32.463-32.461l-2.75-0.5957c-40.097-8.6786-65.588-38-65.588-75.443 0-37.472 25.461-66.756 65.588-75.441l2.75-0.5957v-40.512c0-31.573-0.276-40.583-1.25-40.832-0.688-0.1758-4.4-1.0713-8.25-1.9882-77.675-18.498-77.295-130.95 0.5-147.62 3.025-0.6483 6.287-1.3962 7.25-1.6602 2.265-0.6214 2.756-65.15 0.5-65.727-0.688-0.1758-4.4-1.0713-8.25-1.9882-81.91-19.507-76.863-130.98 6.75-149.07l2.75-0.5957v-40.512c0-31.547-0.277-40.595-1.25-40.881-0.688-0.202-4.4-1.082-8.25-1.957-72.239-16.419-79.512-116.12-10.5-143.92 5.883-2.3703 8.377-3.1091 17.25-5.1075l2.75-0.6191v-36.512c0-28.347-0.28-36.596-1.25-36.881-0.688-0.202-4.4-1.0941-8.25-1.9824-79.578-18.36-76.705-132.17 3.75-148.56l5.75-1.1719v-36.461c0-28.306-0.28-36.543-1.25-36.828-0.688-0.202-4.3743-1.0912-8.1933-1.9765-44.63-10.345-63.242-52.943-56.359-90.004h1.3242c7.5004-24.307 27.131-45.231 58.728-51.738l5.75-1.1836v-40.701-40.701l-6.5039-1.2344c-81.999-15.555-81.409-132.26 0.7539-149.18l5.75-1.1836-0.01-47.18-0.01-47.18-8.7363-0.2168h-0.01c-39.9-1.251-76.5-35.594-76.5-71.7v-4.8398h-41.5-41.5v3.543c0 92.315-150.89 95.886-158.68 3.7559l-0.6153-7.2988h-32.674-32.674l-1.1758 8.832c-11.773 88.423-143.65 89.722-157.99 1.5566l-1.6895-10.385h-36.75-36.75v3.543c0 92.358-150.89 95.929-158.68 3.7558l-0.6153-7.2988h-41.354-41.354v3.543c0 32.139-28.277 63.994-63.5 71.533-45.882 9.8209-95.5-27.203-95.5-71.26v-3.8164h-41.363-41.361l-0.6836 6.75c-9.2343 91.163-150.57 91.653-158.27 0.54882l-0.6153-7.2988h-41.207-41.207l-0.625 7.3848c-7.6273 90.231-150.71 90.223-158.34-0.01l-0.6231-7.375h-36.728-36.728l-0.625 3.125c-0.3437 1.7188-0.625 4.3355-0.625 5.8164 0 15.126-14.074 39.423-29.463 50.863-49.549 36.836-120.77 8.7422-128.69-50.766l-1.2051-9.0391h-40.703-40.703l-0.6015 2.25c-0.3317 1.2375-0.6097 3.7957-0.6172 5.6855-0.064 16.181-13.528 39.8-29.508 51.768-50.063 37.492-122.91 7.6125-129.09-52.953l-0.6894-6.75h-36.682-36.682l-1.1758 8.8301c-11.916 89.495-150.57 88.547-157.85-1.0801l-0.6289-7.75h-41.213-41.215l-0.6484 6.3301c-9.4334 92.073-158.63 90.764-158.63-1.3945v-4.9394h-37.5-37.5v5.3398c0 91.384-150.07 92.718-158.65 1.4102l-0.6348-6.75h-32.711-32.709l-0.6172 7.25c-7.77 91.28-158.68 88.72-158.68-2.697v-4.5527h-32.791-32.789l-1.6328 10.299c-14.023 88.403-151.44 86.17-157.54-2.5606l-0.5351-7.7637z" fill="#f2f2f2"/>
<g id="g4535" transform="matrix(3.7311 0 0 3.8173 -120.91 22.038)" clip-path="url(#clipPath4612)">
<rect id="rect7" height="400" width="800" y="40.051" x="80" fill="#00247d"/>
<path id="path9" stroke-width="40" stroke="#fff" d="m80 40.051 400 200m0-200-400 200"/>
<path id="path11" d="m0 0 600 300m0-300-600 300" clip-path="url(#c-0)" transform="matrix(.66667 0 0 .66667 80 40.051)" stroke="#cf142b" stroke-width="40"/>
<path id="path13" stroke-width="66.667" stroke="#fff" d="m280 40.051v233.33m-200-133.33h466.67"/>
<path id="path15" stroke-width="40" stroke="#cf142b" d="m280 40.051v233.33m-200-133.33h466.67"/>
<path id="path17" fill="#00247d" d="m80 240.05h400v-200h400v400h-800z"/>
<g id="g19" transform="matrix(.66667 0 0 .66667 80 40.051)">
<path id="path21" fill="#fff" d="m769.47 147.53h256.88l-0.306 182.79c2.1373 73.48-43.662 119.08-127.93 139.63-59.834-14.86-128.84-45.596-128.94-137.55l0.30537-184.87z"/>
<path id="path23" d="m775.15 153.04h245.49l-0.2914 175.16c2.0416 70.41-41.727 114.1-122.26 133.8-57.188-14.237-123.13-43.692-123.23-131.8l0.29189-177.15z" stroke="#000" stroke-width="1.8125" fill="#00a2bd"/>
<path id="path25" fill="#a53d08" d="m1018.7 348.94c-8.9 67.21-60.65 96.57-120.62 112.16-53.07-14.24-110.17-36.97-121.24-111.82l241.9-0.33785z"/>
<path id="path27" d="m888.36 185.66-0.34221-22.075 17.455 0.17111 0.17111 21.904h47.743l0.17109 17.113-47.914 0.17111-0.38281 201.82-17.026 0.10728-0.2175-202.09-47.582 0.17125 0.0101-17.455z"/>
<g id="g29" stroke-width=".96760" stroke="#000" fill="#ff9a08">
<path id="path31" fill-rule="evenodd" d="m849.71 357.27 43.703 45.338c15.112-16.61 4.6299-78.696-15.247-90.13-2.3824 7.3516-6.4338 16.166-10.74 19.008-9.4744 6.457-32.692 14.006-24.932 18.84 1.7699-2.4505 6.3989-4.7648 8.5773 0.68151 2.5868 8.5769-9.6666 9.1221-9.6666 9.1221s-7.7604-0.95411-9.1219-8.8509c-1.3614-7.8954 11.559-15.105 12.662-15.656 1.0891-0.40891 17.971-4.9011 20.831-19.878 3.5395-14.705 7.2153-12.525 7.8968-12.798 22.055 2.1779 36.487 41.662 37.305 69.436 0.81634 27.774-11.3 46.154-13.479 47.379-2.1779 1.2253-52.553-59.768-52.553-59.768l4.7652-2.7231z"/>
<path id="path33" d="m881.57 315.06 0.27116 81.825"/>
<path id="path35" d="m876.67 316.56c0 0.13629 0.27116 74.338 0.27116 74.338"/>
<path id="path37" d="m871.36 327.31 0.27115 59.088"/>
<path id="path39" d="m867 331.53 0.27261 48.879"/>
<path id="path41" d="m862.38 333.71v41.253"/>
<path id="path43" d="m857.34 336.98v32.675"/>
<path id="path45" d="m852.98 339.57v25.051"/>
<g id="g47" stroke="#ffdf00" stroke-linecap="round" stroke-width="1.8125" fill="none">
<path id="path49" stroke-width=".96760" d="m849.03 362.44 45.065 51.6"/>
<path id="path51" d="m896.28 329.9s20.424 44.658 1.4979 81.417"/>
<path id="path53" d="m843.72 353.05s1.4977-3.9484 3.4038-2.3142"/>
<path id="path55" d="m840.18 341.61s-8.169 7.2153-3.6759 11.845"/>
</g>
</g>
<g id="g57" stroke-width=".3987" stroke="#000">
<path id="path59" fill="#008021" d="m905.78 228.04c3.0254-2.595 4.595-4.1811 6.4685-3.8925 1.8735 0.28798 4.4241 0.14367 6.2976-0.43292 1.8798-0.57723 11.177-1.7304 15-0.43292 1.2975 0.14431 3.0254 0.86584 5.69 3.1007 2.6709 2.2342 6.5634 6.128 5.2659 16.942s-0.87343 15.439-1.4431 21.483c-1.0064 10.67-3.3735 19.455-7.6394 18.744 5.7659 10.093 6.3419 18.744 10.089 25.665 3.7532 6.921 6.0571 21.051 4.614 36.335-1.4367 15.284-5.4748 49.599 6.633 72.669-2.019 1.4418-6.9179 0-11.247-4.614-4.3229-4.614-6.2216-4.4628-9.804-1.7304-10.956 8.3628-21.216 18.442-36.33 8.3628-3.4621-2.307-4.557-5.0742-2.019-12.112 6.3419-17.59 9.4242-41.725 8.4242-53.06v-127.03z"/>
<g id="g61" fill="#ffe1cf">
<path id="path63" d="m916.17 217.23c0.79116 2.4513 1.2216 5.6229-0.076 8.5065-1.2975 2.8836-1.5823 6.3444 0.57596 10.526 3.4621-4.902 8.3673-3.8925 11.247-6.7761 2.8861-2.8842 3.4621-5.6235 5.6267-6.2008-2.1646-1.8741-5.4811-3.8925-4.7596-9.3717 0.72154-5.4792 8.3609-9.9483 1.4431-18.312-4.4684-5.3982-10.962-3.8925-13.772-1.8019-1.3228 0.9823-2.4494 2.3785-2.8798 3.3159-0.43671 0.93736 0.1076 3.0703-0.94305 4.326-0.71521 0.86457-1.5886 1.7247-2.595 2.4507-0.64558 0.469-1.0506 1.1519-0.36077 1.9469 0.27849 0.31772 0.78483 0.38545 1.3418 0.57849-0.32279 0.64875-0.68988 1.2956-1.0506 1.7646-0.34178 0.43988-0.19621 0.85951 0.21519 1.2178-0.54431 1.7298 0.50634 1.9178-0.21519 3.2159-0.6266 1.1222-1.4747 2.45 0.8671 3.7488 0.64559 0.36013 3.7153 1.0722 5.3356 0.86521z"/>
<path id="path65" d="m888.13 245.92c-4.0381 1.0095-10.526-0.72026-15.431-0.1443-2.1646 0.2557-3.8925-0.86458-3.6013-3.0273 0.28481-2.1633 0.57596-5.4792 0.13924-8.5071-0.6709-4.7184 1.5886-11.246 4.7596-18.456 3.171-7.209 4.7596-11.246 4.7596-14.634 0-2.2349 0.2152-4.7583 2.2342-6.0558 1.4937-0.95888 1.7785-1.8899 2.3102-2.6671 1.2215-1.8026 2.3735-2.2348 2.519-1.1532 0.0886 0.64305-0.14557 1.2253-0.72153 2.0906 1.2975-1.0817 3.5001-2.3437 4.0001-2.7038 0.50634-0.36013 3.0697-2.1627 3.2089-0.46836 1.0127-0.50444 1.6962-0.469 1.9494 0.0715 0.27216 0.58482 0.1076 0.82976-0.39874 1.262 0.72153-0.14431 1.5507 1.1177 0.10759 2.2348 0.75951-0.25254 1.5127 1.0095 0.18355 2.1627-1.3798 1.1905-2.9558 2.019-3.4621 2.9558-0.50634 0.93736-3.9305 3.569-5.2976 4.1456-1.3734 0.57659-1.4431 1.3678-1.4431 3.388 0 22.204-2.6646 20.4-2.6646 25.737 0 1.4418-0.29114 2.7393 1.1519 2.3064 1.4431-0.43229 3.5317-1.081 5.6963-1.081v12.544z"/>
<path id="path67" d="m888.99 293.79c6.5191-3.2583 13.988-4.4697 17.88-5.4786 3.8925-1.0095 10.095-4.0368 13.12-5.6229 3.0317-1.5867 5.4811-3.7494 7.209-4.326 1.7342-0.57659 3.671-1.7696 4.7596-3.8925 5.6204-10.958 8.6521-19.752 8.6521-27.396 0-5.0463-1.2975-10.67-6.2026-6.6324-4.6077 3.795-9.6268 11.11-10.956 16.437-2.019 8.0742-3.7469 9.8046-4.1836 11.39-0.43039 1.5867-2.0633 1.5848-4.038 2.019-8.5065 1.8747-10.526 3.1716-16.867 7.9299-6.3419 4.7583-13.266 8.94-17.88 11.535-4.614 2.5956-5.4748 2.8836-6.4875 4.9742-1.0064 2.0906-1.9431 3.6766-2.8102 4.6146-0.86711 0.93673-1.114 2.0323-0.93673 3.1716 0.14557 0.93736-0.29115 5.2628-0.36077 6.7046-0.076 1.4418 0.28482 1.8026 0.86711 1.8741 0.57596 0.0728 1.3671-0.21583 1.6583-1.9462-0.29115 1.7304 2.0886 1.1532 2.2342-0.14368-0.076 1.8741 2.4494 0.79306 2.595-0.93736 0 1.2253 1.9114 0.37786 2.0886-0.21646 0.43038-1.4418 0.79115-3.0279 1.3671-4.1811 0.84179-1.6741 1.7405-3.8425 3.3925-5.0469 1.8735-1.3696 1.0064-2.8836 4.8988-4.8305z"/>
<path id="path69" d="m935.7 411.88c0.43672 1.5861 1.2279 3.3887 1.5127 4.4703 0.29115 1.081-0.21519 1.4184-0.50001 2.0184-1.5127 3.1722-3.1393 8.2286-3.3925 10.958-0.13924 1.5861-1.2215 3.1001-1.7279 4.0374-0.55698 1.0336-0.34178 1.831 0.93672 2.8114 0.61394 0.46837 2.595-0.1443 2.8102-1.1532 0.72153 0.72027 2.019 0.43229 2.595-0.64938 0.65192 0.64938 1.7342 0.21646 2.4558-0.86457 0.64558 0.43229 1.5823-0.43292 1.9431-1.0102 1.0127 0.50508 2.095-0.10759 2.1266-2.0899 0.006-0.39811 0.25317-1.0817 0.54431-1.55 0.28482-0.469 0.39242-1.3696 0.36077-2.1633-0.038-0.79306 0.46836-2.3785 1.1519-3.4963 0.68356-1.1177 1.8735-3.1001 1.3671-4.9741-0.46837-1.7462-1.2216-1.5861-1.8735-4.109-1.5823-1.6589-3.7469-3.9659-5.9811-4.1102-2.2342-0.14368-3.5317 1.3703-4.3292 1.8747z"/>
<path id="path71" d="m894.68 424.28c2.019 2.0184 6.5634 2.0906 9.7344-1.2981-1.1519-0.50444-3.6773-1.6583-4.8292-2.595-1.5886 1.5861-3.3925 3.388-4.9052 3.8931z"/>
</g>
<path id="path73" fill="#870f00" d="m915.09 195.03c0.79116-5.1185 4.4178-4.9976 6.7027-4.4697 0.93672 0.21646 3.2469 0.43229 5.4052-0.14431 4.2786-1.1399 7.5001 0.36077 7.0698 4.4704 1.1519 0.86457 2.3735 2.883 2.1583 4.614-0.2152 1.7298 0.14557 2.4507 1.7342 2.6665 1.5823 0.21709 4.9748 2.1633 2.7342 4.9026 2.1646 1.2981 3.8229 4.614 2.6709 6.8489-1.1519 2.2348-4.614 2.5956-6.0571 0.57659-1.5823 0.7209-4.1836 0.86521-5.7659-0.79242-1.0823 1.2969-3.8229 1.1532-4.3292 0-0.50001-1.1538-1.3545-1.7709-2.3735-2.0912-1.1582-0.36014-1.2279-3.5324 0.50001-3.8931-0.2152-0.93736-0.13925-2.0184 0.29114-2.5228 0.43039-0.50444 0.0696-1.4418-0.93673-2.2355-1.0127-0.79305-1.8734-3.821-0.8671-5.4786-1.7279 0.5766-5.5507-1.0817-6.3419-2.2348-0.79748-1.1538-1.8734-1.2253-2.595-0.21646z"/>
<g id="g75" fill="none">
<path id="path77" d="m916.17 217.23c2.8102-0.36077 3.7469-2.0906 5.8356-1.9469"/>
<path id="path79" d="m910.18 209.4c0.18355 0.16202 0.41773 0.2943 0.68356 0.44051 0.56963 0.3076 1.1899 0.34305 1.7659 0.41457"/>
<path id="path81" d="m911.02 206.42c0.39242 0.13544 0.81014 0.33292 1.1836 0.719"/>
<path id="path83" d="m917.54 195.03c-1.6583-1.5861 2.8102-4.8298 7.5002-0.21646 0.87343 0.86141 3.095 0.86584 3.7469 0.64875"/>
<path id="path85" d="m924.03 197.48c2.1646-0.50507 5.4052-0.50507 6.3419 1.9462 0.94306 2.4513 2.8165 0.86521 4.3292 3.7494 1.5127 2.8836 3.8925 6.1273 6.1963 3.8925"/>
<path id="path87" d="m931.74 213.7c-0.65191-0.86521-0.93673-2.7399-0.50634-4.0381-0.86711-1.0089-0.50634-3.0994 0-4.1089"/>
<path id="path89" d="m925.54 207.71c0.076 0.86521 1.2279 2.4513 3.0317 2.7393"/>
<path id="path91" d="m937.51 214.49c-1.0064-1.2975-0.86711-2.4507-0.64559-4.0374"/>
<path id="path93" d="m926.98 200.14c-0.0696 1.2975 0.72154 3.0279 2.0886 3.6045 0.29115 0.72027 1.7342 2.7393 4.614 2.4513"/>
<path id="path95" d="m934.27 194.88c-1.5823-1.2279-3.7279-2.7406-6.5634-3.1146"/>
<path id="path97" d="m916.67 236.26c-2.4494 3.3165-4.038 7.9299-2.8798 14.419 1.1519 6.4887 3.0254 16.005-1.7342 20.33"/>
<path id="path99" d="m935.42 283.56c-3.3165-0.72027-8.0761-0.72027-10.671 1.1538-2.595 1.8741-6.9242 2.0184-9.804 0.57659"/>
<path id="path101" d="m928.42 283.34c-2.8861 0.50444-4.2532 2.5228-4.2532 7.8578 0 5.3349-1.1519 13.12-0.14557 20.762"/>
<path id="path103" d="m923.16 285.57c-1.8734 0.50444-3.8165 0.57596-3.4558 5.6229"/>
<path id="path105" d="m913.43 291.34c0.0696-3.1001 1.1519-5.9837 3.171-5.4792"/>
<path id="path107" d="m934.19 291.92c0.14558-6.8489-1.3671-8.7951-3.3861-8.723 2.7406 0.0721 4.6077 0.40697 5.7659 11.607 0.8671 8.3628 2.614 11.323 4.614 17.88 5.19 17.014 2.595 43.255 5.19 52.483"/>
<path id="path109" d="m930.23 293.94c5.4748 15.861 8.3609 33.451-0.57596 61.711 6.0508 16.726 12.108 28.837 13.26 35.758"/>
<path id="path111" d="m912.92 331.42c1.0064-3.6039-2.595-4.0368 0.57596-16.725 1.3734-5.4963 1.5886-8.7951 0.72154-10.526"/>
<path id="path113" d="m914.22 311.67c-1.2975 5.6235 4.1836 16.149 1.4431 23.79"/>
<path id="path115" d="m908.89 336.9c0 4.902 1.1519 11.246 0.8671 16.149-0.29114 4.902 1.7089 7.1736 4.0381 11.823 8.3609 16.726 14.051 28.659 13.26 44.409-0.13924 2.8836 0.86711 8.9394-2.1583 10.669"/>
<path id="path117" d="m909.1 424.21c0.86711 0.0721 1.8038-0.36014 2.8861-2.9558 1.0823-2.5956 4.5444-18.167 3.1013-28.837"/>
<path id="path119" d="m916.82 404.53c0.43039 3.3159 0.43039 10.093-1.7279 15.428"/>
<path id="path121" d="m922.3 394.58c1.2975 7.0653 1.1519 13.41 0.14557 17.879"/>
<path id="path123" d="m919.41 412.46c0.14558 2.8836 1.4431 10.093-0.72153 10.67"/>
<path id="path125" d="m930.23 379.01c5.3292 8.3628 9.5128 28.982 13.981 33.306"/>
<path id="path127" d="m934.84 409c-0.14558-2.307-0.29115-5.4786-1.5886-6.921"/>
<path id="path129" d="m877.24 308.07c0.0696-1.5867-0.2152-3.1007 1.5127-5.5514"/>
<path id="path131" d="m874.64 309c0.21519-5.5514 0.13924-6.0564 1.7279-7.5704"/>
<path id="path133" d="m872.41 309.15c0.0696-3.9646-0.43672-5.3349 1.1519-7.8584"/>
<path id="path135" d="m892.3 190.2c-0.61393 0.39621-4.2153 3.1355-5.728 4.2893"/>
<path id="path137" d="m893.85 191.53c-0.68356 0.10759-2.6646 1.7304-6.1963 4.4697"/>
<path id="path139" d="m893.96 193.76c-1.1139 0.50444-3.2406 2.5596-5.19 3.9292"/>
<path id="path141" d="m885.1 193.37c-0.53798 0.39621-1.5823 1.55-2.0886 1.9462"/>
<path id="path143" d="m935.34 435.02c-0.3228-0.36076-0.3228-1.6228 0.25317-3.0279"/>
<path id="path145" d="m937.94 434.37c-0.39241-0.39621 0-2.1266 0.39875-3.2444"/>
<path id="path147" d="m940.39 433.51c-0.46837-0.21646-0.61394-1.226 0.0696-2.5956"/>
<path id="path149" d="m942.34 432.5c-0.32279-0.10759-0.46836-0.64874 0.1076-2.2342"/>
</g>
<g id="g151">
<path id="path153" d="m913.97 199.57c1.0443 1.3696 2.1266 1.2247 2.3165 2.1076 0.18988 0.88419 0.32912 0.94685 0.53165 1.2089 0.20254 0.2614-0.49368 0.20887-0.83545 0.0677-0.33545-0.14114-1.1836-0.12658-1.7026-0.11899-0.51267 0.008-1.1266-0.59874-0.74052-0.67026 0.37975-0.0709 0.32912-0.19051 0.27216-0.4595-0.057-0.26836 0.21519-0.69306 0.37342-0.77091 0.16456-0.0779 0.0506-0.0633-0.0949-0.42342-0.1519-0.36077-0.34178-1.2361-0.12025-0.94116z"/>
<path id="path155" d="m914.6 198.31c1.1709 0.13734 3.1899 0.76963 4.2849 1.9817 0.86077 0.95318 0.15823 0.70065-0.27849 0.73609-0.43672 0.0367-1.2912-0.27279-1.7216-0.81457-0.42406-0.54115-1.6962-1.2272-2.3735-1.4057-0.4114-0.10633-0.79748-0.60191 0.0886-0.49747z"/>
</g>
</g>
</g>
</g>
</g>
</svg>
