<?xml version="1.0" encoding="UTF-8" standalone="no"?>
<!-- Created with Inkscape (http://www.inkscape.org/) -->
<svg xmlns:rdf="http://www.w3.org/1999/02/22-rdf-syntax-ns#" xmlns="http://www.w3.org/2000/svg" xmlns:cc="http://web.resource.org/cc/" xmlns:xlink="http://www.w3.org/1999/xlink" xmlns:dc="http://purl.org/dc/elements/1.1/" xmlns:svg="http://www.w3.org/2000/svg" xmlns:inkscape="http://www.inkscape.org/namespaces/inkscape" xmlns:sodipodi="http://sodipodi.sourceforge.net/DTD/sodipodi-0.dtd" xmlns:ns1="http://sozi.baierouge.fr" id="svg559" viewBox="0 0 992.13 496.06" version="1.0" y="0" x="0" inkscape:version="0.91 r13725">
  <rect id="rect828" style="fill-rule:evenodd;fill:#426dce" height="496.06" width="992.13" y=".000033051" x="0"/>
  <g id="g1257">
    <path id="path588" style="fill-rule:evenodd;stroke:#000000;fill:#ffffff" transform="matrix(1.9196 0 0 1.9196 249.65 5.1721)" d="m158.24 201.73s9.12-9.63 17.88-7.79c2.63-10.17 12.53-10.96 12.53-10.96s-0.96-11.21 11.74-13.67c0.35-7.62 8.06-13.93 8.06-13.93s-1.58-11.83 6.49-14.54c-4.91-9.38 1.66-16.21 1.57-16.39-0.09-0.17-8.32-14.81-0.96-19.01-7.8-6.574-5.26-14.022-5.26-14.022s-8.5-2.19-5.43-12.354c-7.01-1.227-8.41-12.53-8.41-12.53s-10.78 2.19-12.09-7.185c-7.1 1.139-7.89-5.871-7.98-5.871s-14.11 3.768-16.91-6.834c-5.43 2.804-7.8-2.191-7.8-2.191s-7.8 3.856-12.44-3.592c-9.29 5.783-14.46-0.263-14.46-0.263s-12.18 8.061-16.21 1.84c-7.18 7.273-13.578 4.118-13.578 4.118s-5.433 9.638-14.195 7.185c-2.015 8.937-12.092 9.113-12.092 9.113s1.052 7.886-11.04 9.989c-1.577 9.287-7.886 10.865-7.886 10.865s0.613 9.025-5.082 11.916c2.015 5.086-3.242 11.306-3.242 11.306s5.608 7.01-2.015 14.89c7.36 1.93 2.015 14.64 2.015 14.64s10.164 4.55 3.768 12.96c7.272 2.37 4.994 8.15 5.082 11.57 4.644 2.1 8.762 1.05 6.747 10.43 14.282 1.57 7.535 9.46 7.535 9.46s6.659 0.26 4.031 5.52c12.179-0.26 13.931 9.11 13.931 9.11s11.304-2.98 12.793 1.4c1.49 4.39-4.907 33.91-4.907 33.91s-9.55 0-16.648-7.62c-16.648-0.44-12.968-11.39-13.231-11.39-0.262 0-5.52 2.02-8.236-7.1-11.128 2.28-10.777-7.09-10.865-7.18s-4.994-2.28-3.154-6.92c-11.479 1.05-10.603-10.17-10.603-10.17-2.511-1.02-3.446-3.36-3.066-5.69-1.49-0.53-11.654-0.7-6.397-14.11-9.7257-5.87-3.68-12.62-3.68-12.62s-13.406-6.92-3.067-14.89c-7.7103-11.39 0.614-17.09 0.614-17.09s-10.69-10.87 0.175-18.576c-1.752-16.473 8.061-20.416 8.061-20.416s-5.169-13.406 8.85-19.014c0.876-13.581 10.69-13.931 10.69-13.931s0.263-10.778 15.684-9.726c2.979-9.639 13.494-7.711 13.494-7.711s3.242-11.654 17.524-6.046c7.272-14.194 18.05-6.922 18.05-6.922s6.83-4.4687 10.25-3.067c4.34-7.4567 13.58-0.289 19.55 1.154 2.17-0.841 9.89-6.6739 15.85 0.686 7.89-5.1693 14.63 4.119 14.63 4.119s10.87-5.52 15.95 7.097c23.05-2.103 19.72 12.968 19.72 12.968s18.13-4.118 14.19 13.932c16.47 1.139 14.81 12.004 14.81 12.004s10.43 7.886 5.87 14.983c9.29 0.438 5.87 9.376 5.87 9.376s7.1 2.716 1.23 13.76c13.58 10.86 2.62 21.64 2.54 21.55-0.09-0.09 7.27 8.76 0.61 18.93 2.02 16.12-6.13 20.24-6.13 20.24s2.1 10.42-7.01 13.4c-0.18 12.27-11.74 13.76-11.74 13.76s3.06 5.33-8.42 10.94c-0.45 8.2-12.44 8.86-12.44 8.86s-1.14 15.07-16.38 11.04c-3.7 12.1-21.56 8.5-21.91 8.33-0.35-0.18-3.42-25.94-3.42-26.03z"/>
    <path id="path711" style="stroke-linejoin:round;fill-rule:evenodd;stroke:#000000;fill:#217900" transform="matrix(1.9196 0 0 1.9196 249.65 5.1721)" d="m47.512 57.126c0.045 0 3.864 3.312 3.151 8.305s-3.597 11.933-3.017 17.105c0.354 2.073 0.22 5.787 0.22 5.787s-3.463-4.92-3.507-10.18c-0.045-5.261 3.749-10.255 3.749-14.134 0-3.878-0.685-6.972-0.596-6.883z"/>
    <path id="path712" style="stroke-linejoin:round;fill-rule:evenodd;stroke:#000000;fill:#217900" transform="matrix(1.9196 0 0 1.9196 249.65 5.1721)" d="m45.617 58.611s-5.013 4.785-5.658 9.435c-0.477 2.397-0.662 13.566-0.718 18.523-0.113 1.52-0.743 7.524-0.877 9.708-0.133 2.184 3.687-3.729 3.906-8.543-0.12-4.984-0.12-15.481 0.387-17.058 0.45-2.028 0.352-4.268 1.049-6.302 0.923-2.822 1.955-5.718 1.911-5.763z"/>
    <g id="g771" transform="matrix(1.9196 0 0 1.9196 249.65 5.1721)">
      <path id="path747" style="fill-rule:evenodd;stroke:#ef8a10;fill:#ffd200" d="m155.88 42.98s6.5-2.998 8.35-8.581c1.86-5.582-5.62-5.636-6.61-3.862-0.99 1.775 0.84 6.193 0.37 7.361s-3.11 3.988-2.11 5.082z"/>
      <path id="path748" style="fill-rule:evenodd;stroke:#ef8a10;stroke-width:1pt;fill:#ffd200" d="m98.281 45.017s4.219-5.781 3.129-11.562c-1.1-5.782-7.66-2.188-7.66-0.157 0 2.032 3.75 5.001 3.906 6.251 0.157 1.25-0.781 5 0.625 5.468z"/>
      <path id="path749" style="fill-rule:evenodd;stroke:#ef8a10;stroke-width:1pt;fill:#ffd200" d="m86.875 48.455s4.219-5.782 3.125-11.563-7.656-2.187-7.656-0.156 3.75 5 3.906 6.25-0.781 5 0.625 5.469z"/>
      <path id="path750" style="fill-rule:evenodd;stroke:#ef8a10;stroke-width:1pt;fill:#ffd200" d="m74.219 52.361s4.219-5.781 3.125-11.563c-1.094-5.781-7.656-2.187-7.656-0.156s3.75 5 3.906 6.25-0.781 5 0.625 5.469z"/>
      <path id="path751" style="fill-rule:evenodd;stroke:#ef8a10;stroke-width:1pt;fill:#ffd200" d="m65.313 61.267s4.218-5.781 3.125-11.562c-1.094-5.782-7.657-2.188-7.657-0.157 0 2.032 3.75 5 3.907 6.25 0.156 1.25-0.782 5 0.625 5.469z"/>
      <path id="path753" style="fill-rule:evenodd;stroke:#ef8a10;stroke-width:1pt;fill:#ffd200" d="m55.938 69.861s4.218-5.781 3.125-11.563c-1.094-5.781-7.657-2.187-7.657-0.156s3.75 5 3.907 6.25c0.156 1.25-0.782 5 0.625 5.469z"/>
      <path id="path755" style="fill-rule:evenodd;stroke:#ef8a10;fill:#ffd200" d="m77.493 19.798s-5.618 4.433-6.12 10.296c-0.501 5.862 6.786 4.166 7.333 2.209 0.546-1.956-2.267-5.824-2.082-7.07 0.186-1.246 2.097-4.606 0.869-5.435z"/>
      <path id="path756" style="fill-rule:evenodd;stroke:#ef8a10;fill:#ffd200" d="m96.243 14.016s-5.618 4.434-6.12 10.296c-0.501 5.863 6.786 4.166 7.333 2.21 0.546-1.957-2.267-5.824-2.082-7.07 0.186-1.246 2.097-4.606 0.869-5.436z"/>
      <path id="path757" style="fill-rule:evenodd;stroke:#ef8a10;fill:#ffd200" d="m26.37 64.632s1.187 7.058 6.086 10.316c4.9 3.258 6.916-3.948 5.463-5.367-1.453-1.42-6.197-0.812-7.201-1.574-1.003-0.762-3.03-4.053-4.348-3.375z"/>
      <path id="path758" style="stroke:#ef8a10;fill-rule:evenodd;fill:#ffd200" d="m17.006 88.597s0.058 7.157 4.382 11.148c4.324 3.985 7.451-2.807 6.241-4.438-1.211-1.631-5.992-1.78-6.862-2.691-0.871-0.91-2.353-4.48-3.761-4.019z"/>
      <path id="path759" style="stroke:#ef8a10;fill-rule:evenodd;fill:#ffd200" d="m38.61 115.37s-2.554-6.69-7.999-8.91c-5.446-2.23-6.002 5.23-4.298 6.33 1.704 1.11 6.235-0.42 7.369 0.13s3.77 3.37 4.928 2.45z"/>
      <path id="path760" style="stroke:#ef8a10;fill-rule:evenodd;fill:#ffd200" d="m34.122 103.8s4.33-5.702 3.349-11.503c-0.981-5.802-7.612-2.337-7.651-0.306-0.04 2.031 3.652 5.072 3.783 6.325 0.132 1.253-0.878 4.984 0.519 5.484z"/>
      <path id="path761" style="fill-rule:evenodd;stroke:#ef8a10;fill:#ffd200" d="m169.16 48.761s6.5-2.997 8.36-8.58c1.85-5.583-5.63-5.637-6.62-3.862-0.99 1.774 0.85 6.193 0.37 7.361-0.47 1.168-3.11 3.988-2.11 5.081z"/>
      <path id="path762" style="stroke:#ef8a10;fill-rule:evenodd;fill:#ffd200" d="m188.81 58.563s3.83-6.051 2.35-11.746-7.79-1.67-7.65 0.356c0.14 2.027 4.08 4.739 4.31 5.975 0.24 1.237-0.44 5.041 0.99 5.415z"/>
      <path id="path763" style="stroke:#ef8a10;fill-rule:evenodd;fill:#ffd200" d="m242.45 114.25s-2.57-6.68-8.01-8.9c-5.45-2.22-6 5.24-4.29 6.34 1.7 1.1 6.23-0.43 7.37 0.12 1.13 0.54 3.77 3.37 4.93 2.44z"/>
      <path id="path765" style="stroke:#ef8a10;fill-rule:evenodd;fill:#ffd200" d="m216.22 118.4s0.15-7.16 4.53-11.09c4.37-3.94 7.41 2.9 6.18 4.51-1.23 1.62-6.01 1.71-6.9 2.61-0.88 0.9-2.4 4.45-3.81 3.97z"/>
      <path id="path766" style="stroke:#ef8a10;fill-rule:evenodd;fill:#ffd200" d="m212 42.52s-6.69-2.542-11.97 0.041c-5.29 2.582-0.09 7.962 1.87 7.425s3.83-4.937 4.99-5.419c1.17-0.481 5.03-0.567 5.11-2.047z"/>
      <path id="path767" style="stroke:#ef8a10;fill-rule:evenodd;fill:#ffd200" d="m196.69 29.707s-6.69-2.541-11.98 0.041c-5.28 2.583-0.08 7.962 1.88 7.426 1.95-0.537 3.83-4.938 4.99-5.419 1.17-0.481 5.03-0.567 5.11-2.048z"/>
      <path id="path768" style="stroke:#ef8a10;fill-rule:evenodd;fill:#ffd200" d="m173.86 17.489s-5.68 4.365-6.25 10.221 6.73 4.249 7.31 2.299c0.57-1.95-2.2-5.851-2-7.095s2.15-4.58 0.94-5.425z"/>
      <path id="path769" style="stroke:#ef8a10;fill-rule:evenodd;fill:#ffd200" d="m158.99 13.912s-2.58 6.673-0.04 11.977c2.55 5.305 7.97 0.141 7.44-1.822-0.52-1.962-4.91-3.864-5.38-5.032-0.48-1.168-0.54-5.033-2.02-5.123z"/>
      <path id="path770" style="stroke:#ef8a10;fill-rule:evenodd;fill:#ffd200" d="m116.82 39.627s4.62-5.46 3.95-11.306c-0.67-5.845-7.48-2.736-7.62-0.71-0.15 2.026 3.37 5.258 3.44 6.517 0.07 1.258-1.14 4.93 0.23 5.499z"/>
    </g>
    <path id="path564" style="fill-rule:evenodd;stroke:#000000;fill:#8c8a8c" transform="matrix(1.9196 0 0 1.9196 249.65 5.1721)" d="m141.99 51.346s11.09 0.698 11.64 7.057c0.54 6.359-2.64 10.237-2.64 10.237s1.4 13.726-9.46 17.759c-11.63 1.395-29.86 0.31-29.86 0.31s-5.35 1.318-7.52-9.772c-2.17-11.089-2.79-18.922-2.79-18.922s1.08-6.204 8.92-6.592c7.83-0.387 31.64 0.078 31.71-0.077z"/>
    <path id="path565" style="stroke:#000000;stroke-linecap:round;fill:none" transform="matrix(1.9196 0 0 1.9196 249.65 5.1721)" d="m150.91 68.562s-5.97 7.445-5.35 10.469"/>
    <path id="path566" style="fill-rule:evenodd;stroke:#000000;fill:#8c8a8c" transform="matrix(1.9196 0 0 1.9196 249.65 5.1721)" d="m142.92 86.011c1.48 1.241 2.87 2.636 3.18 7.212 0.31 4.575 0.62 9.147 0.62 9.147l7.76 69.8 6.82 50.48 0.47 7.84s-1.63 5.74-6.2 6.2c-3.34 6.98-21.41 9-23.19 8.92-1.63-0.08-7.37-2.48-10.86-2.17s-9.54 2.63-12.25 2.25c-2.72-0.39-8.84-2.49-9.928-6.91-7.6-2.4-8.841-8.22-8.841-8.22l8.22-58.39 7.989-73.829s0.93-9.849 4.88-11.322c4.11-0.388 25.36 0.388 31.33-1.008z"/>
    <path id="path567" style="stroke:#000000;fill:none" transform="matrix(1.9196 0 0 1.9196 249.65 5.1721)" d="m101.05 187.06l-1.631 51.65"/>
    <path id="path568" style="stroke:#000000;fill:none" transform="matrix(1.9196 0 0 1.9196 249.65 5.1721)" d="m151.22 193.88l4.58 42.58"/>
    <path id="polygon563" style="stroke:#000000;fill-rule:evenodd;fill:#ffffff" transform="matrix(1.9196 0 0 1.9196 250.34 8.6183)" d="m167.67 179.16l-40.18-27.07-40.778 27.2 13.328-46.58-38.473-30.38 48.423-1.72 17-45.972 16.6 45.512 48.98 1.97-38.16 29.85 13.26 47.19z"/>
    <path id="path571" style="stroke:#000000;fill:none" transform="matrix(-1.9196 0 0 1.9196 732.75 8.7661)" d="m233.1 158.35l0.17 0.59"/>
    <path id="path579" style="stroke:#000000;fill:none" transform="matrix(1.9196 0 0 1.9196 249.65 5.172)" d="m233.1 158.35l0.17 0.59"/>
    <path id="path583" style="stroke-linejoin:round;stroke:#6b18b5;fill:none" transform="matrix(1.9196 0 0 1.9196 249.65 5.1721)" d="m12.806 90.494s3.398 4.705 4.008 7.405c0.61 2.701 1.742 8.011 3.223 10.191s9.932 14.29 10.367 19.34c0.087 3.31-3.485 8.98-8.799 9.06-3.31-0.08-11.848-2.26-12.196-9.58-0.3487-7.32 2.613-7.49 2.962-11.94 0.348-4.44 0.435-24.389 0.435-24.476z"/>
    <path id="path584" style="stroke-linejoin:round;stroke:#6b18b5;fill:none" transform="matrix(1.9196 0 0 1.9196 249.65 5.1721)" d="m71.175 26.434s-3.517 0.251-6.225 1.719c-2.099 1.294-5.653 3.156-8.137 6.6-6.317 4.925-15.821 7.223-18.818 11.314-1.795 2.783-1.684 9.477 2.811 12.312 2.874 1.646 11.301 4.22 15.4-1.852 4.1-6.071 1.659-7.759 3.67-11.737 3.317-9.117 11.254-18.281 11.299-18.356z"/>
    <path id="path585" style="stroke-linejoin:round;stroke:#6b18b5;fill:none" transform="matrix(1.9196 0 0 1.9196 249.65 5.1721)" d="m156.5 17.548s-2.63-2.353-5.56-3.277c-2.39-0.607-6.37-0.343-10.49-0.747-7.93-1.113-16.11-6.8496-21.13-6.1568-3.25 0.6472-7.98 5.3828-6.89 10.585 0.81 3.209 4.4 9.7 11.62 8.421 7.21-1.278 7.15-2.852 11.4-4.174 10.38-5.821 20.97-4.632 21.05-4.651z"/>
    <path id="path586" style="stroke-linejoin:round;stroke:#6b18b5;fill:none" transform="matrix(1.9196 0 0 1.9196 249.65 5.1721)" d="m241.12 99.794c0.6-1.353-0.5-3.898-1.27-6.879-0.75-2.348-1.87-5.991-4.62-9.23-3.26-7.315-2.71-17.346-5.96-21.238-2.27-2.411-8.79-3.911-12.62-0.228-2.29 2.395-6.81 9.956-1.91 15.394 4.91 5.438 7.05 3.389 10.43 6.296 8.06 5.41 12 14.893 15.95 15.885z"/>
    <path id="path587" style="stroke-linejoin:round;stroke:#6b18b5;fill:none" transform="matrix(1.9196 0 0 1.9196 249.65 5.1721)" d="m238.24 163.69c1.1-1.52 3.07-4.45 2.83-6.9-0.18-1.93 0.89-7.8 1.01-10.36 0.72-7.98 5.72-14.45 4.36-21.39-0.8-3.21-5.51-7.79-10.65-6.45-3.17 0.97-10.22 4.85-8.59 11.99 1.62 7.15 3.93 7.03 5.46 11.22 4.38 8.65 1.58 18.93 5.58 21.89z"/>
    <path id="path589" style="stroke:#000000;fill:none" transform="matrix(1.9196 0 0 1.9196 249.65 5.1721)" d="m179.53 214.41s-1.35 2.6 4.06 4.89"/>
    <path id="path590" style="stroke:#000000;fill:none" transform="matrix(1.9196 0 0 1.9196 249.65 5.1721)" d="m190.35 208.27s6.03-1.46 10.09 0"/>
    <path id="path591" style="stroke:#000000;fill:none" transform="matrix(1.9196 0 0 1.9196 249.65 5.1721)" d="m208.34 193.08c0 0.11-0.83 2.71 3.96 6.45"/>
    <path id="path592" style="stroke:#000000;fill:none" transform="matrix(1.9196 0 0 1.9196 249.65 5.1721)" d="m211.78 186.32s3.53 2.6 9.46 2.5"/>
    <path id="path593" style="stroke:#000000;fill:none" transform="matrix(1.9196 0 0 1.9196 249.65 5.1721)" d="m176.1 193.92s0.21 6.86-3.33 10.09"/>
    <path id="path594" style="stroke:#000000;fill:none" transform="matrix(1.9196 0 0 1.9196 249.65 5.1721)" d="m187.96 183.31s5.82 1.45 10.61-0.94"/>
    <path id="path595" style="stroke:#000000;fill:none" transform="matrix(1.9196 0 0 1.9196 249.65 5.1721)" d="m225.3 173.22s1.25 1.76 7.7 1.45"/>
    <path id="path596" style="stroke:#000000;fill:none" transform="matrix(1.9196 0 0 1.9196 249.65 5.1721)" d="m200.13 169.16c0.21 0.1 7.59 2.5 12.27 0.31"/>
    <path id="path597" style="stroke:#000000;fill:none" transform="matrix(1.9196 0 0 1.9196 249.65 5.1721)" d="m214.9 140.87s0.31-0.42 2.6 7.59"/>
    <path id="path598" style="stroke:#000000;fill:none" transform="matrix(1.9196 0 0 1.9196 249.65 5.1721)" d="m220.62 118.3s-0.31 4.26-3.75 6.13"/>
    <path id="path599" style="stroke:#000000;fill:none" transform="matrix(1.9196 0 0 1.9196 249.65 5.1721)" d="m242.57 100.82s-5 4.06-4.06 5.72"/>
    <path id="path600" style="stroke:#000000;fill:none" transform="matrix(1.9196 0 0 1.9196 249.65 5.1721)" d="m217.71 97.909s2.6 4.371-1.67 7.381"/>
    <path id="path601" style="stroke:#000000;fill:none" transform="matrix(1.9196 0 0 1.9196 249.65 5.1721)" d="m205.12 79.186s4.47-0.208 6.45 3.64"/>
    <path id="path602" style="stroke:#000000;fill:none" transform="matrix(1.9196 0 0 1.9196 249.65 5.1721)" d="m196.69 66.496h3.44"/>
    <path id="path603" style="stroke:#000000;fill:none" transform="matrix(1.9196 0 0 1.9196 249.65 5.1721)" d="m214.48 50.893c0 0.104 0.94 0.936-0.83 2.705"/>
    <path id="path604" style="stroke:#000000;fill:none" transform="matrix(1.9196 0 0 1.9196 249.65 5.1721)" d="m182.55 51.309s2.39 3.745 1.97 8.322"/>
    <path id="path605" style="stroke:#000000;fill:none" transform="matrix(1.9196 0 0 1.9196 249.65 5.1721)" d="m196.38 38.619c1.04-0.104 4.58-1.664 4.58-1.664"/>
    <path id="path606" style="stroke:#000000;fill:none" transform="matrix(1.9196 0 0 1.9196 249.65 5.1721)" d="m180.99 23.745c-0.11 0-1.35 4.681 0.93 6.345"/>
    <path id="path607" style="stroke:#000000;fill:none" transform="matrix(1.9196 0 0 1.9196 249.65 5.1721)" d="m175.27 45.068c0 4.993 3.95 3.745 1.25 8.53"/>
    <path id="path608" style="stroke:#000000;fill:none" transform="matrix(1.9196 0 0 1.9196 249.65 5.1721)" d="m165.59 40.908c-0.1 0-6.24 4.784-6.24 5.617"/>
    <path id="path609" style="stroke:#000000;fill:none" transform="matrix(1.9196 0 0 1.9196 249.65 5.1721)" d="m149.58 38.307s2.6 2.601 1.97 6.137"/>
    <path id="path610" style="stroke:#000000;fill:none" transform="matrix(1.9196 0 0 1.9196 249.65 5.1721)" d="m141.98 36.227s-1.35 3.953-3.12 4.993"/>
    <path id="path611" style="stroke:#000000;fill:none" transform="matrix(1.9196 0 0 1.9196 249.65 5.1721)" d="m128.15 35.187c-0.11 0.208-2.19 4.681-3.64 5.513"/>
    <path id="path612" style="stroke:#000000;fill:none" transform="matrix(1.9196 0 0 1.9196 249.65 5.1721)" d="m109.22 35.291c0.1 0 2.08 4.161-0.52 7.177"/>
    <path id="path613" style="stroke:#000000;fill:none" transform="matrix(1.9196 0 0 1.9196 249.65 5.1721)" d="m104.85 13.76c0.1 0.103 0.41 3.224-1.56 5.928"/>
    <path id="path614" style="stroke:#000000;fill:none" transform="matrix(1.9196 0 0 1.9196 249.65 5.1721)" d="m86.125 20.833c0 0.104 0.833 3.536-4.68 4.68"/>
    <path id="path615" style="stroke:#000000;fill:none" transform="matrix(1.9196 0 0 1.9196 249.65 5.1721)" d="m75.516 52.558c0.104 0.208 5.305 1.04 5.305 1.04"/>
    <path id="path616" style="stroke:#000000;fill:none" transform="matrix(1.9196 0 0 1.9196 249.65 5.1721)" d="m62.514 64.623c0.104-0.104 6.345-1.976 6.345-1.976"/>
    <path id="path617" style="stroke:#000000;fill:none" transform="matrix(1.9196 0 0 1.9196 249.65 5.1721)" d="m52.424 72.425c0.208 0 4.369 0.728 5.409 0.208"/>
    <path id="path618" style="stroke:#000000;fill:none" transform="matrix(1.9196 0 0 1.9196 249.65 5.1721)" d="m49.512 76.273s1.352 0.728 0.208 7.697"/>
    <path id="path619" style="stroke:#000000;fill:none" transform="matrix(1.9196 0 0 1.9196 249.65 5.1721)" d="m29.229 57.966l2.496 3.745"/>
    <path id="path620" style="stroke:#000000;fill:none" transform="matrix(1.9196 0 0 1.9196 249.65 5.1721)" d="m20.699 77.209c0-0.104 2.497 3.745 5.825 4.473"/>
    <path id="path621" style="stroke:#000000;fill:none" transform="matrix(1.9196 0 0 1.9196 249.65 5.1721)" d="m40.358 96.764c0.104 0 4.057-0.832 4.681-1.248"/>
    <path id="path622" style="stroke:#000000;fill:none" transform="matrix(1.9196 0 0 1.9196 249.65 5.1721)" d="m38.59 110.91c0.104 0-0.104-2.6 3.121-4.37"/>
    <path id="path623" style="stroke:#000000;fill:none" transform="matrix(1.9196 0 0 1.9196 249.65 5.1721)" d="m34.325 117.36c0 0.1 3.017 3.85 5.097 4.37"/>
    <path id="path624" style="stroke:#000000;fill:none" transform="matrix(1.9196 0 0 1.9196 249.65 5.1721)" d="m32.557 124.54c0.312-0.11 3.537-2.92 7.281-2.71"/>
    <path id="path625" style="stroke:#000000;fill:none" transform="matrix(1.9196 0 0 1.9196 249.65 5.1721)" d="m31.517 134.21s0.104 3.22 9.673 2.39"/>
    <path id="path626" style="stroke:#000000;fill:none" transform="matrix(1.9196 0 0 1.9196 249.65 5.1721)" d="m32.453 145.55c0-0.11 2.809-6.45 8.529-8.84"/>
    <path id="path627" style="stroke:#000000;fill:none" transform="matrix(1.9196 0 0 1.9196 249.65 5.1721)" d="m40.15 153.66s0.832-2.7 5.617-4.58"/>
    <path id="path628" style="stroke:#000000;fill:none" transform="matrix(1.9196 0 0 1.9196 249.65 5.1721)" d="m45.455 164.38s3.433-2.81 4.681-3.23"/>
    <path id="path629" style="stroke:#000000;fill:none" transform="matrix(1.9196 0 0 1.9196 249.65 5.1721)" d="m49.72 172.7s2.08 2.18 7.281-1.56"/>
    <path id="path630" style="stroke:#000000;fill:none" transform="matrix(1.9196 0 0 1.9196 249.65 5.1721)" d="m24.652 174.46c0.624-0.1 8.217-1.87 10.818 2.08"/>
    <path id="path631" style="stroke:#000000;fill:none" transform="matrix(1.9196 0 0 1.9196 249.65 5.1721)" d="m27.668 180.71s8.01-1.04 9.05-0.21"/>
    <path id="path632" style="stroke:#000000;fill:none" transform="matrix(1.9196 0 0 1.9196 249.65 5.1721)" d="m56.273 182.37s-1.04 2.18 8.841-1.46"/>
    <path id="path633" style="stroke:#000000;fill:none" transform="matrix(1.9196 0 0 1.9196 249.65 5.1721)" d="m68.547 186.32c-1.769 3.02 0.416 5.41-1.873 6.76"/>
    <path id="path634" style="stroke:#000000;fill:none" transform="matrix(1.9196 0 0 1.9196 249.65 5.1721)" d="m38.486 190.48c0.312-0.2 3.641-1.35 3.121-6.13"/>
    <path id="path635" style="stroke:#000000;fill:none" transform="matrix(1.9196 0 0 1.9196 249.65 5.1721)" d="m41.502 197.66c0.417-0.1 5.929-2.5 7.074-1.25"/>
    <path id="path636" style="stroke:#000000;fill:none" transform="matrix(1.9196 0 0 1.9196 249.65 5.1721)" d="m52.32 204.63s0.728-4.89 2.289-5.41"/>
    <path id="path637" style="stroke:#000000;fill:none" transform="matrix(1.9196 0 0 1.9196 249.65 5.1721)" d="m60.642 212.01s4.576-0.1 6.553-1.56"/>
    <path id="path638" style="stroke:#000000;fill:none" transform="matrix(1.9196 0 0 1.9196 249.65 5.1721)" d="m69.483 195.48c0.104 0.1 4.265 2.28 13.106 0.1"/>
    <path id="path639" style="stroke:#000000;fill:none" transform="matrix(1.9196 0 0 1.9196 249.65 5.1721)" d="m72.811 215.34s1.249 6.35 1.145 7.8"/>
    <g id="g915" style="fill:#de2010" transform="matrix(1.9196 0 0 1.9196 249.65 3.7381)">
      <path id="path647" style="fill-rule:evenodd;stroke:#000000;stroke-width:1pt" transform="matrix(.96309 -.12038 .12403 .99228 -6.4475 28.447)" d="m232.84 119.03a4.1776 5.8978 0 1 0 -8.35 0 4.1776 5.8978 0 1 0 8.35 0z"/>
      <path id="path648" style="fill-rule:evenodd;stroke:#000000;stroke-width:1pt" transform="matrix(.96309 -.12038 .12403 .99228 -7.3076 17.88)" d="m232.84 119.03a4.1776 5.8978 0 1 0 -8.35 0 4.1776 5.8978 0 1 0 8.35 0z"/>
      <path id="path649" style="fill-rule:evenodd;stroke:#000000;stroke-width:1pt" transform="matrix(.94879 -.20455 .21075 .97754 -16.448 27.945)" d="m232.84 119.03a4.1776 5.8978 0 1 0 -8.35 0 4.1776 5.8978 0 1 0 8.35 0z"/>
      <path id="path650" style="fill-rule:evenodd;stroke:#000000;stroke-width:1pt" transform="matrix(.86530 -.43966 .45298 .89152 -29.753 81.132)" d="m232.84 119.03a4.1776 5.8978 0 1 0 -8.35 0 4.1776 5.8978 0 1 0 8.35 0z"/>
      <path id="path651" style="fill-rule:evenodd;stroke:#000000;stroke-width:1pt" transform="matrix(.86530 -.43966 .45298 .89152 -33.93 71.671)" d="m232.84 119.03a4.1776 5.8978 0 1 0 -8.35 0 4.1776 5.8978 0 1 0 8.35 0z"/>
      <path id="path652" style="fill-rule:evenodd;stroke:#000000;stroke-width:1pt" transform="matrix(.82496 -.51136 .52685 .84996 -39.274 83.797)" d="m232.84 119.03a4.1776 5.8978 0 1 0 -8.35 0 4.1776 5.8978 0 1 0 8.35 0z"/>
      <path id="path653" style="fill-rule:evenodd;stroke:#000000;stroke-width:1pt" transform="matrix(.77166 -.58872 .60656 .79504 -42.963 99.176)" d="m232.84 119.03a4.1776 5.8978 0 1 0 -8.35 0 4.1776 5.8978 0 1 0 8.35 0z"/>
      <path id="path654" style="fill-rule:evenodd;stroke:#000000;stroke-width:1pt" transform="matrix(.67817 -.69436 .71540 .69872 -42.035 126.69)" d="m232.84 119.03a4.1776 5.8978 0 1 0 -8.35 0 4.1776 5.8978 0 1 0 8.35 0z"/>
      <path id="path655" style="fill-rule:evenodd;stroke:#000000;stroke-width:1pt" transform="matrix(.61142 -.75379 .77664 .62995 -42.664 140.85)" d="m232.84 119.03a4.1776 5.8978 0 1 0 -8.35 0 4.1776 5.8978 0 1 0 8.35 0z"/>
      <path id="path656" style="fill-rule:evenodd;stroke:#000000;stroke-width:1pt" transform="matrix(.47780 -.84484 .87044 .49228 -32.121 172.16)" d="m232.84 119.03a4.1776 5.8978 0 1 0 -8.35 0 4.1776 5.8978 0 1 0 8.35 0z"/>
      <path id="path657" style="fill-rule:evenodd;stroke:#000000;stroke-width:1pt" transform="matrix(.39893 -.88482 .91163 .41101 -29.187 185.56)" d="m232.84 119.03a4.1776 5.8978 0 1 0 -8.35 0 4.1776 5.8978 0 1 0 8.35 0z"/>
      <path id="path658" style="fill-rule:evenodd;stroke:#000000;stroke-width:1pt" transform="matrix(.33871 -.90957 .93714 .34897 -28.529 194.55)" d="m232.84 119.03a4.1776 5.8978 0 1 0 -8.35 0 4.1776 5.8978 0 1 0 8.35 0z"/>
      <path id="path659" style="fill-rule:evenodd;stroke:#000000;stroke-width:1pt" transform="matrix(.26830 -.93277 .96104 .27643 -25.473 205.3)" d="m232.84 119.03a4.1776 5.8978 0 1 0 -8.35 0 4.1776 5.8978 0 1 0 8.35 0z"/>
      <path id="path660" style="fill-rule:evenodd;stroke:#000000;stroke-width:1pt" transform="matrix(.12145 -.96296 .99214 .12513 -6.5303 228.37)" d="m232.84 119.03a4.1776 5.8978 0 1 0 -8.35 0 4.1776 5.8978 0 1 0 8.35 0z"/>
      <path id="path663" style="fill-rule:evenodd;stroke:#000000;stroke-width:1pt" transform="matrix(.038945 -.96981 .99920 .040124 .43684 239.44)" d="m232.84 119.03a4.1776 5.8978 0 1 0 -8.35 0 4.1776 5.8978 0 1 0 8.35 0z"/>
      <path id="path664" style="fill-rule:evenodd;stroke:#000000;stroke-width:1pt" transform="matrix(.038945 -.96981 .99920 .040124 -10.007 239.81)" d="m232.84 119.03a4.1776 5.8978 0 1 0 -8.35 0 4.1776 5.8978 0 1 0 8.35 0z"/>
      <path id="path665" style="fill-rule:evenodd;stroke:#000000;stroke-width:1pt" transform="matrix(-.21629 -.94618 .97486 -.22284 40.071 267.06)" d="m232.84 119.03a4.1776 5.8978 0 1 0 -8.35 0 4.1776 5.8978 0 1 0 8.35 0z"/>
      <path id="path667" style="fill-rule:evenodd;stroke:#000000;stroke-width:1pt" transform="matrix(-.29359 -.92512 .95316 -.30249 49.518 274.42)" d="m232.84 119.03a4.1776 5.8978 0 1 0 -8.35 0 4.1776 5.8978 0 1 0 8.35 0z"/>
      <path id="path669" style="fill-rule:evenodd;stroke:#000000;stroke-width:1pt" transform="matrix(-.40169 -.88356 .91034 -.41387 69.626 282.36)" d="m232.84 119.03a4.1776 5.8978 0 1 0 -8.35 0 4.1776 5.8978 0 1 0 8.35 0z"/>
      <path id="path670" style="fill-rule:evenodd;stroke:#000000;stroke-width:1pt" transform="matrix(-.47560 -.84607 .87171 -.49002 81.296 287.89)" d="m232.84 119.03a4.1776 5.8978 0 1 0 -8.35 0 4.1776 5.8978 0 1 0 8.35 0z"/>
      <path id="path672" style="fill-rule:evenodd;stroke:#000000;stroke-width:1pt" transform="matrix(-.56473 -.78938 .81330 -.58184 99.413 292.12)" d="m232.84 119.03a4.1776 5.8978 0 1 0 -8.35 0 4.1776 5.8978 0 1 0 8.35 0z"/>
      <path id="path673" style="fill-rule:evenodd;stroke:#000000;stroke-width:1pt" transform="matrix(-.62950 -.73876 .76115 -.64857 111.83 295)" d="m232.84 119.03a4.1776 5.8978 0 1 0 -8.35 0 4.1776 5.8978 0 1 0 8.35 0z"/>
      <path id="path674" style="fill-rule:evenodd;stroke:#000000;stroke-width:1pt" transform="matrix(-.68085 -.69172 .71269 -.70148 121.72 298.53)" d="m232.84 119.03a4.1776 5.8978 0 1 0 -8.35 0 4.1776 5.8978 0 1 0 8.35 0z"/>
      <path id="path675" style="fill-rule:evenodd;stroke:#000000;stroke-width:1pt" transform="matrix(-.73636 -.63231 .65147 -.75868 135.19 300.6)" d="m232.84 119.03a4.1776 5.8978 0 1 0 -8.35 0 4.1776 5.8978 0 1 0 8.35 0z"/>
      <path id="path676" style="fill-rule:evenodd;stroke:#000000;stroke-width:1pt" transform="matrix(-.79959 -.55018 .56685 -.82382 153.82 298.54)" d="m232.84 119.03a4.1776 5.8978 0 1 0 -8.35 0 4.1776 5.8978 0 1 0 8.35 0z"/>
      <path id="path677" style="fill-rule:evenodd;stroke:#000000;stroke-width:1pt" transform="matrix(-.88221 -.40465 .41691 -.90895 185.77 285.35)" d="m232.84 119.03a4.1776 5.8978 0 1 0 -8.35 0 4.1776 5.8978 0 1 0 8.35 0z"/>
      <path id="path678" style="fill-rule:evenodd;stroke:#000000;stroke-width:1pt" transform="matrix(-.91526 -0.323 .33279 -0.943 199.41 281.42)" d="m232.84 119.03a4.1776 5.8978 0 1 0 -8.35 0 4.1776 5.8978 0 1 0 8.35 0z"/>
      <path id="path680" style="fill-rule:evenodd;stroke:#000000;stroke-width:1pt" transform="matrix(-.96644 -.071865 .092361 -.79822 236.41 226.61)" d="m232.84 119.03a4.1776 5.8978 0 1 0 -8.35 0 4.1776 5.8978 0 1 0 8.35 0z"/>
      <path id="path679" style="fill-rule:evenodd;stroke:#000000;stroke-width:1pt" transform="matrix(-.94631 -.21571 .22224 -.97499 217.21 271.39)" d="m232.84 119.03a4.1776 5.8978 0 1 0 -8.35 0 4.1776 5.8978 0 1 0 8.35 0z"/>
    </g>
    <path id="path666" style="fill-rule:evenodd;fill:#ffe300" transform="matrix(1.9196 0 0 1.9196 249.65 5.1721)" d="m224.14 99.365c1.29-1.375 2.48-1.764 4-1.262-0.54-3.628-1.68-4.859-3.08-4.422s-2.03 2.302-0.92 5.684z"/>
    <path id="path668" style="fill-rule:evenodd;fill:#ffe300" transform="matrix(1.9196 0 0 1.9196 249.65 5.1721)" d="m226.11 110.31c1.38-1.27 2.6-1.57 4.07-0.95-0.25-3.66-1.31-4.98-2.73-4.65-1.43 0.33-2.2 2.15-1.34 5.6z"/>
    <path id="path671" style="fill-rule:evenodd;fill:#ffe300" transform="matrix(1.9196 0 0 1.9196 249.65 5.1721)" d="m221.46 89.371c0.9-1.656 1.95-2.335 3.54-2.235-1.43-3.373-2.86-4.272-4.1-3.494s-1.38 2.742 0.56 5.729z"/>
    <path id="path681" style="fill-rule:evenodd;fill:#ffe300" transform="matrix(1.9196 0 0 1.9196 249.65 5.1721)" d="m216.59 79.407c0.9-1.656 1.95-2.336 3.54-2.235-1.43-3.373-2.86-4.272-4.1-3.494-1.24 0.777-1.38 2.742 0.56 5.729z"/>
    <path id="path682" style="fill-rule:evenodd;fill:#ffe300" transform="matrix(1.9196 0 0 1.9196 249.65 5.1721)" d="m204.9 61.155c0.62-1.778 1.55-2.619 3.14-2.775-1.96-3.098-3.51-3.757-4.61-2.79s-0.92 2.928 1.47 5.565z"/>
    <path id="path683" style="fill-rule:evenodd;fill:#ffe300" transform="matrix(1.9196 0 0 1.9196 249.65 5.1721)" d="m197.27 53.201c0.55-1.801 1.45-2.676 3.03-2.892-2.08-3.022-3.65-3.621-4.72-2.613-1.06 1.008-0.81 2.961 1.69 5.505z"/>
    <path id="path684" style="fill-rule:evenodd;fill:#ffe300" transform="matrix(1.9196 0 0 1.9196 249.65 5.1721)" d="m181.21 39.652c-0.03-1.882 0.56-2.992 1.99-3.684-2.9-2.235-4.59-2.321-5.29-1.035s0.14 3.067 3.3 4.719z"/>
    <path id="path685" style="fill-rule:evenodd;fill:#ffe300" transform="matrix(1.9196 0 0 1.9196 249.79 5.172)" d="m189.49 45.917c0.29-1.859 1.07-2.851 2.6-3.283-2.48-2.706-4.12-3.081-5.03-1.936-0.91 1.146-0.39 3.045 2.43 5.219z"/>
    <path id="path686" style="fill-rule:evenodd;fill:#ffe300" transform="matrix(1.9196 0 0 1.9196 249.65 5.1721)" d="m171.68 34.391c-0.23-1.868 0.24-3.033 1.6-3.869-3.12-1.924-4.8-1.836-5.37-0.484-0.56 1.352 0.46 3.035 3.77 4.353z"/>
    <path id="path687" style="fill-rule:evenodd;fill:#ffe300" transform="matrix(1.9196 0 0 1.9196 249.65 5.1721)" d="m161.94 30.138c-0.5-1.816-0.2-3.036 1.03-4.058-3.37-1.457-5.02-1.13-5.38 0.289-0.37 1.419 0.88 2.939 4.35 3.769z"/>
    <path id="path688" style="fill-rule:evenodd;fill:#ffe300" transform="matrix(1.9196 0 0 1.9196 249.65 5.1721)" d="m151.44 26.886c-0.64-1.768-0.45-3.009 0.68-4.131-3.47-1.167-5.09-0.701-5.33 0.744-0.25 1.444 1.13 2.853 4.65 3.387z"/>
    <path id="path689" style="fill-rule:evenodd;fill:#ffe300" transform="matrix(1.9196 0 0 1.9196 249.65 5.1721)" d="m141.13 24.89c-0.77-1.717-0.67-2.969 0.38-4.169-3.55-0.913-5.13-0.331-5.27 1.127s1.34 2.764 4.89 3.042z"/>
    <path id="path690" style="fill-rule:evenodd;fill:#ffe300" transform="matrix(1.9196 0 0 1.9196 249.65 5.1721)" d="m130.21 24.053c-0.95-1.628-0.97-2.884-0.05-4.186-3.63-0.54-5.14 0.202-5.13 1.667 0.02 1.465 1.62 2.611 5.18 2.519z"/>
    <path id="path691" style="fill-rule:evenodd;fill:#ffe300" transform="matrix(1.9196 0 0 1.9196 249.65 5.1721)" d="m108.83 25.664c-1.31-1.352-1.64-2.566-1.06-4.051-3.65 0.351-4.94 1.435-4.57 2.854 0.36 1.419 2.2 2.144 5.63 1.197z"/>
    <path id="path692" style="fill-rule:evenodd;fill:#ffe300" transform="matrix(1.9196 0 0 1.9196 249.51 4.6053)" d="m119.43 24.574c-1.11-1.517-1.27-2.763-0.5-4.157-3.67-0.147-5.09 0.754-4.92 2.209s1.89 2.422 5.42 1.948z"/>
    <path id="path693" style="fill-rule:evenodd;fill:#ffe300" transform="matrix(1.9196 0 0 1.9196 249.65 5.1721)" d="m98.506 27.894c-1.489-1.15-1.988-2.304-1.63-3.856-3.562 0.87-4.68 2.128-4.115 3.479 0.566 1.351 2.482 1.807 5.745 0.377z"/>
    <path id="path694" style="fill-rule:evenodd;fill:#ffe300" transform="matrix(1.9196 0 0 1.9196 249.65 5.1721)" d="m78.737 36.984c-1.681-0.846-2.39-1.884-2.334-3.476-3.332 1.532-4.19 2.979-3.377 4.198 0.812 1.22 2.78 1.303 5.711-0.722z"/>
    <path id="path695" style="fill-rule:evenodd;fill:#ffe300" transform="matrix(1.9196 0 0 1.9196 249.79 5.172)" d="m88.195 32.114c-1.565-1.044-2.143-2.16-1.894-3.733-3.493 1.115-4.521 2.448-3.862 3.757 0.658 1.309 2.601 1.63 5.756-0.024z"/>
    <path id="path696" style="fill-rule:evenodd;fill:#ffe300" transform="matrix(1.9196 0 0 1.9196 249.65 5.1721)" d="m61.007 49.329c-1.82-0.477-2.73-1.344-3.007-2.913-2.939 2.192-3.477 3.787-2.429 4.81 1.049 1.023 2.991 0.694 5.436-1.897z"/>
    <path id="path697" style="fill-rule:evenodd;fill:#ffe300" transform="matrix(1.9196 0 0 1.9196 249.09 4.8887)" d="m69.759 42.553c-1.777-0.618-2.616-1.554-2.77-3.139-3.101 1.955-3.762 3.503-2.797 4.605s2.927 0.926 5.567-1.466z"/>
    <path id="path698" style="fill-rule:evenodd;fill:#ffe300" transform="matrix(1.9196 0 0 1.9196 249.65 5.1721)" d="m53.488 56.735c-1.856-0.31-2.841-1.091-3.26-2.628-2.727 2.45-3.118 4.087-1.981 5.011 1.138 0.923 3.041 0.419 5.241-2.383z"/>
    <path id="path699" style="fill-rule:evenodd;fill:#ffe300" transform="matrix(1.9196 0 0 1.9196 249.65 5.1721)" d="m46.751 65.475c-1.876-0.141-2.928-0.829-3.484-2.321-2.494 2.687-2.735 4.353-1.518 5.169 1.216 0.817 3.066 0.142 5.002-2.848z"/>
    <path id="path700" style="fill-rule:evenodd;fill:#ffe300" transform="matrix(1.9196 0 0 1.9196 249.65 5.1721)" d="m41.117 74.416c-1.876 0.148-3.021-0.371-3.799-1.761-2.053 3.039-2.035 4.721-0.708 5.342s3.052-0.33 4.507-3.581z"/>
    <path id="path701" style="fill-rule:evenodd;fill:#ffe300" transform="matrix(1.9196 0 0 1.9196 249.65 5.1721)" d="m36.167 83.962c-1.841 0.391-3.043 0.024-3.995-1.253-1.642 3.279-1.406 4.945-0.01 5.389 1.397 0.443 2.984-0.723 4.005-4.136z"/>
    <path id="path702" style="fill-rule:evenodd;fill:#ffe300" transform="matrix(1.9196 0 0 1.9196 249.65 5.1721)" d="m32.208 93.758c-1.755 0.678-3 0.507-4.143-0.603-1.101 3.497-0.604 5.105 0.845 5.322 1.449 0.216 2.831-1.187 3.298-4.719z"/>
    <path id="path703" style="fill-rule:evenodd;fill:#ffe300" transform="matrix(1.9196 0 0 1.9196 249.65 5.1721)" d="m29.555 104.68c-1.706 0.79-2.96 0.7-4.174-0.33-0.865 3.56-0.261 5.14 1.199 5.25 1.46 0.12 2.746-1.37 2.975-4.92z"/>
    <path id="path704" style="fill-rule:evenodd;fill:#ffe300" transform="matrix(1.9196 0 0 1.9196 249.65 5.1721)" d="m28.477 113.76c-1.606 0.85-2.858 0.95-4.17 0.31-0.478 2.91 0.287 4.05 1.746 3.95 1.46-0.1 2.575-1.44 2.424-4.26z"/>
    <path id="path705" style="fill-rule:evenodd;fill:#ffe300" transform="matrix(1.9196 0 0 1.9196 249.65 5.1721)" d="m212.24 70.532c0.65-1.768 1.59-2.595 3.18-2.727-1.91-3.127-3.45-3.809-4.57-2.859-1.11 0.95-0.96 2.914 1.39 5.586z"/>
    <path id="path706" style="fill-rule:evenodd;fill:#ffe300" transform="matrix(1.9196 0 0 1.9196 249.65 5.1721)" d="m227.31 121.4c1.38-1.27 2.6-1.57 4.07-0.95-0.25-3.66-1.31-4.97-2.73-4.64-1.43 0.33-2.2 2.14-1.34 5.59z"/>
    <path id="path709" style="stroke-linejoin:round;fill-rule:evenodd;stroke:#000000;fill:#217900" transform="matrix(1.9196 0 0 1.9196 249.65 5.1721)" d="m212.95 61.868c-0.04 0-4.14 4.101-3.43 9.094s3.88 11.145 3.3 16.316-1.52 8.603-1.52 8.603 4.82-5.483 4.86-10.743c0.05-5.26-3.3-12.17-3.3-16.049 0-3.878 0.18-7.31 0.09-7.221z"/>
    <path id="path710" style="stroke-linejoin:round;fill-rule:evenodd;stroke:#000000;fill:#217900" transform="matrix(1.9196 0 0 1.9196 249.65 5.1721)" d="m220.58 78.629s-3.21 2.363-2.9 7.802c0.31 5.438 5.93 15.419 5.93 15.419s4.1 8.43 3.96 10.61c-0.13 2.19 0.76-2.09 0.36-6.91-0.4-4.81-6.6-15.419-6.6-15.419s-1.33-2.185-1.2-5.796c0.13-3.61 0.49-5.661 0.45-5.706z"/>
    <path id="path713" style="fill-rule:evenodd;fill:#6b18b5" transform="matrix(1.9196 0 0 1.9196 249.65 5.1721)" d="m124.13 11.24a2.8277 2.0376 0 1 0 -5.66 0 2.8277 2.0376 0 1 0 5.66 0z"/>
    <path id="path714" style="fill-rule:evenodd;fill:#6b18b5" transform="matrix(1.9196 0 0 1.9196 249.65 5.1721)" d="m125.33 15.98a2.9108 1.9544 0 1 0 -5.82 0 2.9108 1.9544 0 1 0 5.82 0z"/>
    <path id="path715" style="fill-rule:evenodd;fill:#6b18b5" transform="matrix(1.9196 0 0 1.9196 249.65 5.1721)" d="m128.95 10.366s-3.33 2.495-1.95 3.493c1.37 0.998 5.15-2.162 5.15-2.162l-3.2-1.331z"/>
    <path id="path716" style="fill-rule:evenodd;fill:#6b18b5" transform="matrix(1.9196 0 0 1.9196 249.65 5.1721)" d="m226.72 67.492a1.7452 1.9833 0 1 0 -3.49 0 1.7452 1.9833 0 1 0 3.49 0z"/>
    <path id="path717" style="fill-rule:evenodd;fill:#6b18b5" transform="matrix(1.9196 0 0 1.9196 249.65 5.1721)" d="m225.45 62.732a1.8246 2.1419 0 1 0 -3.65 0 1.8246 2.1419 0 1 0 3.65 0z"/>
    <path id="path718" style="fill-rule:evenodd;fill:#6b18b5" transform="matrix(1.9196 0 0 1.9196 249.65 5.1721)" d="m226.33 72.41a0.71396 1.1106 0 1 0 -1.43 0 0.71396 1.1106 0 1 0 1.43 0z"/>
    <path id="path719" style="fill-rule:evenodd;fill:#6b18b5" transform="matrix(1.9196 0 0 1.9196 249.65 5.1721)" d="m229.26 63.763a0.71396 1.2693 0 1 0 -1.43 0 0.71396 1.2693 0 1 0 1.43 0z"/>
    <path id="path720" style="fill-rule:evenodd;fill:#6b18b5" transform="matrix(1.9196 0 0 1.9196 249.65 5.1721)" d="m221.25 64.636a0.71396 1.0313 0 1 0 -1.43 0 0.71396 1.0313 0 1 0 1.43 0z"/>
    <path id="path721" style="fill-rule:evenodd;fill:#6b18b5" transform="matrix(1.9196 0 0 1.9196 249.65 5.1721)" d="m222.52 71.458a1.5072 1.666 0 1 0 -3.02 0 1.5072 1.666 0 1 0 3.02 0z"/>
    <path id="path722" style="fill-rule:evenodd;fill:#6b18b5" transform="matrix(1.9196 0 0 1.9196 249.65 5.1721)" d="m218.55 68.443a1.2693 1.4279 0 1 0 -2.54 0 1.2693 1.4279 0 1 0 2.54 0z"/>
    <path id="path723" style="fill-rule:evenodd;fill:#6b18b5" transform="matrix(1.9196 0 0 1.9196 249.65 5.1721)" d="m217.92 64.398a1.1106 1.19 0 1 0 -2.22 0 1.1106 1.19 0 1 0 2.22 0z"/>
    <path id="path724" style="fill-rule:evenodd;fill:#6b18b5" transform="matrix(1.7946 -1.1667 1.2596 1.6623 170.04 298.49)" d="m235.69 87.086a3.0938 4.5218 0 1 0 -6.19 0 3.0938 4.5218 0 1 0 6.19 0z"/>
    <path id="path725" style="fill-rule:evenodd;fill:#6b18b5" transform="matrix(1.906 .22807 -.22807 1.906 281.45 -47.518)" d="m240.61 124.61a3.4905 4.8391 0 1 0 -6.99 0 3.4905 4.8391 0 1 0 6.99 0z"/>
    <path id="path726" style="fill-rule:evenodd;fill:#6b18b5" transform="matrix(1.8792 .39181 -.39181 1.8792 310.19 -38.991)" d="m240.61 124.61a3.4905 4.8391 0 1 0 -6.99 0 3.4905 4.8391 0 1 0 6.99 0z"/>
    <path id="path727" style="fill-rule:evenodd;fill:#6b18b5" transform="matrix(1.9196 0 0 1.9196 249.65 5.1721)" d="m246.12 126.35a1.5866 1.9039 0 1 0 -3.17 0 1.5866 1.9039 0 1 0 3.17 0z"/>
    <path id="path728" style="fill-rule:evenodd;fill:#6b18b5" transform="matrix(1.9196 0 0 1.9196 249.65 5.1721)" d="m242.23 130.71l-3.25 3.69s-3.05 0.08-2.9 1.07c0.16 1 4.21 3.97 4.17 5.16s2.7-0.28 2.7-0.28 2.18-6.62 2.18-6.66-0.12-4.6-1.31-4.52-1.51 1.46-1.59 1.54z"/>
    <path id="path729" style="fill-rule:evenodd;fill:#6b18b5" transform="matrix(1.9196 0 0 1.9196 249.65 5.1721)" d="m28.293 129.26a1.548 1.5479 0 1 0 -3.095 0 1.548 1.5479 0 1 0 3.095 0z"/>
    <path id="path730" style="fill-rule:evenodd;fill:#6b18b5" transform="matrix(1.9196 0 0 1.9196 249.65 5.1721)" d="m29.755 124.53a1.548 1.634 0 1 0 -3.096 0 1.548 1.634 0 1 0 3.096 0z"/>
    <path id="path731" style="fill-rule:evenodd;fill:#6b18b5" transform="matrix(1.7531 -.78216 .78216 1.7531 171.84 34.331)" d="m17.2 102.77a1.806 2.58 0 1 0 -3.612 0 1.806 2.58 0 1 0 3.612 0z"/>
    <path id="path732" style="fill-rule:evenodd;fill:#6b18b5" transform="matrix(2.4082 -1.0137 1.0745 2.2721 137.9 11.876)" d="m17.2 102.77a1.806 2.58 0 1 0 -3.612 0 1.806 2.58 0 1 0 3.612 0z"/>
    <path id="path733" style="fill-rule:evenodd;fill:#6b18b5" transform="matrix(2.5696 .53990 -.34811 2.8379 289.21 -53.268)" d="m17.2 102.77a1.806 2.58 0 1 0 -3.612 0 1.806 2.58 0 1 0 3.612 0z"/>
    <path id="path734" style="fill-rule:evenodd;fill:#6b18b5" transform="matrix(2.3233 1.2234 -1.1125 2.6339 359.34 -41.17)" d="m17.2 102.77a1.806 2.58 0 1 0 -3.612 0 1.806 2.58 0 1 0 3.612 0z"/>
    <path id="path735" style="fill-rule:evenodd;fill:#6b18b5" transform="matrix(1.9196 0 0 1.9196 249.65 5.1721)" d="m15.394 123.41a1.72 1.806 0 1 0 -3.44 0 1.72 1.806 0 1 0 3.44 0z"/>
    <path id="path736" style="fill-rule:evenodd;fill:#6b18b5" transform="matrix(1.9196 0 0 1.9196 249.65 5.1721)" d="m14.018 118.94a1.548 1.634 0 1 0 -3.096 0 1.548 1.634 0 1 0 3.096 0z"/>
    <path id="path737" style="fill-rule:evenodd;fill:#6b18b5" transform="matrix(2.2396 0 0 1.9196 246.82 5.172)" d="m14.534 110.34a1.29 2.752 0 1 0 -2.58 0 1.29 2.752 0 1 0 2.58 0z"/>
    <path id="path738" style="fill-rule:evenodd;fill:#6b18b5" transform="matrix(2.22 .29548 -.25327 1.9029 283.94 1.4595)" d="m14.534 110.34a1.29 2.752 0 1 0 -2.58 0 1.29 2.752 0 1 0 2.58 0z"/>
    <path id="path739" style="fill-rule:evenodd;fill:#6b18b5" transform="matrix(1.9107 .70134 -.62068 2.159 276.12 -39.339)" d="m53.243 42.302a2.5354 3.435 0 1 0 -5.071 0 2.5354 3.435 0 1 0 5.071 0z"/>
    <path id="path740" style="fill-rule:evenodd;fill:#6b18b5" transform="matrix(1.4212 1.8046 -1.7359 1.4774 361.56 -53.388)" d="m47.191 51.299a2.1264 3.6804 0 1 0 -4.253 0 2.1264 3.6804 0 1 0 4.253 0z"/>
    <path id="path741" style="fill-rule:evenodd;fill:#6b18b5" transform="matrix(1.4054 1.5492 -1.7167 1.2683 354.29 -40.728)" d="m47.191 51.299a2.1264 3.6804 0 1 0 -4.253 0 2.1264 3.6804 0 1 0 4.253 0z"/>
    <path id="path742" style="fill-rule:evenodd;fill:#6b18b5" transform="matrix(.94777 1.0809 -1.1576 .88497 374.27 -16.76)" d="m47.191 51.299a2.1264 3.6804 0 1 0 -4.253 0 2.1264 3.6804 0 1 0 4.253 0z"/>
    <path id="path743" style="fill-rule:evenodd;fill:#6b18b5" transform="matrix(1.2566 .69826 -.79164 1.2234 326.81 1.1814)" d="m47.191 51.299a2.1264 3.6804 0 1 0 -4.253 0 2.1264 3.6804 0 1 0 4.253 0z"/>
    <path id="path744" style="fill-rule:evenodd;fill:#6b18b5" transform="matrix(1.1191 1.1514 -1.245 1.0492 376.91 -21.92)" d="m47.191 51.299a2.1264 3.6804 0 1 0 -4.253 0 2.1264 3.6804 0 1 0 4.253 0z"/>
    <path id="path745" style="fill-rule:evenodd;fill:#6b18b5" transform="matrix(.13864 1.1372 -1.1638 .058077 382.23 54.445)" d="m47.191 51.299a2.1264 3.6804 0 1 0 -4.253 0 2.1264 3.6804 0 1 0 4.253 0z"/>
    <path id="path746" style="fill-rule:evenodd;fill:#6b18b5" transform="matrix(1.2566 .69826 -.79164 1.2234 354.92 -22.683)" d="m47.191 51.299a2.1264 3.6804 0 1 0 -4.253 0 2.1264 3.6804 0 1 0 4.253 0z"/>
    <path id="path764" style="stroke:#ef8a10;fill-rule:evenodd;fill:#ffd200" transform="matrix(1.9196 0 0 1.9196 249.65 5.1721)" d="m204.28 74.657s3.83-6.051 2.35-11.746-7.79-1.671-7.65 0.356c0.13 2.027 4.07 4.738 4.31 5.975s-0.44 5.041 0.99 5.415z"/>
    <path id="path708" style="stroke-linejoin:round;fill-rule:evenodd;stroke:#000000;stroke-width:1.25;fill:#217900" transform="matrix(1.9196 0 0 1.9196 249.65 5.1721)" d="m131.28 24.332s13.78 0.535 13.87 9.451c-0.05 1.382 0 3.031-0.49 6.999 2.72-1.471 4.54-5.572 4.19-8.202 0.04-9.05-12.31-15.246-17.57-8.248z"/>
    <path id="path707" style="stroke-linejoin:round;fill-rule:evenodd;stroke:#000000;stroke-width:1.25;fill:#217900" transform="matrix(1.9196 0 0 1.9196 249.65 5.1721)" d="m122.55 23.931s11.1-2.318 11.19 6.598-3.53 10.342-3.53 10.342 8.52-1.828 8.56-10.877c0.05-9.05-10.96-13.062-16.22-6.063z"/>
    <g id="g802" transform="matrix(1.9196 0 0 1.9196 249.65 5.767)">
      <path id="path640" style="stroke-linejoin:round;fill-rule:evenodd;stroke:#000000;stroke-width:1pt;fill:#f7df73" d="m160.26 215.97s51.96-14.68 67.65-78.45c-9.11 65.46-65.96 86.21-65.96 86.21l-1.69-7.76z"/>
      <path id="path793" style="fill-rule:evenodd;fill:#8c1800" d="m165.59 219.94c1.6 0 5.58-4.4 7.86-4.9 2.28-0.51 2.54-2.79-0.09-2.88-2.62-0.08-4.9 2.96-4.9 2.96s-2.28 1.95-4.65 2.2c-2.36 0.25-0.84 3.21 1.78 2.62z"/>
      <path id="path794" style="fill-rule:evenodd;stroke:#8c1800;stroke-width:1pt;fill:#8c1800" d="m195.51 197.62s-5.41 3.13-4.65 3.89 5.58-2.96 5.67-3.04c0.08-0.08 2.02-2.45-1.02-0.85z"/>
      <path id="path795" style="fill-rule:evenodd;fill:#8c1800" d="m176.66 211.83s-1.6-0.6 2.54-2.2c4.14-1.61 3.89-3.47 5.24-4.23s4.22-2.79 4.82-1.6c0.59 1.18-3.05 3.55-3.89 3.8-0.85 0.25-4.99 4.06-6.17 4.39-1.19 0.34-2.03 0.17-2.54-0.16z"/>
      <path id="path796" style="stroke:#8c1800;stroke-linecap:round;stroke-width:1.625;fill:none" d="m203.54 189.68c-3.55 3.97-3.55 3.89-3.55 3.89"/>
      <path id="path797" style="stroke:#8c1800;stroke-linecap:round;stroke-width:1.5;fill:none" d="m208.87 183.17l-3.38 4.14"/>
      <path id="path798" style="stroke:#8c1800;stroke-linecap:round;stroke-width:1.375;fill:none" d="m214.19 174.72l-3.8 6.08"/>
      <path id="path799" style="stroke:#8c1800;stroke-linecap:round;stroke-width:1.25;fill:none" d="m218.67 166.1l-3.13 6.25"/>
      <path id="path800" style="stroke:#8c1800;stroke-linecap:round;stroke-width:1.25;fill:none" d="m220.7 161.53l-1.01 2.2"/>
      <path id="path801" style="stroke:#8c1800;stroke-linecap:round;stroke-width:.75;fill:none" d="m222.98 155.53l-0.84 2.62"/>
    </g>
    <g id="g813" transform="matrix(-1.9021 0 0 1.9542 731.39 -4.3332)">
      <path id="path814" style="stroke-linejoin:round;fill-rule:evenodd;stroke:#000000;stroke-width:1pt;fill:#f7df73" d="m160.26 215.97s51.96-14.68 67.65-78.45c-9.11 65.46-65.96 86.21-65.96 86.21l-1.69-7.76z"/>
      <path id="path815" style="fill-rule:evenodd;fill:#8c1800" d="m165.59 219.94c1.6 0 5.58-4.4 7.86-4.9 2.28-0.51 2.54-2.79-0.09-2.88-2.62-0.08-4.9 2.96-4.9 2.96s-2.28 1.95-4.65 2.2c-2.36 0.25-0.84 3.21 1.78 2.62z"/>
      <path id="path816" style="fill-rule:evenodd;stroke:#8c1800;stroke-width:1pt;fill:#8c1800" d="m195.51 197.62s-5.41 3.13-4.65 3.89 5.58-2.96 5.67-3.04c0.08-0.08 2.02-2.45-1.02-0.85z"/>
      <path id="path817" style="fill-rule:evenodd;fill:#8c1800" d="m176.66 211.83s-1.6-0.6 2.54-2.2c4.14-1.61 3.89-3.47 5.24-4.23s4.22-2.79 4.82-1.6c0.59 1.18-3.05 3.55-3.89 3.8-0.85 0.25-4.99 4.06-6.17 4.39-1.19 0.34-2.03 0.17-2.54-0.16z"/>
      <path id="path818" style="stroke:#8c1800;stroke-linecap:round;stroke-width:1.625;fill:none" d="m203.54 189.68c-3.55 3.97-3.55 3.89-3.55 3.89"/>
      <path id="path819" style="stroke:#8c1800;stroke-linecap:round;stroke-width:1.5;fill:none" d="m208.87 183.17l-3.38 4.14"/>
      <path id="path820" style="stroke:#8c1800;stroke-linecap:round;stroke-width:1.375;fill:none" d="m214.19 174.72l-3.8 6.08"/>
      <path id="path821" style="stroke:#8c1800;stroke-linecap:round;stroke-width:1.25;fill:none" d="m218.67 166.1l-3.13 6.25"/>
      <path id="path822" style="stroke:#8c1800;stroke-linecap:round;stroke-width:1.25;fill:none" d="m220.7 161.53l-1.01 2.2"/>
      <path id="path823" style="stroke:#8c1800;stroke-linecap:round;stroke-width:.75;fill:none" d="m222.98 155.53l-0.84 2.62"/>
    </g>
    <path id="path578" style="stroke-linejoin:round;fill-rule:evenodd;stroke:#000000;stroke-width:1.25;fill:#217900" transform="matrix(1.9196 0 0 1.9196 249.65 5.172)" d="m230.38 126.09c0.25 4 4.17 7.83 2.63 14.81-1.95 7.92-8.85 26.73-7.66 30.04-2.04-2.8-1.7-5.44-1.87-9.36-0.17-3.91 5.7-18.46 6.21-23.4 0-4.43 0.43-10.47 0.69-12.09z"/>
    <path id="path577" style="stroke-linejoin:round;fill-rule:evenodd;stroke:#000000;stroke-width:1.25;fill:#217900" transform="matrix(1.9196 0 0 1.9196 249.65 5.172)" d="m230.38 126.18s6.38 8.08 6.04 14.47c-0.34 6.38-3.92 13.87-2.73 17.19-2.04-2.81-2.55-4.6-2.72-8.51-0.17-3.92 3.15-8.26 2.47-12.51-0.68-4.26-3.15-10.64-3.06-10.64z"/>
    <path id="path570" style="stroke-linejoin:round;fill-rule:evenodd;stroke:#000000;stroke-width:1.25;fill:#217900" transform="matrix(-1.9196 0 0 1.9196 732.75 8.7661)" d="m230.38 126.09c0.25 4 3.23 7.58 1.7 14.56-1.96 7.91-8.94 17.95-7.83 29.44-2.04-2.81-2.64-5.95-2.81-9.87-0.17-3.91 7.74-17.1 8.25-22.04 0-4.43 0.43-10.47 0.69-12.09z"/>
    <path id="path569" style="stroke-linejoin:round;fill-rule:evenodd;stroke:#000000;stroke-width:1.25;fill:#217900" transform="matrix(-1.9196 0 0 1.9196 732.75 8.7661)" d="m230.38 126.18s6.21 7.83 5.87 14.21c-0.09 4.26-7.92 22.04-6.73 25.36-2.04-2.81-2.63-2.47-2.55-6.72 2.3-10.89 6.38-17.87 5.7-22.13-0.68-4.25-2.38-10.72-2.29-10.72z"/>
  </g>
  <metadata>
    <rdf:RDF>
      <cc:Work>
        <dc:format>image/svg+xml</dc:format>
        <dc:type rdf:resource="http://purl.org/dc/dcmitype/StillImage"/>
        <cc:license rdf:resource="http://creativecommons.org/licenses/publicdomain/"/>
        <dc:publisher>
          <cc:Agent rdf:about="http://openclipart.org/">
            <dc:title>Openclipart</dc:title>
          </cc:Agent>
        </dc:publisher>
        <dc:title>northern mariana</dc:title>
        <dc:date>2010-04-15T14:44:01</dc:date>
        <dc:description>public domain art uploaded anonymously from OCAL 0.18</dc:description>
        <dc:source>https://openclipart.org/detail/47575/northern-mariana-by-anonymous</dc:source>
        <dc:creator>
          <cc:Agent>
            <dc:title>Anonymous</dc:title>
          </cc:Agent>
        </dc:creator>
        <dc:subject>
          <rdf:Bag>
            <rdf:li>country</rdf:li>
            <rdf:li>flag</rdf:li>
            <rdf:li>mariana</rdf:li>
          </rdf:Bag>
        </dc:subject>
      </cc:Work>
      <cc:License rdf:about="http://creativecommons.org/licenses/publicdomain/">
        <cc:permits rdf:resource="http://creativecommons.org/ns#Reproduction"/>
        <cc:permits rdf:resource="http://creativecommons.org/ns#Distribution"/>
        <cc:permits rdf:resource="http://creativecommons.org/ns#DerivativeWorks"/>
      </cc:License>
    </rdf:RDF>
  </metadata>
</svg>
