<?xml version="1.0" encoding="UTF-8" standalone="no"?>
<svg
   xmlns:dc="http://purl.org/dc/elements/1.1/"
   xmlns:cc="http://creativecommons.org/ns#"
   xmlns:rdf="http://www.w3.org/1999/02/22-rdf-syntax-ns#"
   xmlns:svg="http://www.w3.org/2000/svg"
   xmlns="http://www.w3.org/2000/svg"
   xmlns:xlink="http://www.w3.org/1999/xlink"
   xmlns:sodipodi="http://sodipodi.sourceforge.net/DTD/sodipodi-0.dtd"
   xmlns:inkscape="http://www.inkscape.org/namespaces/inkscape"
   viewBox="0 0 960.00004 720"
   id="svg2"
   version="1.1"
   inkscape:version="0.91 r13725"
   sodipodi:docname="BevelledPapuaNewGuinea.svg"
   width="960.00006"
   height="720">
  <metadata
     id="metadata4551">
    <rdf:RDF>
      <cc:Work
         rdf:about="">
        <dc:format>image/svg+xml</dc:format>
        <dc:type
           rdf:resource="http://purl.org/dc/dcmitype/StillImage" />
        <dc:title></dc:title>
      </cc:Work>
    </rdf:RDF>
  </metadata>
  <sodipodi:namedview
     pagecolor="#ffffff"
     bordercolor="#666666"
     borderopacity="1"
     objecttolerance="10"
     gridtolerance="10"
     guidetolerance="10"
     inkscape:pageopacity="0"
     inkscape:pageshadow="2"
     inkscape:window-width="1600"
     inkscape:window-height="837"
     id="namedview4549"
     showgrid="true"
     fit-margin-top="0"
     fit-margin-left="0"
     fit-margin-right="0"
     fit-margin-bottom="0"
     inkscape:object-nodes="true"
     inkscape:snap-smooth-nodes="true"
     inkscape:object-paths="false"
     inkscape:snap-global="true"
     inkscape:zoom="0.92916667"
     inkscape:cx="480.00003"
     inkscape:cy="360"
     inkscape:window-x="-8"
     inkscape:window-y="-8"
     inkscape:window-maximized="1"
     inkscape:current-layer="svg2" />
  <defs
     id="defs4">
    <linearGradient
       id="linearGradient6136">
      <stop
         style="stop-color:#000000;stop-opacity:0;"
         offset="0"
         id="stop6138" />
      <stop
         style="stop-color:#000000;stop-opacity:1;"
         offset="1"
         id="stop6140" />
    </linearGradient>
    <linearGradient
       id="linearGradient22506">
      <stop
         style="stop-color:#ffffff;stop-opacity:1;"
         offset="0"
         id="stop22508" />
      <stop
         style="stop-color:#ffffff;stop-opacity:0;"
         offset="1"
         id="stop22510" />
    </linearGradient>
    <linearGradient
       id="linearGradient22338">
      <stop
         style="stop-color:#000000;stop-opacity:0;"
         offset="0"
         id="stop22340" />
      <stop
         id="stop6129"
         offset="0.5"
         style="stop-color:#000000;stop-opacity:0;" />
      <stop
         style="stop-color:#000000;stop-opacity:1;"
         offset="1"
         id="stop22342" />
    </linearGradient>
    <filter
       style="color-interpolation-filters:sRGB"
       inkscape:label="Blur"
       id="filter23929">
      <feGaussianBlur
         stdDeviation="1 5"
         result="blur"
         id="feGaussianBlur23931" />
    </filter>
    <filter
       style="color-interpolation-filters:sRGB"
       inkscape:label="Blur"
       id="filter23980">
      <feGaussianBlur
         stdDeviation="2 2"
         result="blur"
         id="feGaussianBlur23982" />
    </filter>
    <filter
       style="color-interpolation-filters:sRGB"
       inkscape:label="Blur"
       id="filter23988">
      <feGaussianBlur
         stdDeviation="1 1"
         result="blur"
         id="feGaussianBlur23990" />
    </filter>
    <filter
       style="color-interpolation-filters:sRGB"
       inkscape:label="Blur"
       id="filter24008">
      <feGaussianBlur
         stdDeviation="1 1"
         result="blur"
         id="feGaussianBlur24010" />
    </filter>
    <filter
       style="color-interpolation-filters:sRGB"
       inkscape:label="Blur"
       id="filter24012">
      <feGaussianBlur
         stdDeviation="1 1"
         result="blur"
         id="feGaussianBlur24014" />
    </filter>
    <filter
       style="color-interpolation-filters:sRGB"
       inkscape:label="Blur"
       id="filter24016">
      <feGaussianBlur
         stdDeviation="1 1"
         result="blur"
         id="feGaussianBlur24018" />
    </filter>
    <filter
       style="color-interpolation-filters:sRGB"
       inkscape:label="Blur"
       id="filter24020">
      <feGaussianBlur
         stdDeviation="1 1"
         result="blur"
         id="feGaussianBlur24022" />
    </filter>
    <filter
       style="color-interpolation-filters:sRGB"
       inkscape:label="Blur"
       id="filter24024">
      <feGaussianBlur
         stdDeviation="1 1"
         result="blur"
         id="feGaussianBlur24026" />
    </filter>
    <filter
       style="color-interpolation-filters:sRGB"
       inkscape:label="Blur"
       id="filter24028">
      <feGaussianBlur
         stdDeviation="1 1"
         result="blur"
         id="feGaussianBlur24030" />
    </filter>
    <filter
       style="color-interpolation-filters:sRGB"
       inkscape:label="Blur"
       id="filter24032">
      <feGaussianBlur
         stdDeviation="1 1"
         result="blur"
         id="feGaussianBlur24034" />
    </filter>
    <filter
       style="color-interpolation-filters:sRGB"
       inkscape:label="Blur"
       id="filter24036">
      <feGaussianBlur
         stdDeviation="1 1"
         result="blur"
         id="feGaussianBlur24038" />
    </filter>
    <filter
       style="color-interpolation-filters:sRGB"
       inkscape:label="Blur"
       id="filter24052">
      <feGaussianBlur
         stdDeviation="1 1"
         result="blur"
         id="feGaussianBlur24054" />
    </filter>
    <filter
       style="color-interpolation-filters:sRGB"
       inkscape:label="Blur"
       id="filter24309">
      <feGaussianBlur
         stdDeviation="2 2"
         result="blur"
         id="feGaussianBlur24311" />
    </filter>
    <clipPath
       clipPathUnits="userSpaceOnUse"
       id="clipPath4532">
      <path
         inkscape:connector-curvature="0"
         id="path4534"
         d="M 18.75,-2.6189942e-4 A 18.75,18.75 0 0 0 0,18.749739 L 0,381.25023 a 18.75,18.75 0 0 0 18.75,18.75 l 562.50001,0 a 18.75,18.75 0 0 0 18.75001,-18.75 l 0,-362.500491 A 18.75,18.75 0 0 0 581.25001,-2.6189942e-4 l -562.50001,0 z"
         style="fill:#00ffff;fill-opacity:1" />
    </clipPath>
    <radialGradient
       inkscape:collect="always"
       xlink:href="#linearGradient22338"
       id="radialGradient6127"
       cx="1070"
       cy="700.00079"
       fx="1070"
       fy="700.00079"
       r="40"
       gradientUnits="userSpaceOnUse"
       gradientTransform="matrix(-1,0,0,1,-170,-99.999203)" />
    <linearGradient
       inkscape:collect="always"
       xlink:href="#linearGradient6136"
       id="linearGradient6142"
       x1="780"
       y1="373.3338"
       x2="800"
       y2="373.3338"
       gradientUnits="userSpaceOnUse"
       gradientTransform="matrix(1,0,0,1.1470571,-2000,-88.234405)" />
    <linearGradient
       inkscape:collect="always"
       xlink:href="#linearGradient6136"
       id="linearGradient6152"
       x1="410"
       y1="620.00079"
       x2="410"
       y2="640.00079"
       gradientUnits="userSpaceOnUse"
       gradientTransform="translate(-2000,0)" />
    <radialGradient
       inkscape:collect="always"
       xlink:href="#linearGradient22338"
       id="radialGradient6156"
       gradientUnits="userSpaceOnUse"
       gradientTransform="translate(-3030,-99.9992)"
       cx="1070"
       cy="700.00079"
       fx="1070"
       fy="700.00079"
       r="40" />
    <linearGradient
       inkscape:collect="always"
       xlink:href="#linearGradient6136"
       id="linearGradient6160"
       gradientUnits="userSpaceOnUse"
       x1="780"
       y1="373.3338"
       x2="800"
       y2="373.3338"
       gradientTransform="matrix(1,0,0,1.1470571,1200,-88.234405)" />
    <linearGradient
       inkscape:collect="always"
       xlink:href="#linearGradient6136"
       id="linearGradient6164"
       gradientUnits="userSpaceOnUse"
       x1="410"
       y1="620.00079"
       x2="410"
       y2="640.00079"
       gradientTransform="translate(-2000,-680.00157)" />
    <radialGradient
       inkscape:collect="always"
       xlink:href="#linearGradient22338"
       id="radialGradient6174"
       gradientUnits="userSpaceOnUse"
       gradientTransform="matrix(-1,0,0,-1,-170.00003,780.00078)"
       cx="1070"
       cy="700.00079"
       fx="1070"
       fy="700.00079"
       r="40" />
    <radialGradient
       inkscape:collect="always"
       xlink:href="#linearGradient22338"
       id="radialGradient6176"
       gradientUnits="userSpaceOnUse"
       gradientTransform="matrix(1,0,0,-1,-3030,780.00078)"
       cx="1070"
       cy="700.00079"
       fx="1070"
       fy="700.00079"
       r="40" />
    <linearGradient
       inkscape:collect="always"
       xlink:href="#linearGradient22506"
       id="linearGradient6209"
       x1="2050"
       y1="-120.00079"
       x2="2560"
       y2="-630.00079"
       gradientUnits="userSpaceOnUse"
       gradientTransform="matrix(1,0,0,1.142857,-4000,88.571447)" />
    <filter
       style="color-interpolation-filters:sRGB"
       inkscape:label="Blur"
       id="filter6223">
      <feGaussianBlur
         stdDeviation="2 2"
         result="blur"
         id="feGaussianBlur6225" />
    </filter>
    <filter
       style="color-interpolation-filters:sRGB"
       inkscape:label="Blur"
       id="filter15556">
      <feGaussianBlur
         stdDeviation="2 2"
         result="blur"
         id="feGaussianBlur15558" />
    </filter>
    <filter
       style="color-interpolation-filters:sRGB"
       inkscape:label="Blur"
       id="filter4960">
      <feGaussianBlur
         stdDeviation="2 2"
         result="blur"
         id="feGaussianBlur4962" />
    </filter>
    <clipPath
       clipPathUnits="userSpaceOnUse"
       id="clipPath4376">
      <rect
         style="fill:#d70000;fill-opacity:1"
         id="rect4378"
         width="768.00006"
         height="576.00006"
         x="0"
         y="-576.00006"
         transform="scale(1,-1)"
         ry="38.400002" />
    </clipPath>
  </defs>
  <g
     id="g4380"
     transform="translate(80,18.999207)">
    <rect
       style="fill:#000000;fill-opacity:1;filter:url(#filter4960)"
       id="rect6199"
       width="800"
       height="600"
       x="-1000"
       y="-641.00079"
       transform="matrix(1,0,0,-1,1000,0)"
       ry="40" />
    <g
       clip-path="url(#clipPath4376)"
       transform="matrix(1.0416666,0,0,1.0416666,0,40.000793)"
       id="g4155">
      <rect
         style="fill:#000000"
         y="0"
         x="0"
         width="768"
         height="576"
         id="rect6" />
      <path
         style="fill:#ce1126"
         inkscape:connector-curvature="0"
         d="m 0,0 768,0 0,576 z"
         id="path8" />
      <path
         style="fill:#fcd116"
         inkscape:connector-curvature="0"
         d="m 475.48467,167.35351 c -5.67222,7.32645 -19.095,-7.36966 -35.175,-7.70533 -16.08,-0.33567 -27.47067,15.40966 -32.16,20.77033 -4.68933,5.36067 -19.76433,33.49967 -19.42967,36.51467 0.33467,3.015 9.38067,-8.37467 12.73034,-10.38467 0.33466,4.02 -3.68534,8.71034 -2.68034,10.05 1.005,1.33967 11.72433,-8.04 15.40967,-8.37466 1.005,2.68033 -2.01,5.35966 -1.005,9.37966 1.34067,1.33967 7.37067,-6.70033 11.39067,-8.37466 0.66933,3.015 -3.68534,8.71033 -1.34067,12.39466 1.67533,0.33467 11.72433,-11.38966 15.075,-12.73033 3.35067,-1.34067 -1.67534,11.055 0,12.06 3.015,-2.01 12.39567,-12.73034 15.41067,-14.07 3.015,-1.33967 -0.33467,13.73533 1.005,13.73533 3.68433,-2.68033 13.065,-15.40966 14.07,-17.41966 1.005,-2.01 -1.005,19.42966 9.37966,30.82033 10.38467,11.39067 26.13101,24.45467 27.80534,24.45467 2.01,-3.68534 -0.66933,-11.38967 1.005,-11.055 4.68933,5.025 13.39966,12.39466 15.40966,12.39466 2.01,0 -1.34067,-8.04 1.33967,-8.04 5.36067,5.025 20.77033,24.79034 50.92033,33.83534 -2.01,-5.69534 -6.36567,-10.72034 -6.70033,-13.39967 2.01,0.33467 9.046,3.68534 10.38567,3.34967 1.33966,-0.33567 -14.74034,-20.1 -13.73534,-22.78034 3.68534,-0.33466 5.36067,2.01 6.70034,0.33467 -1.67534,-2.67933 -15.74534,-18.42467 -15.74534,-22.11 0,-3.68534 4.35567,0.67033 5.69534,0 1.33966,-0.67034 -5.35967,-14.74034 -4.02,-16.41467 1.33966,-1.67433 16.07899,9.045 19.76433,9.045 3.68533,0 1.005,-13.065 2.68033,-13.73533 1.67534,-0.67034 14.07101,7.035 16.75034,7.035 2.67933,0 2.34466,-5.69534 3.34966,-5.025 1.005,0.67033 30.15,29.81533 20.1,63.98533 -10.05,24.45567 -30.14899,37.52067 -59.62966,26.80034 1.67433,2.68033 17.41966,15.74533 34.50466,11.055 17.085,-4.69034 37.85433,-18.09 35.50967,-51.58967 -2.34467,-33.49966 -13.40067,-38.19 -15.075,-43.215 -1.67433,-5.025 2.68134,1.33967 6.36567,2.68034 3.68433,1.34067 -0.67034,-7.03601 -1.67534,-10.72134 -1.005,-3.68534 11.055,7.70533 14.07,8.71033 3.015,1.005 -7.035,-27.46966 -10.05,-29.47966 -3.015,-2.01 3.015,0.66933 5.025,1.33966 2.01,0.67034 -18.42567,-31.155 -22.78033,-31.155 -4.35467,0 3.68433,-1.67533 6.03,-1.67533 2.34567,0 -23.44866,-20.77034 -27.80433,-20.77034 -4.35567,0 9.37866,-5.36067 10.71933,-5.69533 2.34567,0.33466 -29.81433,-17.085 -58.62467,0.33466 -1.67533,-1.33866 13.56851,-11.89116 14.07,-16.41366 0.16784,-1.17283 -5.02399,-3.68533 -5.35966,-5.025 -0.33567,-1.33966 8.04,-5.35965 8.37466,-8.37465 -2.01,-2.68033 -5.69533,-1.67534 -7.70533,-2.34466 -0.5015,-2.512504 7.036,-8.710339 6.36567,-11.389669 -0.5025,-1.5075 -6.03101,-2.01 -7.37067,-1.005 -1.33967,1.005 3.5185,-7.035 2.68033,-9.379665 -0.66933,-1.005 -3.34966,-0.334665 -6.03,0.334665 -1.67533,-0.334665 8.71034,-14.740335 6.70034,-16.750335 -2.01,-2.01 -30.15101,14.73933 -40.53567,33.499665 -10.38467,18.760319 -2.34366,33.835319 -3.68433,40.199989 -1.34067,6.36466 -3.01601,12.73033 -7.37067,12.73033 -4.35467,0 -14.40366,-6.70033 -17.75433,-10.05 -3.35067,-3.34966 -4.02,-5.69533 -8.71034,-7.035 -4.69033,-1.33966 -15.40966,2.68034 -19.42966,3.015 -4.02,0.33467 -19.76534,-3.015 -20.77034,-2.01 -1.005,1.005 15.40967,7.035 19.095,9.045 3.68534,2.01 4.02101,4.69034 6.70034,6.36467 2.67933,1.67433 27.80433,9.045 19.76433,19.42966 z m 98.15533,47.235 c 8.04,8.04 62.31,44.22 62.31,88.44 0,44.22 -39.53067,42.88134 -50.92033,41.54067 C 597.76,355.28851 646,353.27851 646,303.02851 c 0,-44.22 -62.31,-88.44 -70.35,-92.46 -8.04,-4.02 -10.05,-4.02 -2.01,4.02 z"
         id="path10" />
      <g
         style="fill:#ffffff"
         id="g12">
        <path
           inkscape:connector-curvature="0"
           d="M 220.254,418.599 231.709,381.748 243.164,419 213,396.168 l 37.418,0 z"
           id="path14" />
        <path
           inkscape:connector-curvature="0"
           id="sl"
           d="m 192.418,178.496 -22.909,73.702 60.327,-44.862 -74.836,0 60.327,45.664 z" />
        <use
           height="100%"
           width="100%"
           xlink:href="#sl"
           x="-88"
           y="112.504"
           id="use17" />
        <use
           height="100%"
           width="100%"
           xlink:href="#sl"
           x="87.582001"
           y="104.504"
           id="use19" />
        <use
           height="100%"
           width="100%"
           x="0"
           xlink:href="#sl"
           y="264.504"
           id="use21" />
      </g>
    </g>
    <g
       transform="translate(2000,0)"
       id="g4949">
      <path
         style="opacity:0.603;fill:url(#radialGradient6127);fill-opacity:1"
         d="m -1200,600.00079 a 40,40 0 0 1 -40,40 l 0,-20 a 20,20 0 0 0 20,-20 l 20,0 z"
         id="path5058"
         inkscape:connector-curvature="0" />
      <rect
         style="opacity:0.603;fill:url(#linearGradient6142);fill-opacity:1"
         id="rect6134"
         width="20"
         height="520.00006"
         x="-1220"
         y="80.000793"
         ry="0" />
      <rect
         style="opacity:0.603;fill:url(#linearGradient6152);fill-opacity:1"
         id="rect6144"
         width="720"
         height="20"
         x="-1960"
         y="620.00079" />
      <path
         inkscape:connector-curvature="0"
         id="path6154"
         d="m -2000,600.00079 a 40,40 0 0 0 40,40 l 0,-20 a 20,20 0 0 1 -20,-20 l -20,0 z"
         style="opacity:0.603;fill:url(#radialGradient6156);fill-opacity:1" />
      <rect
         ry="0"
         y="80.000793"
         x="1980"
         height="520.00006"
         width="20"
         id="rect6158"
         style="opacity:0.603;fill:url(#linearGradient6160);fill-opacity:1"
         transform="scale(-1,1)" />
      <rect
         y="-60.000793"
         x="-1960"
         height="20"
         width="720"
         id="rect6162"
         style="opacity:0.603;fill:url(#linearGradient6164);fill-opacity:1"
         transform="scale(1,-1)" />
      <path
         inkscape:connector-curvature="0"
         id="path6166"
         d="m -1200,80.00079 a 40,40 0 0 0 -40,-40 l 0,20 a 20,20 0 0 1 20,20 l 20,0 z"
         style="opacity:0.603;fill:url(#radialGradient6174);fill-opacity:1" />
      <path
         style="opacity:0.603;fill:url(#radialGradient6176);fill-opacity:1"
         d="m -2000,80.00079 a 40,40 0 0 1 40,-40 l 0,20 a 20,20 0 0 0 -20,20 l -20,0 z"
         id="path6168"
         inkscape:connector-curvature="0" />
      <rect
         style="opacity:0.3;fill:url(#linearGradient6209);fill-opacity:1"
         id="rect6201"
         width="760"
         height="559.99994"
         x="-1980"
         y="-620.00073"
         ry="19.999878"
         transform="scale(1,-1)" />
    </g>
  </g>
</svg>
