<?xml version="1.0" encoding="UTF-8" standalone="no"?>
<svg
   xmlns:dc="http://purl.org/dc/elements/1.1/"
   xmlns:cc="http://creativecommons.org/ns#"
   xmlns:rdf="http://www.w3.org/1999/02/22-rdf-syntax-ns#"
   xmlns:svg="http://www.w3.org/2000/svg"
   xmlns="http://www.w3.org/2000/svg"
   xmlns:xlink="http://www.w3.org/1999/xlink"
   xmlns:sodipodi="http://sodipodi.sourceforge.net/DTD/sodipodi-0.dtd"
   xmlns:inkscape="http://www.inkscape.org/namespaces/inkscape"
   viewBox="0 0 960.00004 528"
   id="svg2"
   version="1.1"
   inkscape:version="0.91 r13725"
   sodipodi:docname="BevelledParaguay.svg"
   width="960.00006"
   height="528">
  <metadata
     id="metadata4551">
    <rdf:RDF>
      <cc:Work
         rdf:about="">
        <dc:format>image/svg+xml</dc:format>
        <dc:type
           rdf:resource="http://purl.org/dc/dcmitype/StillImage" />
        <dc:title></dc:title>
      </cc:Work>
    </rdf:RDF>
  </metadata>
  <sodipodi:namedview
     pagecolor="#ffffff"
     bordercolor="#666666"
     borderopacity="1"
     objecttolerance="10"
     gridtolerance="10"
     guidetolerance="10"
     inkscape:pageopacity="0"
     inkscape:pageshadow="2"
     inkscape:window-width="1600"
     inkscape:window-height="837"
     id="namedview4549"
     showgrid="true"
     fit-margin-top="0"
     fit-margin-left="0"
     fit-margin-right="0"
     fit-margin-bottom="0"
     inkscape:object-nodes="true"
     inkscape:snap-smooth-nodes="true"
     inkscape:object-paths="false"
     inkscape:snap-global="true"
     inkscape:zoom="1.1499999"
     inkscape:cx="480.00003"
     inkscape:cy="264"
     inkscape:window-x="-8"
     inkscape:window-y="-8"
     inkscape:window-maximized="1"
     inkscape:current-layer="svg2" />
  <defs
     id="defs4">
    <linearGradient
       id="linearGradient6136">
      <stop
         style="stop-color:#000000;stop-opacity:0;"
         offset="0"
         id="stop6138" />
      <stop
         style="stop-color:#000000;stop-opacity:1;"
         offset="1"
         id="stop6140" />
    </linearGradient>
    <linearGradient
       id="linearGradient22506">
      <stop
         style="stop-color:#ffffff;stop-opacity:1;"
         offset="0"
         id="stop22508" />
      <stop
         style="stop-color:#ffffff;stop-opacity:0;"
         offset="1"
         id="stop22510" />
    </linearGradient>
    <linearGradient
       id="linearGradient22338">
      <stop
         style="stop-color:#000000;stop-opacity:0;"
         offset="0"
         id="stop22340" />
      <stop
         id="stop6129"
         offset="0.5"
         style="stop-color:#000000;stop-opacity:0;" />
      <stop
         style="stop-color:#000000;stop-opacity:1;"
         offset="1"
         id="stop22342" />
    </linearGradient>
    <filter
       style="color-interpolation-filters:sRGB"
       inkscape:label="Blur"
       id="filter23929">
      <feGaussianBlur
         stdDeviation="1 5"
         result="blur"
         id="feGaussianBlur23931" />
    </filter>
    <filter
       style="color-interpolation-filters:sRGB"
       inkscape:label="Blur"
       id="filter23980">
      <feGaussianBlur
         stdDeviation="2 2"
         result="blur"
         id="feGaussianBlur23982" />
    </filter>
    <filter
       style="color-interpolation-filters:sRGB"
       inkscape:label="Blur"
       id="filter23988">
      <feGaussianBlur
         stdDeviation="1 1"
         result="blur"
         id="feGaussianBlur23990" />
    </filter>
    <filter
       style="color-interpolation-filters:sRGB"
       inkscape:label="Blur"
       id="filter24008">
      <feGaussianBlur
         stdDeviation="1 1"
         result="blur"
         id="feGaussianBlur24010" />
    </filter>
    <filter
       style="color-interpolation-filters:sRGB"
       inkscape:label="Blur"
       id="filter24012">
      <feGaussianBlur
         stdDeviation="1 1"
         result="blur"
         id="feGaussianBlur24014" />
    </filter>
    <filter
       style="color-interpolation-filters:sRGB"
       inkscape:label="Blur"
       id="filter24016">
      <feGaussianBlur
         stdDeviation="1 1"
         result="blur"
         id="feGaussianBlur24018" />
    </filter>
    <filter
       style="color-interpolation-filters:sRGB"
       inkscape:label="Blur"
       id="filter24020">
      <feGaussianBlur
         stdDeviation="1 1"
         result="blur"
         id="feGaussianBlur24022" />
    </filter>
    <filter
       style="color-interpolation-filters:sRGB"
       inkscape:label="Blur"
       id="filter24024">
      <feGaussianBlur
         stdDeviation="1 1"
         result="blur"
         id="feGaussianBlur24026" />
    </filter>
    <filter
       style="color-interpolation-filters:sRGB"
       inkscape:label="Blur"
       id="filter24028">
      <feGaussianBlur
         stdDeviation="1 1"
         result="blur"
         id="feGaussianBlur24030" />
    </filter>
    <filter
       style="color-interpolation-filters:sRGB"
       inkscape:label="Blur"
       id="filter24032">
      <feGaussianBlur
         stdDeviation="1 1"
         result="blur"
         id="feGaussianBlur24034" />
    </filter>
    <filter
       style="color-interpolation-filters:sRGB"
       inkscape:label="Blur"
       id="filter24036">
      <feGaussianBlur
         stdDeviation="1 1"
         result="blur"
         id="feGaussianBlur24038" />
    </filter>
    <filter
       style="color-interpolation-filters:sRGB"
       inkscape:label="Blur"
       id="filter24052">
      <feGaussianBlur
         stdDeviation="1 1"
         result="blur"
         id="feGaussianBlur24054" />
    </filter>
    <filter
       style="color-interpolation-filters:sRGB"
       inkscape:label="Blur"
       id="filter24309">
      <feGaussianBlur
         stdDeviation="2 2"
         result="blur"
         id="feGaussianBlur24311" />
    </filter>
    <clipPath
       clipPathUnits="userSpaceOnUse"
       id="clipPath4532">
      <path
         inkscape:connector-curvature="0"
         id="path4534"
         d="M 18.75,-2.6189942e-4 A 18.75,18.75 0 0 0 0,18.749739 L 0,381.25023 a 18.75,18.75 0 0 0 18.75,18.75 l 562.50001,0 a 18.75,18.75 0 0 0 18.75001,-18.75 l 0,-362.500491 A 18.75,18.75 0 0 0 581.25001,-2.6189942e-4 l -562.50001,0 z"
         style="fill:#00ffff;fill-opacity:1" />
    </clipPath>
    <radialGradient
       inkscape:collect="always"
       xlink:href="#linearGradient22338"
       id="radialGradient6127"
       cx="1070"
       cy="700.00079"
       fx="1070"
       fy="700.00079"
       r="40"
       gradientUnits="userSpaceOnUse"
       gradientTransform="matrix(-1,0,0,1,-170,-99.999203)" />
    <linearGradient
       inkscape:collect="always"
       xlink:href="#linearGradient6136"
       id="linearGradient6142"
       x1="780"
       y1="373.3338"
       x2="800"
       y2="373.3338"
       gradientUnits="userSpaceOnUse"
       gradientTransform="matrix(1,0,0,0.79411464,-2000,123.53054)" />
    <linearGradient
       inkscape:collect="always"
       xlink:href="#linearGradient6136"
       id="linearGradient6152"
       x1="410"
       y1="620.00079"
       x2="410"
       y2="640.00079"
       gradientUnits="userSpaceOnUse"
       gradientTransform="translate(-2000,0)" />
    <radialGradient
       inkscape:collect="always"
       xlink:href="#linearGradient22338"
       id="radialGradient6156"
       gradientUnits="userSpaceOnUse"
       gradientTransform="translate(-3030,-99.9992)"
       cx="1070"
       cy="700.00079"
       fx="1070"
       fy="700.00079"
       r="40" />
    <linearGradient
       inkscape:collect="always"
       xlink:href="#linearGradient6136"
       id="linearGradient6160"
       gradientUnits="userSpaceOnUse"
       x1="780"
       y1="373.3338"
       x2="800"
       y2="373.3338"
       gradientTransform="matrix(1,0,0,0.7941165,1200,123.53027)" />
    <linearGradient
       inkscape:collect="always"
       xlink:href="#linearGradient6136"
       id="linearGradient6164"
       gradientUnits="userSpaceOnUse"
       x1="410"
       y1="620.00079"
       x2="410"
       y2="640.00079"
       gradientTransform="translate(-2000,-840.00157)" />
    <radialGradient
       inkscape:collect="always"
       xlink:href="#linearGradient22338"
       id="radialGradient6174"
       gradientUnits="userSpaceOnUse"
       gradientTransform="matrix(-1,0,0,-1,-170.00003,940.00078)"
       cx="1070"
       cy="700.00079"
       fx="1070"
       fy="700.00079"
       r="40" />
    <radialGradient
       inkscape:collect="always"
       xlink:href="#linearGradient22338"
       id="radialGradient6176"
       gradientUnits="userSpaceOnUse"
       gradientTransform="matrix(1,0,0,-1,-3030,940.00078)"
       cx="1070"
       cy="700.00079"
       fx="1070"
       fy="700.00079"
       r="40" />
    <linearGradient
       inkscape:collect="always"
       xlink:href="#linearGradient22506"
       id="linearGradient6209"
       x1="2050"
       y1="-120.00079"
       x2="2560"
       y2="-630.00079"
       gradientUnits="userSpaceOnUse"
       gradientTransform="matrix(1,0,0,0.81632645,-4000,-113.87776)" />
    <filter
       style="color-interpolation-filters:sRGB"
       inkscape:label="Blur"
       id="filter6223">
      <feGaussianBlur
         stdDeviation="2 2"
         result="blur"
         id="feGaussianBlur6225" />
    </filter>
    <filter
       style="color-interpolation-filters:sRGB"
       inkscape:label="Blur"
       id="filter15556">
      <feGaussianBlur
         stdDeviation="2 2"
         result="blur"
         id="feGaussianBlur15558" />
    </filter>
    <filter
       style="color-interpolation-filters:sRGB"
       inkscape:label="Blur"
       id="filter4960">
      <feGaussianBlur
         stdDeviation="2 2"
         result="blur"
         id="feGaussianBlur4962" />
    </filter>
    <filter
       style="color-interpolation-filters:sRGB"
       inkscape:label="Blur"
       id="filter4966">
      <feGaussianBlur
         stdDeviation="2 2"
         result="blur"
         id="feGaussianBlur4968" />
    </filter>
    <filter
       style="color-interpolation-filters:sRGB"
       inkscape:label="Blur"
       id="filter4970">
      <feGaussianBlur
         stdDeviation="2 2"
         result="blur"
         id="feGaussianBlur4972" />
    </filter>
    <filter
       style="color-interpolation-filters:sRGB"
       inkscape:label="Blur"
       id="filter4994">
      <feGaussianBlur
         stdDeviation="2 2"
         result="blur"
         id="feGaussianBlur4996" />
    </filter>
    <filter
       style="color-interpolation-filters:sRGB"
       inkscape:label="Blur"
       id="filter5261">
      <feGaussianBlur
         stdDeviation="2 2"
         result="blur"
         id="feGaussianBlur5263" />
    </filter>
    <filter
       style="color-interpolation-filters:sRGB"
       inkscape:label="Blur"
       id="filter5285">
      <feGaussianBlur
         stdDeviation="2 2"
         result="blur"
         id="feGaussianBlur5287" />
    </filter>
    <clipPath
       clipPathUnits="userSpaceOnUse"
       id="clipPath6259">
      <rect
         style="fill:#d70000;fill-opacity:1"
         id="rect6261"
         width="600"
         height="330"
         x="0"
         y="-330"
         transform="scale(1,-1)"
         ry="30" />
    </clipPath>
  </defs>
  <g
     id="g6263"
     transform="translate(80,-157.00079)">
    <rect
       style="fill:#000000;fill-opacity:1;filter:url(#filter5285)"
       id="rect6199"
       width="800"
       height="440"
       x="-1000"
       y="-641.00079"
       transform="matrix(1,0,0,-1,1000,0)"
       ry="40" />
    <g
       clip-path="url(#clipPath6259)"
       transform="matrix(1.3333333,0,0,1.3333333,0,200.00079)"
       id="g4196">
      <rect
         width="600"
         height="330"
         x="0"
         y="0"
         id="rect4"
         style="fill:#0038a8" />
      <rect
         width="600"
         height="220"
         x="0"
         y="0"
         id="rect6"
         style="fill:#ffffff" />
      <rect
         width="600"
         height="110"
         x="0"
         y="0"
         id="rect8"
         style="fill:#d52b1e" />
      <path
         inkscape:connector-curvature="0"
         d="m 341.81663,164.98906 c 0,23.10236 -18.71611,41.82744 -41.81786,41.82744 -23.08948,0 -41.8154,-18.72508 -41.8154,-41.82744 0,-23.09265 18.72592,-41.80556 41.8154,-41.80556 23.10175,0 41.81786,18.71291 41.81786,41.80556 z"
         id="path2542"
         style="fill:#ffffff;fill-opacity:1;stroke:#000000;stroke-width:1.84290493;stroke-linecap:butt;stroke-linejoin:miter;stroke-miterlimit:10;stroke-dasharray:none;stroke-opacity:1" />
      <path
         inkscape:connector-curvature="0"
         d="m 320.23636,158.49868 c -1.01583,-0.0413 -1.02221,1.07824 -1.02221,1.07824 0,0 0.0352,-0.33078 0.006,0.0445 -0.0192,0.37214 0.16665,1.27868 0.91649,1.35182 0.79151,0.07 1.05427,-0.8556 1.06071,-1.30408 0,-0.17809 -0.0577,-1.14825 -0.96137,-1.17052"
         id="path2618"
         style="fill:#009b3a;fill-opacity:1;fill-rule:nonzero;stroke:#000000;stroke-width:0.49257559;stroke-miterlimit:4;stroke-dasharray:none;stroke-opacity:1" />
      <g
         transform="matrix(1.0000826,0,0,1.0085097,97.058443,-0.91805934)"
         id="g4938">
        <path
           inkscape:connector-curvature="0"
           d="m 176.69647,181.09894 -0.35768,-0.58836 c -0.0367,-0.0651 -0.12984,-0.17361 -0.27929,-0.33517 -0.0735,-0.0844 -0.16904,-0.12298 -0.27683,-0.13503 -0.11025,-0.0145 -0.21559,0.002 -0.32583,0.0651 -0.13965,0.0844 -0.23029,0.19773 -0.24499,0.33517 -0.0269,0.13986 0.0392,0.33276 0.19599,0.59318 l 0.36258,0.61248 0.92605,-0.54737 z m 3.54006,-0.20255 -4.54941,2.68379 -1.38907,-2.31486 c -0.25724,-0.43404 -0.41403,-0.77885 -0.47528,-1.05133 -0.071,-0.2773 -0.0367,-0.53772 0.0784,-0.79573 0.11514,-0.26042 0.32338,-0.47744 0.61491,-0.65106 0.24254,-0.14467 0.49488,-0.2146 0.73987,-0.22666 0.25478,0 0.48752,0.0627 0.71291,0.18085 0.13964,0.0796 0.30133,0.20255 0.47772,0.38099 -0.0416,-0.19291 -0.0661,-0.34482 -0.0563,-0.46297 0.0147,-0.0699 0.0465,-0.18568 0.11024,-0.3617 0.0613,-0.16879 0.12004,-0.28695 0.15679,-0.3617 l 0.9187,-1.45161 0.9383,1.577 -0.9383,1.56494 c -0.11759,0.19773 -0.18864,0.34964 -0.19844,0.45574 -0.005,0.14709 0.0269,0.27489 0.098,0.40027 l 0.0784,0.1278 1.84231,-1.0875 0.8403,1.39374 z"
           id="path2462"
           style="fill:#000000;fill-opacity:1;fill-rule:nonzero;stroke:none" />
        <path
           inkscape:connector-curvature="0"
           d="m 172.22742,177.223 -1.38908,-4.1161 1.0706,-0.35688 0.8697,2.5801 0.80356,-0.26765 -0.81826,-2.39443 1.02895,-0.33276 0.80845,2.38237 0.98485,-0.31588 -0.8893,-2.65485 1.13674,-0.3834 1.41113,4.19327 -5.01734,1.66621 z"
           id="path2466"
           style="fill:#000000;fill-opacity:1;fill-rule:nonzero;stroke:none" />
        <path
           inkscape:connector-curvature="0"
           d="m 172.37588,168.84467 -0.0564,-0.38581 c -0.0367,-0.3207 -0.11514,-0.52808 -0.23518,-0.63658 -0.12985,-0.10851 -0.27439,-0.15915 -0.44833,-0.13986 -0.16169,0.0265 -0.29399,0.094 -0.39443,0.20737 -0.10534,0.12539 -0.13964,0.33276 -0.0956,0.63418 l 0.0441,0.46297 1.18574,-0.14227 z m -2.05789,1.87841 -0.31603,-2.67414 c -0.0637,-0.57389 0.0196,-1.03204 0.26213,-1.35516 0.24989,-0.3207 0.63207,-0.51361 1.14654,-0.57148 0.52917,-0.0651 0.9677,0.0482 1.30088,0.32553 0.32829,0.28212 0.53897,0.75233 0.61737,1.39856 l 0.10044,0.88013 1.94765,-0.22426 0.19109,1.61799 -5.25007,0.60283 z"
           id="path2470"
           style="fill:#000000;fill-opacity:1;fill-rule:nonzero;stroke:none" />
        <path
           inkscape:connector-curvature="0"
           d="m 170.13401,160.48997 0.16904,-1.61075 3.14074,0.33517 c 0.30868,0.0362 0.59776,0.11815 0.855,0.23872 0.27684,0.12297 0.49732,0.30141 0.68106,0.5329 0.1813,0.23148 0.30869,0.45332 0.36749,0.69204 0.0808,0.31588 0.10289,0.70169 0.0514,1.14537 -0.022,0.24355 -0.0759,0.52567 -0.14699,0.81985 -0.0661,0.29659 -0.16904,0.54013 -0.29643,0.72821 -0.12985,0.19291 -0.29644,0.36411 -0.50958,0.5112 -0.21314,0.14468 -0.42872,0.2339 -0.64431,0.27248 -0.34788,0.0699 -0.64677,0.0844 -0.90646,0.0555 l -3.12603,-0.32794 0.16904,-1.61316 3.20688,0.34481 c 0.28909,0.0289 0.51937,-0.0241 0.69821,-0.16879 0.17885,-0.14227 0.27929,-0.34964 0.31359,-0.62212 0.0294,-0.28694 -0.0294,-0.50878 -0.16904,-0.67999 -0.13965,-0.17602 -0.35523,-0.27488 -0.64677,-0.30864 l -3.20688,-0.34482 z"
           id="path2474"
           style="fill:#000000;fill-opacity:1;fill-rule:nonzero;stroke:none" />
        <path
           inkscape:connector-curvature="0"
           d="m 175.3951,156.08161 0.28174,-0.77644 c 0.0857,-0.26283 0.11024,-0.46538 0.0514,-0.61247 -0.0514,-0.13263 -0.16169,-0.23631 -0.32093,-0.28695 -0.15679,-0.0531 -0.28664,-0.0434 -0.41403,0.0338 -0.13229,0.0796 -0.24499,0.24836 -0.33563,0.5112 l -0.27929,0.78126 1.0167,0.34964 z m -1.96235,-0.6824 0.23764,-0.65829 c 0.0808,-0.24113 0.1029,-0.42439 0.0441,-0.54736 -0.0441,-0.11816 -0.14699,-0.2122 -0.30624,-0.25801 -0.13964,-0.0531 -0.27193,-0.0434 -0.38707,0.0169 -0.11515,0.0675 -0.21069,0.2122 -0.28909,0.44369 l -0.24744,0.67757 0.9481,0.32553 z m -2.49642,0.87048 1.00445,-2.87187 c 0.17394,-0.47744 0.42138,-0.79573 0.75456,-0.97658 0.32094,-0.16397 0.65902,-0.19531 1.01915,-0.0748 0.28908,0.11333 0.50957,0.28695 0.66146,0.54255 0.0907,0.16879 0.147,0.39063 0.147,0.64864 0.20823,-0.32794 0.44832,-0.53531 0.71536,-0.62453 0.27193,-0.0965 0.56837,-0.0916 0.8893,0.0193 0.25234,0.0868 0.46303,0.22908 0.62962,0.41716 0.15924,0.19772 0.26458,0.41474 0.31603,0.6607 0.0245,0.15914 0.0122,0.37134 -0.0441,0.63417 -0.0833,0.36893 -0.13229,0.60283 -0.17394,0.71134 l -0.93095,2.64279 -4.98794,-1.72891 z"
           id="path2478"
           style="fill:#000000;fill-opacity:1;fill-rule:nonzero;stroke:none" />
        <path
           inkscape:connector-curvature="0"
           d="m 173.63169,149.54962 0.855,-1.38409 3.40533,2.0472 1.32538,-2.16053 1.10979,0.67275 -2.16079,3.54221 -4.53471,-2.71754 z"
           id="path2482"
           style="fill:#000000;fill-opacity:1;fill-rule:nonzero;stroke:none" />
        <path
           inkscape:connector-curvature="0"
           d="m 177.12471,144.39014 1.05099,-1.24182 4.03494,3.38306 -1.05344,1.24183 -4.03249,-3.38307 z"
           id="path2486"
           style="fill:#000000;fill-opacity:1;fill-rule:nonzero;stroke:none" />
        <path
           inkscape:connector-curvature="0"
           d="m 184.45277,141.57156 1.37438,-0.58354 c 0.17639,0.36652 0.27683,0.71616 0.29153,1.05857 0.0122,0.33758 -0.0539,0.65587 -0.19599,0.95246 -0.15679,0.30142 -0.41403,0.59319 -0.76681,0.89942 -0.44832,0.3617 -0.8599,0.59801 -1.24943,0.70169 -0.38463,0.0989 -0.81581,0.0748 -1.29598,-0.0747 -0.46303,-0.15191 -0.90401,-0.48226 -1.33028,-0.97658 -0.55367,-0.67275 -0.80846,-1.33104 -0.75211,-1.97727 0.0539,-0.65829 0.41157,-1.24906 1.06324,-1.79401 0.51692,-0.42439 0.9971,-0.64623 1.46992,-0.6824 0.46058,-0.0434 0.95055,0.094 1.44298,0.40027 l -0.90401,1.16225 c -0.13719,-0.0892 -0.25233,-0.1495 -0.35033,-0.16879 -0.14944,-0.0434 -0.29398,-0.0434 -0.43852,-0.005 -0.14455,0.0314 -0.28419,0.0989 -0.40178,0.19773 -0.28664,0.23872 -0.41158,0.5329 -0.36993,0.88495 0.0245,0.26283 0.19354,0.56907 0.48752,0.93317 0.37973,0.4461 0.70801,0.69687 0.9775,0.74751 0.28418,0.0579 0.54632,-0.0217 0.79131,-0.22425 0.23764,-0.20255 0.36748,-0.41475 0.37238,-0.64623 0.007,-0.24596 -0.0588,-0.51361 -0.21559,-0.80538"
           id="path2490"
           style="fill:#000000;fill-opacity:1;fill-rule:nonzero;stroke:none" />
        <path
           inkscape:connector-curvature="0"
           d="m 189.8023,138.4207 -1.38173,-1.41785 0.34788,1.94593 1.03385,-0.52808 z m 0.82316,0.86084 -1.65612,0.83431 0.16904,0.88977 -1.48707,0.74992 -0.62961,-5.56771 1.58996,-0.80538 4.17213,3.77852 -1.52137,0.77162 -0.63696,-0.65105 z"
           id="path2494"
           style="fill:#000000;fill-opacity:1;fill-rule:nonzero;stroke:none" />
        <path
           inkscape:connector-curvature="0"
           d="m 197.05637,133.81486 0.40668,2.83088 0.39688,-0.0579 c 0.34053,-0.041 0.57817,-0.11574 0.71291,-0.20978 0.12984,-0.10369 0.21804,-0.23631 0.27194,-0.44368 0.0588,-0.1929 0.0588,-0.49432 -0.002,-0.91389 -0.0784,-0.54736 -0.22539,-0.91388 -0.43118,-1.0875 -0.21069,-0.17361 -0.52672,-0.2363 -0.9481,-0.17361 l -0.40668,0.0555 z m -1.77861,-0.94764 2.40088,-0.34241 c 0.47282,-0.0627 0.85745,-0.0579 1.16614,0.0289 0.31848,0.0892 0.58062,0.23389 0.8109,0.44609 0.22294,0.21219 0.40178,0.4702 0.52918,0.77162 0.13474,0.30141 0.22538,0.63658 0.27438,0.99104 0.0858,0.54978 0.0858,0.99346 -0.005,1.30934 -0.0808,0.32312 -0.22294,0.61007 -0.41648,0.8512 -0.20089,0.23389 -0.42382,0.40992 -0.67126,0.50878 -0.33808,0.15192 -0.65412,0.24113 -0.9481,0.28695 l -2.40578,0.33517 -0.73496,-5.18672 z"
           id="path2498"
           style="fill:#000000;fill-opacity:1;fill-rule:nonzero;stroke:none" />
      </g>
      <path
         inkscape:connector-curvature="0"
         d="m 299.54796,132.0548 4.36358,0.32343 -0.0809,1.12594 -2.73182,-0.20427 -0.0637,0.83898 2.53338,0.18725 -0.0907,1.07244 -2.52112,-0.17996 -0.0735,1.0311 2.81023,0.20913 -0.0882,1.1916 -4.44688,-0.3283 0.38956,-5.26734 z"
         id="path2502"
         style="fill:#000000;fill-opacity:1;fill-rule:nonzero;stroke:none" />
      <path
         inkscape:connector-curvature="0"
         d="m 306.2712,132.67224 1.5705,0.43774 -1.08539,3.84228 2.45254,0.69307 -0.35772,1.2451 -4.02547,-1.14053 1.44554,-5.07766 z"
         id="path2506"
         style="fill:#000000;fill-opacity:1;fill-rule:nonzero;stroke:none" />
      <path
         inkscape:connector-curvature="0"
         d="m 315.19119,138.53806 0.33811,0.21886 c 0.25971,0.17266 0.48022,0.24562 0.63947,0.22859 0.1715,-0.0195 0.2989,-0.0948 0.38956,-0.24318 0.0882,-0.13375 0.12005,-0.28452 0.10045,-0.44746 -0.0318,-0.15563 -0.1764,-0.3137 -0.43121,-0.4815 l -0.38956,-0.26263 -0.64682,0.98732 z m -0.12985,-2.78445 2.27122,1.49801 c 0.49246,0.32343 0.78157,0.68821 0.86977,1.08216 0.0956,0.39882 0,0.8171 -0.29156,1.24996 -0.28421,0.44016 -0.65172,0.69794 -1.08784,0.77333 -0.441,0.0705 -0.92367,-0.0657 -1.47494,-0.42801 l -0.74727,-0.49609 -1.07313,1.63662 -1.36959,-0.90708 2.90334,-4.4089 z"
         id="path2510"
         style="fill:#000000;fill-opacity:1;fill-rule:nonzero;stroke:none" />
      <path
         inkscape:connector-curvature="0"
         d="m 320.7972,143.81488 0.92123,-1.76307 -1.74936,0.94598 z m -0.55861,1.05056 -1.32549,-1.30347 -0.79873,0.43773 -1.18829,-1.16728 2.44244,-1.12823 2.69047,-1.24279 1.26424,1.24995 -2.29817,5.16764 -1.21524,-1.20619 z"
         id="path2514"
         style="fill:#000000;fill-opacity:1;fill-rule:nonzero;stroke:none" />
      <path
         inkscape:connector-curvature="0"
         d="m 325.14926,147.15865 0.37241,0.5885 c 0.0441,0.0584 0.12495,0.17266 0.29157,0.32829 0.0833,0.073 0.1666,0.11917 0.2842,0.12403 0.11515,0.0146 0.21316,-0.0146 0.31361,-0.0778 0.13966,-0.09 0.21805,-0.20184 0.24256,-0.34532 0.0196,-0.13618 -0.0539,-0.34045 -0.21806,-0.5885 l -0.37731,-0.6031 -0.90898,0.57392 z m -3.53545,0.3137 4.45668,-2.84523 1.46269,2.29321 c 0.27196,0.42314 0.44347,0.77089 0.52677,1.04082 0.0612,0.26994 0.0417,0.54229 -0.0686,0.8025 -0.1078,0.26751 -0.30626,0.4888 -0.58557,0.67118 -0.25236,0.16051 -0.49491,0.25049 -0.74482,0.25049 -0.23766,0.0146 -0.48021,-0.0462 -0.71787,-0.14591 -0.13965,-0.0827 -0.30137,-0.20428 -0.48267,-0.37694 0.0466,0.19455 0.0759,0.35262 0.0711,0.46205 -0.01,0.0754 -0.0441,0.19941 -0.0931,0.36477 -0.0588,0.1751 -0.1127,0.29912 -0.15926,0.3745 l -0.86242,1.49315 -0.99963,-1.5588 0.89672,-1.60014 c 0.12006,-0.21401 0.17886,-0.36721 0.17886,-0.47422 0.005,-0.14347 -0.0171,-0.27966 -0.1127,-0.40124 l -0.0711,-0.1216 -1.81305,1.15512 -0.88202,-1.38371 z"
         id="path2518"
         style="fill:#000000;fill-opacity:1;fill-rule:nonzero;stroke:none" />
      <path
         inkscape:connector-curvature="0"
         d="m 327.86248,154.59202 1.5852,-1.19646 -1.98212,0.10944 0.39692,1.08702 z m -0.96288,0.70766 -0.63458,-1.74848 -0.90162,0.0632 -0.57577,-1.56853 5.64987,0.0657 0.61007,1.66822 -4.29008,3.67693 -0.58801,-1.61473 0.73012,-0.5423 z"
         id="path2522"
         style="fill:#000000;fill-opacity:1;fill-rule:nonzero;stroke:none" />
      <path
         inkscape:connector-curvature="0"
         d="m 329.42979,160.92328 1.08783,-0.14348 0.31606,2.51938 -2.23692,0.26993 c -0.37731,-0.43773 -0.66642,-0.82925 -0.82077,-1.18673 -0.17151,-0.35505 -0.28176,-0.78549 -0.34546,-1.28887 -0.0809,-0.62255 -0.0392,-1.14296 0.13475,-1.56124 0.1568,-0.41827 0.43612,-0.76602 0.82812,-1.04082 0.39446,-0.2602 0.85998,-0.43286 1.40145,-0.49852 0.57086,-0.0754 1.08783,-0.017 1.53864,0.17022 0.45082,0.17996 0.81343,0.48394 1.09518,0.91195 0.21806,0.33802 0.36261,0.8025 0.43122,1.40559 0.0809,0.57634 0.0809,1.0165 0.005,1.31562 -0.0613,0.30397 -0.19601,0.56175 -0.39936,0.78061 -0.19111,0.21401 -0.44837,0.39882 -0.77668,0.53015 l -0.47531,-1.52477 c 0.18866,-0.0948 0.32831,-0.21642 0.41161,-0.38908 0.0858,-0.16537 0.10781,-0.37451 0.0858,-0.6031 -0.0588,-0.35991 -0.2058,-0.62741 -0.47532,-0.80736 -0.27685,-0.17996 -0.68356,-0.23589 -1.21768,-0.17024 -0.56841,0.0705 -0.95307,0.23346 -1.17603,0.46935 -0.21071,0.24804 -0.28911,0.56661 -0.24991,0.94598 0.0196,0.17995 0.0735,0.34775 0.14211,0.50339 0.0759,0.16537 0.1862,0.33316 0.33811,0.5423 l 0.49736,-0.0681 -0.13965,-1.08216 z"
         id="path2526"
         style="fill:#000000;fill-opacity:1;fill-rule:nonzero;stroke:none" />
      <path
         inkscape:connector-curvature="0"
         d="m 332.77708,168.85055 -0.1862,1.6196 -3.1263,-0.35262 c -0.31116,-0.0365 -0.59781,-0.11672 -0.86242,-0.24561 -0.26461,-0.12889 -0.49246,-0.30398 -0.67622,-0.53744 -0.17886,-0.22858 -0.30136,-0.45961 -0.36017,-0.69306 -0.0759,-0.33803 -0.0956,-0.7174 -0.0441,-1.16242 0.0343,-0.25291 0.0833,-0.53257 0.14455,-0.83169 0.0711,-0.29911 0.1764,-0.5423 0.30871,-0.73198 0.12741,-0.18968 0.29891,-0.35747 0.50472,-0.50825 0.2303,-0.14348 0.441,-0.23345 0.65171,-0.26993 0.34301,-0.0657 0.64927,-0.0875 0.90653,-0.0486 l 3.13119,0.35747 -0.1862,1.61474 -3.20225,-0.36721 c -0.29156,-0.0316 -0.52186,0.0195 -0.70317,0.16293 -0.17641,0.14592 -0.28176,0.35019 -0.31116,0.62985 -0.0318,0.28695 0.0221,0.51311 0.16415,0.68577 0.13722,0.17509 0.35281,0.27967 0.63948,0.32343 l 3.20714,0.35505 z"
         id="path2530"
         style="fill:#000000;fill-opacity:1;fill-rule:nonzero;stroke:none" />
      <path
         inkscape:connector-curvature="0"
         d="m 327.9105,174.86836 1.99191,0.0705 -1.60725,-1.17214 -0.38466,1.10162 z m -1.18094,-0.0608 0.60272,-1.75336 -0.73747,-0.5277 0.54882,-1.57826 4.34643,3.61126 -0.59782,1.69012 -5.63272,0.13862 0.55372,-1.61959 0.91632,0.0389 z"
         id="path2534"
         style="fill:#000000;fill-opacity:1;fill-rule:nonzero;stroke:none" />
      <path
         inkscape:connector-curvature="0"
         d="m 329.6476,179.67486 -0.91877,1.56367 -2.08256,0.007 0.99718,1.82873 -0.91389,1.54421 -1.60724,-3.32917 -1.90616,-1.12351 0.83792,-1.41289 1.90371,1.1308 3.68981,-0.20914 z"
         id="path2538"
         style="fill:#000000;fill-opacity:1;fill-rule:nonzero;stroke:none" />
      <path
         inkscape:connector-curvature="0"
         d="m 335.01669,164.98906 c 0,19.34519 -15.67557,35.02319 -35.01155,35.02319 -19.34088,0 -35.01645,-15.678 -35.01645,-35.02319 0,-19.3306 15.67557,-35.00617 35.01645,-35.00617 19.33598,0 35.01155,15.67557 35.01155,35.00617 z"
         id="path2546"
         style="fill:none;stroke:#000000;stroke-width:0.73716193;stroke-linecap:butt;stroke-linejoin:miter;stroke-miterlimit:10;stroke-dasharray:none;stroke-opacity:1" />
      <path
         inkscape:connector-curvature="0"
         d="m 326.05849,164.87013 c 0,14.39643 -11.66236,26.05704 -26.05409,26.05704 -14.39172,0 -26.05898,-11.66061 -26.05898,-26.05704 0,-14.38183 11.66726,-26.04488 26.05898,-26.04488 14.39173,0 26.05409,11.66305 26.05409,26.04488 z"
         id="path2550"
         style="fill:none;stroke:#000000;stroke-width:0.73716193;stroke-linecap:butt;stroke-linejoin:miter;stroke-miterlimit:10;stroke-dasharray:none;stroke-opacity:1" />
      <path
         inkscape:connector-curvature="0"
         d="m 300.00735,155.49446 2.18791,6.26439 6.62255,0.14834 -5.27746,4.01252 1.91841,6.34951 -5.45141,-3.7742 -5.45387,3.7742 1.90861,-6.34951 -5.28481,-4.01252 6.6348,-0.14834 2.19527,-6.26439 z"
         id="path2554"
         style="fill:#fedf00;fill-opacity:1;fill-rule:nonzero;stroke:#000000;stroke-width:0.30128619;stroke-miterlimit:4;stroke-dasharray:none;stroke-opacity:1" />
      <path
         inkscape:connector-curvature="0"
         d="m 312.0377,182.85253 c -0.22051,0.18482 -1.10988,0.28452 -1.34509,0.32343 -0.23766,0.0316 -1.17114,0.0413 -1.5656,0.0559 -0.21806,0.0146 -0.63701,0.0754 -0.85507,0.0754 -1.91409,-0.21831 3.10919,-0.18768 3.76576,-0.45474 m -5.01531,-1.48099 c 0.12496,-0.22373 0.75218,-1.61959 0.97759,-2.01598 0.2303,-0.38909 0.74972,-1.42748 1.06088,-1.86035 0.15926,-0.23346 0.78403,-0.91193 0.93348,-0.60796 -1.08796,0.9404 -1.94562,2.58096 -2.40232,3.68509 -0.0588,0.11916 -0.41652,0.73337 -0.54882,0.89387 -0.12741,0.15807 -0.0754,0.4558 -0.27628,0.48011 -0.21071,0.0268 -0.063,0.0648 -0.063,0.0648 0,0 0.1813,-0.40369 0.3185,-0.63958 z m 7.21547,1.06758 c 0,0 -0.86487,-0.12889 -1.40144,-0.31857 -0.53411,-0.17996 -1.43084,-0.31858 -2.19527,-0.29911 -0.75707,0.01 -1.45044,0.23831 -2.06786,0.4742 -0.61497,0.22859 -1.41123,0.24804 -1.41123,0.24804 0,0 -0.45082,0.0705 -0.24011,-0.034 0.2009,-0.0997 0.89917,-0.64443 0.89917,-0.64443 l 0.45082,-0.61769 c 0.1299,-0.0361 2.41801,-3.0388 2.16928,-3.84437 0.35036,-0.59337 0.761,-1.65156 0.60665,-1.83638 -0.0735,-0.0754 -1.7812,0.5423 -2.15606,0.88275 -0.43367,0.37451 -0.73993,1.15513 -0.86978,1.60501 -0.1274,0.44746 -0.78403,0.8171 -0.78403,0.8171 -0.53411,0.38422 -0.92122,1.60014 -1.10253,2.59475 -0.18375,0.98246 -2.60365,1.52645 -2.60365,1.52645 0,0 -0.67132,0.25049 -0.0759,0.44017 0.10289,0.0292 0.36845,0.47829 0.58161,0.48558 0.29645,0.0341 1.79909,-0.60886 2.03184,-0.5578 0.27441,0.0559 0.93837,0.2286 1.51414,0.41341 0.57332,0.19455 1.04619,0.29425 1.448,0.14591 0.40671,-0.14591 0.98738,-0.09 1.42349,-0.005 0.42876,0.0924 0.90898,0.0535 1.18584,-0.0316 0.29646,-0.09 1.07557,-0.52284 1.07557,-0.52284 0,0 0.84283,-0.36477 1.33039,-0.59337 0.48758,-0.22859 0.19111,-0.32829 0.19111,-0.32829"
         id="path2562"
         style="fill:#009b3a;fill-opacity:1;fill-rule:nonzero;stroke:#000000;stroke-width:0.37660775;stroke-miterlimit:4;stroke-dasharray:none;stroke-opacity:1" />
      <path
         inkscape:connector-curvature="0"
         d="m 307.66138,185.36024 c 0,0 -3.3321,-1.74362 -3.51096,-1.78496 -0.10535,-0.0146 -1.5117,-0.79035 -2.15606,-0.98976 -0.46552,-0.15077 -1.10743,-0.18969 -1.33774,-0.17509 -0.54882,0.0389 -1.4442,0.28079 -1.4442,0.28079 l 0.82813,0.33802 c 0,0 0.77667,0.38179 1.15643,0.58607 0.54392,0.28696 0.56842,0.63714 0.56842,0.63714 l 3.01714,1.32665 0.61252,0.44016 c 0,0 0.55617,-0.76846 2.26632,-0.65902"
         id="path2558"
         style="fill:#009b3a;fill-opacity:1;fill-rule:nonzero;stroke:#000000;stroke-width:0.30128619;stroke-miterlimit:4;stroke-dasharray:none;stroke-opacity:1" />
      <path
         inkscape:connector-curvature="0"
         d="m 311.01318,178.43927 c 1.0479,-0.93442 1.56051,-2.26381 2.42279,-2.99953 0.13948,0.1 0.13948,0.26664 -0.031,0.56146 -0.16272,0.28968 -0.37969,0.38966 -0.47527,0.54093 -0.17563,0.23586 -0.70045,0.67212 -0.84252,0.93362 -0.12657,0.24867 -0.28961,0.59499 -0.74679,0.85906 -0.4546,0.27174 -0.31172,0.70436 -0.35046,0.88639 -0.0362,0.19996 -0.73706,0.70174 -1.07542,1.32216 -0.0642,0.64676 -0.0937,0.37577 -0.48567,0.60539 0.71372,-1.07643 1.08933,-1.76934 1.58433,-2.70948 m -2.35562,2.9585 c -0.0672,0.141 -2.1344,1.31487 -1.48867,1.14054 0.64316,-0.1692 2.55282,-0.85853 3.09524,-1.09952 0.66382,-0.2897 1.06159,-0.89729 1.5601,-1.39208 0.50883,-0.50506 2.08243,-2.00808 2.35364,-2.58749 0.26603,-0.59733 0.50824,-1.42727 -0.5585,-3.29108 0,0 -0.16532,0.35636 -0.56309,0.70503 -0.3926,0.35635 -0.97892,0.75116 -0.97892,0.75116 l -0.68449,0.64605 c 0,0 -2.41504,4.43776 -2.73531,5.12739"
         id="path2566"
         style="fill:#009b3a;fill-opacity:1;fill-rule:nonzero;stroke:#000000;stroke-width:0.39702958;stroke-miterlimit:4;stroke-dasharray:none;stroke-opacity:1" />
      <path
         inkscape:connector-curvature="0"
         d="m 317.05496,179.83634 c 0,0 -1.32304,-0.11916 -1.43819,-0.11916 -0.12496,0 -0.85018,-0.0997 -1.9037,-0.0997 -1.04374,0 -1.43575,0.36235 -1.71015,0.65416 -0.29647,0.32587 -1.1197,1.07974 -1.1197,1.07974 l 0.44347,-0.0389 c 1.05844,-0.82438 1.88175,-0.52215 2.21007,-0.54646 0.34301,-0.0122 0.7561,0.0216 1.81454,-0.35288 1.07558,-0.37693 1.01275,-0.0247 0.89514,0.0117 -0.1176,0.0462 -0.80684,0.28809 -1.59576,0.32214 -0.79873,0.0438 -1.49907,0.19888 -1.81268,0.19888 -0.31606,0 -2.64515,0.6368 -2.64515,0.6368 0,0 2.52058,0.14807 2.79254,0.23805 0.26951,0.10943 0.69337,0.0584 1.04373,-0.10943 0.96533,-0.44503 1.40145,-0.53015 1.79835,-0.62011 0.39936,-0.0778 0.87468,-0.34776 0.87468,-0.34776 0,0 0.25482,-0.1605 0.49001,-0.5885 0.24256,-0.43773 -0.1372,-0.31857 -0.1372,-0.31857"
         id="path2570"
         style="fill:#009b3a;fill-opacity:1;fill-rule:nonzero;stroke:#000000;stroke-width:0.37660775;stroke-miterlimit:4;stroke-dasharray:none;stroke-opacity:1" />
      <path
         inkscape:connector-curvature="0"
         d="m 318.29152,172.93068 c 0.15925,-0.39396 0.55616,-1.32048 0.97757,-1.68526 0.25726,-0.22373 0.70072,-0.32829 0.93592,-0.428 0.10046,-0.0341 0.8235,-0.0686 -0.0806,0.17946 -0.37487,0.0997 -0.88094,0.32198 -1.10635,0.69892 -0.31592,0.87764 -0.59225,1.64152 -1.17904,2.20225 -0.4312,0.45233 -0.70397,1.04132 -0.70397,1.04132 l -0.4626,0.16058 c 0.84728,-0.51926 1.21545,-1.48103 1.61904,-2.16927 z m 4.09651,-0.49367 c -0.48267,0.16051 -0.65172,0.29426 -0.65172,0.29426 -1.08048,0.32343 -1.52227,1.00163 -1.99514,1.55366 -0.2401,0.28938 -0.57831,0.50511 -1.71759,0.99391 -1.04129,0.44745 -1.84637,1.13849 -1.86597,1.13849 0,0 -0.33076,0.0681 -0.26706,0.2286 0.0245,0.0754 0.30626,0.0146 0.30626,0.0146 0,0 2.14435,-0.30554 3.03863,-0.85027 0.57087,-0.35748 0.89363,-0.61796 1.43509,-1.45451 0.24256,-0.36964 0.51451,-1.06514 0.52677,-0.61769 0.0417,1.18673 -1.8008,2.33699 -2.60443,2.69204 -0.42877,0.18238 -1.00208,0.25777 -1.7518,0.3818 -0.73993,0.13618 -1.19074,0.0948 -1.13684,-0.0681 0.076,-0.23588 0.16171,-0.28452 0.35771,-0.51798 0.35281,-0.4207 1.20544,-0.56904 1.83266,-0.86329 0.74237,-0.33316 1.44554,-0.82196 1.79835,-1.24024 0.36016,-0.42314 0.48512,-0.57877 0.58312,-0.93625 0.27441,-0.93383 0.28911,-1.4518 0.54636,-1.78496 0.90653,-1.11621 1.03884,-1.47612 1.08293,-1.97465 0.01,-0.11429 -0.47041,0.26508 -0.72032,0.40369 -0.48756,0.28939 -0.66886,0.28939 -1.66849,0.54959 -1.01434,0.25291 -0.99229,0.90708 -1.14909,1.21591 -0.0465,0.12403 -0.45816,0.63714 -0.65416,0.73199 -0.19601,0.0997 -0.67868,0.79763 -0.85753,1.20618 -0.1323,0.29912 -0.36751,0.51312 -0.55617,0.4888 -0.19846,-0.0365 0.37976,-2.19838 0.50716,-2.55585 0.13721,-0.35505 0.16416,-1.04812 0.16416,-1.28158 0,-0.22373 0.008,-0.81255 -0.38438,-0.87822 -0.38956,-0.0657 -0.40713,-0.60423 -0.40713,-0.60423 -0.93838,0.81223 -0.41392,2.24361 -0.31347,3.09233 0.10045,0.84141 -0.19356,2.39778 -0.19356,2.39778 0.90653,0.38666 0.19356,1.48828 -0.0882,1.84332 -0.29646,0.36235 -0.85753,0.428 -1.10988,0.74657 -0.26706,0.3283 -2.16533,2.97179 -2.16533,2.97179 l 2.36134,-0.66885 c 0,0 0.22049,0.0389 -0.13231,-0.22859 -0.35771,-0.25534 0.11515,-1.24752 0.41896,-1.4907 0.58067,-0.45476 1.36469,-0.12403 1.36469,-0.12403 0,0 1.09518,0.1678 2.43782,-0.36478 1.12214,-0.44258 1.60481,-1.15998 2.13647,-1.69984 0.2891,-0.29425 0.81832,-1.26941 1.15154,-1.8482 0.2009,-0.33315 0.56106,-0.96786 0.34055,-0.89248"
         id="path2574"
         style="fill:#009b3a;fill-opacity:1;fill-rule:nonzero;stroke:#000000;stroke-width:0.37660775;stroke-miterlimit:4;stroke-dasharray:none;stroke-opacity:1" />
      <path
         inkscape:connector-curvature="0"
         d="m 315.69152,178.78565 c 0.18026,-0.0732 0.20756,-0.10572 0.538,-0.46623 0.325,-0.36052 0.0382,-0.9677 -0.46425,-0.9433 -0.2458,0.0163 -0.50797,-0.0407 -0.99135,0.60989 -0.467,0.65056 0.22393,0.88909 0.48611,0.9162 0.11198,0.005 0.25944,-0.0434 0.43149,-0.11656"
         id="path2582"
         style="fill:#009b3a;fill-opacity:1;fill-rule:nonzero;stroke:#000000;stroke-width:0.41978604;stroke-miterlimit:4;stroke-dasharray:none;stroke-opacity:1" />
      <path
         inkscape:connector-curvature="0"
         d="m 314.47065,174.66944 c -0.31253,0.52349 -0.47995,1.12451 -0.23439,1.31007 0.0558,0.0305 0.27349,0.22157 0.45765,0.22157 0.18137,0 0.69483,-0.24648 0.98784,-0.69797 0.29299,-0.43761 0.53299,-0.91953 -0.067,-1.21867 -0.54416,-0.26866 -0.91808,-0.0166 -1.14413,0.385"
         id="path2586"
         style="fill:#009b3a;fill-opacity:1;fill-rule:nonzero;stroke:#000000;stroke-width:0.42893687;stroke-miterlimit:4;stroke-dasharray:none;stroke-opacity:1" />
      <path
         inkscape:connector-curvature="0"
         d="m 316.2577,168.27753 c 0,0 0.049,-0.0803 -0.1568,-0.29425 -0.32586,-0.33316 -0.73381,-0.92765 -0.73381,-0.92765 -0.64926,0.35504 -0.86487,1.07242 -0.86487,1.35696 0,0.29668 0.11025,0.94111 0.01,1.59771 -0.0343,0.22372 -0.0711,0.47906 -0.39201,1.29129 -0.32831,0.8025 0.0466,1.53935 0.12005,1.79956 0.0564,0.25777 0.32342,1.06027 0.32342,1.06027 0,0 0.2548,-0.16293 0.34056,-0.18239 0.10044,-0.0267 0.44591,-0.0121 0.44591,-0.0121 0,0 0.39079,-0.70653 0.40549,-1.10049 0.007,-0.28939 -0.0392,-0.78062 -0.17641,-1.53449 -0.1911,-1.09675 -0.17885,-1.41046 -0.049,-2.02328 0.12985,-0.62254 0.72767,-1.03109 0.72767,-1.03109"
         id="path2590"
         style="fill:#009b3a;fill-opacity:1;fill-rule:nonzero;stroke:#000000;stroke-width:0.37660775;stroke-miterlimit:4;stroke-dasharray:none;stroke-opacity:1" />
      <path
         inkscape:connector-curvature="0"
         d="m 317.22544,169.37327 c 0,0 0.36882,-0.0882 0.55458,-0.4222 0.23422,-0.40348 0.1723,-0.83102 0.1723,-0.83102 -0.57074,-1.10627 -1.33801,-0.21378 -1.33801,-0.21378 -0.68651,1.40555 0.61113,1.467 0.61113,1.467"
         id="path2594"
         style="fill:#009b3a;fill-opacity:1;fill-rule:nonzero;stroke:#000000;stroke-width:0.41382217;stroke-miterlimit:4;stroke-dasharray:none;stroke-opacity:1" />
      <path
         inkscape:connector-curvature="0"
         d="m 319.16938,167.34482 c -0.85142,0.0445 -1.27077,1.57582 -1.27077,1.57582 0,0 -0.1376,0.37805 -0.59212,0.67033 -0.48336,0.29866 -0.19846,0.72756 -0.19846,1.49004 0,0.76249 -0.53138,2.10955 -0.53138,2.10955 l -0.19842,0.45747 c 0,0 0.0192,0.34312 0.32967,-0.27954 0.52816,-1.04842 1.10752,-0.79427 1.32517,-1.92211 0.13763,-0.83876 1.52682,-1.10563 1.52682,-1.10563 l -0.39051,-0.0731 c -1.44359,-0.6767 0.0832,-2.36369 0.32971,-2.6623 0.26246,-0.29867 0.51212,-0.29867 -0.32971,-0.26055"
         id="path2598"
         style="fill:#009b3a;fill-opacity:1;fill-rule:nonzero;stroke:#000000;stroke-width:0.49201265;stroke-miterlimit:4;stroke-dasharray:none;stroke-opacity:1" />
      <path
         inkscape:connector-curvature="0"
         d="m 318.92639,169.16115 c -0.38988,0.83617 0.71976,0.87676 0.97603,0.73063 0.10361,-0.0595 0.33807,-0.33825 0.33807,-0.33825 0.44987,-0.64675 0.0382,-1.08514 -0.19629,-1.14738 -0.22629,-0.0758 -0.70886,-0.1326 -1.11781,0.755"
         id="path2602"
         style="fill:#009b3a;fill-opacity:1;fill-rule:nonzero;stroke:#000000;stroke-width:0.4190793;stroke-miterlimit:4;stroke-dasharray:none;stroke-opacity:1" />
      <path
         inkscape:connector-curvature="0"
         d="m 316.81803,165.91509 c 0.29156,0.5423 1.10498,2.05246 1.29609,1.95762 0.12006,-0.0584 0.0245,-0.3672 0.0245,-0.3672 0,0 -0.0245,-0.40855 -0.1568,-0.90221 -0.12985,-0.49853 -0.0984,-1.13573 -0.35809,-1.54427 -0.25236,-0.40855 -0.85668,-0.89242 -1.09434,-1.53686 -0.23521,-0.64687 -0.0509,-1.87005 -0.0313,-2.02082 0.0245,-0.14104 0.0956,-0.0486 -0.0294,-0.19454 -0.1274,-0.15808 -1.15604,-0.70537 -1.15604,-0.70537 0,0 0.0599,0.39893 0.0354,1.12118 -0.01,0.17509 -0.0588,0.37937 -0.0857,0.68334 -0.0245,0.28939 0.14945,0.65416 0.57086,1.48585 0.49002,0.963 0.72522,1.55394 0.98493,2.02328"
         id="path2606"
         style="fill:#009b3a;fill-opacity:1;fill-rule:nonzero;stroke:#000000;stroke-width:0.37660775;stroke-miterlimit:4;stroke-dasharray:none;stroke-opacity:1" />
      <path
         inkscape:connector-curvature="0"
         d="m 322.98634,158.73367 c 0,0 -0.29645,0.49366 -0.40181,0.60308 -0.11025,0.10944 -1.7861,1.54909 -1.88166,1.60988 -0.0808,0.0632 -0.95552,0.34289 -1.7518,2.49505 -0.79873,2.14488 -0.45326,4.15114 -0.45326,4.15114 l 0.38711,-0.0486 0.0661,-0.20914 c 0,0 0.12986,-0.71252 0.23031,-1.25239 0.11025,-0.53257 0.70731,-1.27699 1.10421,-1.82658 0.37733,-0.53743 0.68269,-1.31047 0.68269,-1.31047 0.44879,-0.90452 0.66473,-1.71346 1.10909,-2.34429 0.0182,0.75146 -2.83779,5.37087 -3.14321,6.94287 l 0.84504,-0.12889 c 0.67621,-0.61768 1.5607,-1.91385 2.15852,-2.7504 0.60271,-0.83898 0.85752,-2.14974 0.96777,-2.73094 0.10536,-0.57391 0.0808,-3.20028 0.0808,-3.20028"
         id="path2610"
         style="fill:#009b3a;fill-opacity:1;fill-rule:nonzero;stroke:#000000;stroke-width:0.37660775;stroke-miterlimit:4;stroke-dasharray:none;stroke-opacity:1" />
      <path
         inkscape:connector-curvature="0"
         d="m 317.29188,159.20859 c -0.43121,-0.39881 -0.76687,-0.51798 -0.76687,-0.51798 0,0 0.1029,0.78305 0.1029,1.25969 0,0.47907 0.0417,1.28157 0.0172,1.70958 -0.0172,0.428 -0.2303,1.13566 0.0735,1.82873 0.31115,0.68334 0.66152,1.0311 0.90897,1.46153 0.22541,0.42071 0.63842,2.60817 0.63842,2.60817 0,0 -0.15085,-2.95836 -0.021,-3.7949 0.12005,-0.82196 0.15925,-2.10353 -0.0245,-2.74554 -0.19111,-0.64443 -0.50716,-1.40073 -0.92858,-1.80928"
         id="path2614"
         style="fill:#009b3a;fill-opacity:1;fill-rule:nonzero;stroke:#000000;stroke-width:0.37660775;stroke-miterlimit:4;stroke-dasharray:none;stroke-opacity:1" />
      <path
         inkscape:connector-curvature="0"
         d="m 319.26346,156.32081 c 0.12985,-0.25292 0.43366,-0.77576 0.56106,-1.57097 0.0466,-0.33802 0.0784,-0.88518 0.0662,-1.26455 -0.01,-0.2529 -0.11026,-0.69307 0,-0.72224 0.098,-0.0243 0.0158,0.13701 0.0722,0.51151 0.0269,0.13376 -0.0653,0.50392 -0.0825,0.97814 -0.022,0.37936 -0.0371,0.69603 -0.20614,1.20914 -0.147,0.45232 -0.0138,0.95381 -0.10451,1.09486 -0.098,0.14347 -0.35771,0.68577 -0.35771,0.68577 0,0 -0.15925,0.43773 -0.1323,0.83655 0.0147,0.40855 0.0392,0.8487 0.0392,0.8487 0,0 0.18866,-0.35018 0.61007,-0.40854 0,0 0.0956,-0.68334 0.0956,-0.89735 0,-0.214 0.27441,-1.61473 0.41407,-2.04273 0.1911,-0.62742 0.32585,-1.7193 0.0221,-2.98629 -0.0833,-0.34288 -0.14455,-1.41532 -0.14455,-1.41532 0,0 -0.40427,0.32344 -0.64438,1.54664 -0.0735,0.37207 0.0833,1.36912 0.0221,2.43183 -0.0245,0.58607 -0.5865,2.96119 -0.66245,3.10954"
         id="path2626"
         style="fill:#009b3a;fill-opacity:1;fill-rule:nonzero;stroke:#000000;stroke-width:0.37660775;stroke-miterlimit:4;stroke-dasharray:none;stroke-opacity:1" />
      <path
         inkscape:connector-curvature="0"
         d="m 319.26346,156.32081 c -0.0196,0.0365 -0.027,0.0511 -0.027,0.0511 0,0 0.0172,-0.0146 0.027,-0.0511"
         id="path2630"
         style="fill:#009b3a;fill-opacity:1;fill-rule:nonzero;stroke:#000000;stroke-width:0.37660775;stroke-miterlimit:4;stroke-dasharray:none;stroke-opacity:1" />
      <path
         inkscape:connector-curvature="0"
         d="m 317.67066,150.15514 c 0.21561,0 0.21561,0.23346 0.17151,0.41827 -0.0343,0.18969 -0.0294,0.54231 -0.0294,0.61526 0,0.0827 0.0906,0.58607 0.1617,0.8487 0.0784,0.26994 0.21316,0.35505 0.15435,0.89735 -0.0392,0.34046 -0.38956,0.7417 -0.26705,1.32049 0.0661,0.30397 0.2842,0.62254 0.39201,0.88518 0.0906,0.18238 0.0412,0.62788 0.0657,0.99266 0.01,0.35504 0.20627,0.59532 0.20627,0.59532 0,0 -0.24255,0.45232 -0.3234,-0.11429 -0.0882,-0.6493 -0.1176,-0.93869 -0.24256,-1.23294 -0.20336,-0.48151 -0.38959,-1.3477 -0.0735,-2.01645 0.0539,-0.12889 0.096,-0.36917 0.096,-0.65369 0,-0.2894 -0.17862,-0.78399 -0.21292,-1.09039 -0.0294,-0.24318 -0.01,-0.75641 -0.01,-0.94123 m -1.13263,2.71982 c 0.0514,0.3672 0.16905,0.57635 0.58312,1.37398 0.12741,0.26264 0.41651,0.93383 0.46061,1.14782 0.0514,0.21401 0.0956,0.47178 0.0956,0.53744 0,0.0705 0.0466,0.57391 0.0466,0.57391 l 0,0.20913 c 0,0 -1.14664,-0.66875 -1.6489,-1.02622 -0.49982,-0.35991 -1.06824,-0.85358 -1.43085,-1.15269 -0.41161,-0.33802 -1.39163,-1.50044 -1.40388,-2.43183 l -0.45082,-0.40855 c 0,0 -0.34301,2.06949 1.27893,3.40943 0.46797,0.38422 0.97758,0.80736 2.06786,1.30103 1.09274,0.50339 0.94937,0.95439 1.40508,1.92226 0.44837,0.97273 0.72899,1.53211 0.78534,1.80691 0.0392,0.29425 -0.12404,4.42899 -0.12404,4.42899 l 0.0392,0.3745 c 0,0 0.99867,-3.82951 1.47888,-4.25751 0,0 -0.95307,-0.14591 -0.87712,-1.64392 l -0.16661,-0.98732 c 0,0 -0.1911,-1.18673 0.16661,-1.92357 0,0 0.42386,-1.34967 0.27931,-2.51695 -0.0907,-0.69793 -0.12251,-0.90707 -0.20826,-1.57583 -0.12986,-1.04082 -0.54636,-2.5291 -0.59291,-2.70904 -0.14211,-0.52286 -0.19111,-0.6031 -0.35771,-1.01651 -0.049,-0.14591 -0.14212,-0.62742 -0.29647,-0.63471 -0.0882,-0.005 -0.22296,0.62012 -0.22296,0.62012 0,0 -0.20089,0.68091 -0.24255,0.86573 -0.12986,0.54959 -0.43366,1.01164 -0.57331,2.24701 -0.0245,0.22373 -0.049,0.82682 -0.076,0.90706 -0.0147,0.0681 -0.0441,0.42314 -0.0147,0.55933"
         id="path2634"
         style="fill:#009b3a;fill-opacity:1;fill-rule:nonzero;stroke:#000000;stroke-width:0.37660775;stroke-miterlimit:4;stroke-dasharray:none;stroke-opacity:1" />
      <path
         inkscape:connector-curvature="0"
         d="m 317.47858,158.62447 c 0,0 -0.16661,-0.36964 -0.33566,-0.55932 -0.34056,-0.40125 -0.79873,-0.7417 -2.10216,-1.37884 -1.29854,-0.64687 -1.64156,-1.70958 -2.30307,-2.14731 -0.30381,-0.20913 -0.89183,-0.30883 -0.89183,-0.30883 0,0 0.57822,0.7952 0.71542,1.06999 0.17641,0.35019 0.21806,0.58851 0.93348,1.25483 0.71052,0.66875 1.57785,0.9022 2.13647,1.06757 0.78892,0.24561 1.84735,1.00191 1.84735,1.00191"
         id="path2638"
         style="fill:#009b3a;fill-opacity:1;fill-rule:nonzero;stroke:#000000;stroke-width:0.37660775;stroke-miterlimit:4;stroke-dasharray:none;stroke-opacity:1" />
      <path
         inkscape:connector-curvature="0"
         d="m 313.38624,152.47927 c 0.0343,0.10457 0.36922,1.24785 1.0724,2.13547 1.07558,1.35939 3.14586,2.33026 3.14586,2.33026 -0.19356,-0.84627 -0.53117,-1.82454 -0.79823,-2.25742 -0.94083,-1.51988 -3.42738,-2.26424 -3.42738,-2.26424 0,0 -0.0441,-0.0584 0.007,0.0559"
         id="path2642"
         style="fill:#009b3a;fill-opacity:1;fill-rule:nonzero;stroke:#000000;stroke-width:0.37660775;stroke-miterlimit:4;stroke-dasharray:none;stroke-opacity:1" />
      <path
         inkscape:connector-curvature="0"
         d="m 316.354,153.11954 c 0.55697,-1.21929 -1.10648,-2.38453 -1.5754,-3.23433 0.17395,-0.13862 0.37976,0.22373 0.57086,0.46448 0.27196,0.36234 1.03884,1.41046 1.03884,1.41046 l 0.23766,-1.1162 -1.98064,-1.80221 c -0.0245,0.26263 -0.63578,0.47768 -0.63578,0.47768 -0.29645,1.66823 2.34446,3.80012 2.34446,3.80012"
         id="path2646"
         style="fill:#009b3a;fill-opacity:1;fill-rule:nonzero;stroke:#000000;stroke-width:0.37660775;stroke-miterlimit:4;stroke-dasharray:none;stroke-opacity:1" />
      <path
         inkscape:connector-curvature="0"
         d="m 312.90529,150.29312 c -0.47776,0.21401 -0.64682,0.21401 -0.64682,0.21401 l 0.26679,0.70683 0.15436,0.19212 c 0,0 0.62231,0.89978 0.98492,1.01164 0.15192,0.0559 0.71788,0.15564 1.2863,0.39882 0.71542,0.30398 1.8826,1.32521 1.8826,1.32521 0,0 -1.94194,-2.19024 -2.68673,-3.83207 l -0.25089,-0.94655 -0.70388,0.0472 c 0,0 0.19356,0.6639 -0.28665,0.88276"
         id="path2650"
         style="fill:#009b3a;fill-opacity:1;fill-rule:nonzero;stroke:#000000;stroke-width:0.37660775;stroke-miterlimit:4;stroke-dasharray:none;stroke-opacity:1" />
      <path
         inkscape:connector-curvature="0"
         d="m 305.63737,148.89229 c 0.22296,0.19942 0.58802,0.50339 1.05598,0.78305 0.42876,0.25778 1.6636,0.98489 2.58728,1.15999 0.21561,0.034 1.3764,0.18006 1.3764,0.18006 0.0466,-0.50826 0.59782,-0.55203 0.59782,-0.55203 l -1.64346,-0.18006 c -1.32529,-0.0987 -2.33404,-0.65222 -3.11895,-1.53935 1.05341,0.63836 2.56685,1.64411 3.79389,1.59064 5.03763,-0.49585 -1.51776,-0.62034 -2.08618,-0.98511 -0.60272,-0.37207 -1.11724,-0.98976 -1.11724,-0.98976 l -1.47739,-0.0657 c 0,0 -0.72522,-0.0462 0.0318,0.59822"
         id="path2654"
         style="fill:#009b3a;fill-opacity:1;fill-rule:nonzero;stroke:#000000;stroke-width:0.37660775;stroke-miterlimit:4;stroke-dasharray:none;stroke-opacity:1" />
      <path
         inkscape:connector-curvature="0"
         d="m 311.56875,151.76112 c 0.32586,-0.0243 0.55372,-0.0851 0.62722,-0.44259 0.0661,-0.39882 -0.0858,-0.68821 -0.56596,-0.79277 -0.26707,-0.0657 -0.73503,-0.0803 -0.92613,0.39395 -0.20826,0.48637 0.54881,0.79764 0.54881,0.79764 0,0 0.14456,0.0632 0.31606,0.0438"
         id="path2658"
         style="fill:#009b3a;fill-opacity:1;fill-rule:nonzero;stroke:#000000;stroke-width:0.37660775;stroke-miterlimit:4;stroke-dasharray:none;stroke-opacity:1" />
      <path
         inkscape:connector-curvature="0"
         d="m 312.13325,148.87332 c -0.42632,0 -0.57087,0.34776 -0.48021,1.02623 0.1127,0.68335 1.15887,0.38424 1.15887,0.38424 l 0.19356,-0.0997 c 0,0 0.14211,-0.10943 0.0637,-0.65416 -0.0735,-0.55689 -0.50716,-0.6566 -0.93592,-0.6566"
         id="path2662"
         style="fill:#009b3a;fill-opacity:1;fill-rule:nonzero;stroke:#000000;stroke-width:0.37660775;stroke-miterlimit:4;stroke-dasharray:none;stroke-opacity:1" />
      <path
         inkscape:connector-curvature="0"
         d="m 313.84634,149.35312 -0.0172,0 c -0.007,0.005 0.0172,0 0.0172,0"
         id="path2666"
         style="fill:#009b3a;fill-opacity:1;fill-rule:nonzero;stroke:#000000;stroke-width:0.37660775;stroke-miterlimit:4;stroke-dasharray:none;stroke-opacity:1" />
      <path
         inkscape:connector-curvature="0"
         d="m 313.82969,149.35312 c 0.0122,-0.005 0.0416,-0.0194 0.1519,-0.0511 0.21806,-0.0827 0.43857,-0.60552 0.43857,-0.60552 0.11024,-0.70766 -0.39692,-0.88276 -0.39692,-0.88276 -0.85263,-0.17022 -0.87467,0.57878 -0.87467,0.57878 -0.23521,0.97517 0.55617,0.96543 0.68112,0.96057"
         id="path2670"
         style="fill:#009b3a;fill-opacity:1;fill-rule:nonzero;stroke:#000000;stroke-width:0.37660775;stroke-miterlimit:4;stroke-dasharray:none;stroke-opacity:1" />
      <path
         inkscape:connector-curvature="0"
         d="m 310.03256,146.0045 c 0.0466,0.32343 0.50717,0.79278 0.57822,0.87302 0.0833,0.073 0.67132,0.68578 0.86977,0.96058 0.19846,0.27479 0.85801,1.52136 0.85801,1.52136 0,0 0.11515,-0.0195 0.16415,-0.1143 0.11516,-0.19455 -0.44149,-1.70374 -0.49783,-1.80832 -0.20383,-0.45855 -0.53717,-0.80028 -0.87224,-1.15754 -0.0784,-0.0511 -0.35281,-0.40369 -0.65416,-0.78305 0.59606,0.76305 2.12504,2.93279 2.57549,3.89725 0,0 -0.0544,-1.0277 -0.11072,-1.57973 -0.1911,-1.60986 -0.61007,-2.10839 -0.74482,-2.34185 -0.23766,-0.43529 -0.84038,-0.85843 -1.27159,-1.00677 -0.43121,-0.15563 -0.94083,-0.36964 -1.4872,-0.54473 -0.56351,-0.17265 -0.12985,0.33559 0.0784,0.77332 0.2597,0.51798 0.46796,0.98246 0.51451,1.31076"
         id="path2674"
         style="fill:#009b3a;fill-opacity:1;fill-rule:nonzero;stroke:#000000;stroke-width:0.37660775;stroke-miterlimit:4;stroke-dasharray:none;stroke-opacity:1" />
      <path
         inkscape:connector-curvature="0"
         d="m 307.92942,148.65252 c 0.55617,0.47177 0.80608,0.80007 1.96006,0.9703 1.16379,0.18239 1.26179,0.10457 1.26179,0.10457 0,0 0.60319,-0.29146 0.29693,-0.54681 -1.70992,-0.75179 -3.32897,-1.6474 -4.1509,-2.65347 0,0 0.14211,-0.13862 0.73502,0.45474 0.34302,0.34776 0.57332,0.52285 0.78402,0.68578 0.62232,0.43529 0.89184,0.55932 1.5117,0.89734 0.33076,0.17996 1.15643,0.3745 1.15643,0.3745 0,0 0.11761,-0.25047 0.22296,-0.27966 0.10046,-0.0243 -0.064,-0.41676 -0.78183,-0.99797 -0.63213,-0.51068 -1.04864,-1.13809 -1.04864,-1.13809 0,0 -0.84991,-0.18633 -1.77114,-0.33954 -0.68601,-0.10943 -1.97721,-1.11134 -1.95516,-0.83897 0.0245,0.27965 0.19356,1.14782 0.54148,1.69985 0.35036,0.55445 0.68356,1.12107 1.23728,1.60743"
         id="path2678"
         style="fill:#009b3a;fill-opacity:1;fill-rule:nonzero;stroke:#000000;stroke-width:0.37660775;stroke-miterlimit:4;stroke-dasharray:none;stroke-opacity:1" />
      <path
         inkscape:connector-curvature="0"
         d="m 298.31725,183.44504 c -0.50471,0.14834 -4.28612,1.56841 -4.28612,1.56841 l -1.05599,0.42314 c 1.4578,-0.3283 2.57504,0.40612 2.57504,0.40612 l 4.21261,-1.95022 c 0,0 -0.0122,-0.0632 -0.1176,-0.1386 -0.11025,-0.0754 -0.81833,-0.46205 -1.32794,-0.30885"
         id="path2686"
         style="fill:#009b3a;fill-opacity:1;fill-rule:nonzero;stroke:#000000;stroke-width:0.30128619;stroke-miterlimit:4;stroke-dasharray:none;stroke-opacity:1" />
      <path
         inkscape:connector-curvature="0"
         d="m 292.81541,185.56466 c -0.028,0.0243 -0.056,0.12403 0.0168,0.15564 0.20989,0.11673 0.15392,0.16293 1.10828,0.27723 0.96275,0.10457 1.58965,-0.0778 1.75478,-0.26021 0.19312,-0.21156 -2.38449,-0.60552 -2.87985,-0.17266"
         id="path2690"
         style="fill:#009b3a;fill-opacity:1;fill-rule:nonzero;stroke:#000000;stroke-width:0.32200903;stroke-miterlimit:4;stroke-dasharray:none;stroke-opacity:1" />
      <path
         inkscape:connector-curvature="0"
         d="m 286.76438,171.95947 -0.17523,-1.18144 c 0,0 -0.22039,-3.19611 -0.58273,-3.83702 -0.0699,-0.14207 -0.0388,-0.4737 -0.26925,-0.47923 -0.44051,-0.0335 -0.44051,1.0059 -0.49398,1.94774 -0.71741,4.75055 3.07092,8.37719 3.07092,8.37719 z"
         id="path2694"
         style="fill:#009b3a;fill-opacity:1;fill-rule:nonzero;stroke:#000000;stroke-width:0.41801652;stroke-miterlimit:4;stroke-dasharray:none;stroke-opacity:1" />
      <path
         inkscape:connector-curvature="0"
         d="m 305.51152,186.03405 c 0,0 -0.39736,-0.0889 -0.14548,-0.39861 0.241,-0.29539 0.95753,-0.4531 1.10084,-0.4531 0.14114,-0.006 0.54283,0.0287 0.84246,0.11183 0.30182,0.0746 0.71872,0.34127 0.59714,0.53341 -0.12812,0.18353 -0.53633,0.41293 -1.09436,0.41293 -0.47769,0 -0.72303,-0.0115 -0.93365,-0.0717 -0.20411,-0.0774 -0.36695,-0.13478 -0.36695,-0.13478"
         id="path2698"
         style="fill:#009b3a;fill-opacity:1;fill-rule:nonzero;stroke:#000000;stroke-width:0.38500145;stroke-miterlimit:4;stroke-dasharray:none;stroke-opacity:1" />
      <path
         inkscape:connector-curvature="0"
         d="m 301.40462,183.77395 c 0,0 -1.30099,-0.59823 -2.53338,-1.20132 -1.62439,-0.79277 -3.5771,-1.8944 -4.9369,-3.91524 -1.7028,-2.50235 -3.18264,-3.84229 -3.54035,-4.11223 -0.36751,-0.26993 -0.42141,-0.36964 -0.55616,-0.17995 -0.1225,0.16537 -0.0368,0.30884 0.0661,0.48394 0.35036,0.56904 1.21033,1.63905 1.51905,2.21296 0.53166,1.02623 1.63174,2.1473 1.62194,2.81119 0,0.0924 -0.32096,-0.0657 -0.32096,-0.0657 0,0 -2.57503,-0.88276 -3.61876,-4.0028 -0.75952,-2.2616 -0.43611,-2.92548 -0.61252,-4.05629 -0.30135,-2.00869 -0.36261,-2.17162 -1.35734,-4.42349 -0.0269,-0.0559 -0.60762,-0.99705 -0.68601,-0.78792 -0.10781,0.26994 0.098,1.27671 0.098,1.27671 l 0.10536,1.15999 c 0,0 -0.0833,2.5753 -0.0833,2.73094 0,0.15564 -0.64927,1.76307 2.10706,4.46484 0,0 0.0417,0.45962 -0.32831,0.0559 -0.26216,-0.28939 -2.23446,-1.80442 -2.83473,-4.29704 -0.61742,-2.49263 -0.70808,-4.98768 -0.24011,-6.02364 0.42386,-0.93625 1.27403,-3.2246 0.91142,-5.22357 -0.0417,-0.20914 -0.10044,-0.82196 -0.23276,-0.66145 -0.0563,0.0778 -0.3038,1.08945 -0.45325,1.43964 -0.20826,0.47907 -0.53167,0.95084 -0.63213,1.28157 -0.19355,0.56175 -1.14418,1.42991 -0.95797,3.02763 0.2107,1.83603 0.33075,2.12298 0.55126,2.77715 0.076,0.23831 0.25971,0.84627 0.13965,0.90706 -0.11025,0.0584 -0.49981,-0.72711 -0.49981,-0.72711 0,0 -1.74445,-3.42887 -0.66886,-6.21089 1.08783,-2.76985 3.81721,-5.39622 3.81721,-5.39622 0,0 2.21731,-1.83846 2.66812,-2.26647 0.17642,-0.16536 0.13476,-0.28939 0.076,-0.26993 -0.55127,0.13862 -4.81685,1.02136 -6.31629,6.10389 0,0 -0.0784,0.214 -0.18866,0.16049 -0.1372,-0.0608 0,-0.29911 0,-0.29911 0,0 0.93838,-3.60397 3.57222,-5.23816 2.87392,-1.79225 2.53582,-1.52962 3.48644,-2.0938 0.59782,-0.37206 1.13929,-0.87059 1.80816,-1.97708 0.0686,-0.12401 0.34056,-0.76845 0.30381,-0.87789 -0.0294,-0.10943 -0.15925,0.0413 -0.22051,0.22373 0,0 -0.81343,1.25726 -2.03111,1.68039 -1.22259,0.42314 -2.21486,-0.17995 -3.44235,1.17701 -1.22993,1.36425 -2.20751,3.25379 -2.20751,3.25379 0,0 -0.32097,0.48879 -0.39202,0.4742 -0.13476,-0.0413 0.0662,-0.52041 0.0662,-0.52041 0,0 1.64155,-3.48238 2.95969,-4.19004 1.32059,-0.71252 2.49663,-1.39587 3.24635,-1.97464 0.91143,-0.71496 2.48193,-2.46588 3.04789,-3.06896 0.12005,-0.12889 0.96288,-0.98246 1.14909,-1.25969 0.1127,-0.15078 0.37976,-0.36964 0.33566,-0.40855 -0.12006,-0.09 -0.91878,0.29425 -0.91878,0.29425 0,0 -4.34768,1.19804 -7.05256,5.2835 -0.12496,0.18969 -0.42253,0.57556 -0.58178,0.73849 -0.28911,0.29912 -0.43329,0.79836 -0.43329,0.79836 -0.17641,-0.14591 1.52838,-2.2777 1.52838,-2.2777 l 0.29891,-1.37884 c 0,0 0.50472,-2.07192 1.56559,-3.53345 0.10536,-0.13376 0.73257,-0.76603 0.83793,-0.89735 0.21071,-0.22859 -0.39936,0.19941 -0.29156,0.10457 0,0 -4.05487,2.91091 -4.05487,6.5781 0,0.65902 -0.40916,1.25969 -0.97513,2.07921 -0.66152,0.95085 -0.88202,1.53448 -1.16868,2.94981 -0.20336,1.01164 -0.37241,1.78253 -0.37241,1.78253 0,0 0.0392,0.52285 -0.12985,0.48394 -0.17641,-0.0389 -0.11516,-0.47178 -0.11516,-0.47178 0,0 0.41406,-2.73338 0.70807,-3.57479 0.28666,-0.81709 0.47531,-1.37398 0.47531,-1.37398 0,0 -0.16905,-2.0549 0.28667,-3.18083 0.38711,-0.98246 1.36713,-2.2762 1.51904,-2.59963 0.0661,-0.14105 0.51942,-1.0627 0.64682,-2.11326 0.0171,-0.14104 -0.0931,-0.0243 -0.27686,0.38667 -0.44591,1.00434 -0.81832,1.26698 -1.55089,2.21296 0,0 -1.87921,1.36182 -2.56034,5.41324 0,0 -0.022,1.51018 -0.25235,3.87634 -0.16661,1.73389 -0.0245,3.35836 0.17151,4.33595 0.12495,0.59823 0.36261,0.6031 0.2156,0.67605 -0.0906,0.0462 0.0585,0.008 -0.15468,-0.44449 -0.25971,-0.5423 -0.45872,-1.37695 -0.45872,-2.52963 0,-2.11326 0.18376,-3.81068 0.18376,-3.81068 0,0 0.13808,-3.41429 -1.27806,-4.95363 -0.0686,-0.0803 0.24745,0.69063 0.38956,1.45909 0.17396,0.95328 -0.14211,2.27619 -0.2352,2.79174 -0.0907,0.51798 -1.03394,2.77472 -0.70073,4.89284 0,0 0.79872,3.59181 1.82776,5.333 0,0 0.63993,0.74953 0.074,0.0467 -0.56107,-0.7028 -1.71307,-3.49751 -1.81351,-3.73583 -0.0882,-0.22859 -0.91388,-1.96734 -1.69055,-2.67501 -0.40182,-0.3745 -1.5068,-1.03838 -1.5068,-1.03838 0,0 -0.60027,-0.45719 -0.14455,0.15077 0.36016,0.47907 0.84282,1.33994 1.07313,1.71444 0.57822,0.93138 1.01433,1.82387 1.27403,2.41237 0.36996,0.81223 1.22995,3.20272 1.22995,3.20272 l 0.5506,1.51625 c 0,0 0.92189,0.51189 1.42415,1.07121 0.41161,0.45232 1.26424,1.49072 1.97231,3.3389 0.31851,0.8171 0.95386,1.56611 0.95386,1.56611 0,0 -0.13458,0.25934 -0.70054,-0.72068 -0.55862,-0.99219 -1.10547,-2.85416 -2.45056,-4.30353 -1.02168,-1.11135 -3.77114,-2.23237 -3.77114,-2.23237 0,0 1.7665,3.07868 2.20507,3.62828 0.74237,0.88032 1.8155,2.11569 2.09236,2.44155 0.28666,0.33316 1.9478,2.38563 2.19281,2.71392 0.38712,0.51312 0.64193,0.73928 0.84528,0.94842 0.43856,0.46691 1.73663,1.31807 1.83708,1.45218 0.0196,0.13618 0.0455,0.0235 -0.0647,-0.0567 -0.57576,-0.34289 -1.2634,-0.88561 -1.97392,-1.34766 -0.70806,-0.46934 -3.44229,-1.63592 -5.28414,-4.17461 -0.43611,-0.75143 -0.64437,-1.05054 -0.79137,-0.97272 -0.22541,0.11916 1.23973,4.96822 4.25332,6.51 0,0 3.32475,1.47855 4.06222,1.92358 0.40427,0.24318 1.22014,0.60309 1.59745,0.90707 0.2156,0.17752 -0.196,0.1678 -0.22295,0.16294 -1.76651,-0.13862 -4.30234,-0.37208 -5.85813,-1.27429 0,0 -0.66887,-0.46934 -0.12006,0.18968 0.43612,0.51069 1.26425,1.76794 2.86169,2.4756 1.5999,0.7028 3.92502,1.11135 4.77519,1.15513 0.83548,0.0462 3.81477,0.0608 4.38564,0.24561 0.55861,0.18968 1.50906,0.79861 2.05298,0.9737 0.49492,0.1605 1.98701,0.73199 1.98701,0.73199 0,0 0.44837,0.24561 0.68847,0.33316 0.26951,0.10699 1.38733,0.0975 1.46574,-0.11164 0.076,-0.18725 -0.31893,-0.47298 -0.31893,-0.47298"
         id="path2682"
         style="fill:#009b3a;fill-opacity:1;fill-rule:nonzero;stroke:#000000;stroke-width:0.30128619;stroke-miterlimit:4;stroke-dasharray:none;stroke-opacity:1" />
      <path
         inkscape:connector-curvature="0"
         d="m 320.72321,158.52515 c 0.33811,0.12402 0.48756,1.12594 0.48756,1.12594 0,0 -0.0294,-0.57392 -0.0294,-0.85601 0,-0.28453 -0.13966,-1.3521 -0.13966,-1.3521 l -0.29891,0.214 c -0.35771,0.28453 -0.55616,0.78792 -0.55616,0.78792 0,0 0.2058,-0.034 0.53656,0.0803"
         id="path2622"
         style="fill:#009b3a;fill-opacity:1;fill-rule:nonzero;stroke:#000000;stroke-width:0.37660775;stroke-miterlimit:4;stroke-dasharray:none;stroke-opacity:1" />
    </g>
    <g
       transform="translate(2000,0)"
       id="g5298">
      <path
         style="opacity:0.603;fill:url(#radialGradient6127);fill-opacity:1"
         d="m -1200,600.00079 a 40,40 0 0 1 -40,40 l 0,-20 a 20,20 0 0 0 20,-20 l 20,0 z"
         id="path5058"
         inkscape:connector-curvature="0" />
      <rect
         style="opacity:0.603;fill:url(#linearGradient6142);fill-opacity:1"
         id="rect6134"
         width="20"
         height="359.99921"
         x="-1220"
         y="240.00079"
         ry="0" />
      <rect
         style="opacity:0.603;fill:url(#linearGradient6152);fill-opacity:1"
         id="rect6144"
         width="720"
         height="20"
         x="-1960"
         y="620.00079" />
      <path
         inkscape:connector-curvature="0"
         id="path6154"
         d="m -2000,600.00079 a 40,40 0 0 0 40,40 l 0,-20 a 20,20 0 0 1 -20,-20 l -20,0 z"
         style="opacity:0.603;fill:url(#radialGradient6156);fill-opacity:1" />
      <rect
         ry="0"
         y="240.00079"
         x="1980"
         height="360.00006"
         width="20"
         id="rect6158"
         style="opacity:0.603;fill:url(#linearGradient6160);fill-opacity:1"
         transform="scale(-1,1)" />
      <rect
         y="-220.00079"
         x="-1960"
         height="20"
         width="720"
         id="rect6162"
         style="opacity:0.603;fill:url(#linearGradient6164);fill-opacity:1"
         transform="scale(1,-1)" />
      <path
         inkscape:connector-curvature="0"
         id="path6166"
         d="m -1200,240.00079 a 40,40 0 0 0 -40,-40 l 0,20 a 20,20 0 0 1 20,20 l 20,0 z"
         style="opacity:0.603;fill:url(#radialGradient6174);fill-opacity:1" />
      <path
         style="opacity:0.603;fill:url(#radialGradient6176);fill-opacity:1"
         d="m -2000,240.00079 a 40,40 0 0 1 40,-40 l 0,20 a 20,20 0 0 0 -20,20 l -20,0 z"
         id="path6168"
         inkscape:connector-curvature="0" />
      <rect
         style="opacity:0.3;fill:url(#linearGradient6209);fill-opacity:1"
         id="rect6201"
         width="760"
         height="399.99994"
         x="-1980"
         y="-620.00073"
         ry="19.999943"
         transform="scale(1,-1)" />
    </g>
  </g>
</svg>
