<?xml version="1.0" encoding="UTF-8" standalone="no"?>
<svg
   xmlns:dc="http://purl.org/dc/elements/1.1/"
   xmlns:cc="http://creativecommons.org/ns#"
   xmlns:rdf="http://www.w3.org/1999/02/22-rdf-syntax-ns#"
   xmlns:svg="http://www.w3.org/2000/svg"
   xmlns="http://www.w3.org/2000/svg"
   xmlns:xlink="http://www.w3.org/1999/xlink"
   xmlns:sodipodi="http://sodipodi.sourceforge.net/DTD/sodipodi-0.dtd"
   xmlns:inkscape="http://www.inkscape.org/namespaces/inkscape"
   viewBox="0 0 960.00004 481.1463"
   id="svg2"
   version="1.1"
   inkscape:version="0.91 r13725"
   sodipodi:docname="BevelledSlovenia.svg"
   width="960.00006"
   height="481.1463">
  <metadata
     id="metadata4551">
    <rdf:RDF>
      <cc:Work
         rdf:about="">
        <dc:format>image/svg+xml</dc:format>
        <dc:type
           rdf:resource="http://purl.org/dc/dcmitype/StillImage" />
        <dc:title></dc:title>
      </cc:Work>
    </rdf:RDF>
  </metadata>
  <sodipodi:namedview
     pagecolor="#ffffff"
     bordercolor="#666666"
     borderopacity="1"
     objecttolerance="10"
     gridtolerance="10"
     guidetolerance="10"
     inkscape:pageopacity="0"
     inkscape:pageshadow="2"
     inkscape:window-width="1600"
     inkscape:window-height="837"
     id="namedview4549"
     showgrid="true"
     fit-margin-top="0"
     fit-margin-left="0"
     fit-margin-right="0"
     fit-margin-bottom="0"
     inkscape:object-nodes="true"
     inkscape:snap-smooth-nodes="true"
     inkscape:object-paths="false"
     inkscape:snap-global="true"
     inkscape:zoom="1.1499999"
     inkscape:cx="480.00003"
     inkscape:cy="240.57315"
     inkscape:window-x="-8"
     inkscape:window-y="-8"
     inkscape:window-maximized="1"
     inkscape:current-layer="svg2" />
  <defs
     id="defs4">
    <linearGradient
       id="linearGradient6136">
      <stop
         style="stop-color:#000000;stop-opacity:0;"
         offset="0"
         id="stop6138" />
      <stop
         style="stop-color:#000000;stop-opacity:1;"
         offset="1"
         id="stop6140" />
    </linearGradient>
    <linearGradient
       id="linearGradient22506">
      <stop
         style="stop-color:#ffffff;stop-opacity:1;"
         offset="0"
         id="stop22508" />
      <stop
         style="stop-color:#ffffff;stop-opacity:0;"
         offset="1"
         id="stop22510" />
    </linearGradient>
    <linearGradient
       id="linearGradient22338">
      <stop
         style="stop-color:#000000;stop-opacity:0;"
         offset="0"
         id="stop22340" />
      <stop
         id="stop6129"
         offset="0.5"
         style="stop-color:#000000;stop-opacity:0;" />
      <stop
         style="stop-color:#000000;stop-opacity:1;"
         offset="1"
         id="stop22342" />
    </linearGradient>
    <filter
       style="color-interpolation-filters:sRGB"
       inkscape:label="Blur"
       id="filter23929">
      <feGaussianBlur
         stdDeviation="1 5"
         result="blur"
         id="feGaussianBlur23931" />
    </filter>
    <filter
       style="color-interpolation-filters:sRGB"
       inkscape:label="Blur"
       id="filter23980">
      <feGaussianBlur
         stdDeviation="2 2"
         result="blur"
         id="feGaussianBlur23982" />
    </filter>
    <filter
       style="color-interpolation-filters:sRGB"
       inkscape:label="Blur"
       id="filter23988">
      <feGaussianBlur
         stdDeviation="1 1"
         result="blur"
         id="feGaussianBlur23990" />
    </filter>
    <filter
       style="color-interpolation-filters:sRGB"
       inkscape:label="Blur"
       id="filter24008">
      <feGaussianBlur
         stdDeviation="1 1"
         result="blur"
         id="feGaussianBlur24010" />
    </filter>
    <filter
       style="color-interpolation-filters:sRGB"
       inkscape:label="Blur"
       id="filter24012">
      <feGaussianBlur
         stdDeviation="1 1"
         result="blur"
         id="feGaussianBlur24014" />
    </filter>
    <filter
       style="color-interpolation-filters:sRGB"
       inkscape:label="Blur"
       id="filter24016">
      <feGaussianBlur
         stdDeviation="1 1"
         result="blur"
         id="feGaussianBlur24018" />
    </filter>
    <filter
       style="color-interpolation-filters:sRGB"
       inkscape:label="Blur"
       id="filter24020">
      <feGaussianBlur
         stdDeviation="1 1"
         result="blur"
         id="feGaussianBlur24022" />
    </filter>
    <filter
       style="color-interpolation-filters:sRGB"
       inkscape:label="Blur"
       id="filter24024">
      <feGaussianBlur
         stdDeviation="1 1"
         result="blur"
         id="feGaussianBlur24026" />
    </filter>
    <filter
       style="color-interpolation-filters:sRGB"
       inkscape:label="Blur"
       id="filter24028">
      <feGaussianBlur
         stdDeviation="1 1"
         result="blur"
         id="feGaussianBlur24030" />
    </filter>
    <filter
       style="color-interpolation-filters:sRGB"
       inkscape:label="Blur"
       id="filter24032">
      <feGaussianBlur
         stdDeviation="1 1"
         result="blur"
         id="feGaussianBlur24034" />
    </filter>
    <filter
       style="color-interpolation-filters:sRGB"
       inkscape:label="Blur"
       id="filter24036">
      <feGaussianBlur
         stdDeviation="1 1"
         result="blur"
         id="feGaussianBlur24038" />
    </filter>
    <filter
       style="color-interpolation-filters:sRGB"
       inkscape:label="Blur"
       id="filter24052">
      <feGaussianBlur
         stdDeviation="1 1"
         result="blur"
         id="feGaussianBlur24054" />
    </filter>
    <filter
       style="color-interpolation-filters:sRGB"
       inkscape:label="Blur"
       id="filter24309">
      <feGaussianBlur
         stdDeviation="2 2"
         result="blur"
         id="feGaussianBlur24311" />
    </filter>
    <clipPath
       clipPathUnits="userSpaceOnUse"
       id="clipPath4532">
      <path
         inkscape:connector-curvature="0"
         id="path4534"
         d="M 18.75,-2.6189942e-4 A 18.75,18.75 0 0 0 0,18.749739 L 0,381.25023 a 18.75,18.75 0 0 0 18.75,18.75 l 562.50001,0 a 18.75,18.75 0 0 0 18.75001,-18.75 l 0,-362.500491 A 18.75,18.75 0 0 0 581.25001,-2.6189942e-4 l -562.50001,0 z"
         style="fill:#00ffff;fill-opacity:1" />
    </clipPath>
    <radialGradient
       inkscape:collect="always"
       xlink:href="#linearGradient22338"
       id="radialGradient6127"
       cx="1070"
       cy="700.00079"
       fx="1070"
       fy="700.00079"
       r="40"
       gradientUnits="userSpaceOnUse"
       gradientTransform="matrix(-1,0,0,1,-170,-99.999203)" />
    <linearGradient
       inkscape:collect="always"
       xlink:href="#linearGradient6136"
       id="linearGradient6142"
       x1="780"
       y1="373.3338"
       x2="800"
       y2="373.3338"
       gradientUnits="userSpaceOnUse"
       gradientTransform="translate(-2000,0)" />
    <linearGradient
       inkscape:collect="always"
       xlink:href="#linearGradient6136"
       id="linearGradient6152"
       x1="410"
       y1="620.00079"
       x2="410"
       y2="640.00079"
       gradientUnits="userSpaceOnUse"
       gradientTransform="translate(-2000,0)" />
    <radialGradient
       inkscape:collect="always"
       xlink:href="#linearGradient22338"
       id="radialGradient6156"
       gradientUnits="userSpaceOnUse"
       gradientTransform="translate(-3030,-99.9992)"
       cx="1070"
       cy="700.00079"
       fx="1070"
       fy="700.00079"
       r="40" />
    <linearGradient
       inkscape:collect="always"
       xlink:href="#linearGradient6136"
       id="linearGradient6160"
       gradientUnits="userSpaceOnUse"
       x1="780"
       y1="373.3338"
       x2="800"
       y2="373.3338"
       gradientTransform="translate(1200,0)" />
    <linearGradient
       inkscape:collect="always"
       xlink:href="#linearGradient6136"
       id="linearGradient6164"
       gradientUnits="userSpaceOnUse"
       x1="410"
       y1="620.00079"
       x2="410"
       y2="640.00079"
       gradientTransform="translate(-2000.0006,-880.00158)" />
    <radialGradient
       inkscape:collect="always"
       xlink:href="#linearGradient22338"
       id="radialGradient6174"
       gradientUnits="userSpaceOnUse"
       gradientTransform="matrix(-1,0,0,-1,-170.00063,980.00078)"
       cx="1070"
       cy="700.00079"
       fx="1070"
       fy="700.00079"
       r="40" />
    <radialGradient
       inkscape:collect="always"
       xlink:href="#linearGradient22338"
       id="radialGradient6176"
       gradientUnits="userSpaceOnUse"
       gradientTransform="matrix(1,0,0,-1,-3030.001,980.00078)"
       cx="1070"
       cy="700.00079"
       fx="1070"
       fy="700.00079"
       r="40" />
    <linearGradient
       inkscape:collect="always"
       xlink:href="#linearGradient22506"
       id="linearGradient6209"
       x1="2050"
       y1="-120.00079"
       x2="2560"
       y2="-630.00079"
       gradientUnits="userSpaceOnUse"
       gradientTransform="matrix(1,0,0,0.73469387,-4000,-164.49002)" />
    <filter
       style="color-interpolation-filters:sRGB"
       inkscape:label="Blur"
       id="filter6223">
      <feGaussianBlur
         stdDeviation="2 2"
         result="blur"
         id="feGaussianBlur6225" />
    </filter>
    <filter
       style="color-interpolation-filters:sRGB"
       inkscape:label="Blur"
       id="filter12806">
      <feGaussianBlur
         stdDeviation="2 2"
         result="blur"
         id="feGaussianBlur12808" />
    </filter>
    <filter
       style="color-interpolation-filters:sRGB"
       inkscape:label="Blur"
       id="filter30942">
      <feGaussianBlur
         stdDeviation="2 2"
         result="blur"
         id="feGaussianBlur30944" />
    </filter>
    <filter
       style="color-interpolation-filters:sRGB"
       inkscape:label="Blur"
       id="filter30950">
      <feGaussianBlur
         stdDeviation="2 2"
         result="blur"
         id="feGaussianBlur30952" />
    </filter>
    <clipPath
       clipPathUnits="userSpaceOnUse"
       id="clipPath4212">
      <rect
         style="fill:#ed1c24"
         y="0"
         x="0"
         id="rect4214"
         height="6"
         width="12" />
    </clipPath>
    <clipPath
       clipPathUnits="userSpaceOnUse"
       id="clipPath6200">
      <rect
         ry="0.60000002"
         transform="scale(1,-1)"
         y="-6"
         x="0"
         height="6"
         width="12"
         id="rect6202"
         style="fill:#d70000;fill-opacity:1" />
    </clipPath>
  </defs>
  <g
     id="g6204"
     transform="translate(80,-41.095524)">
    <rect
       style="fill:#000000;fill-opacity:1;filter:url(#filter30950)"
       id="rect6199"
       width="800"
       height="400.95523"
       x="-1000"
       y="-480.1463"
       transform="matrix(1,0,0,-1,1000,2)"
       ry="40.9552" />
    <g
       transform="matrix(66.666667,0,0,66.666667,0,81.146301)"
       clip-path="url(#clipPath6200)"
       id="g4194">
      <g
         id="g4166">
        <rect
           style="fill:#ed1c24"
           y="0"
           x="0"
           id="rect6"
           height="6"
           width="12" />
        <rect
           style="fill:#005da4"
           y="0"
           x="0"
           id="rect8"
           height="4"
           width="12" />
        <rect
           style="fill:#ffffff"
           y="0"
           x="0"
           id="rect10"
           height="2"
           width="12" />
      </g>
      <g
         transform="matrix(0.12937,0,0,0.12937,2.2238,1)"
         id="g12">
        <svg
           inkscape:version="0.91 r13725"
           width="12"
           viewBox="-120 -190.22313 240 309.18827"
           height="15.459"
           id="svg14"
           version="1.1">
          <!-- R0 = 15*sqrt(349) ~ 280.223125  Py= 15*sqrt(285)-90 ~ 163.229145242 -->
          <path
             style="fill:#005da4"
             inkscape:connector-curvature="0"
             d="m 110.26,-19.478 9.74,-143.75 a 280.22,280.22 0 0 0 -240,0 l 9.74,143.75 A 155.61,155.61 0 0 0 0,118.972 155.61,155.61 0 0 0 110.26,-19.478"
             id="path16" />
          <!-- 30*sqrt(81/4+1) , 30*sqrt(19)-30  -->
          <path
             style="fill:#ffffff"
             inkscape:connector-curvature="0"
             d="M -90,0 A 138.29,138.29 0 0 0 0,100.77 138.29,138.29 0 0 0 90,0 L 45,-60 27,-36 0,-90 -27,-36 -45,-60 -90,0"
             id="path18" />
          <g
             style="fill:#005da4"
             id="wave"
             transform="matrix(5,0,0,5,0,25.981)">
            <path
               inkscape:connector-curvature="0"
               d="M -17.196,-2.1962 A 6,6 0 0 0 -8.9998,0 a 6,6 0 0 1 6,0 6,6 0 0 0 6,0 6,6 0 0 1 6,0 6,6 0 0 0 8.1962,-2.1962 l 0,1.732 a 6,6 0 0 1 -8.1962,2.1962 6,6 0 0 0 -6,0 6,6 0 0 1 -6,0 6,6 0 0 0 -6,0 6,6 0 0 1 -8.1962,-2.1962 z"
               id="path21" />
          </g>
          <use
             height="100%"
             width="100%"
             y="0"
             x="0"
             xlink:href="#wave"
             transform="translate(0,17.321)"
             id="use23" />
          <g
             id="s"
             transform="matrix(2.25,0,0,2.25,0,-120)">
            <path
               style="fill:#ffdd00;stroke-width:0.2"
               inkscape:connector-curvature="0"
               d="M 0,-5 1,-1.7321 4.3301,-2.5 2,0 4.3301,2.5 1,1.7321 0,5 -1,1.7321 -4.3301,2.5 -2,0 -4.3301,-2.5 -1,-1.7321 Z"
               id="path26" />
          </g>
          <use
             height="100%"
             width="100%"
             y="0"
             x="0"
             xlink:href="#s"
             transform="translate(-33.75,-45)"
             id="use28" />
          <use
             height="100%"
             width="100%"
             y="0"
             x="0"
             xlink:href="#s"
             transform="translate(33.75,-45)"
             id="use30" />
          <path
             style="fill:#ed1c24"
             inkscape:connector-curvature="0"
             d="m -111.58,-167.05 9.96,146.99 A 146.95,146.95 0 0 0 0,109.89 146.95,146.95 0 0 0 101.62,-20.06 l 9.96,-146.99 a 280.22,280.22 0 0 0 8.42,3.82 l -9.74,143.75 A 155.61,155.61 0 0 1 0,118.97 155.61,155.61 0 0 1 -110.26,-19.48 L -120,-163.23 a 280.22,280.22 0 0 0 8.42,-3.82"
             id="path32" />
        </svg>
      </g>
    </g>
    <g
       transform="translate(2000.001,-158.85449)"
       id="g12810">
      <g
         id="g12672">
        <path
           inkscape:connector-curvature="0"
           id="path5058"
           d="m -1200,600.00079 a 40,40 0 0 1 -40,40 l 0,-20 a 20,20 0 0 0 20,-20 l 20,0 z"
           style="opacity:0.603;fill:url(#radialGradient6127);fill-opacity:1" />
        <rect
           ry="0"
           y="280.00079"
           x="-1220.0006"
           height="320"
           width="20.000637"
           id="rect6134"
           style="opacity:0.603;fill:url(#linearGradient6142);fill-opacity:1" />
        <rect
           y="620.00079"
           x="-1960"
           height="20"
           width="720"
           id="rect6144"
           style="opacity:0.603;fill:url(#linearGradient6152);fill-opacity:1" />
        <path
           style="opacity:0.603;fill:url(#radialGradient6156);fill-opacity:1"
           d="m -2000,600.00079 a 40,40 0 0 0 40,40 l 0,-20 a 20,20 0 0 1 -20,-20 l -20,0 z"
           id="path6154"
           inkscape:connector-curvature="0" />
        <rect
           transform="scale(-1,1)"
           style="opacity:0.603;fill:url(#linearGradient6160);fill-opacity:1"
           id="rect6158"
           width="19.998966"
           height="320"
           x="1980.001"
           y="280.00079"
           ry="0" />
        <rect
           transform="scale(1,-1)"
           style="opacity:0.603;fill:url(#linearGradient6164);fill-opacity:1"
           id="rect6162"
           width="720"
           height="20"
           x="-1960.0006"
           y="-260.00079" />
        <path
           style="opacity:0.603;fill:url(#radialGradient6174);fill-opacity:1"
           d="m -1200.0006,280.00079 a 40,40 0 0 0 -40,-40 l 0,20 a 20,20 0 0 1 20,20 l 20,0 z"
           id="path6166"
           inkscape:connector-curvature="0" />
        <path
           inkscape:connector-curvature="0"
           id="path6168"
           d="m -2000.001,280.00079 a 40,40 0 0 1 40,-40 l 0,20 a 20,20 0 0 0 -20,20 l -20,0 z"
           style="opacity:0.603;fill:url(#radialGradient6176);fill-opacity:1" />
      </g>
      <rect
         style="opacity:0.3;fill:url(#linearGradient6209);fill-opacity:1"
         id="rect6201"
         width="760"
         height="360"
         x="-1980"
         y="-620.00079"
         ry="20.000004"
         transform="scale(1,-1)" />
    </g>
  </g>
</svg>
