<?xml version="1.0" encoding="UTF-8" standalone="no"?>
<svg
   xmlns:dc="http://purl.org/dc/elements/1.1/"
   xmlns:cc="http://creativecommons.org/ns#"
   xmlns:rdf="http://www.w3.org/1999/02/22-rdf-syntax-ns#"
   xmlns:svg="http://www.w3.org/2000/svg"
   xmlns="http://www.w3.org/2000/svg"
   xmlns:xlink="http://www.w3.org/1999/xlink"
   xmlns:sodipodi="http://sodipodi.sourceforge.net/DTD/sodipodi-0.dtd"
   xmlns:inkscape="http://www.inkscape.org/namespaces/inkscape"
   viewBox="0 0 960.00004 481.1463"
   id="svg2"
   version="1.1"
   inkscape:version="0.91 r13725"
   sodipodi:docname="BevelledSouthGeorgiaSandwichIslands.svg"
   width="960.00006"
   height="481.1463">
  <metadata
     id="metadata4551">
    <rdf:RDF>
      <cc:Work
         rdf:about="">
        <dc:format>image/svg+xml</dc:format>
        <dc:type
           rdf:resource="http://purl.org/dc/dcmitype/StillImage" />
        <dc:title></dc:title>
      </cc:Work>
    </rdf:RDF>
  </metadata>
  <sodipodi:namedview
     pagecolor="#ffffff"
     bordercolor="#666666"
     borderopacity="1"
     objecttolerance="10"
     gridtolerance="10"
     guidetolerance="10"
     inkscape:pageopacity="0"
     inkscape:pageshadow="2"
     inkscape:window-width="1600"
     inkscape:window-height="837"
     id="namedview4549"
     showgrid="true"
     fit-margin-top="0"
     fit-margin-left="0"
     fit-margin-right="0"
     fit-margin-bottom="0"
     inkscape:object-nodes="true"
     inkscape:snap-smooth-nodes="true"
     inkscape:object-paths="false"
     inkscape:snap-global="true"
     inkscape:zoom="1.1499999"
     inkscape:cx="480.00003"
     inkscape:cy="240.57315"
     inkscape:window-x="-8"
     inkscape:window-y="-8"
     inkscape:window-maximized="1"
     inkscape:current-layer="svg2" />
  <defs
     id="defs4">
    <linearGradient
       id="linearGradient6136">
      <stop
         style="stop-color:#000000;stop-opacity:0;"
         offset="0"
         id="stop6138" />
      <stop
         style="stop-color:#000000;stop-opacity:1;"
         offset="1"
         id="stop6140" />
    </linearGradient>
    <linearGradient
       id="linearGradient22506">
      <stop
         style="stop-color:#ffffff;stop-opacity:1;"
         offset="0"
         id="stop22508" />
      <stop
         style="stop-color:#ffffff;stop-opacity:0;"
         offset="1"
         id="stop22510" />
    </linearGradient>
    <linearGradient
       id="linearGradient22338">
      <stop
         style="stop-color:#000000;stop-opacity:0;"
         offset="0"
         id="stop22340" />
      <stop
         id="stop6129"
         offset="0.5"
         style="stop-color:#000000;stop-opacity:0;" />
      <stop
         style="stop-color:#000000;stop-opacity:1;"
         offset="1"
         id="stop22342" />
    </linearGradient>
    <filter
       style="color-interpolation-filters:sRGB"
       inkscape:label="Blur"
       id="filter23929">
      <feGaussianBlur
         stdDeviation="1 5"
         result="blur"
         id="feGaussianBlur23931" />
    </filter>
    <filter
       style="color-interpolation-filters:sRGB"
       inkscape:label="Blur"
       id="filter23980">
      <feGaussianBlur
         stdDeviation="2 2"
         result="blur"
         id="feGaussianBlur23982" />
    </filter>
    <filter
       style="color-interpolation-filters:sRGB"
       inkscape:label="Blur"
       id="filter23988">
      <feGaussianBlur
         stdDeviation="1 1"
         result="blur"
         id="feGaussianBlur23990" />
    </filter>
    <filter
       style="color-interpolation-filters:sRGB"
       inkscape:label="Blur"
       id="filter24008">
      <feGaussianBlur
         stdDeviation="1 1"
         result="blur"
         id="feGaussianBlur24010" />
    </filter>
    <filter
       style="color-interpolation-filters:sRGB"
       inkscape:label="Blur"
       id="filter24012">
      <feGaussianBlur
         stdDeviation="1 1"
         result="blur"
         id="feGaussianBlur24014" />
    </filter>
    <filter
       style="color-interpolation-filters:sRGB"
       inkscape:label="Blur"
       id="filter24016">
      <feGaussianBlur
         stdDeviation="1 1"
         result="blur"
         id="feGaussianBlur24018" />
    </filter>
    <filter
       style="color-interpolation-filters:sRGB"
       inkscape:label="Blur"
       id="filter24020">
      <feGaussianBlur
         stdDeviation="1 1"
         result="blur"
         id="feGaussianBlur24022" />
    </filter>
    <filter
       style="color-interpolation-filters:sRGB"
       inkscape:label="Blur"
       id="filter24024">
      <feGaussianBlur
         stdDeviation="1 1"
         result="blur"
         id="feGaussianBlur24026" />
    </filter>
    <filter
       style="color-interpolation-filters:sRGB"
       inkscape:label="Blur"
       id="filter24028">
      <feGaussianBlur
         stdDeviation="1 1"
         result="blur"
         id="feGaussianBlur24030" />
    </filter>
    <filter
       style="color-interpolation-filters:sRGB"
       inkscape:label="Blur"
       id="filter24032">
      <feGaussianBlur
         stdDeviation="1 1"
         result="blur"
         id="feGaussianBlur24034" />
    </filter>
    <filter
       style="color-interpolation-filters:sRGB"
       inkscape:label="Blur"
       id="filter24036">
      <feGaussianBlur
         stdDeviation="1 1"
         result="blur"
         id="feGaussianBlur24038" />
    </filter>
    <filter
       style="color-interpolation-filters:sRGB"
       inkscape:label="Blur"
       id="filter24052">
      <feGaussianBlur
         stdDeviation="1 1"
         result="blur"
         id="feGaussianBlur24054" />
    </filter>
    <filter
       style="color-interpolation-filters:sRGB"
       inkscape:label="Blur"
       id="filter24309">
      <feGaussianBlur
         stdDeviation="2 2"
         result="blur"
         id="feGaussianBlur24311" />
    </filter>
    <clipPath
       clipPathUnits="userSpaceOnUse"
       id="clipPath4532">
      <path
         inkscape:connector-curvature="0"
         id="path4534"
         d="M 18.75,-2.6189942e-4 A 18.75,18.75 0 0 0 0,18.749739 L 0,381.25023 a 18.75,18.75 0 0 0 18.75,18.75 l 562.50001,0 a 18.75,18.75 0 0 0 18.75001,-18.75 l 0,-362.500491 A 18.75,18.75 0 0 0 581.25001,-2.6189942e-4 l -562.50001,0 z"
         style="fill:#00ffff;fill-opacity:1" />
    </clipPath>
    <radialGradient
       inkscape:collect="always"
       xlink:href="#linearGradient22338"
       id="radialGradient6127"
       cx="1070"
       cy="700.00079"
       fx="1070"
       fy="700.00079"
       r="40"
       gradientUnits="userSpaceOnUse"
       gradientTransform="matrix(-1,0,0,1,-170,-99.999203)" />
    <linearGradient
       inkscape:collect="always"
       xlink:href="#linearGradient6136"
       id="linearGradient6142"
       x1="780"
       y1="373.3338"
       x2="800"
       y2="373.3338"
       gradientUnits="userSpaceOnUse"
       gradientTransform="translate(-2000,0)" />
    <linearGradient
       inkscape:collect="always"
       xlink:href="#linearGradient6136"
       id="linearGradient6152"
       x1="410"
       y1="620.00079"
       x2="410"
       y2="640.00079"
       gradientUnits="userSpaceOnUse"
       gradientTransform="translate(-2000,0)" />
    <radialGradient
       inkscape:collect="always"
       xlink:href="#linearGradient22338"
       id="radialGradient6156"
       gradientUnits="userSpaceOnUse"
       gradientTransform="translate(-3030,-99.9992)"
       cx="1070"
       cy="700.00079"
       fx="1070"
       fy="700.00079"
       r="40" />
    <linearGradient
       inkscape:collect="always"
       xlink:href="#linearGradient6136"
       id="linearGradient6160"
       gradientUnits="userSpaceOnUse"
       x1="780"
       y1="373.3338"
       x2="800"
       y2="373.3338"
       gradientTransform="translate(1200,0)" />
    <linearGradient
       inkscape:collect="always"
       xlink:href="#linearGradient6136"
       id="linearGradient6164"
       gradientUnits="userSpaceOnUse"
       x1="410"
       y1="620.00079"
       x2="410"
       y2="640.00079"
       gradientTransform="translate(-2000.0006,-880.00158)" />
    <radialGradient
       inkscape:collect="always"
       xlink:href="#linearGradient22338"
       id="radialGradient6174"
       gradientUnits="userSpaceOnUse"
       gradientTransform="matrix(-1,0,0,-1,-170.00063,980.00078)"
       cx="1070"
       cy="700.00079"
       fx="1070"
       fy="700.00079"
       r="40" />
    <radialGradient
       inkscape:collect="always"
       xlink:href="#linearGradient22338"
       id="radialGradient6176"
       gradientUnits="userSpaceOnUse"
       gradientTransform="matrix(1,0,0,-1,-3030.001,980.00078)"
       cx="1070"
       cy="700.00079"
       fx="1070"
       fy="700.00079"
       r="40" />
    <linearGradient
       inkscape:collect="always"
       xlink:href="#linearGradient22506"
       id="linearGradient6209"
       x1="2050"
       y1="-120.00079"
       x2="2560"
       y2="-630.00079"
       gradientUnits="userSpaceOnUse"
       gradientTransform="matrix(1,0,0,0.73469387,-4000,-164.49002)" />
    <filter
       style="color-interpolation-filters:sRGB"
       inkscape:label="Blur"
       id="filter6223">
      <feGaussianBlur
         stdDeviation="2 2"
         result="blur"
         id="feGaussianBlur6225" />
    </filter>
    <filter
       style="color-interpolation-filters:sRGB"
       inkscape:label="Blur"
       id="filter12806">
      <feGaussianBlur
         stdDeviation="2 2"
         result="blur"
         id="feGaussianBlur12808" />
    </filter>
    <filter
       style="color-interpolation-filters:sRGB"
       inkscape:label="Blur"
       id="filter30942">
      <feGaussianBlur
         stdDeviation="2 2"
         result="blur"
         id="feGaussianBlur30944" />
    </filter>
    <filter
       style="color-interpolation-filters:sRGB"
       inkscape:label="Blur"
       id="filter30950">
      <feGaussianBlur
         stdDeviation="2 2"
         result="blur"
         id="feGaussianBlur30952" />
    </filter>
    <linearGradient
       id="linearGradient747"
       y2="173.45"
       xlink:href="#linearGradient783"
       gradientUnits="userSpaceOnUse"
       y1="218.47"
       gradientTransform="matrix(1.5101,0,0,0.65184,40.513,0.0061069)"
       x2="110.94"
       x1="109.34" />
    <linearGradient
       id="linearGradient783">
      <stop
         stop-color="#474747"
         offset="0"
         id="stop12" />
      <stop
         stop-color="#f50"
         offset="1"
         id="stop14" />
    </linearGradient>
    <linearGradient
       id="linearGradient748"
       y2="337.23001"
       gradientUnits="userSpaceOnUse"
       y1="316.38"
       gradientTransform="matrix(1.2315,0,0,0.79928,40.513,0.0061069)"
       x2="126.02"
       x1="125.91">
      <stop
         stop-color="#b50000"
         offset="0"
         id="stop19" />
      <stop
         stop-color="#ffc500"
         offset="1"
         id="stop21" />
    </linearGradient>
    <linearGradient
       id="linearGradient801"
       y2="147.35001"
       xlink:href="#linearGradient795"
       gradientUnits="userSpaceOnUse"
       y1="149.38"
       gradientTransform="matrix(0.55904,0,0,1.7607,40.513,0.0061069)"
       x2="456.39999"
       x1="407.87" />
    <linearGradient
       id="linearGradient795">
      <stop
         stop-color="#d5dfff"
         offset="0"
         id="stop7" />
      <stop
         stop-color="#FFF"
         offset="1"
         id="stop9" />
    </linearGradient>
    <linearGradient
       id="linearGradient746"
       y2="102.99"
       xlink:href="#linearGradient783"
       gradientUnits="userSpaceOnUse"
       x2="228.97"
       gradientTransform="matrix(0.74087,0,0,1.3286,40.513,0.0061069)"
       y1="102.99"
       x1="215.83" />
    <linearGradient
       id="linearGradient794"
       y2="1003.7"
       xlink:href="#linearGradient795"
       gradientUnits="userSpaceOnUse"
       y1="1040.4"
       gradientTransform="matrix(2.5627,0,0,0.38409,40.513,0.0061069)"
       x2="78.221001"
       x1="117.6" />
    <linearGradient
       id="linearGradient800"
       y2="226.38"
       xlink:href="#linearGradient795"
       gradientUnits="userSpaceOnUse"
       y1="245.98"
       gradientTransform="matrix(0.88634,0,0,1.1105,40.513,0.0061069)"
       x2="255.03"
       x1="264.72" />
    <clipPath
       clipPathUnits="userSpaceOnUse"
       id="clipPath7878">
      <rect
         ry="40"
         transform="scale(1,-1)"
         y="-375"
         x="0"
         height="400"
         width="800"
         id="rect7880"
         style="fill:#d70000;fill-opacity:1" />
    </clipPath>
  </defs>
  <g
     id="g7882"
     transform="translate(80,-41.095524)">
    <rect
       style="fill:#000000;fill-opacity:1;filter:url(#filter30950)"
       id="rect6199"
       width="800"
       height="400.95523"
       x="-1000"
       y="-480.1463"
       transform="matrix(1,0,0,-1,1000,2)"
       ry="40.9552" />
    <g
       clip-path="url(#clipPath7878)"
       id="g4648"
       transform="translate(0,106.1463)">
      <rect
         width="800"
         height="400"
         id="rect26"
         x="7.4014485e-016"
         y="-25"
         style="fill:#00247d" />
      <g
         transform="matrix(0.80634667,0,0,0.80634667,0,-25.000019)"
         id="g28">
        <g
           transform="matrix(8.2677,0,0,8.2677,0,2.2888e-5)"
           id="g30">
          <path
             d="m 0,0 0,3.3541 53.292,26.646 6.708,0 0,-3.354 L 6.708,1e-4 0,1e-4 Z M 60,0 60,3.354 6.708,30 0,30 0,26.646 53.292,0 60,0 Z"
             id="path32"
             inkscape:connector-curvature="0"
             style="fill:#ffffff" />
          <path
             d="M 25,0 25,30 35,30 35,0 25,0 Z M 0,10 0,20 60,20 60,10 0,10 Z"
             id="path34"
             inkscape:connector-curvature="0"
             style="fill:#ffffff" />
          <path
             d="m 0,12 0,6 60,0 0,-6 -60,0 z m 27,-12 0,30 6,0 0,-30 -6,0 z"
             id="path36"
             inkscape:connector-curvature="0"
             style="fill:#cf142b" />
          <path
             d="m 0,30 20,-10 4.472,0 -20,10 L 0,30 Z M 0,0 20,10 15.528,10 0,2.2361 0,0 Z M 35.528,10 55.528,0 60,0 40,10 35.528,10 Z M 60,30 40,20 44.472,20 60,27.764 60,30 Z"
             id="path38"
             inkscape:connector-curvature="0"
             style="fill:#cf142b" />
        </g>
      </g>
      <g
         transform="matrix(0.6624,0,0,0.6624,492.16,-2.0858667)"
         id="g40">
        <path
           d="m 146.97,393.04 c 0,0 -3.35,8.84 -5.26,8.84 -1.91,0 -8.84,-3.82 -8.84,-3.82 0,0 -5.02,8.13 -7.65,8.6 -2.63,0.48 -9.56,-1.19 -9.56,-1.19 0,0 -6.69,0 -6.93,-0.96 -0.24,-0.95 0.24,-2.86 0.24,-2.86 0,0 -9.558,7.64 -11.709,7.16 -2.151,-0.47 -9.32,-9.55 -9.32,-9.55 l -1.195,4.78 -13.621,-0.48 -11.949,-7.65 c 0,0 -6.691,10.99 -6.93,10.75 -0.239,-0.24 -11.709,2.63 -11.709,2.63 l -0.717,-2.15 -7.647,-4.54 c 0,0 5.974,-8.36 5.974,-8.6 0,-0.24 -2.868,-1.2 -2.868,-1.2 l -4.301,3.59 -8.842,5.73 -8.842,-4.06 3.824,-7.17 0.478,-5.26 6.93,-10.51 84.834,-82.45 41.82,77.19 -6.21,23.18 z"
           id="path42"
           inkscape:connector-curvature="0"
           style="fill:#6a4c2d;stroke:#000000;stroke-width:1pt" />
        <path
           d="m 207.24,398.04 22.08,-0.8 -9.4,-4.64 84.14,-3.17 -11.89,-4.53 -10.53,-14.27 -43.6,-3.28 c 0,0 -3.28,-2.49 -8.61,-1.25 -0.22,-3.39 -4.3,-7.81 -4.3,-7.81 l -26.84,-2.04 -16.76,11.44 11.32,28.99 14.39,1.36 z"
           id="path44"
           inkscape:connector-curvature="0"
           style="fill:#ffffff;stroke:#000000;stroke-width:1pt" />
        <path
           d="m 121.32,150.76 2.22,-7.56 c 0,0 3.89,-6.56 3.89,-9.46 0,-2.89 2.9,-6.33 2.9,-6.33 0,0 8.89,-2.56 10.78,2.89 9.57,-14.46 20.8,-0.67 20.8,-0.67 l 3.11,-3.67 6.34,-7.78 c 0,0 9.01,8.45 9.12,9.89 0.11,1.45 1.55,0.45 1.55,0.45 l 9.79,-0.78 c 0,0 4.64,3.64 3.67,10.56 3.45,2.04 6.56,14.01 6.56,14.01 l -80.73,-1.55 z"
           id="path46"
           style="fill:url(#linearGradient747);stroke:#000000;stroke-width:1pt"
           inkscape:connector-curvature="0" />
        <path
           d="m 207.25,240.72 c 1.69,-1.03 7.01,-2.72 6.36,-10.5 -0.65,-7.78 -7.39,-8.69 -11.15,-8.43 -3.77,0.26 -7.14,3.5 -7.14,3.5 l -12.45,-7.91 c 0,0 6.23,-39.3 12.84,-41.76 6.28,-4.53 7.39,-6.49 7.39,-7.52 0,-1.04 -2.33,-3.64 -2.33,-3.64 l -40.6,-4.8 -38.39,4.54 c 0,0 -2.98,4.54 -2.59,6.36 0.39,1.81 0.52,3.76 7.39,9.08 7.61,5.85 12.84,39.43 12.84,39.43 0,0 -10.76,5.31 -11.41,4.66 -0.65,-0.64 -3.89,-1.29 -5.58,-1.03 -1.68,0.26 -7.26,3.11 -7.26,10.5 0,7.4 5.58,11.68 5.58,11.68 0,0 36.7,-4.28 42.15,5.83 5.32,-12.19 40.2,-7.91 44.35,-9.99 z"
           id="path48"
           inkscape:connector-curvature="0"
           style="fill:#656263;stroke:#000000;stroke-width:1pt" />
        <path
           d="m 246.79,199.87 c 0,0 0.41,-4.27 3.45,-6.3 3.05,-2.03 23.36,-3.05 28.24,0 4.87,3.05 6.7,18.08 6.7,18.08 0,0 3.05,5.28 3.25,9.14 0.2,3.86 0.61,6.5 0.61,6.5 0,0 16.25,21.13 16.45,40.22 1.83,13 1.42,47.73 -3.65,60.93 -0.21,16.46 -7.11,27.22 -7.11,27.22 0,0 1.62,2.84 1.42,5.89 -0.21,3.05 -1.83,5.89 -1.83,5.89 l 23.76,11.78 -8.73,-3.25 c 0,0 8.94,7.52 8.73,7.32 -0.2,-0.21 -9.95,-4.68 -9.95,-4.68 l 5.89,5.89 c -0.2,-0.2 -14.42,-6.5 -14.42,-6.5 0,0 6.7,6.3 6.3,6.1 -0.41,-0.2 -10.77,-5.08 -10.77,-5.08 0,0 6.5,6.91 6.3,6.5 -0.2,-0.41 -9.34,-4.06 -9.34,-4.06 l 0.4,3.45 c 0,0 -7.31,-0.41 -7.31,-5.89 -3.66,-2.03 -6.09,-4.88 -6.09,-4.88 l -16.86,-2.84 -19.1,-57.08 4.47,-96.48 1.22,-4.87 -2.03,-13 z"
           id="path50"
           inkscape:connector-curvature="0"
           style="stroke:#000000;stroke-width:1.25;stroke-linejoin:round;stroke-opacity:0.97853998" />
        <path
           d="m 234.03,508.2 c 0,0 -9.78,-20.57 -14.65,-20.86 -4.4,-8.39 15.29,-76.96 53.38,-80.87 20.94,1.72 1.72,24.14 -12.05,17.24 1.72,6.03 8.6,14.66 8.6,14.66 0,0 -27.25,11.78 -35.28,69.83 z"
           id="path52"
           inkscape:connector-curvature="0"
           style="fill:#ffbb00;stroke:#000000;stroke-width:0.99322996pt" />
        <path
           d="m 102.91,511.2 c 0,0 8.1,-23.42 13.01,-23.71 4.92,-0.29 -13.01,-78.05 -52.032,-78.63 -21.104,1.74 -1.735,24.28 12.141,17.34 -1.734,6.08 -8.672,14.75 -8.672,14.75 0,0 27.463,11.85 35.553,70.25 z"
           id="path54"
           inkscape:connector-curvature="0"
           style="fill:#ffbb00;stroke:#000000;stroke-width:1pt" />
        <path
           d="m 138.71,364.93 c -0.1,-0.19 -9.69,3.01 -3.48,13.45 0.47,-4.04 4.79,-6.49 4.79,-6.49 0,0 -6.58,7.81 0.38,14.39 0.85,-6.21 4.8,-8.18 4.8,-8.18 0,0 -4.89,14.39 0.09,17.3 0.57,-5.74 4.23,-8.27 4.23,-8.27 0,0 -4.42,12.88 -0.47,15.79 0.47,-4.88 3.76,-7.05 3.76,-7.05 0,0 -1.97,13.36 3.2,14.3 0.1,-4.71 3.86,-9.31 3.86,-9.31 0,0 -1.7,10.9 6.39,11.38 0.1,-4.14 1.6,-8.84 1.6,-8.84 0,0 3.67,11.56 9.03,9.68 -0.09,-3.38 0.09,-9.78 0,-9.78 -0.1,0 3.38,11 9.78,8.94 -0.94,-3.11 0.37,-6.78 0.37,-6.78 0,0 3.39,6.87 9.5,4.61 1.04,-2.07 -0.28,-6.11 -0.28,-6.11 0,0 8.93,9.22 11.66,3.67 2.73,-5.55 -7.15,-7.43 -7.15,-7.43 l 6.68,0 c 0,0 -2.16,-5.64 -11.19,-6.87 3.1,-1.41 6.3,-0.37 6.3,-0.37 0,0 -1.88,-7.06 -11.1,-7.81 3.58,-1.22 7.53,-0.37 7.53,-0.37 0,0 -1.23,-6.68 -11.38,-8.56 1.6,-1.79 5.92,-1.22 5.92,-1.22 0,0 -4.04,-6.3 -8.65,-5.93 -4.61,0.38 -46.27,-4.23 -46.17,-4.14 z"
           id="path56"
           inkscape:connector-curvature="0"
           style="fill:#00713d;stroke:#000000;stroke-width:1pt" />
        <g
           id="g58"
           style="fill:none;stroke:#3ec26d;stroke-width:1.25;stroke-linecap:round">
          <g
             id="g60">
            <path
               d="m 179.8,398.88 c 0,0 3.67,1.79 3.58,3.39"
               id="path62"
               inkscape:connector-curvature="0" />
            <path
               d="m 181.97,395.97 c 0,0 4.7,3.29 4.61,5.73"
               id="path64"
               inkscape:connector-curvature="0" />
            <path
               d="m 186.1,394.27 c 0,0 3.77,2.35 3.95,6.02"
               id="path66"
               inkscape:connector-curvature="0" />
            <path
               d="m 192.4,395.78 c 0,0 1.89,4.04 1.23,4.79"
               id="path68"
               inkscape:connector-curvature="0" />
            <path
               d="m 196.17,397.94 c 0.28,3.2 -0.29,3.48 -0.29,3.48"
               id="path70"
               inkscape:connector-curvature="0" />
          </g>
          <path
             d="m 149.8,377.72 c 0,0 4.42,2.82 4.05,6.77"
             id="path72"
             inkscape:connector-curvature="0" />
          <path
             d="m 149.52,381.11 c 0,0 2.07,1.97 1.6,3.29"
             id="path74"
             inkscape:connector-curvature="0" />
          <path
             d="m 154.98,377.82 c 0,0 2.91,4.04 1.97,6.86"
             id="path76"
             inkscape:connector-curvature="0" />
          <path
             d="m 159.96,380.45 c 0,0 1.32,2.54 0.1,3.95"
             id="path78"
             inkscape:connector-curvature="0" />
          <path
             d="m 162.31,381.67 c 0,0 1.6,2.54 0.19,3.39"
             id="path80"
             inkscape:connector-curvature="0" />
          <path
             d="m 160.53,390.04 c 0,0 4.13,0.94 4.7,4.04"
             id="path82"
             inkscape:connector-curvature="0" />
          <path
             d="m 162.97,387.22 c 0,0 4.33,0.28 4.8,4.89"
             id="path84"
             inkscape:connector-curvature="0" />
          <path
             d="m 168.71,385.62 c 0.09,0 2.91,4.99 2.44,6.58"
             id="path86"
             inkscape:connector-curvature="0" />
          <path
             d="m 174.26,386.09 c 0,0 1.12,4.8 0.28,6.3"
             id="path88"
             inkscape:connector-curvature="0" />
          <path
             d="m 177.83,387.97 c 0,0.1 0.09,5.55 0.09,5.55"
             id="path90"
             inkscape:connector-curvature="0" />
          <path
             d="m 172.38,380.45 c 0,0 2.72,1.03 2.53,3.67"
             id="path92"
             inkscape:connector-curvature="0" />
          <path
             d="m 174.91,378 c 0,0 3.48,1.98 3.11,5.74"
             id="path94"
             inkscape:connector-curvature="0" />
          <path
             d="m 178.96,376.41 c 0,0 3.01,3.57 1.88,7.52"
             id="path96"
             inkscape:connector-curvature="0" />
          <path
             d="m 184.22,377.25 c 0,0 -1.12,4.42 -0.66,6.21"
             id="path98"
             inkscape:connector-curvature="0" />
          <path
             d="m 187.42,380.26 c 0,0 -1.97,1.51 -0.94,3.39"
             id="path100"
             inkscape:connector-curvature="0" />
          <path
             d="m 170.31,397.47 c 0,0 0.65,3.39 0,3.95"
             id="path102"
             inkscape:connector-curvature="0" />
          <path
             d="m 165.98,395.5 c 0,0 2.16,3.76 1.41,5.64"
             id="path104"
             inkscape:connector-curvature="0" />
          <path
             d="m 161.37,395.31 c 0,0 2.45,2.82 2.35,5.08"
             id="path106"
             inkscape:connector-curvature="0" />
          <path
             d="m 157.61,395.87 c 0,0 2.26,2.17 2.07,3.39"
             id="path108"
             inkscape:connector-curvature="0" />
          <path
             d="m 155.64,399.16 c 0,0 2.16,2.26 2.06,2.73"
             id="path110"
             inkscape:connector-curvature="0" />
        </g>
        <path
           d="m 108.86,244.78 c 10.37,-0.19 20.74,-0.37 31.11,-0.56 0,0 20.55,0 22.77,6.67 3.89,-8.89 21.66,-8.33 21.66,-8.33 10.74,-0.37 21.48,-0.74 32.21,-1.11 0.19,25.92 0.37,51.84 0.56,77.76 -6.29,30.17 -28.14,51.47 -52.21,60.54 -28.7,-9.26 -46.84,-33.51 -52.76,-61.1 -1.12,-24.62 -2.23,-49.25 -3.34,-73.87 z"
           id="path112"
           inkscape:connector-curvature="0"
           style="fill:#ffffff;stroke:#000000;stroke-width:1pt" />
        <path
           d="m 119.94,244.49 45.31,120.74 40.93,-123.37 c -12.7,0.82 -39.94,-2 -43.32,9.58 -5.24,-10.36 -33.9,-6.18 -42.92,-6.95 z"
           id="path114"
           inkscape:connector-curvature="0"
           style="fill:#006b00;stroke:#000000;stroke-width:1pt" />
        <path
           d="m 150.78,309.86 c 1.75,0.91 1.7,-32.77 3.99,-33.81 0.65,-2.79 0.98,-4.01 1.8,-6.97 -1.97,-3.49 -10.79,-3.32 -14.06,-0.35 1.47,4.7 2.12,6.27 2.12,6.27 4.42,7.15 3.54,35.62 6.15,34.86 z"
           id="path116"
           inkscape:connector-curvature="0"
           style="fill:#ffc900;stroke:#006b00;stroke-width:0.68918002;stroke-linecap:round" />
        <path
           d="m 138.64,49.548 c 0,0 3.21,-3.638 3.35,-4.51 0.15,-0.873 14.55,-1.455 23.13,-17.458 4.8,-8.438 0,-3.492 0,-3.492 l -0.29,-4.074 c 0,0 5.97,-5.673 3.79,-8.729 -2.19,-3.0546 -1.46,3.929 -4.95,3.783 -3.49,-0.146 -1.6,-7.565 -1.6,-7.565 0,0 -0.29,-0.873 -1.31,-1.3094 -1.46,0.1455 -1.02,2.7642 -2.33,3.0551 -1.31,0.291 -2.47,-6.1103 -2.47,-6.1103 0,0 -2.18,-2.9096 -4.08,6.2558 1.02,9.7478 7.28,7.8558 7.28,14.258 0,6.401 -5.53,11.347 -7.13,11.493 -1.6,0.145 -1.02,-5.383 -1.02,-5.383 0,0 -0.87,-2.619 -1.45,-2.619 -0.58,0 3.2,-0.582 2.62,-7.856 -1.31,-8.729 -2.33,2.037 -4.66,1.6 -2.33,-0.436 -0.58,-8.001 0.29,-8.874 0.87,-0.873 -1.02,-4.51 -6.11,4.801 -0.44,4.51 -1.02,-1.164 -2.04,-0.873 -1.74,3.637 -1.45,6.256 1.02,9.602 3.64,3.346 5.97,6.692 5.82,8.438 -0.14,1.746 -2.04,5.674 -4.65,5.674 -2.62,0 0.14,-4.801 0,-6.402 -0.15,-1.6 -4.51,-7.419 -4.51,-7.419 0,0 -3.06,-4.947 -2.77,-5.092 0.29,-0.146 -0.29,-0.873 -1.74,4.219 -1.46,5.092 -3.21,-3.346 -3.21,-3.346 0,0 -2.03,6.255 2.33,10.038 -3.34,-0.436 -3.63,0.873 -3.63,0.873 0,1.746 4.51,2.473 5.09,5.528 0.58,3.056 -4.66,4.801 -4.66,4.801 0,0 2.19,3.055 8.29,-2.909 0.15,3.782 -2.32,6.401 -2.32,6.401 2.03,0.921 3.63,0.824 3.92,3.201 z"
           id="path118"
           inkscape:connector-curvature="0"
           style="fill:#cdad56;stroke:#000000;stroke-width:1.25;stroke-linejoin:round" />
        <path
           d="m 118.68,49.548 c 0,0 -2.72,-4.037 -2.84,-4.832 -0.13,-0.794 -13.38,1.004 -19.648,-15.158 -4.078,-7.678 0,-3.177 0,-3.177 l 0.247,-3.707 c 0,0 -4.339,-5.308 -2.486,-8.088 1.853,-2.78 1.09,3.574 3.474,3.587 2.963,-0.132 1.359,-6.884 1.359,-6.884 0,0 0.246,-0.794 1.112,-1.191 1.232,0.132 1.742,4.115 2.852,4.38 1.11,0.265 3.41,-4.687 4.13,-5.7054 1.02,-0.1457 0.98,-4.1023 2.59,4.2374 -0.86,8.87 -8.21,7.149 -8.21,12.974 0,5.824 4.69,10.325 6.05,10.458 1.36,0.132 0.87,-4.898 0.87,-4.898 0,0 0.74,-2.383 1.23,-2.383 0.5,0 -4.32,0.925 -3.82,-5.694 1.11,-6.197 3.57,0.399 5.55,0.001 1.98,-0.397 -0.23,-6.553 0.34,-7.493 0.13,-0.94 3.04,-4.977 4.17,3.932 0.37,4.104 2.61,-3.532 3.47,-3.267 1.49,3.309 -0.65,7.729 -2.75,10.774 -3.09,3.044 -4.49,6.38 -4.36,7.969 0.12,1.588 0.85,3.562 3.08,3.562 2.22,0 0.75,-2.768 0.87,-4.224 0.12,-1.456 3.83,-6.17 3.83,-6.17 0.73,-1.163 0.12,-3.337 0.89,-4.342 1.21,0.013 1.71,-1.667 2.94,2.966 1.24,4.633 2.72,-3.045 2.72,-3.045 0,0 1.73,5.693 -1.98,9.135 2.84,-0.397 3.09,0.794 3.09,0.794 0,1.589 -1.35,2.25 -1.85,5.03 -0.5,2.78 1.48,4.369 1.48,4.369 0,0 -1.85,2.78 -7.04,-2.648 -0.13,3.442 1.98,5.825 1.98,5.825 -1.74,0.839 -3.09,0.75 -3.34,2.913 z"
           id="path120"
           inkscape:connector-curvature="0"
           style="fill:#cdad56;stroke:#000000;stroke-width:1.09889996;stroke-linejoin:round" />
        <path
           d="m 198.62,262.5 c -2.71,-2.46 -3.03,-0.31 -4.36,-0.86 -0.66,-0.27 -1.17,-0.88 -1.74,-1.44 -0.49,-0.51 -1.08,-0.72 -1.73,-0.99 -0.25,0.73 -0.49,1.45 -0.74,2.18 -0.25,0.73 0.69,1.94 0.67,3.03 -0.19,1.62 -0.85,2.97 -2.89,3.52 0.58,-1.15 0.91,-1.2 0.73,-2.61 -0.08,-0.7 -2.05,-1.95 -1.81,-2.61 0.36,-1.07 0.98,-2.3 0.52,-3.37 -0.83,0.57 -1.93,0.27 -2.76,0.62 -0.71,0.31 -0.75,1.62 -1.73,2.16 -1,0.47 -3.21,0.24 -5.06,-0.81 1.13,-0.85 2.06,-0.28 3.19,-1.13 0.56,-0.43 0.54,-2.26 1.1,-2.69 0.57,-0.43 1.92,-0.88 2.48,-1.31 -0.51,-0.58 -0.48,-1.49 -0.99,-2.07 -0.5,-0.58 -2.75,-0.46 -3.26,-1.03 -1.02,-1.16 -0.82,-2.68 -1.84,-3.83 2.63,0.94 2.25,2.22 2.91,2.12 1.24,-0.6 2.48,-0.71 3.13,-0.44 0.66,0.28 1.9,1.9 2.55,2.17 0.25,-0.73 0.61,-1.65 0.85,-2.38 0.25,-0.73 -1.1,-1.99 -0.86,-2.72 0.5,-1.45 1.72,-2.74 2.21,-4.2 0.18,1.41 0.41,2.59 0.59,3.99 0.09,0.7 1.47,1.07 1.56,1.77 0.09,0.71 -0.72,2.33 -0.64,3.04 0.76,-0.15 1.85,-0.05 2.6,-0.2 0.76,-0.15 1.26,-1.9 2.01,-2.05 1.51,-0.3 2.6,-0.21 4.13,0.08 -1.13,1.05 -2,0.98 -2.71,1.94 -0.56,0.43 0.22,1.84 -1.41,2.83 -0.61,0.36 -2.22,-0.07 -2.79,0.36 0.51,0.58 1.02,1.15 1.53,1.73 0.5,0.58 2.78,0.85 3.29,1.43 1.01,1.15 1.55,2.53 1.27,3.77 z"
           id="path122"
           inkscape:connector-curvature="0"
           style="fill:#ffc900;stroke-width:1pt" />
        <path
           d="m 128.95,263.69 c 2.71,-2.46 3.03,-0.31 4.37,-0.86 0.65,-0.28 1.16,-0.89 1.73,-1.44 0.49,-0.51 1.08,-0.72 1.73,-1 0.25,0.73 0.5,1.46 0.74,2.19 0.25,0.73 -0.68,1.93 -0.66,3.02 0.18,1.63 0.84,2.97 2.88,3.53 -0.58,-1.15 -0.91,-1.21 -0.73,-2.61 0.09,-0.7 2.05,-1.95 1.81,-2.62 -0.36,-1.06 -0.98,-2.3 -0.52,-3.37 0.84,0.58 1.93,0.28 2.77,0.62 0.7,0.32 0.75,1.63 1.72,2.17 1.01,0.47 3.22,0.24 5.06,-0.81 -1.13,-0.86 -2.06,-0.28 -3.19,-1.14 -0.56,-0.42 -0.53,-2.26 -1.1,-2.68 -0.56,-0.43 -1.91,-0.89 -2.48,-1.32 0.51,-0.57 0.48,-1.49 0.99,-2.07 0.51,-0.57 2.76,-0.45 3.26,-1.03 1.02,-1.15 0.83,-2.67 1.84,-3.83 -2.63,0.94 -2.24,2.22 -2.9,2.13 -1.25,-0.6 -2.49,-0.72 -3.14,-0.44 -0.65,0.27 -1.9,1.89 -2.55,2.17 -0.25,-0.73 -0.6,-1.65 -0.85,-2.38 -0.25,-0.73 1.11,-1.99 0.86,-2.72 -0.49,-1.46 -1.72,-2.74 -2.21,-4.2 -0.18,1.4 -0.41,2.58 -0.59,3.99 -0.09,0.7 -1.47,1.07 -1.56,1.77 -0.08,0.7 0.73,2.33 0.64,3.03 -0.76,-0.15 -1.85,-0.05 -2.6,-0.19 -0.75,-0.16 -1.25,-1.91 -2.01,-2.06 -1.51,-0.3 -2.59,-0.21 -4.13,0.08 1.13,1.06 2,0.98 2.71,1.95 0.56,0.43 -0.22,1.84 1.41,2.83 0.61,0.36 2.23,-0.07 2.79,0.36 -0.51,0.57 -1.02,1.15 -1.52,1.73 -0.51,0.58 -2.79,0.85 -3.29,1.42 -1.02,1.16 -1.56,2.54 -1.28,3.78 z"
           id="path124"
           inkscape:connector-curvature="0"
           style="fill:#ffc900;stroke-width:1pt" />
        <path
           d="m 196.19,270.28 c -2.46,1.91 -18.31,5.92 -18.48,19.69 -0.16,13.77 2.78,16.91 -0.16,17.26 -5.72,0 -6.54,-15.34 -6.38,-22.14 0.17,-6.8 0.33,-5.75 0.33,-5.75 0,0 3.92,1.04 3.6,4.36 -0.33,3.31 3.92,-8.2 2.45,-11.33 2.61,2.61 6.05,1.57 6.05,1.39 0,-0.17 -1.96,-2.26 -2.78,-3.83 -0.82,-1.57 2.94,0.87 2.94,0.87 0,0 0.16,-2.62 -3.11,-2.44 -4.25,0 0.66,-1.4 0.66,-1.4 0,0 2.45,2.27 4.09,-0.17 -1.8,-1.92 -4.42,-2.97 -4.42,-2.97 0,0 -2.29,-4.35 -5.39,-5.22 -3.6,-0.88 -3.11,1.56 -7.2,1.22 -0.81,1.56 -0.81,1.74 0.82,2.26 -2.78,1.92 -1.31,5.75 -1.31,5.75 0,0 4.42,-1.91 4.25,1.22 -0.16,3.14 -2.61,2.62 -4.25,0.7 -1.47,-0.87 -1.96,0.87 -1.96,0.87 l 2.29,2.44 c 0,0 -4.41,-0.17 -5.56,2.79 2.45,-0.17 3.76,0.53 3.76,0.53 0,0 -5.07,2.26 -5.56,3.48 -0.49,1.22 -0.65,-1.39 -0.81,-1.39 -0.17,0 -4.91,-1.75 -4.91,-1.75 l -1.64,7.54 c 0,0 3.28,3.27 5.07,2.22 1.8,-1.04 5.07,-4.18 7.03,-3.31 -5.72,4.36 -11.44,10.63 -14.55,11.51 -0.81,-0.7 -3.59,-3.49 -4.74,-2.1 -1.14,1.4 -0.32,3.14 1.15,2.97 1.47,-0.18 -4.74,1.39 -3.44,4.01 1.31,2.61 1.15,2.44 2.29,1.74 1.15,-0.7 -0.98,-0.87 3.27,-2.09 4.25,-1.22 4.09,-2.44 4.09,-2.44 0,0 -0.82,1.91 -3.11,2.44 -2.29,0.52 -4.08,0.52 -3.59,1.22 0.49,0.69 1.47,1.91 1.14,2.61 -0.33,0.7 4.74,-3.66 6.05,-0.17 3.43,-0.18 5.72,-4.36 4.09,-6.8 0.16,2.61 1.8,3.49 0.81,4.71 -0.98,1.22 7.69,-4.01 3.44,-7.15 1.14,2.61 1.31,4.71 1.31,4.71 0,0 1.96,-0.18 2.45,-0.88 0.49,-0.69 -0.98,1.92 -0.33,2.44 0.65,0.53 3.76,3.49 2.45,5.58 -0.81,-1.22 -0.98,-3.14 -1.96,-2.96 -0.98,0.17 -5.07,3.14 -7.52,3.31 -2.45,0.17 2.94,9.07 2.94,9.07 0,0 -3.76,-0.53 -4.25,-0.18 -0.49,0.35 -2.94,-3.14 -3.43,-1.04 -0.82,2.61 0.82,1.56 0.82,1.56 0,0 -2.13,-1.04 -3.27,0.18 -1.15,1.22 -2.29,2.44 -1.47,2.96 0.81,0.52 4.41,0.52 4.9,0.35 0.49,-0.17 -4.09,0.35 -4.41,0.87 -0.33,0.52 -0.98,2.44 0,3.14 0.98,0.7 3.43,-0.35 3.59,-0.87 0.17,-0.53 0.33,1.91 0.33,1.91 0,0 4.25,0.35 4.25,-4 0,-4.36 0.33,3.13 0.33,3.13 0,0 4.25,0.7 4.41,-3.66 0.17,-4.35 0.49,2.97 0.49,2.97 0,0 2.78,-0.88 2.78,-1.57 0,-0.7 -0.16,8.71 -2.12,11.33 -3.11,-2.1 -5.07,1.39 -5.07,1.39 0,0 0.16,5.05 -0.17,6.27 -0.32,1.22 2.13,-0.69 2.29,-1.22 0.17,-0.52 3.11,-1.91 3.27,-2.26 0.17,-0.35 0.98,-2.09 0.98,-2.09 0,0 -0.65,2.44 -1.79,2.79 -1.15,0.34 -2.29,1.56 -1.8,2.61 0.49,1.05 2.29,1.74 2.94,2.79 0.65,1.04 2.94,-6.1 2.94,-6.1 l 0.17,1.57 c 0,0 2.94,-0.7 3.27,-2.09 0.32,-1.4 -3.11,-2.62 -0.33,-4.88 2.78,-2.27 0,2.09 0,2.09 0,0 0.98,3.31 1.63,3.31 0.66,0 2.29,-6.28 0.66,-7.84 -1.64,-1.57 2.45,1.91 2.45,1.91 0,0 2.29,-6.45 -0.16,-7.32 -2.46,-0.87 -3.6,-1.22 -3.6,-1.22 0,0 1.31,-1.74 0.65,-1.91 -0.65,-0.18 3.44,3.83 4.09,2.78 0.66,-1.04 1.64,-4.18 -3.1,-5.92 -4.75,-1.74 -0.17,-6.63 -0.17,-6.63 0,0 2.95,3.49 5.07,1.57 2.12,-1.91 -0.16,-1.91 -0.16,-1.91 0,0 6.04,-3.84 6.21,-5.76 -1.15,-0.17 -3.11,0.18 -3.11,0.18 0,0 3.44,-2.27 2.62,-5.93 -1.31,1.92 -3.11,1.92 -3.11,1.92 0,0 2.95,-2.96 2.45,-5.75 -1.79,1.39 -1.63,2.44 -2.78,2.09 -1.14,-0.35 -3.1,-11.33 1.48,-12.03 4.57,-0.69 2.12,5.41 2.28,5.41 0.17,0 6.87,-2.79 0,-7.32 1.64,-0.53 5.07,2.61 5.07,2.61 0,0 -1.47,-7.67 -8.83,-2.96 1.8,-1.92 2.95,-3.14 4.42,-2.79 1.47,0.35 6.7,-0.18 6.7,-1.74 -1.3,-1.05 -4.08,0.52 -5.56,0 -1.47,-0.53 10.47,-1.4 9.49,-7.32 z"
           id="path126"
           inkscape:connector-curvature="0"
           style="fill:#ffc900;stroke:#006b00;stroke-width:0.68918002;stroke-linecap:round;stroke-linejoin:round" />
        <path
           d="m 481.3,118.54 c 0,0 12.25,-6.43 18.37,1.54"
           transform="matrix(0.53397,0,0,0.56928,-112.64,207.32)"
           id="path128"
           inkscape:connector-curvature="0"
           style="fill:none;stroke:#006b00;stroke-width:1.25;stroke-linecap:round" />
        <path
           d="m 504.57,132.32 c -0.31,0 -4.29,3.98 -5.21,3.98"
           transform="matrix(0.53397,0,0,0.56928,-112.64,207.32)"
           id="path130"
           inkscape:connector-curvature="0"
           style="fill:none;stroke:#006b00;stroke-width:1.25;stroke-linecap:round" />
        <path
           d="m 512.84,145.18 c 0,0 11.32,0.92 18.67,-10.41"
           transform="matrix(0.53397,0,0,0.56928,-112.64,207.32)"
           id="path132"
           inkscape:connector-curvature="0"
           style="fill:none;stroke:#006b00;stroke-width:1.25;stroke-linecap:round" />
        <path
           d="m 525.08,141.81 c 0,0 0.92,6.13 2.76,6.13 1.83,0 -3.06,1.53 -4.9,0.3 2.14,2.76 3.37,7.66 0,9.49"
           transform="matrix(0.53397,0,0,0.56928,-112.64,207.32)"
           id="path134"
           inkscape:connector-curvature="0"
           style="fill:none;stroke:#006b00;stroke-width:1.25;stroke-linecap:round" />
        <path
           d="m 519.26,218.97 c 0,0 -3.98,4.28 -8.88,4.59"
           transform="matrix(0.53397,0,0,0.56928,-112.64,207.32)"
           id="path136"
           inkscape:connector-curvature="0"
           style="fill:#e80000;stroke:#006b00;stroke-width:1.25;stroke-linecap:round" />
        <path
           d="m 523.86,199.37 c 0,0 -2.45,-12.24 -0.92,-15.31 0.92,-3.98 4.9,-5.51 7.96,-10.71"
           transform="matrix(0.53397,0,0,0.56928,-112.64,207.32)"
           id="path138"
           inkscape:connector-curvature="0"
           style="fill:none;stroke:#006b00;stroke-width:1.25;stroke-linecap:round" />
        <path
           d="m 522.63,190.49 c 0,0 -3.06,7.35 -16.53,4.9"
           transform="matrix(0.53397,0,0,0.56928,-112.64,207.32)"
           id="path140"
           inkscape:connector-curvature="0"
           style="fill:none;stroke:#006b00;stroke-width:1.25;stroke-linecap:round" />
        <path
           d="m 526.31,172.12 c 0,0 0.91,9.8 -11.33,6.13"
           transform="matrix(0.53397,0,0,0.56928,-112.64,207.32)"
           id="path142"
           inkscape:connector-curvature="0"
           style="fill:none;stroke:#006b00;stroke-width:1.25;stroke-linecap:round" />
        <path
           d="m 511.3,128.04 c 0,0 -4.9,4.28 -3.06,10.1"
           transform="matrix(0.53397,0,0,0.56928,-112.64,207.32)"
           id="path144"
           inkscape:connector-curvature="0"
           style="fill:none;stroke:#006b00;stroke-width:1.25;stroke-linecap:round" />
        <path
           d="m 529.67,117.32 c 0,0 6.43,-2.45 7.66,-3.68 1.22,-1.22 3.37,-3.67 3.98,-5.51 0.61,-1.83 -4.29,-4.59 -1.84,-8.569 1.53,-1.837 3.67,-2.143 7.35,0 3.67,2.139 -3.37,-6.735 -7.04,-7.041 -3.68,-0.307 -6.13,2.449 -7.04,1.836 -0.92,-0.612 0.3,2.45 -1.23,2.45 -1.53,0 3.06,2.449 2.76,3.984 -0.31,1.53 4.89,6.73 4.59,7.96 -0.31,1.22 -7.66,8.26 -9.19,8.57 z"
           transform="matrix(0.53397,0,0,0.56928,-112.64,207.32)"
           id="path146"
           inkscape:connector-curvature="0"
           style="fill:#006b00;stroke-width:1.25;stroke-linecap:round" />
        <path
           d="m 534.27,97.112 c 2.79,-0.636 3.24,0.07 2.75,2.449 -1.31,-0.66 -1.79,-1.217 -2.75,-2.449 z"
           transform="matrix(0.53397,0,0,0.56928,-112.64,207.32)"
           id="path148"
           inkscape:connector-curvature="0"
           style="fill:#ffc900;stroke:#ffc900;stroke-width:1.25;stroke-linecap:round;stroke-linejoin:round" />
        <path
           d="m 514.71,233.52 c 0,0 -1.03,6.41 1.49,6.94 -0.13,-2.48 0.54,-4.17 1.16,-4.83 -0.54,-0.25 -2.53,-2.07 -2.65,-2.11 z"
           transform="matrix(0.53397,0,0,0.56928,-112.64,207.32)"
           id="path150"
           inkscape:connector-curvature="0"
           style="fill:#e80000;stroke:#006b00;stroke-width:1.25;stroke-linejoin:round" />
        <path
           d="m 509.03,225.63 c -2.32,-0.33 -6.23,1.59 -5.11,3.91 1.89,-1.62 3.63,0.13 4.95,-1.52 0.4,-0.46 0.29,-1.81 0.16,-2.39 z"
           transform="matrix(0.53397,0,0,0.56928,-112.64,207.32)"
           id="path152"
           inkscape:connector-curvature="0"
           style="fill:#e80000;stroke:#006b00;stroke-width:1.25;stroke-linejoin:round" />
        <path
           d="m 509.01,221.05 c 0,0 -3.65,-0.58 -4.16,1.95 2.52,-0.32 3.27,-0.59 4.11,-0.06 0.24,-0.54 0.01,-1.76 0.05,-1.89 z"
           transform="matrix(0.53397,0,0,0.56928,-112.64,207.32)"
           id="path154"
           inkscape:connector-curvature="0"
           style="fill:#e80000;stroke:#006b00;stroke-width:1.25;stroke-linejoin:round" />
        <path
           d="m 493.54,184.94 c 0,0 2.19,0.82 2.81,3.06 1.74,-1.08 2.57,-5.83 -2.81,-3.06 z"
           transform="matrix(0.53397,0,0,0.56928,-112.64,207.32)"
           id="path156"
           inkscape:connector-curvature="0"
           style="fill:#e80000;stroke:#006b00;stroke-width:1pt;stroke-linejoin:round" />
        <path
           d="m 488.12,190.39 c 0.09,-0.04 4.59,-2.77 5.05,-0.16 -0.95,0.95 -1.37,1.57 -2.11,1.78 -0.58,0 -1.74,-1.78 -2.94,-1.62 z"
           transform="matrix(0.53397,0,0,0.56928,-112.64,207.32)"
           id="path158"
           inkscape:connector-curvature="0"
           style="fill:#e80000;stroke:#006b00;stroke-width:1pt;stroke-linejoin:round" />
        <path
           d="m 487.67,199.24 c 0.08,-0.04 2.89,-2.52 3.97,-0.87 1.07,1.66 -0.87,1.57 -0.87,1.57 0,0 -0.99,-0.45 -3.1,-0.7 z"
           transform="matrix(0.53397,0,0,0.56928,-112.64,207.32)"
           id="path160"
           inkscape:connector-curvature="0"
           style="fill:#e80000;stroke:#006b00;stroke-width:1pt;stroke-linejoin:round" />
        <path
           d="m 483.7,149.96 c -0.04,0 -3.6,-1.37 -5.09,1.11 2.36,0.29 3.19,1.12 4.26,1.95 -0.29,-1.04 -0.78,-2.61 0.83,-3.06 z"
           transform="matrix(0.53397,0,0,0.56928,-112.64,207.32)"
           id="path162"
           inkscape:connector-curvature="0"
           style="fill:#e80000;stroke:#006b00;stroke-width:1pt;stroke-linejoin:round" />
        <path
           d="m 476.8,168.52 c 0,0 0.16,-4.17 2.14,-5.87 1.12,0.62 1.45,1.61 2.2,2.85 -1.49,0.33 -3.48,0.42 -4.34,3.02 z"
           transform="matrix(0.53397,0,0,0.56928,-112.64,207.32)"
           id="path164"
           inkscape:connector-curvature="0"
           style="fill:#e80000;stroke:#006b00;stroke-width:1pt;stroke-linejoin:round" />
        <path
           d="m 486.3,165.54 c 0,0 -3.92,1.82 -2.64,3.81 1.28,-1.37 2.69,-0.95 2.69,-0.99 0,-0.04 0,-2.77 -0.05,-2.82 z"
           transform="matrix(0.53397,0,0,0.56928,-112.64,207.32)"
           id="path166"
           inkscape:connector-curvature="0"
           style="fill:#e80000;stroke:#006b00;stroke-width:1pt;stroke-linejoin:round" />
        <path
           d="m 480.64,125.6 c -1.41,1.58 1.74,5.01 5.04,4.51 0.83,-3.72 -4.21,-5.66 -5.04,-4.51 z"
           transform="matrix(0.53397,0,0,0.56928,-112.64,207.32)"
           id="path168"
           inkscape:connector-curvature="0"
           style="fill:#ffc900;stroke:#006b00;stroke-width:1pt;stroke-linejoin:round" />
        <path
           d="m 480.6,118.41 c -0.69,1.75 2.05,4.21 3.64,3.52 0.64,-1.8 -2.92,-4.91 -3.64,-3.52 z"
           transform="matrix(0.53397,0,0,0.56928,-112.64,207.32)"
           id="path170"
           inkscape:connector-curvature="0"
           style="fill:none;stroke-width:1pt;stroke-linejoin:round" />
        <path
           d="m 484.28,122.75 c 0,0 0.62,2.94 3.47,2.15 -0.45,-2.27 -2.44,-3.97 -2.44,-3.97 -0.12,0.67 0.41,1.7 -1.03,1.82 z"
           transform="matrix(0.53397,0,0,0.56928,-112.64,207.32)"
           id="path172"
           inkscape:connector-curvature="0"
           style="fill:#e80000;stroke:#006b00;stroke-width:1pt;stroke-linejoin:round" />
        <path
           d="m 486.18,131.27 c 0,0 1.57,1.69 4.67,-1.78 -1.4,0.41 -3.88,-0.83 -3.88,-0.83 0,0 0,2.4 -0.79,2.61 z"
           transform="matrix(0.53397,0,0,0.56928,-112.64,207.32)"
           id="path174"
           inkscape:connector-curvature="0"
           style="fill:#e80000;stroke:#006b00;stroke-width:1pt;stroke-linejoin:round" />
        <path
           d="m 480.46,118.86 c -1.4,1.57 0.59,3.76 3.89,3.27 0.83,-3.72 -3.06,-4.42 -3.89,-3.27 z"
           transform="matrix(0.53397,0,0,0.56928,-112.64,207.32)"
           id="path176"
           inkscape:connector-curvature="0"
           style="fill:#ffc900;stroke:#006b00;stroke-width:1pt;stroke-linejoin:round" />
        <path
           d="m 144.62,266.62 c 0,0 7.04,-2.01 10.78,1.01 3.73,3.01 3.73,0.28 3.73,0.28 0,0 5.46,2.01 7.04,1.58 1.58,-0.43 -1.15,0.15 1,-1.15 2.16,-1.29 -4.31,0.29 -4.88,-2.44 -1.01,-1.72 0.14,-3.88 -2.15,-3.16 -1.58,-2.01 1,-3.44 0.43,-5.6 -1.58,1.15 -2.45,-0.43 -3.74,2.44 -3.01,-0.57 -0.43,-4.74 -3.73,-5.17 0,3.02 -2.44,3.16 -2.59,4.89 -1.43,1 -7.75,4.74 -5.89,7.32 z"
           id="path178"
           style="fill:url(#linearGradient748)"
           inkscape:connector-curvature="0" />
        <path
           d="m 63.624,495.58 c 4.566,-1.1 29.306,5.47 38.846,15.69 -2.03,-18.21 -7.072,-32.16 -7.072,-32.16 0,0 -14.743,-4.21 -16.767,-2.18 -2.968,3.12 -11.883,12.49 -15.007,18.65 z"
           id="path180"
           inkscape:connector-curvature="0"
           style="fill:#c01500;stroke:#000000;stroke-width:1pt" />
        <path
           d="m 56.082,411.46 c -1.734,0.29 -3.469,1.45 -5.203,4.34 -2.024,4.91 -3.469,17.34 -6.36,20.23 -2.891,2.89 -5.493,3.18 -5.493,5.79 0,2.6 0.29,8.67 8.095,10.98 7.805,0.29 20.236,-12.43 20.236,-12.43 0,0 6.36,-6.94 8.961,-14.45 -15.032,5.2 -25.728,-8.68 -20.236,-14.46 z"
           id="path182"
           inkscape:connector-curvature="0"
           style="fill:#c01500;stroke:#000000;stroke-width:1pt" />
        <path
           d="m 273.49,492.68 c -4.53,-1.09 -29.55,5.44 -39.02,15.6 2.01,-18.1 7.02,-31.98 7.02,-31.98 1.75,-0.47 14.47,-4.18 16.48,-2.16 2.94,3.1 12.42,12.42 15.52,18.54 z"
           id="path184"
           inkscape:connector-curvature="0"
           style="fill:#c01500;stroke:#000000;stroke-width:0.99322996pt" />
        <path
           d="m 280.5,409.05 c 1.72,0.29 2.33,2.55 3.74,5.43 2,4.88 4.07,12 6.94,14.87 2.87,2.88 5.45,7.13 5.45,9.72 0,2.59 -0.6,6.08 -8.35,8.38 -7.74,0.29 -18.97,-9.66 -18.97,-9.66 0,0 -6.31,-6.89 -8.89,-14.37 14.92,5.18 24.58,-8.14 20.08,-14.37 z"
           id="path186"
           inkscape:connector-curvature="0"
           style="fill:#c01500;stroke:#000000;stroke-width:0.99322996pt" />
        <path
           d="m 47.41,479.69 c 0,0 15.61,10.69 15.9,15.61 41.92,-62.16 148.88,-81.53 209.87,-4.34 8.1,-10.7 16.48,-14.16 16.48,-14.16 -64.17,-83.84 -191.95,-73.43 -242.25,2.89 z"
           id="path188"
           inkscape:connector-curvature="0"
           style="fill:#ffbb00;stroke:#000000;stroke-width:1pt" />
        <g
           transform="translate(-7.1526e-6,4.5776e-5)"
           id="g190"
           style="fill:#1e5aa6;stroke:#000000;stroke-width:1pt">
          <path
             d="m 206.44,241.88 6.11,-0.15 -10.91,13.82 13.09,15.28 -25.75,32.44 24.3,29.24 c -2.67,6.55 -5.77,12.51 -9.9,17.9 l -13.96,-15.43 25.31,-31.56 -20.8,-23.57 12.51,-37.97 z"
             id="path192"
             inkscape:connector-curvature="0" />
          <path
             d="m 119.15,244.64 -6.55,0.15 12.22,13.23 -12.94,16.15 26.91,29.25 -22.26,29.82 c 2.67,6.55 6.5,13.82 10.62,19.2 l 13.24,-16.73 -27.2,-30.26 19.93,-25.31 -13.97,-35.5 z"
             id="path194"
             inkscape:connector-curvature="0" />
          <path
             d="m 149.41,323.2 -9.6,12.8 34.33,39.72 c 6.06,-3.06 10.82,-6.55 16.01,-10.76 l -17.9,-20.66 7.28,-21.39 10.47,12.07 -32.73,41.76 c -5.48,-2.33 -11.54,-5.97 -17.02,-10.48 l 17.31,-21.96 -8.15,-21.1 z"
             id="path196"
             inkscape:connector-curvature="0" />
          <path
             d="m 138.79,303.27 6.26,7.86 -4.08,-10.62 -2.18,2.76 z"
             id="path198"
             inkscape:connector-curvature="0" />
          <path
             d="m 183.6,310.22 c 0.13,-0.15 5.05,-6.7 5.05,-6.7 l -1.91,-2.61 -3.14,9.31 z"
             id="path200"
             inkscape:connector-curvature="0"
             style="stroke-width:0.96849003pt" />
        </g>
        <g
           font-size="14px"
           font-weight="bold"
           line-height="100%"
           id="g202"
           style="font-weight:bold;font-size:14px;line-height:100%;font-family:Timmons">
          <text
             y="362.39716"
             x="-328.34363"
             transform="matrix(0.64869125,-0.76105168,0.76105168,0.64869125,0,0)"
             id="text204">
            <tspan
               y="362.39716"
               x="-328.34363"
               id="tspan206">L</tspan>
          </text>
          <text
             y="384.26642"
             x="-292.33514"
             transform="matrix(0.70225246,-0.711928,0.711928,0.70225246,0,0)"
             id="text208">
            <tspan
               y="384.26642"
               x="-292.33514"
               id="tspan210">E</tspan>
          </text>
          <text
             y="451.6806"
             x="-239.78038"
             transform="matrix(0.7628,-0.54464,0.56769,0.75422,0,0)"
             id="text212">
            <tspan
               y="451.6806"
               x="-239.78038"
               id="tspan214">O</tspan>
          </text>
          <text
             y="429.95776"
             x="-188.5262"
             transform="matrix(0.82844,-0.56007,0.56007,0.82844,0,0)"
             id="text216">
            <tspan
               y="429.95776"
               x="-188.5262"
               id="tspan218">T</tspan>
          </text>
          <text
             y="451.47876"
             x="-115.42612"
             transform="matrix(0.90221678,-0.43128284,0.43128284,0.90221678,0,0)"
             id="text220">
            <tspan
               y="451.47876"
               x="-115.42612"
               id="tspan222">E</tspan>
          </text>
          <text
             y="453.04584"
             x="-94.110794"
             transform="matrix(0.91363062,-0.4065453,0.4065453,0.91363062,0,0)"
             id="text224">
            <tspan
               y="453.04584"
               x="-94.110794"
               id="tspan226">R</tspan>
          </text>
          <text
             y="454.98212"
             x="-68.37056"
             transform="matrix(0.92776463,-0.37316591,0.37316591,0.92776463,0,0)"
             id="text228">
            <tspan
               y="454.98212"
               x="-68.37056"
               id="tspan230">R</tspan>
          </text>
          <text
             y="445.66595"
             x="112.01579"
             transform="matrix(0.99654727,-0.08302736,0.08302736,0.99654727,0,0)"
             id="text232">
            <tspan
               y="445.66595"
               x="112.01579"
               id="tspan234">R</tspan>
          </text>
          <text
             y="430.7926"
             x="180.22531"
             transform="matrix(0.99988827,0.01494801,-0.01494801,0.99988827,0,0)"
             id="text236">
            <tspan
               y="430.7926"
               x="180.22531"
               id="tspan238">R</tspan>
          </text>
          <text
             y="275.21735"
             x="414.75919"
             transform="matrix(0.86910672,0.49462461,-0.49462461,0.86910672,0,0)"
             id="text240">
            <tspan
               y="275.21735"
               x="414.75919"
               id="tspan242">R</tspan>
          </text>
          <text
             y="193.05025"
             x="483.87762"
             transform="matrix(0.76826118,0.64013652,-0.64013652,0.76826118,0,0)"
             id="text244">
            <tspan
               y="193.05025"
               x="483.87762"
               id="tspan246">E</tspan>
          </text>
          <text
             y="414.02829"
             x="309.11557"
             transform="matrix(0.96356,0.18112,-0.15531,0.95184,0,0)"
             id="text248">
            <tspan
               y="414.02829"
               x="309.11557"
               id="tspan250">O</tspan>
          </text>
          <text
             y="459.27182"
             x="105.05786"
             transform="matrix(0.90188,-0.1316,0.13648,0.975,0,0)"
             id="text252">
            <tspan
               y="459.27182"
               x="105.05786"
               id="tspan254">O</tspan>
          </text>
          <text
             y="455.83463"
             x="-45.707756"
             transform="matrix(0.93793737,-0.34680469,0.34680469,0.93793737,0,0)"
             id="text256">
            <tspan
               y="455.83463"
               x="-45.707756"
               id="tspan258">A</tspan>
          </text>
          <text
             y="144.72449"
             x="518.34955"
             transform="matrix(0.70468,0.70952,-0.70952,0.70468,0,0)"
             id="text260">
            <tspan
               y="144.72449"
               x="518.34955"
               id="tspan262">A</tspan>
          </text>
          <text
             y="388.29758"
             x="271.18784"
             transform="matrix(0.98042,0.19691,-0.19691,0.98042,0,0)"
             id="text264">
            <tspan
               y="388.29758"
               x="271.18784"
               id="tspan266">A</tspan>
          </text>
          <text
             y="455.1676"
             x="40.321587"
             transform="matrix(0.98279057,-0.18472329,0.18472329,0.98279057,0,0)"
             id="text268">
            <tspan
               y="455.1676"
               x="40.321587"
               id="tspan270">M</tspan>
          </text>
          <text
             y="448.07883"
             x="94.428757"
             transform="matrix(0.99463045,-0.10349042,0.10349042,0.99463045,0,0)"
             id="text272">
            <tspan
               y="448.07883"
               x="94.428757"
               id="tspan274">P</tspan>
          </text>
          <text
             y="437.60687"
             x="155.08846"
             transform="matrix(0.9996742,-0.02552441,0.02552441,0.9996742,0,0)"
             id="text276">
            <tspan
               y="437.60687"
               x="155.08846"
               id="tspan278">P</tspan>
          </text>
          <text
             y="276.66531"
             x="405.13382"
             transform="matrix(0.87036429,0.49240837,-0.49240837,0.87036429,0,0)"
             id="text280">
            <tspan
               y="276.66531"
               x="405.13382"
               id="tspan282">P</tspan>
          </text>
          <text
             y="409.79309"
             x="232.09538"
             transform="matrix(0.9934,0.11468,-0.11468,0.9934,0,0)"
             id="text284">
            <tspan
               y="409.79309"
               x="232.09538"
               id="tspan286">I</tspan>
          </text>
          <text
             y="132.08934"
             x="530.39215"
             transform="matrix(0.68726503,0.72640676,-0.72640676,0.68726503,0,0)"
             id="text288">
            <tspan
               y="132.08934"
               x="530.39215"
               id="tspan290">T</tspan>
          </text>
          <text
             y="218.51869"
             x="464.15771"
             transform="matrix(0.80056406,0.59924718,-0.59924718,0.80056406,0,0)"
             id="text292">
            <tspan
               y="218.51869"
               x="464.15771"
               id="tspan294">T</tspan>
          </text>
          <text
             y="361.96112"
             x="313.72498"
             transform="matrix(0.95925482,0.28254237,-0.28254237,0.95925482,0,0)"
             id="text296">
            <tspan
               y="361.96112"
               x="313.72498"
               id="tspan298">M</tspan>
          </text>
          <text
             y="123.24773"
             x="513.7041"
             transform="matrix(0.67352871,0.73916106,-0.73916106,0.67352871,0,0)"
             id="text300">
            <tspan
               y="123.24773"
               x="513.7041"
               id="tspan302">G</tspan>
          </text>
        </g>
        <g
           id="g304"
           style="fill:none;stroke:#fff700;stroke-width:1pt;stroke-linecap:round">
          <path
             d="m 255.94,200.94 c 0,0 6.04,-5.17 10.34,-5.32"
             id="path306"
             inkscape:connector-curvature="0" />
          <path
             d="m 256.81,200.22 c 0.14,-0.14 36.05,-5.17 37.19,-6.32"
             id="path308"
             inkscape:connector-curvature="0" />
          <path
             d="m 256.95,200.51 c 0.14,-0.15 40.21,-3.45 40.21,-3.45"
             id="path310"
             inkscape:connector-curvature="0" />
          <path
             d="m 256.81,200.65 c 0,0 42.65,-2.01 45.24,0.15"
             id="path312"
             inkscape:connector-curvature="0" />
          <path
             d="m 256.66,200.51 c 0,0 41.8,0.29 42.52,1.29"
             id="path314"
             inkscape:connector-curvature="0" />
          <path
             d="m 256.81,200.51 40.21,3.3"
             id="path316"
             inkscape:connector-curvature="0" />
          <path
             d="m 256.38,200.8 c 0.14,0 40.93,3.59 44.95,8.76"
             id="path318"
             inkscape:connector-curvature="0" />
          <path
             d="m 303.48,216.88 c -0.14,-0.14 -13.93,-16.52 -47.25,-16.23"
             id="path320"
             inkscape:connector-curvature="0" />
          <path
             d="m 256.38,200.94 c 0,0 23.12,1.58 30.44,9.62"
             id="path322"
             inkscape:connector-curvature="0" />
          <path
             d="m 256.81,200.65 c 0,0 14.93,-2.87 30.59,15.95"
             id="path324"
             inkscape:connector-curvature="0" />
        </g>
        <path
           d="m 247.4,217.74 c 0,0 20.72,0.82 20.72,2.85 0,2.03 -15.44,5.89 -15.64,14.42 -0.2,8.53 11.78,9.14 12.59,19.9 0.81,10.77 -9.34,12.39 -11.37,15.24 -2.04,1.42 -6.91,16.65 -6.3,25.59 0.61,8.94 3.25,39.2 7.92,45.3 3.66,2.84 9.14,11.98 15.03,9.14 5.89,-2.85 1.83,-13.2 1.22,-16.05 -0.61,-2.84 2.44,-7.51 2.44,-11.78 0,-4.27 -2.24,-7.72 -2.03,-8.73 0.2,-1.02 16.45,3.86 15.43,19.9 -1.01,16.05 -7.51,11.17 -7.51,11.17 0,0 2.03,19.71 -3.05,22.35 -9.14,4.87 -15.84,-1.02 -15.84,-1.02 l 0.86,4.01 -6.95,-3.6 c 0,0 -8.94,-12.8 -10.97,-18.49 -2.03,-5.68 -4.47,-31.07 -3.66,-36.56 0.81,-5.48 1.42,-37.58 1.02,-39.2 -0.41,-1.63 -2.03,-28.44 -1.02,-32.5 1.02,-4.06 7.31,-21.94 7.11,-21.94 z"
           id="path326"
           style="fill:url(#linearGradient801);stroke:#000000;stroke-width:1pt"
           inkscape:connector-curvature="0" />
        <path
           d="m 225.06,212.46 c 0,0 14.42,-14.01 22.75,-12.39 4.26,0 0.2,3.05 0.2,3.05 0,0 7.31,0.61 8.33,3.86 0.2,1.42 -3.46,1.83 -3.46,1.83 0,0 3.05,0.61 3.25,3.25 0.21,2.64 -30.87,0.6 -31.07,0.4 z"
           id="path328"
           inkscape:connector-curvature="0"
           style="fill:#ff7000;stroke:#000000;stroke-width:1pt" />
        <path
           d="m 225.87,211.85 c 0,0 15.44,-2.03 21.94,-8.53"
           id="path330"
           inkscape:connector-curvature="0"
           style="fill:none;stroke:#000000;stroke-width:1pt" />
        <path
           d="m 241.51,207.59 c 0,0 11.37,-0.41 11.37,1.22"
           id="path332"
           inkscape:connector-curvature="0"
           style="fill:none;stroke:#000000;stroke-width:1pt" />
        <path
           d="m 281.93,373.74 c 0,0 9.75,-2.24 12.39,-5.69 1.63,-1.22 10.16,12.8 -12.39,5.69 z"
           id="path334"
           inkscape:connector-curvature="0"
           style="fill:#ffffff;stroke:#000000;stroke-width:1.25;stroke-linejoin:round" />
        <path
           d="m 279.29,293.1 c 0,0 1.22,7.52 -2.23,12.59 -1.83,2.03 -7.32,5.49 -7.32,7.93 0,2.43 2.03,5.68 1.63,8.53 -0.41,2.84 -3.45,5.69 -3.25,8.12 0,2.44 3.45,15.44 3.04,15.64"
           id="path336"
           inkscape:connector-curvature="0"
           style="fill:none;stroke:#ffffff;stroke-width:1.25;stroke-linecap:round" />
        <path
           d="m 261.42,268.73 c 0,0 -7.72,2.64 -9.35,10.36"
           id="path338"
           inkscape:connector-curvature="0"
           style="fill:none;stroke:#ffffff;stroke-width:1.25;stroke-linecap:round" />
        <path
           d="m 258.16,207.59 c 0,0 2.65,7.31 11.18,0.4 -5.49,-7.51 -11.18,-0.2 -11.18,-0.4 z"
           id="path340"
           inkscape:connector-curvature="0"
           style="fill:#c75b00;stroke:#000000;stroke-width:1pt" />
        <path
           d="m 264.87,206.47 c 0,0.39265 -0.40924,0.71095 -0.91405,0.71095 -0.50481,0 -0.91405,-0.3183 -0.91405,-0.71095 0,-0.39264 0.40924,-0.71094 0.91405,-0.71094 0.50481,0 0.91405,0.3183 0.91405,0.71094 z"
           transform="translate(-0.40625,0.8125)"
           id="path342"
           inkscape:connector-curvature="0" />
        <path
           d="m 188.41,190.62 c 0,0 16.18,17.51 26.65,17.32 1.9,5.14 -4.76,9.92 -7.42,12.2 -5.33,-1.71 -10.15,0.31 -22.52,-14.91 0.77,-9.71 3.48,-14.23 3.29,-14.61 z"
           id="path344"
           inkscape:connector-curvature="0"
           style="fill:#ffffff;stroke:#000000;stroke-width:1pt" />
        <path
           d="m 210.3,149.89 c 2.09,-6.47 6.28,-11.61 9.89,-12.18 -0.95,-4.95 7.62,-26.83 32.55,-35.21 1.52,11.23 -10.66,22.27 -10.66,22.27 0,0 36.73,-6.28 44.15,-15.61 -0.76,4.19 -8.18,30.26 -47.39,30.07 14.85,14.09 -4.75,25.32 -13.13,21.89 15.42,-11.8 -4.37,-18.84 -15.41,-11.23 z"
           id="path346"
           inkscape:connector-curvature="0"
           style="fill:#ffffff;stroke:#000000;stroke-width:1pt" />
        <path
           d="m 222.86,140.76 c 7.42,-4.76 10.08,-4.76 16.18,-3.81 -4.38,0.57 -4.38,0.76 -4.38,0.76 0,0 -0.38,0.57 2.28,3.05 -3.04,-0.77 -5.71,-2.48 -14.08,0 z"
           id="path348"
           inkscape:connector-curvature="0"
           style="fill:#cccccd;stroke:#cccccc;stroke-width:1pt" />
        <path
           d="m 220,137.71 c 0,0 14.66,-7.8 22.84,-13.13"
           id="path350"
           inkscape:connector-curvature="0"
           style="fill:none;stroke:#000000;stroke-width:1pt" />
        <path
           d="m 207.44,220.12 c 0,0 20.18,5.52 22.46,-23.41 -4.38,-12.56 -10.47,-39.59 -1.14,-47.39 -8.57,-5.9 -17.89,0.19 -17.89,0.19 -0.57,1.33 -8.19,12.18 2.09,31.21 -24.36,-6.47 -14.46,16.56 -14.46,16.56 0.95,-3.62 13.89,-7.04 17.13,11.42 1.33,4.57 -8.76,11.61 -8.19,11.42 z"
           id="path352"
           inkscape:connector-curvature="0"
           style="fill:#0000ff;stroke:#000000;stroke-width:1pt" />
        <path
           d="m 230.09,196.9 c 0,0 21.32,-11.42 20.74,-38.25 -18.08,0.38 -24.55,23.78 -24.55,23.78 l 3.81,14.47 z"
           id="path354"
           inkscape:connector-curvature="0"
           style="fill:#0000ff;stroke:#000000;stroke-width:1pt" />
        <path
           d="m 134.55,195.57 c 0,0 -15.79,13.7 -24.74,9.32 -6.66,4 -14.462,-3.04 -14.462,-3.04 0,0 9.132,33.68 41.872,9.32 -0.57,-7.42 -2.29,-15.03 -2.67,-15.6 z"
           id="path356"
           inkscape:connector-curvature="0"
           style="fill:#ffffff;stroke:#000000;stroke-width:1pt" />
        <path
           d="m 109.62,204.32 c 1.33,-7.04 6.85,-10.47 11.23,-3.81 5.9,1.15 11.8,-23.02 -9.14,-19.03 5.9,-31.59 -11.795,-43.39 -11.795,-43.39 0,0 -6.28,35.02 -3.426,41.49 2.855,6.47 -4.186,-11.99 -26.834,-17.13 -0.381,26.46 25.312,38.83 25.312,38.83 0,0 7.233,6.66 14.653,3.04 z"
           id="path358"
           inkscape:connector-curvature="0"
           style="fill:#0000ff;stroke:#000000;stroke-width:1pt" />
        <path
           d="m 111.71,181.29 c 0,0 -9.89,8.38 -7.61,19.8"
           id="path360"
           inkscape:connector-curvature="0"
           style="fill:none;stroke:#000000;stroke-width:1pt" />
        <path
           d="m 96.68,180.15 c 0,0 -2.284,8.18 2.664,19.79"
           id="path362"
           inkscape:connector-curvature="0"
           style="fill:none;stroke:#000000;stroke-width:1pt" />
        <path
           d="m 95.157,202.61 c 0,0 4.568,-7.42 14.463,2.09"
           id="path364"
           inkscape:connector-curvature="0"
           style="fill:none;stroke:#000000;stroke-width:1pt" />
        <path
           d="m 97.06,151.22 c 0,-0.19 -15.034,0 -6.09,15.23 -6.661,2.09 -21.505,-7.61 -11.228,-20.56 -33.686,-0.76 -47.389,-16.93 -47.389,-31.78 9.897,10.28 33.496,6.09 41.87,12.37 -10.277,-9.51 -8.184,-22.65 -8.184,-22.65 0,0 28.738,8.57 33.876,34.07 -1.713,4.95 -2.474,13.7 -2.855,13.32 z"
           id="path366"
           inkscape:connector-curvature="0"
           style="fill:#ffffff;stroke:#000000;stroke-width:1pt" />
        <path
           d="m 73.942,125.82 c 5.546,5.64 19.795,7.33 27.028,13.61"
           id="path368"
           inkscape:connector-curvature="0"
           style="fill:none;stroke:#000000;stroke-width:1pt" />
        <path
           d="m 80.503,142.47 c 0,0 11.797,-1.52 15.216,2.66 -4.616,0 -6.155,-1.14 -12.822,1.34 1.88,-0.96 1.367,-2.67 2.393,-2.67 1.026,0 -4.274,-1.33 -4.787,-1.33 z"
           id="path370"
           inkscape:connector-curvature="0"
           style="fill:#cccccd;stroke:#cccccc;stroke-width:0.94780999" />
        <path
           d="m 139.31,50.166 c 0,0 6.47,-5.71 13.51,-0.571 -3.18,9.507 -14.65,5.9 -14.65,5.9 0,0 0.38,4.758 -0.76,7.041 2.29,1.727 4.18,7.423 4.18,7.423 0,0 11.8,-2.855 14.28,2.284 4.52,-0.624 7.8,0 7.8,0 0,0 9.14,-2.284 12.37,-2.284 3.24,0 13.51,2.664 14.46,4.567 0.96,1.903 4.38,14.655 6.67,14.464 2.28,-0.19 -5.52,3.045 -7.62,-0.19 -2.09,-3.236 -1.52,4.187 -1.52,4.187 0,0 6.47,6.851 7.23,8.373 0.76,1.52 -3.99,13.89 -0.38,22.46 -3.17,0.29 -3.42,3.61 -3.42,3.61 -0.18,3.77 -4.95,4.76 -4.95,4.76 l -1.14,-5.14 -3.24,1.91 1.33,-4 c 0,0 4.38,-10.66 4.76,-14.08 0.38,-3.43 -4,-9.52 -7.42,-9.52 -3.43,0 -5.9,10.85 -5.9,10.85 0,0 -1.71,8.18 -1.14,8.94 0.57,0.76 -2.29,-2.66 -2.29,-2.66 0,0 -1.52,4.95 -2.66,6.47 -1.14,1.52 -3.62,2.09 -3.62,2.09 0,0 -1.71,-4.95 -1.14,-6.85 0.57,-1.9 9.33,-9.32 8.57,-14.65 -0.77,-5.33 0,-4 -0.2,-4.19 -0.19,-0.19 -4.56,-3.996 -4.75,-6.089 -0.19,-2.094 -5.71,2.664 -12.94,1.141 -2.22,3.868 -2.48,13.508 -2.48,13.508 0,0 -0.76,11.61 0.76,12.95 1.53,1.33 -3.8,4.18 -3.8,4.18 l -3.81,5.14 c 0,0 -1.33,-3.23 -1.33,-3.04 0,0.19 -2.67,1.9 -2.67,1.9 l 1.53,-3.81 c -0.1,-2.88 3.7,-10.75 3.7,-17.41 0,-6.66 0.48,-13.798 0.48,-13.798 0,0 -7.04,-0.381 -6.85,6.848 0.19,7.24 -1.71,7.62 -1.33,9.71 0.38,2.09 2.28,7.99 1.71,9.71 -0.57,1.71 -2.85,2.28 -2.85,2.28 l -0.57,0.95 c 0,0 -7.04,3.24 -6.85,4.57 0.19,1.33 -0.19,-3.81 -0.19,-3.81 l -0.39,-5.52 c 0,0 4.19,-2.66 4.19,-9.32 0,-6.66 -0.96,-7.61 -0.77,-9.13 0.19,-1.53 1.15,-7.05 0.96,-7.62 -0.19,-0.571 -3.99,1.522 -5.14,1.522 -1.14,0 2.1,-3.996 2.48,-6.851 0.38,-2.855 -3.81,2.664 -7.23,-0.571 1.59,-3.514 3.99,-4.568 4.37,-7.232 0.38,-2.664 -2.66,2.284 -5.33,0.381 0.22,-2.554 2.86,-4.758 2.86,-4.758 0,0 -2.17,-0.266 -3.05,0 -1.71,-0.571 1.91,-3.236 2.1,-7.042 0.19,-3.806 -2.1,-5.329 -2.1,-5.519 0,-0.19 -3.8,-3.426 -4.37,-4.758 -0.57,-1.332 -0.57,-2.855 -0.57,-2.855 0,0 -6.29,4.568 -13.71,-5.138 6.8,-5.803 14.09,-1.523 14.09,-1.523 0,0 1.9,-5.329 10.65,-4.948 8.76,0.381 10.47,5.329 10.09,4.758 z"
           id="path372"
           inkscape:connector-curvature="0"
           style="fill:#923f00;stroke:#000000;stroke-width:1pt" />
        <path
           d="m 187.19,148.61 c 0.15,0 16.16,0.48 16.32,9.04 0.16,8.55 -4.91,6.34 -5.07,6.34 -0.16,0 -11.73,-1.43 -11.73,-1.43 l 0.48,-13.95 z"
           id="path374"
           inkscape:connector-curvature="0"
           style="fill:#0000ff;stroke:#000000;stroke-width:1pt" />
        <path
           d="m 171.65,146.23 c 0,0 19.97,-0.15 18.86,8.56 -1.11,8.72 -6.18,6.98 -6.18,6.98 l -9.67,-0.8 -3.01,-14.74 z"
           id="path376"
           inkscape:connector-curvature="0"
           style="fill:#fffeff;stroke:#000000;stroke-width:1pt" />
        <path
           d="m 160.4,145.28 11.57,0.95 c 0,0 6.97,0.95 6.66,7.61 -0.32,6.66 -7.14,6.82 -7.14,6.82 l -11.25,-0.64 0.16,-14.74 z"
           id="path378"
           inkscape:connector-curvature="0"
           style="fill:#0000ff;stroke:#000000;stroke-width:1pt" />
        <path
           d="m 133.3,148.61 c -0.16,0 -16.17,0.48 -16.33,9.04 -0.15,8.55 4.92,6.34 5.08,6.34 0.16,0 11.73,-1.43 11.73,-1.43 l -0.48,-13.95 z"
           id="path380"
           inkscape:connector-curvature="0"
           style="fill:#ffffff;stroke:#000000;stroke-width:1pt" />
        <path
           d="m 148.83,146.23 c 0,0 -19.97,-0.15 -18.86,8.56 1.11,8.72 6.18,6.98 6.18,6.98 l 9.67,-0.8 3.01,-14.74 z"
           id="path382"
           inkscape:connector-curvature="0"
           style="fill:#0000ff;stroke:#000000;stroke-width:1pt" />
        <path
           d="m 160.09,145.28 -11.57,0.95 c 0,0 -6.98,0.95 -6.66,7.61 0.32,6.66 7.13,6.82 7.13,6.82 l 11.25,-0.64 -0.15,-14.74 z"
           id="path384"
           inkscape:connector-curvature="0"
           style="fill:#ffffff;stroke:#000000;stroke-width:1pt" />
        <path
           d="m 191.07,241.51 c 0,0 8.32,-12.26 11.83,-10.95 3.06,1.02 0.73,10.51 -0.73,11.39 l -11.1,-0.44 z"
           id="path386"
           inkscape:connector-curvature="0"
           style="fill:#5e0043;stroke:#000000;stroke-width:1pt" />
        <path
           d="m 134.04,243.7 c -2.62,-3.65 -6.42,-13.72 -9.92,-10.95 -3.07,1.02 -0.73,10.51 0.73,11.39 l 9.19,-0.44 z"
           id="path388"
           inkscape:connector-curvature="0"
           style="fill:#5e0043;stroke:#000000;stroke-width:1pt" />
        <path
           d="m 139.55,219.45 c 0,0 16.21,9.99 21.53,10.25 5.32,0.26 22.18,-12.97 22.18,-12.97"
           id="path390"
           inkscape:connector-curvature="0"
           style="fill:none;stroke:#000000;stroke-width:1pt" />
        <path
           d="m 141.11,180.29 3.11,-3.89 15.57,7.91 15.82,-7.01 3.11,3.25 -17.64,12.45 -19.97,-12.71 z"
           id="path392"
           inkscape:connector-curvature="0"
           style="fill:#5e0043;stroke:#000000;stroke-width:1pt" />
        <path
           d="m 128.75,180.08 c 1.26,1.59 11.32,13.82 13.14,23.94 1.81,10.12 -1.04,-13.88 -1.04,-13.88 0,0 12.45,6.1 12.84,9.99 0.39,3.89 5.95,-0.26 6.22,-0.93 l -36.05,-23.41 4.89,4.29 z"
           id="path394"
           inkscape:connector-curvature="0"
           style="fill:#474747;stroke:#474747;stroke-width:1.25;stroke-linejoin:round" />
        <path
           d="m 190.26,179.38 c 0,0 -13.1,17.25 -11.54,36.05 -2.7,-9 -0.52,-23.86 -0.52,-23.86 l -2.85,1.82 c 0,0 -2.98,12.71 -6.75,14.65 -0.63,-1.51 -0.51,-2.07 -0.51,-2.07 0,0 -4.02,5.18 -4.8,5.7 -0.78,0.52 0.26,17.51 0.26,17.51 0,0 1.35,12.32 2.9,12.19 -1.77,0.86 -3.94,2.21 -3.94,2.21 l -1.61,-32.88 3.68,-3.7 c 0,0 4.93,-5.96 5.32,-11.8 -2.14,1.82 -4.54,2.34 -4.54,2.34 0,0 -0.65,8.3 -2.59,9.46 -1.95,1.17 -2,3.34 -2,3.34 l -0.46,-10.85 29.95,-20.11 z"
           id="path396"
           inkscape:connector-curvature="0"
           style="fill:#474747;stroke:#474747;stroke-width:1.25;stroke-linejoin:round" />
        <path
           d="m 160.3,199.35 2.54,51.87"
           id="path398"
           inkscape:connector-curvature="0"
           style="fill:none;stroke:#000000;stroke-width:1.25;stroke-linecap:round" />
        <path
           d="m 128.4,224.12 c 0,0 5.96,3.51 8.17,14.14 19.45,-1.43 25.55,5.45 25.55,5.45 0,0 15.95,-7.65 23.35,-6.23 2.59,-5.44 9.98,-12.45 9.98,-12.45"
           id="path400"
           inkscape:connector-curvature="0"
           style="fill:none;stroke:#000000;stroke-width:1pt" />
        <path
           d="m 120.26,173.28 40.04,26.2 36.06,-24.25 c 0,0 7.52,-4.15 6.87,-7.13 -0.64,-2.99 -3.24,-1.82 -4.54,-1.3 -1.29,0.52 -37.74,26.33 -37.74,26.33 l -38.78,-24.52 c 0,0 -2.85,-0.9 -3.37,0.91 -0.52,1.82 1.07,2.85 1.46,3.76 z"
           id="path402"
           inkscape:connector-curvature="0"
           style="fill:#b4b6b9;stroke:#000000;stroke-width:1pt" />
        <path
           d="m 191.87,166.48 c 0,0 -10.25,-4.35 -10.25,-0.58 0,3.76 0.29,4.15 1.94,6.57 1.64,2.41 -1.26,3.96 -1.26,3.96 0,0 -0.39,-1.06 -0.97,-2.71 -0.58,-1.64 -6.09,-2.8 -6.57,-4.73 -0.48,-1.94 1.16,-5.03 -2.13,-5.41 -3.28,-0.39 -6.47,1.35 -7.15,5.12 -0.68,3.77 -4.93,12.56 -4.93,12.56 l 0.58,-20 c 7.22,0.51 20.62,2.09 30.93,3.28 -3.09,-0.48 1.16,0.2 1.07,1.26 -0.29,0.87 -1.36,0.96 -1.26,0.68 z"
           id="path404"
           inkscape:connector-curvature="0"
           style="fill:#474747;stroke:#474747;stroke-width:1.25;stroke-linejoin:round" />
        <path
           d="m 155.62,161.45 c -1.83,0 -11.02,1.06 -13.34,2.42 -2.32,1.35 3.77,3.47 3,5.31 -0.77,1.84 -0.87,5.51 -3.77,4.74 -2.9,-0.78 -12.66,-5.61 -12.95,-7.25 -0.29,-1.64 -2.32,-1.74 -2.32,-1.74 0,0 28.03,-3.77 29.38,-3.48 z"
           id="path406"
           inkscape:connector-curvature="0"
           style="fill:#474747;stroke:#474747;stroke-width:1.25;stroke-linejoin:round" />
        <path
           d="m 160.04,159.15 -0.07,24.58"
           id="path408"
           inkscape:connector-curvature="0"
           style="fill:none;stroke:#000000;stroke-width:1pt" />
        <path
           d="m 141.11,130.19 c 0,0 -11.23,18.23 -11.45,18.79"
           id="path410"
           inkscape:connector-curvature="0"
           style="fill:none;stroke:#000000;stroke-width:1pt" />
        <path
           d="m 161.8,129.74 c 0,0 4.89,6.67 4.33,8.56 2,1.56 4.23,7.79 4.23,7.79"
           id="path412"
           style="fill:url(#linearGradient746);stroke:#000000;stroke-width:1pt"
           inkscape:connector-curvature="0" />
        <path
           d="m 180.7,128.63 c 0,0 -10.56,14.9 -10.23,16.01"
           id="path414"
           inkscape:connector-curvature="0"
           style="fill:none;stroke:#000000;stroke-width:1pt" />
        <path
           d="m 126.5,56.748 c 0,0.79388 -1.1339,1.4375 -2.5327,1.4375 -1.3988,0 -2.5327,-0.64357 -2.5327,-1.4375 0,-0.79388 1.1339,-1.4375 2.5327,-1.4375 1.3988,0 2.5327,0.64357 2.5327,1.4375 z"
           transform="matrix(1.0161,0.31118,-0.30126,1.0495,15.15,-41.141)"
           id="path416"
           inkscape:connector-curvature="0" />
        <path
           d="m 126.5,56.748 c 0,0.79388 -1.1339,1.4375 -2.5327,1.4375 -1.3988,0 -2.5327,-0.64357 -2.5327,-1.4375 0,-0.79388 1.1339,-1.4375 2.5327,-1.4375 1.3988,0 2.5327,0.64357 2.5327,1.4375 z"
           transform="matrix(-1.0161,0.31118,0.30126,1.0495,242.3,-41.435)"
           id="path418"
           inkscape:connector-curvature="0" />
        <path
           d="m 254.49,366.13 c 0,0 -3.92,0.74 -3.79,1.1 0.12,0.37 -11.39,0.74 -11.63,0.37 -0.25,-0.37 -1.72,1.96 -1.72,1.96 l 1.84,-1.1 c 0,0 2.81,2.93 3.67,2.69 0.86,-0.24 -0.37,1.1 -0.12,1.35 0.24,0.24 1.1,-0.49 1.1,-0.49 l 19.02,-0.32 -8.37,-5.56 z"
           id="path420"
           inkscape:connector-curvature="0"
           style="fill:#ff7000;stroke:#000000;stroke-width:1pt;stroke-linejoin:round" />
        <path
           d="m 261.58,372.05 -15.54,0.45 c 0,0 -3.91,3.55 -4.16,4.4 -0.24,0.86 2.57,1.1 2.57,1.1 l 0.86,2.94 1.96,-0.73 c 0,0 13.21,1.96 25.34,-0.74 6.12,-2.14 7.19,-4.71 2.9,-6.27 -4.28,-1.56 -13.81,-1.09 -13.93,-1.15 z"
           id="path422"
           inkscape:connector-curvature="0"
           style="fill:#ff7000;stroke:#000000;stroke-width:1.25;stroke-linejoin:round" />
        <path
           d="m 208.37,403.93 27.97,-1.25 -5.21,-4.42 75.65,-3.05 -2.61,-6.01 -84.7,3.4 10.19,4.76 -22.88,0.68 0.68,2.38 -6,-0.23 c 0,0 6.68,2.6 6.91,3.74 z"
           id="path424"
           style="fill:url(#linearGradient794);stroke:#000000;stroke-width:1pt"
           inkscape:connector-curvature="0" />
        <path
           d="m 239.73,249.42 c -2.23,-1.11 -12,-2.44 -22.89,4.67 l 0.45,25.11 c 0,0 15.99,-8.67 23.77,-6.67 -0.45,-7.78 -0.45,-17.77 -1.33,-23.11 z"
           id="path426"
           style="fill:url(#linearGradient800);stroke:#000000;stroke-width:1pt"
           inkscape:connector-curvature="0" />
        <g
           id="g428"
           style="fill:none;stroke:#000000;stroke-width:1pt">
          <path
             d="M 85.074,325.65 19.118,391.13"
             id="path430"
             inkscape:connector-curvature="0" />
          <path
             d="m 114.47,326.13 -53.532,70.5"
             id="path432"
             inkscape:connector-curvature="0" />
          <path
             d="M 112.08,307.73 40.625,394.24"
             id="path434"
             inkscape:connector-curvature="0" />
          <path
             d="m 38.474,393.04 6.93,-8.12"
             id="path436"
             inkscape:connector-curvature="0" />
          <path
             d="M 125.7,351.22 97.978,389.46"
             id="path438"
             inkscape:connector-curvature="0" />
          <path
             d="M 96.783,394.48 97.5,409.05"
             id="path440"
             inkscape:connector-curvature="0" />
          <path
             d="m 138.36,364.6 -29.39,36.81"
             id="path442"
             inkscape:connector-curvature="0" />
          <path
             d="m 133.11,398.54 11.95,-19.6"
             id="path444"
             inkscape:connector-curvature="0" />
          <path
             d="m 137.65,375.12 -14.34,16.25"
             id="path446"
             inkscape:connector-curvature="0" />
          <path
             d="m 133.35,359.83 -9.8,11.94"
             id="path448"
             inkscape:connector-curvature="0" />
          <path
             d="m 120.68,342.38 c 0,0 -29.871,43.73 -29.393,47.32"
             id="path450"
             inkscape:connector-curvature="0" />
          <path
             d="m 117.57,336.65 c -0.71,0.47 -25.805,33.69 -25.805,33.69"
             id="path452"
             inkscape:connector-curvature="0" />
          <path
             d="m 90.331,380.85 -4.541,5.5"
             id="path454"
             inkscape:connector-curvature="0" />
          <path
             d="m 80.055,394.72 -6.93,9.08"
             id="path456"
             inkscape:connector-curvature="0" />
        </g>
        <path
           d="m 81.811,225 c 0,0 -2.024,6.36 0,9.54 2.023,3.18 14.743,28.91 14.743,28.91 0,0 8.676,-10.7 11.856,-10.99 3.18,-0.28 1.73,27.76 1.73,27.76 0,0 -5.2,4.91 -8.38,4.62 -3.182,-0.29 7.8,10.99 7.51,20.53 -0.29,9.54 -14.45,56.95 -19.654,57.81 -5.203,0.87 2.313,-8.67 2.024,-11.27 -0.289,-2.6 -1.735,-0.87 -2.891,-3.76 -1.156,-2.89 1.735,-7.23 1.156,-10.12 -0.578,-2.89 -3.18,-2.31 -3.469,-4.33 -0.289,-2.03 1.735,-2.6 1.446,-4.92 -0.289,-2.31 -3.469,-1.73 -3.18,-3.76 0.289,-2.02 0.578,-1.15 0.289,-4.91 -0.289,-3.76 -0.867,2.6 -4.047,2.89 -3.18,0.29 -5.782,7.52 -5.782,7.52 0,0 -6.36,8.96 -12.72,4.91 3.758,8.1 0.868,11.57 -0.578,11.85 -1.445,0.29 1.156,6.36 -2.313,6.65 -3.469,0.29 2.602,13.59 -1.445,14.75 4.336,2.02 0.867,4.62 0.867,4.62 0,0 -10.02,0.84 -7.805,13.88 C 21.681,376.77 7.227,358.85 7.516,340.64 c 0.2893,-18.22 6.071,-34.69 20.236,-40.76 4.047,-15.04 10.985,-31.23 10.985,-31.23 0,0 -1.156,-6.65 -0.289,-10.98 0.868,-4.34 4.915,-8.67 4.915,-8.67 0,0 -0.579,-10.41 -0.289,-15.61 0.289,-5.21 2.312,-7.52 2.601,-10.41 0.289,-2.89 -0.867,-17.64 2.024,-20.24 2.891,-2.6 8.383,-2.31 11.274,-4.04 2.891,-1.74 6.649,-4.92 10.407,-4.63 3.758,0.29 6.938,2.89 6.938,2.89 0,0 14.166,0 15.033,5.49 0.867,5.5 -2.891,7.52 -2.891,7.52 0,0 2.024,7.81 -6.649,15.03 z"
           id="path458"
           inkscape:connector-curvature="0"
           style="fill:#8a9396;stroke:#2b2b2b;stroke-width:1pt" />
        <path
           d="m 69.666,206.45 c 0,0.95295 -1.5933,1.7255 -3.5588,1.7255 -1.9655,0 -3.5588,-0.77251 -3.5588,-1.7255 0,-0.95295 1.5933,-1.7255 3.5588,-1.7255 1.9655,0 3.5588,0.77251 3.5588,1.7255 z"
           transform="matrix(0.87942,-0.47604,0.47604,0.87942,-90.31,56.579)"
           id="path460"
           inkscape:connector-curvature="0"
           style="fill:#cecfcf;stroke:#2b2b2b;stroke-width:1pt" />
        <path
           d="m 66.68,206.44 c 0,0.35596 -0.44597,0.64453 -0.99609,0.64453 -0.55013,0 -0.99609,-0.28857 -0.99609,-0.64453 0,-0.35597 0.44597,-0.64453 0.99609,-0.64453 0.55013,0 0.99609,0.28856 0.99609,0.64453 z"
           transform="matrix(1.0784,0,0,1.4848,-5.0735,-100.09)"
           id="path462"
           inkscape:connector-curvature="0" />
        <path
           d="m 87.971,216 c 0,0 3.511,15.68 -0.687,26.5"
           id="path464"
           inkscape:connector-curvature="0"
           style="fill:none;stroke:#2b2b2b;stroke-width:0.625" />
        <path
           d="m 89.051,209.14 c 0,0 6.85,9.06 5.966,20.33"
           id="path466"
           inkscape:connector-curvature="0"
           style="fill:none;stroke:#2b2b2b;stroke-width:0.625" />
        <path
           d="m 89.714,207.15 c 0.221,0 5.745,4.86 5.524,8.17"
           id="path468"
           inkscape:connector-curvature="0"
           style="fill:none;stroke:#2b2b2b;stroke-width:0.625" />
        <path
           d="m 91.04,205.16 c 0,0 3.757,2.65 4.64,5.3"
           id="path470"
           inkscape:connector-curvature="0"
           style="fill:none;stroke:#2b2b2b;stroke-width:0.625" />
        <path
           d="m 89.272,203.61 c 0,0 -13.479,21.88 -11.711,35.58"
           id="path472"
           inkscape:connector-curvature="0"
           style="fill:none;stroke:#000000;stroke-width:1pt" />
        <path
           d="m 90.156,202.95 c 0,0 -17.899,10.61 -21.213,45.3"
           id="path474"
           inkscape:connector-curvature="0"
           style="fill:none;stroke:#2b2b2b;stroke-width:0.625" />
        <path
           d="m 88.167,209.36 -7.071,5.3"
           id="path476"
           inkscape:connector-curvature="0"
           style="fill:none;stroke:#000000;stroke-width:1pt" />
        <path
           d="m 62.314,250.24 c 0,0 9.943,-41.32 27.621,-47.29"
           id="path478"
           inkscape:connector-curvature="0"
           style="fill:none;stroke:#2b2b2b;stroke-width:0.625" />
        <path
           d="m 96.785,264.16 c 0,0 9.505,-11.93 11.715,-11.49 2.21,0.44 1.54,27.62 1.54,27.62 0,0 -7.07,5.3 -8.61,5.08 -1.551,-0.22 7.95,12.82 7.73,17.68 -0.22,4.86 -0.44,4.86 -0.44,4.86 0,0 0,-2.87 -2.21,-7.51 -2.21,-4.64 -0.89,-9.95 -15.249,-21.66 -3.536,-7.29 7.071,4.42 9.279,2.65 2.21,-1.76 -3.976,-17.01 -3.755,-17.23 z"
           id="path480"
           inkscape:connector-curvature="0"
           style="fill:#2b2b2b;stroke:#2b2b2b;stroke-width:1pt" />
        <path
           d="m 79.893,196.96 c 0,0 -3.994,1.09 -4.539,2.72 -0.545,1.64 -2.905,3.27 -4.176,2.72 -1.271,-0.54 -3.632,-2.54 -3.632,-2.54"
           id="path482"
           inkscape:connector-curvature="0"
           style="fill:none;stroke:#2b2b2b;stroke-width:1pt" />
        <path
           d="m 57.196,210.94 c 0,0 -5.992,5.99 -3.086,6.72 2.905,0.72 5.992,-4.72 5.992,-4.72 0,0 0,9.26 2.542,7.8 2.542,-1.45 9.986,-6.71 9.986,-6.71 0,0 2.542,-0.19 3.087,0 0.545,0.18 6.9,5.62 11.076,3.63 -2.36,6.17 -5.084,6.9 -5.084,6.9 0,0 -4.358,5.63 -9.986,4.35 -5.629,-1.27 -7.082,-3.63 -7.082,-3.63 0,0 -4.721,0.37 -6.174,-1.81 -1.452,-2.18 -1.997,-3.45 -1.997,-3.45 0,0 -2.723,2.72 -3.45,1.45 -0.726,-1.27 0,-8.72 4.176,-10.53 z"
           id="path484"
           inkscape:connector-curvature="0"
           style="fill:#2b2b2b;stroke:#2b2b2b;stroke-width:1.25;stroke-linejoin:round" />
        <path
           d="m 91.151,202.59 c 0,0 -11.076,-3.27 -14.889,2.18 -3.813,5.44 -2.905,8.53 -0.908,9.07"
           id="path486"
           inkscape:connector-curvature="0"
           style="fill:none;stroke:#2b2b2b;stroke-width:1pt" />
        <path
           d="m 92.86,202.28 c 0,1.3059 -0.93488,2.3645 -2.0881,2.3645 -1.15322,0 -2.0881,-1.0586 -2.0881,-2.3645 0,-1.3059 0.93488,-2.3645 2.0881,-2.3645 1.15322,0 2.0881,1.0586 2.0881,2.3645 z"
           id="path488"
           inkscape:connector-curvature="0" />
        <path
           d="m 60.624,230.54 c 0,0 4.517,6.95 9.902,8.86 5.385,1.91 -3.735,3.56 -9.12,-0.08 -3.908,-5.3 -2.866,-9.12 -2.866,-9.12 0,0 1.042,-1.05 2.084,0.34 z"
           id="path490"
           inkscape:connector-curvature="0"
           style="fill:#2b2b2b;stroke:#2b2b2b;stroke-width:1pt" />
        <path
           d="m 99.275,271.54 c 0,0 -12.681,-17.63 -16.329,-18.59 -3.648,-0.95 2.779,-1.73 6.688,2 3.908,3.73 -1.042,-6.08 -1.042,-6.08 l 10.683,22.67 z"
           id="path492"
           inkscape:connector-curvature="0"
           style="fill:#2b2b2b;stroke:#2b2b2b;stroke-width:1pt" />
        <path
           d="m 59.409,373.42 c 4.863,-1.3 26.056,12.16 30.833,15.55 4.777,3.38 14.768,1.21 14.768,1.21 0,0 -4.61,2.78 -7.472,3.48 -2.866,0.69 8.512,0.69 8.512,0.69 0,0 -27.099,7.47 -54.632,-7.03 -2.519,-11.29 5.906,-13.81 7.991,-13.9 z"
           id="path494"
           inkscape:connector-curvature="0"
           style="fill:#2b2b2b;stroke:#2b2b2b;stroke-width:1.25;stroke-linejoin:round" />
        <path
           d="m 90.416,275.88 c 0,0 -3.561,-0.69 -5.385,-2.78 -1.824,-2.08 -4.43,-7.21 -7.122,-9.38 -2.693,-2.17 -16.155,-9.55 -21.019,-9.03 -4.864,0.52 -6.341,-0.52 -6.949,-1.13 -0.608,-0.61 -2.605,0.26 -2.258,2.78 0.348,2.52 -3.735,8.08 -2.258,10.68 1.476,2.61 8.425,13.2 9.815,13.55 1.389,0.35 0.521,6.17 0.521,6.17 0,0 6.166,6.25 7.73,6.6 1.563,0.35 3.126,1.48 2.953,2.95 -0.174,1.48 -6.775,9.56 -6.775,9.56 0,0 -7.122,3.73 -7.209,5.82 -0.087,2.08 1.737,6.42 7.383,7.81 5.645,1.39 20.845,0.26 21.627,-1.04 0.781,-1.3 1.997,-9.12 1.476,-9.9 -0.521,-0.78 -4.256,-3.13 -6.167,-2.78 -1.91,0.35 -3.647,1.91 -3.474,2.26 0.174,0.35 -2.692,1.82 -2.692,0.43 0,-1.39 5.645,-7.64 6.166,-7.12 0.522,0.52 8.512,1.3 9.989,5.3 1.476,3.99 1.476,6.86 5.645,6.43 4.169,-0.44 9.987,-4.26 10.507,-12.25 0.52,-7.99 -4.687,-13.38 -5.99,-14.16 -1.303,-0.78 -5.646,-3.39 -5.993,-4.6 -0.348,-1.22 -1.216,-5.21 -0.521,-6.17 z"
           id="path496"
           inkscape:connector-curvature="0"
           style="fill:#2b2b2b;stroke:#2b2b2b;stroke-width:1pt" />
        <path
           d="m 15.286,311.15 c 0,0 13.463,-3.48 16.937,-3.39 3.474,0.08 16.589,6.16 20.411,9.9 3.821,3.73 11.638,12.59 16.763,11.81 5.124,-0.78 6.601,-1.82 6.601,-1.82 L 74,331.47 c 0,0 -4.169,1.13 -6.253,0.61 -2.085,-0.52 -6.167,-1.83 -10.249,-5.82 -4.082,-4 -16.676,-14.77 -27.359,-13.99 -10.684,0.79 -16.85,11.3 -16.85,11.3 0,0 0.087,-5.13 0.521,-6.26 0.434,-1.13 -2.258,2.43 -2.258,2.43 l 3.734,-8.59 z"
           id="path498"
           inkscape:connector-curvature="0"
           style="fill:#2b2b2b;stroke:#2b2b2b;stroke-width:1pt" />
        <path
           d="m 64.88,321.57 c 0.087,0.08 3.388,0.95 8.946,0.95 5.559,0 8.512,-2.43 8.512,-2.43 l -0.347,-2.17 0.868,-3.04 c 0,0 4.256,4.34 4.169,5.21 -0.087,0.87 -1.737,1.22 -1.737,1.22 l -0.608,-2.09 -1.476,1.83 c 0,0 -8.078,6.42 -12.507,5.47 -4.43,-0.96 -8.512,-3.82 -7.383,-4.52 1.129,-0.69 1.737,-0.43 1.563,-0.43 z"
           id="path500"
           inkscape:connector-curvature="0"
           style="fill:#2b2b2b;stroke:#2b2b2b;stroke-width:1pt" />
        <path
           d="m 45.251,332.95 c 0,0 -4.864,-0.09 -7.035,0.95 -2.171,1.04 -2.953,2.35 -4.43,2.17 -1.476,-0.17 -2.605,-2.08 -2.171,-2.86 0.608,-1.22 3.474,-2.78 8.946,-2.35 5.472,0.44 4.69,2.09 4.69,2.09 z"
           id="path502"
           inkscape:connector-curvature="0"
           style="fill:#2b2b2b;stroke:#2b2b2b;stroke-width:1pt" />
        <path
           d="m 62.275,346.15 c 0,-0.26 -0.348,-7.12 -3.04,-9.9 -2.693,-2.78 -5.993,-2.78 -7.47,-2.44 -1.476,0.35 5.472,3.39 6.167,5.39 0.695,2 2.953,7.56 2.345,8.95 -0.608,1.38 -1.737,-3.91 -5.993,-5.39 -4.256,-1.48 -10.162,-0.69 -8.946,1.22 1.216,1.91 5.993,0.17 8.425,4.25 2.432,4.08 4.256,8.43 4.256,8.43 l 0.782,-2.96 2.171,-0.6 0.26,-5.65 1.043,-1.3 z"
           id="path504"
           inkscape:connector-curvature="0"
           style="fill:#2b2b2b;stroke:#2b2b2b;stroke-width:1pt" />
        <path
           d="m 58.801,368.38 -4.43,-8.86 c 0,0 -1.39,-5.64 -5.124,-7.21 -3.735,-1.56 -8.686,-1.3 -8.773,0.61 -0.087,1.91 7.991,4.34 8.512,5.39 0.521,1.04 0.261,2.78 -0.434,2.86 -0.695,0.09 -4.256,-1.3 -6.08,-0.87 -1.824,0.44 -2.866,2.78 -5.559,2.09 -2.692,-0.7 -4.951,-9.29 -3.908,-10.16 1.042,-0.87 -1.998,1.56 -2.606,-0.7 -0.608,-2.26 0.869,-9.29 -0.174,-10.16 -1.042,-0.87 -6.079,-3.91 -6.166,-4.52 -0.087,-0.6 0.26,-34.56 28.662,-6.42 -12.16,-14.42 -16.937,-12.86 -19.195,-12.94 -1.65,0 -12.681,0.95 -15.46,15.02 -2.78,14.07 -6.08,5.3 -6.08,5.3 0,0 -0.608,6.08 2.345,7.82 2.953,1.73 -1.39,6.77 -1.39,6.77 0,0 -5.2978,-12.94 -4.5161,-18.59 -1.0423,4.52 -0.9554,15.72 5.7321,27.97 7.817,8.25 15.2,15.9 34.829,24.49 10.336,-15.8 9.815,-17.71 9.815,-17.89 z"
           id="path506"
           inkscape:connector-curvature="0"
           style="fill:#2b2b2b;stroke:#2b2b2b;stroke-width:1.25;stroke-linejoin:round" />
        <path
           d="m 40.214,368.47 c 0,0 5.732,0.69 7.295,3.65 1.564,2.95 2.259,7.47 2.259,7.47 0.955,-1.91 1.389,-3.56 3.3,-4.95 1.911,-1.39 3.301,-1.57 3.214,-2.61 -0.087,-1.04 -6.08,-7.38 -9.12,-7.73 -3.04,-0.35 -8.338,3.3 -8.338,3.3 0,0 -0.955,1.39 1.39,0.87 z"
           id="path508"
           inkscape:connector-curvature="0"
           style="fill:#8a9396;stroke:#2b2b2b;stroke-width:1.25;stroke-linejoin:round" />
        <g
           id="g510"
           style="fill:none;stroke-width:1.25;stroke-linecap:round">
          <path
             d="m 53.307,383.41 c 0,0 14.856,6.77 39.324,7.21"
             id="path512"
             inkscape:connector-curvature="0"
             style="stroke:#8a9396" />
          <path
             d="m 102.9,314.45 c 0,0 -1.27,12.47 -10.861,37.07"
             id="path514"
             inkscape:connector-curvature="0"
             style="stroke:#2b2b2b" />
          <path
             d="m 100.99,322.12 c 0,0 -2.879,8.95 -10.869,15.66"
             id="path516"
             inkscape:connector-curvature="0"
             style="stroke:#2b2b2b;stroke-width:1pt;stroke-linecap:butt" />
        </g>
      </g>
    </g>
    <g
       transform="translate(2000.001,-158.85449)"
       id="g12810">
      <g
         id="g12672">
        <path
           inkscape:connector-curvature="0"
           id="path5058"
           d="m -1200,600.00079 a 40,40 0 0 1 -40,40 l 0,-20 a 20,20 0 0 0 20,-20 l 20,0 z"
           style="opacity:0.603;fill:url(#radialGradient6127);fill-opacity:1" />
        <rect
           ry="0"
           y="280.00079"
           x="-1220.0006"
           height="320"
           width="20.000637"
           id="rect6134"
           style="opacity:0.603;fill:url(#linearGradient6142);fill-opacity:1" />
        <rect
           y="620.00079"
           x="-1960"
           height="20"
           width="720"
           id="rect6144"
           style="opacity:0.603;fill:url(#linearGradient6152);fill-opacity:1" />
        <path
           style="opacity:0.603;fill:url(#radialGradient6156);fill-opacity:1"
           d="m -2000,600.00079 a 40,40 0 0 0 40,40 l 0,-20 a 20,20 0 0 1 -20,-20 l -20,0 z"
           id="path6154"
           inkscape:connector-curvature="0" />
        <rect
           transform="scale(-1,1)"
           style="opacity:0.603;fill:url(#linearGradient6160);fill-opacity:1"
           id="rect6158"
           width="19.998966"
           height="320"
           x="1980.001"
           y="280.00079"
           ry="0" />
        <rect
           transform="scale(1,-1)"
           style="opacity:0.603;fill:url(#linearGradient6164);fill-opacity:1"
           id="rect6162"
           width="720"
           height="20"
           x="-1960.0006"
           y="-260.00079" />
        <path
           style="opacity:0.603;fill:url(#radialGradient6174);fill-opacity:1"
           d="m -1200.0006,280.00079 a 40,40 0 0 0 -40,-40 l 0,20 a 20,20 0 0 1 20,20 l 20,0 z"
           id="path6166"
           inkscape:connector-curvature="0" />
        <path
           inkscape:connector-curvature="0"
           id="path6168"
           d="m -2000.001,280.00079 a 40,40 0 0 1 40,-40 l 0,20 a 20,20 0 0 0 -20,20 l -20,0 z"
           style="opacity:0.603;fill:url(#radialGradient6176);fill-opacity:1" />
      </g>
      <rect
         style="opacity:0.3;fill:url(#linearGradient6209);fill-opacity:1"
         id="rect6201"
         width="760"
         height="360"
         x="-1980"
         y="-620.00079"
         ry="20.000004"
         transform="scale(1,-1)" />
    </g>
  </g>
</svg>
