<?xml version="1.0" encoding="UTF-8" standalone="no"?>
<!-- Created with Sodipodi ("http://www.sodipodi.com/") -->
<svg xmlns:inkscape="http://www.inkscape.org/namespaces/inkscape" xmlns:rdf="http://www.w3.org/1999/02/22-rdf-syntax-ns#" xmlns="http://www.w3.org/2000/svg" xmlns:cc="http://creativecommons.org/ns#" xmlns:dc="http://purl.org/dc/elements/1.1/" xmlns:sodipodi="http://sodipodi.sourceforge.net/DTD/sodipodi-0.dtd" xmlns:svg="http://www.w3.org/2000/svg" xmlns:ns1="http://sozi.baierouge.fr" id="svg548" inkscape:version="0.48.3.1 r9886" viewBox="0 0 992.13 496.06" sodipodi:version="0.32" version="1.1" sodipodi:docname="_svgclean2.svg" xmlns:xlink="http://www.w3.org/1999/xlink">
  <sodipodi:namedview id="base" inkscape:window-x="0" inkscape:window-y="0" snaptogrid="false" inkscape:window-maximized="0" inkscape:zoom="0.22425739" inkscape:window-height="645" showgrid="true" inkscape:current-layer="svg548" inkscape:cx="372.04724" inkscape:cy="-30.121116" inkscape:window-width="674"/>
  <rect id="rect877" style="stroke-width:1pt;fill:#000066" height="496.06" width="992.13" y="0" x="1.4686e-14"/>
  <g id="g878" transform="matrix(8.2677,0,0,8.2677,0,4.4823e-5)">
    <path id="path879" style="stroke-width:1pt;fill:#ffffff" inkscape:connector-curvature="0" d="m0 0v3.3541l53.292 26.646h6.708v-3.354l-53.292-26.646h-6.708zm60 0v3.354l-53.292 26.646h-6.708v-3.354l53.292-26.646h6.708z"/>
    <path id="path880" style="stroke-width:1pt;fill:#ffffff" inkscape:connector-curvature="0" d="m25 0v30h10v-30h-10zm-25 10v10h60v-10h-60z"/>
    <path id="path881" style="stroke-width:1pt;fill:#cc0000" inkscape:connector-curvature="0" d="m0 12v6h60v-6h-60zm27-12v30h6v-30h-6z"/>
    <path id="path882" style="stroke-width:1pt;fill:#cc0000" inkscape:connector-curvature="0" d="m0 30 20-10h4.472l-20 10h-4.472zm0-30 20 10h-4.472l-15.528-7.7639v-2.2361zm35.528 10 20-10h4.472l-20 10h-4.472zm24.472 20-20-10h4.472l15.528 7.764v2.236z"/>
  </g>
  <g id="g1244" transform="translate(0,2.1935e-5)">
    <path id="path662" style="fill-rule:evenodd;stroke:#000000;stroke-width:1pt;fill:#ffffff;fill-opacity:.99608" d="m177.17 715.75c-0.01 0-177.17-106.3-177.17-230.32l0.00039038-177.16h354.33v177.16c0 124.02-177.16 230.32-177.16 230.32z" sodipodi:nodetypes="cccccc" inkscape:connector-curvature="0" transform="matrix(.7 0 0 .69565 612.27 -85.95)"/>
    <path id="path665" style="fill-rule:evenodd;stroke:#000000;stroke-width:1.3155;fill:#fdc300;fill-opacity:.99608" d="m177.17 715.75c-0.01 0-177.17-106.3-177.17-230.32l0.00039038-177.16h354.33v177.16c0 124.02-177.16 230.32-177.16 230.32z" sodipodi:nodetypes="cccccc" inkscape:connector-curvature="0" transform="matrix(.665 0 0 .6612 618.47 -69.166)"/>
    <g id="g666" transform="matrix(1.3883,0,0,1.3507,557.65,93.666)">
      <path id="path650" style="fill-rule:evenodd;stroke:#e8666f;stroke-width:1pt;stroke-opacity:.99608;fill:#850b18" inkscape:connector-curvature="0" d="m115.31 127.43v-6.17c0.4-0.89 0.54-1.84 0.61-2.87 0.23-0.9 0.31-1.88 0.42-2.68 0.28-1.01 0.47-1.75 0.82-2.67 0.07-0.89 0.17-1.73 0.41-2.67 0.3-0.68 0.89-1.73 1.23-2.26 1.02-0.63 1.66-1.12 2.67-1.65 0.81-0.52 1.37-0.94 2.27-1.23 0.93-0.6 1.66-1.25 2.67-1.85 0.85-0.53 1.43-0.6 2.67-0.62 0.98 0 2.02-0.08 2.88 0.21 1.11 0.04 2.04 0.4 2.88 0.62 0.69 0.27 1.54 0.65 2.46 1.03 0.94 0.45 1.15 0.98 2.06 1.84 0.19 0.83 0.5 1.39 0.82 2.06 0.33 0.71 0.59 1.24 1.03 2.06 0.29 0.62 0.67 1.55 1.02 2.46 0.19 0.86 0.47 2.08 0.83 2.67 0 0.99-0.08 2.02 0.2 2.88 0.04 1.15 0.37 1.6 0.41 2.67 0.16 0.73 0.21 1.68 0.21 2.68v2.87c-0.02 1.27-0.27 1.55-1.03 2.06-0.84 0.86-1.26 1.08-1.85 1.85-0.65 0.42-1.25 0.8-2.26 1.03-0.97 0.32-2.12 0.26-3.08 0.61-1.28 0-2.45 0.12-3.7 0.21-1.5 0.14-3.09 0.22-4.52 0.41-1.11 0.13-2.2 0.32-3.29 0-0.73-0.17-1.81-0.33-2.68-0.62-0.94-0.07-1.63-0.28-2.67-0.41-0.92-0.45-1.85-0.81-2.88-1.03-0.5-0.57-0.8-1.06-1.02-2.05-0.61-0.2 0.19-1.06 0.41-1.44z"/>
      <path id="path651" style="stroke:#000000;stroke-width:1pt;fill:none" inkscape:connector-curvature="0" d="m121.27 107.9c-0.04 0.28-0.21 2.27-0.41 2.88-0.41 0.29-0.86 0.79-0.62 1.03 1.28 0.05 1.39 0.16 1.44 1.44-0.37 0.83-0.82 1.41-1.23 2.05-0.82 0.52-1.02 0.86-0.21 1.65 1.04 0.19 1.33 0.89 1.85 1.44-0.29 0.84-0.84 1.16-1.44 1.85-0.62 0.42-1.06 0.87-1.23 1.85-0.36 0.79-0.41 1.24-0.41 2.26 0.95 0.3 0.96 0.49 1.23 1.44 0.41 0.45 0.29 0.76 0.82 0.82"/>
      <path id="path652" style="fill-rule:evenodd;fill:#000700" inkscape:connector-curvature="0" d="m134.63 128.66c-0.03-0.08-0.41-1.1-0.41-1.85-0.32-0.62-0.41-1.7-0.41-2.67-0.13-0.91-0.46-1.72-0.83-2.67-0.48-0.86-0.77-1.63-1.02-2.47-0.29-1.16-0.04-1.59 0.2-2.46 0.77-0.28 1.02 0.34 1.85 0.82 0.39 0.93 0.59 1.37 0.62 0-0.37-0.54-0.63-1.36-0.82-2.06-0.46-0.53-0.67-1.26-1.24-1.85-0.24-0.9-0.59-1.73-1.02-2.67-0.07-0.72-0.37-1.36 0-1.85 1.02 0.07 2.02 0.07 2.46 0.62 0.45 0.3 0.41 0.93 0.62 1.44 0.29-0.59 0.2-1.67 0-2.26-0.09-0.5-0.39-0.85 0-1.24 1.08 0.04 1.6 0.36 2.47 0.62 0.38 0.87 0.72 1.31 1.23 1.85 0.25 0.76 0.69 1.17 1.03 1.85 0.27 0.55 0.81 1.68 1.23 2.26 0.07 0.92 0.23 1.68 0.41 2.67 0.24 0.7 0.44 1.84 0.82 2.67v2.88c0 1.04 0.1 1.93 0.21 2.88 0.11 0.82 0.2 1.62 0.2 2.67-0.04 1.25-0.33 1.59-1.02 2.06-0.71 0.68-1.03 0.8-2.27 0.82-0.94-0.11-1.84-0.21-2.87-0.21-1.03-0.05-1.24-0.37-1.85-0.82l1.85 0.82c-1.03-0.05-1.24-0.37-1.44-1.85z"/>
      <path id="path649" style="fill-rule:evenodd;stroke:#e8666f;stroke-width:1pt;stroke-opacity:.99608;fill:#850b18" inkscape:connector-curvature="0" d="m112.43 132.16c0.01 0 0.87 0.9 1.44 1.23 0.66 0.39 1.36 0.48 2.26 0.82 1.23 0.23 1.64 0.51 2.67 1.03 0.67 0.32 0.8 0.6 1.85 0.62 0.86 0.28 1.9 0.2 2.88 0.2 1.08-0.01 1.56-0.2 2.67-0.2h5.76c0.99 0.16 1.89 0.12 2.88-0.21 1.05-0.01 1.77-0.15 2.46-0.61 1.02-0.04 1.64-0.23 2.67-0.42 0.84-0.23 1.54-0.41 2.67-0.41 0.96-0.4 1.74-0.6 2.27-1.23 0.61-0.44 0.69-1.16 1.23-1.64 0-1.26-0.02-1.66-0.82-2.27-0.54-0.48-1.26-0.83-2.06-1.02-1.26 0.01-1.35 0.37-2.46 0.61-0.58 0.39-1.54 0.39-2.47 0.62-0.89 0.13-1.68 0.42-2.47 0.82-1.06 0.19-1.49 0.41-2.67 0.41-0.92 0.31-1.96 0.23-2.88 0h-2.87c-1.08 0-1.93-0.16-2.88-0.41-1 0-2.03-0.05-2.67-0.41-1.06 0-1.87-0.17-2.88-0.21-0.77-0.29-1.83-0.7-2.88-0.82-0.95 0-2.02-0.01-2.67 0.21-0.88 0.34-1.09 0.9-1.24 1.85-0.53 0.18 0.04 1 0.21 1.44z"/>
      <path id="path643" style="fill-rule:evenodd;stroke:#fdc300;stroke-width:.375;stroke-opacity:.99608;fill:#000700" inkscape:connector-curvature="0" d="m145.73 132.16c0 0.35 0.06 1.79 0.2 2.46 1.15 0.09 1.35 0.39 2.27 0.83 0.2 0.63 0.2 1.85 0.41 2.67 0.27 0.57 0.55 1.14 1.23 1.44 1.2 0.1 1.39 0.48 1.64 1.64 0.25 0.7 0.4 1.54 0.82 2.06 0.2 0.85 0.47 1.38 1.03 1.85 0.34 0.51 0.59 0.32 0.62 1.23 0 0.95-0.01 2.02 0.21 2.67 0.35 0.74 0.29 1.01 1.43 1.03 0.49 0.72 0.81 0.74 0.83 2.06 0.11 0.97 0.3 1.83 0.41 2.67 0 0.73-0.06 1.62 0.2 2.05 0.79 0.32 0.81 0.99 1.44 1.44 0.47 0.92 0.61 1.76 0.62 2.88 0 1.05 0.09 1.85 0.2 2.67 0.48 0.83 0.79 1.18 1.03 2.06 0 0.94-0.01 2.02 0.21 2.67 0.19 1.02 0.71 0.97 1.03 1.85 0.29 0.58 0.2 1.77 0.2 2.67 0 1.02 0.02 1.69 0.41 2.26 0.61 0.24 1.13 0.16 1.23 1.03 0.1 1.13 0.49 1.49 0.62 2.47-0.11 1.2-0.62 0.98-0.82 2.05 0.01 1.13 0.4 1.84 0.62 2.67 0.34 0.64 1.01 0.99 1.23 1.65 0 0.89-0.01 1.86-0.21 2.46-0.83 0.36-0.99 1.09-0.41 1.85 0.61 0.6 0.99 0.83 1.03 2.06-0.01 1.21-0.15 1.78-0.82 2.26-0.45 0.8-0.81 1.13-1.03 2.26-0.55 0.72-0.82 1.18-1.64 1.64-0.92 0.22-1.22 0.59-2.27 0.83-0.35-0.56-0.98-1.49-1.23-2.26-0.52-0.75-0.95-1.5-1.44-2.47 0-1.03 0.03-1.73-0.41-2.26-0.68-0.23-0.89-1.01-1.23-1.65-0.18-0.76-0.6-1.72-0.82-2.46-0.22-0.65-0.21-1.73-0.21-2.67-0.04-1.1-0.29-1.71-0.82-2.68-0.52-0.71-0.92-1.72-1.24-2.46-0.4-1.02-0.61-1.66-0.61-2.88 0.18-0.83 0.18-1.67 0-2.67-0.19-1.05-0.4-1.57-0.41-2.67-0.29-0.86-0.35-1.95-0.41-2.88-0.41-0.9-0.69-1.86-0.83-2.88-0.45-0.85-0.68-1.32-0.82-2.47-0.17-0.96-0.37-1.84-0.41-2.87-0.46-0.54-0.8-1.41-1.23-2.26-0.21-0.96-0.41-1.36-0.41-2.47-0.4-0.9-0.66-1.44-0.83-2.47-0.38-0.99-0.69-1.63-1.02-2.67v-3.08c-0.3-0.89-0.42-1.97-0.62-2.88-0.35-0.92-0.5-1.57-0.82-2.26-0.21-0.95-0.44-1.72-0.82-2.67-0.23-1.03-0.67-1.72-1.24-2.68-0.22-0.98-0.64-1.5-1.02-2.46 1.11-0.08 1.78-0.24 2.26-0.82 0.96-0.02 1.3-0.25 2.05-0.42l-2.05 0.42c0.96-0.02 1.3-0.25 2.67-1.44z"/>
      <path id="path644" style="fill-rule:evenodd;stroke:#fdc300;stroke-width:.375;stroke-opacity:.99608;fill:#000700" inkscape:connector-curvature="0" d="m112.84 133.39h-0.2c0.6 0 0.24-0.06-0.42 1.03-0.47 0.51-0.29 0.89-1.23 1.03-0.53 0.57-0.88 0.9-1.03 1.85 0.57 0.68 0.52 1.5-0.2 2.26-0.66 0.44-1.2 0.57-1.65 1.23-0.01 1.08-0.22 1.63-0.41 2.47-0.56 0.4-0.84 1.16-1.23 1.85-0.53 0.35-1.24 0.74-1.64 1.23-0.53 0.69-0.5 1.54-0.83 2.47-0.29 0.62-0.7 1.35-1.02 2.05-0.52 0.89-0.83 1.96-1.44 2.47 0.12 0.92 0.32 1.41-0.21 2.05-0.19 0.73-0.63 1.79-1.03 2.26-0.15 0.73-0.2 1.68-0.2 2.68-0.154 1.01-0.525 1.41-1.235 2.26-0.406 0.78-0.743 1.23-0.822 2.26 0.611 0.15 0.411 0.55 0.411 1.23-0.486 0.88-0.697 1.49-1.644 2.06-0.363 0.73-0.412 1.57-0.412 2.67v2.88c0.208 0.95 0.271 1.49-0.411 2.05-0.435 0.77-0.779 1.26-0.822 2.47 0.273 0.96 0.411 1.77 0.411 2.88 0.414 0.55 0.059 1.14-0.411 1.44-0.489 0.71-0.806 0.74-0.822 2.05-0.275 0.83-0.218 1.74 0.206 2.67 0.013 1.16 0.342 1.6-0.206 2.26-0.25 0.75-0.575 1.31-0.617 2.47 0.287 0.72 0.412 1.35 0.412 2.47 0.099 1.09 0.564 1.19 1.233 1.64 0.422 0.88 0.881 1.27 1.644 1.64 0.673 0.44 1.129 0.9 2.055 1.24 0.636 0 1.3 0.05 1.65-0.21 0.2-0.61 0.27-1.9 0.61-2.46 0.18-0.78 0.5-1.69 0.62-2.68 0.34-0.55 0.53-1.87 0.82-2.46 0.35-0.92 0.71-1.72 1.03-2.47 0.3-0.64 0.63-1.46 0.82-2.46 0.17-0.97 0.37-1.85 0.41-2.88 0.29-0.58 0.21-1.78 0.21-2.68 0.47-0.81 0.82-1.18 1.23-1.84 0.67-0.89 0.99-1.55 1.23-2.47v-2.88c0.53-0.93 0.78-1.59 1.24-2.47v-2.87c0.22-1.02 0.58-1.62 1.02-2.47 0.32-0.74 0.5-1.6 0.83-2.47 0.04-1.11 0.39-1.86 0.61-2.87 0.41-0.91 0.64-1.89 0.82-2.88 0.3-0.78 0.55-1.61 1.03-2.47 0.39-0.8 0.74-1.33 1.24-1.85 0.16-0.92 0.2-1.85 0.2-2.88v-2.87c0-1.16 0.13-1.94 0.62-2.88 0.29-0.73 0.54-1.34 1.03-1.85 0.18-0.82 0.39-1.77 0.41-2.88 0.04-1.08 0.35-1.92 0.82-2.46 0.15-1 0.55-1.24 0.82-2.06 0.43-0.29 0.68-0.91 0.82-1.64-0.85-0.19-1.64-0.13-2.67 0-1.12 0-1.75-0.13-2.46-0.42-0.22-0.64-0.32-0.28-1.24 0.21z"/>
      <path id="path646" style="fill-rule:evenodd;stroke:#fdc300;stroke-width:.375;stroke-opacity:.99608;fill:#000700" inkscape:connector-curvature="0" d="m116.75 134.01h-0.21c0.58 0 0.23-0.07-0.2 1.03-0.51 1.72-1.27 3.26-2.26 4.72-0.54 0.9-1 1.96-1.65 2.47-0.28 1.03-0.67 1.25-0.82 2.26-0.35 0.62-0.55 1.63-0.62 2.47-0.01 1.18-0.28 1.99-0.41 3.08-0.35 1.25-0.49 2.79-0.62 4.11-0.44 1.58-0.38 3.32-0.61 4.93-0.47 1.36-0.56 3.07-0.83 4.52-0.72 1.31-1.32 2.79-1.84 4.12-0.45 1.1-0.77 2.03-1.03 3.28-0.42 1.29-0.74 2.32-0.82 3.7-0.38 1.38-0.31 3.08-0.62 4.53-0.27 1.19-0.21 2.44-0.21 3.7-0.58 0.56-0.94 1.48-1.44 2.46-0.18 1.12-0.65 1.93-0.82 2.88-0.23 0.46-0.2 1.31-0.2 2.05-0.16 0.89-0.13 2.03-0.41 2.88-0.13 1.04-0.34 1.73-0.41 2.68-0.14 0.63-0.21 1.37-0.21 2.26 0.67 0.49 1.22 0.87 1.64 1.85 0.66 0.72 0.79 1.43 1.65 2.05 0.47 0.4 1.59 0.78 2.26 1.03 0.95 0.28 1.57 0.5 2.26 0.82 0.93 0.14 1.27 0.41 2.47 0.41 0.59-0.4 1.27-0.45 1.64-1.03 0.45-0.5 0.66-1.52 1.03-2.05 0.11-0.97 0.24-2.11 0.41-2.88 0-1.18 0.02-1.78 0.62-2.46 0.39-0.95 0.72-1.51 1.02-2.27 0.41-0.92 0.62-1.38 0.83-2.46 0.15-0.73 0.2-1.68 0.2-2.67 0.01-1.05 0.18-1.94 0.41-2.88 0.39-0.97 0.81-1.84 1.03-2.88 0.44-0.98 0.6-1.54 0.62-2.67 0-1.05-0.2-1.84-0.21-2.88v-3.29c0.04-1.01 0.21-1.82 0.21-2.88v-5.75c0.12-1.03 0.4-1.9 0.61-2.88 0.29-0.86 0.21-1.89 0.21-2.88 0-1.05 0.17-1.86 0.2-2.87 0.17-0.98 0.24-2.11 0.42-3.09 0.34-0.94 0.62-1.86 0.82-2.87 0.22-0.65 0.2-1.73 0.2-2.68 0.36-0.96 0.51-2.01 0.62-3.08 0-1.09-0.14-1.75-0.21-2.67 0.02-1.09 0.29-1.86 0.42-2.88 0.26-0.97 0.5-2.01 0.61-2.88 0.63-0.72 0.92-1.11 1.03-2.05-0.69-0.42-0.62-0.62-1.64-0.62-0.43 0.52-1.11 0.41-2.06 0.41-0.44-0.33-1.56-0.6-2.05-0.82l2.05 0.82c-0.44-0.33-1.56-0.6-3.08-0.2z"/>
      <path id="path645" inkscape:connector-curvature="0" style="fill-rule:evenodd;stroke:#fdc300;stroke-width:.375;stroke-opacity:.99608;fill:#000700" transform="translate(0,-3.0518e-5)" d="m135.45 136.06c0.27 0.19 1.11 0.92 1.23 1.65 0.48 0.62 0.55 1.6 0.62 2.46-0.22 1-0.41 1.49-0.41 2.68v2.87c0 1.17 0.1 1.67 0.62 2.26v2.88c0.34 0.65 0.41 1.46 0.41 2.47 0 1.12 0.1 1.92 0.41 2.88 0.47 0.69 0.5 1.55 0.82 2.46 0 1.09 0.14 1.75 0.21 2.67 0.03 1.01 0.2 1.56 0.2 2.68v2.87c0.25 0.95 0.41 1.8 0.41 2.88 0.05 1.19 0.39 1.65 0.62 2.67 0.22 0.65 0.21 1.73 0.21 2.68-0.28 1.08-0.25 1.79 0.2 2.67 0.21 0.76 0.41 1.46 0.82 2.26 0.36 0.85 0.58 1.54 0.62 2.67 0.11 0.95 0.2 1.84 0.2 2.88 0.45 0.63 0.66 1.73 0.83 2.67 0.22 0.89 0.2 1.87 0.2 2.88 0.07 0.94 0.29 1.63 0.41 2.67v2.88c0.07 0.92 0.28 2.06 0.62 2.67 0.13 0.95 0.4 1.47 0.62 2.47 0.6 0.77 0.67 1.22 1.44 1.85 0.83 0.19 1.51 0.54 2.46 0.61 0.95-0.13 1.55-0.39 2.06-1.03 0.78-0.14 1.53-0.5 2.26-0.82 0.98-0.07 1.58-0.29 2.26-0.61 0.85-0.93 1.08-1.35 1.85-2.26 0.4-0.85 0.81-1.22 1.44-1.65 0.3-0.64 0.58-1.19 0.61-2.26-0.49-0.64-0.73-1.56-1.23-2.47-0.22-0.85-0.63-1.92-1.03-2.88-0.12-1.16-0.28-2.38-0.61-3.49-0.19-1.03-0.24-2.13-0.62-3.08-0.23-1-0.4-1.99-0.41-3.09-0.39-1.13-0.68-2.44-0.82-3.7-0.3-1.18-0.54-2.37-1.03-3.49-0.22-1.02-0.53-1.97-1.03-2.88-0.31-1.34-0.67-2.61-1.23-3.9-0.17-1.39-0.38-2.79-0.82-4.11-0.24-1.01-0.21-2.16-0.21-3.29-0.12-1.02-0.43-1.89-0.62-2.88-0.15-1.35-0.56-2.61-0.82-3.9-0.23-1.23-0.58-2-0.82-3.09-0.62-1.04-0.95-1.86-1.64-2.88-0.22-1.03-0.63-2.11-1.03-3.08-0.31-0.96-0.6-1.96-1.03-2.88-0.17-0.73-0.42-1.78-0.82-2.26-0.2-0.74-0.58-1.46-0.82-2.26-0.42-0.47-0.79-1.35-1.24-1.85-0.19-0.76-0.43-0.21-0.82 0-0.4 0.49-1.36 0.86-2.06 1.24-0.71 0.28-1.34 0.41-2.46 0.41l2.46-0.41c-0.71 0.28-1.34 0.41-3.49 0.61z"/>
      <path id="path647" style="fill-rule:evenodd;stroke:#fdc300;stroke-width:.375;stroke-opacity:.99608;fill:#000700" inkscape:connector-curvature="0" d="m122.3 134.83v3.29c-0.06 1.22-0.21 2.24-0.21 3.49-0.03 1.01-0.37 1.96-0.62 2.67-0.1 0.77-0.12 1.82-0.41 2.68 0 1.09-0.13 1.75-0.2 2.67-0.27 1.06-0.33 1.77-0.62 2.88-0.28 1.02-0.6 2.04-0.82 3.08-0.45 0.99-0.63 2.25-1.03 3.29-0.1 1.23-0.2 2.42-0.2 3.7-0.24 0.95-0.21 2.01-0.21 3.08v3.08c0 1.17 0.13 2.47-0.2 3.5-0.13 1.09-0.42 2.04-0.62 3.08-0.16 0.98-0.21 2-0.21 3.08v3.09c0 1.11-0.17 2.01-0.2 3.08-0.12 0.95-0.25 1.95-0.41 2.88-0.38 0.92-0.48 1.95-0.83 2.87-0.1 0.91-0.25 2.08-0.61 2.68-0.04 1.01-0.21 1.82-0.21 2.88-0.16 0.91-0.2 1.85-0.2 2.87-0.32 0.95-0.4 1.64-0.41 2.67 0 1.12 0.12 1.75 0.41 2.47 0.58 0.72 1.4 1.11 1.85 1.65 1.02 0.37 1.11 0.73 2.26 0.82 0.65 0.21 1.72 0.2 2.67 0.2h5.75c1.09-0.2 1.03-0.73 1.44-1.85 0.44-0.64 0.74-1.83 1.24-2.67 0.18-0.78 0.41-1.6 0.41-2.67-0.05-1.17-0.45-1.28-0.83-2.26-0.23-1.07 0-1.93 0-3.09 0.04-1 0.21-1.55 0.21-2.67 0.32-0.93 0.49-1.81 0.82-2.87 0-1.22 0.19-2.29 0.21-3.5 0-0.98 0.08-2.02-0.21-2.88 0-1.22-0.07-2.36-0.2-3.49-0.29-0.86-0.19-2-0.41-2.88 0-1.23-0.12-2.6 0.2-3.7 0.37-1.17 0.81-2 0.82-3.29-0.66-1.05-1.02-1.67-1.44-3.08-0.42-1.16-0.46-1.93 0-3.08 0.28-1.08 0.54-1.97 0.62-3.09 0-1 0.02-1.98-0.2-2.87-0.32-0.99-0.58-1.93-0.62-3.09v-3.08c0-1.19-0.03-2.42 0.2-3.49 0-1 0.05-1.95 0.21-2.68 0.21-0.96 0.42-1.98 0.82-2.87 0-1.05-0.09-1.85-0.2-2.67 0-1.12-0.17-1.67-0.21-2.68-0.11-0.84-0.38-0.61-1.23-0.61-0.74-0.27-1.39-0.41-2.47-0.41-0.85-0.12-1.65-0.34-2.67-0.42-0.55 0-0.14-0.01-1.23 0.21z"/>
      <path id="path648" style="fill-rule:evenodd;stroke:#fdc300;stroke-width:.375;stroke-opacity:.99608;fill:#000700" inkscape:connector-curvature="0" d="m129.49 135.65v9.25c-0.22 1.12-0.41 1.79-0.41 3.08-0.18 0.84-0.18 1.67 0 2.68v5.96c0 1.14 0.1 2.09 0.41 3.08 0.07 0.98 0.21 1.83 0.21 2.88 0.08 0.98 0.41 1.5 0.41 2.67 0.31 0.97 0.24 2.11 0 3.08-0.27 0.67-0.38 1.52-0.62 2.47-0.23 0.9-0.34 1.91-0.41 2.88v2.87c0.07 1.13 0.37 1.95 0.41 3.09 0.24 0.96 0.24 1.91 0 2.88-0.1 1.21-0.33 2.32-0.41 3.49v3.08c0.04 1.01 0.2 1.56 0.2 2.67v2.88c0 1.11 0.01 1.96-0.41 2.88-0.03 0.95-0.2 1.69-0.2 2.67 0.39 0.57 0.58 1.34 1.03 1.85 0.12 1.06 0.35 1.72 0.82 2.26 0.23 0.85 0.6 1.22 1.23 1.65 0.53 0.44 1.23 0.41 2.26 0.41 0.55 0.27 1.8 0.32 2.47 0.41 0.73 0.16 1.67 0.2 2.67 0.2 0.95-0.17 1.92-0.42 2.67-0.61 0.84-0.12 0.84-0.4 1.85-0.41 0.59-0.6 0.86-0.71 1.24-1.65 0.56-0.65 0.78-1.33 0.82-2.46-0.18-1.13-0.59-1.86-0.62-3.09-0.36-1.06-0.61-1.87-0.61-3.08-0.36-0.68-0.42-1.85-0.42-2.88-0.21-1.21-0.21-2.63-0.41-3.9-0.27-1.2-0.29-2.52-0.41-3.7-0.34-1.02-0.31-2.28-0.62-3.29-0.55-1.2-0.94-2.4-1.43-3.7-0.19-1.67-0.44-3.31-0.83-4.93v-3.91c0.17-1.26 0.53-2.26 0.62-3.49 0-1.47 0.03-2.98-0.2-4.32-0.54-0.8-0.95-1.88-1.44-2.88-0.34-1.21-0.74-2.32-0.83-3.7-0.31-1.03-0.6-1.92-0.61-3.08 0-1.15-0.15-2.17-0.21-3.29 0.29-0.86 0.21-1.89 0.21-2.88-0.22-0.82-0.66-1.93-1.03-2.87-0.18-1.07-0.41-1.9-0.41-3.09v-2.88c-0.11-1.15-0.5-1.33-1.64-1.43-0.99 0-2.02-0.09-2.88 0.2-0.99 0-1.43 0.12-2.47 0z"/>
    </g>
    <g id="g689" transform="matrix(1.3883,0,0,1.3507,557.65,97.043)">
      <path id="path678" inkscape:connector-curvature="0" sodipodi:nodetypes="ccccccccccccccccccccccs" style="fill-rule:evenodd;stroke:#e8666f;stroke-width:1pt;fill:#e974af;fill-opacity:.99608" d="m55.243 80.088c3.158 6.33 20.771 12.816 23.865 17.678 3.093 4.864 8.397 15.464 11.49 14.584 3.094-0.88 10.162-7.95 10.162-7.95s-4.416-47.735-7.068-48.177-3.978 0-5.745-0.442c-1.768-0.442-2.652-2.209-2.652-3.093s-0.884-2.652-2.652-3.536c-1.767-0.884-4.861 0-5.303-1.768-0.442-1.767-0.442-3.977-1.768-4.861s-4.419-1.768-5.303-2.652-3.094-3.535-3.094-3.535-3.535 5.745-3.535 6.629-1.768 6.187-1.326 7.513 2.652 4.861 3.094 5.303 0 2.652-1.326 3.978-5.304 0.442-6.188 1.767c-0.883 1.326-3.535 3.978-2.651 4.862s4.861-2.21 5.745-2.21 5.745 1.326 5.745 1.326-2.651 1.768-3.977 3.094c-1.326 1.325 0.884 3.977-0.442 4.419s-8.491 4.667-7.071 7.071z"/>
      <path id="path679" style="fill-rule:evenodd;stroke:#e8666f;stroke-width:1pt;fill:#e974af;fill-opacity:.99608" inkscape:connector-curvature="0" d="m80.434 77.878c-0.442 9.281 7.955 10.165 9.28 17.236 1.326 7.066 3.536 13.696 6.188 13.256 2.651-0.44 1.767-3.09 3.093-3.53 1.325-0.44 0.884 2.21 3.095 1.76 2.21-0.44 3.09-7.066 4.42-8.834 1.32-1.768 9.72-6.187 10.16-9.723 0.45-3.535-2.21-2.652-2.65-5.745-0.44-3.094 1.33-6.629 0.88-8.397-0.44-1.768-1.76-0.884-2.2-3.094-0.45-2.209 2.2-3.093 1.32-5.303s-4.86-3.536-5.3-4.861c-0.44-1.326 1.32-1.326 0.88-3.094s-5.3-3.977-5.74-5.303-6.191-11.933-9.284-11.491c-3.094 0.442-6.629 7.513-6.187 9.281 0.441 1.768 2.209 12.374 0.441 15.026-1.767 2.652-8.838 7.513-8.396 12.816z"/>
      <path id="path680" inkscape:connector-curvature="0" sodipodi:nodetypes="cccccccccccc" style="fill-rule:evenodd;fill:#f4aacf" d="m97.669 49.152c2.651 0.442 0 5.303 0 7.513s1.768 7.513 2.21 10.165c0.441 2.651-3.535 10.164-2.652 13.258 0.884 3.094 4.423 7.955 4.423 10.607 0 2.651-0.45 14.145-0.45 14.145l-3.089-0.44s-0.884-9.286-0.884-13.263c0-3.978-4.419-6.629-4.419-10.165s3.978-9.723 3.536-11.932c-0.442-2.21-2.21-10.165-2.21-12.817 0-2.651 4.419-6.187 3.535-7.071z"/>
      <path id="path681" style="stroke:#e7646d;stroke-width:1pt;fill:none" inkscape:connector-curvature="0" d="m63.75 85.796c1.875-2.187 3.125-3.125 4.063-3.75 0.937-0.625 2.5 0.938 4.062-0.625 1.563-1.562 1.25-4.687 2.813-6.562 1.562-1.875 3.437-1.875 3.437-1.875"/>
      <path id="path682" style="stroke:#e7646d;stroke-width:1pt;fill:none" inkscape:connector-curvature="0" d="m86.563 55.484c-0.938 0.312-5.313 1.562-6.563 1.562s-3.125-1.875-3.125-3.125 1.25-1.875 1.25-3.125-3.125-0.625-3.75-2.187c-0.625-1.563 0.625-1.563 0.313-2.813-0.313-1.25-3.438-3.438-3.438-3.438"/>
      <path id="path683" style="stroke:#e7646d;stroke-width:1pt;fill:none" inkscape:connector-curvature="0" d="m64.375 42.671c0.313 0 2.5 0 3.125 0.625s1.563 2.188 1.563 2.188"/>
      <path id="path684" style="stroke:#e7646d;stroke-width:1pt;fill:none" inkscape:connector-curvature="0" d="m63.75 47.671c0.313 0 3.75 0.313 4.375 0 0.625-0.312 1.875 0.313 1.875 0.313"/>
      <path id="path685" style="stroke:#e7646d;stroke-width:1pt;fill:none" inkscape:connector-curvature="0" d="m65 52.671c0.313-0.312 1.875-0.937 3.125-1.25 1.25-0.312 2.5 0.625 2.5 0.625"/>
      <path id="path686" style="stroke:#e7646d;stroke-width:1pt;fill:none" inkscape:connector-curvature="0" d="m66.875 55.796c1.25 0 3.75-2.5 3.75-2.5"/>
      <path id="path687" style="stroke:#e7646d;stroke-width:1pt;fill:none" inkscape:connector-curvature="0" d="m67.188 57.359s1.562 0.937 2.5 1.25c0.937 0.312 3.437-0.938 3.437-0.938"/>
      <path id="path688" style="stroke:#e7646d;stroke-width:1pt;fill:none" inkscape:connector-curvature="0" d="m66.875 65.796c0.313 0 2.813-2.187 4.688-2.812s2.812-1.875 2.812-1.875"/>
    </g>
    <g id="g1070" transform="translate(3.308,-3.0518e-5)">
      <path id="path577" style="fill-rule:evenodd;stroke:#000000;stroke-width:4.375;fill:#b95a1e" d="m779.41 912.6s-0.12 103.6 0 179.2c0.12 75.7 19.82 104.9 54.26 103.6s41.11-58.8 34.53-92.1c-6.58-33.2-53.24-198.93-53.24-198.93l-35.55 8.23z" sodipodi:nodetypes="cccccc" inkscape:connector-curvature="0" transform="matrix(.063084 -.040736 .038634 .066517 712.1 209.87)"/>
      <path id="path576" style="fill-rule:evenodd;stroke:#000000;stroke-width:4.375;fill:#b95a1e" d="m779.41 912.6s-0.12 103.6 0 179.2c0.12 75.7 19.82 104.9 54.26 103.6s41.11-58.8 34.53-92.1c-6.58-33.2-53.24-198.93-53.24-198.93l-35.55 8.23z" sodipodi:nodetypes="cccccc" inkscape:connector-curvature="0" transform="matrix(.072361 -.016199 .015363 .076299 725.15 182.35)"/>
      <path id="path575" style="fill-rule:evenodd;stroke:#000000;stroke-width:4.375;fill:#b95a1e" d="m779.41 912.6s-0.12 103.6 0 179.2c0.12 75.7 19.82 104.9 54.26 103.6s41.11-58.8 34.53-92.1c-6.58-33.2-53.24-198.93-53.24-198.93l-35.55 8.23z" sodipodi:nodetypes="cccccc" inkscape:connector-curvature="0" transform="matrix(.073974 0 0 .077999 736.23 168.42)"/>
      <path id="path574" style="fill-rule:evenodd;stroke:#000000;stroke-width:5.5537;fill:#b95a1e" d="m779.53 255.12c159.57-1.4 177.16-35.43 177.16-35.43s35.43-70.87 17.72-88.59c-17.72-17.71-194.88-17.71-194.88-17.71v141.73z" sodipodi:nodetypes="ccscc" inkscape:connector-curvature="0" transform="matrix(.045906 0 0 .077999 758.11 219.55)"/>
      <path id="path570" style="fill-rule:evenodd;stroke:#000000;stroke-width:4.375;fill:#b95a1e" d="m779.53 255.12c106.3 0 124.01-35.43 124.01-35.43s35.43-70.87 17.72-88.59c-17.72-17.71-141.73-17.71-141.73-17.71v141.73z" sodipodi:nodetypes="ccscc" inkscape:connector-curvature="0" transform="matrix(.073974 0 0 .077999 736.23 214.02)"/>
      <path id="path569" style="fill-rule:evenodd;stroke:#000000;stroke-width:4.375;fill:#b95a1e" d="m779.53 255.12c88.58 0 141.73-35.44 141.73-35.44s35.43-70.86 17.72-88.58c-17.72-17.72-159.45-17.71-159.45-17.71v141.73z" sodipodi:nodetypes="ccscc" inkscape:connector-curvature="0" transform="matrix(.073974 0 0 .077999 736.23 208.49)"/>
      <path id="path554" style="fill-rule:evenodd;stroke:#000000;stroke-width:3.9272;fill:#b95a1e" d="m832.68 113.39s70.86-88.587 194.92-177.17c124-88.58 213.7-156.72 230.3-141.73 0 17.71-106.3 106.3-194.9 177.16-88.59 70.87-194.89 177.17-194.89 177.17l-35.43-35.43z" sodipodi:nodetypes="cscscc" inkscape:connector-curvature="0" transform="matrix(.091804 0 0 .077999 721.87 168.58)"/>
      <path id="path557" style="fill-rule:evenodd;stroke:#000000;stroke-width:3.9272;fill:#b95a1e" d="m832.68 113.39s70.05-52.029 204.42-124.02c132.2-63.918 318.9-53.15 318.9-35.433-17.8 17.717-177.2 17.717-283.5 70.866-101.48 50.732-204.39 124.02-204.39 124.02l-35.43-35.43z" sodipodi:nodetypes="cscscc" inkscape:connector-curvature="0" transform="matrix(.091804 0 0 .077999 722.63 174.11)"/>
      <path id="path558" style="fill-rule:evenodd;stroke:#000000;stroke-width:3.9272;fill:#b95a1e" d="m832.68 113.39s61.67-35.072 204.42-88.587c141.7-53.149 329.8-17.716 329.8 0-17.7 17.717-170.4 6.948-276.7 35.433-109.99 27.758-222.09 88.584-222.09 88.584l-35.43-35.43z" sodipodi:nodetypes="cscscc" inkscape:connector-curvature="0" transform="matrix(.091804 0 0 .077999 722.7 183.63)"/>
      <path id="path559" style="fill-rule:evenodd;stroke:#000000;stroke-width:3.9272;fill:#b95a1e" d="m832.68 113.39s71.08-70.98 222.52-88.587c152.3-17.716 276.3 88.587 276.3 106.3-17.7 17.72-159.5-77.972-265.7-64.286-112.67 13.654-197.69 82.006-197.69 82.006l-35.43-35.43z" sodipodi:nodetypes="cscscc" inkscape:connector-curvature="0" transform="matrix(.091804 0 0 .077999 723.32 193.29)"/>
      <path id="path568" style="fill-rule:evenodd;stroke:#000000;stroke-width:4.375;fill:#b95a1e" d="m779.53 255.12c159.57-1.4 159.45-45.51 159.45-45.51s35.43-70.87 17.71-88.58c-17.71-17.72-177.16-7.64-177.16-7.64v141.73z" sodipodi:nodetypes="ccscc" inkscape:connector-curvature="0" transform="matrix(.073974 0 0 .077999 736.23 201.59)"/>
      <path id="path567" style="fill-rule:evenodd;stroke:#000000;stroke-width:4.375;fill:#b95a1e" d="m779.53 255.12c159.57-1.4 177.16-35.43 177.16-35.43s35.43-70.87 17.72-88.59c-17.72-17.71-194.88-17.71-194.88-17.71v141.73z" sodipodi:nodetypes="ccscc" inkscape:connector-curvature="0" transform="matrix(.073974 0 0 .077999 736.23 196.06)"/>
      <path id="path565" style="fill-rule:evenodd;stroke:#000000;stroke-width:4.375;fill:#b95a1e" d="m779.53 255.12c159.57-1.4 194.88-35.44 194.88-35.44s35.39-70.86 17.72-88.58c-17.72-17.71-212.6-17.71-212.6-17.71v141.73z" sodipodi:nodetypes="ccscc" inkscape:connector-curvature="0" transform="matrix(.073974 0 0 .077999 736.23 189.15)"/>
      <path id="path566" style="fill-rule:evenodd;stroke:#000000;stroke-width:4.375;fill:#b95a1e" d="m779.53 255.12c159.57-1.4 212.6-35.44 212.6-35.44s17.67-70.86 0-88.58c-17.72-17.71-212.6-17.71-212.6-17.71v141.73z" sodipodi:nodetypes="ccscc" inkscape:connector-curvature="0" transform="matrix(.073974 0 0 .077999 736.23 182.24)"/>
      <path id="path560" style="fill-rule:evenodd;stroke:#000000;stroke-width:3.9272;fill:#b95a1e" d="m832.68 113.39s114.2-88.587 114.2-159.45c0-70.87-50.35-141.74-64.62-177.17 28.55 0 93.17 106.3 93.17 177.17 0 77.441-107.32 194.88-107.32 194.88l-35.43-35.43z" sodipodi:nodetypes="cscscc" inkscape:connector-curvature="0" transform="matrix(.091804 0 0 .077999 720.08 162.89)"/>
      <path id="path561" style="fill-rule:evenodd;stroke:#000000;stroke-width:3.9272;fill:#b95a1e" d="m832.68 113.39s-14.28-53.154-14.28-159.45c0-124.02 63-202.9 85.66-230.32 5.89 27.42-57.11 124.02-57.11 230.32 0 77.441 21.16 194.88 21.16 194.88l-35.43-35.43z" sodipodi:nodetypes="cscscc" inkscape:connector-curvature="0" transform="matrix(.091804 0 0 .077999 720.08 162.89)"/>
      <path id="path564" style="fill-rule:evenodd;stroke:#000000;stroke-width:4.375;fill:#b95a1e" d="m779.53 255.12c159.57-1.4 212.6-35.44 212.6-35.44s0-70.86-17.72-88.58c-17.72-17.71-194.88-17.71-194.88-17.71v141.73z" sodipodi:nodetypes="ccscc" inkscape:connector-curvature="0" transform="matrix(.073974 0 0 .077999 736.23 175.33)"/>
      <path id="path563" style="fill-rule:evenodd;stroke:#000000;stroke-width:4.375;fill:#b95a1e" d="m779.53 255.12c159.57-1.4 194.88-35.44 194.88-35.44s0-70.86-17.72-88.58c-17.71-17.71-177.16-17.71-177.16-17.71v141.73z" sodipodi:nodetypes="ccscc" inkscape:connector-curvature="0" transform="matrix(.073974 0 0 .077999 736.23 168.42)"/>
      <path id="path553" style="fill-rule:evenodd;stroke:#fdc301;stroke-width:11.026;fill:#b95a1e" d="m318.9 1318.1c55.06-122.3 70.86-336.6 70.86-372.04 0-99.78-32.94-585.1-35.43-779.52-2.48-194.43 124.02-301.19 248.03-301.19 106.3 0 177.17 70.87 177.17 177.17h-53.15c0-70.866-53.15-124.02-124.02-124.02-106.3 0.004-187.99 83.743-194.88 248.04-7.6 189.88 21.32 682.94 17.72 814.96-3.6 132-51.24 249.7-106.3 336.6z" sodipodi:nodetypes="csssccsssc" inkscape:connector-curvature="0" transform="matrix(-.073974 0 0 .077999 851.56 168.42)"/>
      <path id="path578" style="fill-rule:evenodd;stroke:#000000;stroke-width:4.375;fill:#b95a1e" d="m779.41 912.6s-0.12 103.6 0 179.2c0.12 75.7 19.82 104.9 54.26 103.6s41.11-58.8 34.53-92.1c-6.58-33.2-53.24-198.93-53.24-198.93l-35.55 8.23z" sodipodi:nodetypes="cccccc" inkscape:connector-curvature="0" transform="matrix(-.063084 -.040736 -.038634 .066517 875.69 209.87)"/>
      <path id="path562" style="fill-rule:evenodd;stroke:#000000;stroke-width:4.375;fill:#b95a1e" d="m779.53 32.884c124.13 0.141 177.77 102.39 177.46 100.31l-35.73 33.35c-18.98 17.71-141.73 17.71-140.21 17.62l-1.52-151.28z" sodipodi:nodetypes="ccscc" inkscape:connector-curvature="0" transform="matrix(.073974 0 0 .077999 736.23 168.42)"/>
      <path id="path579" style="fill-rule:evenodd;stroke:#000000;stroke-width:4.375;fill:#b95a1e" d="m779.41 912.6s-0.12 103.6 0 179.2c0.12 75.7 19.82 104.9 54.26 103.6s41.11-58.8 34.53-92.1c-6.58-33.2-53.24-198.93-53.24-198.93l-35.55 8.23z" sodipodi:nodetypes="cccccc" inkscape:connector-curvature="0" transform="matrix(-.072361 -.016199 -.015363 .076299 862.63 182.35)"/>
      <path id="path580" style="fill-rule:evenodd;stroke:#000000;stroke-width:4.375;fill:#b95a1e" d="m779.41 912.6s-0.12 103.6 0 179.2c0.12 75.7 19.82 104.9 54.26 103.6s41.11-58.8 34.53-92.1c-6.58-33.2-53.24-198.93-53.24-198.93l-35.55 8.23z" sodipodi:nodetypes="cccccc" inkscape:connector-curvature="0" transform="matrix(-.073974 0 0 .077999 851.55 168.42)"/>
      <path id="path581" style="fill-rule:evenodd;stroke:#000000;stroke-width:5.5537;fill:#b95a1e" d="m779.53 255.12c159.57-1.4 177.16-35.43 177.16-35.43s35.43-70.87 17.72-88.59c-17.72-17.71-194.88-17.71-194.88-17.71v141.73z" sodipodi:nodetypes="ccscc" inkscape:connector-curvature="0" transform="matrix(-.045906 0 0 .077999 829.67 219.55)"/>
      <path id="path582" style="fill-rule:evenodd;stroke:#000000;stroke-width:4.375;fill:#b95a1e" d="m779.53 255.12c106.3 0 124.01-35.43 124.01-35.43s35.43-70.87 17.72-88.59c-17.72-17.71-141.73-17.71-141.73-17.71v141.73z" sodipodi:nodetypes="ccscc" inkscape:connector-curvature="0" transform="matrix(-.073974 0 0 .077999 851.55 214.02)"/>
      <path id="path583" style="fill-rule:evenodd;stroke:#000000;stroke-width:4.375;fill:#b95a1e" d="m779.53 255.12c88.58 0 141.73-35.44 141.73-35.44s35.43-70.86 17.72-88.58c-17.72-17.72-159.45-17.71-159.45-17.71v141.73z" sodipodi:nodetypes="ccscc" inkscape:connector-curvature="0" transform="matrix(-.073974 0 0 .077999 851.55 208.49)"/>
      <path id="path584" style="fill-rule:evenodd;stroke:#000000;stroke-width:3.9272;fill:#b95a1e" d="m832.68 113.39s70.86-88.587 194.92-177.17c124-88.58 213.7-156.72 230.3-141.73 0 17.71-106.3 106.3-194.9 177.16-88.59 70.87-194.89 177.17-194.89 177.17l-35.43-35.43z" sodipodi:nodetypes="cscscc" inkscape:connector-curvature="0" transform="matrix(-.091804 0 0 .077999 865.91 168.58)"/>
      <path id="path585" style="fill-rule:evenodd;stroke:#000000;stroke-width:3.9272;fill:#b95a1e" d="m832.68 113.39s70.05-52.029 204.42-124.02c132.2-63.918 318.9-53.15 318.9-35.433-17.8 17.717-177.2 17.717-283.5 70.866-101.48 50.732-204.39 124.02-204.39 124.02l-35.43-35.43z" sodipodi:nodetypes="cscscc" inkscape:connector-curvature="0" transform="matrix(-.091804 0 0 .077999 865.16 174.11)"/>
      <path id="path586" style="fill-rule:evenodd;stroke:#000000;stroke-width:3.9272;fill:#b95a1e" d="m832.68 113.39s61.67-35.072 204.42-88.587c141.7-53.149 329.8-17.716 329.8 0-17.7 17.717-170.4 6.948-276.7 35.433-109.99 27.758-222.09 88.584-222.09 88.584l-35.43-35.43z" sodipodi:nodetypes="cscscc" inkscape:connector-curvature="0" transform="matrix(-.091804 0 0 .077999 865.09 183.63)"/>
      <path id="path587" style="fill-rule:evenodd;stroke:#000000;stroke-width:3.9272;fill:#b95a1e" d="m832.68 113.39s71.08-70.98 222.52-88.587c152.3-17.716 276.3 88.587 276.3 106.3-17.7 17.72-159.5-77.972-265.7-64.286-112.67 13.654-197.69 82.006-197.69 82.006l-35.43-35.43z" sodipodi:nodetypes="cscscc" inkscape:connector-curvature="0" transform="matrix(-.091804 0 0 .077999 864.47 193.29)"/>
      <path id="path588" style="fill-rule:evenodd;stroke:#000000;stroke-width:4.375;fill:#b95a1e" d="m779.53 255.12c159.57-1.4 159.45-45.51 159.45-45.51s35.43-70.87 17.71-88.58c-17.71-17.72-177.16-7.64-177.16-7.64v141.73z" sodipodi:nodetypes="ccscc" inkscape:connector-curvature="0" transform="matrix(-.073974 0 0 .077999 851.55 201.59)"/>
      <path id="path589" style="fill-rule:evenodd;stroke:#000000;stroke-width:4.375;fill:#b95a1e" d="m779.53 255.12c159.57-1.4 177.16-35.43 177.16-35.43s35.43-70.87 17.72-88.59c-17.72-17.71-194.88-17.71-194.88-17.71v141.73z" sodipodi:nodetypes="ccscc" inkscape:connector-curvature="0" transform="matrix(-.073974 0 0 .077999 851.55 196.06)"/>
      <path id="path590" style="fill-rule:evenodd;stroke:#000000;stroke-width:4.375;fill:#b95a1e" d="m779.53 255.12c159.57-1.4 194.88-35.44 194.88-35.44s35.39-70.86 17.72-88.58c-17.72-17.71-212.6-17.71-212.6-17.71v141.73z" sodipodi:nodetypes="ccscc" inkscape:connector-curvature="0" transform="matrix(-.073974 0 0 .077999 851.55 189.15)"/>
      <path id="path591" style="fill-rule:evenodd;stroke:#000000;stroke-width:4.375;fill:#b95a1e" d="m779.53 255.12c159.57-1.4 212.6-35.44 212.6-35.44s17.67-70.86 0-88.58c-17.72-17.71-212.6-17.71-212.6-17.71v141.73z" sodipodi:nodetypes="ccscc" inkscape:connector-curvature="0" transform="matrix(-.073974 0 0 .077999 851.55 182.24)"/>
      <path id="path592" style="fill-rule:evenodd;stroke:#000000;stroke-width:3.9272;fill:#b95a1e" d="m832.68 113.39s114.2-88.587 114.2-159.45c0-70.87-50.35-141.74-64.62-177.17 28.55 0 93.17 106.3 93.17 177.17 0 77.441-107.32 194.88-107.32 194.88l-35.43-35.43z" sodipodi:nodetypes="cscscc" inkscape:connector-curvature="0" transform="matrix(-.091804 0 0 .077999 867.71 162.89)"/>
      <path id="path593" style="fill-rule:evenodd;stroke:#000000;stroke-width:3.9272;fill:#b95a1e" d="m832.68 113.39s-14.28-53.154-14.28-159.45c0-124.02 63-202.9 85.66-230.32 5.89 27.42-57.11 124.02-57.11 230.32 0 77.441 21.16 194.88 21.16 194.88l-35.43-35.43z" sodipodi:nodetypes="cscscc" inkscape:connector-curvature="0" transform="matrix(-.091804 0 0 .077999 867.71 162.89)"/>
      <path id="path594" style="fill-rule:evenodd;stroke:#000000;stroke-width:4.375;fill:#b95a1e" d="m779.53 255.12c159.57-1.4 212.6-35.44 212.6-35.44s0-70.86-17.72-88.58c-17.72-17.71-194.88-17.71-194.88-17.71v141.73z" sodipodi:nodetypes="ccscc" inkscape:connector-curvature="0" transform="matrix(-.073974 0 0 .077999 851.55 175.33)"/>
      <path id="path595" style="fill-rule:evenodd;stroke:#000000;stroke-width:4.375;fill:#b95a1e" d="m779.53 255.12c159.57-1.4 194.88-35.44 194.88-35.44s0-70.86-17.72-88.58c-17.71-17.71-177.16-17.71-177.16-17.71v141.73z" sodipodi:nodetypes="ccscc" inkscape:connector-curvature="0" transform="matrix(-.073974 0 0 .077999 851.55 168.42)"/>
      <path id="path597" style="fill-rule:evenodd;stroke:#fdc301;stroke-width:11.026;fill:#b95a1e" d="m318.9 1318.1c55.06-122.3 70.86-336.6 70.86-372.04 0-99.78-32.94-585.1-35.43-779.52-2.48-194.43 124.02-301.19 248.03-301.19 106.3 0 177.17 70.87 177.17 177.17h-53.15c0-70.866-53.15-124.02-124.02-124.02-106.3 0.004-187.99 83.743-194.88 248.04-7.6 189.88 21.32 682.94 17.72 814.96-3.6 132-51.24 249.7-106.3 336.6z" sodipodi:nodetypes="csssccsssc" inkscape:connector-curvature="0" transform="matrix(.073974 0 0 .077999 736.22 168.42)"/>
      <path id="path596" style="fill-rule:evenodd;stroke:#000000;stroke-width:4.375;fill:#b95a1e" d="m779.53 32.884c124.13 0.141 177.77 102.39 177.46 100.31l-35.73 33.35c-18.98 17.71-141.73 17.71-140.21 17.62l-1.52-151.28z" sodipodi:nodetypes="ccscc" inkscape:connector-curvature="0" transform="matrix(-.073974 0 0 .077999 851.55 168.42)"/>
    </g>
  </g>
  <metadata id="metadata77">
    <rdf:RDF>
      <cc:Work>
        <dc:format>image/svg+xml</dc:format>
        <dc:type rdf:resource="http://purl.org/dc/dcmitype/StillImage"/>
        <cc:license rdf:resource="http://creativecommons.org/licenses/publicdomain/"/>
        <dc:publisher>
          <cc:Agent rdf:about="http://openclipart.org/">
            <dc:title>Openclipart</dc:title>
          </cc:Agent>
        </dc:publisher>
      </cc:Work>
      <cc:License rdf:about="http://creativecommons.org/licenses/publicdomain/">
        <cc:permits rdf:resource="http://creativecommons.org/ns#Reproduction"/>
        <cc:permits rdf:resource="http://creativecommons.org/ns#Distribution"/>
        <cc:permits rdf:resource="http://creativecommons.org/ns#DerivativeWorks"/>
      </cc:License>
    </rdf:RDF>
  </metadata>
</svg>
