<?xml version="1.0" encoding="UTF-8" standalone="no"?>
<svg
   xmlns:dc="http://purl.org/dc/elements/1.1/"
   xmlns:cc="http://creativecommons.org/ns#"
   xmlns:rdf="http://www.w3.org/1999/02/22-rdf-syntax-ns#"
   xmlns:svg="http://www.w3.org/2000/svg"
   xmlns="http://www.w3.org/2000/svg"
   xmlns:xlink="http://www.w3.org/1999/xlink"
   xmlns:sodipodi="http://sodipodi.sourceforge.net/DTD/sodipodi-0.dtd"
   xmlns:inkscape="http://www.inkscape.org/namespaces/inkscape"
   viewBox="0 0 960.00004 640.00079"
   id="svg2"
   version="1.1"
   inkscape:version="0.91 r13725"
   sodipodi:docname="BevelledUganda.svg"
   width="960.00006"
   height="640.00079">
  <metadata
     id="metadata4551">
    <rdf:RDF>
      <cc:Work
         rdf:about="">
        <dc:format>image/svg+xml</dc:format>
        <dc:type
           rdf:resource="http://purl.org/dc/dcmitype/StillImage" />
        <dc:title></dc:title>
      </cc:Work>
    </rdf:RDF>
  </metadata>
  <sodipodi:namedview
     pagecolor="#ffffff"
     bordercolor="#666666"
     borderopacity="1"
     objecttolerance="10"
     gridtolerance="10"
     guidetolerance="10"
     inkscape:pageopacity="0"
     inkscape:pageshadow="2"
     inkscape:window-width="1600"
     inkscape:window-height="837"
     id="namedview4549"
     showgrid="true"
     fit-margin-top="0"
     fit-margin-left="0"
     fit-margin-right="0"
     fit-margin-bottom="0"
     inkscape:object-nodes="true"
     inkscape:snap-smooth-nodes="true"
     inkscape:object-paths="false"
     inkscape:snap-global="true"
     inkscape:zoom="1.0468737"
     inkscape:cx="480.00003"
     inkscape:cy="320.0004"
     inkscape:window-x="-8"
     inkscape:window-y="-8"
     inkscape:window-maximized="1"
     inkscape:current-layer="svg2" />
  <defs
     id="defs4">
    <linearGradient
       id="linearGradient6136">
      <stop
         style="stop-color:#000000;stop-opacity:0;"
         offset="0"
         id="stop6138" />
      <stop
         style="stop-color:#000000;stop-opacity:1;"
         offset="1"
         id="stop6140" />
    </linearGradient>
    <linearGradient
       id="linearGradient22506">
      <stop
         style="stop-color:#ffffff;stop-opacity:1;"
         offset="0"
         id="stop22508" />
      <stop
         style="stop-color:#ffffff;stop-opacity:0;"
         offset="1"
         id="stop22510" />
    </linearGradient>
    <linearGradient
       id="linearGradient22338">
      <stop
         style="stop-color:#000000;stop-opacity:0;"
         offset="0"
         id="stop22340" />
      <stop
         id="stop6129"
         offset="0.5"
         style="stop-color:#000000;stop-opacity:0;" />
      <stop
         style="stop-color:#000000;stop-opacity:1;"
         offset="1"
         id="stop22342" />
    </linearGradient>
    <filter
       style="color-interpolation-filters:sRGB"
       inkscape:label="Blur"
       id="filter23929">
      <feGaussianBlur
         stdDeviation="1 5"
         result="blur"
         id="feGaussianBlur23931" />
    </filter>
    <filter
       style="color-interpolation-filters:sRGB"
       inkscape:label="Blur"
       id="filter23980">
      <feGaussianBlur
         stdDeviation="2 2"
         result="blur"
         id="feGaussianBlur23982" />
    </filter>
    <filter
       style="color-interpolation-filters:sRGB"
       inkscape:label="Blur"
       id="filter23988">
      <feGaussianBlur
         stdDeviation="1 1"
         result="blur"
         id="feGaussianBlur23990" />
    </filter>
    <filter
       style="color-interpolation-filters:sRGB"
       inkscape:label="Blur"
       id="filter24008">
      <feGaussianBlur
         stdDeviation="1 1"
         result="blur"
         id="feGaussianBlur24010" />
    </filter>
    <filter
       style="color-interpolation-filters:sRGB"
       inkscape:label="Blur"
       id="filter24012">
      <feGaussianBlur
         stdDeviation="1 1"
         result="blur"
         id="feGaussianBlur24014" />
    </filter>
    <filter
       style="color-interpolation-filters:sRGB"
       inkscape:label="Blur"
       id="filter24016">
      <feGaussianBlur
         stdDeviation="1 1"
         result="blur"
         id="feGaussianBlur24018" />
    </filter>
    <filter
       style="color-interpolation-filters:sRGB"
       inkscape:label="Blur"
       id="filter24020">
      <feGaussianBlur
         stdDeviation="1 1"
         result="blur"
         id="feGaussianBlur24022" />
    </filter>
    <filter
       style="color-interpolation-filters:sRGB"
       inkscape:label="Blur"
       id="filter24024">
      <feGaussianBlur
         stdDeviation="1 1"
         result="blur"
         id="feGaussianBlur24026" />
    </filter>
    <filter
       style="color-interpolation-filters:sRGB"
       inkscape:label="Blur"
       id="filter24028">
      <feGaussianBlur
         stdDeviation="1 1"
         result="blur"
         id="feGaussianBlur24030" />
    </filter>
    <filter
       style="color-interpolation-filters:sRGB"
       inkscape:label="Blur"
       id="filter24032">
      <feGaussianBlur
         stdDeviation="1 1"
         result="blur"
         id="feGaussianBlur24034" />
    </filter>
    <filter
       style="color-interpolation-filters:sRGB"
       inkscape:label="Blur"
       id="filter24036">
      <feGaussianBlur
         stdDeviation="1 1"
         result="blur"
         id="feGaussianBlur24038" />
    </filter>
    <filter
       style="color-interpolation-filters:sRGB"
       inkscape:label="Blur"
       id="filter24052">
      <feGaussianBlur
         stdDeviation="1 1"
         result="blur"
         id="feGaussianBlur24054" />
    </filter>
    <filter
       style="color-interpolation-filters:sRGB"
       inkscape:label="Blur"
       id="filter24309">
      <feGaussianBlur
         stdDeviation="2 2"
         result="blur"
         id="feGaussianBlur24311" />
    </filter>
    <clipPath
       clipPathUnits="userSpaceOnUse"
       id="clipPath4532">
      <path
         inkscape:connector-curvature="0"
         id="path4534"
         d="M 18.75,-2.6189942e-4 A 18.75,18.75 0 0 0 0,18.749739 L 0,381.25023 a 18.75,18.75 0 0 0 18.75,18.75 l 562.50001,0 a 18.75,18.75 0 0 0 18.75001,-18.75 l 0,-362.500491 A 18.75,18.75 0 0 0 581.25001,-2.6189942e-4 l -562.50001,0 z"
         style="fill:#00ffff;fill-opacity:1" />
    </clipPath>
    <radialGradient
       inkscape:collect="always"
       xlink:href="#linearGradient22338"
       id="radialGradient6127"
       cx="1070"
       cy="700.00079"
       fx="1070"
       fy="700.00079"
       r="40"
       gradientUnits="userSpaceOnUse"
       gradientTransform="matrix(-1,0,0,1,1830,-99.999203)" />
    <linearGradient
       inkscape:collect="always"
       xlink:href="#linearGradient6136"
       id="linearGradient6142"
       x1="780"
       y1="373.3338"
       x2="800"
       y2="373.3338"
       gradientUnits="userSpaceOnUse" />
    <linearGradient
       inkscape:collect="always"
       xlink:href="#linearGradient6136"
       id="linearGradient6152"
       x1="410"
       y1="620.00079"
       x2="410"
       y2="640.00079"
       gradientUnits="userSpaceOnUse" />
    <radialGradient
       inkscape:collect="always"
       xlink:href="#linearGradient22338"
       id="radialGradient6156"
       gradientUnits="userSpaceOnUse"
       gradientTransform="translate(-1030,-99.9992)"
       cx="1070"
       cy="700.00079"
       fx="1070"
       fy="700.00079"
       r="40" />
    <linearGradient
       inkscape:collect="always"
       xlink:href="#linearGradient6136"
       id="linearGradient6160"
       gradientUnits="userSpaceOnUse"
       x1="780"
       y1="373.3338"
       x2="800"
       y2="373.3338"
       gradientTransform="translate(-800,0)" />
    <linearGradient
       inkscape:collect="always"
       xlink:href="#linearGradient6136"
       id="linearGradient6164"
       gradientUnits="userSpaceOnUse"
       x1="410"
       y1="620.00079"
       x2="410"
       y2="640.00079"
       gradientTransform="translate(0,-746.66757)" />
    <radialGradient
       inkscape:collect="always"
       xlink:href="#linearGradient22338"
       id="radialGradient6174"
       gradientUnits="userSpaceOnUse"
       gradientTransform="matrix(-1,0,0,-1,1830,846.66678)"
       cx="1070"
       cy="700.00079"
       fx="1070"
       fy="700.00079"
       r="40" />
    <radialGradient
       inkscape:collect="always"
       xlink:href="#linearGradient22338"
       id="radialGradient6176"
       gradientUnits="userSpaceOnUse"
       gradientTransform="matrix(1,0,0,-1,-1030,846.66678)"
       cx="1070"
       cy="700.00079"
       fx="1070"
       fy="700.00079"
       r="40" />
    <linearGradient
       inkscape:collect="always"
       xlink:href="#linearGradient22506"
       id="linearGradient6209"
       x1="2050"
       y1="-120.00079"
       x2="2560"
       y2="-630.00079"
       gradientUnits="userSpaceOnUse"
       gradientTransform="matrix(1,0,0,1.0068041,-1000,4.218536)" />
    <filter
       style="color-interpolation-filters:sRGB"
       inkscape:label="Blur"
       id="filter6223">
      <feGaussianBlur
         stdDeviation="2 2"
         result="blur"
         id="feGaussianBlur6225" />
    </filter>
    <pattern
       y="0"
       x="0"
       height="6"
       width="6"
       patternUnits="userSpaceOnUse"
       id="EMFhbasepattern" />
    <pattern
       y="0"
       x="0"
       height="6"
       width="6"
       patternUnits="userSpaceOnUse"
       id="EMFhbasepattern-4" />
    <clipPath
       clipPathUnits="userSpaceOnUse"
       id="clipPath5582">
      <rect
         style="fill:#d70000;fill-opacity:1"
         id="rect5584"
         width="900"
         height="600.00073"
         x="0"
         y="-600"
         transform="scale(1,-1)"
         ry="45" />
    </clipPath>
  </defs>
  <g
     id="g5586"
     transform="translate(80,-54.288626)">
    <rect
       style="fill:#000000;fill-opacity:1;filter:url(#filter6223)"
       id="rect6199"
       width="800"
       height="533.33398"
       x="-1000"
       y="-640.00079"
       transform="matrix(1,0,0,-1,1000,0.95522506)"
       ry="40" />
    <g
       clip-path="url(#clipPath5582)"
       transform="matrix(0.88888889,0,0,0.88888889,0,106.66746)"
       id="g4178">
      <rect
         y="0"
         x="0"
         width="900"
         height="600"
         id="rect4" />
      <rect
         style="fill:#fcdc04"
         x="0"
         y="100"
         width="900"
         height="100"
         id="rect6" />
      <rect
         style="fill:#d90000"
         x="0"
         y="200"
         width="900"
         height="100"
         id="rect8" />
      <rect
         style="fill:#fcdc04"
         x="0"
         y="400"
         width="900"
         height="100"
         id="rect10" />
      <rect
         style="fill:#d90000"
         x="0"
         y="500"
         width="900"
         height="100"
         id="rect12" />
      <circle
         style="fill:#ffffff"
         cx="450"
         cy="300"
         r="93.5"
         id="circle14" />
      <g
         style="stroke:#000000"
         id="g16">
        <path
           style="fill:#d90000"
           inkscape:connector-curvature="0"
           d="m 433.52031,228.39062 -6.06438,-11.17029 c 2.34014,-2.34013 6.27719,-4.14905 12.55357,-4.14905 0,0.42563 -0.63844,12.23435 -0.63844,12.23435 z"
           id="path18" />
        <path
           style="fill:#fcdc04"
           inkscape:connector-curvature="0"
           d="m 439.37106,225.41204 0.85125,-12.34076 c 0,0 12.55357,-0.74404 19.36199,7.44685 0.1064,-0.1064 -6.70201,9.57418 -6.70201,9.57418 z"
           id="path20" />
        <path
           style="fill:#d90000"
           inkscape:connector-curvature="0"
           d="m 453.0951,229.98591 6.16998,-9.57418 c 4.14905,4.36187 5.85075,7.44685 6.48919,12.12794 0.10641,0.10641 -9.78699,2.44655 -9.78699,2.34014 0,-0.10641 -2.76577,-4.7875 -2.87218,-4.8939 z"
           id="path22" />
        <path
           inkscape:connector-curvature="0"
           d="m 436.60529,388.07318 c 0,0 11.59591,-13.29842 34.14929,-10.42544 -3.40421,-5.53234 -14.36168,-4.8939 -14.36168,-4.8939 0,0 -3.4042,-25.85118 -0.74484,-27.12806 2.65935,-1.27688 13.93604,0.10641 13.93604,0.10641 1.48889,0 4.04265,-4.04265 2.02173,-6.5956 -2.02173,-2.55377 -7.97889,-12.34076 -5.53234,-14.25608 2.44736,-1.91451 15.74496,1.06406 15.74496,1.06406 l -37.55349,-48.08533 c 0,0 -3.82983,-18.0851 3.82983,-26.80884 9.25578,-7.65967 8.29811,-15.95778 7.97889,-15.85137 -1.27688,-8.40452 -14.04245,-14.46889 -22.65978,-6.70201 -5.10672,6.16998 -1.70251,10.85106 -1.70251,10.85106 0,0 -13.40401,3.61702 -13.93605,5.95716 -0.53203,2.34095 15.10652,-0.42481 15.10652,-0.42481 l -1.48969,10.74465 c 0,0 -30.42586,27.65928 -7.12764,51.59595 0.21282,-0.10641 0.74485,-1.06407 0.74485,-1.06407 0,0 8.1917,10.10703 16.80822,12.34076 8.0853,8.29811 7.34126,7.02123 7.34126,7.02123 0,0 1.59529,13.0856 0.10641,15.63855 -2.02173,-0.63844 -22.65979,-1.38247 -25.74558,-0.21281 -2.76577,0.85126 -13.40402,0.31922 -10.74466,17.66029 2.02092,-4.68109 3.82984,-8.83015 3.82984,-8.83015 0,0 -0.31922,6.27638 2.23454,8.51093 -0.42563,-6.59641 2.44654,-11.06388 2.44654,-11.06388 0,0 0.53204,7.23404 2.12733,8.2973 1.5961,1.06407 1.5961,-11.70232 10.42625,-10.63825 8.82933,1.06407 15.21293,0.74485 15.21293,0.74485 0,0 2.97858,24.99992 2.02091,27.34087 -6.3836,-1.48969 -21.59571,0.63844 -22.55337,4.46828 8.93573,-0.53204 13.0856,0.53122 13.0856,0.53122 0,0 -7.23404,6.3836 -5.00031,10.10703 z"
           id="path24" />
        <path
           style="fill:#9ca69c;stroke:#9ca69c"
           inkscape:connector-curvature="0"
           d="m 440.19145,251.66041 c 0,0 -22.13913,24.4021 -12.58769,43.07528 0.50848,-2.60412 0.28673,-4.24003 0.60595,-4.13362 -0.53203,-0.31922 2.74546,2.24673 2.49609,1.74718 0.0699,-1.34998 -0.99827,-4.24327 -0.99827,-4.24327 0.99827,0.24936 1.99736,0.49954 2.99564,0.7489 -0.5824,-1.08193 -1.16561,-2.16306 -1.748,-3.245 1.41497,0.16652 2.82912,0.33222 4.24409,0.49873 0,0 -1.49782,-3.99391 -0.99828,-3.99391 0.49874,0 3.49437,0.24937 3.49437,0.24937 -6.29587,-11.29862 -0.35658,-20.68192 2.4961,-30.70366 z"
           id="path26" />
        <path
           style="fill:#9ca69c;stroke:#9ca69c"
           inkscape:connector-curvature="0"
           d="m 447.88198,230.73075 c 0,0 1.17048,8.40452 -3.40421,10.85107 -0.74484,0.53203 -3.61702,1.48969 -3.19139,3.1922 0.53203,2.34014 1.8081,1.91451 3.61702,1.48888 4.78668,-0.85125 10.31903,-11.06387 2.97858,-15.53215 z"
           id="path28" />
        <circle
           style="fill:#ffffff;stroke:none"
           cx="438"
           cy="238"
           r="1.8"
           id="circle30" />
        <path
           style="fill:#d90000"
           inkscape:connector-curvature="0"
           d="m 432.56264,244.98602 c -1.17047,0.95766 -7.34044,7.34126 -1.27688,9.6814 6.27719,-1.70251 4.57468,-2.87217 5.95797,-4.25546 0.0357,-2.87217 -3.12072,-3.61702 -4.68109,-5.42594 z"
           id="path32" />
        <path
           style="fill:#9ca69c;stroke:#9ca69c"
           inkscape:connector-curvature="0"
           d="m 445.96666,305.30652 c -0.31922,1.38329 -1.7017,6.48919 0.21281,10.42543 5.31953,-2.23373 7.76608,-1.5961 9.57499,-0.42562 -4.36105,-3.51062 -6.06356,-5.00031 -9.7878,-9.99981 z"
           id="path34" />
        <path
           style="fill:#ffffff;stroke:#ffffff"
           inkscape:connector-curvature="0"
           d="m 455.11602,329.45519 0.31922,11.91513 c 0,0 4.14906,0.74485 6.06357,0 1.91532,-0.74485 -0.10641,-8.29811 -6.38279,-11.91513 z"
           id="path36" />
        <path
           style="fill:#9ca69c"
           inkscape:connector-curvature="0"
           d="m 485.22266,330.94488 c 0,0 -7.65967,-18.51073 -27.23447,-23.19181 -19.57479,-4.68109 -17.02184,-25.53196 -15.42574,-26.80884 0.85126,-1.80892 1.4897,-4.57469 7.12763,-1.91452 5.63875,2.65936 31.59634,15.74416 35.31977,16.3826 3.72342,0.63844 0.53203,35.9582 0.21281,35.53257 z"
           id="path38" />
        <path
           style="fill:#d90000"
           inkscape:connector-curvature="0"
           d="m 466.60552,307.64666 c -0.31922,0.21281 26.1704,15.63774 18.19151,28.93616 7.55408,-5.00031 5.10672,-13.72323 5.10672,-13.72323 0,0 6.16997,16.06418 -8.83014,23.93667 1.5961,1.38328 2.66017,1.06325 2.66017,1.06325 l -2.55377,2.55377 c 0,0 -1.17047,1.91451 8.93655,-2.9794 -2.76657,2.23455 -2.97858,3.82984 -2.97858,3.82984 0,0 0.74404,2.12813 7.34045,-3.61702 -5.31953,5.74515 -6.49,8.72373 -6.49,8.61733 14.36167,-1.27688 45.63879,-47.97893 -9.8934,-61.80938 2.97939,3.08579 2.55295,2.66017 2.55295,2.66017 z"
           id="path40" />
        <path
           style="fill:#ffffff"
           inkscape:connector-curvature="0"
           d="m 467.776,303.07198 c 3.61702,2.55295 4.89309,3.4042 5.31872,4.68109 -3.2978,-0.74404 -6.27638,-0.53204 -6.27638,-0.53204 0,0 -7.12764,-6.80841 -8.40452,-7.34045 -0.95766,0 -6.48919,-3.51061 -6.48919,-3.51061 -2.76577,-1.38329 -5.31872,-10.95747 4.8939,-8.1917 10.53103,4.99949 12.02073,5.42593 12.02073,5.42593 4.18479,1.31181 8.36877,2.62444 12.55357,3.93624 2.41161,2.6951 4.82242,5.3902 7.23404,8.0853 0,0 -12.87198,-6.3836 -14.46808,-6.49 3.51061,2.87217 5.53234,6.80841 5.53234,6.80841 -4.07839,-1.17048 -7.62393,-2.23373 -11.91513,-2.87217 z"
           id="path42" />
        <path
           style="stroke:#ffffff"
           inkscape:connector-curvature="0"
           d="m 417.66893,245.94368 c 0,0 12.34076,-2.97858 13.82965,-2.55295"
           id="path44" />
      </g>
    </g>
    <g
       transform="translate(-1000,0)"
       id="g6211">
      <g
         id="g6189"
         transform="translate(1000,0)">
        <path
           inkscape:connector-curvature="0"
           id="path5058"
           d="m 800,600.00079 a 40,40 0 0 1 -40,40 l 0,-20 a 20,20 0 0 0 20,-20 l 20,0 z"
           style="opacity:0.603;fill:url(#radialGradient6127);fill-opacity:1" />
        <rect
           ry="0"
           y="146.66679"
           x="780"
           height="453.33401"
           width="20"
           id="rect6134"
           style="opacity:0.603;fill:url(#linearGradient6142);fill-opacity:1" />
        <rect
           y="620.00079"
           x="40"
           height="20"
           width="720"
           id="rect6144"
           style="opacity:0.603;fill:url(#linearGradient6152);fill-opacity:1" />
        <path
           style="opacity:0.603;fill:url(#radialGradient6156);fill-opacity:1"
           d="m 0,600.00079 a 40,40 0 0 0 40,40 l 0,-20 a 20,20 0 0 1 -20,-20 l -20,0 z"
           id="path6154"
           inkscape:connector-curvature="0" />
        <rect
           transform="scale(-1,1)"
           style="opacity:0.603;fill:url(#linearGradient6160);fill-opacity:1"
           id="rect6158"
           width="20"
           height="453.33401"
           x="-20"
           y="146.66679"
           ry="0" />
        <rect
           transform="scale(1,-1)"
           style="opacity:0.603;fill:url(#linearGradient6164);fill-opacity:1"
           id="rect6162"
           width="720"
           height="20"
           x="40"
           y="-126.66679" />
        <path
           style="opacity:0.603;fill:url(#radialGradient6174);fill-opacity:1"
           d="m 800,146.66679 a 40,40 0 0 0 -40,-40 l 0,20 a 20,20 0 0 1 20,20 l 20,0 z"
           id="path6166"
           inkscape:connector-curvature="0" />
        <path
           inkscape:connector-curvature="0"
           id="path6168"
           d="m 0,146.66679 a 40,40 0 0 1 40,-40 l 0,20 a 20,20 0 0 0 -20,20 l -20,0 z"
           style="opacity:0.603;fill:url(#radialGradient6176);fill-opacity:1" />
      </g>
      <rect
         style="opacity:0.3;fill:url(#linearGradient6209);fill-opacity:1"
         id="rect6201"
         width="760"
         height="493.33401"
         x="1020"
         y="-620.00079"
         ry="20"
         transform="scale(1,-1)" />
    </g>
  </g>
</svg>
